<svg width="94" height="120" viewBox="0 0 94 120" fill="none" xmlns="http://www.w3.org/2000/svg">
<mask id="mask0_4554_91269" style="mask-type:luminance" maskUnits="userSpaceOnUse" x="0" y="0" width="94" height="120">
<path d="M62.7206 0.000331476L0 19.5938L31.2551 119.645L93.9757 100.051L62.7206 0.000331476Z" fill="white"/>
</mask>
<g mask="url(#mask0_4554_91269)">
<mask id="mask1_4554_91269" style="mask-type:luminance" maskUnits="userSpaceOnUse" x="-454" y="-553" width="690" height="827">
<path d="M24.4996 -552.203L-453.578 -402.855L-242.232 273.685L235.845 124.337L24.4996 -552.203Z" fill="white"/>
</mask>
<g mask="url(#mask1_4554_91269)">
<path d="M105.297 68.1809C97.3035 68.1118 92.3325 67.8391 92.9472 62.5232C93.5619 57.2073 101.571 53.4002 112.958 43.4403C124.345 33.4805 140.151 25.8355 153.052 27.4141C155.607 26.6159 160.351 27.6298 164.206 28.7892C168.441 30.0676 172.132 33.2712 167.049 37.0726C161.572 41.1648 151.818 51.4964 146.541 56.4257C141.261 61.3469 136.711 67.1073 133.283 67.5961" fill="white"/>
<path d="M105.293 67.8907C101.969 67.8623 99.169 67.7932 97.1192 67.3576C96.0903 67.1411 95.2602 66.8272 94.632 66.3973C94.0119 65.9648 93.5881 65.427 93.3597 64.6958C93.179 64.1173 93.1258 63.4107 93.2274 62.55C93.3711 61.288 93.9552 60.109 94.9532 58.8713C97.9309 55.1631 104.589 51.1253 113.144 43.6463C120.216 37.4598 128.996 32.1684 137.706 29.4475C142.968 27.8034 148.206 27.0934 153.013 27.6904L153.133 27.6793C154.33 27.3054 156.124 27.3447 158.094 27.6377C160.056 27.9331 162.2 28.4717 164.119 29.0539C165.297 29.409 166.435 29.9178 167.328 30.5471C168.227 31.1659 168.871 31.8996 169.114 32.679C169.297 33.2656 169.264 33.8933 168.934 34.5873C168.604 35.2812 167.943 36.0434 166.879 36.8433C161.358 40.9665 151.615 51.3037 146.349 56.2118C143.863 58.5316 141.539 61.0302 139.432 63.0642C137.327 65.1063 135.421 66.6809 133.843 67.1649C133.634 67.2301 133.436 67.2743 133.242 67.2999C133.081 67.3235 132.977 67.4706 132.998 67.6228C133.022 67.783 133.169 67.887 133.321 67.8659C133.548 67.8302 133.778 67.776 134.011 67.7032C135.779 67.151 137.695 65.5206 139.824 63.471C141.95 61.4133 144.26 58.9279 146.732 56.6212C152.018 51.6894 161.78 41.3552 167.211 37.2862C168.335 36.4502 169.048 35.6277 169.438 34.8178C169.832 34.0158 169.881 33.2154 169.648 32.4948C169.349 31.5386 168.603 30.7311 167.646 30.0686C166.687 29.3981 165.499 28.8697 164.273 28.503C162.335 27.9178 160.171 27.3682 158.164 27.0692C156.156 26.7702 154.31 26.7033 152.952 27.1275L153.037 27.4007L153.072 27.1164C148.158 26.5174 142.843 27.234 137.524 28.8956C128.718 31.6466 119.879 36.9742 112.759 43.2024C107.071 48.1718 102.237 51.6132 98.7239 54.4832C96.9686 55.9222 95.5383 57.2157 94.5022 58.5007C93.4662 59.7856 92.8187 61.0726 92.6564 62.4726C92.5458 63.3891 92.5975 64.1755 92.8108 64.8584C93.0744 65.7021 93.5915 66.3695 94.3066 66.8517C95.3842 67.591 96.8761 67.9627 98.725 68.1788C100.571 68.3869 102.789 68.4263 105.283 68.4496C105.442 68.4527 105.57 68.3246 105.573 68.1649C105.576 68.0052 105.448 67.8777 105.288 67.8746" fill="#1D2088"/>
<path d="M132.181 60.9453C134.072 59.9135 139.579 53.7132 145.548 48.2593C151.516 42.8053 162.022 33.1563 162.001 31.7341C161.977 30.3039 154.2 27.7948 143.308 25.5621C132.423 23.3269 130.371 24.7177 130.371 24.7177C130.371 24.7177 121.389 23.2374 110.694 31.6848C99.4414 40.5796 96.7061 55.9326 98.049 60.2313C98.807 62.6579 104.593 62.4907 109.155 61.9915C113.715 61.4842 127.376 63.5751 132.189 60.9427" fill="#1D2088"/>
<path d="M143.516 37.5185C143.516 37.5185 130.101 23.7096 112.371 30.4475C111.824 30.8391 111.257 31.2543 110.689 31.6962C101.656 38.8306 98.1135 50.132 97.7659 56.5286C97.8221 56.2288 98.8485 51.6662 109.229 51.4132C119.963 51.1641 129.509 54.7611 129.509 54.7611C134.594 45.7733 139.55 40.5477 143.519 37.5" fill="#FFFCDB"/>
<path d="M137.745 24.9031C137.745 24.9031 137.899 24.9167 138.196 24.9649C139.229 25.1096 141.886 25.5674 144.73 26.6544C147.574 27.7413 150.598 29.46 152.38 32.0871L152.612 31.9264L152.551 31.6457C152.412 31.6803 152.24 31.725 152.055 31.7827C148.809 32.7967 138.734 37.8933 129.26 54.6281L129.508 54.7712L129.609 54.5015C129.609 54.5015 120.021 50.8825 109.225 51.133C106.519 51.1935 104.436 51.5533 102.821 52.0579C100.41 52.8109 99.0662 53.901 98.3379 54.8164C97.6097 55.7317 97.4891 56.4749 97.4805 56.504C97.4589 56.6607 97.5654 56.8039 97.7246 56.8335C97.8812 56.8551 98.0244 56.7486 98.054 56.5895C98.054 56.5895 98.1816 55.897 98.8571 55.0951C99.5301 54.2852 100.749 53.3045 102.999 52.6017C104.55 52.1173 106.575 51.767 109.244 51.7004C114.576 51.5779 119.625 52.4085 123.335 53.2777C125.191 53.7122 126.713 54.1538 127.769 54.4853C128.299 54.6551 128.711 54.7907 128.989 54.8892C129.267 54.9876 129.415 55.0383 129.415 55.0383C129.545 55.086 129.695 55.0303 129.764 54.9118C139.166 38.2875 149.149 33.2904 152.226 32.3291C152.403 32.2738 152.556 32.2262 152.681 32.2046C152.77 32.177 152.848 32.1172 152.882 32.0273C152.915 31.9375 152.904 31.8441 152.852 31.7632C150.686 28.5858 146.919 26.7464 143.702 25.679C140.485 24.6116 137.806 24.3372 137.796 24.3316C137.641 24.3181 137.498 24.4245 137.479 24.5892C137.466 24.7434 137.572 24.8865 137.737 24.9056" fill="#1D2088"/>
<path d="M132.182 60.946L132.321 61.1935C132.841 60.9078 133.539 60.3194 134.422 59.5054C137.062 57.0581 141.271 52.5506 145.739 48.4739C148.725 45.751 152.843 41.9686 156.22 38.6913C157.905 37.0539 159.408 35.5435 160.488 34.3419C161.032 33.7399 161.47 33.2237 161.769 32.7954C161.922 32.58 162.048 32.3906 162.128 32.2244C162.217 32.0557 162.275 31.9051 162.273 31.7293L162.235 31.5209C162.147 31.2397 161.93 31.0252 161.636 30.7907C160.607 30.0097 158.374 29.1287 155.211 28.1768C152.047 27.2249 147.979 26.2291 143.343 25.2786C134.732 23.5151 131.602 23.9989 130.595 24.3046C130.33 24.3875 130.212 24.4598 130.182 24.4779L130.343 24.7099L130.388 24.4312C130.388 24.4312 126.781 23.8383 121.462 25.4999C118.296 26.4889 114.506 28.2727 110.489 31.45C104.81 35.9404 101.286 42.0504 99.3524 47.5755C98.3814 50.3394 97.8152 52.9591 97.5684 55.1616C97.3242 57.3721 97.3968 59.1573 97.7532 60.2983C97.9766 61.0134 98.5636 61.5091 99.3213 61.8456C100.467 62.3519 102.059 62.5338 103.805 62.5616C105.551 62.5894 107.438 62.4495 109.159 62.2558C111.195 62.0255 115.225 62.3363 119.429 62.4959C123.638 62.645 128.023 62.6509 130.916 61.7473C131.422 61.5891 131.891 61.3984 132.298 61.1745L132.159 60.9269L132.02 60.6793C131.651 60.8826 131.219 61.0528 130.737 61.2034C127.997 62.0593 123.63 62.083 119.437 61.9289C115.244 61.7749 111.238 61.4566 109.09 61.6954C106.822 61.9453 104.245 62.1067 102.174 61.9157C101.138 61.8162 100.225 61.6338 99.5494 61.3335C98.8735 61.0331 98.4522 60.6443 98.2941 60.1381C97.9803 59.1338 97.8936 57.3882 98.1289 55.2334C98.8456 48.748 102.48 38.5027 110.842 31.904C114.802 28.7709 118.531 27.0152 121.633 26.0463C124.236 25.2331 126.411 24.9681 127.927 24.909C128.686 24.8835 129.282 24.9001 129.689 24.9318C129.888 24.9489 130.043 24.9625 130.143 24.975L130.255 24.9931L130.292 24.9991L130.498 24.9524C130.498 24.9524 130.571 24.9033 130.764 24.843C131.599 24.582 134.658 24.0675 143.224 25.8275C148.502 26.9127 153.049 28.0585 156.325 29.1164C157.963 29.6454 159.284 30.1497 160.202 30.6037C160.661 30.8308 161.027 31.0427 161.274 31.2391C161.528 31.433 161.65 31.5977 161.678 31.6861L161.69 31.7262C161.69 31.7262 161.667 31.8217 161.604 31.9562C161.354 32.4574 160.54 33.435 159.393 34.6486C155.964 38.295 149.521 44.2059 145.321 48.04C142.33 50.7735 139.458 53.6904 137.099 56.0498C135.924 57.2283 134.874 58.2706 134.004 59.0715C133.137 59.8804 132.442 60.4503 132.02 60.6793L132.159 60.9269" fill="#1D2088"/>
<path d="M93.6324 65.8351C99.271 67.9629 100.826 61.6478 103.68 60.5358C104.93 60.0483 107.196 61.0071 107.859 62.5639C108.873 64.9634 110.056 66.3223 112.607 66.0193C114.968 65.7312 116.72 62.2208 118.647 60.8516C121.424 58.8728 122.967 56.8653 126.512 59.4619C130.057 62.0584 130.618 72.607 137.617 64.9441C142.829 59.2415 139.355 58.4834 139.355 58.4834C139.355 58.4834 132.247 56.1973 128.878 55.151C120.545 52.5861 118.636 57.2304 116.551 58.2346C112.109 60.3894 111.517 54.9921 105.312 55.0608C101.698 55.0961 101.761 56.0025 98.2706 58.6626C94.7802 61.3228 93.6354 65.8166 93.6354 65.8166" fill="white"/>
<path d="M93.636 65.835L93.5351 66.1047C94.9863 66.6567 96.2081 66.6719 97.2501 66.3376C98.8249 65.8456 99.9504 64.6209 100.944 63.455C101.936 62.281 102.822 61.1663 103.777 60.8063L103.865 60.7787C104.393 60.605 105.195 60.7161 105.926 61.0787C106.654 61.4333 107.303 62.0154 107.591 62.6838C108.103 63.8996 108.676 64.8849 109.47 65.5363C110.275 66.1932 111.308 66.4791 112.631 66.3125C112.81 66.2919 112.992 66.2528 113.169 66.1975C114.334 65.8336 115.293 64.8374 116.199 63.8135C117.102 62.7817 117.961 61.6931 118.801 61.1046C120.272 60.0542 121.38 59.0289 122.531 58.678C123.054 58.5148 123.581 58.4823 124.199 58.6244C124.809 58.7691 125.513 59.1046 126.338 59.7113C127.659 60.6656 128.616 62.9681 129.698 64.9056C130.238 65.8743 130.821 66.7506 131.55 67.3342C132.271 67.9203 133.19 68.1801 134.248 67.8407C135.277 67.5194 136.435 66.6814 137.827 65.1529C139.194 63.6586 139.975 62.4887 140.392 61.5647C140.809 60.6408 140.844 59.9332 140.681 59.4109C140.528 58.9208 140.206 58.6245 139.932 58.4542C139.658 58.284 139.43 58.2317 139.404 58.2312L139.342 58.5149L139.433 58.2398C139.433 58.2398 132.325 55.9537 128.947 54.9098C125.718 53.9167 123.401 53.9793 121.657 54.524C120.259 54.9607 119.239 55.7028 118.424 56.3982C117.609 57.0937 116.982 57.7394 116.415 58.0135C116.146 58.1415 115.889 58.2485 115.656 58.3213C114.772 58.5974 114.105 58.5235 113.452 58.2688C112.477 57.8856 111.556 57.0268 110.325 56.2473C109.094 55.4678 107.541 54.7887 105.301 54.8181C104.202 54.8266 103.42 54.9209 102.753 55.1293C101.99 55.3677 101.415 55.7588 100.739 56.3051C100.071 56.8489 99.2882 57.5609 98.0834 58.4752C94.4932 61.2107 93.3553 65.7552 93.3468 65.7843C93.3121 65.9274 93.3839 66.0726 93.524 66.1258L93.625 65.8561L93.9032 65.928C93.9032 65.928 93.9177 65.8617 93.9599 65.7427C94.2161 64.8689 95.4654 61.1892 98.4394 58.9372C99.6658 58.0074 100.462 57.2823 101.109 56.7541C101.763 56.2234 102.259 55.892 102.926 55.6837C103.505 55.5029 104.233 55.4076 105.306 55.3987C108.129 55.3723 109.711 56.4833 111.124 57.5058C111.83 58.0171 112.487 58.5088 113.234 58.8132C113.982 59.1176 114.827 59.1975 115.813 58.8807C116.078 58.7979 116.36 58.6834 116.65 58.5398C117.362 58.1939 117.99 57.5216 118.777 56.8523C119.565 56.1829 120.513 55.4901 121.814 55.0834C123.429 54.5789 125.609 54.4977 128.769 55.4682C130.455 55.9821 133.073 56.8225 135.266 57.5217C136.365 57.8754 137.362 58.1898 138.08 58.4244C138.797 58.659 139.247 58.8006 139.247 58.8006L139.276 58.8092C139.276 58.8092 139.477 58.861 139.656 58.9815C139.837 59.1101 140.028 59.2974 140.123 59.6027C140.234 59.9562 140.229 60.5046 139.85 61.3548C139.478 62.1943 138.729 63.3276 137.386 64.7878C136.027 66.2796 134.926 67.0468 134.056 67.3099C133.172 67.586 132.513 67.3951 131.883 66.9039C130.946 66.1646 130.171 64.6696 129.39 63.1585C128.601 61.6499 127.805 60.1172 126.655 59.2594C125.786 58.6226 125.026 58.2514 124.311 58.0781C123.606 57.9103 122.947 57.9484 122.339 58.1472C121.005 58.5638 119.885 59.6369 118.447 60.6506C117.502 61.3249 116.643 62.4401 115.75 63.4509C114.86 64.4697 113.935 65.3761 112.976 65.6667C112.832 65.7119 112.685 65.7491 112.538 65.7596C111.321 65.9016 110.487 65.6594 109.803 65.106C109.118 64.5525 108.584 63.6611 108.09 62.475C107.728 61.6268 106.971 60.9814 106.148 60.5771C105.319 60.1833 104.412 60.017 103.665 60.2504L103.536 60.2906C102.353 60.766 101.463 61.9526 100.474 63.108C99.4859 64.2633 98.4262 65.3881 97.0442 65.8198C96.1282 66.106 95.0526 66.1069 93.6938 65.5965L93.5928 65.8662" fill="#1D2088"/>
<path d="M99.0453 55.4662C100.331 55.4613 100.501 57.1897 100.501 57.1897C100.501 57.1897 101.242 56.0323 102.498 56.3543C104.493 56.8687 105.167 60.0711 105.276 62.3123C105.499 66.9785 103.326 70.2147 101.24 70.7342C97.8024 71.5876 94.9884 69.3271 93.5457 64.6804C92.6421 61.7878 92.9276 59.0882 93.4976 58.3722C94.1575 57.5487 94.5999 57.9484 94.5999 57.9484C94.5999 57.9484 94.7326 56.8487 95.6124 56.2211C96.5812 55.5393 97.4061 56.8248 97.4061 56.8248C97.4061 56.8248 97.823 55.4776 99.0584 55.4797" fill="#B0D7F2"/>
<path d="M99.0484 55.4663L99.0459 55.7405C99.3733 55.7441 99.5787 55.8651 99.7614 56.0549C99.9362 56.2473 100.054 56.5105 100.126 56.7435C100.169 56.8801 100.196 56.995 100.205 57.0804L100.219 57.1818L100.229 57.214C100.24 57.334 100.321 57.4234 100.435 57.4495C100.549 57.4756 100.667 57.4299 100.733 57.33L100.744 57.309C100.81 57.209 101.151 56.7762 101.657 56.6181C101.882 56.5478 102.13 56.5232 102.429 56.6061C102.919 56.7352 103.324 57.0411 103.669 57.4976C104.015 57.9541 104.28 58.5501 104.483 59.201C104.8 60.2134 104.951 61.3478 104.997 62.3125C105.101 64.5376 104.653 66.4327 103.934 67.8302C103.215 69.2276 102.229 70.1355 101.31 70.4136L101.174 70.4562C99.526 70.8563 98.0757 70.5333 96.8219 69.5403C95.5706 68.5555 94.5187 66.8822 93.8139 64.5977L93.5889 64.668L93.821 64.6484L93.8059 64.6002L93.5864 64.66L93.821 64.6484L93.8009 64.5842C93.3591 63.17 93.2121 61.7961 93.2408 60.7024C93.254 60.1515 93.3163 59.6734 93.4032 59.3023C93.4876 58.9232 93.6152 58.654 93.7106 58.536C93.9341 58.2634 94.0983 58.168 94.2027 58.1354C94.2911 58.1078 94.3388 58.1193 94.3785 58.1334L94.4182 58.1474L94.5 58.0425L94.4076 58.1419L94.492 58.045L94.3996 58.1445C94.4754 58.2178 94.5869 58.2358 94.6808 58.1977C94.7772 58.1676 94.8455 58.0757 94.8581 57.9747C94.8626 57.8763 95.0375 56.9398 95.7551 56.4422C95.8415 56.38 95.9193 56.3468 95.9917 56.3242C96.1363 56.2791 96.2719 56.2896 96.3989 56.3293C96.5947 56.3916 96.7941 56.5498 96.9377 56.6989C97.0055 56.7748 97.0627 56.8451 97.1044 56.8938L97.1486 56.9506L97.1536 56.9666C97.2159 57.053 97.3188 57.1002 97.4308 57.0917C97.5322 57.0776 97.6241 57.0048 97.6528 56.8989C97.6528 56.8989 97.7512 56.6212 97.9155 56.3847C98.0797 56.1482 98.3293 55.9026 98.6587 55.7997C98.7712 55.7646 98.8967 55.743 99.0379 55.743L99.0404 55.4689L99.0429 55.1947C98.8486 55.1936 98.6643 55.2247 98.5036 55.2749C97.9813 55.4381 97.6388 55.8097 97.4304 56.1305C97.2219 56.4514 97.1371 56.7161 97.134 56.7346L97.3962 56.8115L97.6226 56.6613C97.6226 56.6613 97.4364 56.3756 97.1376 56.125C96.983 55.9969 96.8042 55.8764 96.5792 55.8056C96.3623 55.7322 96.0992 55.7086 95.834 55.7914C95.7054 55.8316 95.5764 55.8984 95.4443 55.9837C94.451 56.6997 94.3328 57.8742 94.3243 57.9034L94.598 57.9325L94.7803 57.7257C94.7803 57.7257 94.6859 57.6493 94.5644 57.5991C94.4428 57.5489 94.2515 57.5293 94.0426 57.5945C93.8016 57.6698 93.5479 57.846 93.2808 58.1764C93.0899 58.4124 92.9638 58.7429 92.8654 59.1617C92.5725 60.4261 92.5913 62.5191 93.2816 64.7287L93.5468 64.6459L93.2696 64.662L93.2922 64.7342L93.2891 64.7528C94.0246 67.1071 95.1066 68.8768 96.4864 69.9626C97.8582 71.051 99.5259 71.4207 101.31 70.978L101.479 70.9253C102.596 70.5764 103.656 69.5661 104.424 68.0738C105.193 66.5814 105.659 64.6014 105.551 62.2804C105.498 61.2916 105.348 60.1039 105.014 59.0353C104.798 58.3443 104.507 57.6945 104.112 57.1651C103.717 56.6358 103.211 56.2295 102.57 56.0683C102.167 55.9648 101.805 55.9899 101.502 56.0933C100.698 56.3443 100.297 57.0076 100.276 57.0232L100.507 57.1714L100.779 57.1392C100.779 57.1392 100.752 56.8831 100.652 56.5617C100.566 56.2885 100.426 55.9531 100.171 55.6713C99.9232 55.3871 99.5386 55.1721 99.0459 55.1761L99.0434 55.4503" fill="#1D2088"/>
<path d="M93.5458 61.5946C93.731 62.3569 94.3205 62.8606 94.8613 62.7005C95.4047 62.5484 95.701 61.8032 95.5133 61.0329C95.3361 60.2681 94.7491 59.7723 94.1978 59.9269C93.6544 60.0791 93.358 60.8243 93.5433 61.5866" fill="#1D2088"/>
<path d="M32.4701 35.2041C30.7438 33.2917 29.0297 31.1638 27.4239 29.4959C24.8732 26.8357 22.9638 28.2612 21.2176 29.6445C19.0415 31.3737 17.7277 33.4069 17.0577 34.7626C15.8532 37.2026 17.7999 39.5665 19.2978 39.76C21.4862 40.0464 20.5413 38.9129 23.1433 41.1162C24.5713 42.328 25.5348 44.7345 26.0137 46.1547L27.1585 47.2787L33.6751 37.2264L32.4596 35.1985" fill="#B0D7F2"/>
<path d="M32.463 35.204L32.2435 35.4048C30.8276 33.8364 29.4252 32.1139 28.0926 30.6429C27.7953 30.3124 27.5031 29.9981 27.2134 29.6917C26.5842 29.0328 26.0138 28.6466 25.4931 28.4477C24.7238 28.1589 24.0458 28.2471 23.3614 28.5403C22.6849 28.831 22.0175 29.3482 21.3686 29.8684C21.0929 30.0868 20.8358 30.3082 20.5812 30.5377C18.9068 32.0661 17.8445 33.7473 17.2795 34.9027C16.9611 35.549 16.8882 36.1626 16.9599 36.7311C17.0342 37.3076 17.2692 37.8338 17.591 38.2713C18.0735 38.9407 18.7599 39.3877 19.3098 39.454C19.8331 39.5199 20.1529 39.4994 20.3985 39.4667C20.5773 39.4462 20.7164 39.4115 20.8871 39.3934C21.0071 39.3824 21.1427 39.393 21.2883 39.4357C21.5003 39.4929 21.7267 39.6251 22.034 39.8465C22.3413 40.068 22.7425 40.3924 23.3059 40.8691C23.6283 41.1388 23.915 41.4637 24.1906 41.8097C25.2169 43.1471 25.9128 44.9228 26.3064 46.0698L26.0171 46.1602L26.2029 45.9081L27.0786 46.7634L33.2934 37.1846L32.1888 35.3426L32.4525 35.1985L32.7161 35.0544L33.9397 37.0797C34.0095 37.1902 34.0175 37.3288 33.9437 37.4313L27.4185 47.5126C27.3718 47.589 27.2965 47.6301 27.2031 47.6417C27.1152 47.6427 27.0333 47.6065 26.96 47.5412L25.8232 46.4147L25.7198 46.2531C25.3493 45.1518 24.6711 43.4323 23.7437 42.2139C23.5022 41.8925 23.2441 41.6027 22.9689 41.3712C22.3086 40.8102 21.8838 40.4667 21.5946 40.2748C21.3736 40.1322 21.2391 40.0684 21.1437 40.0453C21.0668 40.0252 21.0056 40.0267 20.9202 40.0358C20.7922 40.0493 20.6104 40.0884 20.3437 40.11C20.0771 40.1315 19.7336 40.133 19.2635 40.0682C18.5173 39.9662 17.742 39.4323 17.1712 38.6494C16.7976 38.1311 16.522 37.5029 16.4286 36.8089C16.3378 36.1229 16.4454 35.3661 16.8135 34.625C17.4167 33.4223 18.5011 31.699 20.2352 30.1078C20.4898 29.8784 20.7605 29.6439 21.0418 29.4149C21.9096 28.7205 22.8472 27.9955 23.9324 27.7711C24.4803 27.6617 25.0708 27.6888 25.6709 27.9159C26.292 28.154 26.9308 28.5894 27.5991 29.289C27.8968 29.5929 28.1916 29.9153 28.4888 30.2457C29.8425 31.7277 31.2504 33.4397 32.6614 34.9921L32.7056 35.0488L32.4419 35.193" fill="#1D2088"/>
<path d="M28.3095 34.6063C29.3973 34.2489 29.9532 34.4192 29.246 35.3456C28.6072 36.1801 25.1767 38.072 24.8914 43.2849C24.2749 42.384 23.4228 41.2656 22.6098 40.7523C22.9245 38.2023 27.037 35.0215 28.3015 34.6088" fill="#1D2088"/>
<path d="M26.5157 32.5032C27.6772 32.3255 28.1417 32.8243 27.4049 33.4865C26.5381 34.2688 22.3603 36.8174 22.0326 40.2005C21.3431 39.9132 20.9761 40.0367 20.2786 39.893C19.5182 35.9062 23.4851 32.9649 26.5157 32.5032Z" fill="#1D2088"/>
<path d="M45.9475 30.9926C46.2782 28.4376 46.4763 25.7123 46.8472 23.427C47.43 19.7878 49.8113 19.8729 52.0344 20.0163C54.8078 20.1993 57.0454 21.123 58.368 21.8563C60.7472 23.1768 60.4923 26.2284 59.3708 27.2402C57.7346 28.7214 57.8663 27.2515 56.9812 30.5442C56.4969 32.3534 57.0747 34.8804 57.4893 36.3207L57.1879 37.8964L46.108 33.3412L45.9531 30.982" fill="#B0D7F2"/>
<path d="M45.9488 30.9926L46.2436 31.0327C46.5149 28.9372 46.6874 26.7227 46.9457 24.7547C47.002 24.3138 47.0633 23.889 47.1271 23.4722C47.2693 22.5724 47.5185 21.9301 47.8334 21.4701C48.3014 20.7948 48.9091 20.4815 49.6388 20.3329C50.3604 20.1868 51.2035 20.2321 52.0331 20.2904C52.3841 20.3131 52.7296 20.3463 53.0615 20.3925C55.3082 20.696 57.1385 21.4735 58.2608 22.1019C58.8905 22.4519 59.2997 22.915 59.5643 23.4232C59.8314 23.9395 59.9378 24.5059 59.9222 25.0487C59.9065 25.8738 59.5966 26.632 59.1823 26.9996C58.7896 27.3516 58.5149 27.5168 58.2944 27.6298C58.1357 27.7146 58.0016 27.7653 57.851 27.8476C57.746 27.9069 57.6405 27.9927 57.5451 28.1107C57.4035 28.2784 57.2925 28.516 57.1659 28.873C57.0393 29.23 56.8942 29.7251 56.7023 30.4377C56.5907 30.8429 56.54 31.2733 56.5183 31.7122C56.4358 33.396 56.8745 35.252 57.2038 36.4191L57.4931 36.3287L57.1968 36.2272L56.9637 37.4289L46.4015 33.0911L46.2611 30.9479L45.9624 30.9795L45.6636 31.0111L45.8104 33.3728C45.816 33.5034 45.8883 33.6219 46.0073 33.6641L57.1107 38.2384C57.1926 38.2746 57.278 38.2655 57.3533 38.2244C57.4261 38.1752 57.4728 38.0988 57.4959 38.0034L57.7974 36.4277L57.7823 36.2384C57.4601 35.122 57.0389 33.3222 57.1079 31.7926C57.1235 31.3909 57.1707 31.0057 57.2652 30.6587C57.4887 29.8216 57.6424 29.2974 57.771 28.975C57.8714 28.7319 57.9458 28.6029 58.0111 28.5296C58.0628 28.4693 58.1141 28.4357 58.1894 28.3946C58.3024 28.3328 58.4741 28.2615 58.7056 28.1274C58.9371 27.9933 59.2204 27.799 59.5699 27.4782C60.1254 26.9696 60.4589 26.0893 60.4826 25.1206C60.4947 24.4819 60.3637 23.8085 60.0454 23.1848C59.7296 22.5691 59.2104 22.0081 58.4858 21.6083C57.3053 20.9629 55.4328 20.1633 53.1012 19.8422C52.7613 19.7984 52.4053 19.7597 52.0437 19.7316C50.9349 19.6546 49.7513 19.5922 48.7314 20.0255C48.2186 20.2474 47.7486 20.6059 47.3764 21.1366C47.0012 21.686 46.724 22.4076 46.5727 23.3632C46.5009 23.7825 46.4421 24.2153 46.3778 24.6587C46.1084 26.6478 45.9254 28.8568 45.649 30.9362L45.645 31.0081L45.9438 30.9765" fill="#1D2088"/>
<path d="M49.0253 28.135C47.9275 28.4603 47.5674 28.9167 48.6762 29.2758C49.6765 29.5983 53.5738 29.201 56.7677 33.3271C56.7618 32.2354 56.8337 30.8284 57.2019 29.9461C55.4917 28.0286 50.2998 27.7544 49.0253 28.135Z" fill="#1D2088"/>
<path d="M49.3111 25.3828C48.255 25.8979 48.157 26.5723 49.1398 26.6975C50.2978 26.8472 55.1834 26.5645 57.3786 29.1594C57.7819 28.5307 58.154 28.4233 58.6457 27.9081C57.0014 24.1974 52.0657 24.0372 49.3111 25.3828Z" fill="#1D2088"/>
<path d="M36.3087 34.7446C36.361 33.3877 36.7087 31.48 35.9782 30.2708C33.0149 25.3583 28.8389 29.7759 25.9918 23.0898C25.3241 21.5169 25.2897 18.5557 27.1664 17.7313C28.8015 17.0088 31.0079 18.3127 31.441 20.6026C32.5111 26.23 37.3703 24.3946 40.262 26.4808C41.8091 27.5938 42.8187 30.3739 41.9836 35.2383C41.0402 38.9372 36.0693 38.5234 36.3112 34.7526" fill="#B0D7F2"/>
<path d="M36.3091 34.7447L36.6561 34.698C36.6818 34.0462 36.7828 33.2122 36.7774 32.3761C36.7769 31.556 36.6811 30.7129 36.2654 30.0314C35.447 28.682 34.5391 27.9779 33.6041 27.5821C32.9041 27.2892 32.1931 27.1586 31.5061 27.0204C30.8136 26.8928 30.1292 26.7627 29.4769 26.4814C28.3386 25.9992 27.2509 25.0867 26.3126 22.9016C26.0857 22.3728 25.9512 21.6035 25.9714 20.8211C25.994 20.0468 26.1658 19.27 26.5013 18.7066C26.7354 18.2983 27.0417 18.0086 27.4365 17.8323C28.0245 17.5693 28.7431 17.5829 29.414 17.8672C30.3093 18.249 31.0946 19.0972 31.327 20.321C31.5574 21.5101 31.9691 22.4046 32.5129 23.0725C33.0591 23.7485 33.7325 24.1819 34.4536 24.4858C36.0489 25.1603 37.8557 25.2132 39.3004 25.829C39.6358 25.9712 39.9547 26.145 40.2595 26.3584C40.9634 26.8617 41.5614 27.7596 41.8847 29.1049C42.2155 30.4744 42.2655 32.3284 41.8445 34.7352L42.1714 34.7654L41.8505 34.6981C41.8103 34.8517 41.7621 35.0079 41.7088 35.148C41.3733 35.9936 40.7606 36.573 40.0465 36.8843C39.3324 37.1956 38.5199 37.2201 37.8887 36.9499C37.5005 36.7801 37.1782 36.5104 36.9588 36.1468C36.7393 35.7832 36.6284 35.3152 36.6636 34.7222L36.3116 34.7527L35.9676 34.7809C35.9188 35.5281 36.0639 36.1618 36.3581 36.6519C36.6548 37.1501 37.0741 37.5042 37.5602 37.7051C38.3606 38.0372 39.3223 38.0101 40.2056 37.6195C41.0754 37.242 41.8805 36.4878 42.3059 35.3936C42.3732 35.2139 42.438 35.026 42.4817 34.8272L42.4877 34.79C42.9078 32.2953 42.8598 30.3348 42.4913 28.8449C42.1329 27.387 41.4576 26.3545 40.6276 25.7584C40.2967 25.5178 39.9382 25.33 39.5711 25.1712C37.9994 24.5158 36.2061 24.4498 34.7509 23.8285C34.0906 23.5497 33.5041 23.1685 33.0281 22.5764C32.5466 21.9948 32.1756 21.2024 31.9598 20.0881C31.6907 18.6905 30.7935 17.7097 29.745 17.2611C28.9631 16.9321 28.0668 16.8858 27.2507 17.2378C26.6762 17.4878 26.2338 17.9347 25.9284 18.4534C25.5045 19.1855 25.3121 20.0658 25.2799 20.9225C25.2501 21.7872 25.3887 22.6259 25.6588 23.2646C26.6322 25.5622 27.8449 26.6208 29.1128 27.1508C29.8364 27.4627 30.566 27.5963 31.2665 27.7214C31.9695 27.8545 32.6329 27.9737 33.2641 28.2439C34.1092 28.606 34.9071 29.2122 35.6763 30.4888C35.9991 31.0141 36.095 31.7161 36.0859 32.4774C36.0873 33.2442 35.9813 34.0622 35.9546 34.7673L36.3016 34.7206" fill="#1D2088"/>
<path d="M33.1958 27.9468C32.5626 27.7831 31.1254 28.1791 30.3978 27.5157C30.1623 27.2983 28.6901 26.453 28.5088 26.1833C30.1367 27.2445 33.161 25.0122 31.9928 21.8936C32.0907 22.0659 32.3583 22.1322 32.4477 22.3335C32.7916 23.1521 33.7522 23.6016 34.3949 23.8242C37.9963 24.9921 34.8203 28.6299 33.2039 27.9443" fill="#1D2088"/>
<path d="M36.1865 30.727C36.1901 29.8352 35.4269 28.9448 34.5949 28.314C36.5703 29.3019 37.4752 29.4602 38.0588 28.4489C39.3833 26.1391 37.5002 25.0517 37.5374 25.0577C40.6071 25.2011 42.2194 27.5108 42.1861 28.7029C42.9963 32.0303 37.1112 34.1951 36.1971 30.7326" fill="#1D2088"/>
<path d="M36.5367 79.7391C30.6132 88.9799 30.3871 101.044 43.1941 103.676C50.856 105.251 51.0977 103.455 55.0193 101.781C58.9354 100.116 56.1556 92.6859 53.4491 90.6564C50.7426 88.6268 41.5072 88.875 37.2993 91.7505" fill="#B0D7F2"/>
<path d="M36.1938 79.5274C32.8574 84.7411 31.28 90.8428 32.8156 95.7868C33.4306 97.7554 34.5522 99.5392 36.2504 100.966C37.9486 102.394 40.2153 103.467 43.1087 104.063C46.9994 104.858 49.0583 104.814 50.6653 104.312C51.4527 104.066 52.1116 103.719 52.7976 103.346C53.4916 102.971 54.2183 102.559 55.1684 102.156C56.4003 101.639 57.0648 100.576 57.2608 99.3681C57.4728 98.1554 57.2831 96.786 56.8664 95.4522C56.2063 93.339 54.9822 91.3403 53.6752 90.3463C52.4595 89.4474 50.3163 89.0233 47.8577 88.9448C45.4041 88.8823 42.6532 89.1948 40.299 89.9302C39.0777 90.3118 37.9714 90.8073 37.0624 91.4264L37.5133 92.0792C38.3333 91.5144 39.3779 91.047 40.5455 90.691C42.7872 89.9907 45.4743 89.6716 47.8425 89.7432C50.2057 89.7987 52.2736 90.2639 53.2051 90.9871C54.2947 91.7932 55.5017 93.709 56.1112 95.6881C56.5002 96.9335 56.6598 98.2066 56.4779 99.2335C56.288 100.263 55.8103 101.021 54.8547 101.434C53.8588 101.86 53.1025 102.29 52.4165 102.663C51.7305 103.036 51.1229 103.349 50.4238 103.568C49.0017 104.012 47.1045 104.093 43.267 103.299C40.477 102.724 38.3399 101.698 36.7622 100.374C35.182 99.0426 34.1507 97.4069 33.5759 95.5669C32.1271 90.9574 33.6131 85.043 36.8697 79.9689L36.2068 79.541" fill="#1D2088"/>
<path d="M70.7099 69.5671C76.0287 70.4454 87.4548 87.9094 71.0866 93.9222C65.1997 88.7413 64.7055 84.6184 64.7055 84.6184L70.7179 69.5646" fill="#B0D7F2"/>
<path d="M70.6422 69.9572C71.1996 70.0477 71.891 70.3696 72.6292 70.8975C74.8385 72.465 77.3762 75.8172 78.5202 79.5077C79.3335 82.111 79.4648 84.8745 78.401 87.341C77.3371 89.8076 75.0772 92.0304 70.9402 93.5521L71.0742 93.9247L71.3353 93.6314C67.0904 89.8954 65.7097 86.7462 65.273 85.3481C65.1927 85.091 65.1485 84.8932 65.1164 84.7621L65.0898 84.6204L65.0797 84.5883L64.6875 84.6314L65.0601 84.7797L71.0726 69.7258L70.3354 69.4269L64.2918 84.5787L64.3059 84.6801C64.3059 84.6801 64.3445 85.0297 64.5227 85.6001C64.9996 87.1268 66.4762 90.4136 70.8206 94.242L71.0013 94.3972L71.2263 94.3269C75.4949 92.7465 77.9788 90.3655 79.1401 87.6745C80.2989 84.9755 80.142 82.0172 79.2886 79.2853C78.4803 76.6981 77.0559 74.3121 75.4929 72.4986C74.7086 71.5972 73.8951 70.8283 73.0993 70.2568C72.3034 69.6852 71.5225 69.303 70.7874 69.1799L70.6608 69.9602" fill="#1D2088"/>
<path d="M39.9595 33.5071C50.1569 30.2686 61.7435 34.2158 66.3042 43.903C69.8538 51.4544 68.4453 66.4812 67.6369 75.1294L54.2668 79.3061L39.957 33.499" fill="#B0D7F2"/>
<mask id="mask2_4554_91269" style="mask-type:luminance" maskUnits="userSpaceOnUse" x="39" y="23" width="48" height="60">
<path d="M55.2483 82.4397L86.7773 72.5903L71.4911 23.6576L39.4414 32.8848L55.2483 82.4397Z" fill="white"/>
</mask>
<g mask="url(#mask2_4554_91269)">
<path d="M39.9605 33.5067L40.0784 33.8844L40.1909 33.8492C45.1887 32.288 50.5231 32.4824 55.157 34.2449C59.7933 36.0155 63.7184 39.3487 65.9425 44.0688C66.2393 44.7081 66.5084 45.4001 66.7418 46.1474C67.9667 50.0684 68.2901 55.3382 68.1982 60.6054C68.1063 65.8726 67.6176 71.1403 67.2471 75.0924L67.6378 75.129L67.5199 74.7514L54.5274 78.8102L40.3908 33.5575L40.3356 33.3807L39.9579 33.4987L39.5803 33.6166L54.0081 79.8014L68.0129 75.4264L68.0366 75.1632C68.399 71.2137 68.8987 65.925 68.9861 60.6151C69.0735 55.3052 68.7672 49.9771 67.4971 45.9114C67.2561 45.1401 66.9745 44.4079 66.6597 43.739C64.3437 38.8095 60.2348 35.3396 55.4372 33.5047C50.6317 31.6723 45.1214 31.48 39.955 33.094L39.4648 33.2471L39.5828 33.6247L39.9605 33.5067Z" fill="#1D2088"/>
</g>
<path d="M39.2037 33.7426C28.9762 36.8847 21.6968 46.7254 23.4614 57.2862C24.8416 65.5153 34.5534 77.0681 40.1408 83.7184L53.5109 79.5417L39.2011 33.7346" fill="#B0D7F2"/>
<mask id="mask3_4554_91269" style="mask-type:luminance" maskUnits="userSpaceOnUse" x="7" y="32" width="48" height="61">
<path d="M7.67262 43.5921L22.9588 92.5248L54.4878 82.6753L39.2755 32.9347L7.67262 43.5921Z" fill="white"/>
</mask>
<g mask="url(#mask3_4554_91269)">
<path d="M39.2055 33.743L39.0875 33.3654L38.9751 33.4005C33.8086 35.0145 29.3902 38.3173 26.4797 42.5513C23.5718 46.7933 22.1767 51.9826 23.0786 57.3538C23.2031 58.091 23.3858 58.8453 23.6268 59.6166C24.8968 63.6823 27.6779 68.2373 30.7723 72.5532C33.8667 76.8691 37.2881 80.933 39.8343 83.9738L40.0035 84.1768L54.0084 79.8017L39.4627 33.2394L39.085 33.3573L39.203 33.735L38.8253 33.8529L53.0172 79.2824L40.0247 83.3411L40.1427 83.7188L40.443 83.4662C37.8888 80.4278 34.4885 76.375 31.4146 72.0967C28.3408 67.8185 25.5989 63.3042 24.382 59.3807C24.1486 58.6335 23.9679 57.9138 23.8585 57.2248C22.9978 52.07 24.3275 47.0952 27.1315 43.0003C29.9355 38.9054 34.2133 35.7171 39.211 34.1558L39.3235 34.1207L39.2055 33.743Z" fill="#1D2088"/>
</g>
<path d="M38.4499 34.4015C38.4499 34.4015 39.9776 33.8714 40.756 33.6811C41.604 35.1536 50.6765 62.3042 50.6765 62.3042L46.9885 63.4563L38.4499 34.4015Z" fill="#B0D7F2"/>
<path d="M39.6093 33.2022L39.3281 33.29L39.559 34.0292L39.8402 33.9414L39.6093 33.2022Z" fill="#1D2088"/>
<path d="M68.602 55.0191C68.602 55.0191 58.365 52.4847 46.843 56.0841C35.3209 59.6835 27.6185 66.8431 27.6185 66.8431L25.5257 63.4754C25.5257 63.4754 32.1986 53.1892 44.4116 49.3739C56.6247 45.5586 68.4492 50.719 68.4492 50.719L68.5939 55.0216" fill="#1D2088"/>
<path d="M67.1247 45.7103C67.1247 45.7103 54.8702 42.0247 43.3481 45.6241C31.826 49.2235 24.0495 59.1667 24.0495 59.1667L23.1332 52.7329C23.1332 52.7329 28.8719 43.2676 41.093 39.4498C53.3141 35.632 64.4125 40.4725 64.4125 40.4725L67.1328 45.7078" fill="#1D2088"/>
<path d="M59.2 35.7168C59.2 35.7168 52.2981 32.3963 40.7679 35.9982C29.2378 39.6001 24.3606 46.6004 24.3606 46.6004L25.0205 45.7769C25.0205 45.7769 27.8656 37.6918 40.0867 33.874C52.3078 30.0562 54.7339 33.9548 54.7339 33.9548L59.2 35.7168Z" fill="#1D2088"/>
<path d="M29.9443 72.3005C32.0831 67.2052 47.0206 51.4181 65.0515 44.7711C65.9378 45.7731 65.2386 47.1203 65.2386 47.1203C65.2386 47.1203 43.6038 56.5157 33.9261 71.3829C31.1268 73.2628 29.9468 72.3085 29.9468 72.3085" fill="#FFF100"/>
<path d="M29.9467 72.3003L30.2902 72.44C30.7895 71.2434 32.1149 69.3036 34.0831 67.0219C39.9933 60.1664 51.7505 50.0645 65.178 45.1115L65.0514 44.763L64.7752 45.008C64.9238 45.1732 65.0112 45.3399 65.0664 45.5167C65.1718 45.8542 65.1437 46.2157 65.0718 46.4939C65.0372 46.637 64.9925 46.748 64.9644 46.8273L64.9227 46.9197L64.9116 46.9408L65.2385 47.1121L65.0879 46.7711C65.0879 46.7711 59.6517 49.1308 53.0086 53.3578C46.3656 57.5849 38.5025 63.6659 33.6077 71.1743L33.918 71.3772L33.7081 71.0724C32.9664 71.5775 32.3487 71.8586 31.8505 72.0143C31.1997 72.2176 30.7608 72.196 30.4956 72.1377C30.3631 72.1085 30.2732 72.0749 30.2179 72.0392L30.1652 72.0116L29.9282 72.2973L29.6911 72.583C29.7564 72.6508 30.5447 73.1983 32.0608 72.7159C32.6313 72.5376 33.3163 72.2178 34.1093 71.6791L34.174 71.6324L34.2152 71.5666C39.0061 64.2053 46.7938 58.1655 53.3937 53.9695C56.6897 51.8728 59.6893 50.2391 61.8562 49.13C62.945 48.5782 63.8183 48.1555 64.4254 47.8688C65.0326 47.5821 65.36 47.4445 65.368 47.442L65.4916 47.3858L65.5524 47.2698C65.5524 47.2698 66.0576 46.3182 65.7524 45.2847C65.6696 45.0196 65.5255 44.756 65.3146 44.5043L65.1479 44.3095L64.9119 44.4009C55.8414 47.7459 47.5661 53.3824 41.2915 58.8172C38.1462 61.5372 35.505 64.2055 33.5122 66.5213C31.5113 68.8396 30.1618 70.7868 29.5957 72.1366L29.4898 72.3902L29.7022 72.562L29.9392 72.2763" fill="#1D2088"/>
<path d="M68.5673 52.9949L68.4605 57.3673C68.4605 57.3673 69.4596 53.6775 69.8209 51.8978C67.7599 52.33 68.5568 52.9894 68.5568 52.9894" fill="#FFF100"/>
<path d="M68.5647 52.9954L68.3172 52.9934L68.2103 57.3657L68.1528 59.412L68.6908 57.436C68.6908 57.436 69.69 53.7462 70.0568 51.9561L70.1356 51.5875L69.764 51.6683C69.5501 51.7175 69.3522 51.7616 69.1915 51.8118C68.7577 51.9474 68.4965 52.0995 68.3253 52.2853C68.1515 52.4631 68.1229 52.7101 68.1836 52.8763C68.2489 53.0852 68.3854 53.1837 68.409 53.2028L68.5592 53.0059L68.7119 52.8171L68.6496 52.7308C68.6396 52.6986 68.6315 52.7011 68.6943 52.6197C68.7596 52.5464 68.9565 52.4144 69.3422 52.2939C69.4868 52.2488 69.666 52.2016 69.8639 52.1574L69.8152 51.9168L69.5712 51.8696C69.3868 52.7474 69.0467 54.1147 68.7508 55.2566C68.4549 56.3985 68.2057 57.323 68.2057 57.323L68.4468 57.3888L68.6943 57.3909L68.8063 52.8935L68.7119 52.8171L68.5592 53.0059" fill="#1D2088"/>
<path d="M61.3664 48.2681C60.0869 47.5037 59.1484 47.012 60.269 44.9246C61.6271 42.3837 65.4388 39.341 69.7391 41.9838C74.063 44.6457 72.0006 49.7877 71.2573 51.2193C70.5551 52.5851 69.9073 52.911 68.3486 52.1279C66.7925 51.3529 62.8934 49.1757 61.3719 48.2576" fill="#FFF100"/>
<path d="M61.3479 48.3082L61.5237 48.024C61.2209 47.8452 60.9523 47.691 60.7344 47.5298C60.3954 47.2917 60.1971 47.0803 60.1168 46.8232C60.0365 46.5661 60.0541 46.199 60.3047 45.618C60.363 45.494 60.4242 45.3514 60.5121 45.2093C61.0862 44.1392 62.1871 42.9487 63.5847 42.2563C64.9823 41.564 66.6585 41.3402 68.5175 42.1528C68.8132 42.2809 69.1085 42.4356 69.4113 42.6144C70.3377 43.1805 70.9508 43.8444 71.3394 44.552C71.9264 45.6121 72.0397 46.7937 71.9151 47.891C71.7985 48.9857 71.4493 49.9854 71.1545 50.6508C71.0656 50.8461 70.9853 51.0124 70.9215 51.1469C70.7668 51.4422 70.6267 51.6711 70.477 51.8413C70.2565 52.0954 70.0762 52.1959 69.8306 52.2285C69.5851 52.2611 69.2456 52.1908 68.7676 51.9874C68.6832 51.9432 68.5828 51.904 68.4879 51.8542C66.9423 51.0848 63.0321 48.9285 61.5237 48.024L61.3479 48.3082L61.1802 48.5899C62.7177 49.503 66.6093 51.6562 68.1865 52.4423C68.292 52.4975 68.3949 52.5447 68.4979 52.5919C68.8544 52.7451 69.1773 52.8471 69.4801 52.8848C69.9315 52.9466 70.3624 52.8296 70.6868 52.5695C71.0112 52.3094 71.2659 51.9388 71.5145 51.4643C71.5838 51.3192 71.6777 51.14 71.7722 50.9341C72.184 49.9941 72.7034 48.4384 72.6232 46.7702C72.5751 45.9386 72.3758 45.0749 71.928 44.2623C71.4721 43.4523 70.7757 42.6909 69.7518 42.0671C69.4254 41.8692 69.0985 41.698 68.7817 41.5588C66.7274 40.6572 64.795 40.9081 63.2603 41.6698C61.7201 42.4419 60.5539 43.7058 59.9111 44.8943C59.8202 45.055 59.7453 45.2107 59.684 45.3533C59.4947 45.7917 59.3917 46.1678 59.3932 46.5113C59.3886 47.033 59.6386 47.4664 59.9816 47.7738C60.319 48.0917 60.7433 48.3207 61.1882 48.5874L61.356 48.3057" fill="#1D2088"/>
<path d="M60.9049 49.2769C59.6124 48.4989 58.5961 47.7581 59.7929 45.7175C60.9898 43.6768 64.5067 41.4404 68.8281 44.0943C73.1811 46.7648 71.5868 50.8081 70.846 52.2477C70.1358 53.6161 69.488 53.9419 67.9213 53.1614C66.3546 52.3809 62.4369 50.2006 60.9074 49.285" fill="#FFF100"/>
<path d="M60.9656 48.9319L61.1389 48.6397C60.5625 48.2906 60.0734 47.9672 59.8434 47.598C59.7325 47.4122 59.6642 47.2219 59.6526 46.9874C59.6466 46.7423 60.3318 45.2936 60.4985 44.9241C60.5733 44.7684 60.6512 44.5941 60.7612 44.4098C61.2675 43.5462 62.2408 42.6248 63.5309 42.1247C64.821 41.6247 66.4149 41.5325 68.2422 42.3286C68.5987 42.4818 68.9572 42.6696 69.3283 42.8976C71.2073 44.0568 71.8791 45.4168 72.0462 46.7139C72.2052 48.0135 71.822 49.2709 71.4548 50.1C71.3739 50.2928 71.2936 50.459 71.2217 50.5961C71.0615 50.9019 70.9078 51.1439 70.7607 51.3221C70.5347 51.5868 69.72 52.8466 69.4745 52.8792C69.2289 52.9119 68.8839 52.8521 68.4034 52.6406C68.3135 52.607 68.2186 52.5572 68.1237 52.5075C66.5781 51.7381 62.6499 49.5522 61.1309 48.6422L60.7763 49.2292C62.3189 50.1583 66.234 52.3306 67.8138 53.1246C67.9192 53.1799 68.0222 53.2271 68.1226 53.2663C68.4816 53.4275 68.8045 53.5295 69.1128 53.5566C69.5723 53.6159 70.1157 53.4638 70.5772 52.7111C70.8053 52.34 71.5631 51.4066 71.8203 50.903C71.8976 50.7553 71.989 50.568 72.0779 50.3727C72.4677 49.4749 72.9062 48.112 72.7241 46.6256C72.542 45.1391 71.7176 43.5447 69.6829 42.3107C69.2907 42.0716 68.9006 41.8672 68.5124 41.6974C66.5375 40.824 64.7226 40.9146 63.2768 41.4809C61.831 42.0472 60.7548 43.0625 60.1662 44.0578C60.0451 44.2631 59.9482 44.461 59.8648 44.6458C59.6674 45.0867 58.9512 46.6333 58.9602 47.0009C58.9737 47.5523 59.2207 48.0042 59.5576 48.3487C59.897 48.7013 60.3234 48.965 60.7682 49.2317L60.9415 48.9394" fill="#1D2088"/>
<path d="M71.5354 50.7535C71.223 51.3626 70.9171 51.7668 70.5355 51.9566C71.8921 48.6489 72.3619 45.9182 68.8143 43.7369C65.2562 41.5501 61.9121 42.8153 60.0357 46.2941C59.859 45.7849 59.954 45.129 60.4823 44.2232C61.6792 42.1825 65.1961 39.9462 69.5175 42.6001C73.8705 45.2706 72.2762 49.3138 71.5354 50.7535Z" fill="white"/>
<path d="M71.535 50.7539L71.2317 50.6018C70.9304 51.1898 70.6471 51.5251 70.3784 51.6532L70.5351 51.957L70.8494 52.0881C71.5361 50.4185 72.0183 48.8568 71.8492 47.3839C71.7699 46.6503 71.5119 45.9371 71.0424 45.2812C70.573 44.6254 69.8976 44.0162 68.9898 43.4532C68.6398 43.2362 68.2838 43.0564 67.9353 42.9007C66.2797 42.1744 64.6482 42.1461 63.2285 42.7395C61.8088 43.333 60.607 44.5109 59.7321 46.1424L60.0298 46.3051L60.2689 46.054C60.1735 45.7487 60.2554 45.5027 60.5141 44.9192C60.5809 44.766 60.6667 44.5892 60.7767 44.405C61.2775 43.5518 62.2563 42.6199 63.5464 42.1199C64.8365 41.6198 66.4304 41.5276 68.2577 42.3237C68.6142 42.4769 68.9728 42.6648 69.3438 42.8928C71.2228 44.052 71.8946 45.4119 72.0617 46.709C72.2208 48.0087 71.8375 49.2661 71.4703 50.0951C71.3869 50.2799 71.3066 50.4461 71.2373 50.5912L71.5431 50.7514L71.8489 50.9117C71.9237 50.756 72.0176 50.5767 72.104 50.3733C72.4938 49.4755 72.9323 48.1127 72.7502 46.6262C72.568 45.1398 71.7356 43.5479 69.709 42.3113C69.3168 42.0723 68.9241 41.8598 68.5385 41.6981C66.5661 40.8326 64.7487 40.9153 63.3029 41.4816C61.8652 42.0454 60.7809 43.0632 60.1922 44.0584C60.0712 44.2638 59.9742 44.4616 59.8909 44.6464C59.5905 45.3223 58.9386 46.5666 59.1128 47.0678C59.153 47.1964 59.3804 47.2752 59.516 47.2858C59.6516 47.2963 59.6672 47.0357 59.728 46.9197C60.5502 45.4018 62.2562 43.8899 63.4961 43.3703C64.7385 42.8587 66.1496 42.8588 67.6625 43.5238C67.9794 43.663 68.3063 43.8343 68.6327 44.0322C69.4933 44.557 70.0898 45.1114 70.4865 45.6754C71.088 46.5281 71.2627 47.426 71.1767 48.4494C71.0882 49.4648 70.8666 50.901 69.7787 52.6695C69.7019 52.7905 69.7602 52.9487 69.8621 53.0492C69.964 53.1496 70.1207 53.1712 70.2417 53.107C70.7364 52.8554 70.4392 51.9605 70.7682 51.3198L71.8303 50.9086L71.5245 50.7484" fill="#1D2088"/>
<path d="M68.536 45.2254C68.6661 44.8232 68.4743 44.4068 68.0907 44.2797C67.7176 44.1582 67.3033 44.3846 67.1707 44.7788C67.038 45.173 67.2323 45.5974 67.6079 45.727C67.981 45.8485 68.3953 45.6221 68.528 45.2279" fill="white"/>
<path d="M68.5371 45.2255L68.7435 45.2932C68.9042 44.8197 68.6904 44.3044 68.2495 44.1071L68.1701 44.0789C67.9346 44.0026 67.6946 44.0246 67.4877 44.1246C67.2808 44.2245 67.1151 44.3997 67.0096 44.6267L66.9759 44.7166C66.8177 45.1982 67.0291 45.7053 67.4805 45.9083L67.5624 45.9444C67.7979 46.0208 68.0354 45.9907 68.2423 45.8908C68.4492 45.7909 68.623 45.6131 68.7204 45.3887L68.754 45.2988L68.5477 45.2309L68.3413 45.1632L68.3217 45.2134C68.2634 45.3374 68.171 45.4368 68.0555 45.4905C67.948 45.5417 67.8225 45.5633 67.701 45.5131L67.6613 45.499C67.4369 45.4016 67.3144 45.1224 67.4048 44.8472L67.4244 44.797C67.4826 44.673 67.575 44.5735 67.6905 44.5198C67.806 44.4661 67.9261 44.4551 68.0426 44.4892L68.0822 44.5033C68.3067 44.6007 68.4292 44.8799 68.3388 45.1551L68.5452 45.2229" fill="#1D2088"/>
<path d="M69.5386 48.924L69.7505 48.558L69.9644 48.5088L70.0297 48.7177L69.3552 49.8897L69.1413 49.9389L69.076 49.73L69.2357 49.4508L68.8144 49.2032L68.6658 49.4613C68.4839 49.7826 68.5863 50.1387 68.9102 50.3285C69.2421 50.5159 69.6007 50.4215 69.785 50.1082L70.454 48.9467C70.6384 48.6334 70.5334 48.2693 70.2096 48.0794C69.8776 47.8921 69.5191 47.9865 69.3348 48.2998L69.1253 48.6739L69.5466 48.9215" fill="#1D2088"/>
<path d="M66.5504 46.1541L66.0975 45.8899L64.8996 47.9838L65.2973 48.2124L65.9251 47.1167L65.6187 48.3942L66.0691 48.6503L67.2695 46.5644L66.8718 46.3359L66.236 47.434L66.5504 46.1541Z" fill="#1D2088"/>
<path d="M67.5155 46.7073L66.3151 48.7932L66.7364 49.0408L67.9368 46.9549L67.5155 46.7073Z" fill="#1D2088"/>
<path d="M67.4163 49.4298L67.8763 48.6159L68.2293 48.8142L67.7612 49.6307L68.1881 49.8678L69.3884 47.7819L68.9591 47.5368L68.4825 48.3824L68.1295 48.184L68.6141 47.3359L68.1954 47.0964L66.9869 49.1847L67.4163 49.4298Z" fill="#1D2088"/>
<path d="M63.7359 47.307L64.7919 47.9208L65.0259 47.5125L64.6915 47.3171L65.6578 45.6395L65.2365 45.3919L64.2702 47.0695L63.9699 46.8988L63.7359 47.307Z" fill="#1D2088"/>
<path d="M67.414 49.4297L67.2131 49.7747L67.5581 49.9756L67.759 49.6306L67.414 49.4297Z" fill="#1D2088"/>
<path d="M66.7591 49.441L66.4899 49.7368L66.7882 50.014L67.0549 49.7103L66.7591 49.441Z" fill="#1D2088"/>
<path d="M66.1411 49.0243L66.243 49.407L66.6337 49.3025L66.5293 48.9118L66.1411 49.0243Z" fill="#1D2088"/>
<path d="M63.3828 47.1084L63.1819 47.4534L63.5374 47.6598L63.7358 47.3068L63.3828 47.1084Z" fill="#1D2088"/>
<path d="M62.6146 47.1022L62.3454 47.3979L62.6492 47.6646L62.9184 47.3688L62.6146 47.1022Z" fill="#1D2088"/>
<path d="M61.9067 46.5829L62.0111 46.9736L62.3993 46.8612L62.2974 46.4785L61.9067 46.5829Z" fill="#1D2088"/>
<path d="M62.5009 46.5989L63.627 44.6421L62.8564 46.8054L63.3831 47.1082L64.9682 45.2373L64.5388 44.9922L64.2365 45.3512L63.9573 45.1915L64.112 44.7551L63.285 44.2815L62.0846 46.3674L62.5059 46.615M63.4555 46.3801L63.7519 45.6349L63.9467 45.7504L63.4555 46.3801Z" fill="#1D2088"/>
<path d="M62.8909 44.2642L62.916 44.3445L62.9768 44.3696L63.0621 44.2195L63.0385 44.2004L62.9973 44.2662L62.9763 44.2551L62.9778 44.1753L62.9436 44.1507L62.9446 44.2385L62.8884 44.2561M62.9888 44.2953L62.9667 44.3375L62.9456 44.3264L62.9331 44.2862L62.9677 44.2842L62.9888 44.2953Z" fill="#1D2088"/>
<path d="M62.8872 44.3966L63.0961 44.3313L63.0333 44.1305L62.8244 44.1957L62.8792 44.3991M63.0328 44.1571L63.0881 44.3339L62.9033 44.3916L62.848 44.2148L63.0328 44.1571Z" fill="#1D2088"/>
<path d="M32.9637 74.9636C33.1325 74.2054 33.7458 72.8937 34.8984 71.0785C36.0511 69.2633 36.9827 68.1521 37.5934 67.6792C37.2821 67.1062 36.8473 66.5893 36.2668 66.171C34.0188 64.5362 30.8229 64.7232 29.1294 67.4041C27.4253 70.0795 28.6096 73.0519 31.0389 74.392C31.6661 74.734 32.3229 74.9169 32.9692 74.9531" fill="#1D2088"/>
<path d="M33.4612 72.4276C33.5421 72.0937 33.8033 71.5182 34.3191 70.7133C34.8269 69.9109 35.2382 69.4209 35.5083 69.213C35.3693 68.9654 35.182 68.7329 34.9219 68.5495C33.9292 67.8278 32.5517 67.8789 31.7753 69.0916C30.9988 70.3042 31.547 71.5793 32.6141 72.1719C32.8907 72.3236 33.1795 72.401 33.4587 72.4196" fill="white"/>
<path d="M67.4995 64.1754C66.9291 63.6481 65.6783 62.9188 63.6973 62.0825C61.7164 61.2462 60.3179 60.863 59.5465 60.8217C59.4763 60.1734 59.5477 59.4984 59.7868 58.8241C60.7045 56.2003 63.4304 54.5374 66.3569 55.775C69.2809 57.0046 69.9992 60.1227 68.7646 62.6073C68.4437 63.2455 68.0078 63.7697 67.505 64.1649" fill="#1D2088"/>
<path d="M65.6366 62.3754C65.3881 62.1444 64.8377 61.8224 63.9635 61.4518C63.0892 61.0811 62.4801 60.9098 62.1316 60.8952C62.105 60.6125 62.1347 60.3122 62.2361 60.0159C62.6415 58.8574 63.8031 58.1154 65.1318 58.6704C66.4605 59.2254 66.7355 60.5858 66.1956 61.6805C66.0544 61.9627 65.8611 62.1906 65.6421 62.3649" fill="white"/>
<path d="M57.6653 93.369C69.2356 89.7546 76.7177 81.4379 73.3732 71.6353C70.223 62.3981 59.7141 57.638 47.6778 61.3981C35.6415 65.1581 29.7029 75.0563 32.379 84.4415C35.2198 94.4103 46.103 96.981 57.6653 93.369Z" fill="#B0D7F2"/>
<path d="M48.9432 65.4479C46.4765 66.2185 44.9287 67.3898 45.4182 67.9689C45.9023 68.5585 47.1141 67.6949 49.4201 66.9745C51.7261 66.2541 53.2115 66.2663 53.2764 65.5141C53.3493 64.7593 51.4019 64.6798 48.9432 65.4479Z" fill="#1D2088"/>
<path d="M48.1283 62.8281C45.1393 63.7618 43.2315 65.1075 43.7974 65.7332C44.3632 66.359 45.8543 65.3729 48.6504 64.4994C51.4466 63.6259 53.2338 63.5879 53.3428 62.7513C53.4439 61.9172 51.1173 61.8944 48.1283 62.8281Z" fill="#1D2088"/>
<path d="M47.6621 61.3579C46.4167 61.747 45.2366 62.2039 44.1328 62.7074C46.0748 66.0164 48.6496 69.0924 49.9513 68.6858C51.2529 68.2791 51.6189 64.2845 51.3321 60.4584C50.1379 60.6727 48.9075 60.9689 47.6621 61.3579Z" fill="#1D2088"/>
<path d="M58.7823 83.4703C59.2205 86.1996 58.2315 87.8049 56.1344 88.4601C54.0373 89.1152 52.3104 88.3583 51.109 85.8674L54.661 83.7436L58.7823 83.4703Z" fill="#EF90B9"/>
<path d="M58.7806 83.4698L58.3773 83.534C58.5841 84.8452 58.4484 85.8224 58.0486 86.547C57.6463 87.2636 56.9844 87.7702 56.0041 88.0764C55.0239 88.3826 54.1938 88.3509 53.4551 87.9908C52.714 87.6226 52.0461 86.8964 51.4698 85.7007L51.1017 85.8775L51.3161 86.225L54.7767 84.1473L58.8046 83.8856L58.775 83.4804L58.7454 83.0751L54.6241 83.3484L54.4393 83.4061L50.8953 85.5274C50.7175 85.6359 50.6467 85.8608 50.7416 86.0517C51.3587 87.3493 52.1485 88.2403 53.1005 88.7189C54.0501 89.1895 55.1333 89.2127 56.2501 88.8638C57.367 88.5149 58.2468 87.8873 58.7571 86.9518C59.2699 86.0244 59.4041 84.8448 59.1783 83.4161C59.1477 83.2052 58.9614 83.0605 58.7535 83.0726L58.7831 83.4779" fill="#1D2088"/>
<path d="M53.928 81.2989C56.7161 80.4279 56.5185 77.932 60.5184 76.6208C65.6165 74.9576 68.9156 82.1023 63.3659 84.5503C60.2031 85.944 58.5697 84.1878 55.1388 85.2595C51.7079 86.3313 51.3647 88.705 47.971 89.3595C42.0066 90.5084 40.652 82.7563 45.7904 81.2217C49.8229 80.0149 51.1479 82.1673 53.936 81.2963" fill="white"/>
<path d="M53.9296 81.2989L54.05 81.6846C54.7973 81.4512 55.3658 81.0972 55.8394 80.6935C56.5405 80.0864 57.0276 79.3875 57.6976 78.7372C58.362 78.0975 59.2017 77.4825 60.651 77.0121L60.7153 76.992C61.9527 76.6055 63.0303 76.7803 63.8889 77.2705C64.7476 77.7607 65.3843 78.5848 65.6729 79.5089C65.9315 80.3365 65.9118 81.2333 65.5341 82.0568C65.1563 82.8803 64.4231 83.6386 63.1933 84.1903C62.9462 84.3028 62.7076 84.3861 62.4827 84.4564C61.2212 84.8505 60.2279 84.7198 59.08 84.6022C57.9401 84.4821 56.6535 84.3725 55.0064 84.887C53.3592 85.4016 52.3638 86.224 51.495 86.9717C50.6182 87.7218 49.8679 88.3972 48.6144 88.7887C48.3894 88.859 48.1434 88.9182 47.8787 88.9745C46.556 89.2289 45.519 89.0149 44.7397 88.5528C43.9684 88.0882 43.4337 87.3646 43.1752 86.537C42.8865 85.613 42.9408 84.573 43.3677 83.6812C43.7947 82.7893 44.5892 82.0297 45.8185 81.6457L45.8748 81.6281C47.8212 81.0553 49.0364 81.2753 50.2055 81.5451C50.786 81.6812 51.3554 81.8385 51.9826 81.8983C52.6018 81.9607 53.2732 81.9361 54.0259 81.6921L53.785 80.9208C53.1422 81.1216 52.6039 81.1486 52.0645 81.0878C51.2621 81.0034 50.4501 80.7191 49.4363 80.5508C48.4224 80.3824 47.2112 80.3728 45.6368 80.8381L45.5565 80.8632C44.1182 81.3125 43.1369 82.2364 42.613 83.3261C42.0892 84.4157 42.0283 85.6606 42.3772 86.7774C42.6884 87.7738 43.3397 88.6727 44.2952 89.2473C45.2508 89.8218 46.5137 90.0535 47.9941 89.7674C48.2854 89.7117 48.5636 89.6424 48.8207 89.5621C50.2509 89.1153 51.1233 88.3225 51.9866 87.5854C52.8474 86.8402 53.7101 86.1297 55.2127 85.6604C56.7152 85.191 57.821 85.2865 58.9609 85.4067C60.0928 85.5293 61.2588 85.6765 62.689 85.2298C62.9461 85.1494 63.2143 85.048 63.4854 84.928C64.8655 84.3205 65.772 83.4112 66.2305 82.3948C66.6972 81.376 66.7128 80.2687 66.4016 79.2724C66.0527 78.1556 65.286 77.1692 64.243 76.569C63.2001 75.9688 61.8593 75.7703 60.4211 76.2196L60.3488 76.2422C58.2672 76.9189 57.2306 77.9483 56.4226 78.8622C56.0173 79.3151 55.6632 79.7343 55.2624 80.0888C54.8592 80.4353 54.4092 80.717 53.7689 80.9258L53.8894 81.3115" fill="#1D2088"/>
<path d="M56.5378 78.4278C56.5127 78.3475 56.4876 78.2672 56.465 78.1948C55.7175 76.1971 53.6011 73.9392 51.7691 74.5115C49.9371 75.0838 49.4904 78.1424 50.0049 80.2129C50.03 80.2933 50.0551 80.3736 50.0777 80.4459C50.942 79.7967 51.9208 79.4292 53.1822 79.0351C54.4437 78.6411 55.4602 78.3941 56.5378 78.4278Z" fill="#B0D7F2"/>
<path d="M53.1943 79.0587C51.9971 79.4327 51.0666 79.7852 50.2455 80.4032C50.6903 81.7988 51.9732 82.8003 54.1507 82.12C56.3281 81.4398 56.8048 79.8887 56.3842 78.4856C55.3598 78.4528 54.3915 78.6847 53.1943 79.0587Z" fill="#1D2088"/>
<path d="M56.3033 78.2635L56.6815 78.1189C56.2934 77.1025 55.5864 76.0534 54.7223 75.2915C54.2874 74.9158 53.8114 74.606 53.3063 74.4287C52.8011 74.2513 52.2587 74.2091 51.7284 74.3748C51.1981 74.5404 50.7682 74.8864 50.4539 75.3197C49.9782 75.971 49.7226 76.8181 49.6261 77.6949C49.5296 78.5717 49.5842 79.4806 49.7795 80.2751L49.8322 80.4438L49.8598 80.5322L50.2454 80.4117L49.8573 80.5241C50.1008 81.3035 50.6014 82.0026 51.3581 82.3924C52.1173 82.7902 53.1035 82.8701 54.2661 82.4981C55.4312 82.1341 56.1991 81.5151 56.5968 80.7558C56.9946 79.9966 57.0028 79.1474 56.7673 78.3655L56.6895 78.1164L56.687 78.1084L56.3088 78.253L55.9232 78.3735L55.9733 78.5341L55.9909 78.5904C56.1842 79.2091 56.159 79.8343 55.8773 80.3721C55.5955 80.9099 55.035 81.4024 54.0226 81.7187C53.0102 82.035 52.2691 81.949 51.7313 81.6673C51.1935 81.3855 50.8249 80.8833 50.6236 80.2671L50.601 80.1948L50.5608 80.0662C50.3385 79.1568 50.318 77.9902 50.5627 77.0231C50.6862 76.5435 50.8701 76.1157 51.1026 75.7873C51.3377 75.467 51.6214 75.246 51.9589 75.1406C52.2963 75.0352 52.6554 75.0553 53.031 75.1849C53.6024 75.3768 54.206 75.8409 54.7247 76.4284C55.2434 77.016 55.6691 77.7296 55.9176 78.384L56.2958 78.2394" fill="#1D2088"/>
<path d="M45.0565 85.6406L40.8622 86.9508C40.6453 87.0186 40.5318 87.2481 40.5971 87.457C40.6623 87.6659 40.8943 87.7874 41.1032 87.7222L45.2974 86.4119C45.5144 86.3442 45.6304 86.1227 45.5626 85.9058C45.4949 85.6888 45.2734 85.5728 45.0565 85.6406Z" fill="#1D2088"/>
<path d="M45.8762 87.4293L42.3779 90.092C42.1996 90.227 42.1654 90.4846 42.3005 90.6629C42.4355 90.8412 42.6931 90.8754 42.8714 90.7403L46.3617 88.0802C46.54 87.9451 46.5742 87.6875 46.4391 87.5092C46.3041 87.3309 46.0465 87.2967 45.8762 87.4293Z" fill="#1D2088"/>
<path d="M44.9942 83.6669L40.6103 83.4666C40.3868 83.457 40.1945 83.6317 40.1849 83.8552C40.1753 84.0787 40.3476 84.263 40.5735 84.2806L44.9655 84.4784C45.1889 84.488 45.3733 84.3157 45.3828 84.0923C45.3924 83.8688 45.2177 83.6765 44.9942 83.6669Z" fill="#1D2088"/>
<path d="M63.8649 80.6108L68.0592 79.3006C68.2761 79.2328 68.3921 79.0114 68.3243 78.7945C68.2566 78.5775 68.0351 78.4615 67.8182 78.5292L63.624 79.8395C63.407 79.9072 63.2935 80.1368 63.3588 80.3457C63.424 80.5546 63.648 80.6786 63.8649 80.6108Z" fill="#1D2088"/>
<path d="M63.9368 82.5824L68.3207 82.7826C68.5442 82.7922 68.7365 82.6175 68.7461 82.394C68.7557 82.1706 68.5834 81.9863 68.3575 81.9687L63.9736 81.7683C63.7501 81.7588 63.5578 81.9335 63.5482 82.157C63.5386 82.3805 63.7134 82.5728 63.9368 82.5824Z" fill="#1D2088"/>
<path d="M63.0472 78.8204L66.5375 76.1603C66.7158 76.0252 66.75 75.7676 66.6149 75.5893C66.4799 75.411 66.2222 75.3768 66.044 75.5119L62.5536 78.172C62.3753 78.3071 62.3412 78.5647 62.4763 78.743C62.6113 78.9213 62.8689 78.9554 63.0472 78.8204Z" fill="#1D2088"/>
<path d="M57.6649 93.3612L57.7853 93.7468C63.5464 91.9471 68.3283 88.9893 71.3126 85.2173C74.2913 81.4559 75.4437 76.8451 73.8975 71.8956C73.8548 71.759 73.8122 71.6224 73.7695 71.4858C72.158 66.7507 68.6557 63.1619 64.0275 61.2477C59.3992 59.3335 53.6609 59.0888 47.5705 60.9915C41.48 62.8941 36.8934 66.3641 34.1777 70.5725C31.4621 74.7809 30.6255 79.7251 31.996 84.5355C32.0386 84.6721 32.0813 84.8087 32.124 84.9453C33.6677 89.8868 37.2317 93.0242 41.8244 94.4292C46.4251 95.8317 52.0324 95.544 57.8014 93.7418L57.5605 92.9705C51.9119 94.735 46.4463 94.9961 42.06 93.6589C37.6792 92.3112 34.3637 89.4048 32.8978 84.7124C32.8577 84.5838 32.8175 84.4553 32.7774 84.3267C31.4797 79.7494 32.2635 75.0597 34.8667 71.0275C37.4618 66.9979 41.8706 63.6363 47.8165 61.7789C53.7623 59.9215 59.3007 60.1756 63.7281 62.0114C68.1555 63.8473 71.4775 67.2544 73.0082 71.7589C73.0484 71.8875 73.0885 72.016 73.1287 72.1446C74.5946 76.837 73.523 81.1139 70.6804 84.7181C67.8378 88.3224 63.1929 91.2109 57.5524 92.973L57.6729 93.3587" fill="#1D2088"/>
<path d="M32.9218 86.0179C36.3547 84.4163 38.1366 82.8367 37.863 81.9609C37.5894 81.085 32.6732 81.298 31.4931 81.0493C31.4931 81.0493 31.9146 84.5158 32.9323 86.0234" fill="#1D2088"/>
<path d="M38.7228 92.7328C39.7388 91.2425 40.4471 89.5572 40.0378 89.2353C39.2113 88.594 37.5872 89.4364 35.5649 90.2181C35.5649 90.2181 36.7584 91.7237 38.7228 92.7328Z" fill="#1D2088"/>
<path d="M73.8883 73.176C70.1541 73.8134 67.8025 73.5691 67.5289 72.6933C67.2553 71.8175 71.4186 69.1941 72.2553 68.3154C72.2553 68.3154 73.8669 71.3571 73.8883 73.176Z" fill="#1D2088"/>
<path d="M72.9546 82.0402C71.2709 81.3933 69.7294 80.4109 69.8826 79.9132C70.197 78.9155 72.0119 78.6836 74.1115 78.1776C74.1115 78.1776 73.9873 80.0949 72.9466 82.0427" fill="#1D2088"/>
<path d="M64.6275 71.2011C61.3062 71.1275 59.6214 71.6627 58.2153 71.8197L58.2745 72.348L58.6943 72.6754C59.8379 71.1982 61.7277 69.8229 63.5672 68.8514C63.8253 68.7179 63.9273 68.395 63.7857 68.1394C63.6522 67.8812 63.3293 67.7793 63.0737 67.9209C61.1372 68.9491 59.156 70.3705 57.8573 72.0286C57.7237 72.1938 57.7086 72.4277 57.8115 72.6161C57.9144 72.8044 58.1228 72.9069 58.3282 72.8868C59.8945 72.7062 61.3895 72.2127 64.6018 72.2763C64.8946 72.2818 65.1306 72.0493 65.1362 71.7566C65.1417 71.4638 64.9093 71.2278 64.6246 71.2197" fill="#1D2088"/>
<path d="M39.9491 79.9609C42.554 78.08 44.0641 77.6348 45.4547 76.8917C45.643 76.7888 45.7479 76.5885 45.7334 76.3725C45.7108 76.1591 45.5677 75.9833 45.3613 75.9155C43.3497 75.2916 40.9117 75.2507 38.7343 75.5076C38.446 75.5447 38.2361 75.8043 38.2732 76.0926C38.3104 76.3808 38.5699 76.5907 38.8582 76.5536C40.9236 76.3052 43.2602 76.3602 45.0414 76.9238L45.2001 76.4156L44.948 75.9476C43.7026 76.6189 42.0153 77.146 39.324 79.0891C39.0864 79.2603 39.0322 79.5948 39.2034 79.8323C39.3746 80.0698 39.709 80.1241 39.9441 79.9449" fill="#1D2088"/>
<path d="M68.3729 97.8639C68.4372 98.2672 68.1529 98.6558 67.7497 98.72L58.7909 100.108C58.3796 100.174 57.999 99.8876 57.9347 99.4844L55.4034 83.1663C55.3392 82.763 55.6234 82.3744 56.0267 82.3101L64.9935 80.92C65.3967 80.8557 65.7854 81.14 65.8496 81.5433L68.381 97.8614" fill="#9F9A9D"/>
<path d="M68.3735 97.864L67.8502 97.9393C67.8668 98.0488 67.7955 98.1593 67.6966 98.1814L67.6725 98.1889L58.7136 99.5765C58.6042 99.593 58.4937 99.5217 58.4716 99.4228L58.4666 99.4068L58.3863 99.4319L58.4716 99.4228L58.4641 99.3987L55.9408 83.078C55.9242 82.9685 55.9981 82.8661 56.0945 82.836L56.1266 82.826L65.0934 81.4358C65.1949 81.4218 65.3028 81.4851 65.3355 81.5895L65.3556 81.6538L65.8663 81.5384L65.3455 81.6216L67.8769 97.9398L68.9209 97.7812L66.3895 81.4631L66.3795 81.4309L66.3398 81.2758C66.1541 80.6812 65.5596 80.3025 64.9268 80.3943L55.96 81.7845L55.7782 81.8236C55.1836 82.0093 54.7969 82.6064 54.8968 83.2366L57.4281 99.5548L57.9488 99.4714L57.4206 99.5307C57.4321 99.6241 57.4522 99.6883 57.4672 99.7365C57.653 100.331 58.25 100.718 58.8802 100.618L67.8391 99.2304L68.0289 99.1887C68.6235 99.003 69.0102 98.4059 68.9103 97.7757L68.3871 97.851" fill="#1D2088"/>
<mask id="mask4_4554_91269" style="mask-type:luminance" maskUnits="userSpaceOnUse" x="49" y="90" width="13" height="17">
<path d="M53.5584 91.2919C49.6745 92.9462 48.9199 96.6566 50.3551 100.997C51.8717 105.541 53.5774 107.557 57.4638 105.911C61.3477 104.257 62.2578 98.1077 61.0986 94.9334C59.6301 90.9385 57.8852 89.8697 54.7918 90.8361C54.4061 90.9566 53.9878 91.1137 53.5584 91.2919Z" fill="white"/>
</mask>
<g mask="url(#mask4_4554_91269)">
<path d="M28.9497 108.035C29.7141 107.603 29.8316 107.584 30.7918 107.072C37.3785 103.568 43.4613 103.193 46.3001 103.162C48.5824 103.128 50.5258 103.703 53.5749 104.091C57.2612 104.571 58.6153 102.243 57.6287 100.637C59.1277 100.636 59.8205 97.5186 57.8621 97.0368C59.5339 96.2059 58.7442 93.6216 56.7135 93.5858C57.0239 92.942 57.034 91.5631 53.5405 91.3051C52.2298 91.2031 49.9063 91.4439 47.6756 91.8409C45.2607 92.269 32.7298 95.1517 23.5807 101.52C20.6042 103.34 19.6262 105.771 20.3321 107.438" fill="#B0D7F2"/>
<path d="M29.1689 108.425C29.543 108.211 29.758 108.109 30 107.98C30.2446 107.86 30.5188 107.721 31.0029 107.464C37.4983 104.007 43.5037 103.639 46.3078 103.609C46.9948 103.606 47.6516 103.648 48.3235 103.738C49.8164 103.915 51.4017 104.276 53.5239 104.547L53.5877 104.554C55.0088 104.727 56.1472 104.504 56.9683 104.027C57.7894 103.55 58.2881 102.803 58.3776 102.017C58.4439 101.467 58.3214 100.906 58.0167 100.41L57.6315 100.645L57.6309 101.095C58.1768 101.092 58.6323 100.8 58.9351 100.414C59.246 100.026 59.4308 99.5449 59.4937 99.0402C59.5535 98.5541 59.4887 98.0364 59.2498 97.5819C59.0108 97.1274 58.5679 96.7543 57.9663 96.6071L57.8648 97.0445L58.0597 97.4422C58.7421 97.1144 59.1294 96.4907 59.1972 95.861C59.2726 95.2554 59.0874 94.6342 58.7108 94.1345C58.3342 93.6348 57.7397 93.2561 57.0145 93.1651C56.9216 93.1501 56.8232 93.1455 56.7273 93.149L56.7162 93.5935L57.1225 93.7929C57.1973 93.6372 57.2566 93.4599 57.2872 93.2475C57.3154 93.0271 57.2963 92.7685 57.1999 92.5164C57.0609 92.1277 56.748 91.7756 56.2579 91.5054C55.7679 91.2352 55.0955 91.0307 54.1604 90.9172C53.9772 90.895 53.7964 90.881 53.589 90.8664C52.1985 90.7628 49.8694 91.0141 47.6096 91.4026C45.1465 91.8458 32.597 94.7255 23.3455 101.161L23.6021 101.53L23.3671 101.145C21.1233 102.516 19.9189 104.251 19.7123 105.876C19.6395 106.49 19.7107 107.085 19.9401 107.622C20.037 107.847 20.2987 107.951 20.5267 107.862C20.7602 107.763 20.8636 107.501 20.7668 107.275C20.6036 106.894 20.5479 106.462 20.6022 105.986C20.7484 104.733 21.7549 103.183 23.837 101.916L23.8611 101.908C32.8972 95.6018 45.415 92.7055 47.7738 92.295C49.9803 91.9055 52.3064 91.6727 53.5347 91.7652C53.7235 91.7768 53.8987 91.8014 54.0715 91.818C55.2164 91.9542 55.834 92.2375 56.1248 92.4906C56.2689 92.6132 56.3412 92.7317 56.3844 92.8417C56.417 92.9461 56.4311 93.0476 56.4185 93.1485C56.4034 93.2414 56.3803 93.3368 56.3416 93.4106C56.2698 93.5477 56.2854 93.7104 56.3602 93.837C56.4375 93.9716 56.5771 94.0514 56.7368 94.0544L56.9361 94.0715C57.4222 94.1313 57.7878 94.3699 58.0293 94.6913C58.2813 95.0183 58.3883 95.417 58.339 95.7675C58.2868 96.1366 58.1105 96.4474 57.6911 96.6578C57.5244 96.7451 57.4199 96.9189 57.443 97.1057C57.4661 97.2925 57.5936 97.4467 57.7844 97.4929C58.158 97.5878 58.3464 97.7671 58.4854 98.0147C58.6245 98.2623 58.6686 98.6013 58.6249 98.9412C58.5837 99.2892 58.4441 99.6327 58.2532 99.8687C58.0624 100.105 57.858 100.213 57.6451 100.209C57.4854 100.206 57.3373 100.296 57.2574 100.436C57.1775 100.575 57.1795 100.751 57.2674 100.891C57.4662 101.217 57.542 101.572 57.4983 101.912C57.433 102.409 57.1387 102.907 56.5275 103.265C55.9163 103.624 54.9857 103.835 53.7082 103.67L53.6525 103.661C51.5756 103.392 50.0033 103.046 48.4522 102.851C47.7456 102.763 47.0516 102.715 46.3139 102.725C43.4486 102.756 37.2779 103.132 30.6022 106.69C30.1262 106.944 29.8575 107.073 29.6155 107.201C29.3709 107.322 29.1343 107.439 28.7441 107.658C28.5287 107.787 28.4544 108.058 28.5728 108.268C28.6938 108.485 28.964 108.56 29.1819 108.439" fill="#1D2088"/>
</g>
<path d="M57.0895 93.1343C56.3924 93.1051 55.9109 93.2291 55.4544 93.4334C55.2289 93.5303 55.1279 93.8 55.2248 94.0255C55.3217 94.2509 55.5833 94.3544 55.8169 94.255C56.2061 94.0893 56.4657 94.017 57.0698 94.0311C57.3199 94.0412 57.5233 93.8454 57.5333 93.5953C57.5434 93.3452 57.3476 93.1418 57.0975 93.1318" fill="#1D2088"/>
<path d="M58.2199 96.5379C58.015 96.5314 57.8528 96.5203 57.6986 96.5068C57.4249 96.4776 57.205 96.4228 56.9579 96.3942C56.8465 96.3761 56.7214 96.371 56.5989 96.374C56.3538 96.38 56.1529 96.5839 56.1589 96.8289C56.165 97.074 56.3688 97.2749 56.6139 97.2689C56.7017 97.2679 56.7736 97.2719 56.8559 97.2815C57.0392 97.3036 57.2777 97.3614 57.6072 97.3996C57.7799 97.4162 57.9818 97.4413 58.2188 97.4378C58.4664 97.4398 58.6698 97.244 58.6743 97.0045C58.6763 96.7569 58.4805 96.5535 58.2329 96.5515" fill="#1D2088"/>
<mask id="mask5_4554_91269" style="mask-type:luminance" maskUnits="userSpaceOnUse" x="49" y="90" width="13" height="17">
<path d="M53.5584 91.2919C49.6745 92.9462 48.9199 96.6566 50.3551 100.997C51.8717 105.541 53.5774 107.557 57.4638 105.911C61.3477 104.257 62.2578 98.1077 61.0986 94.9334C59.6301 90.9385 57.8852 89.8697 54.7918 90.8361C54.4061 90.9566 53.9878 91.1137 53.5584 91.2919Z" fill="white"/>
</mask>
<g mask="url(#mask5_4554_91269)">
<path d="M58.1152 100.566C57.5533 100.151 57.0908 99.969 56.5947 99.877C56.3506 99.8298 56.1186 99.9904 56.0688 100.226C56.0216 100.47 56.1823 100.703 56.4263 100.75C56.8401 100.832 57.0887 100.922 57.5878 101.278C57.7846 101.428 58.0704 101.383 58.2125 101.188C58.3602 100.983 58.3175 100.706 58.1232 100.564" fill="#1D2088"/>
</g>
<path d="M54.1618 91.3058C52.5946 91.1163 50.8489 92.1908 49.158 93.7509C47.467 95.3109 44.7367 95.2379 44.2808 95.2745C43.8248 95.3111 46.9289 103.751 46.9289 103.751C46.9289 103.751 50.2743 103.817 51.5453 103.905C52.8243 103.991 54.6959 103.715 54.6959 103.715L54.1563 91.3164" fill="#B0D7F2"/>
<path d="M43.6576 94.914C43.6576 94.914 43.883 94.9582 44.1216 95.016C44.8668 95.1712 46.2412 95.4209 47.7276 94.9565C48.2901 94.7808 48.8651 94.5042 49.4135 94.0859C50.8046 93.034 51.9049 92.2935 52.9173 91.9772C53.5842 91.7689 54.2079 91.7328 54.9129 91.9006C55.1409 91.9528 55.3699 91.8107 55.4222 91.5827C55.4744 91.3548 55.3323 91.1258 55.1043 91.0735C54.2562 90.8711 53.4432 90.9222 52.6638 91.1657C51.4666 91.5397 50.3146 92.3405 48.9019 93.408C48.4318 93.7665 47.9482 93.9969 47.4741 94.145C46.6385 94.406 45.8184 94.4065 45.1516 94.3326C44.8221 94.2944 44.5304 94.2356 44.2944 94.1859C44.0584 94.1362 43.8942 94.0904 43.74 94.0769C43.5035 94.0537 43.2981 94.2149 43.275 94.4514C43.2493 94.6799 43.413 94.8933 43.6576 94.914Z" fill="#1D2088"/>
<path d="M47.6838 104.671C49.352 104.591 51.4084 104.257 54.3255 104.589C54.5434 104.609 54.7433 104.459 54.7634 104.241C54.7915 104.02 54.6328 103.823 54.4149 103.803C51.3889 103.461 49.2416 103.814 47.6482 103.88C47.4298 103.886 47.2585 104.072 47.2675 104.298C47.274 104.517 47.4598 104.688 47.6838 104.671Z" fill="#1D2088"/>
<path d="M39.8067 93.5151C39.8067 93.5151 42.3943 94.5146 43.2133 94.7086C40.7968 95.4987 38.8118 99.5053 40.7483 102.966C37.7756 102.06 36.221 100.5 36.221 100.5C36.221 100.5 34.2927 95.6256 39.8092 93.5231" fill="#1D2088"/>
<path d="M37.9257 92.4547C37.9257 92.4547 33.6034 93.7785 33.702 97.2841C32.1397 92.4807 32.64 90.9487 32.64 90.9487C32.64 90.9487 33.5752 90.0745 35.1836 89.916C36.6996 90.8446 37.9257 92.4547 37.9257 92.4547Z" fill="#1D2088"/>
<path d="M61.3694 83.1807L61.1204 83.2585C61.1731 83.4273 61.0791 83.6065 60.9104 83.6592C60.7417 83.7119 60.5624 83.618 60.5097 83.4493C60.457 83.2806 60.5509 83.1013 60.7196 83.0486C60.8884 82.9959 61.0676 83.0898 61.1204 83.2585L61.6266 83.1004C61.486 82.6505 61.0115 82.4018 60.5615 82.5424C60.1116 82.683 59.863 83.1575 60.0035 83.6074C60.1441 84.0574 60.6186 84.306 61.0685 84.1654C61.5185 84.0248 61.7671 83.5504 61.6266 83.1004L61.3775 83.1782" fill="#F6EFF2"/>
<path d="M61.3684 83.1815C61.4638 83.4868 61.295 83.8217 60.9817 83.9196C60.6683 84.0175 60.3414 83.8463 60.2435 83.5329C60.1456 83.2196 60.3194 82.9007 60.6328 82.8028C60.9461 82.7049 61.273 82.8762 61.3684 83.1815Z" fill="#1D2088"/>
<path d="M60.673 90.2153C60.673 90.2153 60.7363 90.1074 60.8126 90.013C60.889 89.9186 60.9512 89.8639 60.9889 89.8433L60.9241 89.7489C60.8091 89.6349 60.6309 89.6288 60.5139 89.7624C60.3968 89.8959 60.444 90.0752 60.57 90.1681L60.673 90.2153Z" fill="#1D2088"/>
<path d="M60.7305 90.0753L60.7907 89.9859L60.8721 89.9075L60.8409 89.8644L60.6571 89.8689L60.6802 90.0557L60.7305 90.0753Z" fill="#1D2088"/>
<path d="M62.7079 89.8703C62.7079 89.8703 62.6109 89.7859 62.511 89.7201C62.403 89.6568 62.3318 89.6262 62.2841 89.6147L62.3102 89.5007C62.382 89.3636 62.5512 89.2843 62.7039 89.3777C62.8565 89.4711 62.8771 89.6499 62.7867 89.784L62.7054 89.8623" fill="#1D2088"/>
<path d="M62.6212 89.7568L62.5293 89.6885L62.4344 89.6388L62.446 89.5911L62.6147 89.5384L62.6539 89.7202L62.6212 89.7568Z" fill="#1D2088"/>
<path d="M61.9332 91.4448C62.6117 91.3299 63.1013 90.9212 62.9899 90.3387C62.8805 89.7908 62.3307 89.4422 61.6176 89.5592C60.9045 89.6761 60.5007 90.1903 60.5755 90.7402C60.6603 91.3222 61.2523 91.5518 61.9307 91.4369" fill="#1D2088"/>
<path d="M61.3269 90.3478C61.341 90.4493 61.2727 90.5411 61.1713 90.5552C61.0723 90.5773 60.9724 90.5115 60.9583 90.4101C60.9443 90.3086 61.0126 90.2167 61.114 90.2027C61.2155 90.1886 61.3129 90.2464 61.3269 90.3478Z" fill="#1D2088"/>
<path d="M61.3278 90.3475L61.3037 90.355L61.2775 90.469C60.9581 90.7452 60.8372 90.1039 61.2444 90.25L61.3117 90.3525L61.3599 90.3374L61.2771 90.2134C60.7644 90.0119 60.9134 90.8561 61.3222 90.4991L61.3624 90.3455L61.3383 90.353" fill="#1D2088"/>
<path d="M61.2399 90.3642L61.1525 90.4797L61.0315 90.4028L61.1244 90.2768L61.2399 90.3642Z" fill="#1D2088"/>
<path d="M62.1498 90.2138C62.1638 90.3153 62.2637 90.381 62.3627 90.359C62.4641 90.3449 62.5405 90.2505 62.5184 90.1516C62.5043 90.0501 62.4069 89.9923 62.3054 90.0064C62.204 90.0204 62.1357 90.1124 62.1498 90.2138Z" fill="#1D2088"/>
<path d="M62.1455 90.2145L62.1214 90.2221L62.2067 90.3541C62.7194 90.5556 62.5704 89.7114 62.1616 90.0684L62.1214 90.2221L62.1615 90.2095L62.1877 90.0955C62.5151 89.8168 62.6225 90.4712 62.2208 90.3144L62.1535 90.212L62.1294 90.2196" fill="#1D2088"/>
<path d="M62.2229 90.1997L62.3464 90.2846L62.4313 90.1611L62.3078 90.0762L62.2229 90.1997Z" fill="#1D2088"/>
<path d="M61.6539 89.7945C61.5123 89.8211 61.4129 89.8698 61.4335 89.9074C61.454 89.9451 61.5294 89.9039 61.663 89.8798C61.7965 89.8557 61.8814 89.8733 61.893 89.8256C61.8965 89.7804 61.793 89.7598 61.6514 89.7864" fill="#1D2088"/>
<path d="M61.6244 89.6453C61.4482 89.6739 61.3352 89.7356 61.3558 89.7733C61.3789 89.819 61.4783 89.7703 61.636 89.7387C61.8042 89.7126 61.9051 89.7252 61.9167 89.6775C61.9283 89.6298 61.7982 89.6086 61.6244 89.6453Z" fill="#1D2088"/>
<path d="M61.616 89.5597L61.4102 89.6064C61.4915 89.8103 61.613 90.0016 61.6878 89.9871C61.7626 89.9725 61.8174 89.7526 61.8295 89.5372L61.616 89.5597Z" fill="#1D2088"/>
<path d="M62.0684 90.8911C62.0734 91.0483 62.0025 91.1321 61.877 91.1537C61.7515 91.1753 61.6621 91.115 61.6169 90.9704L61.8344 90.876L62.0684 90.8911Z" fill="#1D2088"/>
<path d="M62.0706 90.8917L62.0465 90.8992L62.0008 91.0634L61.8742 91.1382L61.7336 91.1116L61.6352 90.966L61.6111 90.9735L61.6186 90.9976L61.828 90.9057L62.054 90.9233L62.0465 90.8992L62.0304 90.9042L62.0545 90.8967L62.0575 90.8781L61.8235 90.863L61.8155 90.8655L61.598 90.9599L61.5815 90.9916C61.6066 91.0719 61.6402 91.1231 61.6954 91.1588L61.8732 91.1914L62.0294 91.0985C62.0676 91.0513 62.0821 90.9851 62.0836 90.9052L62.0601 90.8861L62.0676 90.9102" fill="#1D2088"/>
<path d="M61.8155 90.7319C61.9837 90.7058 61.9918 90.5622 62.2243 90.516C62.5236 90.4578 62.6591 90.8916 62.3272 90.9865C62.1424 91.0442 62.0621 90.9283 61.8617 90.9644C61.6613 91.0006 61.6216 91.1276 61.4218 91.1371C61.0753 91.1572 61.0597 90.7122 61.3615 90.6621C61.5966 90.6239 61.6553 90.7555 61.8235 90.7294" fill="#1D2088"/>
<path d="M61.815 90.7326L61.8226 90.7567L61.9245 90.7161L62.0435 90.6171C62.0867 90.586 62.1404 90.5604 62.2233 90.5433L62.4036 90.584L62.4914 90.7241L62.4648 90.8647C62.4648 90.8647 62.3915 90.9406 62.3111 90.9657L62.271 90.9782L62.0771 90.9506C62.0109 90.936 61.9446 90.9214 61.8431 90.9355C61.7417 90.9495 61.6824 90.9857 61.6337 91.0274L61.4564 91.1092L61.4163 91.1217L61.2415 91.0705L61.1667 90.944L61.1964 90.7848L61.35 90.6839C61.4675 90.6648 61.5363 90.6874 61.5971 90.7125L61.695 90.7436L61.812 90.7512L61.7994 90.711L61.7091 90.704L61.5609 90.6533C61.5027 90.6362 61.4389 90.6296 61.3455 90.6412C61.2601 90.6502 61.1954 90.6969 61.1622 90.7602L61.124 90.9485L61.2169 91.1047C61.2641 91.1428 61.3329 91.1654 61.4208 91.1644L61.469 91.1494C61.5569 91.1484 61.6136 91.1042 61.6648 91.0706C61.7161 91.0369 61.7753 91.0008 61.8582 90.9837C61.9491 90.9641 62.0073 90.9812 62.0736 90.9958C62.1399 91.0104 62.1981 91.0274 62.2835 91.0184L62.3317 91.0033C62.4121 90.9782 62.4713 90.9421 62.507 90.8868L62.5396 90.7091L62.4418 90.5368C62.384 90.4931 62.3152 90.4705 62.2323 90.4876C62.1068 90.5092 62.042 90.5559 61.9958 90.6056L61.9175 90.6654L61.8211 90.6955L61.8311 90.7276" fill="#1D2088"/>
<path d="M61.9847 90.592C61.9445 90.4635 61.8542 90.3153 61.7447 90.3319C61.6352 90.3485 61.592 90.5207 61.603 90.6407L61.6081 90.6568L61.7929 90.5991L61.9847 90.592Z" fill="#1D2088"/>
<path d="M61.7896 90.599L61.6129 90.6542C61.6299 90.7371 61.6927 90.7968 61.8182 90.7752C61.9438 90.7536 61.988 90.6693 61.9709 90.5865L61.7871 90.591" fill="#1D2088"/>
<path d="M61.9703 90.5783L61.9944 90.5708L61.9045 90.396L61.8337 90.3388L61.7408 90.3237L61.6655 90.3649L61.5992 90.4914L61.5856 90.6456L61.5881 90.6536L61.6148 90.6541L61.5881 90.6536L61.6604 90.7721L61.8196 90.8018L61.9703 90.7194L61.9914 90.5894L61.9753 90.5944L61.9914 90.5894L61.9969 90.5788L61.9944 90.5708L61.9703 90.5783L61.9462 90.5858L61.9487 90.5939L61.9281 90.6973L61.8151 90.7591L61.6851 90.738L61.6308 90.6491L61.6283 90.6411L61.6363 90.6385L61.6529 90.4658L61.6941 90.4L61.7453 90.3664L61.8116 90.3809L61.898 90.4598L61.9462 90.5858L61.9703 90.5783L61.9462 90.5858L61.9703 90.5783Z" fill="#1D2088"/>
<path d="M61.2791 90.9083L61.028 90.9515L61.0089 90.9751L61.0406 90.9917L61.2836 90.951L61.3027 90.9274L61.2791 90.9083Z" fill="#1D2088"/>
<path d="M61.3155 91.013L61.0975 91.134L61.0915 91.1711L61.1206 91.1797L61.3361 91.0507L61.3446 91.0215L61.3155 91.013Z" fill="#1D2088"/>
<path d="M61.2918 90.7999L61.0478 90.7527L61.0181 90.7707L61.0362 90.8003L61.2858 90.837L61.3074 90.8215L61.2918 90.7999Z" fill="#1D2088"/>
<path d="M62.3804 90.767L62.6234 90.7264L62.6425 90.7028L62.6189 90.6837L62.3679 90.7268L62.3488 90.7505L62.3804 90.767Z" fill="#1D2088"/>
<path d="M62.3604 90.8785L62.6125 90.9232L62.6341 90.9076L62.616 90.878L62.372 90.8308L62.3449 90.8569L62.3604 90.8785Z" fill="#1D2088"/>
<path d="M62.3472 90.6621L62.5651 90.5411L62.5712 90.504L62.542 90.4954L62.3266 90.6245L62.3181 90.6536L62.3472 90.6621Z" fill="#1D2088"/>
<path d="M61.9329 91.4452L61.9405 91.4693C62.2769 91.4171 62.5697 91.2816 62.7675 91.0963C62.9629 90.903 63.0634 90.6599 63.0157 90.3662L63.0082 90.342C62.955 90.0588 62.7863 89.8293 62.5387 89.6862C62.2912 89.543 61.9728 89.4838 61.6122 89.5435C61.2517 89.6032 60.9664 89.7629 60.7786 89.9803C60.5908 90.1977 60.5084 90.4704 60.551 90.7481L60.5585 90.7721C60.6062 91.0659 60.7835 91.2663 61.0315 91.3829C61.2796 91.4994 61.596 91.524 61.9405 91.4693L61.9254 91.4211C61.5995 91.4788 61.2911 91.4517 61.0536 91.3407C60.8161 91.2297 60.6519 91.0428 60.6093 90.7651L60.6017 90.741C60.5696 90.4689 60.649 90.2148 60.8233 90.0104C61.0056 89.8035 61.2748 89.6489 61.6273 89.5917C61.9798 89.5345 62.2876 89.5882 62.5246 89.7258C62.7617 89.8634 62.9173 90.0794 62.9735 90.344L62.981 90.3682C63.0237 90.6459 62.9288 90.8784 62.747 91.0586C62.5571 91.2414 62.2699 91.3664 61.944 91.4241L61.9515 91.4482" fill="#1D2088"/>
<path d="M60.5868 90.834C60.7957 90.7688 60.9037 90.6909 60.8967 90.6402L60.5391 90.5403C60.5391 90.5403 60.5381 90.7346 60.5868 90.834Z" fill="#1D2088"/>
<path d="M60.8701 91.2577C60.9354 91.1844 60.9957 91.095 60.9695 91.0679C60.9304 91.0272 60.8259 91.0598 60.7109 91.0869C60.7109 91.0869 60.7677 91.1838 60.8701 91.2577Z" fill="#1D2088"/>
<path d="M63 90.4249C62.7816 90.4314 62.6571 90.3997 62.642 90.3515L62.9388 90.1442C62.9388 90.1442 63.0046 90.3265 62.9945 90.4355" fill="#1D2088"/>
<path d="M62.8806 90.9204L62.7209 90.7762C62.7485 90.7235 62.855 90.7255 62.9725 90.7065C62.9725 90.7065 62.9519 90.8099 62.8781 90.9124" fill="#1D2088"/>
<mask id="mask6_4554_91269" style="mask-type:luminance" maskUnits="userSpaceOnUse" x="58" y="80" width="15" height="17">
<path d="M60.328 82.757C57.4814 85.8686 59.2077 91.8466 61.5823 94.2532C64.9575 97.6612 66.1684 96.2865 69.9549 94.4333C74.8889 92.0189 71.9451 87.6206 68.827 84.2734C66.4997 81.7638 64.6097 80.4846 62.6893 81.0845C61.918 81.3255 61.1436 81.8672 60.328 82.757Z" fill="white"/>
</mask>
<g mask="url(#mask6_4554_91269)">
<path d="M85.3756 68.9796C84.8563 69.6886 84.7619 69.7534 84.0985 70.6221C79.5638 76.5452 74.1793 79.409 71.6111 80.617C69.5506 81.587 67.5454 81.8871 64.6077 82.7872C61.0537 83.8886 60.7953 86.5621 62.3515 87.6193C60.9925 88.2378 61.6546 91.3734 63.6347 90.993C62.457 92.4457 64.253 94.4686 66.1081 93.6598C66.0919 94.3703 66.6643 95.6378 69.9436 94.4194C71.1769 93.9636 73.1882 92.7796 75.0549 91.4998C77.0808 90.1085 87.272 82.2772 92.944 72.6828C94.8972 69.7885 94.7764 67.1717 93.4417 65.9483" fill="#B0D7F2"/>
<path d="M85.0221 68.72C84.7624 69.0745 84.6233 69.2503 84.4515 69.4627C84.2798 69.6751 84.0889 69.911 83.7504 70.3519C79.2785 76.1937 73.9638 79.0269 71.4333 80.2142C70.8101 80.5059 70.1934 80.7339 69.5426 80.9372C68.1068 81.3945 66.5189 81.7318 64.4836 82.3588L64.4274 82.3764C63.0614 82.8031 62.1193 83.4855 61.5668 84.2578C61.0144 85.03 60.8777 85.9194 61.1217 86.6721C61.2848 87.1944 61.6328 87.6589 62.1138 87.9849L62.3604 87.6168L62.1711 87.2085C61.677 87.4335 61.3807 87.8964 61.2707 88.3629C61.1551 88.84 61.1771 89.3622 61.3383 89.8499C61.4864 90.3239 61.755 90.7603 62.1617 91.0742C62.5685 91.3881 63.1298 91.5478 63.7284 91.4314L63.6436 90.9905L63.3002 90.7098C62.8206 91.2917 62.7216 92.0194 62.9178 92.6195C63.1011 93.206 63.5259 93.6906 64.0767 93.986C64.6276 94.2813 65.3205 94.3823 66.0276 94.1614C66.116 94.1338 66.2124 94.1037 66.2958 94.06L66.1226 93.6467L65.6782 93.6356C65.6696 93.8058 65.6952 94.0007 65.7579 94.2016C65.8232 94.4105 65.9467 94.6365 66.14 94.8318C66.4247 95.1221 66.8576 95.322 67.416 95.3592C67.9769 95.4045 68.6789 95.3086 69.5683 95.022C69.7451 94.9667 69.9218 94.9116 70.1097 94.8353C71.4209 94.3463 73.4322 93.1623 75.326 91.8564C77.3845 90.4284 87.6024 82.5976 93.3481 72.9008L92.9609 72.6778L93.3315 72.9325C94.8026 70.7532 95.1774 68.6783 94.6879 67.1115C94.5047 66.5249 94.1844 66.0077 93.7551 65.6215C93.5693 65.4502 93.2921 65.4663 93.1208 65.6521C92.9496 65.8378 92.9656 66.115 93.1514 66.2863C93.4497 66.5635 93.6877 66.9301 93.8307 67.3881C94.2153 68.5908 93.9489 70.4202 92.5849 72.4338L92.5738 72.4548C86.9732 81.9387 76.79 89.7675 74.8153 91.1252C72.9728 92.3975 70.9509 93.5759 69.7954 93.9986C69.6211 94.0619 69.4469 94.1251 69.2942 94.1728C68.1934 94.5167 67.517 94.5251 67.1464 94.4116C66.9636 94.3629 66.8426 94.286 66.7643 94.2047C66.686 94.1233 66.6398 94.0319 66.6096 93.9355C66.582 93.8471 66.568 93.7457 66.5695 93.6658C66.575 93.5142 66.4952 93.3716 66.3717 93.2867C66.2481 93.2018 66.0834 93.1827 65.9438 93.244L65.759 93.3017C65.298 93.4633 64.8707 93.394 64.5097 93.1981C64.1511 93.0103 63.883 92.6884 63.7776 92.3509C63.6671 91.9974 63.7058 91.6413 63.9976 91.2768C64.1177 91.1246 64.1348 90.9253 64.0313 90.7636C63.9359 90.5993 63.7511 90.516 63.5613 90.5576C63.1847 90.6224 62.9306 90.543 62.7021 90.3762C62.4712 90.2015 62.2874 89.9238 62.1845 89.5944C62.0791 89.2569 62.0595 88.8838 62.1369 88.595C62.2142 88.3063 62.3508 88.1225 62.5442 88.0357C62.6918 87.9719 62.7877 87.8273 62.8068 87.6626C62.8179 87.5004 62.7436 87.3472 62.607 87.2488C62.2917 87.0298 62.0788 86.7435 61.9759 86.4141C61.8278 85.94 61.8946 85.3635 62.3025 84.7775C62.7128 84.1996 63.4666 83.6202 64.6959 83.2362L64.7522 83.2186C66.7529 82.5936 68.3247 82.2613 69.8192 81.7944C70.4941 81.5836 71.1485 81.3351 71.8174 81.0203C74.4072 79.7968 79.867 76.8918 84.4645 70.8873C84.7894 70.4595 84.9828 70.2315 85.1545 70.0191C85.3263 69.8067 85.49 69.5968 85.7577 69.2398C85.8973 69.0374 85.8547 68.7597 85.6578 68.6096C85.461 68.4594 85.1753 68.5046 85.0356 68.7069" fill="#1D2088"/>
<path d="M65.9756 94.2215C66.6249 93.9569 67.0116 93.6421 67.3436 93.265C67.5068 93.0818 67.4963 92.794 67.305 92.6333C67.1217 92.47 66.8365 92.4886 66.6733 92.6719C66.393 92.9887 66.1901 93.1579 65.6317 93.4029C65.4062 93.4998 65.2947 93.764 65.3916 93.9895C65.4885 94.2149 65.7526 94.3264 65.9781 94.2295" fill="#1D2088"/>
<path d="M63.5416 91.5954C63.7269 91.511 63.8876 91.4608 64.0297 91.4076C64.2949 91.3248 64.5113 91.2836 64.7524 91.2083C64.8649 91.1732 64.9774 91.138 65.0903 91.0763C65.3133 90.9713 65.4062 90.7042 65.3013 90.4812C65.1964 90.2583 64.9293 90.1653 64.7063 90.2703C64.6284 90.3034 64.5667 90.3315 64.4783 90.3591C64.3015 90.4144 64.069 90.4605 63.7476 90.5609C63.5789 90.6136 63.3886 90.6819 63.1791 90.7738C62.9456 90.8732 62.8502 91.1323 62.9471 91.3578C63.044 91.5832 63.3136 91.6842 63.5391 91.5873" fill="#1D2088"/>
<path d="M61.9559 87.8837C62.6373 88.0324 63.1304 88.0018 63.6201 87.8753C63.8581 87.8186 64.0118 87.5765 63.9551 87.3385C63.8983 87.1004 63.6588 86.9548 63.4102 87.006C62.9985 87.0994 62.7343 87.129 62.1403 87.0059C61.9043 86.9562 61.6617 87.1113 61.6144 87.3553C61.5672 87.5994 61.7199 87.8339 61.9559 87.8837Z" fill="#1D2088"/>
</g>
<path d="M66.3035 82.7691C66.3035 82.7691 70.6614 81.8134 72.1809 81.8502C73.7005 81.887 73.6358 80.946 74.2366 79.312C75.6214 86.4549 73.7345 87.9527 68.4174 90.2135C67.4386 85.951 66.3035 82.7691 66.3035 82.7691Z" fill="#B0D7F2"/>
<path d="M68.7407 94.3358C71.1572 93.6867 72.6175 92.913 73.8856 92.173C71.6772 90.5523 70.6225 91.8342 70.6225 91.8342L68.7407 94.3358Z" fill="#B0D7F2"/>
<path d="M73.0445 80.4422C72.4202 81.3516 71.6714 81.806 70.9885 82.0194C70.5706 82.1499 70.176 82.185 69.8621 82.1684C68.9366 82.1136 67.4502 81.8724 65.6429 82.1283C65.4239 82.1614 65.2763 82.3663 65.3069 82.5772C65.34 82.7961 65.5449 82.9438 65.7558 82.9132C67.4351 82.6708 68.8205 82.8995 69.8178 82.9583C70.2301 82.9794 70.7102 82.9353 71.2244 82.7746C72.06 82.5136 72.9735 81.9372 73.6963 80.8912C73.8168 80.7125 73.7761 80.4695 73.5949 80.3409C73.4136 80.2123 73.165 80.2635 73.0445 80.4422Z" fill="#1D2088"/>
<path d="M72.7141 92.8053C71.6927 93.3184 70.5959 93.7316 69.6076 94.0403C68.9488 94.2462 68.3361 94.4023 67.8279 94.5257C67.614 94.5749 67.4874 94.7908 67.5341 94.9967C67.5833 95.2107 67.7937 95.3478 68.0051 95.2906C68.5319 95.1701 69.1581 95.0009 69.8411 94.7876C70.8615 94.4688 71.9984 94.0431 73.0631 93.4988C73.2619 93.4014 73.3358 93.1579 73.2409 92.9671C73.1435 92.7682 72.9 92.6943 72.7091 92.7892" fill="#1D2088"/>
<path d="M67.1018 82.7309C72.5326 83.4596 74.3015 91.1264 72.6417 93.4352C74.0106 92.5665 77.392 90.1786 77.392 90.1786C77.392 90.1786 77.5452 84.2043 72.4936 81.8667C70.8248 82.8201 67.0938 82.7334 67.0938 82.7334" fill="#1D2088"/>
<path d="M74.0064 78.0874L73.487 80.2075C73.487 80.2075 78.5678 81.2837 79.1263 84.9631C79.4023 81.4992 78.8673 79.2499 78.8673 79.2499C78.8673 79.2499 76.5419 77.0572 74.0144 78.0849" fill="#1D2088"/>
<path d="M73.8864 73.176L75.0761 72.6368L77.0714 75.3824C77.0714 75.3824 75.1285 75.0633 74.1548 75.8702C73.9425 74.0051 73.8783 73.1785 73.8783 73.1785" fill="#1D2088"/>
<path d="M49.4981 93.4514C47.7875 94.9205 46.4231 100.603 50.5209 104.094C49.495 104.282 46.5091 104.21 46.5091 104.21C46.5091 104.21 43.0383 102.895 43.4555 98.02C43.6838 95.3912 45.3299 94.7888 45.3299 94.7888C45.3299 94.7888 47.6972 94.6313 49.4925 93.4619" fill="#1D2088"/>
<path d="M-13.4652 100.729C-12.0999 101.035 -10.1892 101.364 -8.56912 100.734C-6.94907 100.104 -6.6476 98.3876 -3.8846 97.5774C-2.0667 97.0448 0.132777 97.169 1.33586 98.3101C3.62703 100.478 1.93839 104.163 -2.25165 103.708C-3.9123 103.53 -4.81627 104.306 -5.71676 105.461C-7.0758 107.208 -10.343 107.929 -14.9889 106.382L-13.4572 100.727" fill="#B0D7F2"/>
<path d="M-12.7772 100.867L-12.848 101.233C-11.6408 101.456 -10.161 101.62 -8.76844 101.194C-8.65595 101.158 -8.55149 101.126 -8.43347 101.08C-7.98552 100.905 -7.62394 100.651 -7.31257 100.377C-6.84149 99.9655 -6.45729 99.5015 -5.95407 99.0797C-5.4589 98.6605 -4.8417 98.2648 -3.90413 97.9631L-3.77557 97.9229C-2.91081 97.6704 -1.95314 97.5741 -1.0844 97.6731C-0.215664 97.7721 0.564151 98.0665 1.08184 98.5662C1.48454 98.9519 1.74012 99.3747 1.87566 99.8086C2.0865 100.484 2.00406 101.18 1.65449 101.783C1.31296 102.383 0.706819 102.899 -0.160952 103.17C-0.731431 103.348 -1.42244 103.423 -2.21686 103.336C-2.80138 103.272 -3.32414 103.32 -3.78213 103.463C-4.73025 103.76 -5.39268 104.434 -6.00942 105.226C-6.45138 105.788 -7.12834 106.246 -8.04432 106.532C-9.53881 106.999 -11.658 106.991 -14.2867 106.198L-14.3892 106.548L-14.0678 106.729C-13.0242 104.904 -12.4756 102.934 -12.391 100.861L-12.7581 100.844L-13.1252 100.826C-13.2052 102.8 -13.7141 104.643 -14.7051 106.355C-14.7628 106.453 -14.7704 106.57 -14.7272 106.68C-14.6865 106.782 -14.5976 106.868 -14.4917 106.897C-11.757 107.718 -9.49722 107.753 -7.80988 107.226C-6.78141 106.905 -5.96183 106.367 -5.41339 105.666C-4.82126 104.908 -4.26529 104.373 -3.55018 104.149C-3.19665 104.039 -2.78588 103.999 -2.27568 104.051C-1.39087 104.145 -0.603957 104.067 0.0790118 103.853C1.10748 103.532 1.88087 102.902 2.31883 102.131C2.76483 101.356 2.87539 100.44 2.6043 99.5722C2.43111 99.0177 2.09522 98.4789 1.60616 98.0143C0.920765 97.373 -0.00467935 97.036 -0.984899 96.9189C-1.97064 96.8123 -3.01366 96.9177 -3.96931 97.1898L-4.11394 97.2349C-5.49594 97.6667 -6.30754 98.3435 -6.92627 98.9601C-7.23563 99.2684 -7.50731 99.5561 -7.778 99.7906C-8.05673 100.028 -8.33194 100.219 -8.68598 100.356C-8.77989 100.395 -8.86828 100.422 -8.9647 100.452C-10.1539 100.824 -11.5253 100.697 -12.6792 100.475C-12.7827 100.454 -12.8977 100.482 -12.9735 100.549C-13.0574 100.62 -13.1071 100.715 -13.1171 100.824L-12.7501 100.841" fill="#1D2088"/>
<path d="M-23.4995 87.3645C-21.5053 86.38 -19.6275 84.6557 -16.8386 81.0771C-15.4113 79.2378 -9.23927 75.1402 -4.83997 77.0554C1.55033 79.839 5.14769 91.8909 -7.09702 100.743C-21.45 111.118 -28.5227 102.762 -29.4703 98.2605C-30.4963 93.3954 -28.09 89.6364 -23.4995 87.3645Z" fill="#814109"/>
<path d="M-23.4999 87.3651L-23.3488 87.6794C-21.2873 86.6562 -19.3608 84.8903 -16.5689 81.2931C-16.1731 80.7814 -15.3013 80.0152 -14.1824 79.2776C-13.0635 78.54 -11.6895 77.8286 -10.2593 77.3818C-8.45139 76.817 -6.57179 76.6796 -4.98752 77.3753C-2.71129 78.3663 -0.773143 80.6182 0.127964 83.5027C1.64152 88.3478 0.264421 94.9777 -7.30779 100.465C-10.2718 102.608 -12.9168 103.937 -15.2389 104.663C-19.409 105.965 -22.5495 105.341 -24.8081 103.983C-27.0668 102.625 -28.4455 100.498 -28.9801 98.7868C-29.0454 98.5779 -29.0976 98.3826 -29.1313 98.1902C-29.6241 95.822 -29.295 93.7702 -28.2925 92.0107C-27.29 90.2512 -25.6036 88.7895 -23.3488 87.6794L-23.4999 87.3651L-23.651 87.0507C-25.9972 88.207 -27.7971 89.757 -28.8875 91.6586C-29.9779 93.5602 -30.3297 95.8219 -29.8047 98.3213C-29.7635 98.5377 -29.7037 98.7571 -29.6335 98.9821C-29.0486 100.854 -27.5871 103.105 -25.1547 104.568C-22.7304 106.033 -19.3398 106.667 -15.0195 105.308C-12.6091 104.555 -9.89673 103.188 -6.88954 101.014C0.88456 95.4102 2.41485 88.4237 0.808424 83.2813C-0.147903 80.22 -2.19753 77.8089 -4.69821 76.7205C-6.51246 75.9379 -8.5578 76.1095 -10.454 76.7018C-11.9646 77.1737 -13.3923 77.9108 -14.5544 78.6795C-15.7245 79.4507 -16.626 80.235 -17.1062 80.8436C-19.8815 84.4092 -21.7291 86.0887 -23.6455 87.0401L-23.4944 87.3545" fill="#1E2380"/>
<path d="M216.61 101.323L-238.914 243.625L-233.934 259.566L221.59 117.264L216.61 101.323Z" fill="#1D2088"/>
</g>
</g>
</svg>
