<svg width="70" height="91" viewBox="0 0 70 91" fill="none" xmlns="http://www.w3.org/2000/svg">
<path d="M46.6156 28.7893C52.5056 26.1524 56.6716 21.4248 57.4439 19.0999C58.0681 17.2276 57.7872 14.5283 57.7092 11.8758C57.6312 9.42617 60.2525 8.19354 61.3135 9.41836C61.7113 8.18574 64.7695 8.27936 64.8631 10.0425C65.9943 8.88787 68.5844 10.3701 67.8823 12.1801C68.4908 12.0943 70.566 13.6935 69.1617 15.8779C68.5532 16.8375 67.3206 18.9985 66.9305 20.0829C66.6418 20.8865 64.7773 26.051 59.8234 30.5836C45.3361 42.8709 32.339 35.1709 46.6078 28.7893" fill="#B0D7F2"/>
<path d="M46.6157 28.7892L46.4675 28.4537C49.3696 27.1587 51.8505 25.3409 53.6994 23.5622C55.5483 21.7913 56.7576 20.036 57.1008 18.9828C57.3895 18.1246 57.4753 17.0246 57.4753 15.8076C57.4753 14.5906 57.3817 13.2253 57.3427 11.8835V11.7665C57.3427 10.8069 57.7249 9.99553 58.271 9.44943C58.8171 8.89553 59.5193 8.57567 60.2058 8.57567C60.7129 8.57567 61.2278 8.76291 61.5866 9.18419L61.3136 9.41823L60.9625 9.30901C61.0874 8.91894 61.3916 8.64589 61.7349 8.47425C62.0859 8.30262 62.4838 8.22461 62.8973 8.22461C63.42 8.22461 63.9583 8.34943 64.403 8.63808C64.8476 8.91894 65.1909 9.40262 65.2221 10.0189L64.8554 10.0423L64.598 9.78489C64.9491 9.41823 65.4249 9.2622 65.8852 9.2622C66.4859 9.2622 67.0867 9.51184 67.5547 9.90972C68.0228 10.3076 68.3661 10.8849 68.3661 11.5558C68.3661 11.7977 68.3193 12.0473 68.2257 12.297L67.8824 12.1643L67.8278 11.8055H67.9292C68.1554 11.8055 68.3661 11.8835 68.5845 12.0083C68.9122 12.1955 69.2554 12.492 69.5285 12.8977C69.8015 13.2955 69.9966 13.8104 69.9966 14.3955C69.9966 14.9182 69.8328 15.4877 69.4661 16.0728C69.1696 16.5409 68.7093 17.3133 68.2803 18.1012C67.8512 18.8892 67.4533 19.6927 67.2739 20.1998C66.9774 21.0267 65.0895 26.2537 60.0732 30.8487H60.0654C54.4015 35.6622 48.9483 37.4644 45.1646 37.4644C43.6668 37.4644 42.4263 37.1835 41.5292 36.6608C41.0767 36.4034 40.7178 36.0757 40.4604 35.6934C40.2029 35.3112 40.0703 34.8665 40.0703 34.3984C40.0703 33.4622 40.593 32.4636 41.6306 31.4651C42.676 30.4665 44.2519 29.4367 46.4597 28.4537L46.6079 28.7892L46.7561 29.1168C44.6029 30.0842 43.0895 31.075 42.1377 31.9956C41.1781 32.9161 40.7958 33.7587 40.7958 34.4062C40.7958 34.7339 40.8895 35.0303 41.0689 35.3034C41.3341 35.709 41.8256 36.0757 42.52 36.3331C43.2143 36.5906 44.1115 36.7466 45.1646 36.7466C48.7143 36.7466 54.0349 35.0303 59.5895 30.3104L59.8235 30.5913L59.5817 30.326C64.4654 25.8558 66.3143 20.7537 66.5874 19.9736C66.798 19.3963 67.2037 18.5771 67.6406 17.7736C68.0774 16.97 68.5377 16.1899 68.8498 15.6984C69.1618 15.2147 69.2711 14.7934 69.2711 14.4189C69.2711 13.865 69.0214 13.3892 68.7015 13.0537C68.5455 12.8821 68.3739 12.7494 68.2257 12.6714C68.0774 12.5856 67.9448 12.5544 67.9292 12.5622C67.8044 12.5778 67.6718 12.531 67.5937 12.4296C67.5157 12.3282 67.4923 12.1955 67.5391 12.0707C67.6015 11.8991 67.6327 11.7431 67.6327 11.5948C67.6327 11.1813 67.4221 10.7913 67.0788 10.5026C66.7356 10.2062 66.2831 10.0267 65.8852 10.0267C65.581 10.0267 65.3235 10.1204 65.1207 10.331C65.0193 10.4324 64.871 10.4714 64.7306 10.4168C64.598 10.3622 64.5044 10.2374 64.4966 10.097C64.4732 9.72248 64.3015 9.48064 64.0051 9.2856C63.7164 9.09057 63.2952 8.98915 62.8973 8.98915C62.5852 8.98915 62.2732 9.05156 62.0547 9.16078C61.8285 9.27 61.7037 9.41043 61.6491 9.56645C61.6101 9.69128 61.5008 9.78489 61.376 9.8083C61.2434 9.8317 61.1108 9.78489 61.0249 9.69128C60.8143 9.44943 60.5413 9.34021 60.198 9.33241C59.7455 9.33241 59.1994 9.55865 58.7781 9.98773C58.3569 10.4168 58.0604 11.0331 58.0604 11.7977V11.8913C58.0994 13.2175 58.193 14.575 58.193 15.8388C58.193 17.1026 58.1072 18.2494 57.7796 19.2402C57.3505 20.5041 56.0944 22.2828 54.1909 24.1161C52.2873 25.9416 49.7441 27.8062 46.7561 29.148L46.6079 28.8204" fill="#1D2088"/>
<path fill-rule="evenodd" clip-rule="evenodd" d="M63.6755 12.7026C61.2258 11.6884 59.4627 14.5671 62.4975 15.9402C65.1422 17.1416 66.7415 13.9742 63.6755 12.7026Z" fill="#1D2088"/>
<path fill-rule="evenodd" clip-rule="evenodd" d="M59.3852 11.3139C59.354 11.704 59.6348 12.0394 60.0249 12.0706C60.4072 12.1018 60.7504 11.821 60.7894 11.4309C60.8206 11.0487 60.5398 10.7054 60.1497 10.6742C59.7596 10.6352 59.4242 10.9238 59.3852 11.3139Z" fill="#1D2088"/>
<path fill-rule="evenodd" clip-rule="evenodd" d="M62.4477 10.643C62.4165 11.0253 62.6973 11.3686 63.0874 11.3998C63.4697 11.4388 63.8129 11.1501 63.8519 10.7601C63.8909 10.3778 63.6023 10.0345 63.2122 9.99553C62.8299 9.96432 62.4867 10.2452 62.4555 10.6352" fill="#1D2088"/>
<path fill-rule="evenodd" clip-rule="evenodd" d="M65.2367 11.7975C65.2055 12.1798 65.4864 12.5231 65.8765 12.5543C66.2587 12.5855 66.602 12.3046 66.6332 11.9224C66.6644 11.5323 66.3835 11.1968 65.9935 11.1578C65.6034 11.1188 65.2679 11.4075 65.2367 11.7975Z" fill="#1D2088"/>
<path fill-rule="evenodd" clip-rule="evenodd" d="M66.768 14.1926C66.7368 14.5749 67.0176 14.9181 67.4077 14.9493C67.7978 14.9806 68.1332 14.6997 68.1722 14.3096C68.2035 13.9274 67.9226 13.5841 67.5325 13.5451C67.1503 13.5139 66.807 13.7947 66.768 14.1848" fill="#1D2088"/>
<path d="M64.144 25.3877C61.8114 26.0352 57.7 24.3423 55.5312 21.8458C56.5766 20.7146 56.8731 20.309 57.388 19.365C59.3227 21.6586 61.983 23.1097 65.9696 22.2671L64.1518 25.3955" fill="#1D2088"/>
<path d="M59.887 30.7006C56.0643 30.7241 52.3196 27.6425 51.8516 25.4971C52.6941 24.2645 53.8565 24.2099 54.7381 23.1099C55.058 24.9588 58.5296 27.5021 62.2353 28.0638C61.3381 29.273 59.8948 30.7006 59.8948 30.7006" fill="#1D2088"/>
<path d="M54.1708 34.5701C53.0396 34.7339 48.7176 32.3233 47.8906 28.2041C48.7878 27.2524 49.7084 26.8779 50.6679 25.9885C51.5105 29.3353 54.1318 31.8084 57.5176 32.5339C56.2225 33.7119 54.1708 34.5623 54.1708 34.5623" fill="#1D2088"/>
<path d="M33.7693 74.7239V82.736C33.7693 84.2261 32.6225 86.2622 29.97 87.7913C25.1019 90.5842 20.3509 90.1629 18.4083 89.7183C13.6495 88.6261 14.4608 84.6551 16.419 82.3069C17.7998 80.6452 19.3133 79.2644 19.9686 76.9551C20.5693 74.8409 19.6019 72.1026 19.0246 70.6126L19.3133 68.9119L33.2076 72.1495L33.7693 74.7317" fill="#B0D7F2"/>
<path d="M33.7773 74.7239H33.4029V82.736C33.4107 84.0388 32.3653 85.9892 29.7908 87.4637C26.7717 89.1956 23.7993 89.6637 21.5447 89.6637C20.2419 89.6637 19.1809 89.5076 18.5021 89.3516C17.2539 89.0629 16.4504 88.5871 15.9589 88.0254C15.4674 87.4637 15.2646 86.8083 15.2567 86.0906C15.2567 84.897 15.8653 83.5551 16.7156 82.541C17.3943 81.7218 18.1277 80.9573 18.7752 80.0991C19.4227 79.2331 19.9922 78.2658 20.3355 77.0565C20.4837 76.5495 20.5383 76.0112 20.5383 75.4729C20.5383 73.5927 19.8362 71.6502 19.3837 70.4799L19.0326 70.6126L19.3993 70.675L19.6177 69.3721L32.8958 72.4693L33.4029 74.8253L33.7695 74.7473L34.1362 74.6693L33.5745 72.0792C33.5433 71.9388 33.4341 71.8296 33.2936 71.7984L19.4071 68.5608C19.3057 68.5374 19.1965 68.5608 19.1185 68.6154C19.0326 68.67 18.978 68.7636 18.9546 68.8651L18.666 70.5658L18.6894 70.7608C19.1341 71.9076 19.7972 73.7878 19.7972 75.4885C19.7972 75.9722 19.7426 76.4402 19.6177 76.8693C19.3057 77.9693 18.7908 78.8509 18.1745 79.67C17.5582 80.4892 16.8404 81.2459 16.1383 82.0885C15.2021 83.2119 14.5078 84.6785 14.5078 86.1218C14.5078 86.9878 14.7653 87.8381 15.3894 88.548C16.0135 89.258 16.9731 89.8041 18.3227 90.1083C19.0638 90.28 20.1794 90.4438 21.5369 90.4438C23.8929 90.4438 26.9979 89.9523 30.1575 88.1424C32.8958 86.5743 34.1362 84.4523 34.144 82.7672V74.6771L33.7695 74.7551" fill="#1D2088"/>
<path d="M33.7656 74.7239V82.736C33.7656 84.2261 34.9124 86.2622 37.5649 87.7913C42.433 90.5842 47.1841 90.1629 49.1344 89.7183C53.8933 88.6261 53.0742 84.6551 51.116 82.3069C49.7351 80.6452 48.2217 79.2644 47.5663 76.9551C46.9656 74.8409 47.933 72.1026 48.5103 70.6126L48.2217 68.9119L34.3351 72.1495L33.7734 74.7317" fill="#B0D7F2"/>
<path d="M33.7729 74.7239H33.3984V82.7359C33.4062 84.4133 34.6545 86.5352 37.385 88.1111C40.5367 89.9211 43.6417 90.4125 46.0055 90.4125C47.3708 90.4125 48.4786 90.2487 49.2197 90.0771C50.5694 89.7728 51.5289 89.2189 52.1531 88.5168C52.7772 87.8069 53.0424 86.9565 53.0424 86.0906C53.0424 84.6473 52.3481 83.1806 51.4119 82.0572C50.7098 81.2147 49.9921 80.4579 49.3758 79.6388C48.7594 78.8196 48.2445 77.9459 47.9325 76.8381C47.8077 76.409 47.7609 75.9409 47.7609 75.4572C47.7609 73.7643 48.424 71.8764 48.8687 70.7296L48.8921 70.5345L48.6034 68.8338C48.5878 68.7324 48.5254 68.6466 48.4396 68.5842C48.3538 68.5295 48.2446 68.5061 48.1509 68.5295L34.2644 71.7671C34.124 71.7983 34.0148 71.9076 33.9835 72.048L33.4218 74.6381V74.7161H33.7885L34.1552 74.7941L34.6623 72.4381L47.9325 69.3409L48.1509 70.6437L48.5176 70.5813L48.1665 70.4487C47.7141 71.6189 47.0119 73.5615 47.0119 75.4416C47.0119 75.9799 47.0665 76.5182 47.2148 77.0253C47.558 78.2345 48.1275 79.2097 48.775 80.0679C49.4304 80.9338 50.1559 81.6906 50.8346 82.5097C51.685 83.5239 52.3013 84.8735 52.2935 86.0593C52.2935 86.7771 52.0907 87.4324 51.5914 87.9941C51.0999 88.5558 50.2963 89.0317 49.0481 89.3203C48.3616 89.4764 47.3006 89.6324 45.9977 89.6324C43.7431 89.6324 40.7708 89.1643 37.7516 87.4324C35.1772 85.9579 34.1318 84.0076 34.1396 82.7047V74.6927H33.7651" fill="#1D2088"/>
<path d="M25.367 78.7884C26.8181 78.6245 27.1145 77.2437 25.6556 77.0018C24.3528 76.7834 22.301 76.1593 20.1478 74.8564C20.2259 76.0735 20.1478 76.6196 19.7266 77.704C21.5599 78.6323 23.9159 78.96 25.3748 78.7884" fill="#1D2088"/>
<path d="M23.7798 82.143C25.2387 81.7061 25.106 80.4969 23.811 80.5047C22.3053 80.5203 20.7997 80.1693 18.9195 79.1941C18.428 80.0054 17.8741 80.6139 17.2578 81.3239C19.5436 82.5409 22.2975 82.5877 23.772 82.1508" fill="#1D2088"/>
<path d="M42.1762 78.7884C40.7251 78.6245 40.4287 77.2437 41.8875 77.0018C43.1904 76.7834 45.2422 76.1593 47.3953 74.8564C47.3173 76.0735 47.3953 76.6196 47.8166 77.704C45.9833 78.6323 43.6273 78.96 42.1684 78.7884" fill="#1D2088"/>
<path d="M43.7683 82.143C42.3095 81.7061 42.4421 80.4969 43.7293 80.5047C45.235 80.5203 46.7407 80.1693 48.613 79.1941C49.1045 80.0054 49.6584 80.6139 50.2747 81.3239C47.9889 82.5409 45.235 82.5877 43.7605 82.1508" fill="#1D2088"/>
<path d="M17.4209 85.3105C16.9529 85.8644 16.7656 86.5431 16.7656 87.1906C16.7656 87.8382 16.9529 88.5169 17.2493 89.0396C17.5536 89.5623 17.9514 89.9835 18.4819 90.1084C18.6848 90.1552 18.8798 90.0226 18.9266 89.8275C18.9734 89.6247 18.8486 89.4218 18.6458 89.3828C18.4429 89.3438 18.1309 89.0942 17.8968 88.6807C17.6628 88.275 17.5068 87.7289 17.5068 87.1984C17.5068 86.6679 17.6472 86.1921 17.9826 85.7942C18.1153 85.6382 18.0997 85.4041 17.9358 85.2637C17.7798 85.1311 17.5458 85.1545 17.4131 85.3105" fill="#1D2088"/>
<path d="M20.593 86.1687C20.1951 86.7772 20.0312 87.4092 20.0312 87.9943C20.0312 88.634 20.2263 89.2035 20.5383 89.6404C20.8504 90.0695 21.2951 90.3815 21.81 90.3815C22.0128 90.3815 22.1844 90.2177 22.1844 90.007C22.1844 89.7964 22.0206 89.6326 21.81 89.6326C21.6149 89.6326 21.3575 89.4999 21.1391 89.2035C20.9284 88.907 20.7724 88.478 20.7724 87.9943C20.7724 87.5496 20.8972 87.0659 21.2171 86.5744C21.3341 86.4028 21.2795 86.1687 21.1078 86.0595C20.9362 85.9425 20.7022 85.9971 20.593 86.1687Z" fill="#1D2088"/>
<path d="M49.5397 85.7942C49.8752 86.1921 50.0156 86.6757 50.0156 87.1906C50.0156 87.7055 49.8596 88.2672 49.6256 88.6729C49.3915 89.0864 49.0795 89.3438 48.8844 89.375C48.6816 89.4218 48.5568 89.6247 48.6036 89.8275C48.6504 90.0304 48.8454 90.1552 49.0483 90.1084C49.5788 89.9835 49.9766 89.5623 50.2809 89.0396C50.5773 88.5169 50.7646 87.8616 50.7646 87.1906C50.7646 86.5197 50.5851 85.8644 50.1093 85.3105C49.9766 85.1545 49.7426 85.1311 49.5788 85.2637C49.4227 85.3963 49.4071 85.6304 49.5397 85.7942Z" fill="#1D2088"/>
<path d="M46.3268 86.5744C46.6466 87.0659 46.7714 87.5496 46.7714 87.9942C46.7714 88.4779 46.6154 88.907 46.4048 89.2035C46.1863 89.4999 45.9289 89.6403 45.7338 89.6325C45.5232 89.6325 45.3594 89.8042 45.3594 90.007C45.3594 90.2098 45.5232 90.3815 45.7338 90.3815C46.2487 90.3815 46.6934 90.0694 47.0055 89.6403C47.3175 89.2113 47.5126 88.634 47.5126 87.9942C47.5126 87.4091 47.3487 86.7772 46.9509 86.1687C46.8416 85.9971 46.6076 85.9503 46.436 86.0595C46.2643 86.1687 46.2097 86.4028 46.3268 86.5744Z" fill="#1D2088"/>
<path d="M14.19 62.2807C14.7752 66.6027 16.5461 70.1446 19.7837 72.5864C23.0213 75.0283 27.6787 76.3623 33.9823 76.4013H34.2709C40.4809 76.4013 45.0837 75.1063 48.3057 72.7113C51.5277 70.3162 53.3298 66.8134 53.9617 62.5304C53.9929 62.3276 53.8525 62.1403 53.6497 62.1091C53.4468 62.0779 53.2596 62.2183 53.2284 62.4212C52.6121 66.5637 50.9114 69.8403 47.861 72.1105C44.8184 74.3808 40.3872 75.6524 34.2709 75.6524H33.9901C27.7801 75.6134 23.2943 74.2949 20.2362 71.9857C17.178 69.6765 15.5007 66.3531 14.9312 62.1715C14.9 61.9687 14.7127 61.8283 14.5099 61.8517C14.3071 61.8829 14.1666 62.0701 14.19 62.2729" fill="#1D2088"/>
<path d="M16.444 66.5012C15.1958 67.3282 13.417 68.397 11.5525 68.3814C9.68796 68.3657 8.73618 66.7743 5.66242 67.0239C3.64185 67.1877 1.49646 68.1551 0.731919 69.7544C-0.719146 72.797 2.36242 75.8317 6.38795 73.7721C7.97944 72.9608 9.18086 73.3899 10.5227 74.1934C12.5511 75.4182 16.0929 74.8877 20.1419 71.5565L16.444 66.4934" fill="#B0D7F2"/>
<path d="M7.87675 67.2582C7.15902 67.0163 6.82356 66.9305 5.66894 67.0241C5.29448 67.0553 4.92781 67.1255 4.56114 67.227C3.74979 69.0291 4.10086 71.9624 5.71575 74.0766C5.93419 73.9908 6.16043 73.8894 6.38668 73.7723C7.32285 73.2965 8.12639 73.2497 8.90654 73.4603C7.38526 71.2447 7.03419 68.8809 7.86895 67.2582" fill="#1D2088"/>
<path d="M14.2212 67.7573C13.3865 68.124 12.4815 68.3892 11.5531 68.3814C11.4205 68.3814 11.2879 68.3814 11.1631 68.358C11.007 70.1056 11.6311 73.2339 14.1042 74.685C15.0482 74.5134 16.0936 74.1467 17.1936 73.5616C15.4616 72.2978 14.2992 69.9261 14.2134 67.7573" fill="#1D2088"/>
<path d="M21.9867 35.436C20.403 38.1197 13.7874 49.385 14.3725 60.2914C14.8874 69.9339 20.5434 75.9488 33.9852 76.0346C47.4271 76.1205 53.1612 70.1758 53.8009 60.541C54.5264 49.6424 48.0512 38.2913 46.4987 35.5921L44.4392 28.4928L20.5122 27.8608L21.9867 35.436Z" fill="#B0D7F2"/>
<path d="M34.0595 66.6493C39.2397 66.6805 46.9709 63.9032 46.6276 52.716C46.2765 41.3961 40.5503 34.3514 34.2623 34.3046C27.9744 34.2656 22.1623 41.2401 21.663 52.5521C21.1716 63.7316 28.8716 66.6103 34.0517 66.6493" fill="white"/>
<path d="M15.8135 66.907L15.6185 66.5871C14.4638 67.3049 13.0284 68.007 11.5929 67.9992H11.5617C10.805 67.9992 10.1965 67.6871 9.40852 67.3361C8.62058 66.985 7.6688 66.6183 6.31135 66.6183C6.10071 66.6183 5.87447 66.6183 5.64043 66.6495C4.58724 66.7354 3.50284 67.024 2.56667 67.5155C1.6305 68.007 0.834753 68.6935 0.405674 69.5907C0.132624 70.1602 0 70.7375 0 71.2914C0 72.2588 0.397873 73.1481 1.0766 73.7878C1.75532 74.4276 2.7149 74.8176 3.8227 74.8176C4.66525 74.8176 5.59362 74.5992 6.5532 74.0999C7.1071 73.8191 7.59079 73.702 8.04327 73.702C8.79221 73.702 9.50994 74.0141 10.3291 74.5056C11.039 74.9347 11.905 75.1609 12.888 75.1609C14.8461 75.1609 17.2411 74.2715 19.839 72.2666C19.9248 72.1964 19.9795 72.0871 19.9873 71.9779C19.9873 71.8609 19.9404 71.7595 19.8468 71.6815C18.2007 70.3396 16.9837 68.6935 16.149 66.751C16.1021 66.6495 16.0241 66.5793 15.9227 66.5403C15.8213 66.5091 15.7043 66.5247 15.6107 66.5793L15.8057 66.8992L15.4624 67.0474C16.344 69.0836 17.639 70.8467 19.3787 72.2588L19.6128 71.9701L19.3865 71.6737C16.8745 73.6084 14.6121 74.412 12.888 74.412C12.022 74.412 11.2965 74.2169 10.7114 73.8659C9.8532 73.351 9.00285 72.9531 8.04327 72.9531C7.46596 72.9531 6.85745 73.1013 6.21774 73.429C5.34398 73.8737 4.53263 74.0609 3.8227 74.0609C2.88653 74.0609 2.12199 73.741 1.58369 73.2339C1.04539 72.7269 0.741135 72.0481 0.741135 71.2758C0.741135 70.8389 0.842554 70.3708 1.0688 69.8949C1.40426 69.1928 2.06738 68.5921 2.90213 68.1552C3.73688 67.7183 4.73547 67.4453 5.69504 67.3673C5.90568 67.3517 6.10852 67.3439 6.30355 67.3439C7.52838 67.3439 8.33192 67.6637 9.09646 67.9992C9.8532 68.3346 10.5787 68.7169 11.5539 68.7247H11.5851C13.2624 68.7247 14.8071 67.9368 16.0007 67.1956L15.8057 66.8758" fill="#1D2088"/>
<path d="M46.5085 36.3489C48.3653 39.6177 53.4908 49.2525 53.483 58.817C53.483 59.3866 53.4674 59.9483 53.4284 60.5178C53.1163 65.2376 51.5717 68.9901 48.5213 71.588C45.4631 74.1859 40.8369 75.6603 34.2759 75.6603H33.995C27.3248 75.6213 22.644 74.1078 19.578 71.4632C16.5198 68.8263 15.0142 65.027 14.7567 60.2681C14.7333 59.8156 14.7177 59.3631 14.7177 58.9107C14.7177 49.2369 20.0617 39.4695 21.9886 36.1929C22.0901 36.0135 22.0277 35.7872 21.856 35.6858C21.6766 35.5844 21.4504 35.639 21.3489 35.8184C19.4142 39.1419 13.9922 48.9716 13.9922 58.9185C13.9922 59.3865 14.0078 59.8468 14.0312 60.3149C14.2886 65.1986 15.8645 69.232 19.1177 72.0327C22.3709 74.8334 27.239 76.3703 34.0106 76.4093H34.2993C40.9695 76.4093 45.7908 74.9192 49.0284 72.1653C52.266 69.4114 53.8731 65.4249 54.1929 60.5724C54.2319 59.9873 54.2475 59.41 54.2475 58.8249C54.2475 49.0029 49.044 39.3057 47.1795 35.9901C47.078 35.8106 46.8518 35.7482 46.6724 35.8497C46.4929 35.9511 46.4305 36.1773 46.5319 36.3567" fill="#1D2088"/>
<path d="M22.9343 26.3941C24.3541 33.7899 31.8747 45.9523 41.0414 53.1686L38.5449 54.4949C29.7917 47.6062 22.5364 36.2083 20.6719 28.758C20.6719 28.758 22.9187 26.2849 22.9421 26.3863" fill="#FFF100"/>
<path d="M22.9378 26.3942L22.5711 26.4644C23.2966 30.2403 25.5513 35.1552 28.7732 40.0545C31.9952 44.9538 36.1924 49.8219 40.8109 53.4652L41.0449 53.1687L40.8655 52.841L38.369 54.1673L38.5406 54.4949L38.7747 54.1985C34.4371 50.7815 30.4584 46.241 27.33 41.6226C24.2094 37.0119 21.947 32.3233 21.0264 28.6566L20.6676 28.7502L20.9406 28.9999C20.9406 28.9999 21.4789 28.407 22.0328 27.8141C22.3059 27.5176 22.5867 27.2212 22.7974 27.0027C22.9066 26.8935 22.9924 26.7999 23.0548 26.7453L23.1172 26.6907L22.9924 26.5112L23.0938 26.6985L23.1172 26.6829L22.9924 26.5112L23.0938 26.6985L22.93 26.3942V26.7375C23.0548 26.7375 23.0704 26.7063 23.0938 26.6985L22.93 26.3942V26.7375V26.3708L22.6959 26.6595L22.93 26.7453V26.3786L22.6959 26.6673L22.9222 26.3864L22.6257 26.5892L22.6959 26.6673L22.9222 26.3864L22.6257 26.5892L22.9378 26.3786L23.2498 26.168L23.1718 26.0822L22.9378 25.9963C22.852 25.9963 22.813 26.0197 22.7818 26.0275C22.6881 26.0744 22.6725 26.09 22.6335 26.1212C22.5165 26.2226 22.3371 26.402 22.103 26.6439C21.4243 27.3538 20.3945 28.485 20.3945 28.485C20.3087 28.5786 20.2775 28.7034 20.3087 28.8283C21.2605 32.6197 23.5619 37.3552 26.7215 42.0283C29.8811 46.6935 33.9066 51.2964 38.3144 54.768C38.4314 54.8616 38.5874 54.8772 38.7201 54.807L41.2165 53.4808C41.3257 53.4184 41.4038 53.3091 41.4116 53.1843C41.4194 53.0595 41.3726 52.9347 41.2711 52.8566C36.7229 49.2836 32.5725 44.4623 29.3896 39.6254C26.2066 34.7885 23.991 29.9205 23.2966 26.3006L23.242 26.1602L22.93 26.3708" fill="#1D2088"/>
<path d="M21.301 56.4219C21.1138 55.6339 18.2195 56.0318 14.74 55.5559C14.74 55.5559 14.2564 59.6126 14.545 60.4006C18.04 59.5658 21.5741 57.5609 21.301 56.4219Z" fill="#1D2088"/>
<path d="M22.4979 62.3275C21.8192 61.7346 19.2526 64.2623 15.5469 65.9162C15.5469 65.9162 16.7405 69.2162 18.1604 70.597C21.0625 67.929 23.5043 63.2169 22.4979 62.3275Z" fill="#1D2088"/>
<path d="M21.5543 49.8218C21.2345 50.6956 18.5898 50.6956 15.8125 50.0247L17.0841 45.9133C19.5338 47.9573 21.8118 49.1119 21.5543 49.8218Z" fill="#1D2088"/>
<path d="M46.9055 56.4219C47.0927 55.6339 49.9871 56.0318 53.4665 55.5559C53.4665 55.5559 53.9502 59.6126 53.6615 60.4006C50.1665 59.5658 46.6324 57.5609 46.9055 56.4219Z" fill="#1D2088"/>
<path d="M45.4884 62.3275C46.1671 61.7346 48.7338 64.2623 52.4395 65.9162C52.4395 65.9162 51.2458 69.2162 49.826 70.597C46.9239 67.929 44.482 63.2169 45.4884 62.3275Z" fill="#1D2088"/>
<path d="M46.809 49.8218C47.1288 50.6956 49.7735 50.6956 52.5508 50.0247L51.2792 45.9133C48.8296 47.9573 46.5515 49.1119 46.809 49.8218Z" fill="#1D2088"/>
<path d="M39.4143 52.6694C37.659 52.9892 36.4108 53.1375 36.8086 55.7665C37.3001 58.9729 40.3193 63.6538 46.225 62.5148C52.1541 61.3758 51.9434 55.158 51.7016 53.3637C51.4675 51.6474 50.8746 51.0545 48.815 51.2807C46.7477 51.4992 41.4895 52.2949 39.4143 52.6694Z" fill="#FFF100"/>
<path d="M39.4175 52.6693L39.3473 52.3027C38.5906 52.4431 37.8807 52.5445 37.3033 52.8956C37.0147 53.075 36.7651 53.3246 36.6012 53.6601C36.4374 53.9956 36.3594 54.4012 36.3594 54.8849C36.3594 55.1658 36.3828 55.4778 36.4374 55.8289C36.6714 57.3346 37.4204 59.1289 38.7466 60.5644C40.0651 61.9998 41.9842 63.0764 44.4651 63.0686C45.0424 63.0686 45.6509 63.014 46.2906 62.8892C48.787 62.4133 50.2927 61.0403 51.1275 59.4722C51.9622 57.9041 52.1651 56.1566 52.1651 54.8459C52.1651 54.214 52.1183 53.6835 52.0714 53.3168C51.9622 52.5445 51.7906 51.936 51.3771 51.4913C51.1743 51.2729 50.909 51.109 50.6048 51.0076C50.3005 50.9062 49.9573 50.8672 49.5594 50.8672C49.3175 50.8672 49.0601 50.8828 48.7714 50.914C46.6885 51.1324 41.4381 51.9282 39.3473 52.3027L39.4175 52.6693L39.4799 53.036C41.5395 52.6615 46.8055 51.8658 48.8495 51.6551C49.1147 51.6239 49.3487 51.6161 49.5516 51.6161C49.8948 51.6161 50.1601 51.6551 50.3629 51.7253C50.6672 51.8268 50.8388 51.975 50.9949 52.2324C51.1431 52.4977 51.2601 52.8878 51.3303 53.4261C51.3771 53.7615 51.4239 54.2608 51.4239 54.8537C51.4239 56.0863 51.2289 57.7246 50.4722 59.1289C49.7154 60.5332 48.436 61.719 46.1502 62.1637C45.5573 62.2807 44.9956 62.3275 44.4651 62.3275C42.2026 62.3275 40.5019 61.3679 39.2927 60.0651C38.0835 58.7544 37.3814 57.0849 37.1707 55.7197C37.1239 55.3998 37.1005 55.1268 37.1005 54.8927C37.1005 54.4871 37.1707 54.1984 37.2643 53.9956C37.4126 53.6913 37.6388 53.5275 38.0133 53.3792C38.3877 53.2388 38.8948 53.1452 39.4721 53.0438L39.4097 52.6771" fill="#1D2088"/>
<path d="M51.5509 46.5531C51.9878 47.8794 52.214 48.5659 52.2218 48.6127C52.1828 49.6113 52.0502 50.8595 51.0594 52.7709C50.2559 52.451 48.8984 51.1404 48.8984 51.1404C49.663 50.017 50.2949 47.3177 50.4275 43.5652C50.4275 43.5652 51.1452 45.3049 51.5509 46.5531Z" fill="#FFF100"/>
<path d="M51.5617 46.5529L51.2107 46.67C51.4291 47.3331 51.5929 47.8324 51.71 48.1756C51.7646 48.3473 51.8114 48.4799 51.8348 48.5657L51.866 48.6671V48.6905L52.1312 48.6203L51.866 48.6437V48.6827L52.1312 48.6125L51.866 48.6359L52.2404 48.5969L51.866 48.5813C51.8192 49.5643 51.71 50.7111 50.7426 52.5913L51.078 52.7629L51.2107 52.4196C50.8908 52.3026 50.3525 51.9047 49.9312 51.5459C49.7206 51.3664 49.5256 51.1948 49.3929 51.07C49.2525 50.9451 49.1745 50.8671 49.1745 50.8671L48.917 51.1324L49.2291 51.343C49.6582 50.7111 50.0092 49.7203 50.2823 48.4097C50.5553 47.099 50.7504 45.4685 50.8206 43.5728L50.4461 43.5572L50.1029 43.6976C50.1029 43.6976 50.2823 44.1267 50.5085 44.7196C50.7348 45.3047 51.0156 46.0537 51.2185 46.6622L51.5695 46.5451L51.9206 46.4281C51.4993 45.1643 50.7894 43.4246 50.7894 43.4168C50.7192 43.2529 50.5553 43.1593 50.3759 43.1905C50.2043 43.2217 50.0795 43.37 50.0717 43.5416C50.0092 45.3983 49.8142 46.9898 49.549 48.2459C49.2837 49.5019 48.9404 50.4303 48.605 50.9139C48.5036 51.0622 48.5192 51.265 48.6518 51.3898C48.6518 51.3898 49.0029 51.7253 49.4475 52.1076C49.9 52.482 50.4461 52.9033 50.9298 53.0983C51.1092 53.1686 51.3121 53.0983 51.3979 52.9267C52.4199 50.9686 52.5603 49.6345 52.6071 48.6125V48.5579L52.5915 48.4877C52.5681 48.3941 52.5057 48.2146 52.3965 47.8636C52.2873 47.5203 52.1234 47.0444 51.9206 46.4203L51.5695 46.5373" fill="#1D2088"/>
<path d="M39.3255 51.4054C37.5624 51.7253 36.1191 52.1154 36.6262 54.721C37.1333 57.3345 40.1603 61.0558 46.0894 59.9168C52.0497 58.7778 51.9248 53.8941 51.6752 52.0998C51.4411 50.3912 50.8482 49.7983 48.7731 50.0168C46.6979 50.2352 41.4163 51.031 39.3255 51.4054Z" fill="#FFF100"/>
<path d="M39.3314 51.4056L39.2612 51.039C38.4967 51.1794 37.7555 51.3276 37.1548 51.7177C36.8584 51.9127 36.5931 52.178 36.4215 52.5212C36.2421 52.8645 36.1562 53.278 36.1562 53.7617C36.1562 54.0737 36.1875 54.4092 36.2655 54.7914C36.5073 56.0163 37.2484 57.4361 38.5201 58.5595C39.7995 59.6829 41.6172 60.5021 43.9733 60.5021C44.652 60.5021 45.3853 60.4319 46.1577 60.2836C48.6697 59.8078 50.1988 58.6531 51.0648 57.3191C51.9307 55.9851 52.1336 54.5028 52.1336 53.356C52.1336 52.8411 52.0868 52.3886 52.0478 52.0453C51.9385 51.273 51.7669 50.6567 51.3456 50.212C51.135 49.9936 50.8697 49.8297 50.5655 49.7283C50.2612 49.6269 49.9102 49.5879 49.5201 49.5879C49.2782 49.5879 49.0208 49.6035 48.74 49.6347C46.6414 49.8609 41.3676 50.6489 39.269 51.0234L39.3314 51.39L39.3938 51.7567C41.4612 51.3822 46.7584 50.5943 48.8102 50.3758C49.0676 50.3446 49.3095 50.3368 49.5123 50.3368C49.8556 50.3368 50.1208 50.3758 50.3314 50.4382C50.6357 50.5397 50.8151 50.6879 50.9712 50.9531C51.1272 51.2106 51.2364 51.6085 51.3066 52.1468C51.3456 52.4666 51.3924 52.8801 51.3924 53.356C51.3924 54.417 51.1974 55.751 50.4407 56.9056C49.6839 58.068 48.3733 59.09 46.0173 59.5425C45.2839 59.6829 44.6052 59.7453 43.9733 59.7453C41.7889 59.7453 40.1584 58.9964 39.0116 57.99C37.857 56.9836 37.1938 55.6886 36.991 54.6354C36.9208 54.2921 36.8974 54.0035 36.8974 53.746C36.8974 53.3482 36.9676 53.0673 37.0846 52.8411C37.2563 52.5134 37.5215 52.3028 37.9194 52.1312C38.3172 51.9595 38.8321 51.8503 39.3938 51.7489L39.3314 51.3822" fill="#1D2088"/>
<path d="M51.6748 52.0997C51.5733 51.3352 51.3939 50.7969 51.0428 50.4458C51.2145 54.4557 50.6216 57.5139 45.7613 58.4501C40.8776 59.3862 37.6478 56.7572 36.9691 52.365C36.5634 52.8408 36.3996 53.5586 36.6258 54.721C37.1329 57.3345 40.1599 61.0557 46.0889 59.9167C52.057 58.7777 51.9244 53.894 51.6826 52.0997" fill="white"/>
<path d="M51.6811 52.0997L52.0478 52.0529C51.9385 51.2572 51.7513 50.6331 51.3066 50.1884C51.1974 50.0792 51.0336 50.0558 50.8931 50.1104C50.7527 50.1728 50.6669 50.3132 50.6747 50.4692C50.6903 50.8359 50.6981 51.1948 50.6981 51.5458C50.6981 53.2543 50.4719 54.6898 49.7619 55.782C49.052 56.8664 47.8428 57.67 45.6974 58.0912C45.0577 58.2161 44.4492 58.2707 43.8719 58.2707C42.0463 58.2707 40.5719 57.6856 39.4641 56.6558C38.3641 55.626 37.6229 54.1437 37.3421 52.3104C37.3187 52.17 37.2172 52.0529 37.0768 52.0061C36.9364 51.9671 36.7882 52.0061 36.6945 52.1231C36.3513 52.521 36.1562 53.0749 36.1562 53.7614C36.1562 54.0657 36.1875 54.409 36.2655 54.7912C36.5073 56.0161 37.2484 57.4281 38.5201 58.5593C39.7995 59.6827 41.6172 60.5019 43.9733 60.5019C44.652 60.5019 45.3853 60.4317 46.1577 60.2834C48.6697 59.8075 50.1988 58.6529 51.0648 57.3189C51.9307 55.9848 52.1336 54.5026 52.1336 53.3636C52.1336 52.8487 52.0868 52.3962 52.0478 52.0529L51.6811 52.0997L51.3144 52.1465C51.3534 52.4664 51.4002 52.8877 51.4002 53.3636C51.4002 54.4246 51.2052 55.7586 50.4485 56.9132C49.6917 58.0756 48.3811 59.0976 46.0251 59.5501C45.2917 59.6905 44.613 59.7529 43.9811 59.7529C41.7967 59.7529 40.1662 59.004 39.0194 57.9976C37.8726 56.9912 37.2016 55.6962 36.9988 54.643C36.9286 54.2997 36.9052 54.0111 36.9052 53.7614C36.9052 53.1997 37.0456 52.8565 37.2641 52.6068L36.9832 52.365L36.6165 52.4196C36.9208 54.3856 37.7243 56.0317 38.9648 57.1941C40.2052 58.3565 41.8903 59.0118 43.8797 59.004C44.5038 59.004 45.1591 58.9416 45.8456 58.809C48.1158 58.3799 49.5591 57.4671 50.3938 56.1799C51.2286 54.8926 51.4548 53.3012 51.4548 51.538C51.4548 51.1792 51.447 50.8047 51.4314 50.4302L51.057 50.4458L50.7995 50.7111C51.057 50.9529 51.2286 51.4054 51.3222 52.1465L51.6889 52.0919" fill="#1D2088"/>
<path d="M46.2085 56.4608C46.1929 56.9679 45.7794 57.3658 45.2723 57.3502C44.7652 57.3345 44.3751 56.9133 44.3829 56.414C44.3985 55.9069 44.8198 55.509 45.3191 55.5246C45.8262 55.5246 46.2241 55.9615 46.2085 56.4608Z" fill="white"/>
<path d="M46.2159 56.4608H45.9896C45.9818 56.8274 45.6776 57.1239 45.2797 57.1239C44.913 57.1161 44.6166 56.804 44.6166 56.4374H44.4293L44.6088 56.4998V56.4374H44.4293L44.6088 56.4998L44.6244 56.4296C44.64 56.0551 44.9364 55.7664 45.3343 55.7586C45.701 55.7586 45.9974 56.0707 45.9974 56.4452V56.5076L46.2315 56.4686L46.4577 56.4296L46.2939 56.4608H46.4577V56.4296L46.2939 56.4608H46.4577V56.4452C46.4577 55.8288 45.9662 55.3218 45.3421 55.3062C44.7024 55.3062 44.1953 55.7976 44.1797 56.4218H44.4059L44.1875 56.3515L44.1719 56.4296V56.4452C44.1719 57.0615 44.6634 57.5764 45.2875 57.592C45.9194 57.592 46.4343 57.1005 46.4499 56.4764V56.4296L46.2237 56.4686" fill="#1D2088"/>
<path d="M40.0151 54.7758L40.0853 55.2829C40.1009 55.3843 40.0307 55.4701 39.9214 55.4857C39.8122 55.5013 39.7186 55.4389 39.703 55.3375L39.4768 53.7304C39.469 53.629 39.5314 53.5432 39.6406 53.5276C39.7498 53.512 39.8356 53.5744 39.8512 53.6758L39.9058 54.0581L40.491 53.9722L40.4441 53.6212C40.3817 53.1843 40.0229 52.9191 39.5626 52.9815C39.1101 53.0439 38.8371 53.4027 38.8995 53.8396L39.1257 55.4389C39.1881 55.8758 39.547 56.141 39.9995 56.0786C40.4597 56.0162 40.725 55.6574 40.6626 55.2205L40.5924 54.7134L40.0073 54.7914" fill="#1D2088"/>
<path d="M44.9121 55.1814L45.5284 55.0955L45.1149 52.2246L44.5688 52.3026L44.7872 53.8083L44.1241 52.365L43.5078 52.4509L43.9213 55.3218L44.4674 55.2438L44.2489 53.7381L44.9121 55.1814Z" fill="#1D2088"/>
<path d="M43.5689 55.3765L43.1554 52.4978L42.5703 52.5836L42.9838 55.4545L43.5689 55.3765Z" fill="#1D2088"/>
<path d="M41.6547 52.7162L41.8108 53.8318L41.3349 53.8942L41.1789 52.7864L40.5938 52.8644L40.9994 55.7431L41.5845 55.6573L41.4207 54.5027L41.8966 54.4325L42.0604 55.5871L42.6455 55.5091L42.2321 52.6304L41.6547 52.7162Z" fill="#1D2088"/>
<path d="M46.7245 51.9905L45.2656 52.2011L45.3514 52.7706L45.8117 52.7004L46.1394 55.0096L46.7245 54.9238L46.3968 52.6146L46.8025 52.56L46.7245 51.9905Z" fill="#1D2088"/>
<path d="M41.6555 52.7161L41.5853 52.2324L41.1016 52.3026L41.1796 52.7863L41.6555 52.7161Z" fill="#1D2088"/>
<path d="M47.2023 51.9283L47.1321 51.4446L46.6484 51.5148L46.7187 51.9907L47.2023 51.9283Z" fill="#1D2088"/>
<path d="M42.2728 52.2168L42.304 51.7331L41.8203 51.6941L41.7891 52.1856L42.2728 52.2168Z" fill="#1D2088"/>
<path d="M43.1631 52.1544L42.773 51.8657L42.4844 52.2558L42.8744 52.5444L43.1631 52.1544Z" fill="#1D2088"/>
<path d="M47.2023 51.9283L47.1321 51.4446L46.6484 51.5148L46.7187 51.9907L47.2023 51.9283Z" fill="#1D2088"/>
<path d="M47.929 51.3586L47.9602 50.875L47.4765 50.8438L47.4453 51.3274L47.929 51.3586Z" fill="#1D2088"/>
<path d="M48.9912 51.3197L48.6012 51.031L48.3125 51.4211L48.6948 51.7097L48.9912 51.3197Z" fill="#1D2088"/>
<path d="M48.4122 51.7487L48.8023 54.448L47.9207 51.8189L47.203 51.9203L47.0859 54.8692L47.6788 54.7834L47.7023 54.2217L48.0923 54.1671L48.2718 54.7054L49.4108 54.5416L48.9973 51.6707L48.4122 51.7565M47.671 52.6692L47.9441 53.5976L47.671 53.6366V52.6692Z" fill="#1D2088"/>
<path d="M49.7732 54.2531L49.6874 54.2063H49.6172L49.6406 54.4247H49.6796L49.664 54.3311H49.6874L49.7498 54.4091H49.7966L49.7264 54.3233L49.7654 54.2609M49.664 54.2999V54.2453H49.6874L49.7342 54.2687L49.6952 54.2999H49.664Z" fill="#1D2088"/>
<path d="M49.6816 54.1281C49.5802 54.1437 49.51 54.2374 49.5256 54.3388C49.5412 54.4402 49.6348 54.5104 49.7362 54.4948C49.8377 54.4792 49.9079 54.3856 49.8923 54.2842C49.8767 54.1828 49.7831 54.1125 49.6816 54.1281ZM49.7284 54.4714C49.6426 54.487 49.5646 54.4246 49.549 54.3388C49.5334 54.253 49.5958 54.175 49.6816 54.1594C49.7674 54.1438 49.8455 54.2062 49.8611 54.292C49.8767 54.3778 49.8143 54.4558 49.7284 54.4714Z" fill="#1D2088"/>
<path d="M17.5505 8.84865C17.9094 8.22454 18.8144 7.23376 20.3435 5.94652C21.8647 4.65929 22.9959 3.93375 23.6669 3.68411C23.5498 3.0912 23.308 2.51389 22.9101 1.9834C21.3732 -0.0761791 18.4945 -0.79391 16.2555 1.10184C14.0087 2.99758 14.2349 5.95432 16.0137 7.81106C16.4739 8.28695 16.9966 8.62241 17.5583 8.84085" fill="#1D2088"/>
<path d="M18.6984 6.73456C18.8544 6.46151 19.2523 6.02463 19.9232 5.45513C20.5941 4.88562 21.0934 4.56576 21.3899 4.45654C21.3353 4.1991 21.2338 3.94165 21.0544 3.70761C20.3835 2.80264 19.1431 2.45938 18.1289 3.31754C17.1069 4.17569 17.2395 5.45513 18.0197 6.27428C18.2225 6.48491 18.4565 6.63314 18.7062 6.72676" fill="white"/>
<path d="M51.0773 8.84865C50.7184 8.22454 49.8134 7.23376 48.2922 5.94652C46.7709 4.65929 45.6475 3.93375 44.9688 3.68411C45.0858 3.0912 45.3354 2.51389 45.7333 1.9834C47.2702 -0.0761791 50.1411 -0.79391 52.3879 1.10184C54.6347 2.99758 54.4085 5.95432 52.6297 7.81106C52.1695 8.28695 51.6468 8.62241 51.0851 8.84085" fill="#1D2088"/>
<path d="M49.9415 6.73456C49.7855 6.46151 49.3876 6.02463 48.7167 5.45513C48.0457 4.88562 47.5543 4.56576 47.25 4.45654C47.3046 4.1991 47.4138 3.94165 47.5855 3.70761C48.2564 2.80264 49.4968 2.45938 50.511 3.31754C51.5252 4.17569 51.4004 5.45513 50.6202 6.27428C50.4174 6.48491 50.1833 6.63314 49.9415 6.72676" fill="white"/>
<path d="M34.3206 31.9408C45.5469 31.9408 54.4639 26.6592 54.2221 17.0557C53.988 8.01384 46.015 0.906738 34.3206 0.906738C22.6263 0.906738 14.6532 8.01384 14.4192 17.0557C14.1695 26.6592 23.0866 31.9408 34.3206 31.9408Z" fill="#B0D7F2"/>
<path d="M27.5694 12.8196C27.5694 14.4423 26.1964 15.7607 24.5113 15.7607C22.8262 15.7607 21.4531 14.4423 21.4531 12.8196C21.4531 11.1969 22.8262 9.87842 24.5113 9.87842C26.1964 9.87842 27.5694 11.1969 27.5694 12.8196Z" fill="white"/>
<path d="M27.5845 12.8195H27.2101C27.2101 13.5216 26.9136 14.1614 26.4299 14.6294C25.9462 15.0975 25.2753 15.3862 24.5264 15.3862C23.7774 15.3862 23.1065 15.0975 22.6228 14.6294C22.1391 14.1614 21.8427 13.5294 21.8427 12.8195C21.8427 12.1096 22.1391 11.4777 22.6228 11.0096C23.1065 10.5415 23.7774 10.2528 24.5264 10.2528C25.2753 10.2528 25.9462 10.5415 26.4299 11.0096C26.9136 11.4777 27.2101 12.1096 27.2101 12.8195H27.959C27.959 11.8989 27.5689 11.0642 26.9448 10.4713C26.3207 9.87057 25.4625 9.50391 24.5264 9.50391C23.5902 9.50391 22.7242 9.87057 22.1001 10.4713C21.476 11.072 21.0859 11.8989 21.0859 12.8195C21.0859 13.7401 21.476 14.5748 22.1001 15.1677C22.7242 15.7685 23.5824 16.1351 24.5264 16.1351C25.4703 16.1351 26.3285 15.7685 26.9448 15.1677C27.5689 14.567 27.959 13.7401 27.959 12.8195H27.5845Z" fill="#1D2088"/>
<path d="M26.2607 12.8197C26.2607 13.748 25.4805 14.497 24.521 14.497C23.5614 14.497 22.7812 13.748 22.7812 12.8197C22.7812 11.8913 23.5614 11.1501 24.521 11.1501C25.4805 11.1501 26.2607 11.8991 26.2607 12.8197Z" fill="#1D2088"/>
<path d="M41.0703 12.8196C41.0703 14.4423 42.4434 15.7607 44.1285 15.7607C45.8136 15.7607 47.1866 14.4423 47.1866 12.8196C47.1866 11.1969 45.8214 9.87842 44.1285 9.87842C42.4356 9.87842 41.0703 11.1969 41.0703 12.8196Z" fill="white"/>
<path d="M41.062 12.8195H40.6875C40.6875 13.7401 41.0776 14.5748 41.7017 15.1677C42.3258 15.7685 43.184 16.1351 44.1201 16.1351C45.0563 16.1351 45.9223 15.7685 46.5386 15.1677C47.1627 14.567 47.5528 13.7401 47.5528 12.8195C47.5528 11.8989 47.1627 11.0642 46.5386 10.4713C45.9145 9.87057 45.0563 9.50391 44.1201 9.50391C43.184 9.50391 42.318 9.87057 41.7017 10.4713C41.0776 11.072 40.6875 11.8989 40.6875 12.8195H41.4364C41.4364 12.1174 41.7329 11.4777 42.2166 11.0096C42.7003 10.5415 43.3712 10.2528 44.1201 10.2528C44.8691 10.2528 45.54 10.5415 46.0237 11.0096C46.5074 11.4777 46.8038 12.1096 46.8038 12.8195C46.8038 13.5294 46.5074 14.1614 46.0237 14.6294C45.54 15.0975 44.8691 15.3862 44.1201 15.3862C43.3712 15.3862 42.7081 15.0975 42.2166 14.6294C41.7329 14.1614 41.4364 13.5294 41.4364 12.8195H41.062Z" fill="#1D2088"/>
<path d="M42.375 12.8197C42.375 13.748 43.1551 14.497 44.1147 14.497C45.0743 14.497 45.8544 13.748 45.8544 12.8197C45.8544 11.8913 45.0743 11.1501 44.1147 11.1501C43.1551 11.1501 42.375 11.8991 42.375 12.8197Z" fill="#1D2088"/>
<path d="M34.3125 4.83887C31.9175 4.83887 30.2246 5.44738 30.4976 6.0949C30.7629 6.75022 32.0735 6.32894 34.3125 6.32894C36.5515 6.32894 37.8622 6.75022 38.1274 6.0949C38.3927 5.44738 36.6998 4.83887 34.3125 4.83887Z" fill="#1D2088"/>
<path d="M34.3153 2.30322C31.4132 2.30322 29.3614 2.96634 29.6813 3.67627C30.0011 4.3862 31.5926 3.92592 34.3153 3.92592C37.038 3.92592 38.6217 4.394 38.9494 3.67627C39.277 2.96634 37.2175 2.30322 34.3153 2.30322Z" fill="#1D2088"/>
<path d="M34.3075 0.875732C33.0983 0.875732 31.9281 0.953747 30.8125 1.09417C31.616 4.5502 33.0437 7.98283 34.3075 7.98283C35.5714 7.98283 36.999 4.5502 37.8026 1.09417C36.687 0.953747 35.5246 0.875732 34.3075 0.875732Z" fill="#1D2088"/>
<path d="M38.0441 23.4997C37.6775 26.0352 36.359 28.6955 34.3228 28.6955C32.2867 28.6955 30.9682 26.0352 30.6016 23.4997L34.3228 22.6025L38.0441 23.4997Z" fill="#EF90B9"/>
<path d="M38.0483 23.4999L37.6739 23.4453C37.4944 24.6701 37.0888 25.9262 36.4959 26.8467C36.1994 27.307 35.8639 27.6815 35.4973 27.9311C35.1306 28.1808 34.7483 28.3212 34.3193 28.3212C33.8902 28.3212 33.5079 28.1886 33.1413 27.9311C32.5952 27.5567 32.1115 26.8935 31.737 26.0978C31.3625 25.302 31.0973 24.3659 30.9647 23.4453L30.5902 23.4999L30.676 23.8666L34.3115 22.985L37.9469 23.8666L38.0327 23.4999L38.1186 23.1332L34.3973 22.2361H34.2178L30.4966 23.1332C30.3093 23.1801 30.1845 23.3595 30.2157 23.5545C30.4108 24.8652 30.8398 26.207 31.503 27.2524C31.8384 27.7751 32.2363 28.2276 32.7044 28.5474C33.1725 28.8751 33.7186 29.0701 34.3115 29.0701C34.9044 29.0701 35.4505 28.8751 35.9186 28.5474C36.6207 28.0559 37.1668 27.2914 37.5725 26.4176C37.9859 25.5361 38.2668 24.5375 38.4072 23.5545C38.4306 23.3595 38.3136 23.1801 38.1264 23.1332L38.0405 23.4999" fill="#1D2088"/>
<path d="M34.3438 20.2388C37.0509 20.2388 37.5658 17.9686 41.4665 17.9218C46.436 17.8594 47.3799 25.0913 41.7863 25.7232C38.6033 26.0821 37.6516 24.0771 34.3126 24.0771C30.9735 24.0771 30.0218 26.0821 26.8388 25.7232C21.2452 25.0913 22.1891 17.8594 27.1586 17.9218C31.0594 17.9686 31.6367 20.2388 34.3438 20.2388Z" fill="white"/>
<path d="M34.3506 20.2388V20.6133C35.0761 20.6133 35.6768 20.4573 36.2073 20.231C36.9953 19.88 37.6194 19.3963 38.3917 19.014C39.1563 18.6318 40.069 18.3197 41.4811 18.2963H41.5435C42.7449 18.2963 43.6499 18.7488 44.274 19.4197C44.8981 20.0906 45.2336 20.9956 45.2336 21.8927C45.2336 22.6963 44.9683 23.4842 44.4066 24.1084C43.8449 24.7325 42.9946 25.2084 41.7541 25.3488C41.5045 25.38 41.2704 25.3878 41.052 25.3878C39.8272 25.3878 38.9846 24.9977 38.0016 24.5764C37.0265 24.1552 35.9187 23.7027 34.3194 23.7027C32.7201 23.7027 31.6123 24.1552 30.6371 24.5764C29.6541 24.9977 28.8116 25.3878 27.5867 25.3878C27.3683 25.3878 27.1343 25.3722 26.8846 25.3488C25.6442 25.2084 24.786 24.7325 24.2321 24.1084C23.6704 23.4842 23.4052 22.6963 23.4052 21.8927C23.4052 20.9956 23.7406 20.0906 24.3648 19.4197C24.9889 18.7488 25.9016 18.2963 27.0952 18.2963H27.1577C29.0378 18.3275 30.052 18.858 31.0116 19.4197C31.4875 19.7005 31.9477 19.997 32.4782 20.2232C33.0087 20.4495 33.6172 20.6055 34.3428 20.6055V19.8566C33.7187 19.8566 33.235 19.7318 32.7747 19.5289C32.0882 19.2325 31.4484 18.7566 30.5981 18.3353C29.7477 17.9062 28.6789 17.563 27.1655 17.5396H27.0952C25.6988 17.5396 24.5754 18.0857 23.8108 18.9048C23.0463 19.724 22.6484 20.8083 22.6484 21.8927C22.6484 22.8601 22.9761 23.8353 23.6626 24.6076C24.3491 25.38 25.4023 25.9339 26.791 26.0899C27.064 26.1211 27.3293 26.1367 27.5789 26.1367C28.9676 26.1367 29.9662 25.6764 30.9257 25.263C31.9009 24.8417 32.8527 24.4516 34.3116 24.4516C35.7704 24.4516 36.7222 24.8417 37.6896 25.263C38.657 25.6764 39.6477 26.1367 41.0364 26.1367C41.286 26.1367 41.5435 26.1211 41.8243 26.0899C43.213 25.9339 44.2662 25.38 44.9527 24.6076C45.6392 23.8353 45.9669 22.8601 45.9669 21.8927C45.9669 20.8083 45.5612 19.724 44.8045 18.9048C44.0477 18.0857 42.9165 17.5396 41.5201 17.5396H41.4499C39.4293 17.563 38.2201 18.1871 37.2527 18.7722C36.769 19.0608 36.3399 19.3417 35.8875 19.5367C35.435 19.7318 34.9591 19.8566 34.335 19.8566V20.231" fill="#1D2088"/>
<path d="M37.452 18.4209V18.1947C37.335 16.2209 36.0946 13.6387 34.3237 13.6387C32.5527 13.6387 31.3045 16.2209 31.1875 18.1947V18.4209C32.1315 18.0933 33.0988 18.0309 34.3237 18.0309C35.5485 18.0309 36.5081 18.0933 37.4598 18.4209" fill="#B0D7F2"/>
<path d="M34.3161 18.0542C33.1537 18.0542 32.2331 18.1088 31.3359 18.4209C31.3437 19.7783 32.2019 21.0187 34.3161 21.0187C36.4303 21.0187 37.2806 19.7783 37.2962 18.4209C36.3991 18.1088 35.4785 18.0542 34.3161 18.0542Z" fill="#1D2088"/>
<path d="M37.3035 18.2104L37.678 18.187C37.6156 17.1806 37.2801 16.0572 36.7262 15.1444C36.4454 14.6919 36.1099 14.2862 35.712 13.9898C35.3142 13.6933 34.8383 13.5061 34.3312 13.5061C33.8241 13.5061 33.3404 13.6933 32.9425 13.9898C32.3418 14.4345 31.8815 15.1132 31.5539 15.8621C31.2262 16.6111 31.0234 17.4302 30.9766 18.187V18.4288C30.9766 19.1855 31.2262 19.9423 31.7879 20.504C32.3496 21.0657 33.2078 21.4089 34.3312 21.4011C35.4546 21.4011 36.3127 21.0657 36.8744 20.504C37.4361 19.9423 37.678 19.1855 37.6858 18.4366V18.1948L37.3113 18.2182H36.9369V18.4366C36.9369 19.0373 36.7418 19.5834 36.3439 19.9813C35.9461 20.3792 35.3142 20.66 34.3312 20.66C33.3482 20.66 32.7163 20.3792 32.3184 19.9813C31.9205 19.5834 31.7333 19.0373 31.7255 18.4366V18.2338L31.351 18.2182L31.7255 18.2416C31.7723 17.3756 32.0844 16.338 32.5681 15.5501C32.8099 15.16 33.0907 14.8323 33.3872 14.6061C33.6915 14.3877 33.9957 14.2706 34.3234 14.2706C34.651 14.2706 34.9631 14.3877 35.2595 14.6061C35.712 14.9338 36.1177 15.5111 36.4064 16.1742C36.7028 16.8373 36.8822 17.5863 36.9212 18.2338L37.2957 18.2104" fill="#1D2088"/>
<path d="M25.3062 21.6274H21.2338C21.0232 21.6274 20.8594 21.7991 20.8594 22.0019C20.8594 22.2047 21.031 22.3764 21.2338 22.3764H25.3062C25.5168 22.3764 25.6807 22.2047 25.6807 22.0019C25.6807 21.7991 25.509 21.6274 25.3062 21.6274Z" fill="#1D2088"/>
<path d="M25.5321 23.4373L21.7094 24.826C21.5144 24.8962 21.413 25.1146 21.4832 25.3096C21.5534 25.5047 21.7719 25.6061 21.9669 25.5359L25.7896 24.1472C25.9846 24.077 26.086 23.8586 26.0158 23.6635C25.9456 23.4685 25.7272 23.3671 25.5321 23.4373Z" fill="#1D2088"/>
<path d="M25.7896 19.8643L21.9669 18.4756C21.7719 18.4054 21.5534 18.5068 21.4832 18.7019C21.413 18.8969 21.5144 19.1153 21.7094 19.1856L25.5321 20.5742C25.7272 20.6444 25.9456 20.543 26.0158 20.348C26.086 20.1529 25.9846 19.9345 25.7896 19.8643Z" fill="#1D2088"/>
<path d="M43.3276 22.3764H47.3999C47.6028 22.3764 47.7744 22.2047 47.7744 22.0019C47.7744 21.7991 47.6028 21.6274 47.3999 21.6274H43.3276C43.117 21.6274 42.9531 21.7991 42.9531 22.0019C42.9531 22.2047 43.1248 22.3764 43.3276 22.3764Z" fill="#1D2088"/>
<path d="M42.8423 24.1394L46.665 25.5281C46.86 25.5983 47.0784 25.4969 47.1486 25.3018C47.2189 25.1068 47.1174 24.8884 46.9224 24.8181L43.0997 23.4295C42.9047 23.3593 42.6862 23.4607 42.616 23.6557C42.5458 23.8508 42.6472 24.0692 42.8423 24.1394Z" fill="#1D2088"/>
<path d="M43.0997 20.5664L46.9224 19.1777C47.1174 19.1075 47.2189 18.8891 47.1486 18.6941C47.0784 18.499 46.86 18.3976 46.665 18.4678L42.8423 19.8565C42.6472 19.9267 42.5458 20.1451 42.616 20.3402C42.6862 20.5352 42.9047 20.6366 43.0997 20.5664Z" fill="#1D2088"/>
<path d="M34.315 31.9408V32.3152C39.9086 32.3152 44.9561 31.0202 48.6306 28.5081C52.3051 26.0039 54.5987 22.2358 54.5909 17.4379V17.0556C54.4739 12.4216 52.3675 8.27124 48.8022 5.3067C45.2448 2.33436 40.2362 0.532227 34.315 0.532227C28.3937 0.532227 23.3852 2.33436 19.8277 5.3067C16.2625 8.27904 14.1561 12.4216 14.0391 17.0478V17.4379C14.0391 22.2358 16.3249 26.0039 19.9994 28.5081C23.6738 31.0202 28.7213 32.3152 34.3228 32.3152V31.5663C28.8384 31.5663 23.9313 30.2869 20.4284 27.8918C16.9256 25.489 14.8036 22.0017 14.7958 17.4457V17.0712C14.9128 12.6556 16.9022 8.73152 20.3114 5.884C23.7206 3.03648 28.5497 1.28896 34.315 1.28896C40.0802 1.28896 44.9093 3.04429 48.3185 5.884C51.7277 8.73152 53.7249 12.6634 53.8341 17.0712V17.4457C53.8341 22.0017 51.7043 25.489 48.2015 27.8918C44.6909 30.2947 39.7916 31.5663 34.3072 31.5663V31.9408" fill="#1D2088"/>
<path d="M14.5699 18.655C18.0962 18.1869 20.1245 17.2585 20.1245 16.4004C20.1245 15.5422 15.6621 14.3564 14.6713 13.7947C14.6713 13.7947 14.0784 17.0167 14.5699 18.655Z" fill="#1D2088"/>
<path d="M17.8876 26.3006C19.2138 25.2474 20.3216 23.9368 20.0408 23.5311C19.4791 22.7276 17.794 23.0318 15.7578 23.1645C15.7578 23.1645 16.4131 24.8496 17.8798 26.3006" fill="#1D2088"/>
<path d="M54.0937 18.616C50.5674 18.1479 48.5312 17.2585 48.5312 16.4004C48.5312 15.5422 53.0015 14.3564 53.9922 13.7947C53.9922 13.7947 54.5852 16.9777 54.0937 18.616Z" fill="#1D2088"/>
<path d="M50.619 26.3006C49.2927 25.2474 48.1849 23.9368 48.4658 23.5311C49.0275 22.7276 50.7126 23.0318 52.7488 23.1645C52.7488 23.1645 52.0934 24.8496 50.6268 26.3006" fill="#1D2088"/>
<path d="M18.0914 43.8224C16.968 43.2295 14.4013 42.1919 12.5914 41.8408C11.9672 43.2295 11.4055 44.6181 10.9062 45.9678C12.5133 46.3032 15.7743 47.3486 16.5077 47.8323C17.085 46.4047 18.0836 43.8224 18.0836 43.8224" fill="#1D2088"/>
<path d="M24.8582 52.0921C24.4604 51.975 24.2341 51.5616 24.3511 51.1637L24.9831 49.0105L26.4185 49.4318L25.7866 51.585C25.6696 51.9828 25.2561 52.2091 24.8582 52.0921Z" fill="#3A4F5C"/>
<path d="M34.5472 35.0847C33.8451 37.4564 31.3564 38.8138 28.977 38.1195C26.6053 37.4173 25.2401 34.9287 25.9422 32.5571C26.6444 30.1854 29.133 28.8202 31.5046 29.5223C33.8763 30.2244 35.2415 32.7131 34.5394 35.0847" fill="#576773"/>
<path d="M32.0182 30.4509C29.6465 29.7488 27.1501 31.1062 26.4557 33.4856C26.1593 34.492 26.2373 35.514 26.5962 36.419C27.1579 37.2147 27.977 37.831 28.9834 38.1275C31.3628 38.8296 33.8515 37.4722 34.5536 35.0927C34.8501 34.0864 34.7721 33.0644 34.4132 32.1594C33.8515 31.3637 33.0323 30.7473 32.026 30.4509" fill="#3A4F5C"/>
<path d="M31.2713 39.5787L31.3727 39.2198L26.3564 37.7375L26.255 38.0964L24.2422 48.2617L25.7011 49.229L27.4564 49.2134L31.2713 39.5787Z" fill="#A9B7DE"/>
<path d="M30.9853 40.273L31.2661 39.5787L31.3675 39.2198L26.3512 37.7375L26.2498 38.0964L26.1016 38.8375L30.9853 40.273Z" fill="#93A4D3"/>
<path d="M24.9609 48.4721L26.0999 49.2211H27.4652L31.2801 39.5785L31.3815 39.2196L27.0829 37.948L26.9815 38.3069L24.9609 48.4721Z" fill="#8190BB"/>
<path d="M26.9642 50.4461L27.4557 49.2057L24.2415 48.2617L23.9841 49.5724C23.9061 49.9546 24.1323 50.3213 24.5068 50.4383L26.0671 50.8986C26.4415 51.0078 26.8316 50.8128 26.972 50.4539" fill="#FBFCFE"/>
<path d="M26.9653 50.4459L27.4568 49.2055L24.9603 48.4722L24.7028 49.7828C24.6248 50.1651 24.8511 50.5317 25.2255 50.641L26.0681 50.8906C26.4426 50.9998 26.8326 50.8048 26.9731 50.4459" fill="#EFF3FA"/>
<path d="M26.2801 38.1041L31.2418 39.5629C31.6397 39.68 32.0532 39.4537 32.1702 39.0558L32.5915 37.6204L26.1943 35.7402L25.773 37.1757C25.656 37.5736 25.8822 37.987 26.2801 38.1041Z" fill="#FBFCFE"/>
<path d="M32.1712 39.0637L32.5925 37.6282L26.913 35.9587L26.4918 37.3942C26.3747 37.7921 26.601 38.2055 26.9989 38.3226L31.2428 39.5708C31.6407 39.6878 32.0542 39.4616 32.1712 39.0637Z" fill="#EFF3FA"/>
<path d="M34.3564 35.319C34.2706 35.3658 34.1692 35.3814 34.0755 35.3502L26.1259 33.0019C25.9308 32.9395 25.8138 32.7367 25.8762 32.5417C25.9386 32.3466 26.1415 32.2296 26.3365 32.292L34.2862 34.6402C34.4812 34.7026 34.5982 34.9055 34.5358 35.1005C34.5046 35.2019 34.4422 35.28 34.3564 35.3268" fill="#FBFCFE"/>
<path d="M34.5486 35.0927C34.6032 34.8977 34.494 34.687 34.299 34.6324L26.3493 32.2842C26.1543 32.2218 25.9436 32.3388 25.889 32.5338C25.8344 32.7289 25.9436 32.9395 26.1387 32.9941L34.0883 35.3423C34.1898 35.3736 34.2912 35.358 34.3692 35.3111C34.455 35.2643 34.5174 35.1863 34.5486 35.0849" fill="#EFF3FA"/>
<path d="M27.413 40.7722L26.9918 42.2077C26.8747 42.6056 27.101 43.019 27.4989 43.1361C27.8967 43.2531 28.3102 43.0268 28.4272 42.629L28.8485 41.1935L27.413 40.7722Z" fill="#3A4F5C"/>
<path d="M27.9207 41.7007C27.5229 41.5836 27.2966 41.1702 27.4136 40.7723C27.5307 40.3744 27.9441 40.1482 28.342 40.2652C28.7399 40.3822 28.9661 40.7957 28.8491 41.1936C28.7321 41.5914 28.3186 41.8177 27.9207 41.7007Z" fill="#EFF3FA"/>
<path d="M34.625 34.882L34.9683 34.96L34.9839 34.882C35.0385 34.6558 35.0697 34.4139 35.0853 34.1799V34.1409L34.7342 34.1253L35.0853 34.1487C35.0853 34.0395 35.0931 33.9302 35.0931 33.821C35.0931 31.7302 33.7279 29.8033 31.6215 29.187C31.169 29.0544 30.7087 28.9919 30.2562 28.9919C28.2357 28.9919 26.3789 30.2636 25.6924 32.2373L26.0279 32.3544L25.8094 32.0813C25.7002 32.1671 25.6066 32.2997 25.5598 32.448L25.8952 32.5494L25.5598 32.4402C25.5364 32.5104 25.5286 32.5806 25.5286 32.6508C25.5286 32.7288 25.5442 32.8146 25.5754 32.8927L25.903 32.7678L25.5598 32.682C25.4661 33.0643 25.4193 33.4466 25.4193 33.8288C25.4193 34.5622 25.5832 35.2721 25.8952 35.9118L26.2151 35.7558L25.8796 35.6544L25.4583 37.082C25.4271 37.1834 25.4115 37.2849 25.4115 37.3941C25.4115 37.8544 25.708 38.2834 26.1605 38.4395L26.2697 38.104L25.9654 37.9324L25.9342 37.987L23.9059 48.2381L23.6562 49.5097C23.6406 49.5799 23.6328 49.6501 23.6328 49.7203C23.6328 50.1962 23.9449 50.6331 24.4208 50.7735L24.4832 50.7891L24.5846 50.4537L24.2491 50.3522L24.0385 51.07C24.0073 51.1714 23.9917 51.2728 23.9917 51.382C23.9917 51.8579 24.3037 52.2948 24.7796 52.4352C24.881 52.4664 24.9903 52.482 25.0917 52.482C25.5676 52.482 26.0044 52.17 26.1449 51.6941L26.1761 51.5849L26.3555 50.9764L26.0201 50.8749L25.9186 51.2104L25.981 51.226C26.0825 51.2572 26.1917 51.2728 26.2931 51.2728C26.73 51.2728 27.1435 51.0076 27.3151 50.5785L27.83 49.2757L31.3406 40.4054L31.6215 39.7111L31.6449 39.6487V39.5785H31.2938L31.2314 39.9295L31.3562 39.9529H31.481C31.5591 39.9529 31.6371 39.9529 31.7073 39.9295H31.7229C31.9257 39.8827 32.0974 39.7813 32.2456 39.6409L32.2612 39.6253C32.386 39.5005 32.4874 39.3444 32.5342 39.1572L32.9555 37.7295L32.6201 37.6281L32.8073 37.9324C33.7591 37.3473 34.5158 36.4189 34.8825 35.2721L34.547 35.1629L34.8747 35.2955L34.9059 35.2175L34.9215 35.1785L34.9371 35.0693L34.9683 34.9522V34.9132V34.9366L34.625 34.8586L34.2818 34.7728L34.2428 34.9054V34.9288L34.2272 34.9756L34.2115 35.0146V35.0458C33.8917 36.0288 33.252 36.8168 32.4328 37.3161L32.3158 37.3863L31.8555 38.9466L31.7541 39.1104L32.0037 39.36L31.7697 39.1026L31.7307 39.1338L31.6527 39.1806L31.6293 39.1962L31.5201 39.2274L31.6293 39.5629L31.5591 39.2196H31.442L31.4108 39.5785L31.4732 39.2274L31.3484 39.204L30.9349 39.1338V39.4849L30.6853 40.1168L27.1201 49.1196L26.652 50.2976C26.5896 50.4537 26.4413 50.5473 26.2853 50.5473L26.1761 50.5317L26.1137 50.5161L25.7782 50.4147L25.4661 51.4679C25.4115 51.6395 25.2555 51.7487 25.0839 51.7487L24.9747 51.7331C24.7952 51.6785 24.6938 51.5225 24.6938 51.3586L24.7094 51.2494L24.92 50.5317L25.0215 50.1962L24.6236 50.0792C24.452 50.0324 24.3427 49.8686 24.3427 49.7047V49.6267L24.608 48.2849V48.2537H24.2569L24.6002 48.3239L26.613 38.1586L26.2697 38.0884L26.574 38.26L26.7846 37.8856L26.3789 37.7529C26.2151 37.6983 26.1059 37.5423 26.1059 37.3785L26.1215 37.2693L26.5818 35.709L26.5271 35.5841C26.2619 35.038 26.1215 34.4295 26.1215 33.8054C26.1215 33.4856 26.1605 33.1579 26.2385 32.8302L26.2619 32.721L26.2229 32.6196H26.2073L26.2853 32.5494L26.3165 32.448C26.9016 30.7551 28.4931 29.6707 30.2172 29.6707C30.5995 29.6707 30.9974 29.7253 31.3874 29.8423C33.1818 30.3728 34.352 32.0189 34.352 33.7976C34.352 33.8912 34.352 33.9849 34.3442 34.0785V34.1019L34.3286 34.2267L34.6796 34.2579L34.3286 34.2189V34.2969L34.6718 34.3359L34.3208 34.2891L34.3052 34.3983L34.6562 34.4451L34.3052 34.3905L34.2896 34.4919L34.6406 34.5466L34.2896 34.4841L34.274 34.5778L34.625 34.6402L34.2818 34.57L34.2506 34.7026L34.235 34.7728L34.5782 34.8508" fill="#1D2088"/>
<path d="M20.6731 28.7659C18.6447 29.8581 15.3994 33.3999 13.6752 36.2396C12.9887 37.3708 9.29084 42.0361 11.0462 45.9446C14.0809 51.7333 18.005 49.6659 24.566 49.385C27.3355 48.956 28.6618 49.2368 30.4483 47.856C30.5497 47.2474 31.2441 44.0957 30.4639 42.9177C30.1128 42.1375 30.6589 41.0219 29.5511 40.6396C27.8894 39.1184 27.8348 39.6411 25.7674 39.9609C24.6831 40.1325 23.6689 40.2964 23.232 40.3588" fill="#B0D7F2"/>
<path d="M28.4931 39.9218C27.7832 39.6175 27.1435 39.5005 26.535 39.5005C25.5676 39.5005 24.6782 39.7657 23.4456 39.953C23.3598 39.9686 23.2974 39.9764 23.2584 39.9842H23.2116C23.1569 39.9998 23.1101 40.0154 23.0633 40.0388L22.9853 40.1012C22.9853 40.1012 22.8839 40.2104 22.8839 40.3586H23.2584V39.9842C23.1569 39.9842 23.0633 40.0232 22.9931 40.0934C22.9229 40.1636 22.8839 40.2572 22.8839 40.3586C22.8839 40.4601 22.9229 40.5537 22.9931 40.6239C23.0633 40.6941 23.1569 40.7331 23.2584 40.7331H23.2974L23.4066 40.7175C23.4846 40.7097 23.5938 40.6863 23.6796 40.6785L23.7967 40.6629H23.8279L23.7889 40.304V40.6629H23.8279L23.7889 40.304V40.6629V40.2884L23.7577 40.6629H23.7811V40.2884L23.703 40.6551H23.7577L23.7889 40.2884L23.6562 40.6395L23.703 40.6551L23.7889 40.2884L23.5392 40.5693L23.6562 40.6395L23.7889 40.2884L23.4378 40.4133C23.469 40.4913 23.508 40.5381 23.5392 40.5615L23.7889 40.2806L23.4378 40.148C23.4066 40.226 23.4066 40.3352 23.4378 40.4133L23.7889 40.2884L23.6094 39.9608C23.6094 39.9608 23.508 40.0076 23.4378 40.1558L23.7889 40.2884L23.7108 39.9218L23.6094 39.9608L23.7889 40.2884L23.7655 39.914H23.7108L23.7889 40.2884V39.914H23.7655L23.7889 40.2884V39.914C23.586 39.914 23.4222 40.0856 23.4222 40.2884H23.7967L23.5158 40.0388C23.5158 40.0388 23.4222 40.1558 23.4222 40.2884H23.7967L23.6328 39.953C23.6328 39.953 23.586 39.9686 23.5158 40.0388L23.7967 40.2884L23.703 39.9296L23.6328 39.953L23.7967 40.2884L23.703 39.9296L23.625 39.9452C23.5704 39.9452 23.5002 39.9686 23.352 39.9998C22.8683 40.109 21.7761 40.3586 20.7931 40.5849C20.3016 40.7019 19.8335 40.8033 19.4903 40.8813C19.3186 40.9203 19.1704 40.9516 19.069 40.975L18.9442 41.0062H18.913L18.9754 41.3806L19.1938 41.6849L18.9988 41.4118L19.1314 41.7239L19.1938 41.6927L18.9988 41.4196L19.1314 41.7317L19.0612 41.5679L19.1158 41.7317H19.1236L19.0534 41.5679L19.108 41.7317C19.108 41.7317 19.2172 41.7005 19.3498 41.6693C19.8179 41.5523 20.7931 41.3416 21.6591 41.1466C22.0881 41.053 22.5016 40.9594 22.8059 40.8891C22.9619 40.8579 23.0867 40.8189 23.1803 40.7955L23.3052 40.7643L23.3598 40.7487C23.3598 40.7487 23.391 40.7487 23.4612 40.6941C23.625 40.5771 23.6718 40.343 23.547 40.1714C23.43 39.9998 23.1959 39.9608 23.0321 40.0856L23.2194 40.3586L23.0867 40.0544L23.0243 40.0856L23.2194 40.3586L23.0867 40.0544L23.1569 40.2182L23.1023 40.0544H23.0945L23.1647 40.2182L23.1101 40.0544C23.1101 40.0544 23.0009 40.0856 22.8683 40.1168C22.4002 40.2338 21.425 40.4445 20.5591 40.6395C20.1222 40.7331 19.7165 40.8267 19.4123 40.8969C19.2562 40.9359 19.1314 40.9672 19.0378 40.9906L18.913 41.0218L18.8584 41.0374C18.8584 41.0374 18.8272 41.0452 18.7569 41.092C18.6165 41.1934 18.5619 41.3806 18.6321 41.5367C18.7023 41.6927 18.8662 41.7863 19.0378 41.7629L19.1236 41.7473C19.4201 41.6849 20.5357 41.4274 21.6045 41.1778C22.135 41.053 22.6576 40.936 23.0555 40.8501C23.2584 40.8033 23.4222 40.7643 23.547 40.7409L23.6952 40.7097H23.742V40.6941L23.8357 40.6785C23.8981 40.6707 23.9449 40.6551 23.9995 40.6161L24.0775 40.5537C24.0775 40.5537 24.1711 40.4367 24.1711 40.304H23.7967V40.6785H23.8747L23.9605 40.6473C23.9605 40.6473 24.0463 40.6161 24.1243 40.4913C24.1633 40.4289 24.1867 40.3274 24.1633 40.2416C24.1477 40.1558 24.1009 40.0934 24.0697 40.0544L23.9371 39.9686L23.8591 39.9452H23.7499C23.7499 39.9452 23.5938 39.9686 23.4612 39.992L23.2896 40.0154H23.2194L23.2584 40.3118L23.2272 40.0232L23.2662 40.3118L23.235 40.0232L23.274 40.3899V40.0154H23.235L23.274 40.3899V40.0154C23.1725 40.0154 23.0789 40.0544 23.0087 40.1246C22.9385 40.1948 22.8995 40.2884 22.8995 40.3899C22.8995 40.4913 22.9385 40.5849 23.0087 40.6551C23.0789 40.7253 23.1725 40.7643 23.274 40.7643C23.3676 40.7643 23.4612 40.7331 23.5314 40.6629C23.6016 40.5927 23.6406 40.4991 23.6406 40.3977H23.2662L23.5392 40.6551C23.5392 40.6551 23.6406 40.5459 23.6406 40.3977H23.2662L23.4222 40.7331C23.4222 40.7331 23.469 40.7175 23.5392 40.6473L23.2662 40.3899L23.352 40.7565L23.4222 40.7331L23.2662 40.3977L23.352 40.7643L23.274 40.4133L23.3364 40.7643H23.352L23.274 40.4133L23.3364 40.7643C23.3364 40.7643 23.4144 40.7487 23.5782 40.7253C24.8577 40.5225 25.7392 40.2806 26.5584 40.2806C27.0811 40.2806 27.596 40.3742 28.2279 40.6395C28.4151 40.7175 28.6335 40.6395 28.7194 40.4445C28.8052 40.2494 28.7194 40.0388 28.5243 39.953" fill="#1D2088"/>
<path d="M20.5012 28.4302C20.3139 28.5316 20.0643 28.7189 19.7054 29.0075C18.4728 30.0139 16.1402 32.2061 14.104 34.8976C12.0678 37.5813 10.3125 40.7487 10.3047 43.7522C10.3047 44.5402 10.4295 45.3203 10.7104 46.0692C11.3657 47.8168 12.216 48.9636 13.2692 49.6657C14.3302 50.3678 15.555 50.5941 16.9125 50.5863C19.0813 50.5863 21.6246 50.0168 24.5969 49.7515H24.6203C25.9699 49.5409 26.9529 49.5877 27.8969 49.4707C28.8409 49.3536 29.7302 49.0182 30.7054 48.0898C30.8536 47.9494 30.8614 47.7153 30.721 47.5671C30.5806 47.4189 30.3465 47.4111 30.1983 47.5515C29.309 48.3863 28.6536 48.6203 27.8111 48.7295C26.9685 48.8387 25.9387 48.7919 24.5189 49.0104L24.5735 49.377L24.5423 49.0026C21.5231 49.2834 18.9721 49.8373 16.9281 49.8373C15.6487 49.8373 14.5877 49.6267 13.6905 49.0338C12.8011 48.4409 12.0366 47.4579 11.4125 45.7962C11.1628 45.1409 11.0536 44.4543 11.0536 43.7366C11.0458 40.6394 13.2224 37.0664 15.5706 34.2345C16.7409 32.8146 17.9501 31.582 18.9253 30.6692C19.4168 30.2167 19.8458 29.8423 20.1813 29.5692C20.5168 29.2962 20.7742 29.1167 20.8522 29.0777C21.0316 28.9841 21.1097 28.7579 21.016 28.5784C20.9224 28.399 20.6962 28.321 20.5168 28.4146" fill="#1D2088"/>
<path d="M17.1102 50.2663C15.2067 48.4096 16.9698 42.4337 18.7797 41.6068C20.0202 41.4585 19.0372 41.3337 20.1372 41.3103C20.0202 43.4791 20.7379 48.4096 21.362 49.767L17.1102 50.2585" fill="#1D2088"/>
<path d="M11.3042 40.4912C13.1297 40.0075 19.1524 39.3912 19.7609 41.0295C18.7545 41.9111 20.0652 40.8657 19.0042 41.6848C18.2942 40.1792 11.6864 46.5373 12.2949 47.6841C8.87792 43.0501 11.3042 40.4912 11.3042 40.4912Z" fill="#1D2088"/>
<path d="M21.3315 37.1055C20.3641 36.2551 16.3385 34.8353 14.6222 34.5388C13.9357 35.6934 13.2804 36.8714 12.6719 38.0651C14.2868 38.4863 18.7024 39.9608 19.3967 40.6161C20.2003 39.0168 21.3315 37.1055 21.3315 37.1055Z" fill="#1D2088"/>
<path d="M27.4527 49.5488H27.4995C27.6633 49.5488 28.2406 49.5332 28.8803 49.3616C29.5122 49.1822 30.2456 48.8311 30.6434 48.0978C30.8307 47.7467 30.8931 47.4269 30.8931 47.146C30.8931 46.5843 30.6356 46.2488 30.6044 46.2176L30.347 46.4283L30.5186 46.7169C30.5186 46.7169 30.7059 46.5999 30.8619 46.3815C31.0179 46.163 31.1661 45.8198 31.1739 45.3595V45.2659C31.1739 44.4935 30.9633 43.963 30.7293 43.6276C30.4952 43.2921 30.2612 43.1595 30.2222 43.1439L30.0661 43.4403L30.152 43.7602C30.152 43.7602 30.3704 43.6978 30.542 43.5105C30.7137 43.3233 30.8619 43.0035 30.8619 42.5666V42.3793C30.7839 41.3573 30.2222 40.7332 29.7073 40.4056C29.1846 40.0779 28.7087 40.0077 28.6853 40.0077C28.4981 39.9843 28.3342 40.1091 28.303 40.2886C28.2796 40.468 28.4044 40.6396 28.5917 40.6708C28.6619 40.6864 29.052 40.7644 29.4186 41.0219C29.7853 41.2871 30.1285 41.685 30.191 42.4339V42.5744C30.191 42.8786 30.1129 43.0035 30.0505 43.0659L29.9803 43.1205H29.9647L30.0115 43.2531L29.9725 43.1283H29.9569L30.0037 43.2531L29.9647 43.1283C29.8321 43.1673 29.7385 43.2765 29.7229 43.4169C29.7073 43.5496 29.7775 43.6822 29.9023 43.7524L29.9647 43.6354L29.9023 43.7446C29.9023 43.7446 30.0583 43.8382 30.2066 44.0644C30.3548 44.2985 30.503 44.6652 30.503 45.2737V45.3595C30.4952 45.6871 30.4016 45.8822 30.3158 46.007L30.2066 46.1318L30.1754 46.1552L30.2846 46.3269L30.1832 46.1552L30.2924 46.3269L30.191 46.1552C30.1051 46.202 30.0505 46.2879 30.0271 46.3815C30.0115 46.4751 30.0271 46.5765 30.0973 46.6545L30.2456 46.5375L30.0895 46.6545L30.2378 46.5375L30.0817 46.6545C30.0817 46.6545 30.1207 46.7013 30.152 46.7949C30.191 46.8886 30.2222 47.0134 30.2222 47.1772C30.2222 47.341 30.1832 47.5595 30.0505 47.8169C29.7931 48.3084 29.2548 48.5971 28.7009 48.7453C28.1548 48.9013 27.6321 48.9091 27.4995 48.9091H27.4683C27.281 48.9091 27.1328 49.0496 27.125 49.2368C27.125 49.424 27.2654 49.5723 27.4527 49.5801" fill="#1D2088"/>
<path d="M30.2749 43.2064C29.9862 43.2376 29.7054 43.2532 29.4323 43.2532C29.0344 43.2532 28.66 43.222 28.2933 43.1674C28.1139 43.1362 27.9344 43.261 27.911 43.4482C27.8798 43.6277 28.0046 43.7993 28.1919 43.8305C28.5898 43.8929 29.0032 43.9241 29.4323 43.9241C29.7288 43.9241 30.033 43.9085 30.3451 43.8773C30.5323 43.8617 30.6649 43.6979 30.6415 43.5106C30.6259 43.3234 30.4621 43.1908 30.2749 43.2142" fill="#1D2088"/>
<path d="M29.9389 45.9679C29.6503 45.9991 29.3694 46.0147 29.0964 46.0147C28.6985 46.0147 28.324 45.9835 27.9574 45.9289C27.7701 45.8976 27.5985 46.0225 27.5751 46.2097C27.5439 46.3891 27.6687 46.5608 27.8559 46.592C28.2538 46.6544 28.6673 46.6856 29.0964 46.6856C29.3928 46.6856 29.6971 46.67 30.0091 46.6388C30.1964 46.6232 30.329 46.4515 30.3056 46.2721C30.29 46.0849 30.1184 45.9523 29.9389 45.9757" fill="#1D2088"/>
<path d="M19.181 41.5837C20.2888 39.2043 21.3498 37.3163 22.0051 36.1929C22.1065 36.0135 22.0519 35.7872 21.8725 35.6858C21.6931 35.5844 21.4668 35.639 21.3654 35.8184C20.7023 36.9575 19.6257 38.861 18.5101 41.2638C18.4243 41.4511 18.5101 41.6695 18.6895 41.7631C18.8767 41.8489 19.0952 41.7631 19.1888 41.5837" fill="#1D2088"/>
</svg>
