<svg width="100" height="49" viewBox="0 0 100 49" fill="none" xmlns="http://www.w3.org/2000/svg">
<mask id="mask0_2551_31562" style="mask-type:luminance" maskUnits="userSpaceOnUse" x="0" y="0" width="100" height="49">
<path d="M100 0H0V48.724H100V0Z" fill="white"/>
</mask>
<g mask="url(#mask0_2551_31562)">
<mask id="mask1_2551_31562" style="mask-type:luminance" maskUnits="userSpaceOnUse" x="-18" y="-388" width="470" height="664">
<path d="M451.284 -387.973H-17.3672V275.228H451.284V-387.973Z" fill="white"/>
</mask>
<g mask="url(#mask1_2551_31562)">
<path d="M20.7529 12.8308C19.3508 11.35 19.1146 9.05009 20.9498 7.50629C22.7771 5.9625 25.014 6.56898 26.227 8.20729C26.4318 8.48297 26.5815 8.76652 26.6917 9.06582C27.8968 8.25455 29.1807 7.50628 30.5276 6.8289C30.2913 6.23029 29.9684 5.64744 29.5588 5.09609C26.7941 1.37838 21.6114 0.0866196 17.5708 3.50502C13.5222 6.91554 13.9318 12.2401 17.1297 15.5954C17.6101 16.0995 18.1379 16.5013 18.6971 16.8399C19.5399 15.6427 20.4851 14.5006 21.5169 13.4215C21.2491 13.264 20.9892 13.075 20.7607 12.8308" fill="#1D2088"/>
<path d="M20.9531 7.50619C19.1179 9.04998 19.3542 11.3578 20.7562 12.8307C20.9846 13.0749 21.2445 13.2639 21.5123 13.4214C22.3 12.6023 23.1349 11.8146 24.0249 11.0742C24.8677 10.3732 25.7578 9.70372 26.6951 9.0736C26.5848 8.7743 26.4351 8.48287 26.2303 8.21507C25.0095 6.57676 22.7804 5.96238 20.9531 7.51405" fill="white"/>
<path d="M74.0076 8.20729C75.2285 6.56898 77.4575 5.95462 79.2848 7.50629C81.1201 9.05009 80.8838 11.3579 79.4739 12.8308C79.2455 13.0671 78.9934 13.2561 78.7335 13.4137C79.7653 14.4927 80.7105 15.6348 81.5533 16.8321C82.1046 16.4934 82.6245 16.0917 83.1049 15.5954C86.3028 12.2401 86.7045 6.92342 82.6639 3.50502C78.6153 0.0866195 73.4405 1.37838 70.6758 5.09609C70.2663 5.64744 69.9433 6.23031 69.707 6.82104C71.0539 7.49842 72.3378 8.24669 73.5429 9.05796C73.6532 8.76653 73.7949 8.47509 73.9997 8.20729" fill="#1D2088"/>
<path d="M79.2849 7.50626C77.4575 5.96247 75.2285 6.56895 74.0076 8.20726C73.8028 8.47506 73.6611 8.7665 73.5508 9.05793C74.4881 9.68805 75.386 10.3575 76.2288 11.0664C77.1188 11.8068 77.9459 12.5945 78.7335 13.4136C79.0013 13.2561 79.2455 13.0749 79.4739 12.8308C80.8838 11.35 81.1201 9.05006 79.2849 7.50626Z" fill="white"/>
<path d="M30.1345 37.0591L27.4013 36.0667C27.0469 35.9406 26.8657 35.5547 26.9917 35.2003C27.1178 34.8458 27.5116 34.6647 27.8582 34.7907L30.9221 35.9013C31.0088 35.7989 31.0954 35.6886 31.1899 35.5862C32.5604 34.1054 34.5926 33.1209 37.1052 33.1209H37.2312C39.9643 33.1524 41.8941 33.7825 43.43 34.5465C43.6584 34.6568 43.8711 34.7749 44.0837 34.8931V34.7198H44.0759V34.5623C44.0759 34.4678 44.0759 34.3654 44.0759 34.263C44.1546 32.9003 44.517 31.4274 45.1156 30.0805C45.7142 28.7337 46.5412 27.5128 47.6203 26.7094C48.3371 26.1738 49.1877 25.8351 50.1171 25.8351C51.0466 25.8351 51.8972 26.1738 52.614 26.7094C53.3386 27.245 53.9372 27.9696 54.4413 28.7888C55.4417 30.4271 56.0481 32.4514 56.1584 34.263V34.2787C56.1584 34.3732 56.1584 34.4756 56.1584 34.5859V34.9088C57.7731 33.9952 59.8289 33.1445 62.9952 33.113H63.1212C65.6338 33.113 67.666 34.0975 69.0365 35.5704C69.131 35.6728 69.2177 35.7831 69.3043 35.8855L72.3761 34.7671C72.7306 34.641 73.1165 34.8222 73.2425 35.1766C73.3686 35.5311 73.1874 35.917 72.8408 36.0431L70.0998 37.0355C70.6275 37.9649 70.9505 38.981 71.0765 40.0286H84.2381C84.7658 38.3981 85.0967 36.6653 85.2384 34.8222C79.465 33.9558 76.149 32.4671 76.149 31.0021C76.149 29.7025 81.8122 28.0011 84.632 26.9063C83.8443 23.4721 82.395 20.2664 80.3393 17.4072H80.3235L80.229 17.2655C79.7958 16.6669 79.3311 16.0919 78.8506 15.5248C77.9921 14.5954 76.8185 13.4769 75.2983 12.193C74.0066 11.0982 72.8802 10.2396 71.9114 9.58588C71.1238 9.08966 70.3046 8.62496 69.4618 8.19175L69.3122 8.12875V8.11298C65.4999 6.16749 61.1049 4.80486 56.2372 4.18262C56.0718 4.85212 55.8906 5.52163 55.7016 6.18325C57.7022 6.64797 58.797 7.35685 58.4662 8.09724C58.1039 8.87701 56.8909 8.86912 54.8903 8.75098C54.6698 9.38897 54.4335 10.0112 54.1972 10.5941C56.1742 11.0115 57.3084 11.7283 57.0012 12.4766C56.6546 13.3272 55.3078 13.1618 53.0629 13.0043C52.102 14.7607 51.0859 15.8713 50.125 15.8713C49.1641 15.8713 48.148 14.7607 47.1871 13.0043C44.9344 13.1618 43.5954 13.3272 43.2488 12.4766C42.9416 11.7283 44.0759 11.0115 46.0529 10.5941C45.8166 10.0112 45.5803 9.38897 45.3597 8.75098C43.3591 8.877 42.1461 8.88489 41.7838 8.09724C41.4451 7.35685 42.5478 6.64797 44.5406 6.18325C44.3515 5.52951 44.1704 4.86 44.005 4.1905C39.1294 4.81274 34.7343 6.17538 30.9221 8.12875L30.8906 8.14449C29.8982 8.65647 28.9372 9.20783 28.0236 9.79856C27.1256 10.4287 26.0938 11.2163 24.9281 12.2009C23.5261 13.3902 22.4155 14.4378 21.5727 15.32C20.9899 15.9816 20.4464 16.6669 19.9423 17.3679L19.9108 17.4151C17.8708 20.2585 16.4294 23.4406 15.6338 26.859C18.4142 27.9539 24.2428 29.6788 24.2428 31.0021C24.2428 32.4671 20.8796 34.0424 15.0273 34.9088C15.1691 36.7126 15.4999 38.4218 16.0198 40.0207H29.1578C29.2838 38.9731 29.6067 37.957 30.1345 37.0276M63.4127 20.3767C64.5311 19.2976 66.0749 18.636 67.7762 18.636C69.4776 18.636 71.0214 19.2976 72.1398 20.3767C73.2583 21.4479 73.9593 22.9523 73.9593 24.6064C73.9593 26.2604 73.2583 27.7648 72.1398 28.836C71.0214 29.9151 69.4776 30.5768 67.7762 30.5768C66.0749 30.5768 64.5311 29.9151 63.4127 28.836C62.2942 27.7648 61.5932 26.2604 61.5932 24.6064C61.5932 22.9523 62.2942 21.4479 63.4127 20.3767ZM28.0945 20.3767C29.2129 19.2976 30.7567 18.636 32.458 18.636C34.1594 18.636 35.7032 19.2976 36.8216 20.3767C37.9401 21.4479 38.649 22.9523 38.649 24.6143C38.649 26.2762 37.948 27.7727 36.8216 28.8439C35.7032 29.923 34.1594 30.5847 32.458 30.5847C30.7567 30.5847 29.2129 29.923 28.0945 28.8439C26.976 27.7648 26.2671 26.2683 26.2671 24.6143C26.2671 22.9602 26.9681 21.4558 28.0945 20.3767Z" fill="#B0D7F2"/>
<path d="M54.8027 34.5067V34.4122C53.3928 34.0656 51.9042 33.9868 50.1162 33.9868C48.3282 33.9868 46.8396 34.0656 45.4297 34.4122V34.5067C46.8396 34.1207 48.3204 34.0498 50.1162 34.0498C51.912 34.0498 53.3928 34.1286 54.8027 34.5067Z" fill="#B0D7F2"/>
<path d="M19.9456 17.3989L19.9141 17.4462H19.9219L19.9456 17.3989Z" fill="#B0D7F2"/>
<path d="M24.9296 12.2246C26.0953 11.24 27.1193 10.4524 28.0251 9.82227C26.9224 10.5312 25.8669 11.2952 24.8902 12.1143C23.6851 13.1225 22.5824 14.2016 21.5742 15.3516C22.4091 14.4615 23.5197 13.4139 24.9296 12.2325" fill="#B0D7F2"/>
<path d="M30.9143 8.15234L30.8906 8.16809L30.9221 8.15234H30.9143Z" fill="#B0D7F2"/>
<path d="M80.3407 17.4386L80.2305 17.2969L80.325 17.4465L80.3407 17.4386Z" fill="#B0D7F2"/>
<path d="M69.4621 8.21493L69.3204 8.14404L69.3125 8.15193L69.4621 8.21493Z" fill="#B0D7F2"/>
<path d="M78.8533 15.5561C77.8057 14.3274 76.64 13.1696 75.364 12.1062C74.2928 11.2083 73.1349 10.3813 71.9141 9.60938C72.875 10.271 74.0092 11.1295 75.301 12.2165C76.8211 13.5004 77.9947 14.6188 78.8533 15.5483" fill="#B0D7F2"/>
<path d="M32.4572 19.9902C31.1103 19.9902 29.9052 20.5101 29.0309 21.3529C28.1566 22.1956 27.6289 23.3377 27.6289 24.6137C27.6289 25.8897 28.1566 27.0318 29.0309 27.8746C29.9052 28.7174 31.1103 29.2372 32.4572 29.2372C33.7962 29.2372 35.0092 28.7095 35.8835 27.8746C36.7578 27.0318 37.2855 25.8897 37.2855 24.6137C37.2855 23.3377 36.7499 22.1956 35.8756 21.3529C35.0013 20.5101 33.7883 19.9902 32.4493 19.9902M32.4572 27.6226C30.7244 27.6226 29.3224 26.2757 29.3224 24.6059C29.3224 22.936 30.7244 21.5891 32.4572 21.5891C34.19 21.5891 35.592 22.936 35.592 24.6059C35.592 26.2757 34.19 27.6226 32.4572 27.6226Z" fill="white"/>
<path d="M32.4604 30.5844C34.1617 30.5844 35.7055 29.9228 36.824 28.8437C37.9503 27.7646 38.6513 26.2681 38.6513 24.614H37.9739C37.9739 27.5362 35.5007 29.907 32.4683 29.907C29.4358 29.907 26.9626 27.5362 26.9626 24.614C26.9626 21.6918 29.4358 19.3132 32.4683 19.3132C35.5007 19.3132 37.9739 21.684 37.9739 24.614H38.6513C38.6513 22.96 37.9503 21.4555 36.8318 20.3765C35.7134 19.2974 34.1617 18.6357 32.4683 18.6357C30.7748 18.6357 29.2232 19.2974 28.1047 20.3765C26.9862 21.4477 26.2773 22.9521 26.2773 24.614C26.2773 26.276 26.9784 27.7725 28.1047 28.8437C29.2232 29.9228 30.7669 30.5844 32.4683 30.5844" fill="#1D2088"/>
<path d="M32.4588 19.313C29.4185 19.313 26.9531 21.6838 26.9531 24.6139C26.9531 27.5439 29.4263 29.9068 32.4588 29.9068C35.4912 29.9068 37.9645 27.536 37.9645 24.6139H37.2871C37.2871 25.882 36.7515 27.032 35.8851 27.8747C35.0108 28.7175 33.7978 29.2374 32.4588 29.2374C31.1119 29.2374 29.9068 28.7096 29.0325 27.8747C28.1582 27.032 27.6305 25.8898 27.6305 24.6139C27.6305 23.3379 28.1582 22.1958 29.0325 21.353C29.9068 20.5102 31.1119 19.9904 32.4588 19.9904C33.7978 19.9904 35.0108 20.5102 35.8851 21.353C36.7594 22.1958 37.295 23.3379 37.295 24.6139H37.9723C37.9723 21.6917 35.4991 19.313 32.4667 19.313" fill="#1D2088"/>
<path d="M32.4591 21.5972C30.7262 21.5972 29.3242 22.9441 29.3242 24.6139C29.3242 26.2837 30.7262 27.6306 32.4591 27.6306C34.1919 27.6306 35.5939 26.2837 35.5939 24.6139C35.5939 22.9441 34.1919 21.5972 32.4591 21.5972Z" fill="#1D2088"/>
<path d="M67.7775 29.2299C69.1244 29.2299 70.3295 28.7022 71.2038 27.8673C72.0781 27.0245 72.6058 25.8824 72.6058 24.6064C72.6058 23.3304 72.0702 22.1883 71.2038 21.3455C70.3295 20.5027 69.1244 19.9829 67.7775 19.9829C66.4306 19.9829 65.2255 20.5027 64.3512 21.3455C63.4769 22.1883 62.9492 23.3304 62.9492 24.6064C62.9492 25.8824 63.4769 27.0245 64.3512 27.8673C65.2255 28.7101 66.4306 29.2299 67.7775 29.2299ZM67.7775 21.5976C69.5103 21.5976 70.9124 22.9445 70.9124 24.6143C70.9124 26.2841 69.5103 27.631 67.7775 27.631C66.0447 27.631 64.6348 26.2841 64.6348 24.6143C64.6348 22.9445 66.0447 21.5976 67.7775 21.5976Z" fill="white"/>
<path d="M67.7768 30.5844C69.4781 30.5844 71.0219 29.9227 72.1404 28.8436C73.2588 27.7645 73.9598 26.268 73.9598 24.614C73.9598 22.9599 73.2588 21.4555 72.1404 20.3843C71.0219 19.3052 69.4702 18.6436 67.7768 18.6436C66.0834 18.6436 64.5317 19.3052 63.4132 20.3843C62.2948 21.4555 61.5938 22.9599 61.5938 24.614H62.2711C62.2711 21.6918 64.7365 19.3131 67.7768 19.3131C70.8171 19.3131 73.2825 21.6839 73.2825 24.614C73.2825 27.544 70.8171 29.9069 67.7768 29.9069C64.7365 29.9069 62.2711 27.5361 62.2711 24.614H61.5938C61.5938 26.268 62.2948 27.7724 63.4132 28.8436C64.5317 29.9227 66.0755 30.5844 67.7768 30.5844Z" fill="#1D2088"/>
<path d="M67.7752 29.9068C70.8155 29.9068 73.2809 27.536 73.2809 24.6139C73.2809 21.6917 70.8155 19.313 67.7752 19.313C64.7349 19.313 62.2695 21.6838 62.2695 24.6139H62.9469C62.9469 23.3457 63.4746 22.1958 64.3489 21.353C65.2232 20.5102 66.4283 19.9904 67.7752 19.9904C69.1221 19.9904 70.3272 20.5102 71.2015 21.353C72.0758 22.1958 72.6035 23.3379 72.6035 24.6139C72.6035 25.8898 72.0679 27.032 71.2015 27.8747C70.3272 28.7175 69.1221 29.2374 67.7752 29.2374C66.4283 29.2374 65.2232 28.7096 64.3489 27.8747C63.4746 27.032 62.9469 25.8898 62.9469 24.6139H62.2695C62.2695 27.536 64.7349 29.9068 67.7752 29.9068Z" fill="#1D2088"/>
<path d="M67.7755 27.6233C69.5084 27.6233 70.9104 26.2764 70.9104 24.6066C70.9104 22.9367 69.5084 21.5898 67.7755 21.5898C66.0427 21.5898 64.6328 22.9367 64.6328 24.6066C64.6328 26.2764 66.0427 27.6233 67.7755 27.6233Z" fill="#1D2088"/>
<path d="M57.0047 12.5002C57.3118 11.7519 56.1776 11.0351 54.2006 10.6177C53.8383 11.5077 53.4524 12.319 53.0664 13.0279C55.3112 13.1854 56.6581 13.3508 57.0047 12.5002Z" fill="#1D2088"/>
<path d="M43.2413 12.5002C43.5878 13.3508 44.9268 13.1854 47.1795 13.0279C46.7857 12.319 46.4076 11.5077 46.0453 10.6177C44.0683 11.0351 42.9341 11.7519 43.2413 12.5002Z" fill="#1D2088"/>
<path d="M41.7679 8.12053C42.1223 8.9003 43.3353 8.89241 45.3438 8.77426C45.0524 7.94723 44.7846 7.08871 44.5325 6.20654C42.5319 6.67126 41.4371 7.38014 41.7758 8.12053" fill="#1D2088"/>
<path d="M58.4666 8.12053C58.8052 7.38014 57.7025 6.67126 55.7019 6.20654C55.4499 7.08871 55.1742 7.94723 54.8906 8.77426C56.8913 8.90029 58.1042 8.90818 58.4666 8.12053Z" fill="#1D2088"/>
<path d="M50.1161 5.65553C52.3215 5.65553 54.2513 5.8682 55.7006 6.20689C55.8896 5.55314 56.0708 4.88363 56.2362 4.20625C54.2749 3.95421 52.2349 3.82031 50.124 3.82031C48.0131 3.82031 45.9652 3.95421 43.9961 4.20625C44.1615 4.87576 44.3427 5.54526 44.5317 6.19901C45.9888 5.86032 47.9186 5.64764 50.1161 5.64764" fill="#1D2088"/>
<path d="M47.1797 13.0278C48.1406 14.7843 49.1567 15.8949 50.1176 15.8949C51.0786 15.8949 52.0946 14.7843 53.0556 13.0278C52.2049 12.9648 51.2282 12.9097 50.1176 12.9097C49.007 12.9097 48.0303 12.9648 47.1797 13.0278Z" fill="#1D2088"/>
<path d="M45.3439 8.77411C45.5644 9.4121 45.8007 10.0343 46.037 10.6172C47.1633 10.3809 48.5496 10.2313 50.1092 10.2313C51.6687 10.2313 53.0628 10.373 54.1813 10.6172C54.4255 10.0343 54.6539 9.4121 54.8744 8.77411C53.5984 8.69534 52.0074 8.56934 50.1013 8.56934C48.1952 8.56934 46.6041 8.69534 45.3281 8.77411" fill="#1D2088"/>
<path d="M46.0391 10.6179C46.4014 11.5079 46.7874 12.3192 47.1733 13.0281C48.024 12.9651 49.0007 12.9099 50.1113 12.9099C51.2219 12.9099 52.1985 12.9651 53.0492 13.0281C53.443 12.3192 53.8211 11.5079 54.1834 10.6179C53.0571 10.3816 51.6708 10.2319 50.1113 10.2319C48.5517 10.2319 47.1576 10.3737 46.0312 10.6179" fill="#1D2088"/>
<path d="M44.5312 6.20664C44.7833 7.08881 45.059 7.94733 45.3425 8.77436C46.6185 8.69559 48.2096 8.56959 50.1157 8.56959C52.0218 8.56959 53.6129 8.69559 54.8888 8.77436C55.1803 7.94733 55.4481 7.08881 55.7001 6.20664C54.243 5.86795 52.3132 5.65527 50.1157 5.65527C47.9181 5.65527 45.9805 5.86795 44.5312 6.20664Z" fill="#1D2088"/>
<path d="M63.0118 34.4829C60.4677 34.5144 58.8215 35.0737 57.4431 35.7668C56.8681 36.0582 56.3325 36.3733 55.8048 36.6962C55.5685 37.3342 55.2062 37.9328 54.6942 38.4369C53.7569 39.3821 52.3391 39.9728 50.5039 40.0437H69.6989C69.5729 39.1615 69.2736 38.2952 68.801 37.5233L65.934 38.563C65.5795 38.689 65.1936 38.5078 65.0676 38.1613C64.9415 37.8068 65.1227 37.4208 65.4693 37.2948L67.9267 36.4048C66.8004 35.2548 65.2093 34.4908 63.1142 34.4829H63.0118Z" fill="white"/>
<path d="M45.5322 38.4448C45.0124 37.925 44.6422 37.3106 44.4059 36.6568C44.3271 36.6096 44.2405 36.5623 44.1617 36.5072C42.4367 35.499 40.6015 34.538 37.2146 34.4829H37.1043C35.0092 34.4829 33.4181 35.2548 32.2918 36.4048L34.7493 37.2948C35.1037 37.4208 35.2849 37.8068 35.151 38.1613C35.025 38.5157 34.639 38.689 34.2846 38.563L31.4096 37.5233C30.937 38.2952 30.6377 39.1616 30.5117 40.0516H49.7067C47.8715 39.9807 46.4616 39.39 45.5164 38.4448" fill="white"/>
<path d="M37.2309 33.8058V33.1284H37.1127C34.6001 33.1284 32.568 34.113 31.1975 35.5938C31.103 35.6962 31.0163 35.8064 30.9297 35.9088L31.6071 36.153C32.8831 34.7352 34.7813 33.7743 37.2309 33.8058Z" fill="#1D2088"/>
<path d="M37.2462 33.1363L37.2383 33.1284L37.2305 33.8058L37.2462 33.1363Z" fill="#1D2088"/>
<path d="M69.4531 37.2949C69.9493 38.1455 70.2644 39.0907 70.3826 40.0517H71.0678C70.9497 39.012 70.6188 37.988 70.0911 37.0586L69.4531 37.2949Z" fill="#1D2088"/>
<path d="M37.2305 33.8058C40.515 33.8452 42.492 34.7588 44.1619 35.7198C44.1146 35.452 44.091 35.1763 44.0831 34.9006C43.8704 34.7825 43.6578 34.6722 43.4293 34.5541C41.8934 33.79 39.9716 33.1599 37.2305 33.1284H37.2384L37.2227 33.8058" fill="#1D2088"/>
<path d="M63.0056 33.8058C65.4552 33.7743 67.3534 34.7273 68.6294 36.153L69.3068 35.9088C69.2202 35.7985 69.1335 35.6962 69.039 35.5938C67.6764 34.113 65.6363 33.1284 63.1237 33.1284H62.9977C59.8392 33.1599 57.7835 34.0106 56.153 34.9242C56.1452 35.2078 56.1137 35.4835 56.0664 35.7591C57.7205 34.7825 59.6817 33.853 63.0056 33.8058Z" fill="#1D2088"/>
<path d="M30.7748 37.2949L30.1368 37.0586C29.6091 37.988 29.2862 39.0041 29.1602 40.0517H29.8454C29.9714 39.0828 30.2786 38.1455 30.7827 37.2949" fill="#1D2088"/>
<path d="M37.115 34.4833H37.2174H37.2253C40.6121 34.5306 42.4395 35.4915 44.1723 36.5076C44.2511 36.5548 44.3377 36.6021 44.4165 36.6493C44.3062 36.35 44.2275 36.035 44.1723 35.7199C42.5025 34.759 40.5255 33.8453 37.241 33.8059C34.7914 33.7744 32.8932 34.7275 31.6172 36.1531L32.3103 36.4052C33.4367 35.2552 35.0277 34.4912 37.1229 34.4833" fill="#1D2088"/>
<path d="M57.443 35.775C58.8293 35.0819 60.4676 34.5226 63.0117 34.4911H63.1141C65.2092 34.4911 66.8003 35.263 67.9266 36.413L68.6197 36.1609C67.3516 34.7353 65.4455 33.7822 62.9959 33.8137C59.672 33.8531 57.7187 34.7904 56.0567 35.7671C56.0016 36.09 55.915 36.4051 55.8047 36.7123C56.3324 36.3894 56.8601 36.0743 57.443 35.7829" fill="#1D2088"/>
<path d="M31.4191 37.5234L30.7732 37.2871C30.277 38.1378 29.962 39.083 29.8359 40.0439H30.5212C30.6472 39.1538 30.9465 38.2875 31.4191 37.5156" fill="#1D2088"/>
<path d="M69.7065 40.0522H70.3917C70.2657 39.0913 69.9585 38.1461 69.4623 37.2954L68.8164 37.5317C69.289 38.3036 69.5883 39.17 69.7143 40.0522" fill="#1D2088"/>
<path d="M54.8028 34.412V34.3569C54.7319 33.1833 54.409 31.8364 53.8734 30.647C53.3456 29.4498 52.6131 28.4101 51.8018 27.8194C51.2584 27.4177 50.707 27.2129 50.1084 27.2129C49.5177 27.2129 48.9584 27.4177 48.4149 27.8194C47.8793 28.2211 47.3674 28.8118 46.9342 29.5128C46.0677 30.9227 45.5085 32.7973 45.4219 34.3569V34.412C46.8318 34.0655 48.3204 33.9867 50.1084 33.9867C51.8964 33.9867 53.385 34.0655 54.7949 34.412" fill="#B0D7F2"/>
<path d="M45.4297 34.6879V34.7036C45.4297 35.066 45.4769 35.4204 45.5557 35.7591C46.1701 36.1214 46.7451 36.4601 47.3515 36.72C48.1786 37.0745 49.0529 37.3029 50.1713 37.3029C51.2977 37.3029 52.1562 37.0745 52.9754 36.72C53.5425 36.468 54.0938 36.1529 54.6688 35.8064C54.7555 35.4598 54.8027 35.0896 54.8106 34.7036V34.4988C53.4007 34.1129 51.9199 34.042 50.1162 34.042C48.3125 34.042 46.8396 34.1208 45.4297 34.4988V34.5776V34.6879Z" fill="#1D2088"/>
<path d="M52.141 38.4213C51.5424 38.571 50.8886 38.6577 50.1719 38.6498C49.2739 38.6498 48.4863 38.5159 47.7695 38.3032C48.3918 38.5553 49.1558 38.7049 50.1167 38.7049C50.9201 38.7049 51.5818 38.5947 52.141 38.4135" fill="#1D2088"/>
<path d="M54.244 36.8385C54.4331 36.5234 54.5748 36.1768 54.6694 35.8066C54.0944 36.1532 53.543 36.4682 52.9759 36.7203C52.1568 37.0747 51.2982 37.3031 50.1719 37.3031V37.9805C51.8653 37.9805 53.0783 37.4922 54.244 36.8385Z" fill="#1D2088"/>
<path d="M50.1742 37.3031C49.0479 37.3031 48.1815 37.0747 47.3544 36.7202C46.7558 36.4603 46.173 36.1295 45.5586 35.7593C45.6452 36.1216 45.7791 36.4603 45.9603 36.7754C47.1733 37.4528 48.4335 37.9805 50.1821 37.9805V37.3031" fill="#1D2088"/>
<path d="M50.1749 37.9805C48.4263 37.9805 47.174 37.4528 45.9531 36.7754C46.1028 37.0353 46.2761 37.2716 46.4887 37.4921C46.8195 37.8229 47.237 38.0987 47.7647 38.3113C48.4815 38.524 49.2691 38.6579 50.167 38.6579V37.9805" fill="#1D2088"/>
<path d="M50.1719 38.6578C50.8965 38.6578 51.5424 38.5712 52.141 38.4294C52.8184 38.2088 53.3461 37.8859 53.7399 37.4921C53.9368 37.2952 54.1022 37.0746 54.244 36.8462C53.0862 37.4921 51.8653 37.9883 50.1719 37.9883V38.6657" fill="#1D2088"/>
<path d="M55.4336 35.3415C55.662 35.1998 55.8983 35.0658 56.1504 34.9241V34.7271L55.4809 34.7114C55.4809 34.9241 55.4651 35.1367 55.4336 35.3415Z" fill="#1D2088"/>
<path d="M55.7656 34.6957C55.4506 34.5855 55.1276 34.4988 54.8047 34.4122V34.5067C55.0331 34.5697 55.2615 34.6406 55.4821 34.7194H56.1594V34.6091C56.1594 34.4988 56.1594 34.3964 56.1594 34.3019V34.2861L55.7656 34.3098C55.7656 34.4358 55.7656 34.5697 55.7656 34.7036" fill="#1D2088"/>
<path d="M44.7555 34.7117C44.9839 34.633 45.2045 34.562 45.4329 34.499V34.4045C45.1099 34.4833 44.787 34.5699 44.4719 34.6881C44.4719 34.5463 44.4719 34.4124 44.4719 34.2706C44.6767 30.7183 46.9137 26.0712 50.1194 26.0712C53.3251 26.0712 55.5621 30.7183 55.7668 34.2706V34.2942L56.1607 34.2706C56.0504 32.459 55.4439 30.4348 54.4436 28.7965C53.9395 27.9773 53.333 27.2527 52.6162 26.7171C51.8995 26.1815 51.0488 25.8428 50.1194 25.8428C49.19 25.8428 48.3393 26.1815 47.6225 26.7171C46.5435 27.5205 45.7164 28.7413 45.1178 30.0882C44.5192 31.4351 44.1648 32.9159 44.0781 34.2706C44.0781 34.373 44.0781 34.4754 44.0781 34.5699V34.7274V34.7117H44.7555Z" fill="#1D2088"/>
<path d="M56.1618 34.7271V34.7193L55.4844 34.7114L56.1618 34.7271Z" fill="#1D2088"/>
<path d="M44.0781 34.7114V34.735L44.7555 34.7114H44.0781Z" fill="#1D2088"/>
<path d="M44.7555 34.7114L44.0781 34.735V34.9083C44.3302 35.0422 44.5665 35.1761 44.7949 35.31C44.7713 35.1131 44.7555 34.9162 44.7555 34.7193" fill="#1D2088"/>
<path d="M49.7229 40.0519H50.5105C52.3458 39.981 53.7557 39.3903 54.7008 38.4451C55.2128 37.941 55.5751 37.3424 55.8114 36.7044C55.4491 36.925 55.0947 37.1376 54.7245 37.3503C53.9211 38.5554 52.4482 39.3982 50.1167 39.3982C47.7853 39.3982 46.2494 38.5239 45.4538 37.2794C45.0994 37.0746 44.7528 36.8698 44.4062 36.665C44.6425 37.3188 45.0127 37.9332 45.5326 38.453C46.4778 39.3982 47.8877 39.9889 49.7229 40.0598" fill="#1D2088"/>
<path d="M44.976 36.2083C44.8894 35.9169 44.8264 35.6176 44.787 35.3104C44.5586 35.1765 44.3223 35.0426 44.0781 34.9087C44.086 35.1844 44.1096 35.46 44.1569 35.7278C44.4326 35.8854 44.7004 36.0508 44.9682 36.2083" fill="#1D2088"/>
<path d="M55.2383 36.2554C55.5061 36.09 55.7818 35.9246 56.0653 35.7592C56.1126 35.4835 56.1441 35.2079 56.152 34.9243C55.9078 35.0661 55.6715 35.2 55.4352 35.3418C55.3958 35.6569 55.3328 35.9561 55.2383 36.2554Z" fill="#1D2088"/>
<path d="M55.8136 36.7045C55.9239 36.3973 56.0105 36.0822 56.0656 35.7593C55.7821 35.9247 55.5143 36.0901 55.2386 36.2555C55.1205 36.6414 54.9472 37.0117 54.7188 37.3503C55.0889 37.1456 55.4434 36.925 55.8057 36.7045" fill="#1D2088"/>
<path d="M45.4558 37.2719C45.2431 36.9411 45.0856 36.5788 44.9753 36.2007C44.7075 36.0432 44.4397 35.8856 44.1641 35.7202C44.2192 36.0353 44.3058 36.3503 44.4082 36.6496C44.7548 36.8544 45.1014 37.0671 45.4558 37.264" fill="#1D2088"/>
<path d="M54.8047 34.3575V34.4126C55.1276 34.4914 55.4506 34.578 55.7656 34.6883C55.7656 34.5544 55.7656 34.4283 55.7656 34.2944L55.4821 34.3102L54.8047 34.3496" fill="#1D2088"/>
<path d="M46.9439 29.5132C47.3771 28.8122 47.8891 28.2215 48.4247 27.8198C48.9682 27.4181 49.5195 27.2133 50.1181 27.2133C50.7089 27.2133 51.2681 27.4181 51.8116 27.8198C52.6229 28.4184 53.3554 29.4581 53.8831 30.6475C54.4108 31.8447 54.7416 33.1916 54.8047 34.3573V34.3415L55.482 34.3179L55.7656 34.3022V34.2786C55.5608 30.7263 53.3239 26.0791 50.1181 26.0791C46.9124 26.0791 44.6755 30.7263 44.4786 34.2786C44.4707 34.4125 44.4707 34.5542 44.4786 34.696C44.8015 34.5857 45.1166 34.4991 45.4395 34.4203V34.3652C45.5261 32.7978 46.0854 30.931 46.9518 29.5211" fill="#1D2088"/>
<path d="M54.8047 34.3415V34.3572L55.4821 34.3179L54.8047 34.3415Z" fill="#1D2088"/>
<path d="M45.4313 34.7038V34.5778V34.499C45.2029 34.562 44.9744 34.6251 44.7539 34.7038C44.7539 34.9007 44.7697 35.1055 44.7933 35.2946C45.0532 35.4521 45.3131 35.6018 45.5573 35.7514C45.4785 35.4127 45.4313 35.0583 45.4313 34.6959" fill="#1D2088"/>
<path d="M54.8137 34.6959C54.8137 35.0818 54.7664 35.452 54.6719 35.8065C54.9239 35.6568 55.1681 35.5072 55.4359 35.3496H55.4438C55.4674 35.137 55.4832 34.9243 55.4832 34.7195C55.2626 34.6408 55.0342 34.5698 54.8058 34.5068V34.6092V34.7037" fill="#1D2088"/>
<path d="M50.1198 39.3903C52.4434 39.3903 53.9241 38.5553 54.7275 37.3423C54.3416 37.5629 53.9478 37.7677 53.5224 37.9567C53.0971 38.1458 52.6403 38.3033 52.1519 38.4214C51.5927 38.6026 50.9232 38.7128 50.1277 38.7128C49.1667 38.7128 48.4027 38.5554 47.7805 38.3112C47.4497 38.2088 47.1267 38.0985 46.8274 37.9646C46.3469 37.7598 45.9059 37.5235 45.4727 37.2715C46.2682 38.516 47.7568 39.3903 50.1355 39.3903" fill="#1D2088"/>
<path d="M54.6714 35.8066C54.5769 36.1768 54.4351 36.5234 54.2461 36.8384C54.5769 36.6494 54.9077 36.4525 55.2464 36.2477C55.3409 35.9484 55.4039 35.649 55.4433 35.334C55.1834 35.4994 54.9314 35.6491 54.6793 35.7987" fill="#1D2088"/>
<path d="M45.557 35.759C45.3049 35.6094 45.0529 35.4598 44.793 35.3022C44.8245 35.6094 44.8875 35.9087 44.982 36.2002C45.3128 36.3971 45.6358 36.5861 45.9587 36.7751C45.7775 36.4601 45.6436 36.1214 45.557 35.759Z" fill="#1D2088"/>
<path d="M53.7396 37.492C53.3457 37.8858 52.8259 38.2088 52.1406 38.4293C52.629 38.3111 53.0858 38.1536 53.5111 37.9646C53.9365 37.7756 54.3303 37.5708 54.7162 37.3502C54.9447 37.0115 55.1101 36.6413 55.2361 36.2554C54.9053 36.4602 54.5745 36.6571 54.2358 36.8461C54.094 37.0745 53.9286 37.2951 53.7317 37.492" fill="#1D2088"/>
<path d="M46.8197 37.9649C47.1268 38.0988 47.4419 38.2091 47.7727 38.3115C47.245 38.0988 46.8275 37.8152 46.4967 37.4923C46.2841 37.2796 46.1029 37.0355 45.9532 36.7834C45.6303 36.6023 45.3074 36.4132 44.9766 36.2163C45.0947 36.5944 45.2522 36.9489 45.457 37.2797C45.8902 37.5238 46.3392 37.7601 46.8118 37.9728" fill="#1D2088"/>
<path d="M27.8674 34.7983C27.5208 34.6723 27.127 34.8535 27.001 35.2079C26.8749 35.5624 27.0561 35.9483 27.4105 36.0743L30.1437 37.0668C30.3721 36.6651 30.6399 36.2791 30.9392 35.9168L27.8752 34.8062" fill="#1D2088"/>
<path d="M35.1593 38.1696C35.2853 37.8151 35.1042 37.4292 34.7497 37.3031L32.2923 36.4131L32.182 36.5234C31.8906 36.8384 31.6385 37.1771 31.418 37.5394L34.2929 38.5791C34.6395 38.7051 35.0333 38.524 35.1593 38.1774" fill="#1D2088"/>
<path d="M31.6057 36.1529L30.9283 35.9087C30.629 36.271 30.3612 36.657 30.1328 37.0587L30.7708 37.295C31.0071 36.8933 31.2907 36.5152 31.6057 36.1607" fill="#1D2088"/>
<path d="M32.1912 36.5152L32.3015 36.4049L31.6083 36.1528C31.2933 36.5073 31.0097 36.8853 30.7734 37.287L31.4193 37.5234C31.6399 37.1611 31.8919 36.8223 32.1833 36.5073" fill="#1D2088"/>
<path d="M72.8334 36.0665C73.18 35.9405 73.369 35.5545 73.2351 35.2001C73.1091 34.8457 72.7232 34.6645 72.3687 34.7905L69.2969 35.909C69.5962 36.2713 69.864 36.6572 70.0924 37.0589L72.8334 36.0665Z" fill="#1D2088"/>
<path d="M65.0753 38.1692C65.2014 38.5236 65.5873 38.6968 65.9417 38.5708L68.8088 37.5311C68.5883 37.1688 68.3362 36.8301 68.0448 36.5151L67.9345 36.4048L65.4849 37.2948C65.1305 37.4209 64.9493 37.8068 65.0832 38.1613" fill="#1D2088"/>
<path d="M69.456 37.295L70.094 37.0587C69.8656 36.657 69.5978 36.271 69.2985 35.9087L68.6211 36.1529C68.9362 36.5073 69.2197 36.8854 69.456 37.295Z" fill="#1D2088"/>
<path d="M67.9337 36.4049L68.0439 36.5152C68.3354 36.8302 68.5874 37.1689 68.808 37.5312L69.4538 37.2949C69.2175 36.8932 68.934 36.5073 68.6189 36.1528L67.9258 36.4049" fill="#1D2088"/>
<path d="M14.3421 35.0031C13.4915 32.0809 14.5391 26.402 14.5391 26.402C14.6651 26.4729 14.8147 26.5437 14.9959 26.6225C15.8072 23.2041 17.2564 20.022 19.2807 17.1628C19.0838 17.0683 18.8869 16.9502 18.69 16.832C15.5394 21.298 13.7357 26.5595 13.5939 32.2227C13.586 32.459 13.5781 32.6953 13.5781 32.9395C13.5781 35.4757 13.9404 37.8465 14.6099 40.0519H15.3031C14.8069 38.4609 14.4839 36.7753 14.3421 35.0031Z" fill="#1D2088"/>
<path d="M85.2538 26.6857C85.49 26.5833 85.6948 26.4888 85.8445 26.4021C85.8445 26.4021 86.8999 32.0575 86.0257 34.9639L85.8918 34.9402C85.75 36.7361 85.427 38.4374 84.9229 40.0442H85.6318C86.3013 37.8388 86.6637 35.468 86.6558 32.9317C86.6558 32.6954 86.6558 32.4591 86.6479 32.2228C86.5061 26.5518 84.7024 21.2903 81.5518 16.8164C81.3549 16.9346 81.1501 17.0527 80.9453 17.1551C82.9853 20.03 84.4425 23.2358 85.2459 26.6778" fill="#1D2088"/>
<path d="M43.8387 3.55227L43.8229 3.47352C45.8393 3.22147 47.9345 3.08756 50.1163 3.08756C52.298 3.08756 54.4011 3.22147 56.4096 3.47352L56.3938 3.55227C61.2536 4.18239 65.6487 5.53715 69.4846 7.47477C69.5476 7.25423 69.6263 7.0337 69.713 6.82103C64.1994 4.04851 57.5674 2.46533 50.1241 2.46533C42.6808 2.46533 36.041 4.05637 30.5195 6.82889C30.6062 7.04156 30.6771 7.26211 30.7401 7.47477C34.5759 5.53715 38.9789 4.18239 43.8308 3.55227" fill="#1D2088"/>
<path d="M30.7503 7.47498C30.6872 7.25444 30.6085 7.04177 30.5297 6.8291C29.1828 7.50648 27.899 8.25474 26.6939 9.06602C26.749 9.22355 26.8041 9.38897 26.8356 9.5465C26.3 9.74342 25.4021 10.3184 24.197 11.3423C22.9919 12.3663 22.2751 13.1461 21.9837 13.6423C21.8262 13.5793 21.6687 13.5005 21.519 13.4139C20.4872 14.4929 19.542 15.635 18.6992 16.8323C18.8961 16.9504 19.093 17.0607 19.29 17.1631C22.094 13.2091 25.985 9.89306 30.7581 7.47498" fill="#1D2088"/>
<path d="M21.5078 13.4215C21.6575 13.5082 21.815 13.587 21.9804 13.65C22.2718 13.1538 22.9807 12.374 24.1937 11.35C25.3988 10.3261 26.2967 9.75112 26.8323 9.55421C26.8008 9.3888 26.7457 9.23126 26.6905 9.07373C25.7611 9.70385 24.8711 10.3655 24.0204 11.0744C23.1304 11.8148 22.2955 12.6024 21.5078 13.4215Z" fill="#1D2088"/>
<path d="M80.9564 17.1627C81.1612 17.0603 81.3581 16.95 81.5629 16.824C80.7201 15.6268 79.7749 14.4847 78.7431 13.4056C78.5856 13.5001 78.428 13.5789 78.2626 13.6419C77.9791 13.1457 77.2623 12.3659 76.0572 11.342C74.8521 10.318 73.9542 9.74305 73.4186 9.54613C73.4501 9.38073 73.5052 9.21532 73.5604 9.04991C72.3553 8.23863 71.0714 7.49037 69.7245 6.81299C69.6379 7.02565 69.5591 7.24619 69.4961 7.46673C74.2693 9.88481 78.1602 13.2008 80.9643 17.1548" fill="#1D2088"/>
<path d="M76.2299 11.0666C75.3793 10.3577 74.4892 9.68823 73.5519 9.05811C73.4889 9.22351 73.4417 9.38892 73.4102 9.55433C73.9458 9.75124 74.8437 10.3262 76.0488 11.3502C77.2539 12.3741 77.9706 13.1539 78.2542 13.6501C78.4196 13.5871 78.5771 13.5083 78.7347 13.4138C77.947 12.5947 77.12 11.8149 76.2299 11.0666Z" fill="#1D2088"/>
<path d="M84.6247 26.9378C84.8531 26.8512 85.0658 26.7646 85.247 26.6858C84.4436 23.2516 82.9864 20.038 80.9464 17.1631C80.7416 17.2655 80.5368 17.36 80.332 17.4388C82.3799 20.298 83.8371 23.5037 84.6247 26.9378Z" fill="#1D2088"/>
<path d="M69.3211 8.13637C69.3684 7.91583 69.4235 7.69529 69.4865 7.47475C65.6507 5.53713 61.2556 4.18237 56.3958 3.55225C56.3486 3.77279 56.2934 3.98547 56.2383 4.20601C61.106 4.82825 65.501 6.19088 69.3211 8.13637Z" fill="#1D2088"/>
<path d="M69.4648 8.21533C70.3076 8.65642 71.1268 9.11324 71.9144 9.60946C70.9062 8.92421 70.0871 8.46738 69.4648 8.21533Z" fill="#1D2088"/>
<path d="M43.9983 4.21382C43.9431 3.99328 43.888 3.77272 43.8407 3.56006C38.9809 4.19018 34.5859 5.54494 30.75 7.48256C30.813 7.7031 30.876 7.93151 30.9154 8.15993C34.7276 6.20656 39.1227 4.84392 43.9983 4.22168" fill="#1D2088"/>
<path d="M19.911 17.4466C19.6984 17.3679 19.4857 17.2655 19.2809 17.1631C17.2566 20.0223 15.7995 23.2122 14.9961 26.6228C15.1851 26.7094 15.3978 26.7961 15.6341 26.8906C16.4217 23.4801 17.871 20.29 19.911 17.4466Z" fill="#1D2088"/>
<path d="M78.8516 15.5562C79.332 16.1233 79.7967 16.6983 80.2299 17.2969C79.9306 16.8164 79.4817 16.2414 78.8516 15.5562Z" fill="#1D2088"/>
<path d="M19.9453 17.399C20.4573 16.6901 21.0008 16.0128 21.5757 15.3433C20.8039 16.1703 20.2604 16.8555 19.9453 17.399Z" fill="#1D2088"/>
<path d="M15.0289 34.94C14.8084 34.9715 14.5879 35.0109 14.3516 35.0345V34.9952C14.4855 36.7752 14.8084 38.4529 15.3046 40.044H16.0135C15.4937 38.445 15.1707 36.7358 15.0211 34.9321" fill="#1D2088"/>
<path d="M84.2305 40.052H84.9236C85.4277 38.4452 85.7506 36.7439 85.8924 34.948C85.664 34.9165 85.4513 34.885 85.2308 34.8535C85.089 36.6887 84.7582 38.4294 84.2305 40.0599" fill="#1D2088"/>
<path d="M28.0234 9.82204C28.9371 9.2313 29.8902 8.67994 30.8826 8.16797C30.1895 8.42789 29.2207 8.97925 28.0234 9.82204Z" fill="#1D2088"/>
<path d="M19.9429 17.399C20.2579 16.8556 20.8014 16.1703 21.5733 15.3433C22.5736 14.1933 23.6842 13.1143 24.8893 12.1061C25.866 11.2869 26.9215 10.5308 28.0242 9.814C29.2293 8.97122 30.1902 8.42773 30.8833 8.15993L30.9148 8.14419C30.8676 7.91577 30.8124 7.69522 30.7494 7.4668C25.9763 9.88488 22.0853 13.2009 19.2812 17.1549C19.486 17.2573 19.6987 17.3518 19.9114 17.4385L19.9429 17.3912" fill="#1D2088"/>
<path d="M69.4621 8.21549C70.0922 8.46754 70.9114 8.92437 71.9117 9.60962C73.1325 10.3736 74.2904 11.2086 75.3616 12.1065C76.6376 13.1777 77.8033 14.3277 78.8509 15.5564C79.4731 16.2338 79.93 16.8166 80.2293 17.2971L80.3395 17.4389C80.5443 17.3601 80.757 17.2656 80.9539 17.1632C78.1499 13.2092 74.251 9.89318 69.4857 7.4751C69.4227 7.69564 69.3597 7.91618 69.3203 8.13672L69.4621 8.21549Z" fill="#1D2088"/>
<path d="M56.3951 3.55211L56.4109 3.47337C54.3945 3.22132 52.2993 3.0874 50.1175 3.0874C47.9357 3.0874 45.8406 3.22132 43.8242 3.47337L43.84 3.55211C45.8564 3.29219 47.9515 3.15043 50.1175 3.15043C52.2836 3.15043 54.3787 3.29219 56.3951 3.55211Z" fill="#1D2088"/>
<path d="M50.1253 3.8199C52.2362 3.8199 54.2683 3.95379 56.2374 4.20584C56.2926 3.9853 56.3398 3.77262 56.395 3.55208C54.3786 3.29215 52.2835 3.15039 50.1174 3.15039C47.9514 3.15039 45.8562 3.29215 43.8398 3.55208C43.895 3.77262 43.9422 3.99317 43.9974 4.20584C45.9665 3.95379 48.0065 3.8199 50.1253 3.8199Z" fill="#1D2088"/>
<path d="M24.2435 31.0336C24.2435 29.7104 18.4149 27.9855 15.6345 26.8906C15.2328 28.6313 14.9965 30.4193 14.9492 32.2702C14.9492 32.4987 14.9492 32.7192 14.9492 32.9477C14.9492 33.6329 14.9886 34.2945 15.0359 34.9483C20.8802 34.0819 24.2514 32.5065 24.2514 31.0415" fill="#1D2088"/>
<path d="M14.9946 26.6224C14.8213 26.5436 14.6637 26.4649 14.5377 26.4019C14.5377 26.4019 13.4902 32.0808 14.3408 35.003C14.2699 34.1129 14.2384 33.1993 14.262 32.2541C14.3093 30.3243 14.5614 28.4418 14.9946 26.6224Z" fill="#1D2088"/>
<path d="M15.0297 34.9401C14.9745 34.2864 14.943 33.6248 14.943 32.9395C14.943 32.7111 14.943 32.4906 14.943 32.2622C14.9903 30.4191 15.2266 28.6232 15.6283 26.8904C15.392 26.7959 15.1714 26.7092 14.9903 26.6226C14.5571 28.442 14.305 30.3245 14.2578 32.2543C14.2341 33.1916 14.2656 34.1052 14.3365 35.0032V35.0425C14.5807 35.011 14.7934 34.9795 15.0218 34.948" fill="#1D2088"/>
<path d="M76.1406 31.0332C76.1406 32.4903 79.4566 33.9869 85.2301 34.8533C85.2774 34.2311 85.3089 33.5931 85.3089 32.9472C85.3089 32.7188 85.3089 32.4982 85.301 32.2698C85.2537 30.4424 85.0174 28.6624 84.6236 26.9453C81.8038 28.0401 76.1406 29.7336 76.1406 31.0411" fill="#1D2088"/>
<path d="M85.8919 34.9478L86.0258 34.9636C86.9001 32.0572 85.8446 26.4019 85.8446 26.4019C85.695 26.4885 85.4902 26.583 85.2539 26.6854C85.6792 28.4891 85.9234 30.348 85.9707 32.2541C85.9943 33.1756 85.9628 34.0657 85.8919 34.9478Z" fill="#1D2088"/>
<path d="M85.3023 32.2622C85.3023 32.4906 85.3102 32.7111 85.3102 32.9396C85.3102 33.5854 85.2787 34.2234 85.2314 34.8457C85.452 34.8772 85.6646 34.9087 85.8931 34.9402C85.9639 34.0659 85.9954 33.168 85.9718 32.2464C85.9246 30.3324 85.6725 28.4736 85.2551 26.6777C85.066 26.7565 84.8612 26.8431 84.6328 26.9298C85.0266 28.6547 85.2629 30.427 85.3102 32.2543" fill="#1D2088"/>
<path d="M70.4301 40.4776H71.1074C71.0996 40.3358 71.0838 40.194 71.0681 40.0522H70.3828C70.3986 40.194 70.4143 40.3358 70.4301 40.4776Z" fill="white"/>
<path d="M29.8418 40.0522H29.1566C29.1408 40.194 29.1251 40.3358 29.1172 40.4776H29.7946C29.8024 40.3358 29.8182 40.194 29.8418 40.0522Z" fill="white"/>
<path d="M30.5294 40.0522H29.8441C29.8284 40.194 29.8126 40.3358 29.7969 40.4776H30.4743C30.4821 40.3358 30.5058 40.194 30.5215 40.0522" fill="white"/>
<path d="M69.7544 40.4776H70.4317C70.4239 40.3358 70.4081 40.194 70.3845 40.0522H69.6992C69.715 40.194 69.7386 40.3358 69.7465 40.4776" fill="white"/>
<path d="M50.1165 40.068C50.2504 40.068 50.3764 40.0601 50.5103 40.0522H49.7227C49.8566 40.0522 49.9826 40.068 50.1165 40.068Z" fill="white"/>
<path d="M13.5475 31.1912C8.26234 31.2463 2.97721 33.6408 1.92964 36.7599C0.0235282 42.4388 4.11143 45.8179 7.08087 44.1638C7.40381 46.1881 11.3499 48.0626 13.6971 45.0696C14.7211 47.2986 19.7384 46.6291 19.7542 43.7542C20.8884 44.3607 26.0002 43.5573 25.055 37.5869C24.5037 34.1055 19.7857 31.1203 13.5475 31.1912Z" fill="#B0D7F2"/>
<path d="M13.5487 31.1907V30.5685C10.8077 30.6 8.09032 31.2301 5.8849 32.262C3.68736 33.3017 1.9624 34.743 1.34016 36.5625C0.985719 37.6258 0.820312 38.634 0.820312 39.5556C0.820312 41.2411 1.36379 42.651 2.22233 43.6435C3.08087 44.6359 4.25447 45.2109 5.47532 45.2109C6.12119 45.2109 6.77494 45.0455 7.38143 44.7068L7.07425 44.1633L6.45988 44.2579C6.60166 45.1164 7.16877 45.841 7.91704 46.3766C8.6653 46.9044 9.62624 47.2509 10.6502 47.2509C11.8789 47.2509 13.2022 46.7232 14.1867 45.4551L13.6984 45.0691L13.1313 45.3291C13.407 45.9355 13.9032 46.3688 14.4624 46.6366C15.0216 46.9044 15.6596 47.0225 16.2976 47.0225C17.2428 47.0225 18.2116 46.7626 18.9914 46.2349C19.3852 45.9671 19.7239 45.6283 19.976 45.2109C20.228 44.7934 20.3698 44.2972 20.3777 43.7616H19.7554L19.464 44.3051C19.8184 44.4863 20.2044 44.5414 20.6612 44.5493C21.6221 44.5493 22.8666 44.2342 23.93 43.3599C24.9933 42.4935 25.8046 41.0364 25.7967 38.9806C25.7967 38.5159 25.7573 38.0196 25.6785 37.484C25.3635 35.507 23.9221 33.7821 21.8191 32.5455C19.716 31.3089 16.9277 30.5527 13.7614 30.5527C13.6905 30.5527 13.6196 30.5527 13.5409 30.5527V31.175L13.5566 31.7972H13.7535C16.7151 31.7972 19.3064 32.514 21.1811 33.6167C23.0635 34.7194 24.2056 36.1923 24.434 37.6652C24.5049 38.1378 24.5443 38.571 24.5443 38.9648C24.5364 40.7134 23.9142 41.7216 23.1344 42.3754C22.3547 43.0291 21.3465 43.2812 20.6612 43.2733C20.3461 43.2733 20.0941 43.2103 20.0468 43.1788C19.8499 43.0764 19.6215 43.0842 19.4325 43.1945C19.2434 43.3048 19.1253 43.5096 19.1253 43.7301C19.1253 44.0531 19.0386 44.313 18.9047 44.5493C18.6921 44.9037 18.3298 45.2109 17.8572 45.4236C17.3925 45.6362 16.8332 45.7544 16.2976 45.7544C15.8172 45.7544 15.3524 45.6599 14.998 45.4866C14.6436 45.3133 14.3994 45.0849 14.2655 44.7856C14.1789 44.5887 13.9898 44.4469 13.7693 44.4232C13.5566 44.3996 13.3361 44.4863 13.2022 44.6596C12.4224 45.6363 11.5323 45.9749 10.6502 45.9828C9.91767 45.9828 9.18515 45.7229 8.64167 45.3369C8.09032 44.951 7.75163 44.439 7.69649 44.0452C7.66499 43.8404 7.53896 43.6671 7.34993 43.5805C7.16089 43.4938 6.94823 43.4938 6.77494 43.5962C6.34961 43.8325 5.91641 43.9428 5.47532 43.9428C4.65617 43.9428 3.81338 43.5568 3.16751 42.8086C2.52164 42.0603 2.0648 40.9576 2.0648 39.5398C2.0648 38.7679 2.1987 37.8936 2.52164 36.9484C2.94697 35.6488 4.38049 34.3256 6.41263 33.3804C8.43689 32.4274 11.0046 31.8287 13.5487 31.8051V31.1828" fill="#1D2088"/>
<path d="M20.2889 44.3287C20.3598 43.9743 20.4071 43.4466 20.4386 42.9189C20.4701 42.399 20.4937 41.9028 20.5016 41.6744C20.5095 41.3278 20.2417 41.0442 19.8951 41.0285C19.5485 41.0206 19.265 41.2884 19.2492 41.635C19.2492 41.8398 19.2177 42.3281 19.1862 42.8322C19.1547 43.3285 19.0996 43.864 19.0523 44.0846C18.9814 44.4233 19.202 44.7541 19.5407 44.8171C19.8794 44.888 20.2102 44.6674 20.2811 44.3287" fill="#1D2088"/>
<path d="M14.2714 45.0066C14.1532 44.408 14.0429 43.9748 13.8618 42.8799C13.8067 42.5412 13.4837 42.3049 13.145 42.36C12.8063 42.4152 12.57 42.7381 12.6252 43.0768C12.8063 44.2032 12.9245 44.6915 13.0426 45.2508C13.1135 45.5894 13.4365 45.81 13.783 45.7391C14.1217 45.6682 14.3423 45.3374 14.2714 45.0066Z" fill="#1D2088"/>
<path d="M8.20719 44.888C7.65584 43.9034 7.22263 42.8873 6.84456 41.8634C6.72641 41.5405 6.36409 41.3751 6.04116 41.4932C5.71822 41.6114 5.55281 41.9737 5.67096 42.2966C6.06479 43.36 6.52162 44.4312 7.12024 45.4945C7.28564 45.7938 7.67159 45.9041 7.9709 45.7308C8.2702 45.5654 8.38048 45.1794 8.21507 44.8801" fill="#1D2088"/>
<path d="M86.8047 31.1912C81.5195 31.2463 76.2344 33.6408 75.1868 36.7599C73.2807 42.4388 77.3765 45.8179 80.3381 44.1638C80.661 46.1881 84.6071 48.0626 86.9543 45.0696C87.9783 47.2986 92.9877 46.6291 93.0114 43.7542C94.1456 44.3607 99.2574 43.5573 98.3122 37.5869C97.7609 34.1055 93.0429 31.1203 86.8047 31.1912Z" fill="#B0D7F2"/>
<path d="M86.8065 31.1907V30.5684C84.0655 30.5999 81.3481 31.2301 79.1427 32.2619C76.9452 33.3016 75.2202 34.743 74.598 36.5624C74.2435 37.6258 74.0781 38.6339 74.0781 39.5555C74.0781 41.2411 74.6216 42.651 75.4801 43.6434C76.3387 44.6358 77.5123 45.2108 78.7331 45.2108C79.379 45.2108 80.0328 45.0454 80.6392 44.7068L80.3321 44.1633L79.7177 44.2578C79.8595 45.1163 80.4266 45.841 81.1749 46.3766C81.9231 46.9043 82.8841 47.2508 83.908 47.2508C85.1367 47.2508 86.46 46.7231 87.4445 45.455L86.9562 45.069L86.3891 45.329C86.6648 45.9355 87.161 46.3687 87.7202 46.6365C88.2794 46.9043 88.9174 47.0224 89.5554 47.0224C90.5006 47.0224 91.4694 46.7625 92.2492 46.2348C92.6352 45.967 92.9817 45.6283 93.2338 45.2108C93.4858 44.7934 93.6276 44.2972 93.6355 43.7616H93.0132L92.7218 44.305C93.0762 44.4862 93.4622 44.5413 93.919 44.5492C94.8799 44.5492 96.1244 44.2341 97.1878 43.3599C98.2511 42.4934 99.0624 41.0442 99.0545 38.9805C99.0545 38.5158 99.0151 38.0196 98.9364 37.484C98.6213 35.507 97.1799 33.7821 95.0769 32.5533C92.9738 31.3167 90.1856 30.5605 87.0192 30.5605C86.9483 30.5605 86.8774 30.5605 86.8065 30.5605V31.1828L86.8223 31.805H87.0192C89.9808 31.805 92.5721 32.5218 94.4468 33.6245C96.3292 34.7272 97.4713 36.2001 97.6997 37.673C97.7706 38.1456 97.81 38.5788 97.81 38.9726C97.8021 40.7212 97.1799 41.7294 96.4001 42.3832C95.6203 43.0369 94.6122 43.289 93.9269 43.2811C93.6118 43.2811 93.3598 43.2181 93.3125 43.1866C93.1156 43.0842 92.8872 43.092 92.6982 43.2023C92.5091 43.3126 92.391 43.5174 92.391 43.7379C92.391 44.0608 92.3043 44.3208 92.1626 44.5571C91.9499 44.9115 91.5876 45.2187 91.115 45.4314C90.6503 45.644 90.091 45.7622 89.5554 45.7622C89.075 45.7622 88.6103 45.6677 88.2558 45.4944C87.9014 45.3211 87.6572 45.0927 87.5233 44.7934C87.4288 44.5965 87.2476 44.4547 87.0271 44.431C86.8144 44.4074 86.5939 44.4941 86.46 44.6674C85.6802 45.6441 84.7902 45.9827 83.908 45.9906C83.1755 45.9906 82.443 45.7307 81.8995 45.3447C81.3481 44.9588 81.0094 44.4468 80.9543 44.053C80.9228 43.8482 80.7968 43.6749 80.6077 43.5883C80.4266 43.5016 80.206 43.5016 80.0328 43.604C79.6074 43.8403 79.1742 43.9506 78.7331 43.9506C77.914 43.9506 77.0712 43.5646 76.4253 42.8164C75.7795 42.0681 75.3305 40.9654 75.3226 39.5477C75.3226 38.7758 75.4565 37.9014 75.7795 36.9563C76.2048 35.6566 77.6462 34.3334 79.6704 33.3882C81.6947 32.4352 84.2546 31.8366 86.8065 31.8129V31.1907Z" fill="#1D2088"/>
<path d="M93.5507 44.3287C93.6215 43.9743 93.6688 43.4466 93.7003 42.9189C93.7397 42.399 93.7554 41.9028 93.7633 41.6744C93.7712 41.3278 93.5034 41.0442 93.1568 41.0285C92.8103 41.0206 92.5267 41.2884 92.511 41.635C92.511 41.8398 92.4794 42.3281 92.4479 42.8322C92.4164 43.3285 92.3613 43.864 92.314 44.0846C92.2432 44.4233 92.4637 44.7541 92.8024 44.8171C93.1411 44.888 93.4719 44.6674 93.5349 44.3287" fill="#1D2088"/>
<path d="M87.5313 45.0066C87.4132 44.408 87.3029 43.9748 87.1217 42.8799C87.0666 42.5412 86.7437 42.3049 86.405 42.36C86.0663 42.4152 85.83 42.7381 85.893 43.0768C86.0742 44.2032 86.1923 44.6915 86.3105 45.2508C86.3813 45.5894 86.7043 45.81 87.043 45.7391C87.3817 45.6682 87.6022 45.3374 87.5313 45.0066Z" fill="#1D2088"/>
<path d="M81.465 44.888C80.9137 43.9034 80.4804 42.8873 80.1024 41.8634C79.9842 41.5405 79.6219 41.3751 79.299 41.4932C78.976 41.6114 78.8106 41.9737 78.9288 42.2966C79.3226 43.36 79.7794 44.4312 80.3702 45.4945C80.5356 45.7938 80.9215 45.9041 81.2208 45.7308C81.5201 45.5654 81.6304 45.1794 81.465 44.8801" fill="#1D2088"/>
</g>
</g>
</svg>
