<?xml version="1.0" encoding="UTF-8"?>
<svg id="_レイヤー_1" data-name="レイヤー_1" xmlns="http://www.w3.org/2000/svg" width="22" height="22" version="1.1" viewBox="0 0 22 22">
  <!-- Generator: Adobe Illustrator 30.1.0, SVG Export Plug-In . SVG Version: 2.1.1 Build 136)  -->
  <path d="M11,3s6.9,0,8.6.5c.9.2,1.6,1,1.9,2,.5,1.8.5,5.5.5,5.5,0,0,0,3.7-.5,5.5-.2,1-1,1.7-1.9,2-1.7.5-8.6.5-8.6.5,0,0-6.9,0-8.6-.5-.9-.2-1.6-1-1.9-2-.5-1.8-.5-5.5-.5-5.5,0,0,0-3.7.5-5.5.2-1,1-1.7,1.9-2,1.7-.5,8.6-.5,8.6-.5ZM8.7,14.3l5.7-3.4-5.7-3.4v6.8Z" fill="#ffffff"/>
</svg>