<?xml version="1.0" encoding="UTF-8"?>
<svg id="_レイヤー_1" data-name="レイヤー_1" xmlns="http://www.w3.org/2000/svg" width="58" height="22" version="1.1" viewBox="0 0 58 22">
  <!-- Generator: Adobe Illustrator 30.1.0, SVG Export Plug-In . SVG Version: 2.1.1 Build 136)  -->
  <path d="M12.2,6.6c-1.7,0-4.1,0-5.8,0v8.9h2.5v-6.7s2.2,0,3,0c.7,0,1,.5,1,1.5,0,1.1,0,1.7,0,5.2h2.5s0-4,0-5.4c0-2.5-.9-3.5-3.2-3.5Z" fill="#0b2188"/>
  <path d="M23.7,6.5c-2.4,0-4.4,2-4.4,4.5s2,4.5,4.4,4.5,4.4-2,4.4-4.5-2-4.5-4.4-4.5ZM23.7,13.4c-1.3,0-2.3-1.1-2.3-2.4s1-2.4,2.3-2.4,2.3,1.1,2.3,2.4-1,2.4-2.3,2.4Z" fill="#0b2188"/>
  <path d="M51.4,11c0-2.5-2-4.5-4.4-4.5s-4.4,2-4.4,4.5.7,2.7,1.7,3.5c.7.6,1.7,1,3.1,1s2.3-.2,3.6-1.5l-1-1.3c-.4.4-1.5.9-2.3.9s-1.7-.2-2.2-.7c-.3-.3-.5-.7-.6-1.2h6.6c0-.2,0-.4,0-.7ZM44.8,10.2c.2-1.1,1-1.8,2.2-1.8s2,.8,2.2,1.8h-4.5Z" fill="#0b2188"/>
  <path d="M36.5,5.7h-2.3v2.5h-2.4v2.2h2.4v2.6h2.3v-2.6h2.4v-2.2h-2.4v-2.5Z" fill="#0b2188"/>
</svg>