<?xml version="1.0" encoding="UTF-8"?>
<svg id="_レイヤー_1" data-name="レイヤー_1" xmlns="http://www.w3.org/2000/svg" width="22" height="22" version="1.1" viewBox="0 0 22 22">
  <!-- Generator: Adobe Illustrator 30.1.0, SVG Export Plug-In . SVG Version: 2.1.1 Build 136)  -->
  <path d="M7.1,1.5c-1.1,0-1.7.2-2.3.4-.6.2-1.2.5-1.7,1.1-.5.5-.9,1.1-1.1,1.7-.2.6-.4,1.3-.4,2.3v7.9c0,1.1.2,1.7.4,2.3.2.6.5,1.2,1.1,1.7.5.5,1.1.9,1.7,1.1.6.2,1.3.4,2.3.4h7.9c1.1,0,1.7-.2,2.3-.4.6-.2,1.2-.5,1.7-1.1.5-.5.9-1.1,1.1-1.7.2-.6.4-1.3.4-2.3v-7.9c0-1.1-.2-1.7-.4-2.3-.2-.6-.5-1.2-1.1-1.7-.5-.5-1.1-.9-1.7-1.1-.6-.2-1.3-.4-2.3-.4h-7.9ZM7.2,18.9c-1,0-1.5-.2-1.8-.3-.4-.2-.7-.4-1.1-.7-.3-.3-.5-.6-.7-1.1-.1-.3-.3-.9-.3-1.8v-7.7c0-1,.2-1.5.3-1.8.2-.4.4-.7.7-1.1.3-.3.6-.5,1.1-.7.3-.1.9-.3,1.8-.3h7.7c1,0,1.5.2,1.8.3.4.2.7.4,1.1.7.3.3.5.6.7,1.1.1.3.3.9.3,1.8v7.7c0,1-.2,1.5-.3,1.8-.2.4-.4.7-.7,1.1-.3.3-.6.5-1.1.7-.3.1-.9.3-1.8.3h-7.7ZM15.1,6c0,.2,0,.4.2.6.1.2.3.3.5.4.2,0,.4.1.6,0,.2,0,.4-.1.6-.3.2-.2.3-.3.3-.6v-.6c0-.2-.2-.4-.4-.5-.2-.1-.4-.2-.6-.2s-.6.1-.9.3c-.2.2-.3.5-.3.9h-.1ZM6.1,11.1c0,2.8,2.2,4.9,4.9,4.9s4.9-2.2,4.9-4.9-2.2-4.9-4.9-4.9-4.9,2.2-4.9,4.9ZM7.8,11.1c0-.6.2-1.3.5-1.8.3-.5.9-1,1.4-1.2.5-.2,1.3-.3,1.8-.2.6.1,1.2.4,1.6.9.4.4.7,1.1.9,1.6.1.6,0,1.3-.2,1.8s-.6,1.1-1.2,1.5c-.5.3-1.2.5-1.8.5s-.9,0-1.2-.2c-.4-.1-.7-.4-1.1-.6-.3-.3-.5-.6-.7-1.1-.2-.4-.2-.9-.2-1.2h.2Z" fill="#0b2188"/>
</svg>