<svg width="140" height="54" viewBox="0 0 140 54" fill="none" xmlns="http://www.w3.org/2000/svg">
<path d="M110.975 13.3431C111.168 13.3589 111.361 13.3865 111.554 13.3865C114.305 13.3865 117.055 13.3865 119.806 13.3865H120.425C122.561 25.0508 124.689 36.6798 126.821 48.3126L126.939 48.3047V13.4022H130.647C129.161 11.9284 127.715 10.494 126.316 9.1069C127.908 7.51881 129.382 6.045 130.844 4.58301C132.227 5.97406 133.689 7.43999 135.143 8.90198C133.733 10.3049 132.278 11.7471 130.828 13.1894C130.86 13.2446 130.895 13.2998 130.927 13.3549H134.544V51.1735H119.581C119.369 50.0268 119.152 48.8643 118.939 47.7057C118.734 46.5945 118.537 45.4793 118.313 44.368C118.285 44.2261 118.104 44.0094 117.989 44.0094C116.378 43.9858 114.766 43.9936 113.099 43.9936C112.654 46.4014 112.216 48.7776 111.771 51.1893H104.016C104.26 49.8573 104.5 48.5569 104.737 47.2526C105.71 41.9287 106.683 36.6009 107.657 31.2771C108.733 25.3937 109.805 19.5142 110.884 13.6308C110.904 13.5283 110.951 13.4298 110.987 13.3313L110.971 13.3431H110.975ZM115.735 24.2391H115.621C115.042 28.2546 114.459 32.2662 113.875 36.3133H117.485C116.898 32.2623 116.319 28.2507 115.735 24.2391Z" fill="#1D2088"/>
<path d="M83.4036 51.2011H75.2936C73.3902 44.7187 71.4829 38.2245 69.5716 31.7263C69.5283 31.7342 69.481 31.7421 69.4377 31.75V51.1853H62.2734V13.418H70.3637C72.2671 19.8964 74.1744 26.3907 76.0817 32.8888C76.1251 32.8809 76.1684 32.8731 76.2157 32.8652V13.4259H83.4036V51.205V51.2011Z" fill="#1D2088"/>
<path d="M37.794 13.383H45.4272V51.1858H37.8295V36.0182H31.5046V51.174H23.8281V13.383H31.5322L31.5125 13.3672C31.5007 13.5091 31.481 13.647 31.481 13.7888C31.481 18.3955 31.481 23.0021 31.481 27.6088C31.481 27.7427 31.5007 27.8807 31.5125 28.0225H37.8098V13.3672L37.794 13.383Z" fill="#1D2088"/>
<path d="M20.3101 27.3325H12.6966C12.6966 27.1236 12.6966 26.9345 12.6966 26.7453C12.6966 25.3109 12.7005 23.8765 12.6966 22.4421C12.6927 21.1102 11.7351 20.1092 10.4228 20.0541C8.89382 19.9871 7.818 20.8658 7.70372 22.2766C7.69584 22.3633 7.69978 22.4539 7.69978 22.5406C7.69978 29.4841 7.7116 36.4315 7.6919 43.3749C7.68402 45.6329 10.0327 46.4408 11.5617 45.5384C12.3262 45.0852 12.7005 44.4035 12.7005 43.5129C12.7005 41.5465 12.7005 39.5801 12.7005 37.6137C12.7005 37.4245 12.7005 37.2314 12.7005 37.0108H20.3101C20.3298 37.1369 20.3613 37.2511 20.3613 37.3694C20.3574 39.6904 20.3928 42.0115 20.3337 44.3325C20.2194 48.8367 17.0353 52.5094 12.5902 53.3291C10.2179 53.7665 7.87711 53.6483 5.66243 52.6434C1.91087 50.945 0.0941976 47.8988 0.0508497 43.8754C-0.0279646 36.7546 -0.000379583 29.6338 0.0350869 22.5091C0.0626719 17.3823 3.50292 13.5677 8.62191 12.9451C11.9203 12.5431 14.9546 13.1934 17.4491 15.5262C19.4195 17.3665 20.2943 19.7152 20.3495 22.3751C20.381 23.9159 20.3574 25.4567 20.3574 26.9975C20.3574 27.1 20.3298 27.2024 20.3061 27.3325H20.3101Z" fill="#1D2088"/>
<path d="M104.499 13.3271C104.522 13.4454 104.566 13.5636 104.566 13.6857C104.57 15.9359 104.566 18.186 104.566 20.4361C104.566 20.5386 104.546 20.645 104.53 20.8026C104.333 20.8144 104.144 20.8341 103.959 20.8341C102.576 20.8341 101.193 20.8617 99.8094 20.8223C99.2616 20.8065 99.1276 20.976 99.1316 21.508C99.1473 31.1271 99.1434 40.7463 99.1434 50.3655V51.1852H91.4944V20.8459H85.4297V13.3902H86.0523C91.9949 13.3902 97.9375 13.3902 103.88 13.3902C104.089 13.3902 104.298 13.3547 104.507 13.339L104.499 13.3311V13.3271Z" fill="#1D2088"/>
<path d="M50.061 51.1772V13.402H53.7455C52.2323 11.9321 50.7703 10.5135 49.3438 9.1303C50.9594 7.51857 52.4333 6.0487 53.8795 4.61035C55.2785 6.00929 56.7444 7.46734 58.2498 8.96873C56.8272 10.3795 55.377 11.8178 53.9268 13.2562C53.9465 13.2956 53.9701 13.335 53.9899 13.3744H57.6547V51.1812H50.0531L50.061 51.1772Z" fill="#1D2088"/>
<path d="M104.508 13.3349C104.536 13.1497 104.591 12.9645 104.591 12.7793C104.599 11.0454 104.595 9.31151 104.591 7.57761C104.591 7.32935 104.543 7.07715 104.941 7.07715C106.908 7.08503 108.87 7.08109 110.919 7.08109V7.67613C110.919 9.37456 110.919 11.073 110.919 12.7714C110.919 12.9645 110.947 13.1537 110.963 13.3468L110.979 13.3349C108.819 13.3349 106.656 13.3349 104.492 13.3349L104.5 13.3428L104.508 13.3349Z" fill="#1D2088"/>
<path d="M40.4219 6.70715C40.8672 4.62648 41.2967 2.6128 41.7381 0.543945C43.8109 0.9853 45.8285 1.41483 47.9132 1.85619C47.4718 3.91322 47.0423 5.94266 46.597 8.02333C44.5439 7.58592 42.5302 7.15639 40.4219 6.70715Z" fill="#1D2088"/>
<path d="M122.808 1.31618C122.37 3.36927 121.941 5.37901 121.495 7.47939C119.43 7.04198 117.401 6.6085 115.32 6.16715C115.762 4.0983 116.195 2.06885 116.64 0C118.698 0.441355 120.715 0.870888 122.812 1.31618H122.808Z" fill="#1D2088"/>
<path d="M31.5314 13.3827V7.12891H37.7932C37.7932 9.21746 37.7932 11.2981 37.7932 13.3827L37.8089 13.367C35.7125 13.367 33.6121 13.367 31.5156 13.367L31.5353 13.3827H31.5314Z" fill="#1D2088"/>
<path d="M138.111 47.4023C139.198 47.4102 140.006 48.2338 139.998 49.3293C139.991 50.4091 139.163 51.2208 138.071 51.2208C136.984 51.2208 136.16 50.4012 136.156 49.3175C136.156 48.2102 136.984 47.3984 138.111 47.4063V47.4023ZM139.723 49.3136C139.723 48.3836 139.005 47.6743 138.067 47.6703C137.161 47.6703 136.393 48.4348 136.408 49.3254C136.424 50.2002 137.173 50.9371 138.056 50.9411C138.99 50.9489 139.719 50.2317 139.723 49.3096V49.3136Z" fill="#1D2088"/>
<path d="M138.931 50.3307C138.171 50.5002 138.372 49.5426 137.871 49.4638C137.505 49.6648 138.017 50.2677 137.391 50.3859V48.2619C138.1 48.0885 138.75 48.1831 138.809 48.5456C138.861 48.8451 138.695 49.184 138.624 49.5071C138.569 49.4992 138.51 49.4914 138.455 49.4835C138.608 49.7593 138.762 50.0312 138.928 50.3347L138.931 50.3307ZM137.761 49.1998C138.045 49.0894 138.258 49.0185 138.459 48.92C138.49 48.9042 138.482 48.7072 138.451 48.6954C138.246 48.6126 138.029 48.5574 137.761 48.4786V49.1998Z" fill="#1D2088"/>
</svg>
