<svg width="168" height="64" viewBox="0 0 168 64" fill="none" xmlns="http://www.w3.org/2000/svg">
<path d="M132.534 15.9352C132.765 15.9541 132.995 15.987 133.226 15.987C136.511 15.987 139.796 15.987 143.081 15.987H143.82C146.371 29.9177 148.912 43.8059 151.458 57.6989L151.599 57.6895V16.0058H156.028C154.254 14.2457 152.526 12.5326 150.856 10.876C152.757 8.97934 154.517 7.21918 156.263 5.47314C157.915 7.13447 159.661 8.88521 161.398 10.6312C159.713 12.3067 157.976 14.0292 156.244 15.7517C156.282 15.8176 156.324 15.8835 156.362 15.9494H160.682V61.1157H142.813C142.558 59.7462 142.3 58.3578 142.045 56.9741C141.801 55.647 141.565 54.3151 141.297 52.9879C141.264 52.8185 141.048 52.5596 140.911 52.5596C138.986 52.5314 137.061 52.5408 135.071 52.5408C134.539 55.4164 134.016 58.2543 133.485 61.1345H124.223C124.514 59.5438 124.802 57.9907 125.084 56.4329C126.246 50.0747 127.409 43.7118 128.571 37.3536C129.856 30.3271 131.136 23.3053 132.426 16.2788C132.449 16.1564 132.506 16.0388 132.548 15.9211L132.529 15.9352H132.534ZM138.219 28.9482H138.083C137.391 33.7439 136.694 38.5349 135.998 43.3682H140.309C139.608 38.5302 138.916 33.7392 138.219 28.9482Z" fill="white"/>
<path d="M99.6024 61.1489H89.9168C87.6437 53.407 85.3658 45.651 83.0833 37.8904C83.0315 37.8998 82.975 37.9092 82.9233 37.9186V61.13H74.3672V16.0249H84.0293C86.3024 23.7621 88.5803 31.518 90.8581 39.2787C90.9099 39.2693 90.9616 39.2599 91.0181 39.2505V16.0343H99.6024V61.1536V61.1489Z" fill="white"/>
<path d="M45.1362 15.9822H54.2523V61.1297H45.1786V43.0152H37.6249V61.1156H28.457V15.9822H37.6579L37.6343 15.9634C37.6202 16.1328 37.5967 16.2975 37.5967 16.467C37.5967 21.9686 37.5967 27.4703 37.5967 32.9719C37.5967 33.1319 37.6202 33.2967 37.6343 33.4661H45.155V15.9634L45.1362 15.9822Z" fill="white"/>
<path d="M24.2559 32.643H15.1633C15.1633 32.3936 15.1633 32.1677 15.1633 31.9418C15.1633 30.2287 15.168 28.5156 15.1633 26.8025C15.1586 25.2118 14.015 24.0164 12.4477 23.9505C10.6217 23.8705 9.33687 24.92 9.20039 26.6048C9.19098 26.7084 9.19569 26.8166 9.19569 26.9202C9.19569 35.2127 9.2098 43.5099 9.18627 51.8024C9.17686 54.4991 11.9818 55.4639 13.8079 54.3861C14.7209 53.8449 15.168 53.0307 15.168 51.9671C15.168 49.6186 15.168 47.2702 15.168 44.9217C15.168 44.6958 15.168 44.4652 15.168 44.2017H24.2559C24.2794 44.3523 24.3171 44.4888 24.3171 44.63C24.3124 47.402 24.3547 50.174 24.2841 52.946C24.1476 58.3253 20.3449 62.7116 15.0362 63.6905C12.203 64.2129 9.40747 64.0717 6.76252 62.8716C2.28211 60.8432 0.112498 57.2052 0.0607288 52.4001C-0.0333975 43.8958 -0.000453328 35.3915 0.0419035 26.8825C0.0748477 20.7596 4.18346 16.2039 10.297 15.4603C14.2361 14.9803 17.86 15.7568 20.8391 18.543C23.1923 20.7408 24.2371 23.5458 24.303 26.7225C24.3406 28.5627 24.3124 30.4028 24.3124 32.243C24.3124 32.3654 24.2794 32.4877 24.2512 32.643H24.2559Z" fill="white"/>
<path d="M124.801 15.917C124.829 16.0582 124.881 16.1994 124.881 16.3453C124.886 19.0326 124.881 21.7199 124.881 24.4072C124.881 24.5295 124.858 24.6566 124.839 24.8448C124.604 24.859 124.378 24.8825 124.156 24.8825C122.505 24.8825 120.853 24.9154 119.201 24.8684C118.547 24.8495 118.386 25.0519 118.391 25.6873C118.41 37.1753 118.405 48.6634 118.405 60.1515V61.1304H109.27V24.8966H102.027V15.9923H102.771C109.868 15.9923 116.965 15.9923 124.062 15.9923C124.312 15.9923 124.561 15.9499 124.811 15.9311L124.801 15.9217V15.917Z" fill="white"/>
<path d="M59.7862 61.1207V16.0061H64.1866C62.3794 14.2506 60.6334 12.5564 58.9297 10.9045C60.8593 8.97959 62.6194 7.22415 64.3467 5.50635C66.0174 7.17708 67.7681 8.91841 69.566 10.7115C67.867 12.3964 66.1351 14.1142 64.4031 15.832C64.4267 15.879 64.4549 15.9261 64.4784 15.9731H68.8553V61.1254H59.7768L59.7862 61.1207Z" fill="white"/>
<path d="M124.812 15.9257C124.845 15.7046 124.911 15.4834 124.911 15.2622C124.92 13.1914 124.915 11.1206 124.911 9.04985C124.911 8.75335 124.854 8.45215 125.329 8.45215C127.678 8.46156 130.022 8.45685 132.469 8.45685V9.16751C132.469 11.1959 132.469 13.2243 132.469 15.2527C132.469 15.4834 132.502 15.7093 132.521 15.9399L132.54 15.9257C129.96 15.9257 127.377 15.9257 124.793 15.9257L124.802 15.9352L124.812 15.9257Z" fill="white"/>
<path d="M48.2695 8.01006C48.8013 5.52514 49.3143 3.12022 49.8414 0.649414C52.317 1.17652 54.7266 1.68951 57.2162 2.21661C56.6891 4.6733 56.1761 7.09704 55.6443 9.58197C53.1923 9.05957 50.7874 8.54658 48.2695 8.01006Z" fill="white"/>
<path d="M146.661 1.5719C146.138 4.02388 145.625 6.42409 145.094 8.93255C142.627 8.41015 140.204 7.89246 137.719 7.36535C138.246 4.89455 138.764 2.47081 139.295 0C141.752 0.527105 144.162 1.04009 146.665 1.5719H146.661Z" fill="white"/>
<path d="M37.6594 15.9821V8.51318H45.1378C45.1378 11.0075 45.1378 13.4924 45.1378 15.9821L45.1566 15.9633C42.6528 15.9633 40.1444 15.9633 37.6406 15.9633L37.6642 15.9821H37.6594Z" fill="white"/>
<path d="M164.948 56.6118C166.247 56.6212 167.211 57.6048 167.202 58.9132C167.193 60.2027 166.204 61.1722 164.901 61.1722C163.602 61.1722 162.618 60.1933 162.613 58.8991C162.613 57.5766 163.602 56.6071 164.948 56.6165V56.6118ZM166.873 58.8944C166.873 57.7837 166.016 56.9366 164.896 56.9318C163.813 56.9318 162.896 57.8449 162.914 58.9085C162.933 59.9533 163.828 60.8334 164.882 60.8381C165.997 60.8475 166.868 59.9909 166.873 58.8897V58.8944Z" fill="white"/>
<path d="M165.926 60.1084C165.018 60.3108 165.258 59.1671 164.66 59.073C164.222 59.313 164.834 60.0331 164.086 60.1743V57.6376C164.933 57.4305 165.71 57.5435 165.78 57.9765C165.841 58.3341 165.644 58.7389 165.559 59.1248C165.493 59.1154 165.423 59.106 165.357 59.0966C165.54 59.426 165.724 59.7507 165.921 60.1131L165.926 60.1084ZM164.528 58.7577C164.867 58.6259 165.121 58.5412 165.361 58.4236C165.399 58.4047 165.39 58.1694 165.352 58.1553C165.107 58.0565 164.848 57.9906 164.528 57.8964V58.7577Z" fill="white"/>
</svg>
