<svg width="346" height="523" viewBox="0 0 346 523" fill="none" xmlns="http://www.w3.org/2000/svg">
<path d="M133.268 149.576C83.7887 197.738 54.1646 275.66 49.8482 315.007C48.8487 324.049 47.7583 343.859 58.0722 348.084C58.3902 352.537 63.797 357.762 68.5223 356.944C73.0205 363.351 91.1039 363.578 97.9192 347.494C105.961 335.044 106.325 314.28 108.279 308.01C116.593 278.023 127.452 242.583 139.22 220.637H253.173C264.941 242.628 275.8 278.023 284.115 308.01C286.069 314.28 286.432 335.09 294.474 347.494C301.335 363.578 319.418 363.351 323.871 356.944C328.596 357.762 334.003 352.537 334.321 348.084C344.635 343.813 343.545 324.049 342.545 315.007C338.229 275.66 308.605 197.783 259.125 149.576H133.223" fill="#B0D7F2"/>
<path d="M342.584 315.007L344.72 314.78C342.493 294.743 333.951 265.301 319.775 234.723C305.554 204.145 285.699 172.385 260.664 148.077C260.255 147.668 259.709 147.486 259.164 147.486H133.262C132.717 147.486 132.171 147.714 131.762 148.077C106.773 172.43 86.872 204.145 72.6506 234.723C58.4293 265.301 49.8873 294.743 47.7064 314.78C47.3884 317.552 47.0703 321.368 47.0703 325.457C47.0703 330.183 47.4793 335.272 48.8878 339.77C49.6148 341.996 50.5689 344.086 51.932 345.904C53.295 347.721 55.067 349.22 57.2479 350.084L58.0657 348.084L55.9303 348.266C56.1575 351.083 57.6568 353.628 59.7014 355.672C61.7915 357.671 64.4722 359.171 67.471 359.171C67.9253 359.171 68.4251 359.171 68.8795 359.034L68.516 356.944L66.744 358.171C69.0158 361.397 73.105 363.124 77.8757 363.124C79.8749 363.124 81.9649 362.851 84.1913 362.215L83.6007 360.125L81.4652 360.443C84.9637 385.342 95.3685 405.697 114.133 419.691C132.898 433.64 159.796 441.182 196.19 441.182C232.584 441.182 259.482 433.64 278.247 419.691C297.012 405.697 307.417 385.342 310.916 360.443L308.78 360.125L308.189 362.215C310.37 362.806 312.46 363.124 314.459 363.124C319.23 363.124 323.319 361.397 325.591 358.171L323.819 356.944L323.456 359.034C323.91 359.125 324.41 359.171 324.864 359.171C327.908 359.171 330.589 357.626 332.634 355.672C334.678 353.673 336.178 351.083 336.45 348.266L334.315 348.084L335.133 350.084C337.314 349.175 339.086 347.675 340.449 345.904C342.493 343.177 343.629 339.815 344.356 336.317C345.038 332.773 345.31 329.047 345.31 325.503C345.31 321.414 344.992 317.597 344.674 314.826L342.539 315.053L340.403 315.28C340.676 317.961 340.994 321.596 340.994 325.503C340.994 329.956 340.585 334.681 339.358 338.498C338.768 340.406 337.995 342.041 336.996 343.359C335.996 344.677 334.906 345.586 333.452 346.176C332.725 346.494 332.179 347.176 332.134 347.994C332.043 349.311 331.089 351.22 329.635 352.628C328.181 354.082 326.318 354.945 324.864 354.945H324.183C323.365 354.763 322.547 355.082 322.047 355.763C320.82 357.535 318.185 358.898 314.414 358.898C312.869 358.898 311.143 358.671 309.325 358.126C308.735 357.944 308.099 358.035 307.599 358.398C307.053 358.716 306.735 359.262 306.645 359.898C303.191 383.979 293.377 403.061 275.657 416.283C257.892 429.505 231.994 436.956 196.19 436.956C160.387 436.956 134.443 429.505 116.678 416.283C98.9579 403.061 89.1438 383.979 85.6907 359.898C85.5998 359.262 85.2363 358.762 84.7366 358.398C84.2368 358.08 83.6007 357.944 82.9646 358.126C81.1017 358.625 79.3751 358.898 77.7849 358.898C74.0137 358.898 71.3784 357.535 70.1517 355.763C69.6973 355.082 68.834 354.763 68.0162 354.9H67.3347C65.8807 354.991 64.0178 354.082 62.5639 352.628C61.0645 351.22 60.1104 349.311 60.0649 347.994C60.0195 347.176 59.4743 346.494 58.7473 346.176C57.3388 345.586 56.2029 344.677 55.2033 343.359C53.7494 341.451 52.7044 338.634 52.0683 335.499C51.4322 332.364 51.205 328.865 51.205 325.503C51.205 321.641 51.5231 318.006 51.7957 315.325C53.9311 296.015 62.3368 266.846 76.3764 236.586C90.416 206.371 110.09 175.02 134.58 151.212L133.08 149.667V151.803H258.982V149.667L257.483 151.212C281.973 175.02 301.601 206.371 315.686 236.586C329.726 266.8 338.131 296.015 340.267 315.325L342.402 315.098" fill="#1D2088"/>
<path d="M325.933 357.444C326.841 353.4 327.25 349.538 327.25 345.813C327.25 345.086 327.25 344.404 327.25 343.677C327.205 342.496 326.205 341.587 325.024 341.632C323.843 341.678 322.934 342.677 322.979 343.859C322.979 344.495 322.979 345.131 322.979 345.813C322.979 349.22 322.57 352.764 321.752 356.535C321.525 357.717 322.252 358.853 323.388 359.08C324.524 359.307 325.705 358.58 325.933 357.444Z" fill="#1D2088"/>
<path d="M336.498 348.494C337.18 344.95 337.452 341.542 337.452 338.271C337.452 337.044 337.452 335.863 337.316 334.727C337.225 333.546 336.225 332.637 334.999 332.728C333.817 332.819 332.909 333.818 333 335C333.09 336.09 333.136 337.181 333.136 338.271C333.136 341.27 332.863 344.405 332.227 347.722C332 348.903 332.772 349.993 333.954 350.221C335.135 350.448 336.226 349.675 336.453 348.494" fill="#1D2088"/>
<path d="M70.6901 356.535C69.8723 352.764 69.4634 349.22 69.4634 345.813C69.4634 345.131 69.4634 344.495 69.4634 343.859C69.5088 342.677 68.6001 341.678 67.4188 341.632C66.2374 341.587 65.2378 342.496 65.147 343.677C65.147 344.404 65.1016 345.086 65.1016 345.813C65.1016 349.538 65.5559 353.4 66.4192 357.444C66.6918 358.625 67.8277 359.352 68.9636 359.08C70.0994 358.807 70.8719 357.671 70.5992 356.535" fill="#1D2088"/>
<path d="M60.1953 347.722C59.5592 344.45 59.2866 341.315 59.2866 338.316C59.2866 337.18 59.2866 336.09 59.4229 335C59.5138 333.818 58.6051 332.773 57.4692 332.682C56.2879 332.591 55.2428 333.455 55.1519 334.636C55.0611 335.817 55.0156 337.044 55.0156 338.271C55.0156 341.542 55.3337 344.95 56.0152 348.448C56.2424 349.63 57.3329 350.402 58.5142 350.175C59.6955 349.948 60.468 348.812 60.2408 347.676" fill="#1D2088"/>
<path d="M301.656 295.834C307.427 290.745 326.237 285.157 336.233 284.521C338.187 291.472 339.777 298.151 340.867 304.421C328.372 305.694 313.742 311.509 306.609 316.325L301.656 295.834Z" fill="#1D2088"/>
<path d="M289.092 253.851C295.59 250.443 310.447 244.627 320.852 242.628C324.396 250.67 327.622 258.667 330.393 266.482C321.124 268.344 302.223 274.251 297.998 277.023C294.681 268.753 289.047 253.805 289.047 253.805" fill="#1D2088"/>
<path d="M271.241 218.094C276.875 213.232 291.823 206.916 301.728 205.235C305.636 211.914 309.361 218.73 312.814 225.636C303.5 227.999 286.28 234.632 282.236 238.403C277.693 229.134 271.195 218.094 271.195 218.094" fill="#1D2088"/>
<path d="M90.7955 295.834C84.9797 290.745 66.2148 285.157 56.1735 284.521C54.2198 291.472 52.675 298.151 51.5391 304.421C64.0339 305.694 78.6642 311.509 85.7976 316.325L90.7501 295.834" fill="#1D2088"/>
<path d="M103.304 253.851C96.807 250.443 81.995 244.627 71.5448 242.628C68.0008 250.67 64.7794 258.667 62.0078 266.482C71.2722 268.344 90.1325 274.251 94.4034 277.023C97.6748 268.753 103.304 253.805 103.304 253.805" fill="#1D2088"/>
<path d="M121.158 218.094C115.524 213.232 100.621 206.916 90.6708 205.235C86.7633 211.914 83.0376 218.73 79.5391 225.636C88.8534 227.999 106.074 234.632 110.117 238.403C114.706 229.134 121.158 218.094 121.158 218.094Z" fill="#1D2088"/>
<path d="M94.731 384.706C87.5976 389.522 77.3292 395.746 66.6064 395.746C55.8835 395.746 50.2949 386.568 32.575 388.113C20.9435 389.158 8.58495 394.792 4.22312 404.061C-4.04618 421.645 13.8555 439.092 36.9823 427.051C46.1148 422.281 53.0665 424.734 60.8814 429.323C72.6493 436.275 93.0045 433.094 116.268 413.739L94.7765 384.66" fill="#B0D7F2"/>
<path d="M45.224 389.385C41.0893 388.022 39.1356 387.522 32.502 388.113C30.3211 388.295 28.231 388.749 26.141 389.34C21.5066 399.744 23.6421 416.646 33.0472 428.823C34.3194 428.323 35.5916 427.733 36.9092 427.051C42.2707 424.234 46.9506 423.961 51.4487 425.143C42.5888 412.421 40.4987 398.836 45.224 389.385Z" fill="#1D2088"/>
<path d="M81.9048 392.066C77.134 394.202 71.909 395.747 66.5476 395.747C65.7752 395.747 65.0028 395.701 64.2758 395.61C63.4579 405.697 66.4113 424.235 78.0428 432.504C83.4951 431.505 90.265 430.187 96.626 426.734C86.5847 419.464 82.45 404.561 81.9048 392.066Z" fill="#1D2088"/>
<path d="M196.217 432.278V478.395C196.217 486.982 189.629 498.704 174.362 507.473C146.328 523.558 118.976 521.149 107.799 518.56C80.4011 512.244 85.081 489.39 96.3491 475.896C104.3 466.309 113.024 458.403 116.795 445.09C120.248 432.914 114.705 417.147 111.388 408.606L113.024 398.837L192.991 417.465L196.217 432.323" fill="#B0D7F2"/>
<path d="M196.22 432.277H194.084V478.394C194.13 485.891 188.132 497.113 173.32 505.61C155.918 515.56 138.834 518.286 125.84 518.286C118.343 518.286 112.209 517.377 108.302 516.469C101.123 514.833 96.4883 512.061 93.6713 508.836C90.8542 505.61 89.6729 501.839 89.6275 497.704C89.6275 490.843 93.1261 483.074 98.0331 477.258C101.941 472.533 106.166 468.125 109.892 463.173C113.618 458.175 116.889 452.632 118.888 445.635C119.706 442.681 120.069 439.592 120.069 436.502C120.069 425.688 116.026 414.511 113.436 407.787L111.437 408.559L113.527 408.923L114.799 401.38L191.176 419.191L194.13 432.731L196.22 432.277L198.31 431.822L195.084 416.919C194.902 416.102 194.266 415.465 193.448 415.284L113.481 396.655C112.891 396.519 112.3 396.655 111.8 396.973C111.3 397.291 110.982 397.836 110.891 398.382L109.256 408.15L109.347 409.286C111.891 415.874 115.708 426.734 115.708 436.457C115.708 439.228 115.39 441.954 114.708 444.408C112.891 450.769 109.983 455.812 106.393 460.492C102.849 465.217 98.7146 469.534 94.6709 474.395C89.3094 480.847 85.2656 489.298 85.2656 497.568C85.2656 502.52 86.7651 507.473 90.3545 511.516C93.9439 515.606 99.4871 518.741 107.257 520.513C111.528 521.467 117.934 522.421 125.749 522.421C139.334 522.421 157.19 519.604 175.365 509.199C191.085 500.157 198.264 487.935 198.31 478.257V431.731L196.174 432.186" fill="#1D2088"/>
<path d="M196.225 432.278V478.395C196.225 486.982 202.813 498.704 218.08 507.473C246.114 523.558 273.466 521.149 284.643 518.56C312.041 512.244 307.315 489.39 296.047 475.896C288.096 466.309 279.418 458.403 275.601 445.09C272.148 432.914 277.691 417.147 281.008 408.606L279.327 398.837L199.406 417.465L196.18 432.323" fill="#B0D7F2"/>
<path d="M196.237 432.277H194.102V478.394C194.147 488.072 201.326 500.294 217.047 509.29C235.221 519.74 253.077 522.557 266.662 522.557C274.477 522.557 280.884 521.603 285.155 520.649C292.924 518.877 298.467 515.742 302.057 511.653C305.646 507.563 307.191 502.656 307.146 497.704C307.146 489.389 303.102 480.984 297.74 474.532C293.697 469.67 289.562 465.308 286.018 460.628C282.474 455.903 279.521 450.86 277.703 444.544C277.022 442.091 276.704 439.365 276.704 436.593C276.704 426.824 280.475 415.965 283.065 409.423L283.201 408.287L281.565 398.518C281.474 397.927 281.111 397.428 280.657 397.064C280.157 396.746 279.566 396.61 278.976 396.746L199.054 415.375C198.236 415.556 197.6 416.192 197.464 417.01L194.238 431.913V432.368H196.328L198.418 432.822L201.371 419.282L277.749 401.471L279.021 409.014L281.156 408.65L279.157 407.878C276.567 414.602 272.524 425.779 272.524 436.638C272.524 439.728 272.842 442.818 273.705 445.771C275.659 452.723 278.975 458.311 282.701 463.309C286.472 468.262 290.652 472.669 294.56 477.394C299.422 483.21 302.966 490.979 302.966 497.84C302.966 501.975 301.784 505.746 298.967 508.972C296.105 512.198 291.47 514.969 284.337 516.605C280.384 517.514 274.296 518.422 266.799 518.422C253.804 518.422 236.72 515.696 219.318 505.746C204.506 497.25 198.509 486.027 198.554 478.53V432.413H196.419" fill="#1D2088"/>
<path d="M266.93 205.371C275.971 220.865 313.683 286.11 309.957 349.038C306.64 404.606 273.79 439.092 196.232 439.092C118.673 439.092 85.8683 404.606 82.506 349.038C78.7349 286.11 116.492 220.865 125.534 205.371" fill="#B0D7F2"/>
<path d="M147.79 455.63C156.15 454.676 157.831 446.725 149.425 445.362C141.929 444.09 130.115 440.5 117.711 433.049C118.12 440.046 117.711 443.181 115.258 449.406C125.844 454.722 139.339 456.63 147.744 455.63" fill="#1D2088"/>
<path d="M138.68 474.986C147.09 472.441 146.313 465.49 138.862 465.58C130.183 465.671 121.551 463.672 110.737 458.038C107.92 462.718 104.694 466.217 101.195 470.26C114.376 477.257 130.229 477.53 138.68 474.986Z" fill="#1D2088"/>
<path d="M244.604 455.63C236.243 454.676 234.562 446.725 242.968 445.362C250.465 444.09 262.278 440.5 274.682 433.049C274.228 440.046 274.682 443.181 277.136 449.406C266.549 454.722 253.055 456.63 244.649 455.63" fill="#1D2088"/>
<path d="M253.696 474.986C245.29 472.441 246.062 465.49 253.514 465.58C262.192 465.671 270.825 463.672 281.639 458.038C284.456 462.718 287.681 466.217 291.225 470.26C278.049 477.257 262.192 477.53 253.741 474.986" fill="#1D2088"/>
<path d="M102.131 493.206C99.4498 496.386 98.3594 500.294 98.3594 504.065C98.3594 507.927 99.4453 511.698 101.172 514.697C102.898 517.696 105.216 520.104 108.26 520.831C109.396 521.103 110.582 520.376 110.854 519.195C111.122 518.014 110.395 516.878 109.214 516.605C108.033 516.378 106.265 514.924 104.902 512.561C103.539 510.199 102.626 507.109 102.671 504.019C102.671 501.066 103.494 498.249 105.402 495.977C106.174 495.069 106.033 493.705 105.175 492.933C104.261 492.161 102.903 492.297 102.131 493.206Z" fill="#1D2088"/>
<path d="M120.398 498.113C118.126 501.612 117.172 505.246 117.172 508.609C117.172 512.289 118.308 515.56 120.08 518.059C121.852 520.513 124.442 522.33 127.395 522.33C128.576 522.33 129.53 521.376 129.53 520.195C129.53 519.013 128.576 518.059 127.395 518.059C126.259 518.059 124.805 517.287 123.533 515.56C122.306 513.879 121.443 511.38 121.443 508.609C121.443 506.064 122.17 503.247 123.987 500.43C124.623 499.431 124.351 498.113 123.351 497.477C122.352 496.841 121.034 497.113 120.398 498.113Z" fill="#1D2088"/>
<path d="M287.025 495.978C288.933 498.249 289.751 501.066 289.751 504.02C289.751 507.064 288.843 510.199 287.479 512.562C286.162 514.924 284.344 516.424 283.208 516.605C282.073 516.878 281.346 518.014 281.573 519.195C281.845 520.331 282.981 521.058 284.163 520.831C287.207 520.104 289.524 517.696 291.251 514.697C292.977 511.653 294.068 507.927 294.068 504.065C294.068 500.339 293.023 496.432 290.296 493.251C289.524 492.343 288.161 492.252 287.252 492.979C286.344 493.751 286.253 495.114 287.025 496.023" fill="#1D2088"/>
<path d="M268.434 500.476C270.251 503.293 270.978 506.11 270.978 508.654C270.978 511.426 270.115 513.88 268.888 515.606C267.661 517.333 266.162 518.105 265.026 518.105C263.845 518.105 262.891 519.059 262.891 520.286C262.891 521.513 263.845 522.421 265.026 522.421C268.025 522.421 270.569 520.65 272.341 518.196C274.159 515.697 275.249 512.38 275.249 508.745C275.249 505.383 274.295 501.703 272.023 498.25C271.387 497.25 270.024 496.978 269.07 497.614C268.07 498.25 267.798 499.613 268.434 500.567" fill="#1D2088"/>
<path d="M196.228 384.933C226.125 384.933 270.652 368.621 268.198 304.103C265.745 238.812 232.486 198.374 196.228 198.374C159.97 198.374 126.666 238.812 124.258 304.103C121.85 368.621 166.331 384.933 196.228 384.933Z" fill="white"/>
<path d="M91.0531 387.068L89.9172 385.251C83.2836 389.431 74.9235 393.566 66.6088 393.566C62.2469 393.566 58.7483 391.839 54.2048 389.84C49.7066 387.841 44.2544 385.751 36.5303 385.751C35.2126 385.751 33.8496 385.796 32.3957 385.932C26.3073 386.478 20.0826 388.204 14.6757 391.067C9.3143 393.929 4.72531 397.927 2.27179 403.107C0.726971 406.333 0 409.65 0 412.83C0 418.419 2.3172 423.553 6.22467 427.233C10.1321 430.914 15.6753 433.14 22.0363 433.14C26.9434 433.14 32.3503 431.822 37.9388 428.914C41.1648 427.233 43.9817 426.597 46.617 426.597C50.888 426.597 55.0226 428.369 59.7479 431.186C63.8371 433.594 68.7443 434.867 74.2874 434.867C85.6463 434.867 99.5042 429.641 114.543 417.919C115.043 417.51 115.361 416.92 115.361 416.238C115.361 415.556 115.089 414.966 114.543 414.557C105.002 406.878 97.914 397.428 93.0069 386.25C92.7343 385.705 92.2799 385.251 91.6892 385.069C91.0986 384.887 90.417 384.978 89.9172 385.296L91.0531 387.114L89.0994 387.977C94.2791 399.699 101.776 409.786 111.863 417.919L113.226 416.238L111.908 414.557C97.4142 425.916 84.2833 430.596 74.2874 430.596C69.3804 430.596 65.2457 429.505 61.9289 427.506C57.0218 424.598 52.1147 422.326 46.617 422.326C43.2093 422.326 39.6654 423.19 35.9397 425.143C30.8509 427.779 26.171 428.869 22.0363 428.869C16.6749 428.869 12.2222 427.006 9.13259 424.144C6.04296 421.236 4.27093 417.283 4.27093 412.83C4.27093 410.331 4.86161 407.696 6.13381 404.97C8.04211 400.926 11.8133 397.428 16.6749 394.883C21.4911 392.339 27.216 390.749 32.7591 390.249C34.0767 390.113 35.3035 390.067 36.4849 390.067C43.4365 390.067 48.071 391.885 52.4328 393.793C56.7946 395.701 60.9747 397.882 66.5633 397.882C76.332 397.882 85.2374 393.248 92.189 388.886L91.0531 387.068Z" fill="#1D2088"/>
<path d="M267.015 209.733C277.919 228.634 308.138 284.566 308.093 340.042C308.093 342.996 307.998 345.904 307.816 348.857C306.18 376.255 297.325 398.109 279.559 413.239C261.794 428.369 234.714 436.911 196.276 436.911C157.792 436.911 130.757 428.324 112.992 413.239C95.2267 398.109 86.3668 376.3 84.7311 348.857C84.5493 345.904 84.4585 342.996 84.4585 340.042C84.4585 284.566 114.669 228.589 125.528 209.733C126.118 208.688 125.755 207.371 124.755 206.78C123.71 206.189 122.397 206.553 121.807 207.552C110.811 226.681 80.1875 283.021 80.1875 339.997C80.1875 343.041 80.2738 346.04 80.4555 349.084C82.1366 377.254 91.3647 400.426 110.221 416.465C129.076 432.504 157.242 441.182 196.317 441.182C235.391 441.182 263.561 432.504 282.417 416.465C301.273 400.426 310.542 377.254 312.178 349.084C312.359 346.085 312.45 343.041 312.45 340.042C312.45 283.066 281.827 226.726 270.831 207.552C270.241 206.507 268.923 206.189 267.878 206.78C266.878 207.371 266.515 208.688 267.105 209.733" fill="#1D2088"/>
<path d="M130.666 153.166C139.118 195.785 182.958 265.665 236.118 306.966L221.765 314.735C171.013 275.297 128.758 209.824 117.672 166.933C117.672 166.933 130.576 152.576 130.666 153.166Z" fill="#FFF100"/>
<path d="M272.462 299.65L272.053 296.879L269.281 297.288L269.69 300.059L272.462 299.65Z" fill="#1D2088"/>
<path d="M120.753 325.322C119.662 320.733 102.851 323.05 82.632 320.278C82.632 320.278 79.8149 343.859 81.4961 348.448C101.806 343.587 122.343 331.955 120.753 325.322Z" fill="#1D2088"/>
<path d="M127.783 359.625C123.83 356.172 108.927 370.847 87.3906 380.48C87.3906 380.48 94.3423 399.654 102.566 407.65C119.468 392.157 133.599 364.759 127.783 359.579" fill="#1D2088"/>
<path d="M122.272 287.02C120.409 292.108 105.052 292.063 88.9219 288.201L96.2825 264.302C110.504 276.16 123.771 282.885 122.226 287.02" fill="#1D2088"/>
<path d="M269.61 325.322C270.701 320.733 287.512 323.05 307.731 320.278C307.731 320.278 310.548 343.859 308.867 348.448C288.557 343.587 268.02 331.955 269.61 325.322Z" fill="#1D2088"/>
<path d="M261.346 359.625C265.299 356.172 280.202 370.847 301.739 380.48C301.739 380.48 294.787 399.654 286.563 407.65C269.661 392.157 255.531 364.759 261.346 359.579" fill="#1D2088"/>
<path d="M268.992 287.02C270.854 292.108 286.212 292.063 302.341 288.201L294.981 264.302C280.759 276.16 267.492 282.885 269.037 287.02" fill="#1D2088"/>
<path d="M296.513 268.346C299.057 275.979 300.42 279.932 300.466 280.204C300.284 285.975 299.557 293.153 293.923 304.24C289.243 302.422 281.383 294.925 281.383 294.925C285.699 288.428 289.289 272.798 289.925 251.171C289.925 251.171 294.105 261.167 296.513 268.346Z" fill="#FFF100"/>
<path d="M226.681 304.103C216.594 306.011 209.37 306.92 211.778 322.095C214.732 340.542 232.361 367.44 266.301 360.716C300.514 353.9 299.015 318.052 297.561 307.692C296.198 297.833 292.745 294.425 280.84 295.743C268.936 297.106 238.631 301.831 226.681 304.103Z" fill="#FFF100"/>
<path d="M130.668 153.166L128.578 153.575C132.894 175.338 146.07 203.599 164.835 231.724C183.6 259.849 207.999 287.791 234.806 308.646L236.124 306.965L235.079 305.102L220.721 312.872L221.766 314.78L223.084 313.054C197.958 293.516 174.831 267.482 156.611 240.947C138.437 214.458 125.17 187.515 119.763 166.388L117.673 166.933L119.263 168.387C119.263 168.387 122.353 164.934 125.488 161.526C127.078 159.799 128.669 158.073 129.895 156.846C130.486 156.21 131.031 155.665 131.395 155.347L131.758 155.029L130.986 153.984L131.576 155.12L131.713 155.029L130.94 153.984L131.531 155.12L130.577 153.348V155.347C131.258 155.347 131.395 155.165 131.531 155.12L130.577 153.348V155.347V153.211L129.259 154.892C129.714 155.256 130.304 155.347 130.577 155.347V153.211L128.578 153.893C128.578 153.893 128.805 154.529 129.259 154.847L130.577 153.166L128.578 153.847L130.622 153.166L132.667 152.484C132.667 152.484 132.394 151.848 131.94 151.485C131.486 151.121 130.895 151.03 130.577 151.03C130.077 151.03 129.85 151.167 129.714 151.212L129.168 151.53C128.759 151.848 128.396 152.166 127.942 152.666C126.26 154.302 123.307 157.528 120.763 160.299C118.218 163.116 116.037 165.479 116.037 165.479C115.538 166.024 115.356 166.751 115.538 167.433C121.172 189.287 134.621 216.503 153.022 243.355C171.424 270.162 194.778 296.56 220.403 316.416C221.085 316.916 221.993 317.006 222.72 316.598L237.078 308.828C237.714 308.51 238.123 307.828 238.169 307.102C238.214 306.375 237.941 305.693 237.351 305.239C210.998 284.793 186.872 257.122 168.334 229.316C149.796 201.555 136.802 173.566 132.712 152.711L132.621 152.439L130.577 153.12" fill="#1D2088"/>
<path d="M296.479 268.346L294.435 269.027C295.707 272.844 296.706 275.752 297.343 277.705C297.661 278.705 297.933 279.432 298.07 279.932L298.251 280.477V280.568L299.887 280.204L298.251 280.295V280.613L299.887 280.25L298.251 280.341L300.387 280.25L298.251 280.159C298.024 285.793 297.433 292.472 291.936 303.286L293.844 304.285L294.616 302.286C292.799 301.604 289.664 299.333 287.21 297.288C285.938 296.243 284.848 295.289 284.075 294.562L283.121 293.699L282.803 293.381L281.304 294.925L283.076 296.107C285.529 292.426 287.483 286.702 289.073 279.114C290.618 271.571 291.663 262.121 291.981 251.216H289.846L287.847 251.989C287.847 251.989 288.892 254.488 290.255 257.85C291.618 261.212 293.253 265.529 294.435 269.027L298.524 267.664C296.07 260.394 291.89 250.353 291.89 250.353C291.481 249.399 290.527 248.899 289.528 249.081C288.528 249.263 287.801 250.126 287.756 251.126C287.438 261.803 286.393 271.026 284.939 278.296C283.485 285.566 281.485 290.882 279.577 293.744C278.987 294.607 279.123 295.789 279.895 296.47C279.895 296.47 281.894 298.424 284.53 300.559C287.165 302.74 290.3 305.148 293.117 306.239C294.162 306.648 295.298 306.193 295.798 305.194C301.614 293.88 302.386 286.156 302.568 280.25V280.068L302.477 279.568C302.386 279.25 302.295 278.887 302.068 278.296C301.477 276.524 300.296 273.025 298.478 267.664L296.434 268.346" fill="#1D2088"/>
<path d="M226.662 304.103L226.253 301.967C221.891 302.83 217.847 303.421 214.53 305.42C212.895 306.42 211.441 307.874 210.487 309.828C209.533 311.736 209.078 314.053 209.078 316.779C209.078 318.46 209.26 320.323 209.578 322.368C210.941 331.046 215.348 341.269 222.982 349.493C230.615 357.717 241.61 363.851 255.832 363.851C259.285 363.851 262.874 363.487 266.645 362.76C280.867 359.943 289.499 352.128 294.27 343.132C299.086 334.181 300.222 324.185 300.222 316.597C300.222 312.735 299.904 309.51 299.586 307.329C298.95 302.921 297.95 299.423 295.588 296.878C294.406 295.606 292.907 294.698 291.18 294.107C289.454 293.516 287.455 293.289 285.228 293.289C283.774 293.289 282.23 293.38 280.549 293.607C268.508 294.97 238.293 299.741 226.207 301.967L227.025 306.193C238.929 303.966 269.235 299.196 281.003 297.878C282.593 297.696 284.002 297.605 285.228 297.605C287.182 297.605 288.682 297.833 289.817 298.196C291.544 298.787 292.544 299.65 293.407 301.104C294.27 302.603 294.906 304.875 295.361 307.919C295.633 309.918 295.906 313.008 295.906 316.597C295.906 323.731 294.77 333.045 290.453 341.087C286.137 349.084 278.822 355.899 265.782 358.535C262.238 359.216 258.921 359.58 255.786 359.58C242.837 359.58 233.068 354.082 226.071 346.585C219.074 339.088 214.985 329.501 213.758 321.686C213.44 319.778 213.304 318.142 213.304 316.779C213.304 314.462 213.667 312.872 214.258 311.69C215.121 309.964 216.439 309.01 218.574 308.146C220.71 307.329 223.618 306.783 226.934 306.193L226.525 304.103" fill="#1D2088"/>
<path d="M226.077 296.833C215.9 298.741 207.585 301.058 210.629 316.052C213.673 331.091 231.257 352.446 265.425 345.676C299.774 338.906 298.865 310.736 297.366 300.377C295.957 290.517 292.504 287.11 280.509 288.427C268.56 289.79 238.072 294.516 226.077 296.787" fill="#FFF100"/>
<path d="M226.07 296.834L225.661 294.698C221.254 295.562 216.983 296.425 213.575 298.697C211.848 299.832 210.349 301.332 209.35 303.331C208.35 305.285 207.805 307.647 207.805 310.419C207.805 312.236 208.032 314.236 208.486 316.507C209.94 323.55 214.211 331.637 221.572 338.044C228.932 344.45 239.383 349.13 252.831 349.13C256.875 349.13 261.192 348.721 265.781 347.812C280.138 344.995 288.907 338.407 293.86 330.729C298.812 323.095 300.039 314.599 300.039 308.011C300.039 304.876 299.767 302.15 299.449 300.105C298.812 295.698 297.813 292.199 295.405 289.655C294.223 288.383 292.724 287.474 290.952 286.883C289.225 286.293 287.226 286.065 284.955 286.065C283.501 286.065 281.956 286.156 280.229 286.338C268.143 287.701 237.747 292.426 225.615 294.698L226.024 296.834L226.433 298.924C238.383 296.697 268.87 291.927 280.729 290.609C282.319 290.427 283.728 290.336 284.955 290.336C286.908 290.336 288.408 290.564 289.589 290.927C291.316 291.518 292.315 292.381 293.224 293.88C294.087 295.38 294.723 297.652 295.178 300.696C295.45 302.604 295.677 305.148 295.677 308.011C295.677 314.099 294.541 321.732 290.225 328.411C285.863 335.045 278.366 340.952 264.917 343.587C260.601 344.45 256.557 344.814 252.786 344.814C240.291 344.814 230.977 340.543 224.343 334.772C217.71 329.002 213.848 321.641 212.666 315.599C212.257 313.599 212.076 311.827 212.076 310.373C212.076 308.147 212.485 306.511 213.121 305.239C214.075 303.376 215.62 302.15 217.937 301.15C220.209 300.15 223.162 299.514 226.388 298.924L225.979 296.834" fill="#1D2088"/>
<path d="M266.173 326.411C266.082 329.092 263.856 331.182 261.22 331.136C258.54 331.046 256.404 328.819 256.495 326.184C256.586 323.503 258.767 321.413 261.493 321.459C264.174 321.504 266.264 323.73 266.218 326.411" fill="white"/>
<path d="M266.183 326.412H264.82C264.82 328.275 263.23 329.774 261.321 329.774H261.23C259.368 329.729 257.868 328.184 257.868 326.276V326.185C257.914 324.277 259.458 322.777 261.367 322.777H261.458C263.32 322.823 264.865 324.368 264.865 326.276V326.367H266.228L267.591 326.412V326.276C267.591 322.914 264.911 320.188 261.548 320.097H261.367C258.005 320.097 255.278 322.777 255.188 326.14V326.321C255.188 329.684 257.868 332.41 261.23 332.501H261.412C264.774 332.501 267.501 329.82 267.591 326.458H266.228" fill="#1D2088"/>
<path d="M230.777 316.189L231.186 319.097C231.277 319.687 230.868 320.187 230.232 320.278C229.595 320.369 229.05 320.006 229.005 319.415L227.687 310.101C227.642 309.51 228.005 309.01 228.641 308.919C229.277 308.828 229.777 309.192 229.868 309.782L230.186 312.009L233.548 311.554L233.276 309.51C232.912 306.965 230.822 305.421 228.187 305.784C225.552 306.148 223.961 308.238 224.325 310.737L225.643 320.005C226.006 322.55 228.096 324.095 230.731 323.731C233.367 323.368 234.957 321.278 234.593 318.733L234.184 315.78L230.822 316.234" fill="#1D2088"/>
<path d="M259.203 318.552L262.747 318.052L260.385 301.377L257.204 301.831L258.476 310.6L254.66 302.195L251.07 302.74L253.433 319.369L256.613 318.915L255.387 310.191L259.203 318.552Z" fill="#1D2088"/>
<path d="M251.428 319.688L249.065 303.013L245.703 303.467L248.066 320.142L251.428 319.688Z" fill="#1D2088"/>
<path d="M240.298 304.239L241.252 310.691L238.435 311.1L237.526 304.648L234.164 305.148L236.527 321.777L239.934 321.323L238.98 314.598L241.752 314.189L242.706 320.914L246.068 320.414L243.706 303.739L240.298 304.239Z" fill="#1D2088"/>
<path d="M269.709 300.059L261.258 301.285L261.712 304.557L264.393 304.148L266.301 317.551L269.709 317.052L267.801 303.693L270.163 303.33L269.709 300.059Z" fill="#1D2088"/>
<path d="M240.298 304.239L239.934 301.468L237.117 301.877L237.526 304.648L240.298 304.239Z" fill="#1D2088"/>
<path d="M243.834 301.331L244.061 298.559L241.244 298.332L241.062 301.149L243.834 301.331Z" fill="#1D2088"/>
<path d="M249.062 301.014L246.836 299.287L245.109 301.559L247.381 303.24L249.062 301.014Z" fill="#1D2088"/>
<path d="M272.462 299.65L272.053 296.879L269.281 297.288L269.69 300.059L272.462 299.65Z" fill="#1D2088"/>
<path d="M276.74 296.379L276.922 293.607L274.151 293.38L273.969 296.197L276.74 296.379Z" fill="#1D2088"/>
<path d="M282.876 296.152L280.645 294.471L278.969 296.742L281.191 298.424L282.876 296.152Z" fill="#1D2088"/>
<path d="M279.529 298.651L281.755 314.281L276.666 299.06L272.486 299.65L271.805 316.734L275.212 316.234L275.349 312.963L277.621 312.645L278.666 315.734L285.299 314.78L282.936 298.105L279.574 298.605M275.258 304.012L276.848 309.373L275.258 309.601V304.012Z" fill="#1D2088"/>
<path d="M287.479 313.191L286.979 312.918H286.57L286.752 314.19H286.979L286.934 313.645H287.116L287.479 314.099H287.752L287.343 313.6L287.615 313.236M286.798 313.418V313.1H286.934L287.206 313.236L286.979 313.418H286.798Z" fill="#1D2088"/>
<path d="M286.874 312.418C286.284 312.509 285.875 313.054 285.966 313.645C286.057 314.235 286.602 314.644 287.192 314.553C287.783 314.463 288.192 313.917 288.101 313.327C288.01 312.736 287.465 312.327 286.874 312.418ZM287.147 314.417C286.647 314.508 286.193 314.144 286.102 313.645C286.011 313.145 286.375 312.691 286.874 312.6C287.374 312.509 287.829 312.872 287.919 313.372C288.01 313.872 287.647 314.326 287.147 314.417Z" fill="#1D2088"/>
<path d="M297.368 300.378C296.732 295.971 295.687 292.836 293.642 290.882C294.778 314.054 291.507 331.683 263.427 337.226C235.303 342.769 216.583 327.775 212.494 302.468C210.177 305.194 209.268 309.374 210.631 316.053C213.675 331.092 231.259 352.447 265.427 345.677C299.776 338.907 298.867 310.737 297.368 300.378Z" fill="white"/>
<path d="M297.359 300.378L299.494 300.059C298.858 295.47 297.722 291.881 295.132 289.337C294.496 288.701 293.542 288.564 292.77 288.928C291.952 289.291 291.452 290.109 291.497 290.972C291.588 293.335 291.679 295.652 291.679 297.879C291.679 307.511 290.361 315.689 286.272 321.869C282.183 328.048 275.277 332.637 263.009 335.09C259.193 335.817 255.603 336.181 252.195 336.181C241.745 336.181 233.294 332.819 226.933 326.957C220.618 321.096 216.347 312.554 214.62 302.059C214.484 301.241 213.893 300.559 213.075 300.332C212.303 300.105 211.394 300.378 210.849 301.014C208.895 303.285 207.805 306.466 207.805 310.373C207.805 312.191 208.032 314.19 208.486 316.462C209.94 323.504 214.211 331.592 221.572 337.998C228.932 344.405 239.383 349.085 252.831 349.085C256.875 349.085 261.192 348.676 265.781 347.767C280.138 344.95 288.862 338.362 293.86 330.683C298.812 323.05 300.039 314.553 300.039 307.965C300.039 304.83 299.767 302.104 299.494 300.059L297.359 300.378L295.223 300.696C295.496 302.604 295.723 305.148 295.723 308.011C295.723 314.144 294.587 321.732 290.271 328.411C285.909 335.045 278.412 340.952 264.963 343.587C260.646 344.45 256.603 344.859 252.831 344.859C240.337 344.859 231.022 340.588 224.389 334.818C217.755 329.047 213.893 321.687 212.712 315.644C212.303 313.645 212.121 311.873 212.121 310.419C212.121 307.238 212.893 305.285 214.12 303.831L212.485 302.468L210.349 302.786C212.167 314.054 216.801 323.504 223.98 330.138C231.159 336.771 240.791 340.497 252.15 340.497C255.876 340.497 259.738 340.088 263.827 339.316C276.731 336.771 285 331.592 289.816 324.231C294.632 316.916 295.905 307.874 295.95 297.879C295.95 295.561 295.859 293.199 295.768 290.745L293.633 290.836L292.133 292.381C293.633 293.789 294.632 296.379 295.223 300.65L297.359 300.332" fill="#1D2088"/>
<path d="M100.402 50.5725C102.447 47.0286 107.626 41.3491 116.305 33.9885C125.028 26.628 131.435 22.4934 135.297 21.0848C134.615 17.7226 133.207 14.4058 130.98 11.3616C122.211 -0.451611 105.764 -4.54082 92.9507 6.31829C80.0924 17.132 81.41 34.034 91.5422 44.6659C94.1775 47.392 97.1762 49.3458 100.402 50.5725Z" fill="#1D2088"/>
<path d="M106.947 38.5326C107.855 36.9878 110.127 34.4888 113.944 31.2629C117.806 28.037 120.623 26.2195 122.304 25.5834C121.986 24.0841 121.395 22.6301 120.396 21.3125C116.533 16.0874 109.446 14.1791 103.63 19.0861C97.814 23.9932 98.5409 31.3083 102.994 35.9882C104.13 37.1695 105.493 38.0328 106.901 38.578" fill="white"/>
<path d="M292.042 50.5725C289.997 47.0286 284.817 41.3491 276.094 33.9885C267.37 26.628 260.964 22.4934 257.102 21.0848C257.783 17.7226 259.192 14.4058 261.463 11.3616C270.233 -0.451611 286.68 -4.54082 299.493 6.31829C312.306 17.132 311.034 34.034 300.902 44.6659C298.266 47.392 295.268 49.3458 292.042 50.5725Z" fill="#1D2088"/>
<path d="M285.451 38.5326C284.542 36.9878 282.271 34.4888 278.454 31.2629C274.637 28.037 271.775 26.2195 270.094 25.5834C270.412 24.0841 271.003 22.6301 272.002 21.3125C275.864 16.0874 282.952 14.1791 288.768 19.0861C294.584 23.9932 293.857 31.3083 289.359 35.9882C288.223 37.1695 286.905 38.0328 285.496 38.578" fill="white"/>
<path d="M196.221 182.653C260.422 182.653 311.401 152.438 309.992 97.5976C308.675 45.8919 263.057 5.27246 196.221 5.27246C129.385 5.27246 83.768 45.9373 82.4504 97.5976C81.0419 152.484 132.021 182.653 196.221 182.653Z" fill="#B0D7F2"/>
<path d="M157.657 73.3356C157.657 82.6045 149.842 90.1467 140.165 90.1467C130.487 90.1467 122.672 82.6045 122.672 73.3356C122.672 64.0667 130.487 56.5244 140.165 56.5244C149.842 56.5244 157.657 64.0667 157.657 73.3356Z" fill="white"/>
<path d="M157.661 73.3358H155.526C155.526 77.3796 153.845 81.0144 151.073 83.6951C148.302 86.3758 144.44 88.0115 140.214 88.0115C135.943 88.0115 132.127 86.3758 129.355 83.6951C126.583 81.0144 124.902 77.3796 124.902 73.3358C124.902 69.2921 126.583 65.6572 129.355 62.9765C132.127 60.2958 135.943 58.6601 140.214 58.6601C144.485 58.6601 148.302 60.2958 151.073 62.9765C153.845 65.6572 155.526 69.2921 155.526 73.3358H159.842C159.842 68.0653 157.616 63.2946 154.072 59.8869C150.528 56.4792 145.621 54.3438 140.214 54.3438C134.807 54.3438 129.9 56.4338 126.356 59.8869C122.812 63.2946 120.586 68.0653 120.586 73.3358C120.586 78.6064 122.812 83.3316 126.356 86.7847C129.9 90.1924 134.807 92.2825 140.214 92.2825C145.621 92.2825 150.483 90.1924 154.072 86.7847C157.661 83.3771 159.888 78.6064 159.888 73.3358H157.707" fill="#1D2088"/>
<path d="M150.096 73.3359C150.096 78.6065 145.643 82.8774 140.146 82.8774C134.648 82.8774 130.195 78.6065 130.195 73.3359C130.195 68.0654 134.648 63.749 140.146 63.749C145.643 63.749 150.096 68.02 150.096 73.3359Z" fill="#1D2088"/>
<path d="M234.812 73.3356C234.812 82.6045 242.627 90.1467 252.26 90.1467C261.892 90.1467 269.753 82.6045 269.753 73.3356C269.753 64.0667 261.938 56.5244 252.26 56.5244C242.582 56.5244 234.812 64.0667 234.812 73.3356Z" fill="white"/>
<path d="M234.815 73.3358H232.68C232.68 78.6064 234.906 83.3316 238.45 86.7847C241.994 90.1924 246.901 92.2825 252.308 92.2825C257.715 92.2825 262.622 90.1924 266.166 86.7847C269.71 83.3771 271.936 78.6064 271.936 73.3358C271.936 68.0653 269.71 63.2946 266.166 59.8869C262.622 56.4792 257.715 54.3438 252.308 54.3438C246.901 54.3438 242.039 56.4338 238.45 59.8869C234.906 63.2946 232.68 68.0653 232.68 73.3358H236.996C236.996 69.2921 238.677 65.6572 241.449 62.9765C244.22 60.2958 248.037 58.6601 252.308 58.6601C256.579 58.6601 260.396 60.2958 263.167 62.9765C265.939 65.6572 267.62 69.2921 267.62 73.3358C267.62 77.3796 265.939 81.0144 263.167 83.6951C260.396 86.3758 256.579 88.0115 252.308 88.0115C248.037 88.0115 244.22 86.3758 241.449 83.6951C238.677 81.0144 236.996 77.3796 236.996 73.3358H234.861" fill="#1D2088"/>
<path d="M242.305 73.3359C242.305 78.6065 246.757 82.8774 252.255 82.8774C257.753 82.8774 262.205 78.6065 262.205 73.3359C262.205 68.0654 257.753 63.749 252.255 63.749C246.757 63.749 242.305 68.02 242.305 73.3359Z" fill="#1D2088"/>
<path d="M196.221 27.7188C182.545 27.7188 172.867 31.2173 174.412 34.8976C175.911 38.6233 183.454 36.2152 196.221 36.2152C208.989 36.2152 216.531 38.6233 218.03 34.8976C219.575 31.1719 209.897 27.7188 196.221 27.7188Z" fill="#1D2088"/>
<path d="M196.214 13.1787C179.63 13.1787 167.862 16.9499 169.725 20.9936C171.588 25.0374 180.675 22.4022 196.214 22.4022C211.753 22.4022 220.84 25.0374 222.703 20.9936C224.566 16.9499 212.798 13.1787 196.214 13.1787Z" fill="#1D2088"/>
<path d="M196.226 5.0459C189.32 5.0459 182.641 5.50024 176.234 6.27264C180.823 26.0371 189.002 45.6653 196.226 45.6653C203.45 45.6653 211.583 26.0371 216.218 6.27264C209.857 5.4548 203.178 5.0459 196.226 5.0459Z" fill="#1D2088"/>
<path d="M217.495 134.356C215.405 148.85 207.863 155.393 196.231 155.393C184.6 155.393 177.057 148.85 174.922 134.356L196.231 129.222L217.495 134.356Z" fill="#EF90B9"/>
<path d="M217.498 134.356L215.363 134.038C214.363 140.99 212.091 145.76 208.956 148.759C205.821 151.758 201.641 153.212 196.234 153.257C190.782 153.257 186.647 151.758 183.467 148.759C180.332 145.76 178.06 140.99 177.06 134.038L174.925 134.356L175.425 136.446L196.189 131.448L216.953 136.446L217.453 134.356L217.952 132.266L196.648 127.132H195.643L174.38 132.266C173.289 132.539 172.608 133.584 172.744 134.674C173.834 142.216 176.379 147.987 180.422 151.849C184.466 155.756 189.923 157.528 196.148 157.528C202.372 157.528 207.82 155.756 211.864 151.849C215.908 147.941 218.452 142.216 219.543 134.674C219.724 133.584 218.997 132.539 217.907 132.266L217.407 134.356" fill="#1D2088"/>
<path d="M196.423 115.727C211.871 115.727 214.824 102.778 237.133 102.505C265.53 102.142 270.937 143.534 238.996 147.123C220.822 149.168 215.324 137.718 196.286 137.718C177.249 137.718 171.751 149.168 153.577 147.123C121.59 143.534 126.997 102.142 155.44 102.505C177.749 102.778 181.02 115.727 196.514 115.727" fill="white"/>
<path d="M196.419 115.727V117.863C200.599 117.863 204.007 116.954 207.005 115.682C211.504 113.683 215.093 110.911 219.455 108.73C223.862 106.549 229.042 104.777 237.129 104.641H237.447C244.308 104.641 249.488 107.231 253.077 111.093C256.667 114.955 258.575 120.135 258.575 125.223C258.575 129.812 257.03 134.311 253.85 137.9C250.624 141.444 245.762 144.17 238.674 144.988C237.266 145.17 235.903 145.215 234.676 145.215C227.679 145.215 222.863 142.989 217.229 140.581C211.64 138.173 205.324 135.583 196.192 135.583C187.059 135.583 180.744 138.173 175.155 140.581C169.521 142.989 164.705 145.215 157.708 145.215C156.436 145.215 155.118 145.124 153.709 144.988C146.621 144.17 141.714 141.489 138.534 137.9C135.353 134.311 133.809 129.812 133.809 125.223C133.809 120.089 135.717 114.91 139.306 111.093C142.896 107.231 148.075 104.687 154.936 104.641H155.254C165.977 104.823 171.793 107.867 177.291 111.048C180.017 112.638 182.652 114.319 185.696 115.637C188.74 116.954 192.193 117.863 196.374 117.817V113.546C192.784 113.546 190.058 112.82 187.423 111.684C183.47 110.003 179.835 107.276 174.973 104.823C170.112 102.369 163.978 100.416 155.3 100.279H154.891C146.939 100.279 140.442 103.369 136.126 108.094C131.764 112.774 129.492 118.999 129.492 125.178C129.492 130.721 131.355 136.31 135.308 140.717C139.261 145.124 145.258 148.305 153.21 149.213C154.8 149.395 156.254 149.486 157.708 149.486C165.659 149.486 171.338 146.896 176.836 144.488C182.379 142.08 187.832 139.854 196.192 139.854C204.552 139.854 209.959 142.08 215.547 144.488C221.045 146.896 226.725 149.486 234.676 149.486C236.13 149.486 237.584 149.395 239.174 149.213C247.125 148.305 253.123 145.17 257.076 140.717C261.029 136.31 262.891 130.721 262.891 125.178C262.891 118.999 260.574 112.82 256.212 108.094C251.851 103.414 245.399 100.279 237.447 100.279H237.039C225.452 100.416 218.546 103.96 213.048 107.322C210.277 109.003 207.823 110.548 205.279 111.684C202.689 112.82 199.963 113.546 196.374 113.546V115.682" fill="#1D2088"/>
<path d="M214.131 105.322C214.131 104.868 214.131 104.459 214.131 104.004C213.495 92.7363 206.362 77.9697 196.23 77.9697C186.098 77.9697 178.964 92.6908 178.328 104.004C178.328 104.459 178.328 104.868 178.328 105.322C183.735 103.414 189.278 103.096 196.275 103.096C203.272 103.096 208.77 103.459 214.222 105.322" fill="#B0D7F2"/>
<path d="M196.234 103.232C189.6 103.232 184.33 103.55 179.195 105.368C179.241 113.137 184.148 120.225 196.234 120.225C208.32 120.225 213.181 113.137 213.272 105.368C208.138 103.55 202.867 103.232 196.234 103.232Z" fill="#1D2088"/>
<path d="M213.229 104.142L215.365 104.005C215.047 98.2803 213.093 91.8284 209.913 86.6488C208.322 84.059 206.414 81.7418 204.097 80.0606C201.825 78.3795 199.144 77.2891 196.191 77.2891C193.238 77.2891 190.557 78.3795 188.285 80.0606C184.832 82.605 182.242 86.4671 180.334 90.738C178.426 95.009 177.29 99.6888 177.062 104.005V104.959V105.459H179.198L177.062 105.414C177.062 109.73 178.471 114.046 181.697 117.272C184.877 120.498 189.785 122.452 196.236 122.407C202.688 122.407 207.595 120.498 210.776 117.272C214.002 114.046 215.365 109.775 215.41 105.459V104.096V104.051L213.275 104.187H211.139V105.096V105.414C211.139 108.867 210.003 112.002 207.732 114.274C205.46 116.545 201.87 118.136 196.236 118.181C190.602 118.181 187.013 116.545 184.741 114.274C182.469 112.002 181.379 108.867 181.379 105.459V105.05V104.323C181.697 99.3707 183.424 93.4187 186.195 88.966C187.558 86.7397 189.194 84.8314 190.92 83.6046C192.647 82.3324 194.419 81.6963 196.282 81.6963C198.145 81.6963 199.917 82.3778 201.643 83.6046C204.233 85.5129 206.55 88.7842 208.231 92.6008C209.913 96.4174 210.958 100.643 211.185 104.369L213.32 104.232" fill="#1D2088"/>
<path d="M144.703 123.633H121.44C120.259 123.633 119.305 124.587 119.305 125.768C119.305 126.95 120.259 127.904 121.44 127.904H144.703C145.885 127.904 146.839 126.95 146.839 125.768C146.839 124.587 145.885 123.633 144.703 123.633Z" fill="#1D2088"/>
<path d="M146.011 133.992L124.111 141.943C122.975 142.352 122.429 143.579 122.838 144.715C123.247 145.805 124.474 146.396 125.61 146.033L147.465 138.081C148.6 137.672 149.146 136.446 148.737 135.31C148.328 134.174 147.101 133.629 146.011 134.038" fill="#1D2088"/>
<path d="M147.459 113.591L125.605 105.64C124.469 105.231 123.242 105.822 122.833 106.912C122.424 108.003 123.015 109.275 124.105 109.638L145.96 117.589C147.05 117.998 148.277 117.408 148.686 116.317C149.095 115.181 148.504 113.955 147.414 113.546" fill="#1D2088"/>
<path d="M247.706 127.95H270.969C272.15 127.95 273.104 126.996 273.104 125.814C273.104 124.633 272.15 123.679 270.969 123.679H247.706C246.524 123.679 245.57 124.633 245.57 125.814C245.57 126.996 246.524 127.95 247.706 127.95Z" fill="#1D2088"/>
<path d="M244.98 138.036L266.835 145.987C267.971 146.396 269.198 145.806 269.607 144.715C270.015 143.625 269.425 142.353 268.334 141.944L246.48 133.992C245.344 133.583 244.117 134.174 243.708 135.265C243.299 136.355 243.89 137.627 244.98 138.036Z" fill="#1D2088"/>
<path d="M246.407 117.59L268.261 109.638C269.352 109.23 269.943 108.003 269.534 106.912C269.125 105.776 267.898 105.231 266.762 105.64L244.907 113.591C243.772 114 243.226 115.227 243.635 116.363C244.044 117.453 245.271 118.044 246.407 117.635" fill="#1D2088"/>
<path d="M196.235 182.608V184.743C228.221 184.743 257.073 177.337 278.064 162.98C299.101 148.667 312.187 127.131 312.141 99.7333C312.141 99.0064 312.141 98.234 312.141 97.4616C311.46 70.9726 299.419 47.3007 279.064 30.3078C258.709 13.3149 230.084 3.00098 196.235 3.00098C162.385 3.00098 133.761 13.3149 113.405 30.3078C93.0501 47.3007 81.0097 70.9726 80.3281 97.4616C80.3281 98.234 80.3281 98.9609 80.3281 99.7333C80.3281 127.176 93.4136 148.667 114.405 162.98C135.442 177.337 164.248 184.743 196.28 184.743V180.427C164.929 180.427 136.896 173.157 116.858 159.436C96.8213 145.669 84.69 125.768 84.6446 99.7333C84.6446 99.0064 84.6446 98.3248 84.6446 97.5979C85.2807 72.3811 96.685 49.9359 116.177 33.6246C135.669 17.3586 163.248 7.31738 196.235 7.31738C229.221 7.31738 256.846 17.3586 276.292 33.6246C295.784 49.8905 307.189 72.3811 307.825 97.5979C307.825 98.3248 307.825 99.0518 307.825 99.7333C307.825 125.768 295.648 145.714 275.611 159.436C255.574 173.157 227.54 180.472 196.189 180.427V182.562" fill="#1D2088"/>
<path d="M82.7111 106.413C102.612 103.732 114.062 98.5525 114.062 93.6909C114.062 88.8293 88.8904 82.1502 83.2563 78.9697C83.2563 78.9697 79.8941 97.144 82.6657 106.367" fill="#1D2088"/>
<path d="M101.512 149.531C109.009 143.579 115.234 136.173 113.689 133.947C110.554 129.403 101.012 131.13 89.5625 131.857C89.5625 131.857 93.2428 141.353 101.558 149.577" fill="#1D2088"/>
<path d="M310.193 106.186C290.292 103.505 278.797 98.5525 278.797 93.6909C278.797 88.8293 303.968 82.1502 309.602 78.9697C309.602 78.9697 312.965 96.9168 310.193 106.14" fill="#1D2088"/>
<path d="M291.422 149.531C283.925 143.579 277.7 136.173 279.245 133.947C282.38 129.403 291.922 131.13 303.371 131.857C303.371 131.857 299.691 141.353 291.376 149.577" fill="#1D2088"/>
</svg>
