<svg width="84" height="122" viewBox="0 0 84 122" fill="none" xmlns="http://www.w3.org/2000/svg">
<path d="M41.1787 35.7852C50.8071 37.8783 56.6464 51.7678 57.4837 59.6465C57.8808 63.3818 58.1814 70.7023 58.1814 72.8706C58.1599 79.3216 55.8629 80.5667 55.9702 78.8171C54.8968 81.9406 51.9235 82.0801 52.2992 79.0639C50.6569 82.1767 46.2667 80.6633 48.1129 76.8957C46.8034 79.5685 43.5509 78.3448 44.7532 74.1693C45.2791 72.3553 46.3955 70.6379 46.3955 70.1764C46.3848 68.7273 45.5582 52.3153 38.6562 44.4366" fill="#B0D7F2"/>
<path d="M41.0696 36.2895C43.3667 36.7833 45.4598 37.9962 47.3275 39.6707C50.1184 42.1824 52.394 45.7353 54.0255 49.3955C55.6571 53.0558 56.6661 56.8126 56.9774 59.7C57.3638 63.3602 57.6644 70.5949 57.6644 72.806V72.8811C57.6644 75.1996 57.3531 76.8205 56.9881 77.808C56.8056 78.3017 56.6124 78.656 56.4622 78.8384L56.2904 79.0102H56.269V79.0209L56.3226 79.1497V79.0102H56.269L56.3226 79.1497V79.0102V79.2678L56.4622 79.0531L56.3226 79.0102V79.2678L56.4622 79.0531L56.3548 79.2356L56.5266 79.1068L56.4622 79.0531L56.3548 79.2356L56.5266 79.1068L56.4729 79.1497L56.5373 79.1282L56.4836 79.1497L56.548 79.1282C56.548 79.1282 56.5266 79.0531 56.5266 78.9458V78.8706C56.548 78.613 56.3763 78.3768 56.1187 78.3232C55.8611 78.2695 55.6034 78.409 55.5176 78.6667C55.26 79.3966 54.9057 79.9333 54.53 80.2767C54.165 80.6202 53.8001 80.749 53.5425 80.749C53.3278 80.749 53.199 80.6847 53.0594 80.5237C52.9306 80.3627 52.8126 80.062 52.8126 79.5898C52.8126 79.4609 52.8126 79.3107 52.8448 79.1497C52.877 78.9028 52.7267 78.6667 52.4798 78.5915C52.2437 78.5164 51.9753 78.6238 51.868 78.8492C51.3313 79.8474 50.5263 80.2446 49.8178 80.2446C49.3777 80.2446 48.9806 80.0835 48.6908 79.8152C48.4117 79.5468 48.2185 79.1604 48.2185 78.613C48.2185 78.2159 48.3258 77.7221 48.6156 77.1425C48.68 77.0244 48.6907 76.8741 48.6478 76.7453C48.6048 76.6165 48.5082 76.5092 48.3794 76.4448C48.2506 76.3803 48.1111 76.3697 47.9823 76.4233C47.8535 76.4663 47.7462 76.5629 47.6818 76.6809C47.2631 77.5074 46.7156 77.808 46.2863 77.808C45.9857 77.808 45.7067 77.6791 45.4706 77.3786C45.2344 77.078 45.0519 76.5843 45.0519 75.8759C45.0519 75.4358 45.127 74.9206 45.2988 74.3302C45.5457 73.4715 45.9428 72.6128 46.2863 71.9151C46.458 71.5609 46.6191 71.2496 46.7372 70.9705C46.8016 70.831 46.8445 70.7129 46.8874 70.5949C46.9303 70.4768 46.9625 70.3587 46.9625 70.1977H46.4473L46.9196 70.4123C46.9626 70.3157 46.9625 70.2406 46.9625 70.1977H46.4473L46.9196 70.4123L46.9625 70.1977C46.9625 69.4356 46.7479 64.9596 45.6638 59.6463C44.5796 54.3331 42.6475 48.1933 39.0946 44.1252C38.9121 43.9105 38.5793 43.8891 38.3646 44.0715C38.1499 44.2648 38.1285 44.5868 38.3109 44.8014C41.6599 48.6119 43.5921 54.6229 44.644 59.8503C45.7067 65.0669 45.9106 69.5322 45.9214 70.2084H46.4366L45.9643 69.9938C45.9213 70.0904 45.9214 70.1762 45.9214 70.2084H46.0609L45.9214 70.187V70.2084H46.0609L45.9214 70.187C45.9214 70.187 45.8677 70.3909 45.7496 70.627C45.4168 71.3677 44.6977 72.6557 44.3005 74.0511C44.1073 74.7274 44.0107 75.3392 44.0107 75.8866C44.0107 76.7775 44.2469 77.5074 44.6548 78.0227C45.0627 78.5486 45.6637 78.8492 46.2863 78.8492C47.2094 78.8492 48.0896 78.2266 48.6156 77.1425C48.7444 76.8849 48.637 76.5736 48.3794 76.4448C48.1218 76.3159 47.8106 76.4233 47.6818 76.6809C47.3383 77.3679 47.1772 78.0226 47.1772 78.613C47.1772 79.418 47.4885 80.105 47.9823 80.5666C48.476 81.0281 49.1416 81.275 49.8178 81.275C50.9234 81.275 52.1041 80.6309 52.7911 79.3214L52.3295 79.0746L51.8143 79.0102C51.7929 79.2141 51.7714 79.3966 51.7714 79.5791C51.7714 80.2231 51.9324 80.7705 52.2437 81.1677C52.555 81.5755 53.0487 81.7902 53.5317 81.7795C54.1221 81.7795 54.7125 81.5004 55.217 81.0281C55.7322 80.5558 56.1724 79.8796 56.4729 78.9994L55.9791 78.8277L55.4639 78.7847V78.935C55.4639 79.1926 55.4961 79.4181 55.6249 79.6435C55.6893 79.7508 55.7752 79.8581 55.904 79.9332C56.022 80.0084 56.1831 80.0514 56.3226 80.0514C56.5373 80.0514 56.7198 79.9655 56.8701 79.8688C57.1384 79.6864 57.353 79.4288 57.557 79.0746C58.1688 78.0012 58.7055 76.0369 58.7163 72.8704V72.806C58.7163 70.5197 58.4157 63.3281 58.0185 59.5819C57.5892 55.5568 55.904 50.0718 53.0917 45.2737C51.6855 42.8801 50.0003 40.6582 48.0359 38.8871C46.0716 37.1267 43.8175 35.8065 41.3058 35.2698C41.0267 35.2054 40.7476 35.3879 40.6832 35.6669C40.6188 35.946 40.8012 36.2251 41.0803 36.2895" fill="#1D2088"/>
<path d="M53.2969 56.8776C53.8765 55.8364 54.864 54.763 56.0448 53.8936L57.2362 58.6272C55.8515 59.5181 55.0358 60.4197 54.1234 61.8151C53.5116 59.8937 53.2969 56.8776 53.2969 56.8776Z" fill="#1D2088"/>
<path d="M51.3828 47.2487C51.898 46.4007 51.941 46.2183 52.585 45.6064L54.9358 50.4689C54.1522 51.1344 54.1415 51.1451 53.4652 51.9931C52.424 49.1164 51.3828 47.2487 51.3828 47.2487Z" fill="#1D2088"/>
<path d="M56.9422 75.8869C56.8563 77.089 56.2767 78.1946 55.7722 79.4075C55.6649 79.6759 55.7936 79.9764 56.062 80.0838C56.3303 80.1911 56.6309 80.0623 56.7382 79.7939C57.1998 78.6454 57.8653 77.4325 57.9727 75.9513C57.9941 75.6614 57.7794 75.4145 57.4896 75.3931C57.1998 75.3716 56.9529 75.5863 56.9314 75.8761" fill="#1D2088"/>
<path d="M53.8008 75.9943C53.2426 77.3038 52.9098 78.0122 52.4053 79.15C52.2872 79.4076 52.4053 79.7189 52.663 79.837C52.9206 79.9551 53.2318 79.837 53.3499 79.5794C53.8544 78.4524 54.1979 77.7332 54.756 76.4022C54.8634 76.1338 54.7454 75.8333 54.477 75.7152C54.2087 75.6079 53.9081 75.7259 53.8008 75.9943Z" fill="#1D2088"/>
<path d="M50.2275 73.4178C49.5083 74.7166 49.0038 75.6719 48.1236 76.9063C47.9626 77.1425 48.0162 77.4645 48.2524 77.6363C48.4885 77.7973 48.8106 77.7436 48.9716 77.5075C49.884 76.2194 50.4207 75.2104 51.1291 73.9224C51.2686 73.6755 51.1828 73.3535 50.9252 73.2139C50.6783 73.0744 50.3563 73.1602 50.2167 73.4178" fill="#1D2088"/>
<path d="M53.1007 86.7701C53.1007 90.645 53.5194 98.9208 53.455 102.688C53.3691 107.486 48.9789 108.893 45.0825 109.698C40.5205 110.631 34.2196 109.311 30.291 107.744C25.0528 105.651 22.5947 100.595 24.7844 97.5146C28.7131 92.0082 35.014 96.7311 35.3896 93.6397C35.7331 90.806 34.7134 85.0312 33.962 83.0991V79.9541L52.8431 82.3156L53.1007 86.7701Z" fill="#B0D7F2"/>
<path d="M53.1004 86.7714H52.5852C52.5852 90.378 52.9394 97.7414 52.9394 101.777C52.9394 102.099 52.9394 102.4 52.9394 102.679C52.9179 103.795 52.6496 104.686 52.2095 105.427C51.5547 106.532 50.4921 107.327 49.204 107.917C47.9159 108.507 46.4239 108.883 44.9748 109.184C43.955 109.388 42.8494 109.484 41.6794 109.484C37.8152 109.484 33.4357 108.443 30.4839 107.262C28.5947 106.511 27.0919 105.352 26.0615 104.064C25.031 102.776 24.4943 101.359 24.4943 100.103C24.4943 99.2656 24.7197 98.4928 25.2028 97.8273C26.0186 96.6895 26.9095 96.0455 27.8219 95.6698C28.745 95.2941 29.7003 95.1868 30.6342 95.1868C31.7076 95.1868 32.738 95.337 33.6074 95.337C34.1334 95.337 34.6272 95.2941 35.0781 95.0472C35.3035 94.9184 35.4966 94.7359 35.6362 94.5105C35.7757 94.2851 35.8616 94.0168 35.8938 93.7162C35.9367 93.2976 35.9689 92.8468 35.9689 92.353C35.9689 90.7966 35.7543 88.8753 35.4537 87.1364C35.1532 85.3868 34.7882 83.8304 34.434 82.9287L33.9509 83.1112H34.477V80.5565L52.3383 82.7892L52.5745 86.8144L53.0897 86.7821L53.6049 86.75L53.3473 82.2954C53.3365 82.0485 53.1434 81.8446 52.8965 81.8124L34.0153 79.451C33.8651 79.4295 33.7148 79.4832 33.6074 79.5798C33.5001 79.6764 33.4357 79.8267 33.4357 79.9662V83.1112L33.468 83.2937C33.7685 84.0558 34.1442 85.6015 34.434 87.2974C34.7238 88.9934 34.9278 90.8717 34.9278 92.3423C34.9278 92.8038 34.9063 93.2225 34.8634 93.5874C34.8419 93.7699 34.7989 93.8772 34.756 93.9523C34.6809 94.0597 34.6057 94.1349 34.4125 94.1993C34.23 94.2637 33.9509 94.2958 33.6074 94.2958C32.8453 94.2958 31.7934 94.1456 30.6342 94.1456C29.6252 94.1456 28.5196 94.2636 27.4247 94.7037C26.3298 95.1545 25.2671 95.9381 24.3547 97.2262C23.7429 98.0849 23.4531 99.0832 23.4531 100.114C23.4531 101.67 24.0971 103.291 25.2457 104.729C26.3942 106.167 28.0365 107.423 30.0867 108.25C33.1674 109.473 37.622 110.547 41.6687 110.547C42.8924 110.547 44.0731 110.45 45.168 110.225C47.1323 109.817 49.2684 109.259 50.9644 108.142C51.8124 107.584 52.553 106.876 53.0897 105.974C53.6264 105.073 53.9377 103.989 53.9591 102.711C53.9591 102.432 53.9591 102.121 53.9591 101.788C53.9591 97.6985 53.6049 90.3458 53.6049 86.7821V86.75L53.0897 86.7821" fill="#1D2088"/>
<path d="M42.3823 98.3632C42.3823 102.238 42.6399 108.432 42.5755 112.199C42.4896 116.997 38.0994 119.455 34.2029 120.26C29.641 121.194 20.5708 120.668 15.8478 118.307C10.7921 115.784 8.08713 110.911 10.3413 107.036C12.3593 103.558 20.1951 105.405 20.5708 102.313C20.9143 99.4795 20.2702 94.5419 19.5188 92.6098V89.4648L42.1569 95.2397L42.3823 98.3525" fill="#B0D7F2"/>
<path d="M42.3945 98.3639H41.8793C41.8793 101.809 42.0832 107.058 42.0832 110.815C42.0832 111.309 42.0832 111.77 42.0832 112.2C42.0403 114.432 41.0205 116.085 39.5178 117.341C38.015 118.586 36.0077 119.381 34.1293 119.767C32.7768 120.046 30.9628 120.196 28.9877 120.196C26.7658 120.196 24.3292 120.014 22.0535 119.628C19.7779 119.241 17.6634 118.651 16.1069 117.867C14.2607 116.944 12.7472 115.699 11.706 114.325C10.6648 112.951 10.0959 111.448 10.0959 110.01C10.0959 109.087 10.3213 108.185 10.8258 107.327C11.2444 106.607 11.9851 106.135 12.9511 105.792C14.3895 105.276 16.2572 105.115 17.8458 104.793C18.6402 104.632 19.37 104.428 19.9604 104.085C20.261 103.913 20.5293 103.688 20.7333 103.409C20.9372 103.13 21.0768 102.786 21.1197 102.421C21.1841 101.852 21.2163 101.23 21.2163 100.554C21.2163 99.126 21.0768 97.5159 20.8621 96.0668C20.6474 94.607 20.3683 93.319 20.0355 92.4603L19.5525 92.6427H20.0785V90.1632L41.7075 95.6804L41.9007 98.4283L42.416 98.3853L42.9312 98.3424L42.7057 95.2296C42.695 95.0041 42.534 94.8217 42.3193 94.768L19.6813 88.9932C19.531 88.9503 19.3593 88.9932 19.2305 89.0898C19.1017 89.1864 19.0373 89.3367 19.0373 89.4977V92.6427L19.0695 92.8252C19.3486 93.5444 19.6384 94.8002 19.8423 96.2064C20.0463 97.6125 20.1751 99.1796 20.1751 100.543C20.1751 101.176 20.1429 101.777 20.0892 102.282C20.057 102.561 19.9604 102.743 19.7779 102.926C19.4667 103.248 18.8226 103.505 17.9961 103.699C16.7617 103.988 15.1516 104.139 13.6488 104.504C12.8974 104.686 12.1675 104.933 11.5235 105.298C10.8795 105.663 10.3106 106.146 9.92414 106.811C9.33377 107.831 9.05469 108.926 9.05469 110.021C9.05469 111.738 9.72021 113.445 10.8795 114.969C12.028 116.493 13.6703 117.824 15.6561 118.812C17.3628 119.66 19.5525 120.261 21.8925 120.669C24.2325 121.066 26.7229 121.259 28.9985 121.259C31.0272 121.259 32.8949 121.109 34.344 120.808C36.3512 120.39 38.498 119.563 40.1833 118.168C41.8685 116.783 43.0922 114.808 43.1351 112.253C43.1351 111.813 43.1351 111.341 43.1351 110.858C43.1351 107.069 42.9312 101.82 42.9312 98.4068V98.3639L42.416 98.4068" fill="#1D2088"/>
<path d="M34.0639 102.861C35.8135 102.131 36.0722 101.326 34.1723 101.015C32.4871 100.736 26.4546 101.852 20.8192 96.3779C20.9158 97.9558 21.0972 100.639 20.5391 102.045C23.5553 104.643 32.0029 103.709 34.0531 102.85" fill="#1D2088"/>
<path d="M34.1898 107.251C35.9717 106.392 35.9287 105.458 34.2435 105.48C32.2791 105.501 24.2609 106.574 20.3323 102.979C19.6989 104.03 18.3786 103.784 16.7578 104.363C22.1892 111.061 29.9177 109.322 34.1898 107.251Z" fill="#1D2088"/>
<path d="M53.2683 95.3585C53.4938 95.2404 51.2503 96.1743 50.4882 96.4319C48.6849 97.033 47.794 96.7861 49.0177 95.3048C49.5866 94.6071 51.4328 92.6214 53.161 90.5176C53.1395 90.6142 53.2254 95.3799 53.279 95.3585" fill="#1D2088"/>
<path d="M53.3873 99.9737C51.8846 100.671 52.4641 100.371 51.1224 100.575C49.1688 100.886 48.5355 100.328 49.8129 99.233C50.5213 98.6319 51.5625 98.224 53.4946 96.1631C53.7952 96.0021 53.6127 99.8663 53.3766 99.9737" fill="#1D2088"/>
<path d="M22.6257 34.8621C21.4342 38.8122 4.18468 68.5342 7.8235 82.5955C11.033 95.0253 24.9121 101.809 38.9843 98.342C55.2571 94.5637 60.2805 82.6706 58.4665 69.9188C56.4163 55.4818 45.4676 39.1878 38.5979 33.3594" fill="#B0D7F2"/>
<path d="M20.2173 39.2959C18.8649 42.2369 15.5266 48.4411 12.5318 55.5684C9.53705 62.7064 6.875 70.7782 6.875 77.6049C6.875 79.5155 7.08971 81.3296 7.57274 82.9933C10.2133 92.1922 19.2084 99.985 31.7886 99.9743C34.2145 99.9743 36.7585 99.6844 39.4205 99.0726C46.4298 97.4518 51.4425 94.0062 54.6842 89.5839C57.9259 85.1616 59.3964 79.7839 59.3964 74.3096C59.3964 72.3453 59.2139 70.3703 58.849 68.4275C57.5716 61.5149 54.8667 53.7436 51.8826 47.4643C50.3906 44.3193 48.8234 41.55 47.3099 39.4462C46.5586 38.3942 45.8072 37.5033 45.088 36.8164C44.3688 36.1294 43.6604 35.6249 42.9519 35.378C42.6836 35.2814 42.3831 35.4317 42.2864 35.7C42.1898 35.9684 42.3294 36.269 42.6085 36.3656C43.1022 36.5373 43.7033 36.9452 44.3688 37.5785C45.5174 38.6733 46.8162 40.4337 48.1365 42.6234C52.0866 49.2032 56.1763 59.7224 57.8293 68.6315C58.1835 70.5206 58.366 72.4312 58.366 74.3311C58.366 79.6229 56.9491 84.7751 53.8577 88.9935C50.7663 93.2119 46.0004 96.5072 39.195 98.0851C36.6082 98.6862 34.1286 98.9653 31.7886 98.9653C19.6485 98.9653 11.1042 91.4838 8.57099 82.7357C8.12016 81.1901 7.91623 79.4726 7.91623 77.6372C7.91623 71.0895 10.5245 63.0821 13.4979 56.0085C16.4712 48.9241 19.7773 42.7629 21.1619 39.7682C21.28 39.5106 21.162 39.1993 20.9043 39.0812C20.6467 38.9631 20.3354 39.0812 20.2173 39.3281" fill="#1D2088"/>
<path d="M52.6595 51.8538C50.0082 49.4709 25.159 51.6177 20.6078 55.7502L18.5469 62.2657C25.9104 59.4105 46.0581 55.7609 55.3216 58.1439C56.0944 58.3371 52.6595 51.8538 52.6595 51.8538Z" fill="#1D2088"/>
<path d="M57.3196 64.4333C53.348 63.8 23.6363 64.9163 17.0134 68.7268L16.6484 71.3245L17.2485 76.1761C25.782 74.5875 49.2143 72.0758 58.4885 72.8701C59.2721 72.9345 57.3196 64.4226 57.3196 64.4226" fill="#1D2088"/>
<path d="M58.7505 79.0322C50.657 80.9321 20.5267 82.7032 8.17188 82.3812L9.20236 86.7176L11.7033 90.3135C21.5571 92.2134 43.7336 90.1525 55.9489 87.2973C56.7218 87.1148 58.7505 79.043 58.7505 79.043" fill="#1D2088"/>
<path d="M57.6449 77.4111C59.2336 78.2698 62.7221 79.8691 64.7616 79.7296C67.1767 79.5578 70.354 76.5631 74.347 76.9388C83.9432 77.8405 83.6964 82.1125 83.3207 83.2825C82.3761 86.245 79.4028 87.1252 73.1127 84.5062C70.9659 83.6153 67.7027 85.6869 66.0282 86.8461C63.6023 88.5206 59.2443 88.2308 54.0276 84.7101C51.6017 82.9498 53.4479 75.683 57.6342 77.4004" fill="#B0D7F2"/>
<path d="M57.6484 77.4113L57.4015 77.8729C58.1851 78.2915 59.398 78.8819 60.6861 79.3756C61.9849 79.8587 63.3482 80.2665 64.4967 80.2665C64.604 80.2665 64.7006 80.2665 64.7972 80.2665C65.4627 80.2236 66.1175 79.9982 66.7937 79.7191C68.8225 78.8712 71.0873 77.4435 73.6528 77.4542C73.8674 77.4542 74.0821 77.4543 74.3075 77.4865C78.161 77.8514 80.3401 78.7638 81.5208 79.7191C82.7015 80.6744 82.9376 81.6619 82.9484 82.3918C82.9484 82.7139 82.8947 82.9929 82.8411 83.1539C82.5835 83.9482 82.1863 84.5279 81.6281 84.9358C81.07 85.3329 80.3079 85.569 79.2559 85.569C77.8176 85.569 75.8533 85.1075 73.3308 84.0556C72.8907 83.8731 72.4291 83.798 71.9675 83.798C70.819 83.798 69.6275 84.238 68.5434 84.7747C67.4592 85.3114 66.4718 85.9662 65.7633 86.4599C64.9368 87.0288 63.8526 87.3509 62.5109 87.3616C60.3319 87.3616 57.5196 86.4707 54.3423 84.3239L54.0525 84.7533L54.3531 84.3347C54.0847 84.1415 53.87 83.8409 53.7197 83.433C53.5695 83.0358 53.4944 82.5421 53.4944 82.0161C53.4944 80.9964 53.7949 79.8694 54.3316 79.0429C54.5892 78.6243 54.9112 78.2915 55.2654 78.0553C55.6196 77.8192 55.9954 77.7012 56.4355 77.7012C56.7467 77.7012 57.0902 77.7655 57.4659 77.9265L57.6591 77.4435L57.8524 76.9605C57.3586 76.7566 56.8755 76.6599 56.4247 76.6599C55.7807 76.6599 55.1796 76.8531 54.6858 77.1859C53.9344 77.6796 53.387 78.4418 53.0113 79.3005C52.6464 80.1592 52.4531 81.1037 52.4531 82.0161C52.4531 82.6387 52.539 83.2505 52.7537 83.798C52.9577 84.3454 53.2797 84.8284 53.752 85.1719H53.7627C57.058 87.4045 60.0528 88.392 62.5109 88.392C64.0136 88.392 65.3232 88.0163 66.3537 87.3079C67.0406 86.8249 67.9959 86.2023 69.0049 85.6978C70.0139 85.1933 71.0873 84.8284 71.9675 84.8284C72.3217 84.8284 72.6545 84.8821 72.9336 85.0002C75.542 86.0843 77.6029 86.5887 79.2666 86.5887C80.4688 86.5887 81.4671 86.3096 82.24 85.7622C83.0128 85.2148 83.5388 84.4098 83.8393 83.4545C83.9252 83.1861 84.0004 82.8212 84.0004 82.3704C84.0004 81.3936 83.6139 80.0304 82.1863 78.8926C80.7694 77.7548 78.3972 76.8103 74.4149 76.4346C74.1573 76.4131 73.9104 76.4023 73.6635 76.4023C71.6992 76.4023 69.971 77.1108 68.479 77.7977C67.7276 78.1412 67.0406 78.4847 66.4073 78.7531C65.774 79.0214 65.2158 79.1931 64.7328 79.2253H64.5074C63.6057 79.2361 62.2962 78.8819 61.0618 78.4096C59.8274 77.9373 58.6466 77.3684 57.8953 76.9605L57.8524 76.939L57.6591 77.4221" fill="#1D2088"/>
<path d="M70.1467 77.6368C71.0591 77.2611 71.9178 76.7673 73.4313 76.7888C73.9143 76.7888 76.8233 77.6045 77.2955 77.7119C72.3472 77.7119 72.8087 84.3669 76.0611 85.6013C75.7713 85.5047 72.6585 84.4957 72.3472 84.3668C71.0913 83.8194 70.8659 84.4956 69.8676 84.8284C67.0875 83.594 68.4722 79.1073 70.1467 77.626" fill="#1D2088"/>
<path d="M63.8399 79.4183C64.9455 79.8261 66.3194 79.5685 67.9403 78.624C68.0905 78.5381 68.2837 78.581 68.4447 78.5596C63.228 80.1911 64.4624 85.88 66.781 86.1913C65.3856 86.8139 64.1511 88.8211 61.0597 87.4257C57.3458 85.7298 59.3638 78.3341 63.8506 79.4183" fill="#1D2088"/>
<path d="M24.7149 37.6416C16.0526 40.894 11.0506 51.4238 8.27048 57.8212C7.83038 58.8409 4.21298 69.4781 3.9339 71.6356C3.10738 78.033 6.28464 79.7719 6.41345 78.033C7.06822 81.2746 9.99859 81.7898 10.0201 78.7522C11.2437 82.0582 15.795 81.1243 14.4639 77.1528C15.4085 79.9651 17.974 78.0115 17.5876 74.8343C17.3622 72.9559 16.9757 71.1848 17.0401 70.7233C17.2441 69.2849 20.2066 53.1305 28.0747 46.2179" fill="#B0D7F2"/>
<path d="M24.5267 37.1476C20.0507 38.8328 16.5728 42.3643 13.8571 46.2499C11.1414 50.1356 9.17716 54.3969 7.79247 57.6063C7.72807 57.7566 7.62069 58.0357 7.48115 58.4328C6.98738 59.8175 6.0321 62.6083 5.17338 65.281C4.74402 66.6227 4.34685 67.943 4.02483 69.0379C3.71354 70.1434 3.48812 71.0236 3.41298 71.5603C3.31638 72.3116 3.27344 73.0093 3.27344 73.6426C3.27344 75.4352 3.61694 76.7662 4.08923 77.6893C4.32538 78.1509 4.60446 78.5051 4.89428 78.7627C5.1841 79.0203 5.51683 79.1813 5.88179 79.192C6.16087 79.192 6.45071 79.074 6.63318 78.8486C6.81566 78.6339 6.90155 78.3548 6.92302 78.0757L6.40775 78.0328L5.90328 78.1401C6.09649 79.1062 6.48292 79.879 6.97668 80.4264C7.47044 80.9631 8.07152 81.2959 8.69409 81.3066C9.20932 81.3066 9.72457 81.049 10.0466 80.5981C10.3686 80.1473 10.5404 79.5355 10.5404 78.7734H10.0252L9.54212 78.9452C10.111 80.4908 11.3883 81.2959 12.6013 81.2959C13.2775 81.2959 13.943 81.049 14.4261 80.566C14.9198 80.0829 15.2204 79.3637 15.2204 78.5158C15.2204 78.0542 15.1345 77.539 14.952 76.9916C14.8662 76.7232 14.5656 76.573 14.2973 76.6588C14.0289 76.7554 13.8787 77.0453 13.9753 77.3243C14.1577 77.8503 14.3939 78.2689 14.7052 78.5695C15.0165 78.87 15.4136 79.0418 15.8 79.031C16.1542 79.031 16.4763 78.9129 16.7553 78.7197C17.1847 78.4299 17.5175 77.9791 17.7643 77.421C18.0005 76.8735 18.1507 76.208 18.1507 75.4674C18.1507 75.242 18.14 75.0058 18.1078 74.7589C18.0005 73.8788 17.8609 73.0201 17.7536 72.3224C17.6355 71.6247 17.5604 71.0558 17.5604 70.8411V70.7982C17.657 70.122 18.4406 65.7318 20.1795 60.6869C21.9077 55.642 24.6126 49.9423 28.4232 46.6041C28.6379 46.4109 28.6594 46.0889 28.4662 45.8742C28.2729 45.6596 27.9509 45.6381 27.7363 45.8313C23.6788 49.4056 20.9631 55.2341 19.192 60.3649C17.4316 65.4957 16.6373 69.8966 16.53 70.6587V70.8626C16.53 71.249 16.6051 71.7964 16.7232 72.5049C16.8412 73.2133 16.97 74.0505 17.0773 74.9092C17.0988 75.1132 17.1096 75.3064 17.1096 75.4889C17.1096 76.2832 16.8949 76.9594 16.6158 77.3887C16.4762 77.6141 16.3153 77.7752 16.1757 77.8718C16.0254 77.9684 15.9073 78.0006 15.8 78.0006C15.6819 78.0006 15.5746 77.9684 15.4243 77.8289C15.2741 77.6893 15.1023 77.421 14.9628 77.0023C14.8769 76.734 14.5764 76.5837 14.308 76.6696C14.0397 76.7662 13.8893 77.056 13.9859 77.3351C14.1362 77.7859 14.2006 78.183 14.2006 78.5265C14.2006 79.1383 13.9967 79.5463 13.7176 79.8253C13.4385 80.1044 13.0414 80.2547 12.612 80.2547C11.8392 80.2547 10.9697 79.7717 10.5189 78.5802C10.433 78.3441 10.1862 78.2045 9.93927 78.2474C9.69239 78.2904 9.50989 78.5051 9.50989 78.752C9.50989 79.3638 9.37038 79.7609 9.20937 79.9756C9.04836 80.1903 8.89805 80.2547 8.70484 80.2547C8.45796 80.2547 8.10373 80.1044 7.76024 79.7287C7.41675 79.353 7.09478 78.7519 6.93377 77.9362C6.8801 77.6786 6.65467 77.5068 6.38632 77.5175C6.12871 77.539 5.91401 77.743 5.90328 78.0006L5.88179 78.1401V78.1723H5.89254L5.94619 78.226L5.91402 78.1509L5.89254 78.1723L5.94619 78.226L5.91402 78.1509L5.93545 78.2045V78.1401H5.91402L5.93545 78.1938V78.1294H5.92477C5.92477 78.1294 5.78518 78.1079 5.61344 77.9577C5.08748 77.5176 4.34684 76.1221 4.34684 73.6319C4.34684 73.0415 4.38977 72.3975 4.47564 71.6783C4.52931 71.2168 4.80844 70.1327 5.19486 68.8339C5.76377 66.8696 6.57951 64.3364 7.29869 62.2112C7.65291 61.1485 7.98568 60.1824 8.25403 59.4418C8.51164 58.7012 8.71558 58.1644 8.77998 58.0034C10.1647 54.8155 12.1075 50.6186 14.7481 46.8296C17.3994 43.0405 20.7484 39.6808 24.9346 38.1029C25.203 38.0063 25.3426 37.7058 25.2352 37.4375C25.1386 37.1691 24.8381 37.0296 24.5697 37.1369" fill="#1D2088"/>
<path d="M18.5369 64.8302C17.0771 61.5993 10.5723 59.2701 7.49163 60.1395C7.1052 61.2129 6.4397 63.6495 5.48438 65.5602C6.45043 63.8642 15.102 65.3669 17.2166 69.7034L18.5369 64.841" fill="#1D2088"/>
<path d="M21.1288 56.5765C19.6368 53.5495 13.6902 50.1469 10.2338 53.0557C9.84739 53.85 9.28923 54.8805 8.22656 57.2312C10.1587 54.7195 17.0392 56.9736 19.5187 61.0954C20.4633 59.3458 21.1288 56.5657 21.1288 56.5657" fill="#1D2088"/>
<path d="M25.4281 48.8488C22.8949 44.2332 16.6155 43.5678 15.0698 44.6733C14.619 45.6609 12.5366 48.5161 11.8281 50.2442C14.2003 47.3353 19.299 49.0849 22.5085 53.1853C24.0542 50.5555 25.4388 48.8488 25.4388 48.8488" fill="#1D2088"/>
<path d="M5.48438 75.791C5.48438 75.8983 5.48438 76.0056 5.48438 76.113C5.48438 76.7355 5.59169 77.2079 5.73124 77.6372C5.87078 78.0666 6.03182 78.4529 6.17137 78.9896C6.2465 79.2687 6.52555 79.4298 6.80464 79.3546C7.08372 79.2795 7.24477 79.0004 7.18037 78.7213C7.01936 78.1095 6.83688 77.6909 6.71881 77.3045C6.60074 76.9288 6.52554 76.596 6.52554 76.1022V75.8339C6.54701 75.5441 6.33238 75.308 6.04256 75.2865C5.75275 75.2758 5.51659 75.4904 5.49512 75.7802" fill="#1D2088"/>
<path d="M8.76062 76.5306C8.95383 77.2283 9.06119 77.604 9.17926 77.9582C9.2866 78.3124 9.39393 78.6237 9.56567 79.2141C9.65154 79.4931 9.9414 79.6434 10.2098 79.5576C10.4888 79.4717 10.6391 79.1819 10.564 78.9135C10.3815 78.3125 10.2741 77.9904 10.1668 77.6469C10.0594 77.3142 9.95215 76.9492 9.75894 76.2623C9.6838 75.9832 9.40469 75.8222 9.12561 75.8973C8.84652 75.9725 8.68548 76.2623 8.76062 76.5306Z" fill="#1D2088"/>
<path d="M12.9519 75.1994C13.2202 75.8864 13.349 76.1869 13.4993 76.4875C13.6496 76.788 13.8106 77.0563 14.1648 77.7433C14.2936 78.0009 14.6157 78.0975 14.8626 77.958C15.1202 77.8292 15.2168 77.5072 15.0773 77.2603C14.7123 76.5733 14.5513 76.2835 14.4225 76.0259C14.2937 75.7683 14.1863 75.5107 13.918 74.813C13.8106 74.5447 13.5101 74.4158 13.2417 74.5232C12.9734 74.6305 12.8445 74.9311 12.9519 75.1994Z" fill="#1D2088"/>
<path d="M42.6348 36.6553C37.3644 37.3423 26.4372 44.7594 22.3905 53.6041L19.6641 61.6544C27.2852 50.6737 42.2377 38.1688 47.5188 39.1026C48.4419 39.2637 45.7477 36.2582 42.6348 36.6553Z" fill="#FFF100"/>
<path d="M42.6238 36.6549L42.5594 36.1396C41.1425 36.3221 39.4357 36.9339 37.5788 37.8892C31.9971 40.7337 25.0415 46.5944 21.9179 53.3889L21.8964 53.4426L19.17 61.4929C19.0841 61.7398 19.1915 62.0082 19.4276 62.1263C19.6638 62.2443 19.9428 62.1691 20.0931 61.9545C23.7319 56.7056 29.0882 51.0811 34.2298 46.7876C36.7952 44.6408 39.3177 42.8268 41.5289 41.5495C43.7401 40.2722 45.6615 39.5637 46.9174 39.5745C47.0998 39.5745 47.2716 39.5852 47.4326 39.6174H47.5936C47.7117 39.6281 47.8726 39.6174 48.0229 39.4779C48.1839 39.3491 48.2376 39.1344 48.2269 39.0163C48.2269 38.7694 48.141 38.6406 48.0552 38.5011C47.9049 38.2649 47.6795 38.0288 47.3897 37.7712C46.5202 37.0091 44.996 36.1182 43.2141 36.1074C42.9994 36.1074 42.7848 36.1182 42.5701 36.1504L42.6345 36.6656L42.6989 37.1808C42.8706 37.1593 43.0424 37.1486 43.2141 37.1486C44.2982 37.1486 45.3394 37.5887 46.0908 38.0824C46.4665 38.3293 46.7671 38.5977 46.971 38.8016C47.0676 38.909 47.1428 38.9948 47.175 39.0592L47.1964 39.1022L47.4218 39.0163H47.1857V39.1022L47.4218 39.0163H47.1857H47.6151L47.336 38.6943C47.2179 38.7909 47.1857 38.9519 47.1857 39.0163H47.6151L47.336 38.6943L47.5829 38.9841V38.5977C47.5829 38.5977 47.4433 38.5977 47.336 38.6943L47.5829 38.9841V38.5977V38.7372L47.6043 38.5977H47.5829V38.7372L47.6043 38.5977C47.3789 38.5547 47.1535 38.544 46.9174 38.544C45.3073 38.544 43.3 39.3491 41.0137 40.6586C34.1654 44.5979 24.8053 53.346 19.2344 61.3641L19.6637 61.6647L20.1575 61.8364L22.8839 53.786L22.3902 53.6143L22.8624 53.829C24.8375 49.5247 28.53 45.4995 32.3728 42.4941C34.2942 40.9913 36.2585 39.7355 38.0511 38.8231C39.8436 37.9107 41.4752 37.3418 42.6989 37.1808L42.6345 36.6656" fill="#1D2088"/>
<path d="M20.5665 7.94116C20.384 8.28465 20.062 8.44565 19.7078 8.47786C18.8276 8.54226 17.4537 8.62813 15.8865 9.07895C14.3193 9.5405 13.6968 9.95911 12.9347 10.3777C12.6234 10.5387 12.1082 11.4726 11.6895 11.3331C11.0026 11.0218 10.5302 10.4851 10.2297 9.65858C9.0382 6.4599 10.3048 2.15564 13.525 1.21106C16.7559 0.266487 20.8349 2.04829 21.6829 5.35431C21.8976 6.20228 20.7597 7.58695 20.5665 7.94116Z" fill="#1D2088"/>
<path d="M16.9773 6.12797C16.9988 6.38558 16.7197 6.40703 16.5802 6.41777C16.2474 6.43924 15.7859 6.53586 15.1955 6.7076C14.6051 6.87934 14.165 7.05109 13.8752 7.21209C13.7571 7.2765 13.5103 7.42677 13.3814 7.17989C13.2741 7.00064 13.1775 6.80742 13.0916 6.60026C12.6408 5.3766 12.9628 4.0134 14.2294 3.64845C15.496 3.27277 16.548 4.23882 16.87 5.49467C16.9559 5.81669 16.9773 5.92402 16.9666 6.12797" fill="white"/>
<path d="M45.4134 38.8336C40.0571 40.6905 37.3414 41.8068 28.8401 42.2684C5.15017 43.3525 2.13389 23.8062 6.67437 13.6842C9.91604 6.43886 17.3332 2.42439 24.6431 1.31881C42.8372 -1.30025 55.8468 7.5015 56.3513 23.2266C56.6626 33.1339 47.0771 38.372 45.4241 38.8336" fill="#B0D7F2"/>
<path d="M21.0764 15.9053C20.7329 18.2345 22.0962 20.3598 24.1034 20.6496C26.1107 20.9395 28.0213 19.2972 28.3648 16.9679C28.7083 14.6387 27.345 12.5134 25.3378 12.2236C23.3305 11.9338 21.4199 13.5761 21.0764 15.9053Z" fill="white"/>
<path d="M21.0845 15.9059L20.58 15.8307C20.5371 16.0884 20.5156 16.3567 20.5156 16.6143C20.5156 17.7413 20.8699 18.7825 21.4817 19.5983C22.0935 20.4141 22.9844 20.9937 24.0363 21.144C24.2188 21.1654 24.3906 21.1869 24.573 21.1869C25.6357 21.1869 26.634 20.7361 27.3961 19.9847C28.1582 19.2441 28.6949 18.2137 28.8774 17.0329C28.9203 16.7646 28.9311 16.507 28.9311 16.2493C28.9311 15.1223 28.5769 14.0811 27.965 13.2653C27.3532 12.4496 26.4623 11.8699 25.4211 11.7197C25.2386 11.6982 25.0561 11.6768 24.8844 11.6768C22.7483 11.6768 20.9343 13.4693 20.5908 15.8307L21.5998 15.981C21.8789 14.0382 23.3601 12.6857 24.8844 12.6965C25.0132 12.6965 25.142 12.6965 25.2815 12.7287C26.0329 12.836 26.6877 13.2546 27.16 13.8879C27.6323 14.5105 27.9221 15.3477 27.9221 16.2601C27.9221 16.4748 27.9113 16.6895 27.8791 16.9041C27.7396 17.8702 27.2995 18.6967 26.6984 19.2763C26.0973 19.8559 25.3566 20.1887 24.5838 20.1887C24.455 20.1887 24.3262 20.1887 24.1974 20.1565C23.4353 20.0491 22.7912 19.6305 22.3082 18.9972C21.8359 18.3746 21.5461 17.5374 21.5461 16.625C21.5461 16.4211 21.5676 16.2064 21.5998 15.981L21.0952 15.9059" fill="#1D2088"/>
<path d="M23.0765 16.3252C22.8833 17.6562 23.6561 18.8584 24.8046 19.0301C25.9532 19.2018 27.0373 18.2573 27.2305 16.937C27.4237 15.606 26.6508 14.4038 25.5023 14.2321C24.3538 14.0603 23.2697 15.0049 23.0765 16.3252Z" fill="#1D2088"/>
<path d="M18.8004 5.35524C22.3426 5.39818 24.3713 6.79357 23.6092 7.72741C23.4482 7.92062 22.5895 7.92064 21.4946 7.7489C20.6466 7.62009 19.5625 7.56643 18.3066 7.38395C16.675 7.15854 15.9022 7.20148 15.2474 7.38395C14.2921 7.64157 14.013 7.44834 14.0237 7.26586C14.0559 6.33202 16.7073 5.32304 18.8111 5.35524" fill="#1D2088"/>
<path d="M54.3636 14.3184C54.9969 12.6868 55.276 15.7674 55.9952 18.687C56.4245 20.4045 56.4997 22.0789 56.4675 23.5173C55.598 24.1076 54.6534 24.7302 53.2044 25.1059C46.6029 26.8447 35.504 25.6211 35.461 23.689C35.4181 22.0789 51.7659 20.9519 54.3636 14.3184Z" fill="#1D2088"/>
<path d="M48.0953 37.3628C41.8374 36.8583 35.1715 32.4145 35.4291 30.8366C35.6653 29.3876 47.784 32.4896 54.3317 30.0638C55.9204 29.4734 48.0953 37.3628 48.0953 37.3628Z" fill="#1D2088"/>
<path d="M29.0837 0.653124C30.683 0.674591 32.261 0.38478 33.7423 0.588723C18.6503 2.15586 18.0921 11.183 16.4391 11.022C15.1617 10.9039 14.7753 3.39025 22.8795 1.72651C24.3607 1.5655 27.4843 0.631656 29.0944 0.653124" fill="#1D2088"/>
<path d="M45.4129 38.8343L45.2304 38.362C43.5237 39.0382 41.7955 39.8003 39.3053 40.4444C36.815 41.0884 33.5626 41.6036 28.8289 41.7646C28.2707 41.7968 27.7126 41.8075 27.1759 41.8075C19.705 41.8075 14.2521 39.2529 10.6347 35.5283C7.01737 31.8036 5.24631 26.8661 5.24631 22.0788C5.24631 19.2021 5.8903 16.3899 7.14618 13.9211C10.6455 7.02995 17.5582 2.91888 24.7285 1.83477C27.0363 1.50202 29.2368 1.34102 31.3084 1.34102C38.3607 1.34102 44.0283 3.18723 48.1286 6.42884C52.229 9.67046 54.7945 14.3182 55.6424 20.0179C55.7605 20.8659 55.8249 21.6816 55.8249 22.4759C55.8249 27.0378 53.9142 30.7839 51.6279 33.521C49.3523 36.2474 46.6473 37.9541 45.2948 38.3512H45.2519L45.4344 38.8343L45.5846 39.3173C47.2377 38.8021 49.9856 37.031 52.4007 34.1651C54.8052 31.2991 56.8446 27.3276 56.8446 22.4652C56.8446 21.6172 56.7802 20.7478 56.6514 19.8569C55.7819 13.9425 53.077 9.02643 48.7619 5.62381C44.4468 2.21045 38.5431 0.310547 31.3084 0.310547C29.1831 0.310547 26.9397 0.471556 24.5782 0.815038C17.1396 1.94209 9.92631 6.21418 6.23381 13.4488C4.89207 16.0678 4.22656 19.0411 4.22656 22.068C4.22656 27.1022 6.09425 32.2867 9.90482 36.226C13.7154 40.1653 19.4796 42.8165 27.1759 42.8165C27.734 42.8165 28.3029 42.8058 28.8825 42.7736L28.8611 42.2691V42.7736C33.6699 42.6126 37.0082 42.0866 39.5736 41.4211C42.139 40.7556 43.9424 39.9613 45.6169 39.3066L45.4344 38.8343" fill="#1D2088"/>
<path d="M44.9386 13.5666C44.4556 13.4915 44.0799 13.1802 43.8438 12.7831C43.2534 11.7741 42.3517 10.1855 40.9241 8.5432C39.4965 6.89019 38.67 6.34275 37.7469 5.61285C37.3926 5.32304 36.813 5.04397 36.7164 4.48581C36.652 3.54123 37.1672 2.89719 37.8971 2.18875C40.7094 -0.569841 45.2284 -0.966991 48.1695 2.4249C51.1106 5.82752 50.0695 10.2391 46.9459 12.622C46.1408 13.2339 45.4431 13.6418 44.9386 13.5559" fill="#1D2088"/>
<path d="M42.4291 10.2807C42.1608 10.4095 41.9783 10.0982 41.871 9.93717C41.6456 9.55075 41.2698 9.04627 40.7439 8.43444C40.2072 7.81188 39.7563 7.37179 39.4129 7.09271C39.2733 6.97464 38.962 6.75998 39.1553 6.50237C39.2841 6.2952 39.4419 6.10198 39.6276 5.92273C40.701 4.87081 42.3862 4.68833 43.5455 6.01933C44.7048 7.35032 44.2646 8.9926 43.0839 9.90497C42.7726 10.1411 42.676 10.2163 42.4399 10.2914" fill="white"/>
<path d="M10.3125 29.6566C10.6775 33.0162 12.3197 34.4975 14.1231 34.8195C15.6151 34.8195 17.354 33.1021 17.8048 29.7532L14.1982 28.7549L10.3125 29.6566Z" fill="#EF90B9"/>
<path d="M10.3092 29.6562L9.80469 29.7098C9.99897 31.4594 10.5249 32.769 11.287 33.7028C12.0384 34.6259 13.0259 35.1411 14.0349 35.3236H14.1208C15.0654 35.3236 15.9982 34.7976 16.7496 33.8638C17.5009 32.93 18.0698 31.5775 18.306 29.8279C18.3382 29.581 18.189 29.3341 17.9421 29.2697L14.3344 28.2715H14.0875L10.2018 29.1731C9.94422 29.2268 9.78428 29.4629 9.81648 29.7206L10.3199 29.6669L10.438 30.1606L14.2056 29.2805L17.6834 30.2465L17.823 29.7528L17.3185 29.6884C17.1038 31.2877 16.5778 32.4684 15.966 33.2305C15.3542 33.9926 14.6779 34.3146 14.1305 34.3146V34.8191L14.2163 34.3146C13.422 34.1751 12.6814 33.7887 12.0803 33.0588C11.4792 32.3181 11.008 31.2125 10.8255 29.6025L10.3199 29.6562" fill="#1D2088"/>
<path d="M13.4117 26.35C12.0485 26.3286 12.1558 24.9976 11.4152 24.3106C11.1254 24.0315 11.7801 25.9529 11.4152 25.6953C11.1146 25.4806 10.1485 25.1371 9.96605 24.7078C9.34348 23.248 7.58312 22.6147 6.62779 22.5825C1.07832 22.4322 1.48621 32.3503 6.62779 32.8011C9.9124 33.0909 10.1056 30.708 11.9519 30.5255C12.9072 30.3967 15.6121 34.2716 21.6554 33.6598C27.924 33.0265 27.0009 22.2283 21.4407 22.3249C16.4279 22.4107 16.4172 26.393 13.4009 26.35" fill="white"/>
<path d="M13.4122 26.35V25.8455C13.1546 25.8455 13.0259 25.7811 12.9293 25.7167C12.7683 25.6093 12.6394 25.3732 12.4784 25.0404C12.3174 24.7184 12.1457 24.2998 11.77 23.9456C11.7056 23.9027 11.6304 23.7953 11.3728 23.7846C11.2547 23.7846 11.1045 23.8383 11.0186 23.9134C10.8898 24.0315 10.8683 24.1388 10.8469 24.2032L10.8254 24.3642C10.8254 24.4823 10.8468 24.5896 10.8683 24.6969C10.9005 24.8687 10.9327 25.0512 10.9649 25.2229C10.9971 25.3839 11.0186 25.5449 11.0186 25.5771L11.3298 25.5986L11.0508 25.4591L11.0186 25.5771L11.3298 25.5986L11.0508 25.4591L11.4586 25.663L11.1903 25.2981L11.0508 25.4698L11.4586 25.6737L11.1903 25.3088L11.4694 25.6952V25.2229L11.1903 25.3088L11.4694 25.6952V25.2229V25.6415L11.7377 25.3195C11.7377 25.3195 11.6304 25.2337 11.4694 25.2229V25.6415L11.7377 25.3195L11.7056 25.2981C11.5768 25.2122 11.448 25.1478 11.3084 25.0726C11.0937 24.9653 10.8683 24.8472 10.6858 24.7399L10.4819 24.5896L10.439 24.5359V24.5252C10.074 23.6558 9.37628 23.0547 8.66783 22.679C7.95939 22.2926 7.21873 22.1101 6.63909 22.0994H6.49954C5.02899 22.0994 3.86973 22.7649 3.16129 23.7631C2.44211 24.7613 2.10938 26.0387 2.10938 27.3375C2.10938 28.7114 2.47431 30.1068 3.22569 31.2339C3.9556 32.3502 5.11489 33.1981 6.59618 33.3269C6.80012 33.3484 6.98257 33.3484 7.16505 33.3484C8.68927 33.3592 9.6339 32.7259 10.2887 32.1355C10.6214 31.8457 10.9005 31.5773 11.1689 31.3841C11.4372 31.1909 11.6841 31.0728 12.0168 31.0406H12.0383L12.0168 30.8689V31.0406H12.0383L12.0168 30.8689V31.0406L12.0705 31.0621C12.2315 31.1158 12.5857 31.3626 13.0258 31.6739C14.3783 32.6292 16.7398 34.2501 20.3893 34.2393C20.808 34.2393 21.2481 34.2179 21.7204 34.1749C23.352 34.0139 24.5971 33.1874 25.3699 32.0604C26.1535 30.9333 26.5077 29.5272 26.5077 28.121C26.5077 26.5861 26.0784 25.0512 25.2519 23.849C24.4254 22.6575 23.1373 21.8096 21.5165 21.8096H21.4306L21.4521 22.3248V21.8203C20.1318 21.8417 19.1013 22.1208 18.2855 22.5395C17.0511 23.162 16.2997 24.0744 15.6234 24.7399C15.28 25.0834 14.9687 25.3624 14.6252 25.5449C14.2817 25.7274 13.9275 25.8455 13.4552 25.8455H13.4122V26.35V26.8545H13.4552C14.3139 26.8545 15.0116 26.5539 15.559 26.1353C16.3963 25.502 16.9974 24.6755 17.824 24.0207C18.6505 23.366 19.681 22.8507 21.4521 22.8185H21.5057C22.7616 22.8185 23.7062 23.4304 24.4039 24.4179C25.0909 25.4054 25.4773 26.7579 25.4773 28.0996C25.4773 29.334 25.1553 30.5469 24.522 31.4593C23.8779 32.3716 22.9548 32.9942 21.6023 33.1445C21.1729 33.1874 20.7651 33.2089 20.3787 33.2089C17.9528 33.2089 16.1924 32.4468 14.8935 31.6847C14.2495 31.2983 13.7128 30.9118 13.2727 30.6005C13.0473 30.4503 12.8541 30.3107 12.6502 30.2034C12.457 30.0961 12.253 30.0102 11.9953 30.0102H11.8773L11.9524 30.5254L11.8988 30.0209C11.3621 30.0746 10.922 30.2893 10.557 30.5469C10.0203 30.9333 9.62316 31.3949 9.14013 31.7276C8.6571 32.0604 8.09896 32.318 7.15437 32.318C7.00409 32.318 6.84307 32.318 6.67132 32.2965C5.53352 32.1892 4.67481 31.5773 4.06297 30.6542C3.45113 29.7311 3.11837 28.5075 3.11837 27.316C3.11837 26.1889 3.40818 25.1048 3.97708 24.332C4.54598 23.5699 5.32954 23.0869 6.49954 23.0762H6.61767C6.99336 23.0762 7.62662 23.2372 8.18479 23.5377C8.75369 23.849 9.2475 24.2998 9.50512 24.8902C9.61246 25.1263 9.76274 25.2659 9.91301 25.3947C10.1492 25.5771 10.4068 25.7167 10.6429 25.8348C10.8683 25.9528 11.083 26.0602 11.1152 26.0924L11.4157 25.6845L11.0937 26.0709C11.1796 26.1353 11.2762 26.2104 11.4694 26.2104C11.5875 26.2104 11.7378 26.1568 11.8236 26.0816C11.9632 25.9528 11.9846 25.8347 12.0061 25.7596L12.0276 25.5664C12.0276 25.3195 11.9739 25.0834 11.9203 24.8365C11.8988 24.7184 11.8773 24.6004 11.8559 24.5145L11.8344 24.3535H11.4909L11.8129 24.4715L11.8344 24.3535H11.4909L11.8129 24.4715L11.3728 24.2998L11.6841 24.654L11.8129 24.4715L11.3728 24.2998L11.6841 24.654L11.3621 24.2891V24.7721C11.4694 24.7721 11.6089 24.7292 11.6841 24.654L11.3621 24.2891V24.7721V24.3427L11.0615 24.6647C11.0615 24.6647 11.1259 24.7614 11.3621 24.7721V24.3427L11.0615 24.6647C11.3084 24.8794 11.4586 25.3195 11.727 25.8025C11.8665 26.0494 12.0383 26.307 12.3174 26.511C12.5965 26.7149 12.9722 26.833 13.3908 26.833V26.3285" fill="#1D2088"/>
<path d="M14.1535 22.4103C14.8834 22.6464 15.6133 22.8396 16.1071 23.2582C16.0749 25.0508 15.0123 26.6823 12.4468 26.6501C9.8814 26.6179 9.13 24.4926 9.14074 22.6893C10.2356 21.9379 12.8332 21.9809 14.1642 22.4103" fill="#1D2088"/>
<path d="M9.07478 22.8722L9.57931 22.9044C9.63298 21.9383 10.438 20.5859 11.4899 19.5447C12.0159 19.0187 12.5956 18.5679 13.1538 18.2566C13.7119 17.9453 14.2379 17.7736 14.6243 17.7736L14.839 17.7951L14.8604 17.677L14.8068 17.7843H14.839L14.8604 17.677L14.8068 17.7843C14.8068 17.7843 14.9141 17.9131 14.9892 18.0956C15.1288 18.4176 15.2683 18.9436 15.365 19.5232C15.6655 21.2836 15.7191 23.6343 15.7191 23.7416H16.2237L15.7406 23.6128L15.7191 23.7416H16.2237L15.7406 23.6128L16.1593 23.7202L15.7514 23.6128L16.17 23.7202L15.7621 23.6128C15.7621 23.6128 15.7192 23.6987 15.7621 23.8919L15.9124 24.128L16.0626 24.2246L16.2451 23.7524H15.7299C15.7084 24.5467 15.4937 25.1048 15.0751 25.4912C14.6458 25.8776 13.9266 26.146 12.7566 26.146H12.6492C11.4792 26.1245 10.7493 25.7596 10.277 25.2443C9.80475 24.7291 9.57931 23.9992 9.57931 23.1942H9.14992L9.56857 23.2908V23.2157L9.14992 23.1942L9.56857 23.2908V23.1298H9.54708H9.57931V22.9044L9.07478 22.8722L8.57031 22.84C8.57031 22.9366 8.57031 23.0332 8.57031 23.119V23.1942L9.08552 23.1513L8.5918 23.0332V23.1727C8.58107 24.1602 8.86016 25.1478 9.5364 25.8991C10.2126 26.6505 11.2753 27.1228 12.6492 27.1335H12.7673C14.0768 27.1335 15.0751 26.833 15.7621 26.2211C16.4491 25.5986 16.7389 24.7077 16.7604 23.7416C16.7604 23.5269 16.6316 23.3337 16.4384 23.2586L16.2558 23.7309L16.6852 23.4625C16.5993 23.3337 16.492 23.28 16.4384 23.2586L16.2558 23.7309H16.7604L16.6852 23.4625L16.2558 23.7309L16.7496 23.8382V23.7309H16.2558L16.7496 23.8382L16.2666 23.7309L16.7389 23.8597V23.8382L16.2666 23.7309L16.7389 23.8597L16.7604 23.7202C16.7604 23.5806 16.7281 22.0135 16.5457 20.4249C16.4491 19.6306 16.3202 18.8255 16.127 18.1815C16.0304 17.8595 15.9231 17.5696 15.7621 17.3228C15.687 17.194 15.5903 17.0867 15.4723 16.9793C15.3542 16.8827 15.2039 16.7968 15.0215 16.7646C14.8926 16.7432 14.7745 16.7324 14.6457 16.7324C13.991 16.7324 13.3362 16.9793 12.6815 17.3443C11.7047 17.8917 10.7278 18.7504 9.97646 19.7164C9.22508 20.6825 8.66693 21.7559 8.58106 22.8078L9.08552 22.84" fill="#1D2088"/>
<path d="M24.5904 28.6154L29.5281 28.6798C29.8072 28.6798 30.0433 28.4544 30.0433 28.1753C30.0433 27.8963 29.8179 27.6601 29.5388 27.6601L24.6011 27.5957C24.3221 27.5957 24.0859 27.8211 24.0859 28.1002C24.0859 28.3793 24.3113 28.6154 24.5904 28.6154Z" fill="#1D2088"/>
<path d="M23.942 30.9337L28.5577 32.8336C28.8153 32.9409 29.1158 32.8121 29.2232 32.5545C29.3305 32.2969 29.2124 31.9964 28.9441 31.889L24.3285 29.9891C24.0709 29.8818 23.7703 30.0106 23.663 30.2682C23.5556 30.5258 23.6844 30.8264 23.942 30.9337Z" fill="#1D2088"/>
<path d="M24.3709 26.2111L29.0402 24.4292C29.2978 24.3326 29.4373 24.0321 29.33 23.7745C29.2334 23.5169 28.9329 23.3774 28.6752 23.4847L24.006 25.2665C23.7484 25.3631 23.6088 25.6637 23.7161 25.9213C23.8127 26.1789 24.1133 26.3184 24.3709 26.2111Z" fill="#1D2088"/>
<path d="M4.15405 27.123L0.515211 27.0693C0.236127 27.0693 0 27.2947 0 27.5738C0 27.8529 0.225448 28.089 0.504532 28.089L4.14331 28.132C4.42239 28.132 4.65858 27.9066 4.65858 27.6275C4.65858 27.3484 4.43314 27.1122 4.15405 27.1122" fill="#1D2088"/>
<path d="M4.31415 29.559L0.94366 31.3516C0.696778 31.4804 0.600159 31.7917 0.728967 32.0386C0.857775 32.2855 1.16908 32.3821 1.41596 32.2532L4.78645 30.4607C5.03333 30.3319 5.12995 30.0206 5.00114 29.7737C4.87233 29.5269 4.56103 29.4302 4.31415 29.559Z" fill="#1D2088"/>
<path d="M4.85478 24.8368L1.53801 22.9477C1.29113 22.8082 0.979818 22.894 0.840276 23.1409C0.700734 23.3878 0.786598 23.6991 1.03348 23.8386L4.35031 25.7278C4.5972 25.8673 4.90844 25.7814 5.04798 25.5345C5.18753 25.2876 5.10166 24.9764 4.85478 24.8368Z" fill="#1D2088"/>
<path d="M23.1991 1.94148C27.0418 1.7268 29.1564 3.42273 28.4802 4.2063C27.7932 5.0006 26.5802 3.6267 21.6104 3.83064C18.0145 3.98092 16.7157 4.94694 16.2112 4.0453C16.1683 3.95943 20.7625 2.07028 23.2098 1.94148" fill="#1D2088"/>
<path d="M11.1144 15.8629C10.8138 17.9345 9.46131 19.4587 8.10883 19.2655C6.75634 19.0723 5.9084 17.2261 6.20895 15.1437C6.50951 13.0721 7.86198 11.5479 9.21446 11.7411C10.5669 11.9343 11.4257 13.7805 11.1144 15.8629Z" fill="white"/>
<path d="M11.1111 15.8636L10.6603 15.7992C10.5315 16.7009 10.1773 17.4844 9.74791 18.0211C9.30782 18.5578 8.80327 18.8369 8.35244 18.8262H8.18073C7.7621 18.751 7.38639 18.472 7.08584 17.9675C6.79602 17.4737 6.6028 16.7653 6.6028 15.971C6.6028 15.7241 6.62432 15.4665 6.65652 15.2089C6.78533 14.2965 7.13952 13.5129 7.56888 12.987C8.00898 12.4503 8.51346 12.1712 8.96429 12.1819H9.13607C9.55469 12.2571 9.93034 12.5361 10.2309 13.0406C10.5207 13.5451 10.7139 14.2428 10.7139 15.0264C10.7139 15.2733 10.6925 15.5309 10.6603 15.7992L11.1111 15.8636L11.5619 15.928C11.6048 15.6275 11.6264 15.3269 11.6264 15.0264C11.6264 14.1033 11.4117 13.2446 11.0145 12.5791C10.6281 11.9136 10.0163 11.4091 9.26487 11.3018C9.15753 11.291 9.06088 11.2803 8.95354 11.2803C8.13776 11.2803 7.40789 11.7418 6.84972 12.4288C6.29155 13.1158 5.89436 14.0389 5.74409 15.0908C5.70115 15.3914 5.67969 15.7026 5.67969 15.9817C5.67969 16.9155 5.89438 17.7635 6.29153 18.4398C6.67796 19.1053 7.2898 19.6098 8.04118 19.7278C8.13779 19.7386 8.24509 19.7493 8.3417 19.7493C9.15748 19.7493 9.89815 19.2877 10.4456 18.6008C11.0038 17.9138 11.4009 16.9907 11.5619 15.9388L11.1111 15.8744" fill="#1D2088"/>
<path d="M10.4925 15.9064C10.3208 17.0871 9.5479 17.9565 8.77505 17.8385C8.0022 17.7311 7.51916 16.6792 7.69091 15.4985C7.86265 14.3178 8.62479 13.4483 9.39764 13.5664C10.1705 13.6737 10.6535 14.7257 10.4818 15.9064" fill="#1D2088"/>
</svg>
