<svg width="105" height="152" viewBox="0 0 105 152" fill="none" xmlns="http://www.w3.org/2000/svg">
<mask id="mask0_4807_77329" style="mask-type:luminance" maskUnits="userSpaceOnUse" x="1" y="37" width="43" height="41">
<path d="M2.07682 46.4142C2.07682 46.4142 -0.91768 66.5253 18.187 74.1095C37.2917 81.7068 43.163 72.6319 43.8169 66.8392C44.4707 61.0595 38.8086 56.7574 30.7797 53.7237C22.7638 50.69 16.2778 51.4223 15.7156 46.2049C15.1533 40.9875 11.6095 37.8623 11.6095 37.8623C11.3349 37.9277 2.07682 46.4011 2.07682 46.4011" fill="white"/>
</mask>
<g mask="url(#mask0_4807_77329)">
<path d="M30.033 61.0728C22.2133 57.5684 16.6688 51.2919 15.6358 48.1928C14.812 45.7083 15.1781 42.1123 15.2827 38.5949C15.3873 35.3389 11.909 33.7044 10.4968 35.3389C9.9737 33.7044 5.90694 33.8221 5.77618 36.1758C4.27239 34.6328 0.833267 36.6073 1.7617 39.0133C0.950955 38.8956 -1.79509 41.027 0.0617718 43.93C0.872512 45.1983 2.507 48.0751 3.01699 49.5135C3.3962 50.5727 5.88077 57.4507 12.4582 63.4658C31.7068 79.7979 48.9808 69.5592 30.0199 61.0728" fill="#B0D7F2"/>
<path d="M30.0384 61.0729L30.2333 60.6284C26.3757 58.9023 23.0818 56.4963 20.6365 54.1295C18.1781 51.7758 16.5684 49.4482 16.1107 48.0491C15.7315 46.8984 15.6138 45.4469 15.6138 43.8385C15.6138 42.204 15.7315 40.4126 15.7838 38.6211V38.4642C15.7838 37.1828 15.2738 36.1105 14.5546 35.3783C13.8354 34.646 12.8952 34.2145 11.9798 34.2145C11.2999 34.2145 10.6186 34.4629 10.1478 35.0252L10.5153 35.339L10.9717 35.1952C10.8017 34.6721 10.3976 34.306 9.93992 34.0837C9.48224 33.8614 8.94612 33.7568 8.39691 33.7568C7.70386 33.7568 6.98333 33.9268 6.39489 34.306C5.80645 34.6852 5.34875 35.3259 5.30952 36.1497L5.79335 36.1759L6.13335 35.8359C5.6626 35.3521 5.03493 35.1429 4.42034 35.1429C3.62267 35.1429 2.825 35.4698 2.21041 36.0059C1.59582 36.5289 1.13813 37.3004 1.13813 38.2027C1.13813 38.5296 1.20354 38.8565 1.33431 39.1965L1.79195 39.0265L1.85868 38.5427H1.72659C1.42583 38.5427 1.15252 38.6473 0.851764 38.8042C0.42024 39.0527 -0.0387415 39.4449 -0.404882 39.981C-0.757947 40.5172 -1.03125 41.1971 -1.03125 41.9686C-1.03125 42.6617 -0.823332 43.4201 -0.326427 44.1916C0.0658671 44.8062 0.680477 45.8392 1.24276 46.8853C1.80505 47.9314 2.34249 49.0036 2.57787 49.6705C2.97016 50.7689 5.48085 57.7124 12.1498 63.819C19.6819 70.2132 26.9249 72.6061 31.9463 72.6061C33.9339 72.6061 35.5815 72.2269 36.7846 71.5469C37.3861 71.207 37.8712 70.7755 38.1981 70.2655C38.5368 69.7555 38.7212 69.1671 38.7212 68.5394C38.7212 67.2972 38.0269 65.9765 36.6408 64.6428C35.2547 63.309 33.1637 61.9491 30.2215 60.6415L30.0253 61.086L29.8279 61.5306C32.6916 62.8121 34.7054 64.1328 35.9738 65.3488C37.2423 66.578 37.7522 67.6895 37.7522 68.5525C37.7522 68.9971 37.6359 69.3763 37.3874 69.7424C37.0343 70.2785 36.3792 70.7623 35.4638 71.1154C34.5354 71.4554 33.3455 71.6647 31.9463 71.6647C27.2257 71.6647 20.1513 69.3763 12.7762 63.1128L12.4637 63.479L12.7906 63.1259C6.30465 57.1893 3.84629 50.4027 3.48015 49.3697C3.20554 48.5982 2.65632 47.5129 2.08095 46.4407C1.50559 45.3684 0.891022 44.3354 0.472575 43.6816C0.0672047 43.0409 -0.0910601 42.4786 -0.0910601 41.9817C-0.0910601 41.2364 0.24895 40.6218 0.667397 40.1641C0.87662 39.9418 1.09889 39.7587 1.29504 39.6541C1.49119 39.5364 1.66252 39.4972 1.68868 39.4972C1.85867 39.5234 2.02734 39.458 2.13195 39.3272C2.23657 39.1965 2.26272 39.0134 2.21041 38.8434C2.11887 38.6211 2.08095 38.4119 2.08095 38.2027C2.08095 37.6535 2.36865 37.1305 2.82632 36.7513C3.284 36.359 3.88419 36.1236 4.40725 36.1236C4.81262 36.1236 5.15392 36.2544 5.42853 36.5159C5.55929 36.6597 5.76853 36.6989 5.93853 36.6335C6.1216 36.5682 6.23927 36.3982 6.25235 36.2021C6.2785 35.7052 6.51388 35.3783 6.90617 35.1167C7.29847 34.8683 7.84768 34.7245 8.38382 34.7245C8.80227 34.7245 9.20634 34.8029 9.5071 34.9598C9.80786 35.1037 9.97782 35.2867 10.0432 35.4959C10.0955 35.6659 10.2407 35.7836 10.4107 35.8228C10.5793 35.862 10.7624 35.7967 10.867 35.6659C11.1416 35.339 11.5091 35.1952 11.9668 35.1952C12.5683 35.1952 13.2875 35.4959 13.8498 36.0713C14.4121 36.6466 14.803 37.4574 14.803 38.4773V38.608C14.7507 40.3733 14.62 42.1648 14.62 43.8516C14.62 45.5123 14.739 47.0553 15.1705 48.376C15.7328 50.0628 17.4053 52.4165 19.9421 54.8617C22.4658 57.2939 25.8526 59.7654 29.8279 61.5437L30.0253 61.0991" fill="#1D2088"/>
<path fill-rule="evenodd" clip-rule="evenodd" d="M7.38353 39.693C10.6265 38.3462 12.9815 42.1644 8.95399 43.9951C5.43643 45.5904 3.31675 41.3799 7.38353 39.693Z" fill="#1D2088"/>
<path fill-rule="evenodd" clip-rule="evenodd" d="M13.0784 37.8494C13.1176 38.3594 12.7384 38.8171 12.2285 38.8563C11.7185 38.9086 11.2608 38.5294 11.2215 38.0194C11.1823 37.5095 11.5615 37.0519 12.0715 37.0126C12.5945 36.9603 13.0391 37.3395 13.0784 37.8625" fill="#1D2088"/>
<path fill-rule="evenodd" clip-rule="evenodd" d="M9.00222 36.9602C9.05453 37.4702 8.6622 37.9279 8.15222 37.9671C7.64224 38.0194 7.18454 37.6271 7.14531 37.1171C7.093 36.6071 7.48533 36.1495 7.99531 36.1103C8.50529 36.0711 8.96299 36.4372 9.00222 36.9602Z" fill="#1D2088"/>
<path fill-rule="evenodd" clip-rule="evenodd" d="M5.29712 38.4904C5.33635 39.0004 4.95718 39.458 4.4472 39.4972C3.93722 39.5495 3.47952 39.1704 3.44029 38.6473C3.40106 38.1373 3.78031 37.6797 4.29029 37.6404C4.80027 37.5881 5.25789 37.9804 5.29712 38.4904Z" fill="#1D2088"/>
<path fill-rule="evenodd" clip-rule="evenodd" d="M3.25806 41.681C3.29729 42.191 2.91804 42.6486 2.40806 42.6878C1.89808 42.7401 1.44046 42.3479 1.40123 41.8379C1.362 41.3279 1.74117 40.8702 2.25115 40.831C2.76113 40.7918 3.21883 41.1579 3.25806 41.681Z" fill="#1D2088"/>
<path d="M6.74985 56.5485C9.84898 57.3985 15.3149 55.1624 18.2048 51.841C16.8187 50.3373 16.4264 49.8012 15.7465 48.5459C13.1704 51.5926 9.63972 53.5279 4.34375 52.4033L6.76286 56.5615" fill="#1D2088"/>
<path d="M12.4169 63.6094C17.4906 63.6356 22.4727 59.5428 23.1003 56.6922C21.9758 55.0576 20.4327 54.9792 19.2689 53.5146C18.8374 55.973 14.2345 59.3466 9.30469 60.105C10.4946 61.7134 12.4169 63.6094 12.4169 63.6094Z" fill="#1D2088"/>
<path d="M20.0242 68.7481C21.5279 68.9573 27.2685 65.7668 28.3669 60.2878C27.1639 59.0195 25.9478 58.5226 24.6794 57.3457C23.5548 61.7916 20.0764 65.0868 15.5781 66.0413C17.3042 67.6105 20.0242 68.7351 20.0242 68.7351" fill="#1D2088"/>
</g>
<path d="M13.9386 39.8108C13.9386 39.8108 14.1216 40.7654 14.3047 41.9815C14.4878 43.1845 14.6839 44.6621 14.697 45.6298C14.697 45.9044 14.9324 46.1267 15.207 46.1267C15.4816 46.1267 15.7039 45.8913 15.7039 45.6167C15.6516 43.4983 14.9324 39.654 14.9324 39.6409C14.8801 39.3663 14.6186 39.1832 14.344 39.2355C14.0694 39.2878 13.8863 39.5493 13.9386 39.8239" fill="#1D2088"/>
<path d="M4.85148 18.2607C4.53764 15.2532 5.16532 13.9194 6.82604 13.8409C8.85289 13.7494 9.28439 14.9001 9.25824 18.3522C9.21901 23.3866 10.8274 52.9126 10.7097 59.2807C10.5789 65.6488 9.5721 65.9103 8.87905 60.2091C8.19907 54.5079 4.85148 18.2607 4.85148 18.2607Z" fill="#00561F"/>
<path d="M4.84406 18.2611L5.44553 18.1957C5.39322 17.7119 5.36707 17.2804 5.36707 16.9012C5.36707 15.9335 5.53707 15.3058 5.77244 14.9658C6.00782 14.6389 6.26936 14.4821 6.84472 14.4428H7.02781C7.4201 14.4428 7.68164 14.4951 7.85163 14.5867C8.10009 14.7174 8.28317 14.9397 8.44009 15.502C8.58393 16.0643 8.64928 16.9143 8.64928 18.065C8.64928 18.1434 8.64928 18.2349 8.64928 18.3526L9.26391 18.3264H8.64928V18.4833C8.64928 21.1509 9.01542 29.2189 9.38156 37.5877C9.7477 45.9564 10.1007 54.639 10.1007 58.4311C10.1007 58.7319 10.1007 59.0065 10.1007 59.2418C10.0746 60.8894 9.96998 62.1186 9.85229 62.9032C9.78691 63.2954 9.72158 63.57 9.65619 63.7139L9.63001 63.7792L9.82619 63.91L9.68229 63.727L9.61693 63.7792L9.8131 63.91L9.66928 63.727L9.94384 64.0931V63.6354L9.66928 63.727L9.94384 64.0931V63.6354V64.0408L10.2316 63.7401C10.2316 63.7401 10.1138 63.6354 9.94384 63.6354V64.0408L10.2316 63.7401L10.1662 63.8054L10.2446 63.7531L10.1792 63.8054L10.2577 63.7531C10.2577 63.7531 10.1792 63.6223 10.1138 63.4392C9.91769 62.89 9.68235 61.7524 9.49928 60.1048C9.15929 57.2673 8.15235 46.7802 7.237 37.0123C6.77932 32.1218 6.33472 27.4144 6.00781 23.9362C5.6809 20.4448 5.47171 18.1957 5.47171 18.1826V18.078V18.1695L4.87016 18.2349L4.25561 18.2872C4.25561 18.2872 7.6032 54.5213 8.28318 60.2487C8.4401 61.6217 8.62313 62.6547 8.81928 63.387C8.92389 63.7531 9.01543 64.0408 9.14619 64.2761C9.21157 64.3938 9.27696 64.5115 9.39465 64.6161C9.49926 64.7207 9.69538 64.8515 9.94384 64.8515C10.2315 64.8515 10.4408 64.6946 10.5454 64.5639C10.7415 64.3285 10.8069 64.1062 10.8985 63.8185C11.1338 62.9555 11.2776 61.4779 11.3168 59.2549C11.3168 59.0065 11.3168 58.7319 11.3168 58.4311C11.3168 54.5737 10.9507 45.9172 10.5846 37.5353C10.2184 29.1666 9.86538 21.0855 9.86538 18.4833V18.3395V18.3133V18.2872V18.0519C9.86538 16.4566 9.77384 15.3451 9.36847 14.482C9.15925 14.0505 8.83237 13.6975 8.427 13.4883C8.00856 13.266 7.55088 13.1875 7.0409 13.1875H6.80553C5.98172 13.2137 5.22322 13.5667 4.77862 14.2467C4.33402 14.9136 4.16406 15.7766 4.16406 16.875C4.16406 17.3065 4.19023 17.7773 4.25561 18.2872L4.85707 18.2219" fill="#1E2380"/>
<path d="M6.32299 14.156C3.87769 13.5676 3.44622 10.7432 4.00851 8.25873C4.5708 5.76118 6.00918 2.83205 4.54461 1.40675C4.54461 1.40675 5.61685 1.52449 5.65608 1.78601C5.70839 2.03446 5.28993 1.21062 4.5838 0.517578C7.26447 1.70751 8.76829 4.00895 9.67056 7.6572C10.5598 11.3185 8.80755 14.0383 7.98373 14.0776C7.15991 14.1168 6.3099 14.156 6.3099 14.156" fill="#FFFEEE"/>
<path d="M6.3357 14.155L6.46651 13.632C5.695 13.4358 5.21111 13.0304 4.85805 12.4289C4.51806 11.8274 4.34813 11.0298 4.34813 10.1536C4.34813 9.57829 4.42655 8.96373 4.55732 8.37531C4.92346 6.72771 5.73424 4.8186 5.74732 3.15792C5.74732 2.38643 5.55111 1.60185 4.94959 1.0265L4.5704 1.41877L4.50504 1.95494H4.64886C4.7927 1.99417 5.00193 2.03336 5.14577 2.08567L5.28959 2.13794L5.38114 1.98103L5.25041 2.09876L5.28959 2.13794L5.38114 1.98103L5.25041 2.09876L5.53805 1.82413L5.14577 1.90258L5.25041 2.11184L5.53805 1.83722L5.14577 1.91567L5.68187 1.82413L5.14577 1.87648H5.35496L5.14577 1.86339H5.66886L5.22423 1.58877C5.14577 1.71953 5.14577 1.79801 5.14577 1.86339H5.66886L5.22423 1.58877L5.68187 1.86339V1.32723C5.4988 1.32723 5.28961 1.45799 5.22423 1.57568L5.68187 1.8503V1.31414V1.83722L5.94342 1.37958C5.94342 1.37958 5.82571 1.31414 5.68187 1.31414V1.83722L5.94342 1.37958L5.72114 1.78494L6.06114 1.47112L5.95651 1.39267L5.73423 1.79803L6.07423 1.48413L5.90423 1.65413L6.08724 1.49722L5.91724 1.65413L6.10033 1.49722L5.99577 1.3534C5.8127 1.09188 5.48574 0.621106 5.04114 0.176516L4.66195 0.555776L4.43967 1.05268C5.69501 1.61495 6.64957 2.41261 7.43415 3.51101C8.20566 4.62248 8.7941 6.03469 9.22562 7.82613C9.38254 8.49301 9.46099 9.12067 9.46099 9.7091C9.46099 10.9252 9.16022 11.932 8.79408 12.6251C8.61101 12.965 8.41489 13.2397 8.25798 13.3966L8.0618 13.5535L8.02261 13.5796L8.04871 13.645V13.5796H8.02261L8.04871 13.645V13.5796C7.22489 13.6188 6.37496 13.6581 6.37496 13.6581L6.40114 14.1942L6.42724 14.7303C6.42724 14.7303 7.27725 14.6911 8.10107 14.6519C8.50644 14.6257 8.76793 14.4165 9.04253 14.155C9.81404 13.3704 10.5464 11.7882 10.5594 9.69601C10.5594 9.02913 10.481 8.30993 10.2979 7.56459C9.84023 5.6947 9.22564 4.13861 8.34952 2.88329C7.4734 1.62798 6.33574 0.686518 4.91041 0.0457857C4.67503 -0.0588238 4.38733 0.0196652 4.24349 0.24196C4.09965 0.451179 4.12579 0.75189 4.30886 0.934956C4.58347 1.20956 4.81887 1.5103 4.98886 1.74567C5.0804 1.86336 5.14576 1.96796 5.21114 2.05949L5.30268 2.17721L5.38114 2.25566L5.47268 2.32103C5.47268 2.32103 5.60348 2.38639 5.74732 2.38639C5.93039 2.38639 6.15267 2.25569 6.21805 2.12493C6.29651 1.99417 6.29651 1.9026 6.29651 1.83722V1.75876V1.70649C6.25728 1.49727 6.13959 1.36651 6.04805 1.30113C5.89113 1.17037 5.74726 1.13108 5.60342 1.07878C5.18497 0.948013 4.72729 0.895769 4.70114 0.895769C4.47884 0.869617 4.25656 0.987277 4.15195 1.1965C4.04734 1.40571 4.09967 1.65412 4.25658 1.81104C4.58349 2.13794 4.72732 2.55643 4.72732 3.17101C4.72732 4.49171 3.96886 6.38775 3.56349 8.15303C3.40657 8.80684 3.32812 9.49985 3.32812 10.1667C3.32812 11.1736 3.5112 12.1413 3.98195 12.9781C4.43962 13.8019 5.22422 14.4558 6.28342 14.7042H6.42724L6.40114 14.1811" fill="#1E2380"/>
<mask id="mask1_4807_77329" style="mask-type:luminance" maskUnits="userSpaceOnUse" x="3" y="0" width="7" height="15">
<path d="M5.53049 1.6291C5.21665 1.47219 4.57593 1.40675 4.57593 1.40675C6.04049 2.81898 4.60204 5.76118 4.03975 8.25873C3.47746 10.7432 3.90901 13.5807 6.35431 14.156C6.35431 14.156 7.20424 14.1168 8.02805 14.0776C8.85187 14.0383 10.6172 11.3185 9.71497 7.6572C8.81269 4.00895 7.30888 1.70751 4.62821 0.517578C5.04665 0.92294 5.3605 1.38065 5.54357 1.6291" fill="white"/>
</mask>
<g mask="url(#mask1_4807_77329)">
<path d="M11.4205 4.40089C11.5774 8.0753 9.5767 11.1482 6.93525 11.2659C4.29381 11.3836 2.0185 8.50675 1.86158 4.83235C1.69159 1.15794 3.70535 -1.91496 6.3468 -2.03265C8.98824 -2.15033 11.2636 0.726484 11.4205 4.40089Z" fill="#E60012"/>
</g>
<path d="M6.3357 14.155L6.46651 13.632C5.695 13.4358 5.21111 13.0304 4.85805 12.4289C4.51806 11.8274 4.34813 11.0298 4.34813 10.1536C4.34813 9.57829 4.42655 8.96373 4.55732 8.37531C4.92346 6.72771 5.73424 4.8186 5.74732 3.15792C5.74732 2.38643 5.55111 1.60185 4.94959 1.0265L4.5704 1.41877L4.50504 1.95494H4.64886C4.7927 1.99417 5.00193 2.03336 5.14577 2.08567L5.28959 2.13794L5.38114 1.98103L5.25041 2.09876L5.28959 2.13794L5.38114 1.98103L5.25041 2.09876L5.53805 1.82413L5.14577 1.90258L5.25041 2.11184L5.53805 1.83722L5.14577 1.91567L5.68187 1.82413L5.14577 1.87648H5.35496L5.14577 1.86339H5.66886L5.22423 1.58877C5.14577 1.71953 5.14577 1.79801 5.14577 1.86339H5.66886L5.22423 1.58877L5.68187 1.86339V1.32723C5.4988 1.32723 5.28961 1.45799 5.22423 1.57568L5.68187 1.8503V1.31414V1.83722L5.94342 1.37958C5.94342 1.37958 5.82571 1.31414 5.68187 1.31414V1.83722L5.94342 1.37958L5.72114 1.78494L6.06114 1.47112L5.95651 1.39267L5.73423 1.79803L6.07423 1.48413L5.90423 1.65413L6.08724 1.49722L5.91724 1.65413L6.10033 1.49722L5.99577 1.3534C5.8127 1.09188 5.48574 0.621106 5.04114 0.176516L4.66195 0.555776L4.43967 1.05268C5.69501 1.61495 6.64957 2.41261 7.43415 3.51101C8.20566 4.62248 8.7941 6.03469 9.22562 7.82613C9.38254 8.49301 9.46099 9.12067 9.46099 9.7091C9.46099 10.9252 9.16022 11.932 8.79408 12.6251C8.61101 12.965 8.41489 13.2397 8.25798 13.3966L8.0618 13.5535L8.02261 13.5796L8.04871 13.645V13.5796H8.02261L8.04871 13.645V13.5796C7.22489 13.6188 6.37496 13.6581 6.37496 13.6581L6.40114 14.1942L6.42724 14.7303C6.42724 14.7303 7.27725 14.6911 8.10107 14.6519C8.50644 14.6257 8.76793 14.4165 9.04253 14.155C9.81404 13.3704 10.5464 11.7882 10.5594 9.69601C10.5594 9.02913 10.481 8.30993 10.2979 7.56459C9.84023 5.6947 9.22564 4.13861 8.34952 2.88329C7.4734 1.62798 6.33574 0.686518 4.91041 0.0457857C4.67503 -0.0588238 4.38733 0.0196652 4.24349 0.24196C4.09965 0.451179 4.12579 0.75189 4.30886 0.934956C4.58347 1.20956 4.81887 1.5103 4.98886 1.74567C5.0804 1.86336 5.14576 1.96796 5.21114 2.05949L5.30268 2.17721L5.38114 2.25566L5.47268 2.32103C5.47268 2.32103 5.60348 2.38639 5.74732 2.38639C5.93039 2.38639 6.15267 2.25569 6.21805 2.12493C6.29651 1.99417 6.29651 1.9026 6.29651 1.83722V1.75876V1.70649C6.25728 1.49727 6.13959 1.36651 6.04805 1.30113C5.89113 1.17037 5.74726 1.13108 5.60342 1.07878C5.18497 0.948013 4.72729 0.895769 4.70114 0.895769C4.47884 0.869617 4.25656 0.987277 4.15195 1.1965C4.04734 1.40571 4.09967 1.65412 4.25658 1.81104C4.58349 2.13794 4.72732 2.55643 4.72732 3.17101C4.72732 4.49171 3.96886 6.38775 3.56349 8.15303C3.40657 8.80684 3.32812 9.49985 3.32812 10.1667C3.32812 11.1736 3.5112 12.1413 3.98195 12.9781C4.43962 13.8019 5.22422 14.4558 6.28342 14.7042H6.42724L6.40114 14.1811" fill="#1E2380"/>
<mask id="mask2_4807_77329" style="mask-type:luminance" maskUnits="userSpaceOnUse" x="1" y="30" width="18" height="25">
<path d="M10.3228 30.251C7.7206 30.251 5.18374 31.794 2.85613 35.4814C0.881582 38.6067 1.28696 41.4442 2.45076 45.354C3.15689 47.7208 6.32139 54.0889 7.7598 54.3243C10.532 54.795 14.0888 47.1455 15.6449 45.014C18.6656 40.9212 20.7448 35.6515 15.488 32.0817C13.7619 30.9179 12.0358 30.251 10.3228 30.251Z" fill="white"/>
</mask>
<g mask="url(#mask2_4807_77329)">
<path d="M-27.9665 15.593C-26.9596 16.5083 -26.7896 16.5868 -25.5081 17.6852C-16.7338 25.2694 -7.64565 27.9369 -3.35657 28.9568C0.0956175 29.7937 3.23396 29.5976 7.99379 30.0553C13.7344 30.6045 14.9897 34.6058 12.9498 36.698C15.212 37.221 15.199 42.19 12.0606 42.2423C14.3098 44.086 12.2175 47.7211 9.13143 47.0804C9.37989 48.1657 8.92225 50.258 3.53475 49.4473C1.52097 49.1465 -1.91818 47.9827 -5.17422 46.6097C-8.67871 45.1321 -26.685 36.4234 -38.3361 23.6218C-42.2198 19.8428 -42.8606 15.8153 -41.2129 13.54" fill="#B0D7F2"/>
<path d="M-27.4976 15.0696C-27.0007 15.5142 -26.713 15.7496 -26.386 16.0242C-26.0591 16.2988 -25.693 16.5996 -25.0392 17.1619C-16.3957 24.6414 -7.41211 27.2828 -3.18841 28.2896C-2.15537 28.5381 -1.13541 28.695 -0.0892952 28.7996C2.23832 29.035 4.76205 29.0481 8.05732 29.375H8.14886C10.3719 29.6103 12.0065 30.3426 13.0918 31.3495C14.1641 32.3564 14.6609 33.6509 14.5302 34.8932C14.4386 35.7431 14.0595 36.5538 13.4318 37.1945L12.9349 36.7107L13.0918 36.0308C13.9156 36.2269 14.504 36.8284 14.8309 37.5084C15.1578 38.2014 15.2886 38.9991 15.1971 39.7967C15.1186 40.5551 14.8571 41.3136 14.321 41.9151C13.7979 42.5166 13.0003 42.935 12.0457 42.9481V42.2551L12.4772 41.7189C13.3925 42.4512 13.7718 43.5234 13.6541 44.5041C13.5495 45.4456 13.0656 46.3217 12.3203 46.9494C11.5749 47.577 10.5419 47.9431 9.41732 47.8385C9.27348 47.8385 9.11653 47.7993 8.97268 47.7732L9.1035 47.0932L9.78342 46.9363C9.8488 47.1978 9.87501 47.4985 9.83578 47.8254C9.79655 48.1654 9.69188 48.5446 9.45651 48.8977C9.11652 49.4338 8.51502 49.8654 7.67813 50.1008C6.84123 50.3492 5.74278 50.4145 4.29129 50.2707C4.01668 50.2445 3.71595 50.2053 3.41519 50.153C1.27065 49.8261 -2.16843 48.6493 -5.4637 47.2632C-9.04665 45.7463 -27.0661 37.0507 -38.861 24.1053L-38.351 23.6345L-38.8349 24.1314C-41.7509 21.2808 -42.9932 18.2341 -42.7316 15.7104C-42.627 14.7558 -42.3132 13.8797 -41.7902 13.1475C-41.5679 12.8336 -41.1363 12.7683 -40.8225 12.9906C-40.5087 13.2129 -40.4432 13.6444 -40.6655 13.9582C-41.0447 14.4812 -41.2802 15.1089 -41.3586 15.8543C-41.5678 17.8026 -40.5871 20.4962 -37.8672 23.1376L-37.841 23.1638C-26.3207 35.8346 -8.35362 44.5434 -4.91451 45.9817C-1.71078 47.3417 1.72837 48.4924 3.62446 48.767C3.91214 48.8062 4.18675 48.8454 4.44828 48.8716C6.22668 49.0547 7.27279 48.8454 7.79585 48.5577C8.05738 48.4139 8.21424 48.257 8.30577 48.1132C8.39731 47.9693 8.44961 47.8124 8.46268 47.6554C8.47576 47.5116 8.46274 47.3548 8.43658 47.2371C8.3712 47.0017 8.43659 46.7663 8.60659 46.5833C8.77658 46.4133 9.01194 46.3348 9.24732 46.3871L9.54805 46.4263C10.2934 46.5047 10.9341 46.2694 11.418 45.864C11.9018 45.4587 12.2157 44.8833 12.268 44.3341C12.3203 43.7588 12.1503 43.2357 11.588 42.765C11.3657 42.5819 11.2742 42.2681 11.3657 41.9935C11.4703 41.7189 11.7188 41.5358 12.0195 41.5227C12.608 41.5096 12.9741 41.3004 13.2749 40.9735C13.5626 40.6336 13.7587 40.1498 13.811 39.6136C13.8764 39.0644 13.7718 38.5022 13.5756 38.0838C13.3664 37.6653 13.0918 37.4299 12.778 37.3645C12.5295 37.3122 12.3464 37.1161 12.268 36.8807C12.2026 36.6453 12.268 36.3838 12.438 36.2008C12.8564 35.7693 13.0918 35.2593 13.1441 34.7232C13.2225 33.9386 12.9348 33.0886 12.1372 32.3433C11.3395 31.598 9.99266 30.9572 8.00504 30.748H7.92658C4.68362 30.4211 2.18603 30.421 -0.233117 30.1726C-1.33154 30.0549 -2.40382 29.898 -3.51532 29.6365C-7.85671 28.6035 -17.0625 25.8967 -25.9545 18.2079C-26.5822 17.6587 -26.9483 17.371 -27.2752 17.0964C-27.6021 16.8218 -27.916 16.5604 -28.4391 16.1027C-28.7137 15.8412 -28.7398 15.3966 -28.4913 15.122C-28.2298 14.8343 -27.7983 14.8081 -27.5106 15.0696" fill="#1D2088"/>
<path d="M9.51678 47.8647C8.45759 47.6685 7.76452 47.3154 7.13685 46.8447C6.82302 46.6093 6.75765 46.1778 6.99303 45.8771C7.21533 45.5633 7.64684 45.4979 7.96068 45.7333C8.49681 46.1255 8.84982 46.3217 9.77824 46.5178C10.1575 46.5963 10.406 46.9624 10.3406 47.3285C10.2621 47.6947 9.896 47.9432 9.51678 47.8778" fill="#1D2088"/>
<path d="M12.4125 43.1183C12.0986 43.053 11.8501 43.0138 11.6147 42.9876C11.1832 42.9353 10.8433 42.9484 10.451 42.9092C10.2679 42.883 10.0849 42.8568 9.88872 42.8176C9.5095 42.7261 9.28846 42.3469 9.37999 41.9807C9.47153 41.6015 9.84949 41.3792 10.2156 41.4707C10.3464 41.4969 10.4523 41.523 10.5961 41.5361C10.8838 41.5622 11.2487 41.5622 11.7586 41.6146C12.0332 41.6407 12.3484 41.68 12.7015 41.7584C13.0807 41.8369 13.3147 42.203 13.2363 42.5823C13.1578 42.9615 12.7786 43.1968 12.4125 43.1183Z" fill="#1D2088"/>
<path d="M13.6465 36.9729C12.6527 37.4044 11.8943 37.5221 11.1097 37.4829C10.7305 37.4829 10.4297 37.156 10.4297 36.7637C10.4428 36.3845 10.7697 36.0837 11.1489 36.0968C11.8027 36.1099 12.208 36.0707 13.0842 35.6915C13.4372 35.5345 13.8426 35.6914 13.9995 36.0575C14.1565 36.4106 13.9865 36.816 13.6334 36.9729" fill="#1D2088"/>
</g>
<path d="M11.5334 30.2385C10.3696 29.7285 9.21895 29.4932 8.1336 29.4932C5.77984 29.4932 3.7137 30.6308 2.27529 32.5138C0.836881 34.4098 0 37.0381 0 40.0848C0 43.1316 0.758479 46.3091 2.49765 49.7743C2.64149 50.062 2.99454 50.1927 3.29529 50.0358C3.58298 49.892 3.71376 49.5258 3.55684 49.2382C1.89613 45.9299 1.19 42.7916 1.19 40.0848C1.19 37.3781 1.9615 34.8675 3.21684 33.2329C4.47218 31.5984 6.15904 30.6831 8.12051 30.6831C9.03586 30.6831 10.0166 30.8792 11.0496 31.3369C11.3504 31.4676 11.7034 31.3369 11.8342 31.0231C11.9649 30.7223 11.8342 30.3693 11.5334 30.2385Z" fill="#1D2088"/>
<path d="M5.39407 31.2582C7.52553 30.1598 9.81392 30.6174 11.4485 31.8335C9.64392 35.5079 6.46635 44.5043 6.46635 44.5043L5.74716 48.9503C5.74716 48.9503 5.61638 48.9633 5.1587 48.9372C4.70102 48.911 4.28259 49.8918 5.57716 50.3364C5.43332 51.3824 4.47878 50.8594 4.47878 50.8594L3.48496 49.4602C3.48496 49.4602 -0.0979828 42.9744 1.53658 36.8678C2.60885 32.8665 4.94947 31.4936 5.39407 31.2713" fill="#B0D7F2"/>
<path d="M61.6756 61.8568L32.5804 61.2422L25.6094 76.5282L67.4932 80.3988L61.6756 61.8568Z" fill="#B0D7F2"/>
<path d="M50.3178 129.277C50.4878 133.684 50.6185 136.835 50.7885 141.124C50.88 143.334 52.6846 146.276 56.6991 148.369C64.0611 152.213 71.057 151.311 73.9077 150.539C80.8774 148.643 79.4391 142.824 76.4053 139.464C74.2608 137.084 71.9462 135.135 70.8347 131.749C69.8279 128.663 71.0962 124.544 71.8547 122.321L71.3317 119.823L50.9847 125.42L50.3047 129.277" fill="#B0D7F2"/>
<path d="M50.3226 129.277L49.7734 129.303C49.9434 133.71 50.0742 136.861 50.2442 141.15C50.3488 143.635 52.3233 146.695 56.4555 148.865C61.2284 151.363 65.8444 151.899 69.3359 151.768C71.3496 151.69 72.9842 151.376 74.0695 151.088C76.0441 150.552 77.4433 149.689 78.3194 148.604C79.2086 147.518 79.5354 146.237 79.4962 144.969C79.4047 142.837 78.2932 140.719 76.8417 139.11C75.7564 137.907 74.6448 136.835 73.6903 135.658C72.7357 134.481 71.9249 133.213 71.4019 131.605C71.1927 130.977 71.088 130.284 71.0619 129.565C70.9573 127.054 71.8334 124.23 72.4219 122.517V122.229L71.9119 119.732C71.8857 119.588 71.7811 119.457 71.6634 119.378C71.5327 119.3 71.3757 119.287 71.2319 119.326L50.8849 124.923C50.6757 124.975 50.5319 125.145 50.4926 125.354L49.8126 129.212V129.329L50.3619 129.303L50.9111 129.395L51.5257 125.89L70.9704 120.542L71.3758 122.464L71.9119 122.347L71.3888 122.164C70.7873 123.916 69.872 126.832 69.9766 129.617C70.0027 130.415 70.1204 131.199 70.3689 131.945C70.9442 133.723 71.8465 135.122 72.8534 136.351C73.8734 137.594 74.9849 138.679 76.0441 139.843C77.3517 141.294 78.3455 143.256 78.4109 145.008C78.4501 146.067 78.1886 147.048 77.4825 147.911C76.7894 148.774 75.6256 149.519 73.808 150.016C72.8011 150.291 71.245 150.578 69.3228 150.657C65.9883 150.787 61.5684 150.264 56.9917 147.885C53.108 145.858 51.4472 143.033 51.3818 141.111C51.2118 136.822 51.0942 133.684 50.9111 129.264L50.3619 129.29" fill="#1D2088"/>
<path d="M62.9838 134.796C60.8262 134.639 60.3162 132.613 62.4608 132.168C64.3699 131.763 67.3775 130.717 70.4767 128.677C70.4374 130.481 70.5812 131.279 71.2743 132.861C68.6067 134.339 65.1545 134.966 62.9969 134.796" fill="#1D2088"/>
<path d="M65.5286 139.674C63.3449 139.112 63.4757 137.321 65.3848 137.255C67.6209 137.19 69.8177 136.588 72.5245 135.032C73.296 136.196 74.1591 137.072 75.1137 138.079C71.8054 140.014 67.7255 140.25 65.5286 139.674Z" fill="#1D2088"/>
<path d="M74.2845 144.734C74.7944 145.296 75.0429 146.016 75.0691 146.774C75.1083 147.558 74.8991 148.369 74.5722 148.984C74.2583 149.611 73.8137 150.004 73.513 150.069C73.2122 150.148 73.0422 150.448 73.1206 150.749C73.1991 151.037 73.4999 151.22 73.8006 151.141C74.5721 150.919 75.1475 150.278 75.5529 149.494C75.9583 148.696 76.2067 147.728 76.1675 146.735C76.1282 145.78 75.8144 144.786 75.0952 143.989C74.886 143.766 74.5329 143.753 74.3106 143.949C74.0883 144.159 74.0752 144.512 74.2845 144.734Z" fill="#1D2088"/>
<path d="M69.5656 146.067C70.0626 146.773 70.2718 147.479 70.2979 148.146C70.3241 148.852 70.128 149.506 69.8272 149.951C69.5264 150.409 69.1472 150.618 68.8595 150.631C68.5588 150.644 68.3234 150.905 68.3365 151.206C68.3365 151.507 68.598 151.742 68.9118 151.729C69.6833 151.703 70.3111 151.219 70.7557 150.565C71.1872 149.912 71.4487 149.049 71.4095 148.107C71.3833 147.244 71.0956 146.316 70.4679 145.44C70.2849 145.191 69.9449 145.126 69.6965 145.309C69.448 145.479 69.3957 145.832 69.5656 146.067Z" fill="#1D2088"/>
<path d="M21.9003 111.808C21.5734 110.71 21.4165 109.664 21.3773 108.657C21.3773 108.343 21.1027 108.095 20.7888 108.095C20.475 108.095 20.2266 108.369 20.2266 108.683C20.2527 109.795 20.4358 110.932 20.7888 112.122C20.8804 112.423 21.1942 112.606 21.4949 112.514C21.7957 112.423 21.9788 112.109 21.8873 111.795" fill="#1D2088"/>
<path d="M75.7668 111.415C77.6499 112.5 80.3305 113.873 83.0243 113.69C85.718 113.507 86.9616 111.101 91.4338 111.18C94.376 111.232 97.5784 112.435 98.8337 114.684C101.227 118.96 97.0174 123.641 91.0153 121.026C88.6354 119.993 86.9355 120.725 85.0655 122.02C82.241 123.981 77.0614 123.537 70.8906 119.091L75.7799 111.415" fill="#B0D7F2"/>
<path d="M88.2566 111.716C89.2635 111.298 89.7473 111.141 91.4342 111.167C91.9834 111.167 92.5195 111.245 93.0556 111.363C94.4025 113.887 94.1541 118.176 92.0095 121.392C91.6826 121.288 91.3557 121.17 91.0157 121.013C89.6165 120.399 88.4396 120.412 87.3281 120.791C89.3288 117.443 89.6165 113.991 88.2566 111.716Z" fill="#1D2088"/>
<path d="M79.0991 113.024C80.3414 113.482 81.6752 113.77 83.0221 113.678C83.2182 113.665 83.4013 113.639 83.5843 113.6C83.9766 116.123 83.5582 120.818 80.7729 123.106C79.3868 122.949 77.6607 122.727 76 121.982C78.393 119.994 79.1645 116.163 79.086 113.024" fill="#1D2088"/>
<path d="M41.7866 130.128C40.9497 134.364 41.6428 137.476 40.4528 141.504C39.4851 144.747 36.8045 146.813 32.6985 148.474C23.9895 151.978 17.0198 148.944 14.6138 147.349C9.18704 143.779 10.2331 139.098 15.0321 136.143C17.6997 134.508 23.2573 132.991 24.8526 129.892C26.3041 127.055 26.3956 120.321 26.0033 118.045L30.567 117.967L42.4797 126.898L41.8128 130.128" fill="#B0D7F2"/>
<path d="M41.7848 130.127L41.2225 130.023C40.791 132.207 40.7649 134.076 40.6733 135.881C40.5949 137.685 40.4641 139.412 39.8887 141.347C39.431 142.864 38.6072 144.08 37.365 145.152C36.1358 146.224 34.4882 147.126 32.4744 147.937C29.6106 149.088 26.9431 149.519 24.5762 149.519C19.9341 149.519 16.4165 147.872 14.9127 146.865C13.7097 146.067 12.8597 145.23 12.3105 144.407C11.7613 143.57 11.5259 142.746 11.5259 141.935C11.5259 140.994 11.8528 140.065 12.4805 139.163C13.1212 138.261 14.0758 137.385 15.305 136.626C16.5603 135.855 18.6264 135.057 20.5748 134.076C21.5556 133.58 22.5101 133.03 23.347 132.403C24.1709 131.762 24.8901 131.03 25.3347 130.154C25.8839 129.068 26.2108 127.604 26.4331 126.022C26.6554 124.439 26.7469 122.752 26.7469 121.262C26.7469 119.902 26.6685 118.725 26.5377 117.953L25.9754 118.045V118.62L30.356 118.542L41.811 127.146L41.2094 130.023L41.7717 130.14L42.3341 130.258L43.0009 127.028C43.0401 126.806 42.9617 126.584 42.7786 126.453L30.866 117.522C30.7614 117.444 30.6437 117.404 30.5129 117.404L25.9492 117.483C25.7792 117.483 25.6223 117.561 25.5177 117.692C25.4131 117.823 25.3608 117.993 25.387 118.163C25.5046 118.817 25.5831 119.967 25.5831 121.275C25.5831 122.713 25.4915 124.361 25.2823 125.878C25.0731 127.394 24.7331 128.781 24.2885 129.644C23.9485 130.31 23.3601 130.938 22.6278 131.5C21.5163 132.363 20.0518 133.096 18.6003 133.75C17.1619 134.416 15.7365 135.018 14.6773 135.659C13.3435 136.482 12.2713 137.437 11.5129 138.509C10.7675 139.568 10.3359 140.745 10.3359 141.948C10.3359 142.994 10.6498 144.04 11.3036 145.047C11.9574 146.041 12.9251 146.983 14.2327 147.846C15.9196 148.944 19.6071 150.683 24.537 150.683C27.0346 150.683 29.8461 150.239 32.8536 149.022C34.9459 148.186 36.6981 147.218 38.0711 146.041C39.4442 144.851 40.4249 143.426 40.948 141.687C41.5757 139.608 41.6933 137.764 41.7848 135.946C41.8633 134.116 41.9025 132.324 42.3079 130.258L41.7456 130.154" fill="#1D2088"/>
<path d="M26.662 73.9917C23.9421 78.3068 14.7362 96.3781 17.77 111.952C20.4507 125.708 31.1341 133.122 50.4742 130.546C69.8274 127.957 76.8625 118.255 75.8425 104.289C74.6787 88.467 63.093 73.4555 60.3208 69.8857" fill="#B0D7F2"/>
<path d="M25.6522 129.526C27.0514 130.612 27.7052 130.965 28.8821 131.422C30.8567 132.181 32.1643 130.612 30.4513 129.317C29.4836 128.585 27.0513 127.722 25.796 126.192C25.4691 125.813 25.3645 129.291 25.6522 129.526Z" fill="#1D2088"/>
<path d="M21.5758 133.214C23.0273 134.129 24.4657 134.757 25.5772 134.979C27.7348 135.398 28.3887 133.763 26.7149 132.9C25.9434 132.495 25.198 132.024 24.4788 131.448C23.995 131.056 21.2358 133.005 21.5758 133.227" fill="#1D2088"/>
<path d="M17.7746 143.191C16.7808 144.211 16.3231 145.375 16.3362 146.447C16.3362 147.846 17.0816 149.062 18.1669 149.664C18.4416 149.821 18.7946 149.716 18.9384 149.428C19.0953 149.154 18.9907 148.801 18.703 148.644C18.01 148.265 17.4608 147.428 17.4739 146.447C17.4739 145.702 17.7746 144.839 18.5984 144.002C18.8207 143.78 18.8207 143.413 18.5984 143.191C18.3761 142.969 18.01 142.969 17.7877 143.191" fill="#1D2088"/>
<path d="M36.7761 118.255C29.2441 118.385 20.0644 114.541 20.3913 98.3003C20.7313 81.8635 28.9302 71.5464 38.0576 71.3895C47.185 71.2326 53.2264 81.3535 54.1156 97.7641C55.0048 113.992 44.2951 118.124 36.7761 118.255Z" fill="white"/>
<path d="M76.7103 111.938L76.4357 112.448C78.1225 113.338 80.241 114.266 82.5032 114.279C82.6863 114.279 82.8562 114.279 83.0524 114.266C83.7977 114.214 84.4516 114.004 85.04 113.743C85.9292 113.351 86.7138 112.841 87.6553 112.448C88.5837 112.056 89.6822 111.755 91.2121 111.742H91.4213C92.8205 111.768 94.2851 112.069 95.5274 112.618C96.7696 113.168 97.7896 113.965 98.3257 114.946C98.7442 115.704 98.9272 116.45 98.9272 117.156C98.9272 118.254 98.4826 119.248 97.6849 119.98C96.9003 120.712 95.7627 121.196 94.3504 121.196C93.422 121.196 92.3628 120.987 91.2252 120.49C90.3883 120.124 89.5907 119.954 88.8453 119.954C87.3023 119.954 86.0077 120.647 84.7262 121.536C83.8108 122.164 82.5947 122.53 81.104 122.53C78.6718 122.53 75.5335 121.536 72.0028 119.143L71.689 119.614L72.0813 120.033C74.4743 117.81 76.2003 115.142 77.2857 112.108L76.7496 111.912L76.2134 111.716C75.1804 114.606 73.572 117.103 71.3097 119.183C71.179 119.3 71.1136 119.47 71.1266 119.653C71.1397 119.823 71.2313 119.993 71.3751 120.085C75.0496 122.569 78.3841 123.668 81.1302 123.668C82.804 123.668 84.2685 123.249 85.4062 122.465C86.6354 121.615 87.7076 121.079 88.8714 121.079C89.4468 121.079 90.0745 121.209 90.8068 121.523C92.0752 122.072 93.2782 122.321 94.3897 122.321C96.0635 122.321 97.5019 121.746 98.5088 120.804C99.5287 119.863 100.117 118.555 100.117 117.143C100.117 116.24 99.8687 115.286 99.3588 114.371C98.6396 113.102 97.4235 112.174 96.0243 111.546C94.612 110.932 93.0166 110.605 91.4736 110.565H91.2382C88.9891 110.565 87.4722 111.193 86.2692 111.821C85.6677 112.135 85.1315 112.435 84.6216 112.658C84.0985 112.88 83.6016 113.037 83.0132 113.076C82.8563 113.089 82.7125 113.089 82.5555 113.089C80.6202 113.089 78.6456 112.265 77.0372 111.402C76.8934 111.324 76.7103 111.311 76.5665 111.376C76.4096 111.442 76.2919 111.559 76.2265 111.716L76.7626 111.912" fill="#1D2088"/>
<path d="M31.1865 65.0731C28.1789 69.7021 24.2952 76.3709 21.2876 83.8767C18.28 91.3824 16.1355 99.7381 16.6455 107.741C16.737 109.192 16.92 110.631 17.1947 112.056C18.4631 118.542 21.4968 123.72 26.3874 127.093C31.265 130.48 37.934 132.049 46.4075 131.513C47.7413 131.435 49.1274 131.291 50.5527 131.108C60.2162 129.813 66.9245 126.753 71.109 122.19C75.2934 117.626 76.8888 111.611 76.4311 104.629C76.4311 104.498 76.418 104.367 76.4049 104.236C75.8949 97.2667 73.3973 90.4933 70.5205 84.7528C70.3767 84.4652 70.0366 84.3605 69.749 84.5044C69.4613 84.6482 69.3567 84.9882 69.4875 85.2758C72.3251 90.9247 74.7573 97.5805 75.2542 104.328C75.2542 104.459 75.2673 104.576 75.2804 104.707C75.7119 111.494 74.1819 117.129 70.2459 121.418C66.3099 125.707 59.8893 128.702 50.3827 129.97C48.9835 130.153 47.6236 130.297 46.316 130.376C38.0255 130.899 31.6311 129.356 27.0151 126.152C22.4122 122.961 19.5354 118.097 18.3062 111.847C18.0447 110.474 17.8746 109.088 17.7831 107.688C17.2862 99.9343 19.3784 91.7355 22.3468 84.3213C25.3151 76.9071 29.1597 70.3036 32.1411 65.7138C32.3111 65.4523 32.2457 65.0993 31.9711 64.9162C31.7096 64.7462 31.3434 64.8247 31.1734 65.0862" fill="#1D2088"/>
<path d="M80.9664 106.656C81.2933 105.466 81.4633 104.316 81.4633 103.204C81.4633 102.89 81.2149 102.629 80.888 102.629C80.5741 102.629 80.3126 102.877 80.3126 103.191C80.3126 104.198 80.1557 105.244 79.855 106.342C79.7765 106.656 79.9465 106.97 80.2603 107.049C80.5742 107.127 80.888 106.957 80.9664 106.643" fill="#1D2088"/>
<path d="M29.3543 61.2419C32.7934 70.5914 41.6854 88.0874 54.3042 100.98L57.5471 98.4437C46.7068 85.9559 35.8533 70.7614 33.8264 59.6074C33.8264 59.6074 29.2235 61.1504 29.3543 61.2289" fill="#FFF100"/>
<path d="M29.3541 61.2428L28.818 61.4389C32.2832 70.8669 41.2014 88.402 53.8986 101.387C54.1078 101.596 54.4347 101.622 54.657 101.439L57.9 98.9021C58.0308 98.7975 58.0961 98.6668 58.1223 98.5099C58.1354 98.3529 58.0962 98.196 57.9785 98.0783C52.5779 91.8541 47.1642 84.9499 42.8621 78.2287C38.5599 71.5075 35.3823 64.9695 34.3885 59.5167C34.3623 59.3598 34.2578 59.216 34.1139 59.1244C33.9701 59.046 33.8 59.0198 33.6431 59.0721C33.6431 59.0721 32.5186 59.4513 31.394 59.8436C30.8317 60.0397 30.2694 60.2359 29.8379 60.3928C29.6287 60.4713 29.4456 60.5497 29.3018 60.602L29.1187 60.6936L29.001 60.772L28.8964 60.8636C28.8964 60.8636 28.7656 61.0205 28.7656 61.2428L28.8441 61.5174L29.0403 61.7266L29.3541 61.2428L29.851 60.9682L29.6548 60.772L29.3541 61.2558H29.9164L29.8379 60.9812L29.341 61.2558L29.7725 61.6089C29.7725 61.6089 29.8902 61.4651 29.9033 61.2558H29.341L29.7725 61.6089L29.4064 61.3081L29.6679 61.7135L29.7856 61.6089L29.4194 61.3081L29.681 61.7135C29.681 61.7135 29.8379 61.6481 29.9948 61.5827C30.531 61.3735 31.551 61.0205 32.414 60.7198C33.2771 60.419 34.0093 60.1836 34.0093 60.1836L33.8262 59.6344L33.2639 59.739C34.297 65.4403 37.5531 72.0699 41.8944 78.8564C46.2358 85.6429 51.6756 92.5733 57.1023 98.8368L57.5338 98.4576L57.1808 97.9999L53.9378 100.537L54.2909 100.994L54.6963 100.589C42.169 87.7874 33.2771 70.3177 29.8772 61.0467L29.6417 60.7589L29.341 61.2428" fill="#1D2088"/>
<path d="M14.1095 140.614C12.9719 141.529 12.5391 142.915 12.5391 144.17C12.5391 144.955 12.6959 145.714 12.9836 146.341C13.2713 146.969 13.678 147.518 14.2795 147.78C14.5672 147.91 14.9059 147.78 15.0366 147.492C15.1674 147.204 15.0379 146.864 14.7503 146.733C14.528 146.642 14.2403 146.341 14.0311 145.87C13.8219 145.4 13.678 144.785 13.6911 144.17C13.6911 143.151 14.0298 142.144 14.8274 141.516C15.0759 141.32 15.1164 140.954 14.9203 140.705C14.7241 140.457 14.358 140.418 14.1095 140.614Z" fill="#1D2088"/>
<path d="M60.2319 94.5092L60.2973 93.8554L59.6435 93.79L59.5781 94.4438L60.2319 94.5092Z" fill="#1D2088"/>
<path d="M62.816 98.3787L62.7115 98.2871H62.6199L62.5938 98.5617H62.646V98.444H62.6853L62.7376 98.5747H62.803L62.7376 98.444L62.816 98.3787ZM62.6591 98.4048V98.3263H62.7115L62.7638 98.3656L62.6984 98.3917H62.6591V98.4048Z" fill="#1D2088"/>
<path d="M56.8616 108.447C57.8555 107.035 67.8982 113.521 76.9733 113.351C76.2017 116.633 74.8288 119.248 72.3573 122.53C65.9237 120.595 55.4625 110.409 56.8616 108.447Z" fill="#1D2088"/>
<path d="M57.5084 88.8069C56.8415 87.0286 66.845 84.8709 68.3881 83.3672C69.5388 85.7732 70.6372 88.4147 71.5787 91.1999C68.9896 91.6314 58.1753 90.5853 57.5084 88.8069Z" fill="#1D2088"/>
<path d="M73.0714 96.6924C73.6729 99.4645 74.039 102.328 74.0783 105.179C74.0783 105.453 74.0783 105.741 74.0783 106.016C70.1161 105.48 58.7266 102.956 58.5173 100.576C58.3604 98.6931 69.0438 99.4384 73.0845 96.6924" fill="#1D2088"/>
<path d="M73.5131 77.2219C71.1985 85.2899 70.1916 89.7097 65.641 97.6207L61.875 95.9731C65.4187 88.8597 68.8186 81.1578 71.2901 73.809C72.0093 71.7168 74.1538 73.1814 73.5261 77.2219" fill="#FFF100"/>
<path d="M73.4955 77.2209L72.9463 77.064C71.7825 81.1046 70.9587 84.2166 69.8603 87.2895C68.7619 90.3624 67.3889 93.4092 65.1266 97.3451L65.6235 97.6328L65.8589 97.1098L62.0929 95.4622L61.8575 95.9852L62.3675 96.2468C65.9243 89.1203 69.3241 81.3922 71.8087 74.0042C71.9002 73.7427 72.0049 73.5857 72.0833 73.5204L72.214 73.455L72.371 73.5204C72.5017 73.6119 72.6717 73.8603 72.8156 74.2526C72.9464 74.6449 73.051 75.168 73.051 75.8349C73.051 76.2272 73.0248 76.6717 72.9463 77.1555L73.5086 77.247L74.0709 77.3386C74.1493 76.8025 74.1886 76.3056 74.1886 75.8349C74.1886 74.8019 74.0055 73.9911 73.6786 73.3766C73.5217 73.0758 73.3256 72.8143 73.0771 72.6312C72.8418 72.4351 72.541 72.3174 72.214 72.3174C71.861 72.3174 71.534 72.4743 71.2856 72.7097C71.0371 72.9581 70.8541 73.2719 70.7233 73.6511C68.2649 80.9738 64.8782 88.6626 61.3475 95.7499C61.2821 95.8937 61.269 96.0506 61.3213 96.2075C61.3736 96.3644 61.4914 96.4821 61.6352 96.5344L65.4012 98.182C65.6627 98.2997 65.9766 98.1951 66.1335 97.9467C68.435 93.9584 69.8341 90.8463 70.9587 87.708C72.0833 84.5828 72.9071 81.4445 74.0709 77.417V77.3517L73.5217 77.2601" fill="#1D2088"/>
<path d="M62.3763 94.2205C64.7954 94.5343 66.5215 94.652 66.2077 98.4833C65.8415 103.165 62.1409 110.213 54.0073 109.075C45.8084 107.937 45.5338 98.9148 45.6907 96.2865C45.8476 93.7889 46.606 92.8736 49.4306 93.0174C52.2682 93.1613 59.4995 93.8544 62.3763 94.2205Z" fill="#FFF100"/>
<path d="M62.3703 94.2204L62.2919 94.7696C62.8542 94.848 63.3642 94.9003 63.7957 94.9919C64.4495 95.1226 64.8941 95.3319 65.1818 95.6718C65.4695 96.0118 65.6917 96.5872 65.6917 97.6595C65.6917 97.8948 65.6918 98.1563 65.6656 98.444C65.5087 100.497 64.6456 103.099 63.0111 105.126C61.3765 107.153 59.0227 108.643 55.7144 108.643C55.1913 108.643 54.6552 108.604 54.0798 108.526C52.3276 108.277 50.9807 107.663 49.9346 106.839C48.3654 105.597 47.4239 103.831 46.8878 102.053C46.3516 100.275 46.2209 98.4833 46.2209 97.2541C46.2209 96.888 46.2209 96.5741 46.247 96.3257C46.2732 95.7634 46.3517 95.3057 46.4563 94.9396C46.6132 94.3904 46.8224 94.1158 47.1624 93.8935C47.5024 93.6843 48.0516 93.5535 48.9016 93.5535C49.0585 93.5535 49.2285 93.5535 49.4116 93.5666C52.2099 93.7104 59.4674 94.4035 62.305 94.7696L62.3834 94.2204L62.4488 93.6712C59.5589 93.305 52.3276 92.612 49.4639 92.4682C49.2677 92.4682 49.0847 92.4551 48.9016 92.4551C48.2608 92.4551 47.7247 92.5205 47.2408 92.6643C46.5216 92.8866 45.9594 93.3443 45.6456 93.972C45.3186 94.5996 45.1879 95.345 45.1356 96.2603C45.1225 96.5349 45.1094 96.8749 45.1094 97.2541C45.1094 98.9932 45.3578 101.765 46.5739 104.302C47.1885 105.557 48.0516 106.76 49.2546 107.715C50.4576 108.67 52.0007 109.363 53.936 109.637C54.5506 109.729 55.1521 109.768 55.7144 109.768C59.3627 109.768 62.0827 108.068 63.8741 105.832C65.6656 103.583 66.5809 100.824 66.764 98.5486C66.7901 98.2348 66.8033 97.9471 66.8033 97.6855C66.8033 96.8748 66.6986 96.2211 66.4633 95.6849C66.1233 94.8742 65.4695 94.3773 64.7633 94.1289C64.0572 93.8673 63.2726 93.7889 62.4357 93.6842L62.3703 94.2335" fill="#1D2088"/>
<path d="M62.3697 92.3899C64.8019 92.7038 66.8158 93.1484 66.3581 96.9666C65.9135 100.798 62.1213 106.447 53.9355 105.309C45.6973 104.172 45.4227 97.0974 45.5927 94.4691C45.7496 91.9715 46.508 91.0562 49.3587 91.2C52.2094 91.3308 59.4798 92.0238 62.3697 92.3899Z" fill="#FFF100"/>
<path d="M62.3744 92.3909L62.3104 92.94C63.3957 93.0708 64.3372 93.2539 64.9257 93.6462C65.2264 93.8423 65.4487 94.0908 65.6057 94.4438C65.7756 94.7969 65.8789 95.2807 65.8789 95.9476C65.8789 96.2222 65.8528 96.536 65.8136 96.8891C65.6305 98.4974 64.7805 100.524 63.1852 102.106C61.5899 103.689 59.2635 104.879 56.0206 104.879C55.3929 104.879 54.7247 104.839 54.0317 104.735C50.4749 104.238 48.5657 102.643 47.4803 100.812C46.3819 98.9812 46.1479 96.8499 46.1479 95.3592C46.1479 95.0323 46.1465 94.7184 46.1727 94.47C46.2119 93.9077 46.2786 93.4501 46.3832 93.0839C46.5402 92.5478 46.7612 92.247 47.1011 92.0378C47.4411 91.8285 48.0047 91.6979 48.8547 91.6979C49.0116 91.6979 49.1803 91.6978 49.3634 91.7109C52.1748 91.8547 59.4728 92.5478 62.3234 92.9008L62.466 91.7893C59.563 91.4232 52.2938 90.7302 49.417 90.5863C49.2208 90.5863 49.0364 90.5732 48.8664 90.5732C48.2257 90.5732 47.6778 90.6387 47.2071 90.7825C46.4879 91.0048 45.9242 91.4625 45.5973 92.0901C45.2704 92.7178 45.141 93.4631 45.0887 94.3785C45.0756 94.6531 45.0625 94.9799 45.0625 95.3461C45.0625 96.9414 45.311 99.2558 46.5532 101.361C47.7955 103.466 50.0708 105.297 53.9153 105.82C54.6606 105.925 55.3785 105.977 56.0585 105.977C59.5761 105.977 62.2175 104.656 64.009 102.878C65.8005 101.087 66.742 98.8636 66.9656 96.9937C67.0035 96.6145 67.0297 96.2483 67.0297 95.9214C67.0297 95.1369 66.9133 94.483 66.6518 93.9469C66.2725 93.1362 65.6057 92.6132 64.8734 92.3255C64.1411 92.0247 63.3173 91.907 62.4804 91.8024L62.415 92.3517" fill="#1D2088"/>
<path d="M45.5979 94.456C45.6633 93.3314 45.8594 92.5338 46.304 92.0107C46.4479 97.8427 47.5332 102.223 54.2546 103.152C60.9889 104.08 65.1603 100 65.6703 93.5929C66.2718 94.2336 66.5464 95.2667 66.3503 96.9797C65.8926 100.811 62.1135 106.46 53.9276 105.322C45.6895 104.185 45.4149 97.1104 45.5849 94.4821" fill="white"/>
<path d="M45.6013 94.4559L46.1505 94.4951C46.2159 93.4097 46.4121 92.7429 46.7259 92.3636L46.2944 92.0106H45.7452C45.8236 94.9659 46.1113 97.6073 47.3274 99.6994C47.929 100.746 48.7789 101.635 49.9035 102.315C51.0411 102.995 52.4403 103.465 54.1795 103.701C54.8464 103.792 55.4871 103.831 56.1148 103.831C59.057 103.831 61.5023 102.798 63.2415 100.994C64.9806 99.1764 65.9876 96.6265 66.236 93.6321L65.6868 93.5928L65.2814 93.9721C65.6345 94.3513 65.8699 94.9397 65.8829 95.9727C65.8829 96.2473 65.8568 96.5612 65.8176 96.9142C65.6345 98.5226 64.7845 100.549 63.1892 102.132C61.5808 103.714 59.2663 104.904 56.0233 104.904C55.3957 104.904 54.7287 104.851 54.0357 104.76C50.4789 104.263 48.5697 102.668 47.4844 100.837C46.3859 99.0064 46.1505 96.8749 46.1505 95.3842C46.1505 95.0573 46.1506 94.7435 46.1767 94.4951L45.0652 94.4166C45.0522 94.6912 45.0391 95.0181 45.0391 95.3842C45.0391 96.9795 45.2875 99.2941 46.5298 101.399C47.7721 103.505 50.0474 105.335 53.8919 105.858C54.6372 105.963 55.3564 106.015 56.0363 106.015C59.5539 106.015 62.1954 104.708 63.9868 102.916C65.7783 101.125 66.7198 98.9148 66.9421 97.0318C66.9814 96.6526 67.0075 96.2996 67.0075 95.9727C67.0075 94.7566 66.7068 93.8413 66.1183 93.2136C65.9614 93.0436 65.7391 92.9914 65.5299 93.0698C65.3206 93.1352 65.1768 93.3313 65.1507 93.5536C64.9284 96.365 63.9869 98.6533 62.47 100.236C60.9401 101.818 58.8478 102.733 56.1541 102.733C55.5918 102.733 54.9903 102.694 54.3757 102.602C52.7542 102.38 51.4989 101.948 50.5312 101.36C49.0797 100.484 48.2297 99.2548 47.6805 97.6726C47.1444 96.0904 46.9613 94.1551 46.909 91.9976C46.909 91.7622 46.7521 91.566 46.5298 91.4876C46.3075 91.4091 46.0721 91.4876 45.9152 91.6576C45.3398 92.3506 45.1567 93.2659 45.0783 94.4297L45.6275 94.469" fill="#1D2088"/>
<path d="M53.5348 100.457C53.6002 101.137 54.1624 101.634 54.8032 101.582C55.4439 101.516 55.9146 100.915 55.8493 100.235C55.7839 99.5548 55.2085 99.0579 54.5678 99.1102C53.927 99.1756 53.4563 99.7771 53.5217 100.457" fill="white"/>
<path d="M53.5302 100.459L53.1772 100.498C53.2556 101.309 53.9094 101.949 54.694 101.949H54.8379C55.2302 101.91 55.5832 101.714 55.8186 101.426C56.054 101.139 56.1978 100.772 56.1978 100.367V100.21C56.1194 99.3995 55.4656 98.7588 54.6679 98.7588H54.524C54.1317 98.798 53.7786 98.9942 53.5433 99.2819C53.2948 99.5695 53.1641 99.9357 53.1641 100.341V100.498L53.5172 100.459L53.8702 100.419V100.328C53.8702 100.106 53.9487 99.8964 54.0794 99.7395C54.2102 99.5826 54.3802 99.4911 54.5894 99.465H54.6548C55.0471 99.465 55.4263 99.7918 55.4655 100.263V100.354C55.4655 100.589 55.387 100.799 55.2563 100.956C55.1255 101.112 54.9425 101.204 54.7463 101.23H54.6679C54.2756 101.23 53.8964 100.903 53.8572 100.433L53.5041 100.472" fill="#1D2088"/>
<path d="M49.9296 95.8555L49.8511 96.5354C49.8511 96.6662 49.7204 96.7708 49.5765 96.7447C49.4327 96.7316 49.3412 96.6139 49.3542 96.4831L49.5765 94.3125C49.5896 94.1817 49.7073 94.0902 49.8511 94.1032C49.995 94.1163 50.0996 94.234 50.0865 94.3648L50.0342 94.8748L50.8188 94.9532L50.8711 94.4694C50.9365 93.881 50.5572 93.4102 49.9426 93.3579C49.328 93.2925 48.8573 93.6717 48.792 94.2602L48.5696 96.4047C48.5042 96.9931 48.8965 97.4638 49.4981 97.5161C50.1126 97.5815 50.5834 97.2023 50.6488 96.6138L50.7142 95.9209L49.9296 95.8293" fill="#1D2088"/>
<path d="M56.1776 97.9997L57.0144 98.0781L57.4198 94.2076L56.6745 94.1292L56.4652 96.1691L56.086 94.0638L55.2491 93.9854L54.8438 97.8558L55.576 97.9343L55.7983 95.8944L56.1776 97.9997Z" fill="#1D2088"/>
<path d="M54.3836 97.8035L54.7759 93.9329L53.9913 93.8545L53.5859 97.7251L54.3836 97.8035Z" fill="#1D2088"/>
<path d="M52.7578 93.7233L52.6009 95.227L51.9602 95.1486L52.1171 93.6449L51.3194 93.5664L50.9141 97.45L51.7117 97.5284L51.8686 95.9593L52.5224 96.0247L52.3524 97.5938L53.1371 97.6723L53.5424 93.8018L52.7578 93.7233Z" fill="#1D2088"/>
<path d="M59.579 94.4436L57.6175 94.2344L57.5391 94.9927L58.1537 95.0581L57.8398 98.1702L58.6244 98.2487L58.9383 95.1366L59.5005 95.202L59.579 94.4436Z" fill="#1D2088"/>
<path d="M52.7501 93.7231L52.8155 93.0693L52.1747 93.0039L52.1094 93.6446L52.7501 93.7231Z" fill="#1D2088"/>
<path d="M53.7005 93.2658L53.9098 92.6513L53.2821 92.4551L53.0859 93.0697L53.7005 93.2658Z" fill="#1D2088"/>
<path d="M54.8997 93.4885L54.4944 92.9785L53.9844 93.3839L54.4028 93.8939L54.8997 93.4885Z" fill="#1D2088"/>
<path d="M60.2319 94.5092L60.2973 93.8554L59.6435 93.79L59.5781 94.4438L60.2319 94.5092Z" fill="#1D2088"/>
<path d="M61.3711 94.0119L61.5673 93.3973L60.954 93.2012L60.7578 93.8158L61.3711 94.0119Z" fill="#1D2088"/>
<path d="M62.7644 94.3127L62.3459 93.8027L61.8359 94.2081L62.2544 94.7181L62.7644 94.3127Z" fill="#1D2088"/>
<path d="M61.8579 94.6788L61.4787 98.314L61.2041 94.6134L60.2365 94.5088L59.125 98.3009L59.9226 98.3925L60.1319 97.6602L60.6549 97.7125L60.7203 98.4709L62.2633 98.6278L62.6687 94.7572L61.8841 94.6788M60.5896 95.6333L60.6418 96.9279L60.2757 96.8887L60.5896 95.6333Z" fill="#1D2088"/>
<path d="M62.7367 98.1819C62.5928 98.1688 62.4751 98.2603 62.462 98.4042C62.449 98.5349 62.5536 98.6657 62.6844 98.6788C62.8152 98.6919 62.9459 98.6004 62.959 98.4565C62.972 98.3258 62.8805 98.195 62.7367 98.1819ZM62.6844 98.6396L62.5013 98.4042C62.5013 98.2865 62.619 98.2081 62.7367 98.2212L62.9198 98.4565L62.6844 98.6396Z" fill="#1D2088"/>
<path d="M59.6326 71.1806C60.2995 72.0828 60.3387 72.2397 61.1494 73.3773C66.6415 81.2231 68.0538 88.9118 68.5377 92.5208C68.93 95.4237 68.4984 97.9867 68.4723 101.936C68.4331 106.708 71.6106 108.068 73.5067 106.565C73.7421 108.474 77.822 108.879 78.1358 106.303C79.4565 108.304 82.621 106.892 82.3595 104.302C83.2225 104.603 84.9878 104.394 84.7786 99.9089C84.7001 98.2221 84.0333 95.306 83.1833 92.5208C82.268 89.5133 76.645 73.9919 67.1123 63.3349C64.3401 59.8304 61.0841 58.9674 59.0703 60.1181" fill="#B0D7F2"/>
<path d="M59.1781 71.5203C59.505 71.9649 59.6749 72.2265 59.8711 72.5141C60.0672 72.8018 60.2765 73.1419 60.6819 73.7172C66.0955 81.4583 67.4947 89.0555 67.9785 92.6122C68.0962 93.4883 68.1354 94.3253 68.1354 95.2014C68.1354 97.1236 67.9262 99.2026 67.9131 101.949V102.027C67.9131 103.871 68.3708 105.283 69.1031 106.251C69.8353 107.218 70.8684 107.741 71.8883 107.741C72.5945 107.741 73.2876 107.493 73.876 107.035L73.5229 106.591L72.9475 106.656C73.0391 107.349 73.4837 107.885 74.0198 108.212C74.556 108.539 75.2098 108.709 75.8636 108.709C76.4913 108.709 77.1452 108.552 77.6813 108.173C78.2305 107.794 78.6359 107.179 78.7274 106.395L78.152 106.329L77.6682 106.643C78.1913 107.454 79.0412 107.859 79.865 107.846C80.6496 107.846 81.4081 107.519 81.9965 106.957C82.5719 106.395 82.9642 105.584 82.9642 104.642C82.9642 104.525 82.9641 104.394 82.9511 104.276L82.3757 104.329L82.1926 104.878C82.4018 104.943 82.6373 104.995 82.9119 104.995C83.1996 104.995 83.5133 104.93 83.8272 104.773C84.2979 104.538 84.7033 104.08 84.9648 103.413C85.2394 102.746 85.3833 101.857 85.3833 100.654C85.3833 100.419 85.3833 100.17 85.3702 99.9088C85.2786 98.1173 84.5987 95.1882 83.7487 92.3769C82.8072 89.304 77.1844 73.7695 67.547 62.9816L67.1155 63.3608L67.56 63.0078C65.4678 60.3664 63.0748 59.098 60.9695 59.085C60.1719 59.085 59.4265 59.268 58.7858 59.6472C58.5112 59.8041 58.4196 60.1572 58.5765 60.4318C58.7334 60.7064 59.0865 60.7979 59.3612 60.641C59.8188 60.3795 60.368 60.2357 60.9695 60.2357C62.591 60.2357 64.7224 61.2687 66.6578 63.7139L66.6839 63.7401C76.1121 74.2795 81.748 89.7616 82.6372 92.7038C83.4741 95.4498 84.128 98.3789 84.2064 99.948C84.2195 100.196 84.2195 100.419 84.2195 100.641C84.2195 102.119 83.9579 102.956 83.6833 103.361C83.5395 103.57 83.4087 103.675 83.278 103.74C83.1472 103.805 83.0165 103.832 82.8857 103.832C82.768 103.832 82.6372 103.805 82.5457 103.779C82.3626 103.714 82.1534 103.753 81.9965 103.871C81.8396 103.989 81.7611 104.185 81.7741 104.381V104.629C81.7741 105.257 81.5388 105.754 81.1727 106.12C80.7935 106.486 80.2965 106.695 79.8519 106.682C79.3812 106.682 78.9627 106.499 78.6228 105.989C78.492 105.793 78.2436 105.688 78.0082 105.741C77.7728 105.793 77.6028 105.989 77.5636 106.225C77.4982 106.708 77.302 106.983 77.0013 107.205C76.7005 107.415 76.2821 107.532 75.8375 107.532C75.3798 107.532 74.9221 107.415 74.5952 107.205C74.2683 106.996 74.0983 106.761 74.0722 106.486C74.046 106.277 73.9152 106.107 73.7191 106.028C73.5229 105.95 73.3006 105.976 73.1437 106.107C72.7514 106.408 72.3199 106.565 71.8753 106.565C71.2346 106.565 70.5545 106.264 70.0053 105.531C69.4561 104.812 69.0508 103.662 69.0508 102.001V101.936C69.0639 99.2419 69.2731 97.1889 69.2731 95.1883C69.2731 94.2729 69.2338 93.3837 69.1031 92.4422C68.6192 88.794 67.1808 81.0006 61.6103 73.0503C61.218 72.488 61.0088 72.1611 60.8126 71.8734C60.6165 71.5727 60.4334 71.2981 60.0934 70.8404C59.9104 70.592 59.5442 70.5266 59.2957 70.7227C59.0342 70.9058 58.9819 71.2719 59.1781 71.5203Z" fill="#1D2088"/>
<path d="M80.72 85.9566C76.2609 81.9814 71.1219 85.3419 68.1797 89.1733C68.572 90.3893 68.3366 92.6908 68.7812 95.0183C68.4805 92.8739 76.6794 86.7019 82.8907 91.1478L80.72 85.9566Z" fill="#1D2088"/>
<path d="M76.1063 76.9853C70.6927 74.8409 65.2921 77.5999 65.6582 82.1243C66.7828 84.0203 66.4167 84.1641 67.0836 86.9624C67.0705 83.4188 72.7719 79.2605 78.8263 81.8235C77.6101 79.9405 76.1194 76.9984 76.1194 76.9984" fill="#1D2088"/>
<path d="M72.1016 69.311C66.7141 66.9834 61.4181 70.344 61.0781 73.7569C62.3988 75.5614 62.8304 76.4245 63.9288 78.2028C64.0203 74.0184 68.2963 71.7039 74.743 73.8092C73.6446 71.8608 72.1016 69.2979 72.1016 69.2979" fill="#1D2088"/>
<path d="M82.9729 104.708C82.8944 103.818 82.6721 103.217 82.3321 102.668C82.1752 102.393 81.8222 102.302 81.5476 102.472C81.273 102.628 81.1814 102.981 81.3514 103.256C81.626 103.727 81.7568 104.041 81.8352 104.812C81.8614 105.126 82.136 105.361 82.4629 105.335C82.7768 105.309 83.0121 105.021 82.986 104.708" fill="#1D2088"/>
<path d="M78.8331 106.67C78.8069 106.408 78.7939 106.199 78.7939 106.003C78.7939 105.65 78.8331 105.362 78.8331 105.035C78.8331 104.891 78.8331 104.734 78.807 104.578C78.7678 104.264 78.4801 104.041 78.1532 104.081C77.8393 104.12 77.617 104.408 77.6693 104.721L77.6954 105.035C77.6954 105.271 77.6563 105.584 77.6563 106.003C77.6563 106.225 77.6562 106.487 77.6954 106.787C77.7347 107.101 78.0093 107.337 78.3232 107.297C78.637 107.258 78.8723 106.984 78.8331 106.67Z" fill="#1D2088"/>
<path d="M73.674 107.166C74.1186 106.395 74.2755 105.767 74.3147 105.126C74.3408 104.812 74.1055 104.538 73.7786 104.512C73.4648 104.486 73.1901 104.734 73.164 105.048C73.1116 105.584 73.0463 105.924 72.667 106.604C72.5101 106.878 72.6148 107.232 72.8894 107.388C73.164 107.545 73.517 107.441 73.674 107.166Z" fill="#1D2088"/>
<path d="M37.9646 26.5114C37.703 26.8383 37.3369 26.9691 36.9576 26.9299C36.0031 26.8383 34.5124 26.6945 32.7602 26.9037C30.9948 27.126 30.2625 27.466 29.3733 27.7798C29.0202 27.9106 28.3011 28.8129 27.8696 28.5906C27.1896 28.1329 26.7842 27.4791 26.6011 26.5507C25.8819 22.9155 27.9872 18.5219 31.6094 18.0643C35.2316 17.6066 39.2984 20.2479 39.6253 23.9224C39.7038 24.8638 38.2523 26.1583 37.9776 26.4983" fill="#1D2088"/>
<path d="M34.1383 24.6292C34.1122 24.9038 33.8245 24.8907 33.6676 24.8646C33.3015 24.8384 32.7915 24.8516 32.1377 24.93C31.4708 25.0085 30.9738 25.1261 30.6339 25.2438C30.49 25.2961 30.2024 25.4138 30.1108 25.1261C30.0232 24.9169 29.9539 24.6946 29.9016 24.4592C29.627 23.0731 30.2154 21.674 31.6408 21.491C33.0661 21.3079 34.0207 22.524 34.1514 23.9231C34.1907 24.2893 34.1907 24.3938 34.1514 24.6161" fill="white"/>
<path d="M63.9735 63.5963C57.5661 64.6424 54.2839 65.3616 44.5812 64.3416C17.5391 61.3079 17.6829 39.8238 24.6527 29.7813C29.6479 22.5894 38.7752 19.608 47.2618 19.7126C68.3411 20.1311 81.496 31.8735 79.2076 48.8071C77.7692 59.4773 65.9481 63.4001 63.9866 63.5963" fill="#B0D7F2"/>
<path d="M46.7779 35.325C46.111 37.7964 47.314 40.2548 49.4454 40.8301C51.5769 41.4055 53.8391 39.8625 54.506 37.3911C55.1729 34.9197 53.9699 32.4613 51.8385 31.886C49.707 31.3106 47.4448 32.8536 46.7779 35.325Z" fill="white"/>
<path d="M46.7776 35.3246L46.2284 35.1808C46.1891 35.3508 46.1499 35.5208 46.1107 35.6908C45.8884 36.9723 46.0976 38.2276 46.6599 39.2475C47.2091 40.2674 48.1376 41.0782 49.3014 41.392L49.6414 41.4705C50.8313 41.6797 52.0213 41.3397 52.989 40.6336C53.9566 39.9275 54.715 38.8552 55.055 37.5476C55.1073 37.3776 55.1335 37.2076 55.1727 37.0376C55.395 35.7562 55.1857 34.5009 54.6365 33.4809C54.0742 32.461 53.1589 31.6503 51.9951 31.3495L51.642 31.2711C50.4521 31.0618 49.2621 31.4018 48.2945 32.108C47.3268 32.8141 46.5814 33.8863 46.2284 35.1939L46.7776 35.3377L47.3268 35.4946C47.6145 34.4355 48.216 33.5855 48.9614 33.0363C49.7067 32.4871 50.5829 32.2518 51.4329 32.4087L51.6813 32.461C52.5182 32.6833 53.1851 33.2456 53.6166 34.0432C54.0481 34.8278 54.2181 35.8216 54.0351 36.8546C54.0089 36.9985 53.9827 37.1291 53.9435 37.273C53.6689 38.3322 53.0543 39.1821 52.309 39.7313C51.5636 40.2805 50.6875 40.516 49.8375 40.3721L49.589 40.3198C48.7521 40.0975 48.0853 39.5222 47.6537 38.7376C47.2222 37.953 47.0522 36.9592 47.2353 35.9262C47.2614 35.7954 47.2876 35.6516 47.3268 35.5208L46.7776 35.3639" fill="#1D2088"/>
<path d="M49.8394 36.2671C49.4602 37.6794 50.1401 39.0785 51.3563 39.4054C52.5724 39.7323 53.867 38.8562 54.2331 37.4439C54.6123 36.0317 53.9324 34.6326 52.7163 34.3057C51.5002 33.9788 50.2056 34.8549 49.8263 36.2671" fill="#1D2088"/>
<path d="M31.5489 33.2338C30.9604 35.4306 29.3128 36.9082 27.8744 36.529C26.436 36.1368 25.756 34.0445 26.3444 31.8477C26.9328 29.6509 28.5805 28.1733 30.0058 28.5525C31.4442 28.9448 32.1242 31.037 31.5358 33.2338" fill="white"/>
<path d="M31.5509 33.2332L31.1194 33.1155C30.8579 34.1093 30.3609 34.9331 29.7986 35.4561C29.2364 35.9923 28.6218 36.2015 28.1118 36.11L27.9941 36.0838C27.5103 35.953 27.1049 35.5477 26.8434 34.8939C26.5818 34.2401 26.5034 33.3771 26.6734 32.4486C26.6996 32.2787 26.7388 32.1087 26.778 31.9517C27.0395 30.958 27.5364 30.1341 28.0987 29.6111C28.661 29.0749 29.2756 28.8657 29.7856 28.9572L29.8902 28.9834C30.374 29.1142 30.7794 29.5195 31.0409 30.1733C31.3025 30.8271 31.3809 31.6902 31.224 32.6186C31.1979 32.7886 31.1586 32.9585 31.1063 33.1155L31.5378 33.2332L31.9694 33.3508C32.0217 33.1547 32.0609 32.9717 32.1001 32.7755C32.2832 31.7033 32.2048 30.6833 31.8778 29.8464C31.5509 29.0226 30.9625 28.3426 30.1256 28.1204L29.9295 28.0812C29.0403 27.9243 28.1772 28.3035 27.4842 28.9703C26.778 29.6372 26.2157 30.5918 25.915 31.7294C25.8627 31.9255 25.8234 32.1217 25.7842 32.3047C25.6011 33.377 25.6796 34.3969 26.0065 35.2338C26.3334 36.0707 26.9218 36.7376 27.7587 36.9599L27.9418 36.9991C28.831 37.156 29.6941 36.7768 30.4002 36.11C31.1063 35.4431 31.6686 34.4885 31.9694 33.3508L31.5378 33.2332" fill="#1D2088"/>
<path d="M31.1483 33.4172C30.8083 34.6725 29.8798 35.5094 29.056 35.2871C28.2452 35.0648 27.853 33.8748 28.193 32.6195C28.5329 31.3642 29.4614 30.5273 30.2722 30.7496C31.096 30.9719 31.4882 32.1619 31.1483 33.4172Z" fill="#1D2088"/>
<path d="M42.5794 25.7281C45.9662 26.3296 48.2154 27.611 47.6793 28.461C47.1431 29.3109 45.3778 28.3825 42.2133 27.8333C39.0357 27.2711 37.0742 27.5457 36.865 26.5519C36.6427 25.5712 39.2057 25.1266 42.5925 25.7281" fill="#1D2088"/>
<path d="M54.3769 20.6672C56.0899 20.9679 57.7244 21.3732 59.2805 21.844C45.681 21.3994 42.3858 30.265 40.6074 29.9512C38.829 29.6374 40.3981 20.471 49.3817 20.0918C51.0031 20.1703 52.6639 20.3533 54.3769 20.6541" fill="#1D2088"/>
<path d="M63.8015 63.9757L63.6839 63.4134C61.6309 63.8319 59.5255 64.3418 56.5833 64.5902C53.6411 64.8387 49.8621 64.8256 44.4615 64.1457C43.5592 64.0411 42.6831 63.9233 41.8331 63.7795C33.6211 62.3281 28.0636 58.5883 24.7683 53.9724C21.4731 49.3565 20.4269 43.8253 21.3292 38.7779C21.8654 35.7573 23.0945 32.9067 24.9252 30.5268C30.1428 23.7664 38.734 20.5759 47.0637 20.6805C50.0974 20.7328 52.9219 21.0073 55.5241 21.465C63.2262 22.8249 69.0845 25.8324 72.9813 30.0037C76.8911 34.175 78.8656 39.497 78.7741 45.6298C78.761 46.5974 78.6695 47.5127 78.5126 48.4019C77.6626 53.2401 74.825 56.8884 71.739 59.399C70.1959 60.6543 68.6006 61.6089 67.1753 62.2758C65.763 62.9427 64.4946 63.3218 63.71 63.4264H63.6708L63.7885 63.9888L63.8539 64.5641C64.8346 64.4334 66.1684 64.028 67.6722 63.3088C69.9344 62.2496 72.5628 60.5105 74.825 58.0783C77.0872 55.6461 78.9572 52.4817 79.6502 48.5981C79.8202 47.6566 79.9118 46.6759 79.9248 45.6429C80.0164 39.2617 77.9242 33.5997 73.8182 29.2192C69.7122 24.8387 63.6054 21.7266 55.7203 20.3405C53.0396 19.8697 50.1628 19.5951 47.0768 19.5298C38.4463 19.4252 29.5151 22.7073 24.023 29.8207C22.0615 32.3575 20.7669 35.378 20.2047 38.5817C19.2632 43.9298 20.3615 49.7619 23.8399 54.6524C27.3182 59.5298 33.1765 63.4395 41.6369 64.9302C42.513 65.0871 43.4153 65.2179 44.3438 65.3094L44.4091 64.7471L44.3307 65.3094C49.7836 65.9894 53.6673 66.0155 56.6879 65.754C59.7217 65.4925 61.8924 64.9695 63.9193 64.551L63.8015 63.9888" fill="#1D2088"/>
<path d="M73.8243 37.5087C73.3012 37.4172 72.8959 37.0771 72.6606 36.6325C72.0329 35.521 71.0913 33.7819 69.5745 31.9643C68.0576 30.1467 67.1671 29.5191 66.1863 28.7215C65.8071 28.4076 65.1808 28.0807 65.0892 27.4792C65.0369 26.4593 65.6123 25.7663 66.41 25.0079C69.5222 22.0788 74.4245 21.7257 77.5498 25.4786C80.6751 29.2314 79.459 33.9912 76.0068 36.528C75.1176 37.1818 74.3473 37.6002 73.8112 37.4956" fill="#1D2088"/>
<path d="M71.1785 33.8863C70.8777 34.0171 70.6816 33.6772 70.59 33.5072C70.3546 33.0887 69.9623 32.5264 69.3869 31.8465C68.8116 31.1665 68.3409 30.6827 67.9616 30.3689C67.8047 30.2381 67.4778 30.0027 67.7001 29.715C67.8479 29.4875 68.0231 29.2783 68.2232 29.0874C69.4001 27.9759 71.2438 27.7928 72.473 29.2704C73.7022 30.7349 73.2053 32.5134 71.8846 33.481C71.5446 33.7294 71.44 33.8079 71.1785 33.8863Z" fill="white"/>
<path d="M34.3151 45.1192C32.7198 44.8446 33.0859 43.4324 32.3406 42.5563C32.0398 42.2032 32.4713 44.387 32.1052 44.047C31.7914 43.7593 30.7191 43.197 30.5884 42.7132C30.1176 41.0264 28.1692 40.0065 27.0446 39.7972C20.5848 38.5681 19.3426 49.2775 25.2793 50.7551C29.0715 51.6966 29.7122 49.1728 31.896 49.3297C33.0337 49.382 35.5182 54.0502 42.6972 54.5471C50.1377 55.0702 50.9223 43.3147 44.4233 42.347C38.552 41.4709 37.8458 45.7468 34.3151 45.1192Z" fill="white"/>
<path d="M34.3094 45.1192L34.401 44.5831C34.0871 44.5177 33.9302 44.4262 33.7994 44.3215C33.6164 44.1646 33.5117 43.89 33.381 43.5108C33.2502 43.1316 33.1195 42.6478 32.7402 42.2032C32.7402 42.2032 32.6226 42.0463 32.361 41.9809L31.9818 42.0463C31.8118 42.1378 31.7595 42.2556 31.7203 42.334L31.668 42.5039C31.6418 42.6478 31.6549 42.7524 31.6549 42.8832C31.6549 43.0793 31.681 43.2885 31.681 43.4846C31.681 43.6677 31.681 43.8508 31.681 43.8639L31.9688 43.9162L31.7203 43.7593L31.668 43.8639L31.9557 43.9162L31.7072 43.7593L32.1126 44.0208L31.8772 43.5893L31.6941 43.7593L32.0995 44.0208L31.8641 43.5893L32.0995 44.0339L32.191 43.537L31.8641 43.5893L32.0995 44.0339L32.191 43.537L32.1257 43.9554L32.4133 43.6416C32.4133 43.6416 32.348 43.5762 32.191 43.537L32.1257 43.9554L32.4133 43.6416C32.2826 43.5239 32.1518 43.4323 32.008 43.3277C31.7857 43.1708 31.5241 43.0008 31.328 42.8439L31.1057 42.6347L31.0534 42.5694V42.5563C30.7657 41.5494 30.0726 40.791 29.3142 40.2549C28.5558 39.7187 27.745 39.3787 27.0912 39.248H26.9997C25.3128 38.9341 23.8744 39.3918 22.8413 40.3071C21.8214 41.2094 21.1937 42.517 20.9452 43.9162C20.6837 45.4069 20.8537 47.0153 21.5206 48.3752C22.1875 49.7482 23.3775 50.8727 25.0774 51.2912C25.2736 51.3435 25.4697 51.3827 25.6528 51.4089C26.542 51.5658 27.3004 51.5396 27.9281 51.3827C28.8827 51.1604 29.5627 50.7027 30.138 50.3758C30.7265 50.0358 31.1711 49.8266 31.7857 49.8789H31.7988V49.7744V49.8658V49.7613V49.8528L31.8641 49.8789C32.0341 49.9574 32.3872 50.2581 32.8449 50.6765C34.231 51.9319 36.6501 54.1287 40.8477 54.8609C41.3969 54.9525 41.9723 55.031 42.5869 55.0702C44.4699 55.201 46.0259 54.5863 47.1374 53.5533C48.2489 52.5203 48.9158 51.0951 49.1904 49.6044C49.4781 47.9437 49.2689 46.1914 48.5235 44.7269C47.7782 43.2754 46.4444 42.1117 44.6006 41.7978L44.4437 41.7717C42.9137 41.5494 41.6845 41.654 40.6515 41.9417C39.1215 42.3863 38.0754 43.2101 37.1601 43.7985C36.7024 44.0993 36.2709 44.3346 35.8394 44.4784C35.3948 44.6092 34.9371 44.6615 34.3617 44.5569L34.1656 45.6422C35.1594 45.8253 36.0093 45.6422 36.7285 45.3023C37.8139 44.7923 38.6639 44.0208 39.7623 43.4716C40.8476 42.9224 42.1684 42.5563 44.2868 42.8701L44.4175 42.8963C45.9082 43.1709 46.9282 44.047 47.5559 45.25C48.1836 46.453 48.3666 47.9829 48.1182 49.4213C47.8959 50.7158 47.3074 51.9188 46.4052 52.7557C45.5029 53.5926 44.2999 54.0895 42.6784 53.9718C42.103 53.9325 41.5669 53.8672 41.0438 53.7757C38.2586 53.2788 36.3624 52.1281 35.0024 51.0689C34.3225 50.5328 33.7733 50.0227 33.3156 49.6174C33.0933 49.4212 32.8841 49.2382 32.6749 49.0944C32.4656 48.9505 32.2695 48.8198 31.9949 48.7675H31.851L31.838 49.3036L31.8772 48.7544C31.2626 48.7021 30.7134 48.859 30.2558 49.0682C29.5627 49.382 29.0134 49.8005 28.3858 50.0751C27.745 50.3366 27.0127 50.5066 25.862 50.3105C25.7051 50.2843 25.5351 50.245 25.3651 50.2058C24.0051 49.8658 23.0898 49.0029 22.5275 47.8783C21.9783 46.7538 21.8083 45.3676 22.0437 44.0862C22.2529 42.8962 22.789 41.8109 23.5867 41.1179C24.3844 40.4248 25.4175 40.0587 26.8166 40.3071H26.8951C27.3528 40.4118 28.072 40.6864 28.6866 41.131C29.3142 41.5755 29.8112 42.164 30.0073 42.8439C30.0858 43.1185 30.2427 43.2886 30.3996 43.4585C30.635 43.6939 30.9095 43.89 31.171 44.06C31.4195 44.23 31.6418 44.387 31.6941 44.4393C31.7595 44.5046 31.8511 44.5831 32.0341 44.6093L32.4133 44.5569C32.5964 44.4523 32.6618 44.3346 32.688 44.2562L32.7533 44.047C32.7795 43.9032 32.7795 43.7724 32.7795 43.6285C32.7795 43.4193 32.7664 43.2101 32.7533 43.0139V42.7786V42.7001V42.6739L32.3741 42.6086L32.701 42.8178L32.7533 42.6739L32.3741 42.6086L32.701 42.8178L32.2695 42.5432L32.518 42.9878L32.701 42.8178L32.2695 42.5432L32.518 42.9878L32.2695 42.5301L32.178 43.0401L32.518 42.9878L32.2695 42.5301L32.178 43.0401L32.2564 42.5955L31.9033 42.8963C31.9033 42.8963 31.9557 42.9878 32.178 43.0401L32.2564 42.5955L31.9033 42.8963C32.0341 43.0401 32.1257 43.2363 32.2041 43.4585C32.3349 43.7985 32.4264 44.2431 32.701 44.6877C32.8318 44.91 33.028 45.1192 33.2764 45.2892C33.5249 45.4592 33.8386 45.5769 34.1917 45.6422L34.2833 45.1062" fill="#1D2088"/>
<path d="M35.8717 41.0393C36.6824 41.4316 37.4932 41.7847 38.0031 42.3208C37.6501 44.243 36.1332 45.786 33.1387 45.2499C30.1442 44.7268 29.6342 42.2947 29.9611 40.3725C31.3603 39.7841 34.4071 40.3201 35.8717 41.0393Z" fill="#1D2088"/>
<path d="M29.8548 40.57L30.4041 40.7008C30.5218 40.2039 30.8617 39.6155 31.3586 39.0532C32.104 38.2032 33.2155 37.3925 34.3139 36.8564C35.4254 36.3072 36.5369 36.0588 37.23 36.1895L37.4653 36.2418L37.4915 36.1502L37.4391 36.2287H37.4653L37.4915 36.1502L37.4391 36.2287C37.4391 36.2287 37.5307 36.3333 37.5961 36.5425C37.7138 36.8825 37.7792 37.471 37.8053 38.1248C37.8315 39.1055 37.7661 40.2562 37.6746 41.1715C37.6354 41.6292 37.583 42.0215 37.5569 42.3092C37.5438 42.453 37.5308 42.5576 37.5177 42.6491V42.7407L37.5046 42.7668L37.5307 43.0806L37.6876 43.303L38.0669 42.8714L37.5046 42.7668C37.4261 43.1852 37.2953 43.5514 37.1253 43.826C36.8638 44.2444 36.4977 44.5321 35.9223 44.7021C35.3469 44.8721 34.5362 44.8982 33.477 44.7151C32.0909 44.4667 31.2801 43.9175 30.8225 43.2637C30.3648 42.6099 30.2341 41.7992 30.3779 40.9493V40.8577L30.4171 40.6615L29.8548 40.5438L29.2925 40.4262L29.2403 40.6615V40.7793L29.7894 40.8577L29.2272 40.7662C29.0441 41.8384 29.201 42.976 29.8679 43.9175C30.5217 44.8721 31.6594 45.5651 33.2678 45.8397C34.837 46.1143 36.0662 46.0097 36.9946 45.4867C37.4523 45.2251 37.8314 44.859 38.093 44.4275C38.3676 43.996 38.5376 43.4991 38.6291 42.963C38.6684 42.7668 38.603 42.5706 38.4461 42.4268L38.0669 42.8583L38.603 42.6622L38.4461 42.4399L38.0669 42.8714L38.6422 42.9107L38.603 42.6752L38.0669 42.8714L38.603 43.0676L38.6291 42.9107L38.0538 42.8714L38.5899 43.0676L38.603 42.9761C38.603 42.9237 38.6292 42.8191 38.6553 42.6099C38.7469 41.9168 38.9299 40.2823 38.9299 38.7524C38.9299 37.9809 38.9037 37.2486 38.773 36.621C38.7076 36.3071 38.6292 36.0195 38.4853 35.7711C38.3546 35.5226 38.1322 35.2611 37.7922 35.1564C37.6615 35.1172 37.5438 35.0781 37.413 35.065C36.6677 34.9342 35.87 35.0649 35.0331 35.3264C33.7909 35.7318 32.5094 36.4641 31.4502 37.3533C30.391 38.2556 29.541 39.3016 29.2664 40.4393L29.8287 40.57" fill="#1D2088"/>
<path d="M46.9944 49.7097L52.7611 50.7297C53.075 50.782 53.3757 50.5727 53.428 50.272C53.4804 49.9581 53.2711 49.6575 52.9573 49.6052L47.1905 48.5852C46.8767 48.5329 46.5759 48.7421 46.5236 49.0428C46.4713 49.3566 46.6806 49.6574 46.9944 49.7097Z" fill="#1D2088"/>
<path d="M45.856 52.0761L50.9297 55.0052C51.2043 55.1622 51.5574 55.0706 51.7143 54.796C51.8712 54.5214 51.7797 54.1684 51.5051 54.0114L46.4314 51.0824C46.1568 50.9255 45.8038 51.017 45.6468 51.2916C45.4899 51.5662 45.5814 51.9192 45.856 52.0761Z" fill="#1D2088"/>
<path d="M47.128 47.0938L52.8948 46.087C53.2086 46.0347 53.4179 45.734 53.3655 45.4201C53.3132 45.1063 53.0125 44.8971 52.6986 44.9494L46.9319 45.9562C46.6181 46.0085 46.4088 46.3093 46.4611 46.6231C46.5134 46.937 46.8142 47.1462 47.128 47.0938Z" fill="#1D2088"/>
<path d="M23.3623 44.1528L19.1124 43.4074C18.7986 43.3551 18.4978 43.5644 18.4455 43.8782C18.3932 44.1921 18.6024 44.4928 18.9162 44.5451L23.1661 45.2904C23.4799 45.3427 23.7807 45.1335 23.833 44.8328C23.8853 44.5189 23.6761 44.2182 23.3623 44.1659" fill="#1D2088"/>
<path d="M23.1539 46.7799L18.904 48.0614C18.6033 48.1529 18.4332 48.4799 18.5248 48.7806C18.6163 49.0814 18.9432 49.2644 19.244 49.1598L23.4938 47.8783C23.7946 47.7868 23.9777 47.4599 23.8862 47.1592C23.7946 46.8584 23.4677 46.6753 23.1669 46.7668" fill="#1D2088"/>
<path d="M24.5591 41.8252L21.0022 39.1707C20.7538 38.9876 20.3877 39.0269 20.2046 39.2884C20.0085 39.5368 20.0608 39.903 20.3223 40.086L23.8791 42.7405C24.1406 42.9367 24.4937 42.8843 24.6898 42.6228C24.8729 42.3613 24.8206 42.0082 24.5722 41.8121" fill="#1D2088"/>
<path d="M45.8917 22.6027C49.9978 23.3219 52.7451 24.7733 52.1174 25.7017C51.4767 26.6301 49.3439 25.571 45.4864 24.9041C41.6419 24.2241 39.2619 24.4856 38.9873 23.3872C38.6997 22.3019 41.7857 21.8835 45.8917 22.6027Z" fill="#1D2088"/>
<path d="M79.4061 43.3545C79.5891 45.0936 79.2884 46.6889 79.0007 48.4803C78.8569 49.3434 77.8238 53.2008 77 53.057C69.2064 51.684 62.1974 48.9642 62.4851 47.3035C62.8643 45.1852 72.3578 48.0489 78.4907 43.8645" fill="#1D2088"/>
<path d="M67.7366 61.8183C64.8206 60.7722 60.2177 56.5094 61.303 55.0448C62.153 53.8941 70.0773 58.68 73.8695 57.8824C71.6465 61.0599 67.7366 61.8052 67.7366 61.8052" fill="#1D2088"/>
<path d="M79.8617 29.9644C76.4619 35.0902 66.2492 35.0118 52.8196 29.9644C40.7893 25.44 31.0866 19.5165 32.878 13.0569C34.4341 7.42106 46.1507 6.40114 58.3118 10.5463C70.4729 14.6914 83.7193 24.1455 79.8617 29.9644Z" fill="#EB6100"/>
<path d="M79.8541 29.9641L79.3964 29.6634C78.6119 30.8402 77.4481 31.7163 75.892 32.3178C74.3359 32.9193 72.4005 33.2331 70.1383 33.2331C65.5746 33.2331 59.6902 31.9647 52.9951 29.4541C47.4899 27.3881 42.4815 25.0213 38.8855 22.4715C37.094 21.2031 35.6426 19.8823 34.6749 18.5616C33.6942 17.2409 33.1842 15.9203 33.1842 14.5996C33.1842 14.1288 33.2496 13.6712 33.3804 13.2004C33.7857 11.7359 34.9626 10.5983 36.8456 9.78756C38.7286 8.97684 41.2785 8.5584 44.2207 8.5584C48.3137 8.5584 53.1781 9.38216 58.121 11.0559C63.417 12.8604 68.9353 15.6849 73.0936 18.7578C75.1727 20.3008 76.9119 21.8961 78.1149 23.426C79.331 24.969 79.9718 26.4466 79.9718 27.7019C79.9718 28.395 79.7887 29.0357 79.3834 29.6503L79.841 29.951L80.2987 30.2517C80.8218 29.4672 81.0702 28.6042 81.0702 27.7019C81.0702 26.0805 80.2726 24.4198 78.9911 22.7591C75.1204 17.8294 66.5945 12.7951 58.4871 10.0229C53.4396 8.30994 48.4837 7.45996 44.2338 7.45996C41.187 7.45996 38.5063 7.89149 36.4402 8.78067C34.3741 9.65677 32.8703 11.0298 32.3604 12.8997C32.2034 13.462 32.125 14.0242 32.125 14.5865C32.125 16.1949 32.7527 17.7379 33.8249 19.1893C37.0548 23.5306 44.2992 27.2965 52.6289 30.4479C59.4025 32.9978 65.3785 34.2923 70.1383 34.2923C72.5051 34.2923 74.5712 33.9654 76.2842 33.3116C77.9973 32.6447 79.3703 31.6248 80.2987 30.2387L79.8541 29.9379" fill="#1D2088"/>
<path d="M56.9169 17.4635C58.0284 14.469 56.7992 13.3052 56.25 12.7168C57.4138 13.2006 61.1668 14.8743 62.3044 15.2143C60.9968 15.1751 59.8198 15.2013 58.5122 18.0257" fill="#EB6100"/>
<path d="M57.4209 17.6603C57.7609 16.7319 57.9048 15.9474 57.9048 15.2805C57.9178 13.6591 57.0155 12.7437 56.6494 12.3514L56.244 12.7176L56.0348 13.2145C56.5971 13.4498 57.8394 13.999 59.0686 14.509C60.3108 15.032 61.5138 15.5289 62.1415 15.7251L62.2984 15.2021V14.6659C62.1807 14.6659 62.0369 14.6659 61.8931 14.6659C61.2785 14.6659 60.5724 14.7444 59.8924 15.2282C59.2255 15.6989 58.6109 16.4966 58.0094 17.8042C57.8786 18.0788 58.0094 18.3926 58.2709 18.5234C58.5455 18.6542 58.8594 18.5234 58.9901 18.2619C59.5524 17.0458 60.0754 16.4181 60.507 16.1173C60.9516 15.8166 61.3438 15.7643 61.88 15.7513C61.9977 15.7513 62.1285 15.7513 62.2592 15.7513C62.5338 15.7513 62.7692 15.5681 62.8084 15.2935C62.8477 15.0189 62.6908 14.7705 62.4292 14.6921C61.9193 14.5482 60.6901 14.0383 59.4739 13.5283C58.2578 13.0052 57.0286 12.4691 56.4402 12.2207C56.2048 12.1291 55.9302 12.2076 55.7864 12.4038C55.6425 12.5999 55.6556 12.8875 55.8256 13.0837C56.2179 13.5283 56.7802 14.0383 56.7933 15.2805C56.7933 15.8036 56.6887 16.4573 56.3748 17.2811C56.2702 17.5557 56.414 17.8696 56.6887 17.9742C56.9633 18.0788 57.2771 17.9349 57.3817 17.6603" fill="#1D2088"/>
<path d="M22.5156 49.6566C26.0593 50.0096 28.2039 48.3489 29.3546 47.499C30.8584 46.3875 33.7745 47.0413 34.4414 47.9959C36.259 50.5719 37.5013 53.7101 43.9349 55.1747C45.8963 56.4561 23.261 51.1995 23.261 51.1995" fill="#B0D7F2"/>
<path d="M32.0632 50.0495L32.1024 50.1018C32.1809 50.2064 32.3378 50.4549 32.3378 50.821C32.3378 51.0564 32.2855 51.344 32.0763 51.7102C31.9324 51.9717 32.0239 52.3117 32.2854 52.4555C32.547 52.5993 32.887 52.5078 33.0308 52.2462C33.3185 51.7363 33.4362 51.2394 33.4362 50.821C33.4362 49.8664 32.887 49.3303 32.8477 49.278C32.6254 49.0688 32.2855 49.0688 32.0632 49.278C31.8539 49.5003 31.8539 49.8403 32.0632 50.0625" fill="#1D2088"/>
<path d="M30.1452 49.4209C30.1452 49.4209 30.1714 49.5386 30.1714 49.6694C30.1714 49.8263 30.1453 50.0224 30.0407 50.1924C29.9491 50.3624 29.7922 50.5193 29.4391 50.6632C29.1514 50.7678 29.0076 51.0816 29.1122 51.3693C29.2168 51.6569 29.5306 51.8008 29.8183 51.6962C30.3937 51.487 30.786 51.1208 30.9952 50.7285C31.2175 50.3363 31.2568 49.9571 31.2568 49.6694C31.2568 49.3817 31.2044 49.1855 31.2044 49.1594C31.126 48.8586 30.8253 48.6887 30.5376 48.7671C30.2368 48.8456 30.0668 49.1463 30.1452 49.434" fill="#1D2088"/>
<path d="M22.4375 49.5789C23.2744 50.2197 24.1374 50.5074 24.9482 50.4943C26.0989 50.4943 27.0927 49.9581 27.9165 49.3828C28.7404 48.7943 29.4465 48.1406 29.9434 47.8137C30.4664 47.4737 31.0287 47.3168 31.5648 47.3168C32.3756 47.3168 33.0687 47.6698 33.4348 48.2713C34.4417 49.9189 35.6447 51.6058 37.2139 52.8742C38.7831 54.1556 40.7315 55.0317 43.1245 55.0317C43.3337 55.0317 43.5429 55.0317 43.7652 55.0186L43.6998 53.9463C43.5037 53.9463 43.3075 53.9594 43.1245 53.9594C40.9799 53.9594 39.3061 53.2141 37.8939 52.0504C36.4816 50.8997 35.3309 49.3174 34.3501 47.7091C33.7486 46.7414 32.6764 46.2314 31.5518 46.2314C30.8065 46.2314 30.035 46.4538 29.3419 46.9114C28.7142 47.3299 28.0473 47.9706 27.302 48.4936C26.5566 49.0166 25.7589 49.422 24.9612 49.4089C24.399 49.4089 23.7975 49.2259 23.1044 48.7029L22.4506 49.5659" fill="#1D2088"/>
<path d="M28.1023 14.4162C25.6439 15.0308 25.0162 16.5215 24.6631 20.1959C24.297 16.5999 23.3555 14.8216 21.2109 14.4162C23.4209 13.6971 24.4408 12.1802 24.5847 8.67578C24.8985 12.141 25.657 13.6317 28.1023 14.4162Z" fill="#FFF100"/>
<path d="M28.0943 14.4166L27.9635 13.8936C26.6559 14.2074 25.6882 14.8481 25.1129 15.8942C24.5375 16.9272 24.2891 18.2871 24.106 20.144L24.6421 20.1962L25.1782 20.144C24.9952 18.3133 24.6552 16.9011 24.0537 15.8419C23.4521 14.7828 22.4976 14.1028 21.3076 13.8936L21.203 14.4166L21.373 14.9266C22.563 14.5474 23.5175 13.8935 24.1321 12.8605C24.7467 11.8275 25.0475 10.4807 25.1129 8.68922L24.5768 8.66312L24.0406 8.7154C24.1975 10.4807 24.4591 11.8014 25.0737 12.8213C25.6752 13.8544 26.6428 14.5081 27.9374 14.9135L28.0943 14.4035L28.2512 13.8936C27.1005 13.5275 26.4598 13.0567 25.989 12.2721C25.5183 11.4875 25.2567 10.3238 25.1129 8.62385C25.0867 8.33618 24.8513 8.12695 24.5637 8.12695C24.276 8.12695 24.0406 8.36236 24.0406 8.65003C23.9752 10.3499 23.6876 11.5137 23.2037 12.2983C22.7199 13.0828 22.066 13.5536 21.033 13.8936C20.7976 13.972 20.6408 14.1943 20.6669 14.4428C20.68 14.6912 20.863 14.8874 21.0984 14.9397C22.0399 15.1227 22.6284 15.5411 23.1122 16.378C23.596 17.2149 23.923 18.4833 24.106 20.2486C24.1322 20.5232 24.3675 20.7324 24.6421 20.7324C24.9167 20.7324 25.1521 20.5232 25.1782 20.2486C25.3613 18.431 25.6098 17.2019 26.0544 16.4173C26.499 15.6458 27.0743 15.2273 28.212 14.9397C28.4473 14.8874 28.6173 14.6781 28.6173 14.4297C28.6173 14.1943 28.4735 13.972 28.2381 13.8936L28.0812 14.4035" fill="#1D2088"/>
<path d="M67.0716 86.9506C70.4846 86.4144 74.0675 84.7276 79.8604 80.7132C82.8287 78.6472 93.8784 75.4304 99.5143 80.3079C107.7 87.3951 107.452 106.931 85.1956 114.384C59.1081 123.119 52.4914 107.454 53.1714 100.341C53.9036 92.6518 59.2127 88.1928 67.0716 86.9506Z" fill="#814109"/>
<path d="M67.0616 86.9506L67.14 87.4867C70.6707 86.9244 74.3452 85.1984 80.1511 81.1578C80.975 80.5825 82.6226 79.8502 84.6233 79.2749C86.624 78.6995 88.9908 78.2811 91.3184 78.2811C94.2606 78.2811 97.1113 78.9479 99.1381 80.7132C102.054 83.2369 103.885 87.4736 103.885 92.1679C103.885 100.053 98.772 109.245 85.0025 113.874C79.615 115.679 75.0775 116.424 71.2984 116.424C64.5117 116.424 60.1441 114.044 57.4242 110.985C54.7043 107.925 53.6451 104.133 53.6451 101.347C53.6451 101.007 53.6582 100.694 53.6974 100.393C54.0635 96.653 55.502 93.7633 57.8034 91.6188C60.1049 89.4743 63.2825 88.0882 67.14 87.4867L67.0616 86.9506L66.9831 86.4144C62.9687 87.0421 59.5818 88.5066 57.0842 90.8211C54.5866 93.1355 53.0174 96.3262 52.6382 100.275C52.599 100.615 52.5859 100.968 52.5859 101.334C52.5859 104.381 53.7105 108.395 56.6396 111.691C59.5557 114.986 64.2894 117.496 71.3245 117.483C75.2475 117.483 79.9027 116.712 85.3686 114.881C99.4912 110.174 104.996 100.524 104.996 92.1549C104.996 87.1728 103.074 82.6485 99.8704 79.8763C97.5428 77.8757 94.4306 77.1826 91.3446 77.1826C88.8862 77.1826 86.4278 77.6142 84.3486 78.2157C82.2564 78.8172 80.5565 79.5625 79.5627 80.2425C73.796 84.2438 70.2784 85.8783 66.9962 86.4013L67.0747 86.9375" fill="#1E2380"/>
<path d="M75.9401 93.1223C75.9401 94.9791 74.4363 96.4829 72.5794 96.4829C70.7226 96.4829 69.2188 94.9791 69.2188 93.1223C69.2188 91.2655 70.7226 89.7617 72.5794 89.7617C74.4363 89.7617 75.9401 91.2655 75.9401 93.1223Z" fill="#1D2088"/>
<path d="M77.6045 107.376C77.6438 109.023 75.9046 110.396 73.7208 110.436C71.537 110.475 69.7456 109.18 69.7194 107.546C69.6802 105.898 71.4194 104.525 73.6032 104.486C75.7738 104.434 77.5784 105.741 77.6045 107.376Z" fill="#E60012"/>
<path d="M63.6172 105.479C62.1395 106.212 60.165 105.218 59.1973 103.27C58.2297 101.321 58.6351 99.1505 60.1127 98.4182C61.5773 97.686 63.5649 98.6667 64.5326 100.628C65.5002 102.576 65.0948 104.747 63.6172 105.479Z" fill="white"/>
<path d="M89.4761 102.785C90.1953 104.262 89.1884 106.237 87.24 107.191C85.2786 108.146 83.1079 107.714 82.3887 106.237C81.6694 104.759 82.6764 102.785 84.6248 101.83C86.5862 100.876 88.7569 101.307 89.4761 102.785Z" fill="#0070BD"/>
<path d="M97.3638 92.7038C98.8414 93.4361 99.2468 95.6068 98.2792 97.5551C97.3115 99.5035 95.3239 100.497 93.8593 99.765C92.3947 99.0327 91.9764 96.8621 92.944 94.9137C93.9117 92.9654 95.8992 91.9716 97.3638 92.7038Z" fill="#FFF100"/>
<path d="M92.6225 81.7065C93.8909 80.6604 96.0485 81.1703 97.4346 82.8441C98.8207 84.5178 98.9253 86.7277 97.6569 87.7868C96.3884 88.8329 94.2308 88.323 92.8447 86.6492C91.4586 84.9755 91.354 82.7656 92.6225 81.7196" fill="#231815"/>
<path d="M25.8828 30.4218L32.8657 31.9125C32.8657 31.9125 33.7025 28.1858 31.1003 27.3489C28.4981 26.512 25.8828 30.4218 25.8828 30.4218Z" fill="#B0D7F2"/>
<path d="M46.0625 33.8611L56.0268 36.0056C56.0268 36.0056 56.2098 31.2589 51.4631 30.5136C46.7163 29.7682 46.0625 33.8611 46.0625 33.8611Z" fill="#B0D7F2"/>
<path d="M26.7187 31.3502L31.6224 32.1871C31.9231 32.2394 32.1977 32.0432 32.25 31.7425C32.3023 31.4548 32.1062 31.1672 31.8055 31.1149L26.9018 30.278C26.601 30.2257 26.3264 30.4218 26.2741 30.7226C26.2218 31.0103 26.4179 31.2979 26.7187 31.3502Z" fill="#1D2088"/>
<path d="M47.0811 34.5413L54.6393 36.0058C54.927 36.0581 55.2146 35.875 55.2669 35.5743C55.3192 35.2866 55.1361 34.999 54.8354 34.9467L47.2772 33.4952C46.9896 33.4429 46.7018 33.6259 46.6495 33.9267C46.5972 34.2143 46.7803 34.5021 47.0811 34.5544" fill="#1D2088"/>
<path d="M13.624 16.5608C13.6501 16.8746 13.9248 17.11 14.2386 17.0708H14.2517C14.5524 17.0315 14.7747 16.7569 14.7616 16.4561C14.6832 15.567 14.5786 14.6647 14.4609 13.8409C14.9709 13.9324 15.7424 14.0894 16.5008 14.2855H16.71C16.9323 14.2855 17.1416 14.1155 17.1939 13.8802C17.2724 13.5794 17.0892 13.2656 16.7884 13.1871C15.7685 12.9256 14.7747 12.7426 14.2909 12.6641C14.0817 11.2649 13.8986 10.2842 13.8986 10.258C13.8463 9.94422 13.5455 9.74811 13.2317 9.80041C12.9179 9.85272 12.7217 10.1534 12.774 10.4672C12.774 10.4934 13.3494 13.6317 13.624 16.5739" fill="white"/>
<path d="M13.6207 16.5607L13.0584 16.613C13.1107 17.2145 13.6076 17.6591 14.196 17.6591H14.3006H14.3137H14.3399C14.9283 17.5937 15.3468 17.0968 15.3468 16.5215V16.4169C15.2683 15.5146 15.1506 14.6124 15.046 13.7755L14.4837 13.8539L14.3791 14.4162C14.889 14.5077 15.6344 14.6516 16.3798 14.8477H16.4844L16.6936 14.8869H16.7983C17.2559 14.8346 17.6482 14.5078 17.7659 14.037L17.7921 13.7493C17.7921 13.2393 17.4521 12.7817 16.9421 12.6379C15.896 12.3633 14.8891 12.1802 14.3921 12.1017L14.3006 12.664L14.8629 12.5725C14.7583 11.8664 14.6668 11.278 14.5883 10.8464C14.5491 10.6372 14.5229 10.4672 14.4968 10.3364L14.4706 10.1926V10.1534V10.1403V10.088L13.9083 10.2449L14.4706 10.1403C14.366 9.578 13.8822 9.21191 13.346 9.21191L13.1238 9.23809L13.2414 9.80036L13.1369 9.23809C12.5876 9.3427 12.1953 9.81342 12.1953 10.3626C12.1953 10.4149 12.1953 10.5065 12.2215 10.6242L12.7707 10.4672L12.2084 10.5587C12.2084 10.5587 12.7838 13.697 13.0453 16.613L13.6076 16.5607L14.1699 16.5084C13.9083 13.5402 13.3199 10.3888 13.3199 10.3626V10.2973L13.0191 10.3757L13.3069 10.3495V10.2973L13.0191 10.3757L13.3069 10.3495H13.333L13.3199 10.2711V10.3495H13.333L13.3199 10.2711V10.3495V10.4018L13.8299 10.258L13.3199 10.3626V10.4018L13.8299 10.258L13.3199 10.3626C13.3199 10.3626 13.503 11.3956 13.7122 12.7294C13.7515 12.9779 13.9345 13.174 14.183 13.2132C14.6537 13.2917 15.6344 13.4748 16.6283 13.7232L16.6936 14.2986L16.7329 13.7232H16.5236L16.4844 14.2724L16.6283 13.7232C15.8437 13.514 15.0721 13.3701 14.536 13.2786C14.3529 13.2394 14.1699 13.3047 14.0391 13.4224C13.9084 13.5532 13.843 13.7362 13.8691 13.9062C13.9737 14.73 14.0914 15.6323 14.1699 16.5084L14.7452 16.4561L14.1699 16.4038V16.4823V16.4954H14.2614H14.1568L14.2221 17.0576L14.183 16.4823H14.1568L13.5945 16.5345" fill="white"/>
<path d="M15.8145 11.5006C15.9321 11.7098 16.1675 11.8275 16.3898 11.8013L16.5859 11.736C16.8605 11.5921 16.9783 11.239 16.8214 10.9644L16.3506 10.0753C16.2067 9.80066 15.8537 9.69606 15.5791 9.8399C15.3045 9.98373 15.1868 10.3237 15.3437 10.6114L15.8145 11.5137" fill="white"/>
<path d="M15.8146 11.5006L15.3047 11.7622C15.5139 12.1545 15.9061 12.3767 16.3115 12.3767H16.4292L16.547 12.3505L16.743 12.2852L16.8346 12.246C17.2269 12.0368 17.4492 11.6445 17.4492 11.2391C17.4492 11.056 17.41 10.886 17.3184 10.716L16.8477 9.81376C16.6385 9.42148 16.2461 9.19922 15.8408 9.19922C15.6577 9.19922 15.4747 9.23843 15.3047 9.34304L15.5792 9.83994L15.3178 9.32995C14.9385 9.52609 14.7031 9.9184 14.7031 10.3368C14.7031 10.5068 14.7423 10.703 14.8469 10.886L15.3439 10.5984L14.8339 10.8599L15.3047 11.7622L15.8146 11.5006L16.3246 11.2391L15.8539 10.3368V10.3107L15.7754 10.3499H15.8408V10.3107L15.7754 10.3499H15.8408V10.3368H15.8539L15.8408 10.2977V10.3368H15.8539V10.3107L15.8408 10.3499L16.3115 11.2522L16.8215 10.9906L16.3115 11.2391L16.573 11.7491L16.403 11.1999L16.207 11.2653L16.377 11.8145L16.3246 11.2522L15.8146 11.5137" fill="white"/>
<path d="M18.2725 9.90558C18.2071 9.59175 17.9064 9.40875 17.5926 9.47413C17.2918 9.53951 17.0956 9.8402 17.161 10.154L17.3702 11.1086C17.4356 11.3963 17.7103 11.5924 17.9979 11.5532H18.0502C18.351 11.4747 18.5602 11.174 18.4818 10.8602L18.2725 9.90558Z" fill="white"/>
<path d="M18.265 9.90467L18.8272 9.78703C18.7096 9.2509 18.2388 8.88477 17.7158 8.88477L17.4673 8.91094L17.598 9.46012L17.4804 8.89785C16.9443 9.01554 16.5781 9.48625 16.5781 10.0093C16.5781 10.0747 16.5781 10.1793 16.6304 10.31L17.1666 10.127L16.6043 10.2447L16.8135 11.1993C16.9312 11.7354 17.4019 12.1015 17.925 12.1015H18.0558H18.082H18.1342L18.1734 12.0884C18.6965 11.9708 19.0627 11.5 19.0627 10.9769L19.0365 10.7546L18.8272 9.78703L18.265 9.90467L17.7027 10.0224L17.9119 10.9769L18.4742 10.8593L17.9119 10.9638V10.99L18.0427 11.5523L17.9642 10.99H17.9119L17.9904 11.5654L17.938 11.0031L17.7289 10.0486V9.98312L17.4542 10.0747L17.7289 10.0355V9.98312L17.4542 10.0747L17.7289 10.0355H17.7419V9.98312L17.7289 10.0486H17.7419L17.7289 9.98312V10.0486L18.2911 9.93084" fill="white"/>
<path d="M20.7382 18.0649C20.1498 18.091 19.0121 18.2871 18.0052 18.4832C17.7829 17.8033 17.626 17.3325 17.626 17.3325C17.5214 17.0318 17.2076 16.8749 16.9068 16.9664C16.6061 17.071 16.4491 17.3848 16.5407 17.6856C16.5407 17.6856 16.6845 18.1041 16.8807 18.7187C16.3184 18.8363 15.913 18.9279 15.8737 18.9409C15.573 19.0063 15.3769 19.3201 15.4423 19.6208C15.5077 19.9347 15.8214 20.1178 16.1222 20.0524C16.1222 20.0524 16.593 19.9478 17.2337 19.817C17.5476 20.7977 17.9006 21.9484 18.1621 22.8507C18.2406 23.1253 18.5021 23.2822 18.7637 23.2561H18.8683C19.1691 23.1515 19.339 22.8245 19.2606 22.5238C19.0121 21.6477 18.6591 20.5493 18.3583 19.5817C18.816 19.4901 19.2867 19.3986 19.7182 19.3332L19.1298 20.3532C18.9729 20.6278 19.0644 20.9808 19.339 21.1377L19.679 21.2162C19.8621 21.2031 20.019 21.0985 20.1236 20.9285L21.2743 18.9278C21.3789 18.7448 21.3789 18.5225 21.2743 18.3525C21.1697 18.1694 20.9736 18.0648 20.7644 18.0779" fill="white"/>
<path d="M20.7309 18.0646L20.7034 17.4893C20.0248 17.5154 18.9119 17.7246 17.8789 17.9207L17.9966 18.483L18.5327 18.313C18.4281 17.973 18.3248 17.6854 18.2594 17.4762L18.181 17.2408V17.1754L18.1535 17.1624L17.6304 17.3193L18.1666 17.2015V17.1624L17.6304 17.3193L18.1666 17.2015V17.1362C17.9835 16.6524 17.5389 16.3516 17.0682 16.3516C16.9505 16.3516 16.8341 16.3647 16.7033 16.417L16.8982 16.9531L16.7164 16.417C16.2326 16.5739 15.9305 17.0185 15.9305 17.5023C15.9305 17.6069 15.9436 17.7508 15.9959 17.8815L16.0221 17.9469L16.5059 17.6854L15.9841 17.8815L16.009 17.9469L16.4928 17.6854L15.9711 17.8815L16.1921 17.79L15.9711 17.8684C15.9711 17.8684 16.1149 18.3261 16.298 18.8753L16.8459 18.7053L16.7295 18.1431C16.1672 18.2608 15.7605 18.3523 15.7082 18.3653C15.1852 18.483 14.8203 18.9407 14.8203 19.4768C14.8203 19.5422 14.819 19.6468 14.8582 19.7776L15.4088 19.6076L14.8465 19.7252C14.9642 20.2614 15.4336 20.6144 15.9567 20.6144L16.1921 20.5883C16.1921 20.5883 16.6628 20.4837 17.3035 20.3529L17.1859 19.7906L16.638 19.9606C16.9518 20.9413 17.3035 22.079 17.5651 22.9682C17.7089 23.4651 18.1679 23.7919 18.6648 23.7919H18.7694H18.8204H18.9263L18.9773 23.7527C19.4743 23.6089 19.8012 23.1512 19.8012 22.6543L19.7619 22.3536C19.5004 21.4513 19.1617 20.3529 18.8479 19.3852L18.3104 19.5552L18.4151 20.1175C18.8727 20.026 19.3448 19.9475 19.7502 19.8821L19.6586 19.3199L19.1617 19.0322L18.5863 20.0521C18.4817 20.2221 18.4294 20.4183 18.4294 20.6144C18.4294 21.0067 18.6387 21.399 19.0048 21.6082L19.1617 21.6736L19.5017 21.752H19.6834C20.0365 21.7259 20.3778 21.5297 20.5609 21.1898L21.7116 19.1892C21.8163 19.0061 21.8555 18.81 21.8555 18.6269C21.8555 18.4177 21.7901 18.2215 21.6985 18.0384C21.4893 17.6854 21.0971 17.4762 20.7034 17.4762H20.6773L20.7034 18.0515V18.6269H20.7309L21.2147 18.3261L20.7178 18.6138V18.6269L19.5671 20.6275L19.6181 21.2029L19.7371 20.6406L19.3958 20.5621L19.2781 21.1244L19.5527 20.6275L20.1424 19.6076C20.2471 19.4115 20.2458 19.1761 20.115 19.0061C19.9842 18.823 19.775 18.7315 19.5527 18.7707C19.1212 18.8361 18.6387 18.9276 18.181 19.0192C18.0241 19.0453 17.8789 19.1499 17.8004 19.2937C17.722 19.4375 17.6958 19.6076 17.7482 19.7645C18.062 20.7191 18.402 21.8175 18.6504 22.6936L19.1996 22.5366L18.6504 22.6805V22.6936L18.8073 23.2427L18.7027 22.6805H18.5994L18.7027 23.2558L18.6504 22.6936C18.3889 21.7782 18.0241 20.6406 17.7102 19.6468C17.6187 19.3722 17.331 19.2022 17.0433 19.2676C16.7295 19.333 16.4536 19.3984 16.2443 19.4376L15.9436 19.503H15.9305V19.4507L15.6821 19.5291L15.9174 19.503V19.4507L15.6821 19.5291L15.9174 19.503C15.9566 19.503 16.362 19.3984 16.9112 19.2807C17.0682 19.2415 17.2133 19.1499 17.2918 19.0061C17.3702 18.8622 17.382 18.6923 17.3428 18.5484C17.2382 18.2477 17.1597 17.9862 17.1074 17.8162L17.0433 17.6069V17.5415L17.0159 17.5154L16.9897 17.4369L16.4928 17.7115L17.0302 17.5023L16.8982 17.5546L17.0302 17.5285V17.5023L16.8982 17.5546L17.0302 17.5285H17.0028H17.0433L17.0302 17.4893V17.5285H17.0433L17.0302 17.4893V17.5285L17.5651 17.3454L17.0028 17.4631V17.5154C17.042 17.5938 17.1858 18.0384 17.3951 18.6661C17.4866 18.9407 17.7612 19.1107 18.0489 19.0453C19.0558 18.8492 20.1804 18.653 20.7034 18.6269L20.6773 18.0515" fill="white"/>
<path d="M20.6878 24.7868C19.4455 24.7868 17.8502 25.153 17.7717 25.1661C17.471 25.2446 17.2748 25.5453 17.3533 25.846C17.4317 26.1468 17.7325 26.3429 18.0333 26.2645C18.0333 26.2645 18.8048 26.0814 19.6417 25.9768L19.3801 26.4214C19.2232 26.3429 19.0402 26.3429 18.8702 26.4214C18.5956 26.5652 18.491 26.9052 18.6348 27.1798C18.6348 27.206 18.9355 27.7813 18.5825 28.3567C18.4125 28.6182 18.504 28.9712 18.7656 29.1412C18.8702 29.2066 19.001 29.2328 19.1187 29.2197C19.2886 29.2066 19.4586 29.1151 19.5501 28.9581C19.8509 28.4743 19.9163 28.0036 19.8901 27.6113L20.1386 27.389L21.1717 25.6237C21.2763 25.4537 21.2763 25.2314 21.1717 25.0484C21.0671 24.8784 20.884 24.7607 20.6748 24.7607" fill="white"/>
<path d="M20.6833 24.7863V24.2109C19.2972 24.2109 17.7411 24.5901 17.6365 24.6163L17.7804 25.1656L17.6495 24.6033C17.1265 24.721 16.7734 25.1917 16.7734 25.7147C16.7734 25.7801 16.7734 25.8978 16.8257 26.0285L17.3619 25.8455L16.7996 25.9763C16.9304 26.4993 17.388 26.8524 17.9111 26.8524L18.1726 26.8262C18.1726 26.8262 18.918 26.6562 19.7156 26.5516L19.6503 25.9894L19.1534 25.7016L18.8918 26.1463L19.3887 26.4339L19.6372 25.9239C19.4803 25.8455 19.3103 25.8063 19.1403 25.8063C18.9703 25.8063 18.7742 25.8455 18.6042 25.937L18.8787 26.4339L18.6173 25.9239C18.225 26.1331 18.0026 26.5254 18.0026 26.9308C18.0026 27.1008 18.0418 27.2838 18.1334 27.4669L18.6303 27.1923L18.0811 27.3623L18.1073 27.4277C18.1073 27.4277 18.1726 27.5846 18.1726 27.7415C18.1726 27.8461 18.1465 27.9507 18.0811 28.0684L18.578 28.3561L18.0942 28.0553C17.9765 28.2384 17.9111 28.4477 17.9242 28.6569C17.9242 29.0361 18.1203 29.4153 18.4734 29.6376C18.6564 29.7553 18.8657 29.8076 19.0749 29.8076H19.1795C19.5195 29.7814 19.8464 29.5852 20.0426 29.2714C20.3564 28.7484 20.4741 28.2123 20.4741 27.7677V27.65L19.8987 27.6369L20.2779 28.0553L20.5264 27.8331L20.631 27.7023L21.664 25.937C21.7686 25.7539 21.8079 25.5578 21.8079 25.3616C21.8079 25.1655 21.7556 24.9825 21.6771 24.8256V24.7994C21.4548 24.4594 21.0887 24.2371 20.6833 24.224V24.7994V25.3747L21.1802 25.0871L20.6702 25.3486V25.3747L19.6765 27.0746L19.4934 27.2446C19.3757 27.3492 19.3103 27.4931 19.3103 27.65V27.8069C19.3103 28.0815 19.2449 28.3822 19.0487 28.7091C19.2318 28.3822 19.2972 28.0554 19.2972 27.7808C19.2972 27.5585 19.258 27.3754 19.2187 27.2315L19.1665 27.0615V27.0093H19.1403L18.6695 27.2054L19.1534 27.0485V27.0093L18.6695 27.2054L19.1534 27.0485L19.1141 26.9439L19.0618 26.9701H19.1141V26.9439L19.0618 26.9701H19.1141C19.3756 27.1008 19.7026 26.9962 19.8465 26.7477L20.1079 26.3032C20.2125 26.1201 20.2125 25.8847 20.0948 25.7016C19.9771 25.5186 19.7679 25.427 19.5456 25.4532C18.6695 25.5578 17.898 25.7409 17.8719 25.7409L18.0026 26.2901L17.885 25.7278L17.8719 25.6625L17.6234 25.7539L17.885 25.7278V25.6755L17.6234 25.767L17.885 25.7409H17.898C17.9111 25.7409 19.4933 25.3747 20.6702 25.3747V24.7994" fill="white"/>
<path d="M18.0799 31.2196C17.7138 31.2588 17.4522 31.5857 17.4784 31.9518C17.5176 32.318 17.8445 32.5794 18.2106 32.5533C18.5768 32.5141 18.8383 32.1872 18.8122 31.821C18.773 31.4549 18.4461 31.1934 18.0799 31.2196Z" fill="white"/>
<path d="M18.0701 31.2205L18.0177 30.6582C17.377 30.7236 16.9062 31.2597 16.9062 31.8874C16.9062 31.8874 16.9063 31.9528 16.9193 32.0835L17.4816 31.9528L16.9193 32.0051C16.9847 32.6458 17.5209 33.1165 18.1485 33.1165H18.2531H18.2662C18.9069 33.0512 19.3777 32.515 19.3777 31.8874V31.822V31.7697C19.3123 31.129 18.7762 30.6582 18.1485 30.6582H18.0177L18.0832 31.2336L18.1485 31.7959L18.1224 31.6389V31.7959H18.1485L18.1224 31.6389V31.7959H18.1354L18.227 31.8744L18.7893 31.822H18.2139V31.8874L18.1354 31.9789L18.1877 32.5412L18.1485 31.9789H18.1224L18.0308 31.8874V31.822L17.6385 31.9135H18.0308V31.822L17.6385 31.9135H18.0308V31.8874L18.1224 31.7959H18.1354L18.0701 31.2336" fill="white"/>
<path d="M18.0799 33.7303C17.7138 33.7695 17.4522 34.0964 17.4784 34.4626C17.5176 34.8287 17.8445 35.1033 18.2106 35.0641C18.5768 35.0249 18.8383 34.6979 18.8122 34.3318C18.773 33.9656 18.4461 33.7042 18.0799 33.7303Z" fill="white"/>
<path d="M18.0753 33.7306L18.023 33.1684C17.3822 33.2337 16.8984 33.7699 16.8984 34.3975C16.8984 34.3975 16.8985 34.476 16.9246 34.6198L17.4738 34.4629L16.9115 34.5152C16.9769 35.1559 17.5 35.6267 18.1407 35.6267H18.2584C18.8991 35.5613 19.3699 35.0252 19.3699 34.3975V34.2929V34.2667C19.3045 33.626 18.7684 33.1553 18.1407 33.1553H18.0099L18.0753 33.7306L18.1407 34.2929L18.1276 34.1491V34.2929H18.1407L18.2323 34.3713L18.7945 34.3191L18.2192 34.3583V34.3844L18.1407 34.476H18.1276L18.0361 34.3844V34.2929L17.6176 34.4106H18.0361L18.023 34.2929L17.6176 34.4106H18.0361L18.1276 34.306H18.1407L18.0753 33.7437" fill="white"/>
<path d="M18.0252 36.1756C17.6591 36.2149 17.3975 36.5418 17.4237 36.9079C17.4629 37.274 17.7898 37.5356 18.156 37.5094C18.5221 37.4702 18.7837 37.1433 18.7575 36.7772C18.7183 36.411 18.3914 36.1495 18.0252 36.1756Z" fill="white"/>
<path d="M18.0232 36.1759L17.9708 35.6137C17.3301 35.6791 16.8594 36.2152 16.8594 36.8428C16.8594 36.8428 16.8594 36.9082 16.8725 37.0389L17.4347 36.9082L16.8725 36.9605C16.9378 37.6012 17.474 38.072 18.1017 38.072H18.2062H18.2193C18.86 38.0066 19.3308 37.4705 19.3308 36.8428V36.7382V36.712C19.2655 36.0713 18.7293 35.6006 18.1017 35.6006H17.9708L18.0363 36.1759L18.1017 36.7382L18.1932 36.8297L18.7555 36.7644L18.1801 36.8036V36.8297L18.1017 36.9213L18.1539 37.4836L18.1147 36.9213H18.0886L17.997 36.8297V36.7644L17.5917 36.8559H17.997V36.7644L17.6047 36.8559H18.0101V36.8297L18.1017 36.7382L18.0363 36.1759" fill="white"/>
<path d="M12.774 10.4546C12.774 10.4546 12.9179 11.2392 13.101 12.3899C13.284 13.5406 13.4932 15.0705 13.624 16.5612C13.6501 16.875 13.9248 17.1104 14.2386 17.0842C14.5524 17.0581 14.7878 16.7834 14.7616 16.4565C14.487 13.4098 13.8986 10.2584 13.8986 10.2454C13.8463 9.93152 13.5455 9.73541 13.2317 9.78772C12.9179 9.84002 12.7217 10.1408 12.774 10.4546Z" fill="#1D2088"/>
<path d="M13.8274 13.7231C13.8274 13.7231 14.1543 13.7754 14.6643 13.8669C15.1612 13.9584 15.8412 14.1023 16.5081 14.2722C16.8089 14.3507 17.1227 14.1676 17.2011 13.8669C17.2796 13.5661 17.0965 13.2523 16.7958 13.1738C15.3835 12.8077 14.0105 12.5985 13.9974 12.5985C13.6836 12.5462 13.3959 12.7684 13.3436 13.0823C13.2913 13.3961 13.5136 13.6838 13.8274 13.7231Z" fill="#1D2088"/>
<path d="M15.3437 10.5977L15.8145 11.4999C15.9583 11.7745 16.3113 11.8791 16.5859 11.7353C16.8605 11.5915 16.9783 11.2384 16.8214 10.9638L16.3506 10.0615C16.2067 9.78691 15.8537 9.66923 15.5791 9.82614C15.3045 9.96998 15.1868 10.3231 15.3437 10.5977Z" fill="#1D2088"/>
<path d="M17.1657 10.1404L17.3749 11.095C17.4403 11.4088 17.7411 11.5919 18.0549 11.5265C18.3688 11.4611 18.5519 11.1604 18.4865 10.8465L18.2772 9.89199C18.2118 9.57816 17.9111 9.39507 17.5973 9.46045C17.2834 9.52583 17.0873 9.82653 17.1657 10.1404Z" fill="#1D2088"/>
<path d="M16.1254 20.0531C16.1254 20.0531 17.0146 19.8569 18.0476 19.6477C19.0807 19.4385 20.2837 19.2293 20.7937 19.2032L20.7675 18.6278L20.2706 18.3401L19.1199 20.3408C18.963 20.6154 19.0545 20.9684 19.3291 21.1253C19.6037 21.2822 19.9568 21.1907 20.1137 20.9161L21.2645 18.9155C21.3691 18.7324 21.3691 18.5101 21.2645 18.3401C21.1598 18.157 20.9637 18.0525 20.7544 18.0656C20.0745 18.0917 18.8976 18.314 17.8384 18.5232C16.7923 18.7324 15.89 18.9416 15.89 18.9416C15.5762 19.007 15.3931 19.3208 15.4585 19.6215C15.5239 19.9354 15.8377 20.1185 16.1384 20.0531" fill="#1D2088"/>
<path d="M16.5494 17.6989C16.5494 17.6989 16.8109 18.4835 17.1378 19.5296C17.4778 20.5626 17.8832 21.8571 18.1709 22.8509C18.2624 23.1516 18.5762 23.3216 18.877 23.2432C19.1778 23.1516 19.3477 22.8378 19.2693 22.5371C18.6808 20.5233 17.6347 17.3589 17.6347 17.3589C17.5301 17.0581 17.2163 16.9013 16.9155 16.9928C16.6148 17.0843 16.4579 17.4112 16.5494 17.712" fill="#1D2088"/>
<path d="M18.0489 26.2772C18.0489 26.2772 18.1404 26.2511 18.2974 26.225C18.7681 26.1203 19.8534 25.9241 20.6903 25.9241V25.3488L20.1934 25.0612L19.1604 26.8264C19.0035 27.101 19.095 27.4541 19.3696 27.611C19.6442 27.7679 19.9973 27.6764 20.1542 27.4018L21.1872 25.6365C21.2918 25.4665 21.2918 25.2442 21.1872 25.0612C21.0826 24.8781 20.8995 24.7734 20.6903 24.7734C19.3565 24.7734 17.8004 25.1527 17.7874 25.1527C17.4866 25.2181 17.2904 25.5319 17.3689 25.8326C17.4343 26.1334 17.7481 26.3295 18.0489 26.2511" fill="#1D2088"/>
<path d="M18.6433 27.2187L18.7349 27.1663L18.6433 27.2056C18.6433 27.2056 18.7611 27.4801 18.7611 27.7547C18.7611 27.9378 18.7218 28.147 18.578 28.3693C18.408 28.6439 18.4995 28.9839 18.7741 29.1539C19.0487 29.3108 19.3887 29.2323 19.5587 28.9577C19.8202 28.5393 19.8987 28.1078 19.8987 27.7417C19.8987 27.114 19.6764 26.7086 19.6502 26.6563C19.5064 26.3817 19.1534 26.2771 18.8788 26.421C18.6042 26.5648 18.4995 26.9179 18.6433 27.1925" fill="#1D2088"/>
<path d="M18.7907 31.8073C18.8299 32.1735 18.5553 32.5004 18.1891 32.5396C17.823 32.5788 17.4961 32.3043 17.4569 31.9381C17.4176 31.572 17.6923 31.2451 18.0584 31.2059C18.4245 31.1667 18.7515 31.4412 18.7907 31.8073Z" fill="#1D2088"/>
<path d="M18.7907 34.3191C18.8299 34.6853 18.5553 35.0122 18.1891 35.0514C17.823 35.0906 17.4961 34.816 17.4569 34.4499C17.4176 34.0837 17.6923 33.7568 18.0584 33.7176C18.4245 33.6784 18.7515 33.953 18.7907 34.3191Z" fill="#1D2088"/>
<path d="M18.736 36.7644C18.7752 37.1306 18.5006 37.4575 18.1344 37.4967C17.7683 37.5359 17.4414 37.2613 17.4022 36.8952C17.3629 36.529 17.6376 36.2021 18.0037 36.1629C18.3699 36.1237 18.6968 36.3983 18.736 36.7644Z" fill="#1D2088"/>
</svg>
