<svg width="135" height="195" viewBox="0 0 135 195" fill="none" xmlns="http://www.w3.org/2000/svg">
<path d="M49.4982 55.5537C31.1134 73.453 20.1181 102.38 18.5173 116.98C18.1454 120.344 17.7412 127.684 21.5733 129.269C21.6865 130.918 23.6916 132.859 25.4541 132.551C27.1195 134.928 33.8299 135.009 36.3685 129.026C39.3437 124.402 39.4893 116.689 40.2169 114.361C43.3053 103.22 47.3315 90.0749 51.7134 81.9095H94.0452C98.4272 90.0749 102.437 103.22 105.526 114.361C106.253 116.689 106.383 124.418 109.374 129.026C111.913 135.009 118.639 134.912 120.305 132.551C122.067 132.859 124.072 130.918 124.185 129.269C128.017 127.684 127.613 120.344 127.241 116.98C125.641 102.363 114.645 73.4368 96.2604 55.5537H49.4982Z" fill="#B0D7F2"/>
<path d="M127.219 116.981L128.011 116.9C127.186 109.462 124.017 98.5317 118.746 87.1648C113.458 75.7978 106.101 64.0267 96.8201 54.9881C96.6746 54.8426 96.4481 54.7617 96.254 54.7617H49.508C49.2978 54.7617 49.0876 54.8426 48.9259 54.9881C39.6446 64.0267 32.255 75.814 26.9837 87.1648C21.7124 98.5317 18.5594 109.462 17.7348 116.9C17.6216 117.935 17.4922 119.341 17.4922 120.861C17.4922 122.608 17.654 124.499 18.1876 126.165C18.4463 127.006 18.8019 127.782 19.3032 128.445C19.8044 129.124 20.4673 129.674 21.2758 129.997L21.5993 129.269L20.807 129.334C20.904 130.369 21.4538 131.323 22.2138 132.083C22.9737 132.827 23.9599 133.376 25.0918 133.392C25.2697 133.392 25.4477 133.392 25.6255 133.344L25.4801 132.568L24.8494 133.021C25.7064 134.217 27.1939 134.864 28.9725 134.864C29.7163 134.864 30.5088 134.751 31.3334 134.524L31.1232 133.748L30.3309 133.861C31.6407 143.11 35.489 150.677 42.4581 155.868C49.4272 161.058 59.4199 163.855 72.9377 163.855C86.4554 163.855 96.4158 161.058 103.385 155.868C110.354 150.677 114.218 143.11 115.512 133.878L114.736 133.764L114.51 134.54C115.318 134.767 116.11 134.864 116.838 134.864C118.617 134.864 120.153 134.217 120.977 133.021L120.331 132.568L120.201 133.344C120.379 133.376 120.525 133.392 120.702 133.392C121.818 133.392 122.821 132.827 123.581 132.083C124.341 131.339 124.907 130.385 124.987 129.334L124.195 129.269L124.519 129.997C125.327 129.657 125.99 129.108 126.491 128.445C127.251 127.442 127.672 126.197 127.947 124.871C128.205 123.562 128.302 122.155 128.302 120.845C128.302 119.325 128.189 117.919 128.076 116.884L127.284 116.965L126.491 117.045C126.604 118.048 126.718 119.406 126.718 120.829C126.718 122.478 126.556 124.241 126.119 125.664C125.893 126.375 125.602 126.989 125.246 127.458C124.874 127.943 124.454 128.283 123.92 128.509C123.645 128.623 123.467 128.881 123.451 129.188C123.419 129.69 123.047 130.385 122.497 130.919C121.964 131.452 121.268 131.792 120.735 131.776H120.492C120.185 131.695 119.878 131.824 119.7 132.083C119.247 132.746 118.277 133.247 116.87 133.247C116.304 133.247 115.674 133.166 114.995 132.972C114.768 132.907 114.542 132.94 114.348 133.085C114.154 133.215 114.025 133.409 113.992 133.635C112.715 142.593 109.06 149.659 102.479 154.574C95.8823 159.49 86.2776 162.238 72.97 162.238C59.6625 162.238 50.0416 159.473 43.4444 154.558C36.8634 149.642 33.2091 142.56 31.9479 133.619C31.9155 133.392 31.7698 133.182 31.5758 133.053C31.3818 132.924 31.1394 132.891 30.9292 132.956C30.2339 133.15 29.6032 133.231 29.0373 133.231C27.6305 133.231 26.6603 132.73 26.2076 132.067C26.0297 131.824 25.7225 131.695 25.4315 131.743H25.1889C24.6391 131.776 23.9601 131.436 23.4103 130.902C22.8605 130.385 22.4885 129.674 22.4562 129.172C22.44 128.881 22.2623 128.606 21.9874 128.493C21.4699 128.283 21.0333 127.927 20.6614 127.442C20.1116 126.731 19.7236 125.696 19.4972 124.516C19.2708 123.351 19.1901 122.042 19.1901 120.797C19.1901 119.358 19.3033 117.999 19.4165 117.013C20.2088 109.834 23.3132 99.0006 28.5359 87.7792C33.7425 76.5578 41.0513 64.916 50.1386 56.0714L49.5887 55.4894V56.2816H96.3673V55.4894L95.8176 56.0714C104.905 64.916 112.214 76.5578 117.42 87.7792C122.627 99.0006 125.747 109.834 126.54 117.013L127.348 116.932" fill="#1D2088"/>
<path d="M121.064 132.729C121.387 131.225 121.549 129.786 121.549 128.396C121.549 128.121 121.549 127.862 121.549 127.603C121.533 127.167 121.161 126.827 120.708 126.843C120.272 126.859 119.932 127.231 119.948 127.668C119.948 127.911 119.964 128.153 119.964 128.396C119.964 129.673 119.819 130.983 119.512 132.373C119.415 132.81 119.69 133.23 120.126 133.327C120.563 133.424 120.983 133.149 121.08 132.713" fill="#1D2088"/>
<path d="M124.973 129.415C125.216 128.105 125.345 126.844 125.345 125.615C125.345 125.162 125.345 124.726 125.297 124.289C125.264 123.853 124.876 123.529 124.44 123.546C124.003 123.578 123.664 123.95 123.696 124.403C123.728 124.807 123.744 125.211 123.744 125.615C123.744 126.731 123.631 127.895 123.405 129.124C123.324 129.56 123.599 129.965 124.035 130.062C124.472 130.143 124.892 129.852 124.973 129.431" fill="#1D2088"/>
<path d="M26.2573 132.389C25.95 130.999 25.8045 129.689 25.8045 128.412C25.8045 128.169 25.8045 127.927 25.8045 127.684C25.8206 127.248 25.4811 126.876 25.0445 126.843C24.608 126.827 24.236 127.167 24.2037 127.603C24.2037 127.862 24.1875 128.137 24.1875 128.396C24.1875 129.786 24.3493 131.225 24.6727 132.713C24.7697 133.149 25.19 133.408 25.6266 133.327C26.0632 133.23 26.3219 132.81 26.2411 132.373" fill="#1D2088"/>
<path d="M22.3621 129.124C22.1358 127.911 22.0226 126.747 22.0226 125.631C22.0226 125.211 22.0225 124.806 22.071 124.402C22.1033 123.966 21.78 123.578 21.3273 123.545C20.8907 123.513 20.5026 123.836 20.4702 124.273C20.4379 124.709 20.4219 125.162 20.4219 125.615C20.4219 126.828 20.5512 128.089 20.7937 129.398C20.8746 129.835 21.2949 130.126 21.7153 130.029C22.1519 129.948 22.4268 129.528 22.346 129.091" fill="#1D2088"/>
<path d="M112.039 109.866C114.19 107.974 121.159 105.905 124.894 105.662C125.622 108.233 126.204 110.723 126.608 113.051C121.967 113.52 116.534 115.687 113.882 117.466L112.039 109.866Z" fill="#1D2088"/>
<path d="M107.359 94.279C109.769 93.0179 115.283 90.8512 119.163 90.1074C120.489 93.0987 121.669 96.0738 122.72 98.9681C119.276 99.6634 112.259 101.862 110.69 102.881C109.462 99.809 107.359 94.2629 107.359 94.2629" fill="#1D2088"/>
<path d="M100.758 80.9877C102.844 79.1929 108.39 76.8322 112.077 76.2178C113.532 78.6917 114.906 81.2302 116.2 83.8011C112.74 84.6904 106.353 87.1481 104.849 88.5387C103.151 85.0946 100.758 80.9877 100.758 80.9877Z" fill="#1D2088"/>
<path d="M33.725 109.866C31.5745 107.974 24.5891 105.905 20.8701 105.662C20.1425 108.233 19.5605 110.723 19.1562 113.051C23.7969 113.52 29.2299 115.687 31.8817 117.466L33.725 109.866Z" fill="#1D2088"/>
<path d="M38.3761 94.279C35.9669 93.0179 30.453 90.8512 26.5723 90.1074C25.2464 93.0987 24.0661 96.0738 23.0312 98.9681C26.4754 99.6634 33.4929 101.862 35.0613 102.881C36.2902 99.809 38.3761 94.2629 38.3761 94.2629" fill="#1D2088"/>
<path d="M45.0201 80.9877C42.9343 79.1929 37.3881 76.8322 33.7014 76.2178C32.2462 78.6917 30.8717 81.2302 29.5781 83.8011C33.0384 84.6904 39.4254 87.1481 40.9292 88.5387C42.627 85.0946 45.0201 80.9877 45.0201 80.9877Z" fill="#1D2088"/>
<path d="M35.1826 142.868C32.5308 144.646 28.7308 146.958 24.7369 146.958C20.7431 146.958 18.6896 143.547 12.0924 144.129C7.77516 144.517 3.18299 146.619 1.56603 150.047C-1.50618 156.579 5.1557 163.047 13.7256 158.584C17.1212 156.822 19.7083 157.727 22.5865 159.441C26.9522 162.028 34.5195 160.848 43.1541 153.653L35.1664 142.852" fill="#B0D7F2"/>
<path d="M16.8125 144.614C15.2764 144.097 14.5489 143.935 12.0911 144.145C11.2826 144.21 10.4902 144.388 9.73021 144.614C8.00006 148.479 8.80868 154.752 12.3013 159.279C12.7702 159.085 13.2553 158.875 13.7242 158.617C15.7293 157.582 17.4432 157.469 19.1248 157.905C15.8262 153.184 15.05 148.123 16.8125 144.63" fill="#1D2088"/>
<path d="M30.4329 145.6C28.6542 146.392 26.7138 146.974 24.725 146.974C24.4339 146.974 24.159 146.958 23.8841 146.925C23.5769 150.677 24.6765 157.549 28.9938 160.637C31.0149 160.265 33.5374 159.78 35.8982 158.486C32.163 155.802 30.6431 150.256 30.4329 145.616" fill="#1D2088"/>
<path d="M72.879 160.524V177.647C72.879 180.832 70.4374 185.182 64.7619 188.448C54.3487 194.415 44.1943 193.525 40.0388 192.571C29.8681 190.227 31.6144 181.738 35.7862 176.725C38.7452 173.168 41.979 170.225 43.3858 165.278C44.6632 160.766 42.6097 154.897 41.3808 151.712L41.9952 148.09L71.6825 155.01L72.879 160.54" fill="#B0D7F2"/>
<path d="M72.8546 160.524H72.0623V177.647C72.0784 180.428 69.847 184.6 64.3494 187.753C57.8977 191.456 51.543 192.458 46.7245 192.458C43.9433 192.458 41.6636 192.119 40.2083 191.779C37.5404 191.165 35.8264 190.146 34.7754 188.933C33.7244 187.737 33.2877 186.33 33.2715 184.81C33.2715 182.255 34.5813 179.377 36.3923 177.211C37.8476 175.464 39.3998 173.831 40.7904 171.988C42.181 170.145 43.3936 168.075 44.1212 165.488C44.4285 164.405 44.5578 163.257 44.5578 162.092C44.5578 158.066 43.054 153.927 42.1 151.421L41.3563 151.712L42.1486 151.841L42.6176 149.044L70.995 155.657L72.0946 160.686L72.8708 160.508L73.6469 160.346L72.4503 154.816C72.3856 154.509 72.1593 154.283 71.8521 154.202L42.1648 147.281C41.9546 147.233 41.7282 147.281 41.5503 147.395C41.3725 147.508 41.2432 147.702 41.2108 147.928L40.5964 151.55L40.6447 151.971C41.5987 154.412 43.0056 158.438 43.0056 162.06C43.0056 163.095 42.8925 164.097 42.6338 165.019C41.9708 167.38 40.8712 169.255 39.5453 171.002C38.2356 172.748 36.6994 174.365 35.1956 176.176C33.1906 178.585 31.7193 181.706 31.7031 184.794C31.7031 186.637 32.2689 188.464 33.5948 189.968C34.9369 191.488 36.9905 192.652 39.8686 193.315C41.4532 193.671 43.8302 194.027 46.7407 194.027C51.7856 194.027 58.4152 192.976 65.174 189.111C71.0112 185.748 73.6792 181.221 73.6954 177.631V160.346L72.9031 160.508" fill="#1D2088"/>
<path d="M72.875 160.524V177.647C72.875 180.832 75.3166 185.182 80.9921 188.448C91.4053 194.415 101.56 193.525 105.715 192.571C115.886 190.227 114.14 181.738 109.952 176.725C106.993 173.168 103.775 170.225 102.368 165.278C101.091 160.766 103.144 154.897 104.373 151.712L103.759 148.09L74.0715 155.01L72.875 160.54" fill="#B0D7F2"/>
<path d="M72.862 160.524H72.0859V177.647C72.0859 181.237 74.7701 185.78 80.6073 189.127C87.35 193.008 93.9957 194.059 99.0245 194.059C101.935 194.059 104.312 193.703 105.897 193.347C108.791 192.684 110.844 191.52 112.17 190C113.512 188.496 114.062 186.669 114.046 184.826C114.046 181.754 112.575 178.617 110.57 176.208C109.066 174.413 107.513 172.796 106.204 171.034C104.894 169.288 103.794 167.412 103.115 165.051C102.857 164.13 102.743 163.127 102.743 162.092C102.743 158.47 104.166 154.444 105.12 152.003L105.153 151.582L104.538 147.96C104.506 147.75 104.377 147.556 104.199 147.427C104.021 147.314 103.778 147.265 103.568 147.314L73.8807 154.234C73.5735 154.299 73.3471 154.541 73.2825 154.848L72.1021 160.378V160.54H72.862L73.6382 160.718L74.7378 155.689L103.099 149.076L103.568 151.873L104.36 151.744L103.633 151.453C102.663 153.959 101.159 158.098 101.143 162.125C101.143 163.273 101.288 164.421 101.579 165.52C102.307 168.107 103.536 170.177 104.926 172.02C106.317 173.863 107.885 175.497 109.341 177.243C111.152 179.409 112.445 182.288 112.445 184.842C112.445 186.378 112.025 187.785 110.974 188.965C109.923 190.162 108.176 191.197 105.525 191.811C104.069 192.151 101.806 192.49 99.0245 192.49C94.2059 192.49 87.8513 191.488 81.3996 187.785C75.902 184.632 73.6544 180.46 73.6705 177.679V160.556H72.8944" fill="#1D2088"/>
<path d="M99.1321 76.251C102.495 82.0072 116.498 106.245 115.108 129.609C113.879 150.241 101.687 163.063 72.8728 163.063C44.0586 163.063 31.883 150.257 30.6379 129.609C29.2312 106.245 43.2502 82.0234 46.6134 76.251" fill="#B0D7F2"/>
<path d="M54.914 169.207C58.0185 168.852 58.6492 165.909 55.5284 165.391C52.7473 164.922 48.3491 163.58 43.757 160.815C43.9187 163.419 43.7571 164.583 42.8516 166.895C46.7808 168.868 51.7933 169.579 54.914 169.207Z" fill="#1D2088"/>
<path d="M51.5073 176.386C54.6281 175.448 54.3369 172.861 51.5881 172.893C48.3542 172.926 45.1527 172.182 41.1426 170.08C40.1077 171.81 38.9113 173.12 37.6016 174.624C42.4848 177.227 48.3866 177.324 51.5235 176.386" fill="#1D2088"/>
<path d="M90.8368 169.207C87.7322 168.852 87.1016 165.909 90.2223 165.391C93.0035 164.922 97.3855 163.58 101.994 160.815C101.832 163.419 101.994 164.583 102.899 166.895C98.97 168.868 93.9575 169.579 90.8368 169.207Z" fill="#1D2088"/>
<path d="M94.2403 176.386C91.1196 175.448 91.3946 172.861 94.1596 172.893C97.3773 172.926 100.595 172.182 104.605 170.08C105.656 171.81 106.836 173.12 108.162 174.624C103.279 177.227 97.3772 177.324 94.2403 176.386Z" fill="#1D2088"/>
<path d="M37.9457 183.161C36.9432 184.342 36.539 185.797 36.5552 187.187C36.5552 188.627 36.9594 190.017 37.6062 191.133C38.253 192.248 39.1098 193.138 40.2417 193.413C40.6621 193.51 41.0988 193.235 41.1958 192.814C41.2928 192.378 41.0179 191.957 40.5975 191.86C40.161 191.78 39.498 191.23 38.9968 190.357C38.4955 189.484 38.1559 188.319 38.1559 187.187C38.1559 186.088 38.4632 185.037 39.1746 184.196C39.4495 183.857 39.4171 183.355 39.0775 183.064C38.7379 182.789 38.2368 182.822 37.9619 183.161" fill="#1D2088"/>
<path d="M44.7283 184.988C43.8875 186.281 43.5156 187.64 43.5318 188.901C43.5318 190.259 43.9522 191.488 44.6152 192.41C45.2781 193.331 46.232 193.994 47.3316 193.994C47.7681 193.994 48.1241 193.638 48.1241 193.202C48.1241 192.765 47.7681 192.393 47.3316 192.393C46.9112 192.393 46.3614 192.102 45.9086 191.472C45.4559 190.841 45.1164 189.919 45.1325 188.885C45.1325 187.931 45.3914 186.896 46.0705 185.845C46.313 185.473 46.1998 184.988 45.8441 184.745C45.4722 184.503 44.9708 184.6 44.7445 184.972" fill="#1D2088"/>
<path d="M106.588 184.196C107.3 185.037 107.607 186.088 107.607 187.187C107.607 188.319 107.267 189.483 106.766 190.356C106.281 191.246 105.602 191.795 105.165 191.86C104.729 191.957 104.47 192.394 104.567 192.814C104.664 193.234 105.085 193.509 105.521 193.412C106.653 193.137 107.51 192.248 108.157 191.132C108.787 190.017 109.192 188.626 109.208 187.171C109.208 185.78 108.82 184.325 107.817 183.145C107.526 182.805 107.025 182.773 106.686 183.048C106.346 183.339 106.314 183.84 106.605 184.18" fill="#1D2088"/>
<path d="M99.702 185.861C100.381 186.912 100.64 187.947 100.64 188.901C100.64 189.936 100.317 190.858 99.8639 191.472C99.3949 192.103 98.8452 192.41 98.4409 192.394C98.0043 192.394 97.6484 192.75 97.6484 193.202C97.6484 193.655 98.0043 193.995 98.4409 193.995C99.5405 193.995 100.494 193.332 101.157 192.41C101.82 191.488 102.241 190.259 102.241 188.901C102.241 187.656 101.885 186.298 101.044 184.988C100.802 184.616 100.3 184.519 99.9446 184.762C99.5727 185.004 99.4756 185.49 99.7182 185.861" fill="#1D2088"/>
<path d="M72.8656 142.948C83.9741 142.948 100.499 136.885 99.5939 112.922C98.6884 88.6843 86.3348 73.6631 72.8656 73.6631C59.3963 73.6631 47.0266 88.6843 46.1373 112.922C45.2318 136.885 61.7571 142.948 72.8656 142.948Z" fill="white"/>
<path d="M33.8104 143.74L33.39 143.061C30.916 144.613 27.8277 146.149 24.7231 146.149C23.1062 146.149 21.8126 145.519 20.1148 144.775C18.4494 144.031 16.4121 143.255 13.5501 143.255C13.065 143.255 12.5475 143.271 12.0139 143.32C9.75013 143.514 7.43797 144.161 5.43295 145.228C3.44409 146.279 1.74615 147.766 0.840651 149.707C0.274717 150.919 0 152.132 0 153.312C0 155.398 0.856876 157.29 2.31214 158.664C3.7674 160.039 5.82095 160.863 8.19788 160.863C10.025 160.863 12.0301 160.378 14.0998 159.295C15.2964 158.664 16.3312 158.422 17.3175 158.422C18.9021 158.422 20.4383 159.085 22.1846 160.12C23.6884 161.009 25.5316 161.478 27.5852 161.478C31.8054 161.478 36.9473 159.537 42.542 155.172C42.736 155.026 42.8493 154.8 42.8493 154.557C42.8493 154.315 42.7361 154.088 42.5582 153.927C39.0171 151.081 36.3815 147.556 34.5543 143.417C34.4573 143.207 34.2794 143.045 34.053 142.98C33.8428 142.916 33.584 142.948 33.39 143.061L33.8104 143.74L33.0828 144.064C34.9909 148.429 37.7882 152.164 41.5395 155.172L42.0408 154.541L41.5557 153.911C36.1712 158.131 31.3042 159.877 27.5852 159.861C25.7742 159.861 24.2381 159.457 22.9931 158.729C21.1659 157.646 19.3549 156.805 17.3013 156.805C16.0401 156.805 14.7305 157.128 13.3399 157.856C11.448 158.826 9.70162 159.246 8.16551 159.246C6.16048 159.246 4.52742 158.567 3.37938 157.484C2.23134 156.401 1.5684 154.929 1.5684 153.296C1.5684 152.375 1.77849 151.388 2.26358 150.37C2.97504 148.866 4.38186 147.572 6.17668 146.618C7.95533 145.68 10.0898 145.082 12.1434 144.904C12.6284 144.856 13.0973 144.84 13.5339 144.84C16.121 144.84 17.8349 145.503 19.468 146.214C21.085 146.926 22.6534 147.718 24.7069 147.734C28.3289 147.734 31.6437 146.004 34.2146 144.403L33.7942 143.724" fill="#1D2088"/>
<path d="M99.1727 77.8834C103.215 84.9008 114.437 105.678 114.421 126.278C114.421 127.361 114.388 128.461 114.324 129.544C113.709 139.73 110.427 147.831 103.83 153.458C97.2323 159.069 87.191 162.254 72.8972 162.254C58.6033 162.254 48.562 159.069 41.9648 153.458C35.3676 147.847 32.0852 139.73 31.4708 129.544C31.4061 128.461 31.3736 127.361 31.3736 126.262C31.3736 105.662 42.5792 84.8684 46.6216 77.8672C46.8318 77.4791 46.7024 76.994 46.3305 76.7677C45.9586 76.5575 45.4575 76.6868 45.2473 77.0587C41.1725 84.157 29.8052 105.08 29.7891 126.262C29.7891 127.393 29.8215 128.509 29.8862 129.641C30.5006 140.102 33.9285 148.721 40.9461 154.671C47.9475 160.621 58.4092 163.839 72.9133 163.839C87.4174 163.839 97.8792 160.621 104.881 154.671C111.882 148.721 115.326 140.102 115.941 129.641C116.005 128.525 116.038 127.393 116.038 126.278C116.038 105.112 104.654 84.1893 100.579 77.0749C100.353 76.703 99.8679 76.5575 99.496 76.7839C99.1079 77.0102 98.9787 77.4953 99.2051 77.8672" fill="#1D2088"/>
<path d="M48.5456 56.8634C51.6825 72.6931 67.9654 98.6446 87.7084 113.973L82.3724 116.867C63.5187 102.234 47.8342 77.9157 43.7109 61.9729C43.7109 61.9729 48.4971 56.6371 48.5456 56.8634Z" fill="#FFF100"/>
<path d="M101.204 111.273L101.058 110.255L100.023 110.4L100.169 111.435L101.204 111.273Z" fill="#1D2088"/>
<path d="M44.858 120.812C44.4537 119.114 38.1961 119.971 30.6934 118.937C30.6934 118.937 29.6586 127.7 30.273 129.382C37.8242 127.587 45.4401 123.254 44.858 120.796" fill="#1D2088"/>
<path d="M47.4663 133.554C46.0111 132.261 40.4487 137.726 32.4609 141.299C32.4609 141.299 35.0157 148.43 38.0879 151.389C44.3617 145.633 49.6331 135.462 47.4663 133.538" fill="#1D2088"/>
<path d="M45.425 106.584C44.7297 108.476 39.0218 108.46 33.0391 107.021L35.788 98.1436C41.0754 102.542 45.9909 105.048 45.425 106.568" fill="#1D2088"/>
<path d="M100.149 120.812C100.553 119.114 106.81 119.971 114.313 118.937C114.313 118.937 115.348 127.7 114.734 129.382C107.182 127.587 99.5665 123.254 100.149 120.796" fill="#1D2088"/>
<path d="M97.0824 133.554C98.5377 132.261 104.1 137.726 112.088 141.299C112.088 141.299 109.517 148.43 106.445 151.389C100.171 145.633 94.9157 135.462 97.0824 133.538" fill="#1D2088"/>
<path d="M99.9196 106.584C100.615 108.476 106.323 108.46 112.305 107.021L109.557 98.1436C104.269 102.542 99.3536 105.048 99.9196 106.568" fill="#1D2088"/>
<path d="M110.096 99.6472C111.05 102.477 111.551 103.948 111.567 104.045C111.486 106.179 111.228 108.847 109.126 112.971C107.395 112.291 104.469 109.494 104.469 109.494C106.086 107.069 107.412 101.28 107.638 93.2441C107.638 93.2441 109.19 96.9631 110.08 99.631" fill="#FFF100"/>
<path d="M84.1912 112.922C80.4398 113.634 77.7556 113.973 78.6611 119.6C79.7606 126.456 86.2932 136.449 98.9216 133.942C111.615 131.42 111.065 118.097 110.531 114.248C110.014 110.578 108.736 109.317 104.322 109.818C99.9079 110.319 88.654 112.082 84.2074 112.922" fill="#FFF100"/>
<path d="M48.5488 56.8643L47.7727 57.026C49.3735 65.1106 54.273 75.6043 61.2421 86.0496C68.2111 96.4949 77.266 106.876 87.2265 114.604L87.7116 113.974L87.3236 113.279L81.9875 116.173L82.3756 116.868L82.8608 116.237C73.5309 108.977 64.9287 99.3084 58.1698 89.4613C51.4109 79.6143 46.4955 69.6055 44.4904 61.7797L43.7141 61.9737L44.3124 62.5073C44.3124 62.5073 45.4605 61.23 46.6247 59.9526C47.2068 59.322 47.8051 58.6752 48.2579 58.2063C48.4842 57.9799 48.6782 57.7697 48.8076 57.6565L48.9371 57.5272L48.6621 57.1391L48.8885 57.5595L48.9371 57.5272L48.6621 57.1391L48.8885 57.5595L48.5328 56.8966V57.6404C48.7915 57.6404 48.84 57.5757 48.8885 57.5433L48.5328 56.8804V57.6242V56.8319L48.0477 57.4463C48.2093 57.5757 48.4358 57.6242 48.5328 57.6242V56.8319L47.7889 57.0906C47.7889 57.0906 47.886 57.317 48.0477 57.4463L48.5328 56.8319L47.7889 57.0906L48.5488 56.8319L49.3089 56.5732C49.2766 56.4924 49.2119 56.3307 49.0502 56.2013C48.8885 56.0558 48.662 56.0234 48.5488 56.0234C48.3548 56.0234 48.2902 56.072 48.2093 56.0881L48.0153 56.2013C47.8536 56.3145 47.7403 56.4277 47.5463 56.6217C46.9157 57.2362 45.8325 58.4165 44.8785 59.4675C43.9245 60.5023 43.132 61.3916 43.132 61.3916C42.9542 61.5856 42.8895 61.8605 42.9542 62.1192C45.0401 70.2362 50.0364 80.3419 56.8762 90.3021C63.7159 100.262 72.3989 110.061 81.9066 117.434C82.1492 117.628 82.4888 117.66 82.7798 117.499L88.1159 114.604C88.3584 114.475 88.5039 114.233 88.5201 113.974C88.5363 113.699 88.423 113.44 88.2128 113.279C78.4302 105.679 69.4723 95.4116 62.5841 85.0956C55.6958 74.7797 50.8772 64.3991 49.3573 56.6379L49.3251 56.5409L48.565 56.7996" fill="#1D2088"/>
<path d="M110.101 99.6479L109.341 99.9066C109.81 101.329 110.181 102.397 110.424 103.124C110.553 103.496 110.634 103.771 110.699 103.965L110.764 104.175V104.208L111.362 104.062L110.747 104.094V104.208L111.362 104.062L110.747 104.094L111.54 104.062L110.747 104.03C110.667 106.116 110.44 108.589 108.403 112.632L109.114 113.004L109.405 112.26C108.726 112.001 107.562 111.16 106.656 110.4C106.187 110.012 105.783 109.657 105.492 109.398C105.347 109.269 105.233 109.155 105.136 109.074L105.023 108.961L104.474 109.543L105.136 109.98C106.042 108.606 106.769 106.487 107.352 103.674C107.918 100.861 108.322 97.368 108.435 93.3095L107.643 93.2772L106.899 93.5844C106.899 93.5844 107.287 94.5061 107.788 95.7673C108.289 97.0285 108.904 98.613 109.341 99.9227L110.844 99.4215C109.939 96.7213 108.386 93.0023 108.37 92.9862C108.225 92.6304 107.853 92.4364 107.481 92.5172C107.109 92.5819 106.834 92.9053 106.834 93.2772C106.721 97.2548 106.333 100.667 105.783 103.367C105.233 106.067 104.506 108.04 103.794 109.107C103.584 109.43 103.633 109.851 103.908 110.125C103.908 110.125 104.651 110.837 105.622 111.645C106.608 112.454 107.772 113.343 108.823 113.764C109.211 113.909 109.632 113.764 109.826 113.376C111.992 109.172 112.283 106.293 112.348 104.111V104.046L112.316 103.852C112.283 103.722 112.235 103.593 112.17 103.367C111.96 102.72 111.507 101.41 110.828 99.4053L110.068 99.664" fill="#1D2088"/>
<path d="M84.1799 112.923L84.0344 112.13C82.4175 112.438 80.9136 112.664 79.6847 113.408C79.0703 113.78 78.5368 114.329 78.1972 115.041C77.8415 115.752 77.6797 116.609 77.6797 117.628C77.6797 118.242 77.7444 118.938 77.8737 119.714C78.3911 122.931 80.0082 126.731 82.8541 129.787C85.6837 132.843 89.7745 135.123 95.0458 135.107C96.3232 135.107 97.6492 134.977 99.056 134.703C104.343 133.668 107.545 130.741 109.324 127.41C111.102 124.079 111.539 120.377 111.539 117.563C111.539 116.14 111.426 114.928 111.312 114.119C111.07 112.486 110.698 111.176 109.825 110.239C109.388 109.77 108.822 109.414 108.175 109.204C107.529 108.994 106.801 108.896 105.976 108.896C105.443 108.896 104.861 108.929 104.23 109.01C99.7674 109.511 88.5296 111.273 84.0506 112.13L84.3415 113.699C88.7558 112.874 100.026 111.095 104.392 110.61C104.974 110.546 105.491 110.513 105.96 110.513C106.672 110.513 107.238 110.594 107.674 110.74C108.321 110.966 108.677 111.273 109.016 111.823C109.34 112.389 109.582 113.23 109.744 114.362C109.857 115.105 109.954 116.237 109.954 117.579C109.954 120.231 109.534 123.691 107.933 126.666C106.316 129.642 103.616 132.164 98.7648 133.15C97.4551 133.409 96.2262 133.538 95.062 133.538C90.2434 133.538 86.6215 131.501 84.0344 128.72C81.4473 125.939 79.9272 122.365 79.4583 119.471C79.3451 118.76 79.2966 118.161 79.2966 117.644C79.2966 116.787 79.4423 116.189 79.6525 115.752C79.9759 115.122 80.461 114.75 81.2533 114.426C82.0456 114.119 83.1288 113.925 84.3577 113.699L84.2123 112.923" fill="#1D2088"/>
<path d="M83.987 110.221C80.2195 110.917 77.131 111.79 78.2467 117.368C79.3786 122.946 85.9112 130.885 98.5881 128.379C111.346 125.857 111.006 115.412 110.457 111.547C109.939 107.877 108.646 106.616 104.199 107.117C99.7523 107.618 88.4498 109.381 83.987 110.221Z" fill="#FFF100"/>
<path d="M83.9859 110.222L83.8404 109.43C82.2073 109.737 80.6226 110.06 79.3452 110.901C78.6984 111.321 78.1487 111.887 77.7768 112.615C77.4049 113.342 77.2109 114.232 77.2109 115.25C77.2109 115.93 77.2916 116.673 77.4533 117.514C77.9869 120.134 79.5715 123.125 82.3042 125.518C85.0368 127.911 88.9176 129.641 93.914 129.641C95.4178 129.641 97.0185 129.479 98.7163 129.156C104.052 128.105 107.302 125.663 109.146 122.818C110.989 119.972 111.442 116.835 111.442 114.377C111.442 113.213 111.345 112.194 111.232 111.435C111.005 109.801 110.617 108.492 109.728 107.554C109.291 107.085 108.725 106.729 108.079 106.519C107.432 106.309 106.704 106.212 105.863 106.212C105.33 106.212 104.748 106.244 104.117 106.325C99.6218 106.826 88.3356 108.589 83.8404 109.43L83.9859 110.222L84.1314 110.998C88.5618 110.173 99.8968 108.395 104.295 107.91C104.877 107.845 105.411 107.813 105.863 107.813C106.591 107.813 107.141 107.893 107.577 108.039C108.224 108.265 108.596 108.573 108.919 109.122C109.243 109.672 109.485 110.513 109.647 111.661C109.744 112.372 109.841 113.31 109.841 114.377C109.841 116.641 109.421 119.487 107.804 121.944C106.187 124.402 103.406 126.601 98.4092 127.588C96.8084 127.911 95.3046 128.056 93.914 128.056C89.2734 128.056 85.813 126.472 83.3391 124.338C80.8813 122.187 79.4423 119.454 79.0057 117.223C78.8602 116.479 78.7955 115.833 78.7955 115.283C78.7955 114.442 78.941 113.844 79.1836 113.375C79.5393 112.68 80.1214 112.227 80.9622 111.855C81.803 111.499 82.9026 111.257 84.0992 111.03L83.9535 110.254" fill="#1D2088"/>
<path d="M98.8873 121.217C98.8711 122.204 98.0305 122.996 97.0441 122.964C96.0416 122.931 95.2653 122.107 95.2815 121.12C95.3138 120.134 96.1385 119.342 97.1249 119.374C98.1112 119.39 98.9034 120.231 98.8711 121.217" fill="white"/>
<path d="M98.8564 121.217H98.3552C98.339 121.912 97.7569 122.462 97.0616 122.462H97.0294C96.3341 122.446 95.7843 121.863 95.7843 121.168V121.136C95.8005 120.424 96.3825 119.875 97.0778 119.875H97.1101C97.8054 119.891 98.3714 120.473 98.3714 121.168V121.2H98.8726L99.3739 121.217V121.168C99.3739 119.923 98.3875 118.904 97.1263 118.872H97.0616C95.8165 118.872 94.798 119.858 94.7656 121.103V121.168C94.7656 122.413 95.752 123.432 96.997 123.464H97.0616C98.3066 123.464 99.3254 122.478 99.3577 121.217H98.8564Z" fill="#1D2088"/>
<path d="M85.7086 117.417L85.854 118.5C85.8864 118.71 85.7409 118.905 85.4984 118.937C85.2558 118.969 85.0617 118.84 85.0456 118.613L84.5442 115.153C84.5119 114.927 84.6576 114.749 84.9001 114.717C85.1265 114.684 85.3365 114.83 85.3689 115.04L85.4822 115.865L86.7432 115.687L86.6301 114.927C86.5008 113.989 85.7084 113.407 84.7382 113.552C83.7519 113.682 83.1698 114.458 83.2991 115.396L83.7843 118.84C83.9136 119.778 84.6899 120.36 85.6762 120.214C86.6625 120.069 87.2447 119.309 87.1153 118.371L86.9535 117.271L85.7086 117.449" fill="#1D2088"/>
<path d="M96.2737 118.307L97.5997 118.113L96.7103 111.92L95.53 112.082L95.9989 115.332L94.576 112.227L93.25 112.421L94.1394 118.598L95.3198 118.436L94.8508 115.186L96.2737 118.307Z" fill="#1D2088"/>
<path d="M93.3845 118.71L92.4951 112.518L91.25 112.695L92.1232 118.888L93.3845 118.71Z" fill="#1D2088"/>
<path d="M89.2487 112.987L89.6044 115.38L88.5695 115.526L88.2138 113.133L86.9688 113.31L87.8582 119.503L89.1032 119.325L88.7474 116.835L89.7822 116.674L90.1381 119.164L91.3992 118.986L90.51 112.793L89.2487 112.987Z" fill="#1D2088"/>
<path d="M100.152 111.435L97.0156 111.871L97.1935 113.1L98.1798 112.954L98.8912 117.918L100.152 117.74L99.4411 112.777L100.314 112.647L100.152 111.435Z" fill="#1D2088"/>
<path d="M89.2585 112.987L89.113 111.952L88.0781 112.098L88.2236 113.132L89.2585 112.987Z" fill="#1D2088"/>
<path d="M90.5505 111.904L90.6312 110.869L89.5964 110.788L89.5156 111.839L90.5505 111.904Z" fill="#1D2088"/>
<path d="M92.5178 111.774L91.6931 111.144L91.0625 111.984L91.8872 112.615L92.5178 111.774Z" fill="#1D2088"/>
<path d="M101.204 111.273L101.058 110.255L100.023 110.4L100.169 111.435L101.204 111.273Z" fill="#1D2088"/>
<path d="M102.785 110.06L102.85 109.026L101.815 108.961L101.75 109.996L102.785 110.06Z" fill="#1D2088"/>
<path d="M105.072 109.98L104.232 109.365L103.617 110.19L104.458 110.821L105.072 109.98Z" fill="#1D2088"/>
<path d="M103.807 110.901L104.632 116.706L102.74 111.047L101.188 111.273L100.945 117.628L102.223 117.45L102.271 116.237L103.112 116.124L103.5 117.272L105.958 116.916L105.069 110.724L103.824 110.901M102.207 112.89L102.789 114.879L102.207 114.96V112.89Z" fill="#1D2088"/>
<path d="M106.77 116.302L106.576 116.188H106.414L106.479 116.657H106.56L106.543 116.447H106.608L106.738 116.609H106.834L106.689 116.415L106.786 116.285M106.527 116.399V116.269H106.576L106.673 116.318L106.592 116.382H106.527V116.399Z" fill="#1D2088"/>
<path d="M106.563 116.027C106.336 116.059 106.191 116.269 106.223 116.479C106.256 116.706 106.45 116.851 106.676 116.819C106.886 116.787 107.048 116.593 107.016 116.366C106.983 116.156 106.773 115.994 106.563 116.027ZM106.66 116.754C106.466 116.787 106.304 116.657 106.272 116.463C106.239 116.285 106.369 116.107 106.563 116.075C106.741 116.043 106.918 116.188 106.951 116.366C106.983 116.544 106.854 116.722 106.66 116.754Z" fill="#1D2088"/>
<path d="M110.451 111.548C110.208 109.899 109.82 108.751 109.076 108.007C109.497 116.609 108.284 123.157 97.8544 125.211C87.4089 127.281 80.4561 121.702 78.9523 112.308C78.0953 113.326 77.7557 114.863 78.2569 117.353C79.3726 122.931 85.9214 130.87 98.5984 128.364C111.356 125.841 111.017 115.396 110.467 111.532" fill="white"/>
<path d="M110.456 111.548L111.248 111.434C111.006 109.737 110.601 108.394 109.631 107.44C109.405 107.214 109.049 107.149 108.742 107.279C108.435 107.408 108.257 107.715 108.273 108.039C108.305 108.928 108.338 109.785 108.338 110.61C108.338 114.199 107.853 117.223 106.333 119.519C104.813 121.815 102.242 123.529 97.6981 124.434C96.2914 124.709 94.9493 124.839 93.6719 124.839C89.7912 124.839 86.6544 123.594 84.2937 121.411C81.9329 119.228 80.3482 116.075 79.7176 112.162C79.6691 111.855 79.4427 111.612 79.1517 111.515C78.8606 111.434 78.5372 111.531 78.327 111.774C77.5994 112.631 77.1952 113.795 77.2114 115.25C77.2114 115.929 77.2921 116.673 77.4538 117.514C77.9874 120.133 79.572 123.125 82.3047 125.518C85.0373 127.911 88.9181 129.641 93.9145 129.641C95.4183 129.641 97.019 129.479 98.7168 129.156C104.037 128.105 107.303 125.663 109.13 122.817C110.973 119.972 111.426 116.835 111.426 114.377C111.426 113.213 111.329 112.194 111.216 111.434L110.424 111.548L109.631 111.661C109.728 112.372 109.825 113.31 109.825 114.377C109.825 116.641 109.405 119.487 107.788 121.944C106.171 124.418 103.39 126.601 98.3935 127.587C96.7927 127.911 95.2889 128.056 93.8983 128.056C89.2576 128.056 85.7973 126.472 83.3233 124.337C80.8656 122.187 79.4266 119.454 78.99 117.223C78.8445 116.479 78.7798 115.832 78.7798 115.283C78.7798 114.102 79.0708 113.375 79.5235 112.841L78.9091 112.324L78.1168 112.453C78.7797 116.625 80.5099 120.149 83.1779 122.607C85.8297 125.065 89.4193 126.455 93.6395 126.455C95.0139 126.455 96.4693 126.31 97.9731 126.019C102.759 125.081 105.848 123.141 107.626 120.424C109.405 117.708 109.89 114.345 109.89 110.642C109.89 109.785 109.858 108.896 109.825 107.99L109.033 108.023L108.483 108.589C109.033 109.106 109.405 110.076 109.631 111.661L110.424 111.548" fill="#1D2088"/>
<path d="M37.2962 18.7851C38.0561 17.4593 39.9803 15.3573 43.1981 12.6247C46.432 9.89208 48.8251 8.356 50.248 7.82242C50.0054 6.56123 49.4719 5.34857 48.6472 4.21673C45.381 -0.165121 39.2851 -1.68503 34.515 2.3411C29.745 6.36722 30.23 12.6409 33.9975 16.5861C34.9677 17.6048 36.0834 18.3163 37.2962 18.769" fill="#1D2088"/>
<path d="M39.7324 14.3062C40.0719 13.7241 40.9127 12.8025 42.3356 11.6059C43.7585 10.4094 44.8096 9.73031 45.4403 9.48777C45.3271 8.93802 45.1006 8.40447 44.7287 7.90322C43.2896 5.97909 40.6702 5.25146 38.5035 7.07858C36.3367 8.9057 36.6116 11.606 38.2771 13.3522C38.6975 13.805 39.1987 14.1122 39.7162 14.3224" fill="white"/>
<path d="M108.476 18.7851C107.716 17.4593 105.792 15.3573 102.558 12.6247C99.3238 9.89208 96.9307 8.356 95.5078 7.82242C95.7665 6.56123 96.284 5.34857 97.1248 4.21673C100.391 -0.165121 106.487 -1.68503 111.257 2.3411C116.027 6.36722 115.542 12.6409 111.774 16.5861C110.804 17.6048 109.672 18.3163 108.492 18.769" fill="#1D2088"/>
<path d="M106.028 14.3062C105.689 13.7241 104.848 12.8025 103.425 11.6059C102.002 10.4094 100.951 9.73031 100.32 9.48777C100.433 8.93802 100.66 8.40447 101.032 7.90322C102.471 5.97909 105.09 5.25146 107.257 7.07858C109.424 8.9057 109.149 11.606 107.484 13.3522C107.063 13.805 106.562 14.1122 106.044 14.3224" fill="white"/>
<path d="M72.8552 67.8259C96.6891 67.8259 115.624 56.6045 115.106 36.2313C114.605 17.0385 97.6754 1.93652 72.8552 1.93652C48.0349 1.93652 31.1054 17.0385 30.6041 36.2313C30.0867 56.6045 49.0051 67.8259 72.8552 67.8259Z" fill="#B0D7F2"/>
<path d="M58.5467 27.2257C58.5467 30.6697 55.6361 33.467 52.0465 33.467C48.4569 33.467 45.5625 30.6697 45.5625 27.2257C45.5625 23.7816 48.473 20.9844 52.0465 20.9844C55.62 20.9844 58.5467 23.7816 58.5467 27.2257Z" fill="white"/>
<path d="M58.5734 27.225H57.7811C57.7811 28.7287 57.1504 30.0707 56.1318 31.057C55.0969 32.0434 53.674 32.6578 52.0894 32.6578C50.5047 32.6578 49.0818 32.0434 48.047 31.057C47.0121 30.0707 46.3976 28.7125 46.3976 27.225C46.3976 25.7374 47.0283 24.3792 48.047 23.3929C49.0818 22.4066 50.5047 21.7921 52.0894 21.7921C53.674 21.7921 55.0969 22.4066 56.1318 23.3929C57.1666 24.3792 57.7811 25.7374 57.7811 27.225H59.3818C59.3818 25.2685 58.5571 23.5061 57.2312 22.2449C55.9053 20.9675 54.0944 20.1914 52.0894 20.1914C50.0843 20.1914 48.2733 20.9675 46.9474 22.2449C45.6215 23.5061 44.7969 25.2847 44.7969 27.225C44.7969 29.1653 45.6215 30.9439 46.9474 32.2051C48.2733 33.4825 50.0843 34.2586 52.0894 34.2586C54.0944 34.2586 55.9053 33.4825 57.2312 32.2051C58.5571 30.9439 59.3818 29.1653 59.3818 27.225H58.5896" fill="#1D2088"/>
<path d="M55.7495 27.2252C55.7495 29.1816 54.1002 30.7824 52.0466 30.7824C49.9931 30.7824 48.3438 29.1978 48.3438 27.2252C48.3438 25.2525 49.9931 23.668 52.0466 23.668C54.1002 23.668 55.7495 25.2525 55.7495 27.2252Z" fill="#1D2088"/>
<path d="M87.2031 27.2257C87.2031 30.6697 90.0975 33.467 93.6871 33.467C97.2768 33.467 100.171 30.6697 100.171 27.2257C100.171 23.7816 97.2606 20.9844 93.6871 20.9844C90.1137 20.9844 87.2031 23.7816 87.2031 27.2257Z" fill="white"/>
<path d="M87.1907 27.225H86.3984C86.3984 29.1814 87.2232 30.9439 88.5491 32.2051C89.875 33.4825 91.6859 34.2586 93.6909 34.2586C95.6959 34.2586 97.5232 33.4825 98.8329 32.2051C100.159 30.9439 100.983 29.1653 100.983 27.225C100.983 25.2847 100.159 23.5061 98.8329 22.2449C97.507 20.9675 95.6959 20.1914 93.6909 20.1914C91.6859 20.1914 89.875 20.9675 88.5491 22.2449C87.2232 23.5061 86.3984 25.2847 86.3984 27.225H87.9992C87.9992 25.7374 88.6299 24.3792 89.6485 23.3929C90.6834 22.4066 92.1063 21.7921 93.6747 21.7921C95.2432 21.7921 96.6823 22.4066 97.7171 23.3929C98.752 24.3792 99.3665 25.7374 99.3665 27.225C99.3665 28.7125 98.7358 30.0707 97.7171 31.057C96.6823 32.0434 95.2594 32.6578 93.6747 32.6578C92.0901 32.6578 90.6672 32.0434 89.6485 31.057C88.6137 30.0707 87.9992 28.7125 87.9992 27.225H87.2069" fill="#1D2088"/>
<path d="M89.9844 27.2252C89.9844 29.1816 91.6337 30.7824 93.6873 30.7824C95.7408 30.7824 97.3902 29.1978 97.3902 27.2252C97.3902 25.2525 95.7408 23.668 93.6873 23.668C91.6337 23.668 89.9844 25.2525 89.9844 27.2252Z" fill="#1D2088"/>
<path d="M72.8735 10.2803C67.7963 10.2803 64.1905 11.5738 64.7726 12.9482C65.3385 14.3387 68.1197 13.4332 72.8735 13.4332C77.6274 13.4332 80.4086 14.3387 80.9745 12.9482C81.5404 11.5576 77.9508 10.2803 72.8735 10.2803Z" fill="#1D2088"/>
<path d="M72.8803 4.87988C66.7197 4.87988 62.354 6.28658 63.0493 7.79032C63.7446 9.29405 67.124 8.32388 72.8803 8.32388C78.6367 8.32388 82.016 9.31022 82.7113 7.79032C83.4066 6.28658 79.0409 4.87988 72.8803 4.87988Z" fill="#1D2088"/>
<path d="M72.8593 1.85645C70.2883 1.85645 67.8144 2.01814 65.4375 2.30918C67.1353 9.64999 70.1913 16.9423 72.8593 16.9423C75.5272 16.9423 78.5671 9.64999 80.281 2.30918C77.9041 2.01814 75.4302 1.85645 72.8593 1.85645Z" fill="#1D2088"/>
<path d="M80.7826 49.8943C80.0065 55.2787 77.2091 57.704 72.8757 57.704C68.5422 57.704 65.7449 55.2787 64.9688 49.8943L72.8757 47.9863L80.7826 49.8943Z" fill="#EF90B9"/>
<path d="M80.7796 49.895L79.9873 49.7818C79.6154 52.3689 78.7746 54.1313 77.6104 55.247C76.4462 56.3627 74.8938 56.9124 72.8726 56.9124C70.8514 56.9124 69.3152 56.3627 68.1349 55.247C66.9706 54.1313 66.1299 52.3689 65.758 49.7818L64.9657 49.895L65.1597 50.6711L72.8726 48.8117L80.5855 50.6711L80.7796 49.895L80.9736 49.1189L73.0666 47.2109H72.6948L64.7878 49.1189C64.3836 49.2159 64.1249 49.6039 64.1896 50.0082C64.5938 52.8054 65.5478 54.956 67.0516 56.395C68.5554 57.8502 70.5766 58.5132 72.8888 58.5132C75.2011 58.5132 77.2222 57.8502 78.726 56.395C80.2298 54.956 81.1838 52.8054 81.588 50.0082C81.6527 49.6039 81.3778 49.2159 80.9898 49.1189L80.7957 49.895" fill="#1D2088"/>
<path d="M72.9419 42.9741C78.6821 42.9741 79.7816 38.1557 88.0604 38.0586C98.6191 37.9293 100.624 53.29 88.7396 54.6159C81.9807 55.3758 79.9433 51.1233 72.8772 51.1233C65.8111 51.1233 63.7576 55.3758 56.9987 54.6159C45.1303 53.2738 47.119 37.9131 57.6777 38.0586C65.9565 38.1557 67.1855 42.9741 72.9257 42.9741" fill="white"/>
<path d="M72.9464 42.9741V43.7663C74.4986 43.7663 75.7598 43.4429 76.8916 42.9417C78.5733 42.2141 79.883 41.1792 81.5161 40.3546C83.1492 39.53 85.0897 38.8833 88.081 38.8348H88.2103C90.7489 38.8348 92.6731 39.8049 94.0151 41.2278C95.341 42.6507 96.0525 44.5748 96.0525 46.4828C96.0525 48.1967 95.4866 49.8621 94.3063 51.188C93.1097 52.5139 91.2987 53.5163 88.6631 53.8074C88.1295 53.8721 87.6444 53.8883 87.1754 53.8883C84.5883 53.8883 82.7935 53.0636 80.7076 52.1743C78.6379 51.2689 76.2934 50.3148 72.8978 50.3148C69.5022 50.3148 67.1577 51.2689 65.088 52.1743C63.0021 53.0798 61.2073 53.8883 58.604 53.8883C58.135 53.8883 57.6337 53.8559 57.1163 53.8074C54.4807 53.5002 52.6697 52.4977 51.4731 51.188C50.2928 49.8621 49.7269 48.1805 49.7269 46.4828C49.7269 44.5748 50.4384 42.6507 51.7643 41.2278C53.0902 39.8049 55.0143 38.8348 57.5691 38.8348H57.6822C61.6761 38.8994 63.8267 40.0313 65.8641 41.2116C66.8828 41.8099 67.8528 42.4405 68.9847 42.9256C70.1166 43.4106 71.3941 43.7502 72.9464 43.7502V42.1494C71.6204 42.1494 70.6017 41.8745 69.6153 41.4703C68.1601 40.8397 66.8019 39.8372 65.007 38.9318C63.1961 38.0263 60.9323 37.2825 57.6984 37.2502H57.5367C54.5777 37.2502 52.1845 38.3982 50.5675 40.1445C48.9506 41.8907 48.0938 44.1867 48.0938 46.4828C48.0938 48.5362 48.789 50.6059 50.2604 52.2552C51.7157 53.9044 53.9632 55.0686 56.9061 55.4082C57.4882 55.4728 58.0542 55.5052 58.5716 55.5052C61.5306 55.5052 63.6327 54.535 65.6862 53.6457C67.7559 52.7564 69.777 51.9318 72.8654 51.9156C75.97 51.9156 77.9751 52.7564 80.0448 53.6457C82.0983 54.535 84.2002 55.5052 87.1431 55.5052C87.6767 55.5052 88.2265 55.4728 88.8086 55.4082C91.7514 55.0848 93.9828 53.9044 95.4542 52.2552C96.9257 50.6221 97.6049 48.5524 97.6049 46.4828C97.6049 44.1867 96.7479 41.8907 95.1309 40.1445C93.514 38.3982 91.1208 37.234 88.1618 37.2502H88.0163C83.7152 37.2987 81.1604 38.6245 79.1068 39.8534C78.072 40.4678 77.1828 41.0499 76.2126 41.4703C75.2425 41.8907 74.2399 42.1494 72.914 42.1494V42.9417" fill="#1D2088"/>
<path d="M79.5335 39.0937C79.5335 38.932 79.5335 38.7703 79.5335 38.6086C79.291 34.4208 76.6554 28.9395 72.8879 28.9395C69.1203 28.9395 66.4686 34.4208 66.2422 38.6086C66.2422 38.7703 66.2422 38.932 66.2422 39.0937C68.2472 38.3984 70.3007 38.2691 72.904 38.2691C75.5073 38.2691 77.5447 38.3984 79.5659 39.0937" fill="#B0D7F2"/>
<path d="M72.8614 38.334C70.4036 38.334 68.4471 38.4472 66.5391 39.1263C66.5552 42.0044 68.3824 44.64 72.8614 44.64C77.3404 44.64 79.1676 42.0044 79.1838 39.1263C77.2758 38.4634 75.3354 38.334 72.8614 38.334Z" fill="#1D2088"/>
<path d="M79.1948 38.657L79.9871 38.6085C79.8577 36.4742 79.1463 34.0812 77.9659 32.157C77.3676 31.1869 76.656 30.3461 75.8152 29.7155C74.9744 29.0849 73.972 28.6807 72.8725 28.6807C71.7729 28.6807 70.7705 29.0849 69.9297 29.7155C68.6523 30.6694 67.682 32.1085 66.9867 33.6931C66.2914 35.2776 65.8548 37.024 65.7578 38.6247V38.9804V39.1583L66.5501 39.1259H65.7578C65.7578 40.7267 66.2915 42.3274 67.4881 43.524C68.6846 44.7205 70.4955 45.4481 72.8886 45.4319C75.2817 45.4319 77.0927 44.7205 78.2892 43.524C79.4858 42.3274 80.0033 40.7267 80.0195 39.1259V38.6247V38.6085L79.2272 38.657L78.4349 38.6893V38.9966V39.1098C78.4349 40.4033 78.0144 41.5513 77.1736 42.3921C76.3328 43.2329 74.9907 43.8312 72.9048 43.8312C70.819 43.8312 69.4769 43.2329 68.636 42.3921C67.7952 41.5513 67.3909 40.3871 67.3748 39.1098V38.9642V38.7055C67.488 36.8622 68.1347 34.6632 69.1696 32.9978C69.687 32.1732 70.2854 31.4779 70.916 31.009C71.5466 30.5401 72.2095 30.2976 72.9048 30.2976C73.6001 30.2976 74.263 30.5401 74.8937 31.009C75.8477 31.7043 76.7208 32.9332 77.3353 34.3399C77.9659 35.7466 78.3379 37.3312 78.4187 38.7217L79.211 38.6732" fill="#1D2088"/>
<path d="M53.7317 45.917H45.097C44.6604 45.917 44.3047 46.2727 44.3047 46.7093C44.3047 47.1459 44.6604 47.5016 45.097 47.5016H53.7317C54.1682 47.5016 54.524 47.1459 54.524 46.7093C54.524 46.2727 54.1682 45.917 53.7317 45.917Z" fill="#1D2088"/>
<path d="M54.2106 49.7491L46.0936 52.6919C45.6732 52.8374 45.4629 53.3063 45.6085 53.7105C45.754 54.1309 46.2229 54.3412 46.6272 54.1956L54.7443 51.2528C55.1647 51.1073 55.3748 50.6384 55.2293 50.2342C55.0838 49.8138 54.6148 49.6036 54.2106 49.7491Z" fill="#1D2088"/>
<path d="M54.7912 42.1661L46.6741 39.2071C46.2537 39.0616 45.8009 39.2718 45.6554 39.6922C45.5098 40.1126 45.7199 40.5653 46.1403 40.7108L54.2575 43.6536C54.6779 43.7992 55.1307 43.5889 55.2762 43.1847C55.4217 42.7643 55.2116 42.3116 54.7912 42.1661Z" fill="#1D2088"/>
<path d="M91.9798 47.5016H100.631C101.067 47.5016 101.423 47.1459 101.423 46.7093C101.423 46.2727 101.067 45.917 100.631 45.917H91.9798C91.5432 45.917 91.1875 46.2727 91.1875 46.7093C91.1875 47.1459 91.5432 47.5016 91.9798 47.5016Z" fill="#1D2088"/>
<path d="M90.9837 51.2528L99.1008 54.1956C99.5212 54.3412 99.974 54.1309 100.12 53.7105C100.265 53.2901 100.055 52.8374 99.6507 52.6919L91.5336 49.7491C91.1132 49.6036 90.6604 49.8138 90.5149 50.2342C90.3694 50.6384 90.5795 51.1073 90.9837 51.2528Z" fill="#1D2088"/>
<path d="M91.5185 43.6693L99.6357 40.7265C100.056 40.5809 100.266 40.112 100.104 39.7078C99.9589 39.2874 99.49 39.0772 99.0858 39.2227L90.9688 42.1817C90.5484 42.3272 90.3381 42.7961 90.4998 43.2003C90.6453 43.6207 91.1143 43.831 91.5185 43.6693Z" fill="#1D2088"/>
<path d="M72.8944 67.8102V68.6024C84.779 68.6024 95.4833 65.8537 103.293 60.5179C111.103 55.1982 115.97 47.2106 115.954 37.024C115.954 36.7492 115.954 36.4743 115.954 36.1833C115.711 26.3524 111.232 17.5563 103.665 11.2504C96.1139 4.94438 85.4743 1.1123 72.9105 1.1123C60.3468 1.1123 49.7072 4.94438 42.156 11.2504C34.5887 17.5563 30.1097 26.3524 29.8672 36.1833C29.8672 36.4581 29.8672 36.7492 29.8672 37.024C29.8672 47.2106 34.718 55.1982 42.5279 60.5179C50.3378 65.8537 61.0421 68.6024 72.9267 68.6024V67.0017C61.2846 67.0017 50.8715 64.2853 43.4335 59.192C35.9955 54.0826 31.4841 46.6932 31.468 37.024C31.468 36.7653 31.468 36.4905 31.468 36.2318C31.7105 26.8698 35.9469 18.5265 43.1909 12.4792C50.4348 6.43196 60.6864 2.71304 72.9267 2.71304C85.1671 2.71304 95.4186 6.43196 102.663 12.4792C109.89 18.5265 114.127 26.8698 114.385 36.2318C114.385 36.4905 114.385 36.7653 114.385 37.024C114.385 46.6932 109.874 54.0987 102.42 59.192C94.982 64.2853 84.5526 67.0017 72.9267 67.0017V67.794" fill="#1D2088"/>
<path d="M30.7311 39.5137C38.1206 38.5274 42.3893 36.5871 42.3893 34.7923C42.3893 32.9976 33.027 30.5075 30.9573 29.3271C30.9573 29.3271 29.7122 36.0858 30.7471 39.5137" fill="#1D2088"/>
<path d="M37.7128 55.5217C40.494 53.3226 42.8063 50.5577 42.2242 49.7331C41.06 48.0353 37.5188 48.6821 33.25 48.957C33.25 48.957 34.6244 52.4818 37.6966 55.5217" fill="#1D2088"/>
<path d="M115.197 39.4173C107.808 38.4309 103.539 36.5715 103.539 34.7767C103.539 32.9819 112.901 30.4919 114.971 29.3115C114.971 29.3115 116.216 35.9732 115.181 39.4011" fill="#1D2088"/>
<path d="M108.235 55.5217C105.453 53.3226 103.141 50.5577 103.723 49.7331C104.887 48.0353 108.429 48.6821 112.697 48.957C112.697 48.957 111.323 52.4818 108.251 55.5217" fill="#1D2088"/>
<path d="M134.26 63.3311H11.2422V138.308H134.26V63.3311Z" fill="white"/>
<path d="M134.254 138.308V137.564H11.9797V64.0749H133.526V138.308H134.254H134.998V62.6035H10.4922V139.051H134.998V138.308H134.254Z" fill="#1D2088"/>
<path d="M29.6381 53.4844C23.4128 53.549 17.1876 56.3625 15.9587 60.049C13.7111 66.7431 18.5297 70.7207 22.0223 68.7642C22.3942 71.1411 27.0509 73.3562 29.8159 69.8314C31.0125 72.4508 36.9306 71.6747 36.9468 68.2791C38.2888 68.9906 44.3039 68.0528 43.1882 61.003C42.5414 56.896 36.979 53.3873 29.6219 53.4682" fill="#B0D7F2"/>
<path d="M29.6226 53.4846V52.7407C26.3887 52.7731 23.1872 53.5169 20.5839 54.7458C17.9967 55.9746 15.9593 57.6724 15.2316 59.8067C14.8112 61.0679 14.6172 62.2483 14.6172 63.3316C14.6172 65.3204 15.264 66.9858 16.2665 68.15C17.269 69.3142 18.6596 69.9933 20.0987 69.9933C20.8587 69.9933 21.6348 69.7993 22.3463 69.395L21.9906 68.7483L21.2629 68.8614C21.4245 69.8801 22.1038 70.7371 22.9769 71.3515C23.8662 71.9821 24.9819 72.3863 26.1946 72.3863C27.6337 72.3863 29.2021 71.7557 30.3663 70.2681L29.7842 69.8154L29.1214 70.1226C29.4448 70.8341 30.0269 71.3515 30.6898 71.6587C31.3528 71.9821 32.0965 72.1114 32.8565 72.1114C33.9722 72.1114 35.104 71.8042 36.0257 71.1736C36.9473 70.5592 37.6588 69.5405 37.6588 68.2632H36.9151L36.5756 68.9099C36.996 69.1201 37.4487 69.1848 37.9823 69.201C39.1142 69.201 40.5856 68.8291 41.8307 67.8104C43.0919 66.7918 44.0459 65.0778 44.0297 62.6525C44.0297 62.1027 43.9811 61.5206 43.884 60.89C43.5121 58.5617 41.8144 56.5243 39.3405 55.0691C36.8666 53.6139 33.568 52.7246 29.8328 52.7246H29.574V53.4684V54.196H29.8166C33.3092 54.196 36.3492 55.0368 38.5644 56.3465C40.7796 57.64 42.1379 59.3863 42.3966 61.1164C42.4774 61.6662 42.5259 62.1836 42.5259 62.6525C42.5259 64.7059 41.782 65.9025 40.8603 66.6786C39.9387 67.4386 38.7584 67.7457 37.9499 67.7457C37.578 67.7457 37.2869 67.6649 37.2384 67.6326C37.012 67.5032 36.7372 67.5194 36.5108 67.6487C36.2845 67.7781 36.1551 68.0206 36.1551 68.2794C36.1551 69.0231 35.7994 69.5567 35.1688 69.9933C34.5544 70.4137 33.6649 70.6724 32.8241 70.6724C32.2582 70.6724 31.7085 70.5592 31.2881 70.3652C30.8677 70.1712 30.5766 69.8963 30.4149 69.5405C30.3017 69.3142 30.0915 69.1525 29.8328 69.1201C29.5741 69.0878 29.3153 69.201 29.1698 69.395C28.2481 70.543 27.1971 70.9473 26.1623 70.9473C25.2891 70.9473 24.4322 70.64 23.8016 70.1873C23.1548 69.7346 22.7505 69.1363 22.6858 68.6674C22.6534 68.4249 22.4917 68.2308 22.2815 68.1177C22.0713 68.0045 21.8128 68.0207 21.6025 68.1338C21.1013 68.4087 20.5837 68.5381 20.0663 68.5381C19.0961 68.5381 18.1099 68.0853 17.3499 67.196C16.59 66.3229 16.0563 65.0131 16.0563 63.3477C16.0563 62.4422 16.2181 61.4074 16.59 60.2918C17.0913 58.7557 18.789 57.2035 21.1821 56.0878C23.559 54.9559 26.5827 54.2607 29.5902 54.2283V53.5007" fill="#1D2088"/>
<path d="M37.5951 68.9749C37.6759 68.5545 37.7244 67.9239 37.7729 67.3095C37.8214 66.6951 37.8375 66.113 37.8537 65.8381C37.8537 65.4338 37.5465 65.0943 37.1423 65.0781C36.738 65.0781 36.3985 65.3853 36.3824 65.7896C36.3824 66.0321 36.3499 66.6142 36.3014 67.1963C36.2691 67.7784 36.2045 68.409 36.1398 68.6677C36.0589 69.0719 36.3176 69.46 36.7219 69.5408C37.1261 69.6217 37.5142 69.3629 37.5951 68.9587" fill="#1D2088"/>
<path d="M30.4968 69.7824C30.3512 69.0871 30.2218 68.5697 30.0116 67.2762C29.9469 66.872 29.575 66.5971 29.1708 66.6618C28.7665 66.7264 28.4916 67.0983 28.5563 67.5026C28.7665 68.8284 28.9121 69.3944 29.0415 70.0573C29.1223 70.4615 29.5105 70.7202 29.9147 70.6394C30.3189 70.5585 30.5776 70.1705 30.4968 69.7662" fill="#1D2088"/>
<path d="M23.3521 69.6369C22.7054 68.4728 22.1879 67.2762 21.7514 66.0797C21.6058 65.7078 21.1855 65.4976 20.7974 65.6431C20.4094 65.7887 20.2153 66.2091 20.3608 66.5971C20.8136 67.8422 21.3632 69.1195 22.0585 70.3646C22.2525 70.7203 22.7055 70.8496 23.0612 70.6394C23.4169 70.4454 23.5462 69.9927 23.3521 69.6369Z" fill="#1D2088"/>
<path d="M115.974 53.4844C109.749 53.549 103.524 56.3625 102.295 60.049C100.047 66.7431 104.866 70.7207 108.358 68.7642C108.73 71.1411 113.387 73.3562 116.152 69.8314C117.348 72.4508 123.267 71.6747 123.283 68.2791C124.625 68.9906 130.64 68.0528 129.524 61.003C128.877 56.896 123.315 53.3873 115.974 53.4682" fill="#B0D7F2"/>
<path d="M115.951 53.4846V52.7407C112.717 52.7731 109.515 53.5169 106.912 54.7458C104.325 55.9746 102.287 57.6724 101.56 59.8067C101.139 61.0679 100.945 62.2483 100.945 63.3316C100.945 65.3204 101.592 66.9858 102.595 68.15C103.597 69.3142 104.988 69.9933 106.427 69.9933C107.187 69.9933 107.963 69.7993 108.674 69.395L108.319 68.7483L107.591 68.8614C107.753 69.8801 108.432 70.7371 109.305 71.3515C110.194 71.9821 111.326 72.3863 112.523 72.3863C113.962 72.3863 115.53 71.7557 116.694 70.2681L116.112 69.8154L115.449 70.1226C115.773 70.8341 116.355 71.3515 117.018 71.6587C117.681 71.9821 118.425 72.1114 119.185 72.1114C120.3 72.1114 121.432 71.8042 122.354 71.1736C123.275 70.5592 123.987 69.5405 123.987 68.2632H123.259L122.92 68.9099C123.34 69.1201 123.793 69.1848 124.326 69.201C125.458 69.201 126.93 68.8291 128.175 67.8104C129.42 66.7918 130.374 65.0778 130.374 62.6525C130.374 62.1027 130.325 61.5206 130.228 60.89C129.856 58.5617 128.159 56.5243 125.685 55.0691C123.211 53.6139 119.912 52.7246 116.177 52.7246H115.918V53.4684V54.196H116.161C119.654 54.196 122.693 55.0368 124.909 56.3465C127.124 57.64 128.482 59.3863 128.741 61.1164C128.822 61.6662 128.87 62.1836 128.87 62.6525C128.87 64.7059 128.126 65.9025 127.205 66.6786C126.283 67.4386 125.103 67.7457 124.294 67.7457C123.922 67.7457 123.631 67.6649 123.567 67.6326C123.34 67.5032 123.065 67.5194 122.839 67.6487C122.613 67.7781 122.483 68.0206 122.483 68.2794C122.483 69.0231 122.111 69.5567 121.497 69.9933C120.882 70.4137 119.993 70.6724 119.152 70.6724C118.586 70.6724 118.037 70.5592 117.632 70.3652C117.212 70.1712 116.921 69.8963 116.759 69.5405C116.646 69.3142 116.436 69.1525 116.177 69.1201C115.918 69.0878 115.66 69.201 115.514 69.395C114.592 70.543 113.541 70.9473 112.507 70.9473C111.633 70.9473 110.776 70.64 110.13 70.1873C109.483 69.7346 109.079 69.1363 109.014 68.6674C108.982 68.4249 108.82 68.2308 108.61 68.1177C108.399 68.0045 108.141 68.0207 107.931 68.1338C107.429 68.4087 106.912 68.5381 106.394 68.5381C105.424 68.5381 104.438 68.0853 103.678 67.196C102.918 66.3229 102.384 65.0131 102.384 63.3477C102.384 62.4422 102.546 61.4074 102.918 60.2918C103.419 58.7557 105.117 57.2035 107.51 56.0878C109.887 54.9559 112.911 54.2607 115.918 54.2283V53.5007" fill="#1D2088"/>
<path d="M123.892 68.9749C123.973 68.5545 124.021 67.9239 124.07 67.3095C124.118 66.6951 124.134 66.113 124.151 65.8381C124.151 65.4338 123.843 65.0943 123.439 65.0781C123.035 65.0781 122.695 65.3853 122.679 65.7896C122.679 66.0321 122.647 66.6142 122.598 67.1963C122.566 67.7784 122.501 68.409 122.437 68.6677C122.356 69.0719 122.614 69.46 123.019 69.5408C123.423 69.6217 123.811 69.3629 123.892 68.9587" fill="#1D2088"/>
<path d="M116.833 69.7824C116.687 69.0871 116.558 68.5697 116.348 67.2762C116.283 66.872 115.911 66.5971 115.507 66.6618C115.102 66.7264 114.828 67.0983 114.892 67.5026C115.102 68.8284 115.248 69.4105 115.377 70.0573C115.458 70.4615 115.846 70.7202 116.25 70.6394C116.655 70.5585 116.914 70.1705 116.833 69.7662" fill="#1D2088"/>
<path d="M109.688 69.6369C109.041 68.4728 108.524 67.2762 108.087 66.0797C107.942 65.7078 107.521 65.4976 107.133 65.6431C106.745 65.7887 106.551 66.2091 106.697 66.5971C107.166 67.8422 107.699 69.1195 108.394 70.3646C108.588 70.7203 109.041 70.8496 109.397 70.6394C109.753 70.4454 109.882 69.9927 109.688 69.6369Z" fill="#1D2088"/>
</svg>
