<svg width="109" height="19" viewBox="0 0 109 19" fill="none" xmlns="http://www.w3.org/2000/svg">
    <path d="M2.90093 18.2464L0.00165263 6.705L1.89774 6.22869L4.79702 17.7701L2.90093 18.2464ZM4.20346 17.9192L3.76857 16.188L9.80308 14.6721L10.238 16.4033L4.20346 17.9192ZM12.073 15.9876L10.4161 7.99756L12.2472 7.61787L13.904 15.6079L12.073 15.9876ZM11.0279 6.34288C10.7172 6.40731 10.4345 6.35596 10.18 6.18884C9.9365 6.01941 9.78254 5.77934 9.71811 5.46861C9.65368 5.15789 9.69948 4.87639 9.85551 4.62412C10.0226 4.36955 10.2616 4.21005 10.5723 4.14562C10.8941 4.07889 11.1767 4.13023 11.4202 4.29966C11.6637 4.46909 11.8176 4.70916 11.8821 5.01989C11.9465 5.33061 11.9007 5.61211 11.7447 5.86438C11.5887 6.11664 11.3497 6.27615 11.0279 6.34288ZM19.0128 14.6937L13.9856 7.26586L16.0307 6.9212L19.9349 13.004L18.7279 13.2074L20.4395 6.17819L22.4009 5.84765L20.0857 14.5129L19.0128 14.6937ZM28.7064 13.4707C27.8961 13.5669 27.1432 13.4738 26.4477 13.1912C25.7621 12.896 25.1898 12.4504 24.731 11.8544C24.2834 11.257 24.0121 10.5588 23.9172 9.75974C23.8223 8.96069 23.9231 8.22399 24.2196 7.54963C24.5148 6.86402 24.9554 6.29809 25.5415 5.85183C26.1389 5.40424 26.8259 5.13432 27.6024 5.04207C28.3564 4.95249 29.0412 5.04805 29.6566 5.32875C30.2832 5.60811 30.7958 6.03227 31.1944 6.60122C31.6042 7.16884 31.8553 7.84092 31.9475 8.61746C31.9636 8.75251 31.969 8.89452 31.9639 9.0435C31.9687 9.17989 31.9642 9.3345 31.9505 9.50732L25.2993 10.2975L25.1188 8.77814L30.8078 8.10231L30.1879 8.79226C30.1065 8.29975 29.9614 7.89471 29.7525 7.57714C29.5435 7.25956 29.2708 7.02946 28.9343 6.88683C28.6091 6.74286 28.2214 6.69761 27.7712 6.75109C27.2985 6.80724 26.8998 6.95733 26.575 7.20135C26.2501 7.44537 26.0141 7.76444 25.8669 8.15856C25.7184 8.54142 25.6742 8.98607 25.7344 9.49251C25.7945 9.99895 25.9486 10.4315 26.1967 10.79C26.4447 11.1486 26.7671 11.4128 27.1639 11.5825C27.5593 11.7409 27.999 11.7914 28.483 11.7339C28.8994 11.6845 29.2733 11.5658 29.6048 11.3781C29.9476 11.189 30.226 10.9391 30.4402 10.6283L31.7643 11.6865C31.4252 12.1947 30.9883 12.6004 30.4537 12.9036C29.9191 13.2068 29.3366 13.3958 28.7064 13.4707ZM38.0282 12.3856L37.5122 4.24196L39.3785 4.12372L39.8945 12.2674L38.0282 12.3856ZM38.3508 2.68984C38.0341 2.7099 37.7615 2.61929 37.533 2.418C37.3158 2.216 37.1971 1.95665 37.177 1.63995C37.157 1.32325 37.2419 1.051 37.4319 0.823201C37.6332 0.594682 37.8922 0.470391 38.2089 0.450325C38.5369 0.429543 38.8095 0.520154 39.0267 0.722157C39.2439 0.92416 39.3626 1.18351 39.3826 1.50021C39.4027 1.81691 39.3177 2.08916 39.1278 2.31696C38.9378 2.54476 38.6788 2.66905 38.3508 2.68984ZM47.9183 11.9724L47.7716 7.26569C47.7547 6.72195 47.5652 6.27997 47.2031 5.93975C46.8523 5.59918 46.405 5.43736 45.8613 5.4543C45.4988 5.4656 45.1784 5.55495 44.9002 5.72236C44.6219 5.88978 44.4079 6.11755 44.2581 6.40569C44.1084 6.69383 44.0391 7.01914 44.0504 7.38163L43.3071 6.99659C43.2877 6.37356 43.4065 5.81993 43.6635 5.33569C43.9202 4.84012 44.2822 4.44899 44.7495 4.1623C45.2278 3.86393 45.7671 3.70539 46.3675 3.68668C46.9792 3.66762 47.5279 3.80927 48.0135 4.11163C48.4988 4.40265 48.8852 4.79314 49.1726 5.2831C49.4596 5.76173 49.6114 6.26724 49.628 6.79965L49.7874 11.9142L47.9183 11.9724ZM42.328 12.1466L42.0739 3.99054L43.943 3.93231L44.1971 12.0883L42.328 12.1466ZM57.5164 7.47635L57.5737 5.77731L60.5471 5.87758C60.9548 5.89133 61.3143 5.82408 61.6255 5.67581C61.9483 5.51661 62.2054 5.29281 62.3965 5.00442C62.5881 4.70471 62.6907 4.35096 62.7045 3.9432C62.7182 3.53543 62.6395 3.18124 62.4682 2.88063C62.2972 2.56869 62.0559 2.32808 61.7441 2.15881C61.444 1.9786 61.09 1.88161 60.6823 1.86786L57.709 1.76759L57.7663 0.0685584L60.8415 0.172264C61.5891 0.197475 62.2522 0.372924 62.8309 0.698613C63.4209 1.02468 63.8765 1.47096 64.1976 2.03744C64.53 2.60429 64.6836 3.26151 64.6584 4.00909C64.6332 4.75666 64.4356 5.40204 64.0658 5.94521C63.7072 6.48877 63.2227 6.90334 62.612 7.18892C62.0127 7.47489 61.3393 7.60526 60.5917 7.58005L57.5164 7.47635ZM56.0229 11.9165L56.424 0.0232946L58.3779 0.089185L57.9768 11.9824L56.0229 11.9165ZM69.7075 12.7772C68.8942 12.711 68.1747 12.4706 67.5489 12.0558C66.9354 11.6306 66.4628 11.0805 66.1311 10.4053C65.8108 9.73113 65.6832 8.99302 65.7485 8.19101C65.8137 7.38899 66.0585 6.68686 66.4827 6.08462C66.9079 5.47108 67.4519 5.00367 68.1148 4.68237C68.789 4.362 69.5158 4.23352 70.2953 4.29695C71.0521 4.35853 71.7043 4.58785 72.2519 4.98491C72.8108 5.38288 73.2292 5.90019 73.5072 6.53683C73.7964 7.17439 73.9093 7.88288 73.8459 8.6623C73.8349 8.79785 73.8121 8.93814 73.7776 9.08314C73.7552 9.21778 73.7202 9.36844 73.6726 9.53512L66.9966 8.99188L67.1207 7.46692L72.8308 7.93157L72.0865 8.48502C72.1043 7.98616 72.0423 7.56039 71.9005 7.20773C71.7586 6.85506 71.5369 6.57549 71.2353 6.36902C70.945 6.16346 70.574 6.0423 70.1221 6.00553C69.6477 5.96693 69.2271 6.03504 68.8604 6.20987C68.4937 6.38471 68.1991 6.65069 67.9768 7.00784C67.7553 7.35368 67.6239 7.78076 67.5825 8.28908C67.5412 8.7974 67.6065 9.25187 67.7786 9.65248C67.9507 10.0531 68.2144 10.3759 68.5697 10.6208C68.9259 10.8545 69.3469 10.9911 69.8326 11.0306C70.2506 11.0646 70.6406 11.0224 71.0027 10.9041C71.3761 10.7867 71.6986 10.5969 71.9701 10.3347L73.0583 11.6342C72.6252 12.0652 72.1167 12.3763 71.5326 12.5675C70.9485 12.7588 70.3401 12.8287 69.7075 12.7772ZM78.6919 13.7294C77.9615 13.6333 77.3229 13.3608 76.7761 12.9117C76.2406 12.464 75.84 11.9027 75.5744 11.2276C75.3215 10.5428 75.2468 9.80713 75.3502 9.02057C75.4551 8.22277 75.7175 7.5314 76.1373 6.94648C76.5699 6.35179 77.1027 5.90745 77.7357 5.61347C78.3815 5.30973 79.0696 5.20587 79.8 5.3019C80.418 5.38316 80.9452 5.58965 81.3817 5.92138C81.8309 6.24336 82.1657 6.65316 82.386 7.1508C82.6063 7.64843 82.6781 8.1894 82.6013 8.77371L82.2955 11.0997C82.2186 11.684 82.0095 12.188 81.668 12.6118C81.3377 13.037 80.9133 13.3527 80.3947 13.5589C79.8775 13.7538 79.3099 13.8106 78.6919 13.7294ZM79.2258 12.0163C79.9112 12.1065 80.4921 11.9485 80.9684 11.5425C81.456 11.1379 81.747 10.5761 81.8416 9.85692C81.9051 9.37374 81.8657 8.93419 81.7235 8.53827C81.5812 8.14235 81.3492 7.82035 81.0275 7.57229C80.7184 7.31448 80.3336 7.15528 79.8729 7.09471C79.4234 7.03561 79.0105 7.08991 78.6341 7.25761C78.2704 7.41554 77.963 7.66662 77.712 8.01083C77.4722 8.35653 77.3206 8.77096 77.257 9.25414C77.1935 9.73731 77.2329 10.1769 77.3752 10.5728C77.5287 10.9702 77.7599 11.2978 78.069 11.5556C78.3907 11.8037 78.7763 11.9573 79.2258 12.0163ZM81.1917 13.8866L81.4776 11.7123L82.0571 9.78238L81.994 7.7851L82.2555 5.79622L84.1095 6.03999L83.0458 14.1304L81.1917 13.8866ZM89.0937 15.3501C88.3025 15.2035 87.6178 14.8865 87.0396 14.3991C86.4725 13.9137 86.0639 13.3193 85.8138 12.616C85.5637 11.9127 85.5109 11.171 85.6554 10.391C85.8019 9.59975 86.1169 8.92618 86.6002 8.37024C87.0856 7.80316 87.68 7.39457 88.3833 7.14447C89.0977 6.89644 89.8506 6.8457 90.6418 6.99224C91.2658 7.10783 91.8226 7.33774 92.3121 7.68198C92.8148 8.01713 93.2143 8.44268 93.5106 8.95861L92.0811 9.95594C91.8987 9.634 91.6527 9.3752 91.3431 9.17956C91.0468 8.97483 90.7036 8.83635 90.3136 8.76411C89.8567 8.67948 89.4303 8.71001 89.0345 8.85569C88.6519 8.9923 88.3273 9.22032 88.0606 9.53977C87.8052 9.86128 87.633 10.2616 87.5443 10.7408C87.4576 11.2089 87.4749 11.6443 87.5962 12.0471C87.7308 12.4409 87.9512 12.7756 88.2574 13.0513C88.5769 13.318 88.965 13.4936 89.4219 13.5782C89.812 13.6505 90.1809 13.6497 90.5289 13.5758C90.89 13.4928 91.2134 13.3337 91.499 13.0985L92.4766 14.5416C92.0151 14.9172 91.4887 15.177 90.8972 15.321C90.3189 15.456 89.7178 15.4657 89.0937 15.3501ZM97.3785 17.1536C96.5855 16.9612 95.9124 16.6113 95.3591 16.1039C94.8195 15.5881 94.4386 14.9709 94.2164 14.2523C94.0052 13.5363 93.9945 12.7873 94.1842 12.0053C94.3739 11.2234 94.7253 10.5681 95.2384 10.0395C95.7542 9.49985 96.3645 9.12313 97.0695 8.9093C97.7855 8.69814 98.5234 8.68475 99.2834 8.86912C100.021 9.04814 100.63 9.3765 101.109 9.8542C101.598 10.3346 101.931 10.9109 102.106 11.5831C102.292 12.258 102.293 12.9755 102.109 13.7354C102.077 13.8676 102.032 14.0026 101.975 14.1404C101.932 14.2699 101.874 14.4132 101.801 14.5704L95.292 12.9913L95.6527 11.5044L101.22 12.8551L100.399 13.2855C100.494 12.7956 100.499 12.3654 100.414 11.9949C100.329 11.6244 100.154 11.3136 99.8883 11.0626C99.6337 10.8142 99.2861 10.6366 98.8455 10.5297C98.383 10.4175 97.9569 10.4191 97.5674 10.5345C97.1778 10.6499 96.8454 10.8666 96.57 11.1847C96.2972 11.4917 96.1007 11.893 95.9805 12.3886C95.8603 12.8843 95.8538 13.3434 95.9612 13.7659C96.0687 14.1885 96.2787 14.5485 96.5914 14.8459C96.9067 15.1324 97.3012 15.333 97.7748 15.4479C98.1823 15.5468 98.5742 15.566 98.9503 15.5057C99.3375 15.448 99.6857 15.3109 99.9948 15.0943L100.867 16.5479C100.372 16.9059 99.8207 17.1338 99.2139 17.2315C98.6071 17.3292 97.9953 17.3032 97.3785 17.1536ZM104.378 14.6933L106.469 6.66122L108.345 7.21172L105.764 15.1002L104.378 14.6933ZM103.904 18.8419C103.556 18.7398 103.302 18.541 103.14 18.2457C102.993 17.9426 102.969 17.6225 103.068 17.2854C103.17 16.9374 103.363 16.6811 103.648 16.5166C103.943 16.3552 104.265 16.3256 104.613 16.4277C104.961 16.5298 105.21 16.727 105.361 17.0192C105.522 17.3146 105.552 17.6363 105.449 17.9843C105.351 18.3214 105.152 18.5761 104.853 18.7483C104.569 18.9128 104.252 18.944 103.904 18.8419Z" fill="#EF92AE"/>
</svg>