<svg width="185" height="38" viewBox="0 0 185 38" fill="none" xmlns="http://www.w3.org/2000/svg">
    <path d="M11.0624 34.0507C10.3423 34.6559 9.62132 35.0399 8.89935 35.2025C8.17739 35.3652 7.4054 35.3626 6.58337 35.1948L6.74529 33.3266C7.30315 33.4795 7.8431 33.5143 8.36515 33.4308C8.8799 33.3387 9.40623 33.0665 9.94413 32.6144C10.4473 32.1915 10.7589 31.752 10.8789 31.2958C11.0075 30.8324 10.9187 30.4185 10.6125 30.0541C10.3573 29.7504 10.0713 29.5688 9.75476 29.5092C9.43817 29.4495 9.09869 29.4684 8.73632 29.5657C8.37534 29.647 7.99858 29.7712 7.60604 29.9383C7.21488 30.0894 6.81209 30.2355 6.39767 30.3765C5.98463 30.5016 5.56776 30.5781 5.14706 30.606C4.73503 30.6266 4.32333 30.5507 3.91194 30.3783C3.50056 30.2059 3.09798 29.8854 2.70421 29.4169C2.25211 28.879 1.99942 28.3142 1.94614 27.7223C1.89424 27.1146 2.01001 26.5213 2.29344 25.9426C2.57687 25.3638 2.99621 24.8411 3.55147 24.3744C4.15011 23.8713 4.78212 23.54 5.4475 23.3804C6.12156 23.2136 6.75921 23.1885 7.36045 23.3049L7.19854 25.1732C6.69033 25.0969 6.23474 25.1097 5.83176 25.2116C5.43017 25.2974 5.04718 25.4935 4.68279 25.7997C4.23165 26.1789 3.9525 26.569 3.84536 26.9699C3.74689 27.3636 3.8362 27.7253 4.1133 28.055C4.34664 28.3326 4.61432 28.4925 4.91632 28.5348C5.21104 28.5684 5.53524 28.5402 5.88893 28.4502C6.244 28.3442 6.61712 28.2157 7.00828 28.0645C7.40811 27.9061 7.81455 27.7644 8.22759 27.6393C8.6493 27.5069 9.07346 27.4391 9.50007 27.4359C9.92806 27.4167 10.355 27.5019 10.781 27.6917C11.207 27.8814 11.6241 28.2192 12.0325 28.7051C12.7179 29.5206 12.9706 30.4113 12.7903 31.377C12.6188 32.3355 12.0428 33.2267 11.0624 34.0507ZM18.6301 28.6092C18.0362 28.963 17.4272 29.1477 16.8033 29.1633C16.189 29.1731 15.6142 29.0275 15.0786 28.7265C14.5471 28.41 14.1014 27.9499 13.7418 27.3463L11.3141 23.2717L12.9205 22.3145L15.3047 26.3161C15.5078 26.6569 15.7353 26.917 15.9875 27.0966C16.2435 27.2607 16.5164 27.3422 16.806 27.3411C17.1053 27.3343 17.4059 27.2409 17.7077 27.0611C18.175 26.7827 18.4492 26.4346 18.5302 26.017C18.6151 25.5838 18.5038 25.1092 18.1964 24.5932L15.8122 20.5916L17.4186 19.6345L19.8463 23.709C20.2118 24.3224 20.4023 24.9411 20.4179 25.5651C20.4374 26.1735 20.2967 26.7455 19.9957 27.281C19.6889 27.8068 19.2337 28.2495 18.6301 28.6092ZM27.4537 24.0548C26.8859 24.3119 26.3263 24.4223 25.7748 24.3858C25.2186 24.3391 24.7157 24.1625 24.2659 23.8561C23.8265 23.545 23.4852 23.121 23.2421 22.5842L22.2743 20.4471C22.0312 19.9102 21.9429 19.3717 22.0093 18.8315C22.0757 18.2914 22.2772 17.802 22.6136 17.3636C22.9453 16.9148 23.3899 16.5641 23.9474 16.3117C24.6185 16.0078 25.302 15.9098 25.9978 16.0177C26.6992 16.1106 27.3381 16.3812 27.9143 16.8294C28.4961 17.2627 28.953 17.8458 29.2849 18.5788C29.6122 19.3015 29.749 20.0296 29.6954 20.763C29.6475 21.4814 29.4271 22.1348 29.0342 22.7233C28.6516 23.3071 28.1248 23.7509 27.4537 24.0548ZM24.8062 28.7994L20.0376 18.2688L21.7411 17.4974L22.6457 19.4951L23.1719 21.4402L24.2796 23.1034L26.5096 28.028L24.8062 28.7994ZM26.4457 22.5704C26.8586 22.3834 27.1779 22.1269 27.4035 21.8008C27.6347 21.4597 27.7609 21.0791 27.7822 20.6589C27.8137 20.2341 27.729 19.7997 27.528 19.3557C27.3269 18.9118 27.0564 18.5616 26.7163 18.305C26.3865 18.0438 26.0195 17.8927 25.6153 17.8518C25.2167 17.7959 24.811 17.8615 24.398 18.0485C23.985 18.2355 23.6629 18.4995 23.4317 18.8406C23.1958 19.1714 23.0673 19.5468 23.046 19.967C23.0248 20.3872 23.1147 20.8192 23.3157 21.2632C23.5167 21.7071 23.7821 22.0597 24.1119 22.3209C24.4417 22.5821 24.811 22.7384 25.2199 22.7896C25.6241 22.8305 26.0327 22.7575 26.4457 22.5704ZM36.7552 20.3835C36.1663 20.5878 35.5989 20.6466 35.0531 20.56C34.5035 20.4627 34.0188 20.241 33.5988 19.8948C33.1896 19.5449 32.8884 19.0915 32.6953 18.5348L31.9266 16.3183C31.7335 15.7615 31.6947 15.2171 31.8101 14.6853C31.9255 14.1534 32.1708 13.6845 32.5458 13.2786C32.9171 12.8619 33.3919 12.5533 33.9701 12.3528C34.6661 12.1114 35.3556 12.0762 36.0387 12.2471C36.7287 12.4037 37.3402 12.7314 37.8731 13.2303C38.413 13.7148 38.8148 14.3372 39.0784 15.0975C39.3384 15.847 39.4082 16.5845 39.288 17.3099C39.1747 18.021 38.8956 18.6516 38.4506 19.2018C38.0164 19.7482 37.4512 20.1421 36.7552 20.3835ZM33.6858 24.8668L29.898 13.945L31.6647 13.3322L32.3833 15.4042L32.7299 17.3892L33.6812 19.1465L35.4526 24.254L33.6858 24.8668ZM35.8868 18.8134C36.3151 18.6648 36.6565 18.4385 36.9109 18.1344C37.1722 17.8158 37.3327 17.4483 37.3921 17.0318C37.4623 16.6116 37.4176 16.1713 37.2579 15.7108C37.0982 15.2504 36.8607 14.8769 36.5455 14.5904C36.2409 14.3002 35.8892 14.1163 35.4904 14.0387C35.0986 13.9466 34.6886 13.9749 34.2603 14.1234C33.832 14.272 33.4871 14.5055 33.2257 14.8241C32.9607 15.132 32.7984 15.4941 32.7389 15.9106C32.6794 16.3271 32.7295 16.7655 32.8892 17.226C33.0489 17.6864 33.281 18.0617 33.5856 18.352C33.8902 18.6422 34.2437 18.8314 34.6462 18.9198C35.045 18.9974 35.4585 18.9619 35.8868 18.8134ZM45.7307 17.6601C44.9634 17.8614 44.2198 17.8632 43.5 17.6655C42.7774 17.4567 42.1477 17.0888 41.611 16.5618C41.0853 16.0319 40.7218 15.3833 40.5204 14.6159C40.319 13.8486 40.3187 13.1105 40.5193 12.4017C40.7309 11.69 41.1017 11.0713 41.6316 10.5455C42.1586 10.0089 42.8058 9.63983 43.5732 9.43846C44.3515 9.23421 45.1005 9.23097 45.8203 9.42875C46.5401 9.62652 47.1628 9.99037 47.6886 10.5203C48.2224 11.0363 48.59 11.6781 48.7913 12.4454C48.9927 13.2128 48.989 13.9578 48.7803 14.6804C48.5825 15.4002 48.2201 16.0284 47.6931 16.5651C47.1632 17.0908 46.509 17.4558 45.7307 17.6601ZM45.2733 15.9171C45.7228 15.7991 46.0915 15.5969 46.3796 15.3104C46.6757 15.0101 46.8695 14.6546 46.9609 14.2439C47.0633 13.8304 47.0541 13.3934 46.9332 12.933C46.8124 12.4726 46.6073 12.0929 46.3179 11.7939C46.0286 11.4949 45.6881 11.2913 45.2965 11.1832C44.902 11.0641 44.48 11.0635 44.0306 11.1814C43.5921 11.2965 43.2248 11.5042 42.9287 11.8045C42.6406 12.091 42.444 12.4356 42.3387 12.8382C42.2444 13.2378 42.2576 13.6679 42.3785 14.1283C42.4993 14.5887 42.7004 14.9753 42.9816 15.2882C43.2739 15.5982 43.6173 15.8127 44.0117 15.9318C44.4143 16.0371 44.8348 16.0322 45.2733 15.9171ZM51.5098 16.0223L49.8427 8.03438L51.6733 7.65233L53.3404 15.6402L51.5098 16.0223ZM52.4131 11.1969L51.7147 11.0127C51.504 10.0032 51.5557 9.14142 51.8698 8.42753C52.1927 7.70022 52.809 7.24163 53.7187 7.05176C54.1181 6.96841 54.4937 6.96527 54.8456 7.04234C55.1974 7.11942 55.5456 7.28988 55.8901 7.55373L54.9489 9.03527C54.7723 8.91005 54.5882 8.83268 54.3968 8.80316C54.2054 8.77364 53.9932 8.7832 53.7603 8.83182C53.2499 8.93833 52.8619 9.18719 52.5962 9.57838C52.3306 9.96958 52.2695 10.5091 52.4131 11.1969ZM59.7162 14.4035L57.8135 3.00121L59.658 2.69341L61.5607 14.0957L59.7162 14.4035ZM56.7246 8.35343L56.4447 6.67662L62.1459 5.72526L62.4257 7.40207L56.7246 8.35343ZM69.6223 7.91326L69.4588 6.30657L72.4523 6.0018C73.0499 5.94097 73.4967 5.74169 73.7926 5.40397C74.0987 5.05384 74.2237 4.60253 74.1674 4.05005C74.1169 3.55395 73.911 3.15342 73.5496 2.84845C73.1881 2.54349 72.7086 2.42143 72.1111 2.48227L69.1006 2.78875L68.9284 1.09749L72.0234 0.782398C72.7676 0.706638 73.437 0.792273 74.0318 1.03931C74.6254 1.27506 75.1008 1.63677 75.458 2.12443C75.8254 2.59967 76.0424 3.16426 76.1089 3.81821C76.179 4.50599 76.0819 5.11964 75.8179 5.65916C75.5651 6.19753 75.1712 6.63635 74.6362 6.97562C74.1011 7.31489 73.4615 7.52241 72.7173 7.59817L69.6223 7.91326ZM68.7976 13.0723L67.5924 1.23352L69.5373 1.03551L70.7426 12.8743L68.7976 13.0723ZM75.2921 12.4111L70.625 7.69156L72.3675 6.84774L77.7444 12.1615L75.2921 12.4111ZM82.6509 12.064C81.8361 12.1079 81.0908 11.9664 80.4149 11.6396C79.7497 11.3008 79.2074 10.8193 78.7879 10.1949C78.3797 9.56993 78.154 8.85569 78.1108 8.05219C78.0676 7.24869 78.2156 6.52001 78.555 5.86616C78.8937 5.201 79.3699 4.66464 79.9836 4.25707C80.6085 3.8489 81.3115 3.6238 82.0923 3.58178C82.8506 3.54098 83.5277 3.68046 84.1237 4.00023C84.7311 4.31938 85.2153 4.77569 85.5764 5.36914C85.9488 5.96199 86.156 6.64885 86.198 7.42972C86.2053 7.56552 86.2016 7.70759 86.1869 7.85593C86.1829 7.99234 86.1685 8.14634 86.1437 8.31792L79.4554 8.67784L79.3731 7.15005L85.0939 6.8422L84.4308 7.49077C84.3813 6.99404 84.2626 6.58049 84.0746 6.25012C83.8865 5.91974 83.6292 5.67255 83.3026 5.50853C82.9873 5.3439 82.6033 5.27377 82.1506 5.29813C81.6753 5.3237 81.2677 5.44779 80.9279 5.67037C80.588 5.89295 80.3319 6.19615 80.1596 6.57997C79.9867 6.95246 79.914 7.39334 79.9414 7.9026C79.9688 8.41187 80.0947 8.85341 80.3191 9.22722C80.5435 9.60104 80.8483 9.88541 81.2333 10.0803C81.6177 10.2639 82.0532 10.3426 82.5399 10.3165C82.9586 10.2939 83.3394 10.1997 83.6823 10.0337C84.0365 9.86705 84.3305 9.63559 84.5643 9.33927L85.8174 10.4806C85.4463 10.9659 84.9842 11.3426 84.4311 11.6107C83.8781 11.8788 83.2847 12.0299 82.6509 12.064ZM93.687 11.6027L93.6486 6.89385C93.6442 6.34987 93.4649 5.90365 93.1107 5.55519C92.7679 5.20663 92.3245 5.03457 91.7805 5.03899C91.4178 5.04195 91.0955 5.12391 90.8135 5.28487C90.5314 5.44584 90.3122 5.66863 90.1559 5.95325C89.9995 6.23786 89.9228 6.5615 89.9258 6.92415L89.1915 6.52212C89.1864 5.8988 89.3179 5.34805 89.586 4.86985C89.8541 4.38032 90.225 3.99762 90.6987 3.72176C91.1837 3.43447 91.7266 3.28838 92.3272 3.28349C92.9392 3.27851 93.4845 3.43274 93.963 3.74619C94.4415 4.0483 94.8188 4.44758 95.0948 4.94402C95.3708 5.42912 95.5109 5.938 95.5153 6.47065L95.5569 11.5875L93.687 11.6027ZM88.0942 11.6482L88.0277 3.48849L89.8977 3.47327L89.9641 11.633L88.0942 11.6482ZM98.7669 11.6415L99.0795 0.0857043L100.949 0.136267L100.636 11.692L98.7669 11.6415ZM96.9873 5.13098L97.0333 3.4316L102.811 3.58788L102.765 5.28726L96.9873 5.13098ZM107.282 12.2251C106.547 12.1749 105.892 11.9427 105.318 11.5287C104.756 11.1154 104.321 10.5802 104.014 9.92302C103.719 9.25535 103.598 8.52576 103.652 7.73428C103.707 6.93148 103.926 6.22508 104.308 5.61506C104.703 4.99451 105.207 4.51776 105.82 4.1848C106.446 3.8413 107.126 3.69466 107.861 3.74487C108.483 3.78736 109.022 3.96051 109.478 4.26432C109.947 4.5576 110.306 4.94569 110.557 5.42859C110.808 5.91149 110.914 6.44692 110.874 7.03488L110.714 9.37543C110.674 9.96339 110.496 10.4795 110.182 10.9238C109.879 11.3688 109.475 11.7104 108.97 11.9486C108.466 12.1754 107.903 12.2676 107.282 12.2251ZM107.707 10.4821C108.397 10.5292 108.967 10.3353 109.417 9.90025C109.878 9.46602 110.134 8.88708 110.183 8.16344C110.216 7.67724 110.15 7.24101 109.983 6.85474C109.816 6.46848 109.564 6.16161 109.228 5.93414C108.903 5.69613 108.509 5.56129 108.046 5.52962C107.593 5.49872 107.185 5.57871 106.819 5.7696C106.466 5.94995 106.175 6.21973 105.946 6.57896C105.729 6.93896 105.603 7.36206 105.57 7.84826C105.537 8.33446 105.603 8.77069 105.77 9.15695C105.948 9.54398 106.199 9.85651 106.524 10.0945C106.861 10.322 107.255 10.4512 107.707 10.4821ZM109.786 12.2258L109.936 10.0379L110.394 8.07558L110.206 6.08615L110.343 4.08482L112.208 4.21228L111.652 12.3533L109.786 12.2258ZM113.888 12.5414L115.137 0.365236L116.997 0.555999L115.748 12.7321L113.888 12.5414ZM123.102 13.7282L123.376 12.0505L126.748 12.602C127.341 12.699 127.83 12.5894 128.215 12.2734C128.599 11.9573 128.831 11.5588 128.91 11.0779C128.963 10.7535 128.94 10.4397 128.84 10.1363C128.74 9.83286 128.564 9.57441 128.312 9.36091C128.06 9.1474 127.738 9.00864 127.347 8.94461L123.974 8.39306L124.249 6.71535L127.336 7.22025C127.839 7.30257 128.263 7.23981 128.607 7.03195C128.951 6.82409 129.164 6.46851 129.246 5.9652C129.329 5.46188 129.24 5.05691 128.98 4.75027C128.72 4.44363 128.339 4.24914 127.835 4.16682L124.748 3.66192L125.023 1.98422L128.16 2.49735C128.954 2.62723 129.59 2.88056 130.068 3.25735C130.546 3.63413 130.877 4.07284 131.059 4.57349C131.241 5.07414 131.289 5.58731 131.203 6.11299C131.103 6.72815 130.841 7.24225 130.417 7.6553C130.005 8.07018 129.445 8.36905 128.737 8.55192L128.987 7.97264C129.676 8.39537 130.182 8.9146 130.507 9.53034C130.831 10.1461 130.932 10.823 130.812 11.5612C130.713 12.1652 130.471 12.6942 130.087 13.1481C129.714 13.6038 129.211 13.9407 128.578 14.1588C127.958 14.3675 127.229 14.4032 126.39 14.266L123.102 13.7282ZM121.776 13.5114L123.697 1.76744L125.627 2.083L123.706 13.827L121.776 13.5114ZM135.347 16.1599C134.672 16.009 134.103 15.7249 133.639 15.3076C133.186 14.8928 132.868 14.392 132.686 13.8054C132.517 13.2102 132.509 12.5698 132.662 11.884L133.697 7.25533L135.522 7.66336L134.506 12.2091C134.419 12.5962 134.406 12.9416 134.466 13.2454C134.539 13.5405 134.681 13.7871 134.892 13.9853C135.115 14.186 135.397 14.3246 135.74 14.4013C136.271 14.52 136.709 14.4554 137.055 14.2076C137.414 13.9511 137.66 13.5298 137.791 12.9436L138.807 8.39783L140.632 8.80586L139.597 13.4346C139.441 14.1314 139.155 14.7118 138.737 15.176C138.334 15.6315 137.838 15.9505 137.252 16.1329C136.668 16.3042 136.033 16.3132 135.347 16.1599ZM143.361 18.155C142.924 18.0326 142.52 17.8601 142.147 17.6377C141.777 17.4043 141.451 17.1365 141.171 16.8343C140.894 16.5211 140.673 16.1766 140.508 15.8006L141.975 14.9764C142.159 15.3694 142.403 15.6967 142.706 15.9584C143.023 16.2122 143.406 16.4019 143.853 16.5275C144.257 16.6408 144.579 16.6665 144.82 16.6047C145.061 16.5428 145.214 16.3973 145.278 16.1682C145.345 15.9281 145.299 15.7151 145.14 15.529C144.98 15.3429 144.754 15.1618 144.462 14.9857C144.184 14.8018 143.884 14.6117 143.563 14.4155C143.252 14.2224 142.962 13.9996 142.691 13.7471C142.435 13.4867 142.249 13.1817 142.136 12.832C142.022 12.4822 142.031 12.0728 142.163 11.6036C142.303 11.1016 142.539 10.7028 142.869 10.407C143.21 10.1143 143.621 9.92941 144.102 9.85243C144.593 9.77851 145.139 9.82576 145.74 9.99419C146.372 10.1718 146.897 10.4426 147.313 10.8064C147.742 11.1625 148.058 11.6101 148.26 12.1494L146.793 12.9736C146.643 12.6256 146.441 12.3393 146.186 12.1148C145.931 11.8902 145.613 11.7244 145.231 11.6172C144.871 11.5161 144.577 11.4926 144.35 11.5466C144.123 11.6006 143.981 11.7312 143.923 11.9386C143.861 12.1568 143.912 12.3535 144.075 12.5286C144.237 12.7038 144.459 12.8779 144.74 13.0509C145.032 13.227 145.332 13.4171 145.64 13.6212C145.961 13.8174 146.249 14.0511 146.502 14.3223C146.77 14.5857 146.959 14.8977 147.07 15.2584C147.183 15.6081 147.173 16.0231 147.038 16.5032C146.824 17.267 146.386 17.7976 145.726 18.0949C145.066 18.3922 144.278 18.4123 143.361 18.155ZM148.036 19.3378L150.579 11.5842L152.355 12.1669L149.813 19.9206L148.036 19.3378ZM151.933 10.454C151.632 10.3551 151.412 10.1698 151.275 9.89813C151.148 9.62995 151.134 9.34509 151.233 9.04356C151.332 8.74203 151.512 8.52074 151.773 8.37971C152.044 8.2422 152.331 8.2229 152.633 8.32179C152.945 8.42421 153.164 8.60952 153.291 8.8777C153.418 9.14588 153.432 9.43074 153.333 9.73227C153.234 10.0338 153.054 10.2551 152.793 10.3961C152.532 10.5372 152.246 10.5565 151.933 10.454ZM157.154 22.7229L158.872 18.3386C159.071 17.8321 159.071 17.3512 158.872 16.8959C158.683 16.4447 158.336 16.1199 157.829 15.9214C157.492 15.7891 157.162 15.7451 156.84 15.7894C156.519 15.8338 156.232 15.9589 155.981 16.1648C155.73 16.3707 155.538 16.6425 155.406 16.9802L154.874 16.3336C155.102 15.7532 155.429 15.2911 155.856 14.9471C156.287 14.5926 156.774 14.3756 157.316 14.296C157.873 14.21 158.431 14.2766 158.991 14.4958C159.56 14.7191 160.009 15.0653 160.336 15.5344C160.668 15.993 160.869 16.5041 160.941 17.0676C161.016 17.6206 160.957 18.1451 160.762 18.641L158.895 23.4052L157.154 22.7229ZM151.947 20.6822L154.924 13.0848L156.665 13.7671L153.688 21.3645L151.947 20.6822ZM164.076 26.1287C163.35 25.7575 162.776 25.2609 162.356 24.639C161.951 24.012 161.723 23.3233 161.674 22.5727C161.635 21.8273 161.798 21.0963 162.164 20.3797C162.53 19.6631 163.024 19.1073 163.646 18.7122C164.273 18.307 164.954 18.0823 165.69 18.0379C166.435 17.9988 167.156 18.157 167.852 18.5128C168.529 18.8582 169.044 19.3188 169.399 19.8946C169.764 20.4756 169.954 21.1133 169.968 21.8079C169.992 22.5075 169.827 23.2056 169.471 23.902C169.409 24.0231 169.334 24.1441 169.247 24.265C169.175 24.381 169.086 24.5069 168.978 24.6428L163.013 21.5958L163.709 20.2333L168.811 22.8395L167.912 23.0674C168.119 22.613 168.224 22.1958 168.227 21.8157C168.23 21.4355 168.132 21.0926 167.932 20.7867C167.742 20.486 167.445 20.2326 167.041 20.0264C166.617 19.8098 166.202 19.7125 165.797 19.7343C165.391 19.7562 165.017 19.8898 164.675 20.1352C164.339 20.3705 164.055 20.7153 163.823 21.1695C163.591 21.6236 163.478 22.0687 163.484 22.5047C163.491 22.9406 163.611 23.3395 163.846 23.7014C164.087 24.0532 164.424 24.34 164.858 24.5617C165.231 24.7524 165.608 24.8621 165.988 24.8907C166.378 24.9245 166.748 24.872 167.099 24.7331L167.61 26.3493C167.045 26.5826 166.456 26.6764 165.844 26.6306C165.231 26.5847 164.642 26.4175 164.076 26.1287ZM171.08 30.1818C170.703 29.9306 170.371 29.6418 170.084 29.3151C169.804 28.9791 169.578 28.6241 169.404 28.2502C169.237 27.8669 169.133 27.4709 169.092 27.0623L170.742 26.7307C170.796 27.1613 170.927 27.5478 171.134 27.8902C171.358 28.2295 171.663 28.5278 172.05 28.7852C172.399 29.0175 172.698 29.1414 172.946 29.1569C173.194 29.1724 173.385 29.081 173.516 28.8829C173.654 28.6753 173.676 28.4584 173.582 28.2321C173.487 28.0059 173.328 27.764 173.105 27.5065C172.897 27.2458 172.671 26.9725 172.425 26.6867C172.189 26.4072 171.981 26.1056 171.802 25.782C171.638 25.4553 171.556 25.108 171.556 24.7403C171.555 24.3725 171.69 23.9857 171.96 23.58C172.249 23.146 172.596 22.8392 173.001 22.6596C173.416 22.4863 173.864 22.4372 174.345 22.5122C174.835 22.5935 175.34 22.8067 175.859 23.152C176.406 23.5161 176.822 23.9354 177.105 24.4097C177.404 24.881 177.566 25.4042 177.592 25.9794L175.942 26.311C175.907 25.9338 175.803 25.5991 175.63 25.307C175.457 25.0148 175.205 24.7589 174.875 24.5391C174.564 24.332 174.292 24.2191 174.059 24.2004C173.826 24.1818 173.65 24.2621 173.531 24.4414C173.406 24.6301 173.393 24.8328 173.494 25.0496C173.595 25.2664 173.752 25.5005 173.966 25.7517C174.189 26.0093 174.416 26.2825 174.646 26.5715C174.891 26.8573 175.093 27.1683 175.25 27.5045C175.423 27.8375 175.507 28.1926 175.501 28.5698C175.501 28.9376 175.363 29.3291 175.087 29.7442C174.648 30.4047 174.068 30.7746 173.348 30.8539C172.629 30.9331 171.873 30.7091 171.08 30.1818ZM176.973 34.7051C176.633 34.4051 176.343 34.0738 176.104 33.7113C175.872 33.3403 175.696 32.9578 175.575 32.5638C175.462 32.1614 175.412 31.755 175.427 31.3446L177.107 31.2402C177.102 31.6741 177.179 32.0748 177.338 32.4423C177.513 32.8087 177.775 33.1458 178.123 33.4533C178.438 33.7309 178.717 33.8942 178.961 33.9433C179.205 33.9924 179.405 33.9277 179.563 33.7493C179.728 33.5624 179.779 33.3504 179.716 33.1135C179.653 32.8765 179.529 32.6153 179.342 32.3298C179.172 32.0433 178.985 31.7418 178.78 31.4253C178.584 31.1163 178.42 30.7893 178.286 30.4443C178.168 30.0983 178.134 29.7431 178.183 29.3787C178.233 29.0143 178.419 28.6495 178.742 28.2842C179.087 27.8934 179.472 27.6366 179.898 27.5138C180.333 27.3984 180.783 27.4106 181.249 27.5502C181.724 27.6974 182.195 27.9772 182.663 28.3898C183.155 28.8249 183.51 29.2967 183.726 29.8051C183.958 30.3126 184.048 30.853 183.995 31.4264L182.316 31.5308C182.332 31.1523 182.275 30.8067 182.143 30.4937C182.011 30.1807 181.796 29.8929 181.499 29.6304C181.219 29.3828 180.965 29.234 180.737 29.1839C180.509 29.1339 180.323 29.1895 180.181 29.351C180.031 29.5209 179.991 29.7201 180.062 29.9485C180.132 30.177 180.256 30.4303 180.434 30.7083C180.62 30.9938 180.808 31.2953 180.996 31.6128C181.2 31.9293 181.358 32.2648 181.468 32.6192C181.594 32.9727 181.629 33.3359 181.572 33.7088C181.522 34.0732 181.332 34.4423 181.002 34.8161C180.477 35.4108 179.853 35.6985 179.129 35.6792C178.405 35.66 177.686 35.3353 176.973 34.7051Z" fill="#EBBA5F"/>
</svg>