<svg width="130" height="23" viewBox="0 0 130 23" fill="none" xmlns="http://www.w3.org/2000/svg">
    <path d="M3.77247 22.1265L-0.00127266 10.8407L1.28853 10.4094L8.56251 16.5633L7.72414 16.8437L9.83348 7.55215L11.1233 7.12087L14.897 18.4066L13.0429 19.0266L10.3582 10.9976L10.8151 10.9703L9.24647 17.8583L7.95667 18.2895L2.56037 13.7305L2.94182 13.4775L5.62657 21.5065L3.77247 22.1265ZM21.1679 16.9298C20.3745 17.1205 19.6159 17.1163 18.892 16.9173C18.1765 16.7046 17.5559 16.3293 17.0303 15.7912C16.5157 15.2505 16.1644 14.5889 15.9763 13.8065C15.7883 13.0242 15.8019 12.2807 16.0173 11.5762C16.23 10.8607 16.6011 10.247 17.1308 9.73502C17.6716 9.22041 18.3221 8.87174 19.0824 8.689C19.8207 8.51156 20.512 8.5261 21.156 8.73264C21.8112 8.93653 22.37 9.2976 22.8326 9.81585C23.3062 10.3315 23.6344 10.9694 23.8171 11.7298C23.8489 11.862 23.871 12.0024 23.8834 12.151C23.9041 12.2858 23.9178 12.4399 23.9245 12.6131L17.412 14.1784L17.0544 12.6907L22.6248 11.3519L22.0901 12.1099C21.9515 11.6303 21.7599 11.2451 21.5151 10.9542C21.2704 10.6634 20.9726 10.4669 20.6216 10.3647C20.2817 10.2599 19.8914 10.2605 19.4506 10.3664C18.9878 10.4776 18.6094 10.6735 18.3155 10.9539C18.0215 11.2344 17.8246 11.5789 17.7247 11.9876C17.6221 12.3853 17.6304 12.832 17.7496 13.3279C17.8688 13.8238 18.0725 14.2352 18.3609 14.5622C18.6493 14.8892 19.0005 15.1137 19.4145 15.2357C19.8258 15.3466 20.2684 15.3452 20.7422 15.2313C21.1499 15.1333 21.5074 14.9716 21.8146 14.7463C22.1328 14.5183 22.38 14.2374 22.5562 13.9036L23.9953 14.7991C23.7182 15.3436 23.332 15.7978 22.8366 16.1616C22.3412 16.5254 21.785 16.7815 21.1679 16.9298ZM30.3725 14.992C29.5697 15.1385 28.8125 15.0924 28.1007 14.8536C27.398 14.6017 26.7992 14.1926 26.3041 13.6263C25.8202 13.0579 25.506 12.3779 25.3615 11.5863C25.2171 10.7948 25.2718 10.0532 25.5258 9.36171C25.7777 8.65905 26.1823 8.06678 26.7395 7.58491C27.3078 7.10099 27.9766 6.78883 28.7459 6.64842C29.4929 6.51208 30.1823 6.56483 30.8139 6.80667C31.4568 7.04648 31.9948 7.4379 32.428 7.98094C32.8724 8.52195 33.1648 9.1771 33.3052 9.94639C33.3296 10.0802 33.3439 10.2216 33.348 10.3706C33.3613 10.5064 33.3665 10.661 33.3636 10.8343L26.7744 12.037L26.4997 10.5318L32.1356 9.50319L31.5598 10.2304C31.448 9.7439 31.2779 9.34868 31.0496 9.04473C30.8213 8.74078 30.5348 8.5281 30.1901 8.40669C29.8565 8.28325 29.4667 8.26222 29.0208 8.34362C28.5525 8.42909 28.1639 8.60371 27.8549 8.86747C27.5459 9.13124 27.3302 9.46438 27.2078 9.8669C27.0834 10.2583 27.067 10.7048 27.1585 11.2065C27.2501 11.7082 27.4308 12.1303 27.7007 12.4727C27.9706 12.8152 28.3088 13.0588 28.7154 13.2034C29.1199 13.337 29.5619 13.36 30.0413 13.2725C30.4539 13.1972 30.8197 13.0555 31.1389 12.8475C31.4692 12.6374 31.7316 12.3707 31.926 12.0472L33.3133 13.0209C33.0066 13.5492 32.5958 13.9813 32.0811 14.3172C31.5664 14.6531 30.9968 14.878 30.3725 14.992ZM36.9205 13.7302L35.3687 2.27486L37.2218 2.02384L38.7736 13.4792L36.9205 13.7302ZM34.116 7.59114L33.8878 5.90653L39.6155 5.13062L39.8437 6.81524L34.116 7.59114ZM49.239 7.63511L44.0585 0.876376L46.3127 0.7011L50.3643 6.09826L49.3135 6.17997L52.4821 0.221398L54.7024 0.0487583L50.595 7.52968L49.239 7.63511ZM49.3369 12.4019L48.873 6.43588L50.8221 6.28433L51.286 12.2503L49.3369 12.4019ZM58.6307 12.0706C57.8377 12.0955 57.1125 11.9313 56.4551 11.5778C55.7973 11.2129 55.2657 10.7137 54.8602 10.0802C54.4661 9.44626 54.2565 8.73283 54.2316 7.93989C54.2067 7.14695 54.3711 6.42742 54.725 5.78131C55.0901 5.13484 55.5897 4.61454 56.2236 4.2204C56.8572 3.81495 57.5704 3.59974 58.3634 3.5748C59.1676 3.54949 59.8985 3.71359 60.5559 4.06709C61.2134 4.42059 61.7392 4.9143 62.1333 5.54822C62.5384 6.17045 62.7534 6.87804 62.7784 7.67098C62.8033 8.46392 62.6334 9.18929 62.2686 9.84709C61.9151 10.5045 61.4215 11.036 60.788 11.4414C60.154 11.8356 59.4349 12.0453 58.6307 12.0706ZM58.574 10.2695C59.0384 10.2549 59.443 10.1401 59.7878 9.92514C60.1435 9.69851 60.4118 9.39526 60.5926 9.01538C60.7847 8.63515 60.8733 8.20715 60.8583 7.73139C60.8434 7.25563 60.7282 6.83971 60.5129 6.48364C60.2976 6.12756 60.0112 5.8531 59.6536 5.66025C59.2957 5.45607 58.8845 5.36129 58.42 5.3759C57.9669 5.39016 57.5625 5.5106 57.2068 5.73724C56.8621 5.95218 56.5934 6.24411 56.4009 6.61301C56.2198 6.98156 56.1367 7.40371 56.1516 7.87948C56.1666 8.35524 56.2763 8.777 56.4806 9.14476C56.6963 9.51216 56.9831 9.79795 57.341 10.0021C57.7099 10.1946 58.1209 10.2837 58.574 10.2695ZM68.147 11.9679C67.4557 11.9586 66.8402 11.7973 66.3003 11.4841C65.7718 11.1709 65.3582 10.746 65.0593 10.2093C64.772 9.66136 64.6331 9.03611 64.6425 8.3335L64.7062 3.59093L66.576 3.61605L66.5135 8.27363C66.5081 8.67026 66.5659 9.01107 66.6868 9.29605C66.8191 9.56985 67.0089 9.78209 67.2563 9.93276C67.5149 10.0836 67.8199 10.1614 68.1712 10.1661C68.7152 10.1734 69.1309 10.0203 69.4185 9.70678C69.7175 9.3821 69.8711 8.91946 69.8792 8.31885L69.9417 3.66127L71.8116 3.68639L71.7479 8.42896C71.7383 9.14289 71.5768 9.76978 71.2636 10.3096C70.9618 10.8383 70.5425 11.252 70.0058 11.5508C69.4692 11.8383 68.8496 11.9773 68.147 11.9679ZM73.9197 11.9154L74.3433 3.76636L76.2108 3.86344L75.7872 12.0124L73.9197 11.9154ZM76.0228 7.47955L75.3945 7.12346C75.448 6.09351 75.7176 5.2734 76.2033 4.66312C76.7009 4.04212 77.4137 3.75573 78.3418 3.80398C78.7492 3.82515 79.1132 3.91784 79.4338 4.08204C79.7544 4.24623 80.0476 4.4998 80.3135 4.84273L79.0258 6.03549C78.8869 5.86939 78.7287 5.74768 78.5512 5.67036C78.3736 5.59304 78.166 5.5482 77.9283 5.53585C77.4077 5.50878 76.9691 5.65054 76.6125 5.96111C76.2559 6.27169 76.0593 6.77783 76.0228 7.47955ZM87.3754 7.84467L87.5648 6.24081L90.553 6.5937C91.1496 6.66414 91.629 6.56669 91.9913 6.30135C92.3661 6.02608 92.5861 5.6127 92.6513 5.06119C92.7097 4.56597 92.5957 4.13026 92.3092 3.75406C92.0227 3.37786 91.5811 3.15454 90.9846 3.08409L87.9795 2.72921L88.1789 1.04094L91.2684 1.40579C92.0112 1.49352 92.6461 1.72255 93.173 2.0929C93.7012 2.45199 94.0866 2.90834 94.3294 3.46197C94.5847 4.00566 94.6738 4.60391 94.5967 5.25671C94.5157 5.94327 94.2877 6.52118 93.9127 6.99045C93.549 7.46104 93.0692 7.8038 92.4732 8.01872C91.8772 8.23364 91.2078 8.29724 90.4649 8.20952L87.3754 7.84467ZM85.4495 12.7013L86.8451 0.883442L88.7866 1.11272L87.3911 12.9306L85.4495 12.7013ZM91.9325 13.4669L88.4023 7.84611L90.2865 7.40101L94.3805 13.756L91.9325 13.4669ZM99.3029 14.7709C98.5213 14.6349 97.8444 14.3274 97.272 13.8483C96.7016 13.3579 96.2819 12.7616 96.0129 12.0591C95.7551 11.3586 95.6942 10.6175 95.8301 9.8359C95.966 9.0543 96.2726 8.38289 96.7498 7.82168C97.2381 7.26242 97.8326 6.85389 98.5331 6.59609C99.2356 6.32713 99.9776 6.26061 100.759 6.39653C101.552 6.53439 102.235 6.84289 102.807 7.32203C103.379 7.80118 103.794 8.39101 104.052 9.09154C104.323 9.78284 104.391 10.5193 104.255 11.3009C104.119 12.0825 103.806 12.7585 103.315 13.3289C102.836 13.9013 102.245 14.322 101.543 14.5909C100.842 14.8487 100.096 14.9087 99.3029 14.7709ZM99.6117 12.9955C100.069 13.0751 100.489 13.0445 100.87 12.9037C101.264 12.7537 101.588 12.511 101.842 12.1755C102.107 11.842 102.28 11.4407 102.362 10.9718C102.444 10.5028 102.415 10.0722 102.276 9.67996C102.137 9.2877 101.912 8.96099 101.601 8.69981C101.292 8.42747 100.908 8.25149 100.45 8.17188C100.004 8.09422 99.5834 8.13039 99.1892 8.28041C98.8081 8.4212 98.486 8.65277 98.2229 8.97513C97.971 9.29942 97.8042 9.69605 97.7227 10.165C97.6411 10.634 97.6632 11.0692 97.789 11.4707C97.9259 11.8741 98.1489 12.212 98.4582 12.4843C98.7806 12.7474 99.165 12.9178 99.6117 12.9955ZM109.009 16.7402C108.236 16.5591 107.578 16.2127 107.035 15.7011C106.494 15.1785 106.109 14.5587 105.882 13.8418C105.665 13.1274 105.647 12.3841 105.828 11.6117C106.01 10.8393 106.355 10.1869 106.864 9.65437C107.384 9.12444 108.001 8.75117 108.715 8.53454C109.432 8.30688 110.177 8.28361 110.949 8.46475C111.733 8.64847 112.396 8.99613 112.94 9.50775C113.483 10.0194 113.863 10.6323 114.08 11.3467C114.31 12.0525 114.335 12.7917 114.154 13.5641C113.972 14.3364 113.621 14.9931 113.098 15.5341C112.586 16.0776 111.972 16.4632 111.255 16.6909C110.541 16.9075 109.792 16.924 109.009 16.7402ZM109.42 14.9858C109.872 15.0919 110.293 15.0858 110.681 14.9674C111.084 14.8405 111.421 14.617 111.694 14.2969C111.978 13.9794 112.175 13.5889 112.283 13.1255C112.392 12.662 112.388 12.2305 112.273 11.8308C112.157 11.4312 111.951 11.0919 111.656 10.8131C111.363 10.5232 110.99 10.3252 110.538 10.2191C110.096 10.1156 109.675 10.1273 109.272 10.2542C108.884 10.3726 108.549 10.585 108.267 10.8915C107.997 11.2006 107.807 11.5869 107.699 12.0503C107.59 12.5137 107.587 12.9495 107.689 13.3576C107.802 13.7683 108.005 14.1186 108.298 14.4084C108.605 14.6899 108.979 14.8823 109.42 14.9858ZM115.036 18.0737L117.597 10.3258L119.372 10.9125L116.812 18.6605L115.036 18.0737ZM120.186 19.7753L121.711 15.1588C121.882 14.6423 121.852 14.1908 121.622 13.8043C121.395 13.4071 121.045 13.1302 120.571 12.9738C120.248 12.8671 119.936 12.8357 119.636 12.8794C119.345 12.9268 119.084 13.0493 118.852 13.247C118.623 13.434 118.451 13.6996 118.338 14.044L117.772 13.4272C117.967 12.8354 118.265 12.3669 118.666 12.0218C119.066 11.6767 119.526 11.4587 120.046 11.3678C120.569 11.266 121.104 11.3059 121.653 11.4872C122.202 11.6686 122.658 11.9505 123.021 12.3331C123.384 12.7156 123.623 13.1648 123.739 13.6806C123.855 14.1963 123.814 14.7555 123.615 15.3582L121.961 20.362L120.186 19.7753ZM125.335 21.4768L126.86 16.8604C127.031 16.3438 127.001 15.8924 126.771 15.5059C126.544 15.1087 126.194 14.8318 125.72 14.6753C125.408 14.5722 125.102 14.5425 124.801 14.5863C124.5 14.6301 124.233 14.7509 124.001 14.9486C123.772 15.1356 123.6 15.4012 123.487 15.7456L122.614 15.0275C122.863 14.4534 123.204 13.9991 123.637 13.6647C124.07 13.3303 124.551 13.1194 125.082 13.032C125.626 12.9374 126.173 12.9808 126.722 13.1621C127.281 13.347 127.748 13.6325 128.122 14.0186C128.495 14.4047 128.746 14.8575 128.872 15.3768C128.999 15.8961 128.963 16.4571 128.764 17.0597L127.11 22.0636L125.335 21.4768Z" fill="#5BBFE1"/>
</svg>