<svg width="102" height="21" viewBox="0 0 102 21" fill="none" xmlns="http://www.w3.org/2000/svg">
    <path d="M2.55309 17.0789L0.00168465 5.45564L1.91122 5.03648L4.46263 16.6598L2.55309 17.0789ZM3.86486 16.791L3.48215 15.0475L9.99118 13.6187L10.3739 15.3622L3.86486 16.791ZM2.74588 11.6933L2.37775 10.0163L8.32222 8.7114L8.69036 10.3885L2.74588 11.6933ZM1.69616 6.91119L1.31345 5.1677L7.73946 3.75714L8.12217 5.50063L1.69616 6.91119ZM17.9646 14.0978L17.229 9.44664C17.1441 8.90932 16.9006 8.49458 16.4987 8.20244C16.108 7.90853 15.644 7.80406 15.1067 7.88903C14.7485 7.94568 14.4418 8.07449 14.1867 8.27546C13.9317 8.47644 13.7479 8.72925 13.6354 9.03389C13.523 9.33853 13.4951 9.66995 13.5517 10.0282L12.766 9.73936C12.6686 9.12368 12.7171 8.55951 12.9114 8.04687C13.1039 7.52303 13.414 7.08961 13.8417 6.74659C14.2788 6.39062 14.794 6.16572 15.3873 6.07189C15.9918 5.9763 16.5539 6.04805 17.0736 6.28713C17.5916 6.51503 18.0238 6.854 18.3704 7.30406C18.7151 7.74293 18.9291 8.22542 19.0123 8.75155L19.8116 13.8057L17.9646 14.0978ZM12.4402 14.9715L11.1656 6.91162L13.0127 6.61953L14.2873 14.6794L12.4402 14.9715ZM21.6466 17.1357C21.0727 17.2051 20.5949 17.1715 20.2131 17.0351C19.82 16.8999 19.4505 16.6764 19.1046 16.3643L20.1579 15.0211C20.3147 15.1848 20.4822 15.2958 20.6605 15.3542C20.8402 15.4238 21.0538 15.4436 21.3013 15.4137C21.6051 15.3769 21.8523 15.25 22.043 15.0329C22.2462 14.8256 22.3261 14.542 22.2825 14.182L21.2171 5.37216L23.0736 5.14764L24.137 13.9406C24.2118 14.5594 24.1394 15.0933 23.9197 15.5422C23.7126 16.0011 23.4082 16.3633 23.0065 16.6287C22.6062 16.9055 22.1529 17.0745 21.6466 17.1357ZM21.9995 3.77064C21.6844 3.80874 21.4071 3.73383 21.1675 3.5459C20.9391 3.35662 20.8059 3.10446 20.7678 2.78942C20.7297 2.47438 20.7989 2.19773 20.9756 1.95946C21.1635 1.71983 21.415 1.58097 21.73 1.54287C22.0563 1.50341 22.3337 1.57832 22.562 1.7676C22.7904 1.95689 22.9237 2.20905 22.9618 2.52408C22.9999 2.83912 22.9306 3.11578 22.7539 3.35404C22.5772 3.59231 22.3258 3.73118 21.9995 3.77064ZM30.1969 12.8418C29.4065 12.91 28.6734 12.7855 27.9977 12.4684C27.321 12.14 26.7629 11.6706 26.3235 11.0601C25.8953 10.4486 25.6472 9.74769 25.579 8.95729C25.5108 8.16689 25.6358 7.43946 25.9538 6.775C26.2832 6.10957 26.7536 5.56279 27.3651 5.13465C27.9756 4.69523 28.676 4.44143 29.4664 4.37325C30.2681 4.30409 31.0068 4.42807 31.6826 4.74517C32.3583 5.06227 32.9103 5.52655 33.3384 6.13802C33.7769 6.73722 34.0302 7.43202 34.0984 8.22242C34.1665 9.01282 34.0364 9.74638 33.708 10.4231C33.3909 11.0989 32.9271 11.6564 32.3167 12.0959C31.7052 12.524 30.9986 12.7726 30.1969 12.8418ZM30.0421 11.0465C30.505 11.0065 30.9027 10.8698 31.2352 10.6364C31.578 10.3907 31.8294 10.0733 31.9892 9.68409C32.1603 9.29394 32.2254 8.86175 32.1845 8.38751C32.1436 7.91327 32.0059 7.50426 31.7715 7.16046C31.5371 6.81667 31.2361 6.55825 30.8685 6.3852C30.5 6.20085 30.0842 6.12865 29.6213 6.16858C29.1696 6.20754 28.7724 6.34987 28.4296 6.59558C28.0971 6.82902 27.8448 7.13516 27.6727 7.51402C27.5119 7.8919 27.452 8.31796 27.4929 8.7922C27.5338 9.26644 27.6663 9.68159 27.8904 10.0376C28.1258 10.3927 28.4277 10.6624 28.7963 10.8468C29.1751 11.0189 29.5904 11.0854 30.0421 11.0465ZM38.7124 12.2043L34.9287 4.09205L36.9843 4.01694L39.5837 9.978L38.9891 9.99973L41.2824 3.8599L43.3551 3.78417L39.8676 12.1621L38.7124 12.2043ZM36.4041 15.6059L38.7448 10.2978L39.8676 12.1621L38.4767 15.5301L36.4041 15.6059ZM49.2059 11.898L49.4843 0.00124354L51.4387 0.0469657L51.1604 11.9437L49.2059 11.898ZM50.5486 11.9294L50.5903 10.1449L56.8106 10.2904L56.7689 12.0749L50.5486 11.9294ZM58.6499 12.1537L59.1094 4.0066L60.9765 4.1119L60.517 12.259L58.6499 12.1537ZM60.1272 2.56562C59.8103 2.54775 59.5505 2.42526 59.3476 2.19814C59.1561 1.97167 59.0692 1.70001 59.0871 1.38318C59.105 1.06635 59.2218 0.806184 59.4376 0.602679C59.6647 0.399813 59.9367 0.307315 60.2535 0.325184C60.5817 0.343692 60.8415 0.466185 61.0331 0.692664C61.2246 0.919143 61.3115 1.1908 61.2936 1.50763C61.2757 1.82446 61.1589 2.08462 60.9431 2.28813C60.7273 2.49163 60.4553 2.58413 60.1272 2.56562ZM65.6909 12.6773L62.7137 4.21669L64.7793 4.40244L67.0116 11.277L65.7925 11.1674L69.2324 4.80286L71.2134 4.981L66.7745 12.7748L65.6909 12.6773ZM71.9302 13.2746L72.9384 5.17707L74.794 5.4081L73.7859 13.5056L71.9302 13.2746ZM74.051 3.80805C73.7361 3.76884 73.4851 3.62909 73.298 3.38881C73.1222 3.14992 73.0539 2.87302 73.0931 2.55812C73.1323 2.24322 73.2664 1.99153 73.4955 1.80305C73.7358 1.61597 74.0134 1.54203 74.3283 1.58124C74.6544 1.62184 74.9054 1.76159 75.0812 2.00048C75.2571 2.23936 75.3254 2.51626 75.2862 2.83116C75.247 3.14606 75.1128 3.39776 74.8838 3.58623C74.6548 3.77471 74.3772 3.84865 74.051 3.80805ZM81.719 14.7456L82.4769 10.098C82.5644 9.5611 82.4631 9.091 82.1729 8.6877C81.8939 8.28623 81.4859 8.04172 80.949 7.95416C80.5911 7.8958 80.2595 7.92211 79.9543 8.03311C79.6492 8.14411 79.3955 8.32666 79.1933 8.58076C78.9911 8.83487 78.8608 9.14089 78.8024 9.49883L78.1466 8.9785C78.2469 8.36329 78.4696 7.84268 78.8147 7.41666C79.1616 6.97945 79.5918 6.66493 80.1054 6.47308C80.632 6.27187 81.1917 6.21961 81.7845 6.31628C82.3885 6.41477 82.8999 6.65892 83.3186 7.04873C83.7392 7.42735 84.0435 7.88463 84.2317 8.42057C84.4218 8.94533 84.4739 9.47057 84.3882 9.99629L83.5646 15.0466L81.719 14.7456ZM76.1989 13.8455L77.5122 5.79186L79.3578 6.09282L78.0446 14.1464L76.1989 13.8455ZM88.3002 19.6937C87.4597 19.5054 86.7589 19.1858 86.1979 18.7349C85.6345 18.2951 85.2211 17.7553 84.9579 17.1156L86.4199 16.1888C86.6514 16.6588 86.9495 17.0392 87.3141 17.3299C87.6787 17.6206 88.1485 17.8304 88.7236 17.9593C89.4424 18.1203 90.0541 18.0599 90.5586 17.778C91.0606 17.5072 91.3835 17.0511 91.5272 16.4097L91.9657 14.4522L92.6748 12.7644L92.7573 10.9188L93.2367 8.77881L95.0615 9.18761L93.3519 16.8185C93.181 17.5816 92.8554 18.2055 92.3751 18.6902C91.8924 19.186 91.2999 19.5236 90.5977 19.7031C89.8955 19.8826 89.1296 19.8795 88.3002 19.6937ZM89.0348 16.0255C88.3271 15.867 87.724 15.5518 87.2258 15.0802C86.741 14.5999 86.4009 14.0185 86.2054 13.3359C86.0209 12.6558 86.0129 11.9398 86.1814 11.1877C86.3499 10.4357 86.6614 9.79702 87.1159 9.27167C87.5815 8.7488 88.1347 8.37913 88.7755 8.16265C89.4298 7.93759 90.1109 7.90434 90.8187 8.0629C91.4491 8.20412 91.9735 8.45518 92.3921 8.81608C92.8107 9.17698 93.1019 9.61387 93.2657 10.1268C93.432 10.6286 93.4483 11.1781 93.3145 11.7753L92.876 13.7328C92.7447 14.3189 92.49 14.8077 92.1119 15.1992C91.7449 15.5932 91.2951 15.8641 90.7626 16.0119C90.2301 16.1597 89.6542 16.1643 89.0348 16.0255ZM89.7863 14.3821C90.2287 14.4812 90.6368 14.4739 91.0107 14.3602C91.3846 14.2465 91.6972 14.0436 91.9485 13.7515C92.2133 13.4508 92.3965 13.0737 92.498 12.6203C92.5996 12.1668 92.5936 11.7532 92.4799 11.3793C92.3797 10.9968 92.1848 10.6744 91.8952 10.4121C91.6055 10.1497 91.2395 9.969 90.7972 9.8699C90.3548 9.7708 89.9411 9.77685 89.5562 9.88805C89.1823 10.0017 88.8629 10.2089 88.5981 10.5096C88.3358 10.7993 88.1538 11.1708 88.0522 11.6243C87.9531 12.0666 87.9592 12.4803 88.0704 12.8653C88.1816 13.2502 88.382 13.5739 88.6717 13.8362C88.9724 14.101 89.3439 14.283 89.7863 14.3821ZM97.056 14.0279L98.9965 5.95797L100.882 6.47323L98.45 14.4087L97.056 14.0279ZM96.6605 18.1846C96.3107 18.089 96.0523 17.8951 95.8855 17.6027C95.7325 17.3025 95.7024 16.9829 95.795 16.644C95.8905 16.2941 96.079 16.0343 96.3604 15.8645C96.6527 15.6976 96.9738 15.662 97.3236 15.7575C97.6735 15.8531 97.9264 16.0456 98.0823 16.3349C98.2492 16.6272 98.2848 16.9483 98.1892 17.2981C98.0966 17.6371 97.9027 17.8954 97.6074 18.0732C97.326 18.243 97.0104 18.2802 96.6605 18.1846Z" fill="#7EBEAF"/>
</svg>