<svg width="235" height="50" viewBox="0 0 235 50" fill="none" xmlns="http://www.w3.org/2000/svg">
<path d="M5.19864 1C5.19864 1 226.685 1 229.005 1C231.326 1 233.203 3.02158 233.203 5.5207V31.0531C233.203 33.5522 231.326 35.5738 229.005 35.5738H170L158.249 48.2286C157.421 49.12 156.076 49.12 155.248 48.2286C154.421 47.3372 154.421 45.8886 155.248 44.9972L163.999 35.5738H5.19864C2.87799 35.5738 1.00078 33.5522 1.00078 31.0531V5.5207C1.00078 3.02158 2.87799 1 5.19864 1Z" fill="white" stroke="#0B2188" stroke-width="2" stroke-linejoin="round"/>
<path d="M20.8552 18.372H21.8562C21.8562 18.372 21.8519 18.4023 21.8432 18.463C21.8432 18.515 21.8432 18.5757 21.8432 18.645C21.8432 18.7143 21.8389 18.775 21.8302 18.827C21.7522 19.8497 21.6699 20.6817 21.5832 21.323C21.5052 21.9643 21.4099 22.4627 21.2972 22.818C21.1932 23.1733 21.0675 23.429 20.9202 23.585C20.7815 23.7323 20.6299 23.832 20.4652 23.884C20.3092 23.9447 20.1099 23.9837 19.8672 24.001C19.6592 24.0183 19.3645 24.0227 18.9832 24.014C18.6105 24.014 18.2162 24.0053 17.8002 23.988C17.7915 23.832 17.7569 23.6587 17.6962 23.468C17.6355 23.2773 17.5532 23.1127 17.4492 22.974C17.8825 23.0087 18.2942 23.0303 18.6842 23.039C19.0742 23.0563 19.3472 23.065 19.5032 23.065C19.6419 23.065 19.7545 23.0563 19.8412 23.039C19.9279 23.0217 20.0059 22.9827 20.0752 22.922C20.1965 22.818 20.3005 22.6057 20.3872 22.285C20.4825 21.9643 20.5649 21.5007 20.6342 20.894C20.7122 20.2787 20.7859 19.4857 20.8552 18.515V18.372ZM17.0072 15.616H18.0082C17.9302 16.084 17.8435 16.5823 17.7482 17.111C17.6615 17.631 17.5705 18.1337 17.4752 18.619C17.3885 19.1043 17.3019 19.5333 17.2152 19.906L16.2402 19.75C16.3269 19.386 16.4179 18.97 16.5132 18.502C16.6172 18.0253 16.7082 17.5357 16.7862 17.033C16.8729 16.5217 16.9465 16.0493 17.0072 15.616ZM25.3662 12.21H26.3412V24.04H25.3662V12.21ZM17.0332 18.372H21.1542V19.282H16.8902L17.0332 18.372ZM17.3582 15.616H20.8422V13.536H16.5652V12.626H21.7912V16.526H17.3582V15.616ZM35.4542 14.342L41.4342 14.342V15.174L36.3382 15.174V20.426H35.4542V14.342ZM34.3232 20.738C34.7565 20.5127 35.2852 20.2267 35.9092 19.88C36.5419 19.5247 37.1832 19.1607 37.8332 18.788L38.0932 19.516C37.5212 19.8627 36.9405 20.2137 36.3512 20.569C35.7705 20.9157 35.2375 21.232 34.7522 21.518L34.3232 20.738ZM30.0202 13.692H34.8952V14.55H30.0202V13.692ZM29.5262 16.201H35.1292V17.072H29.5262V16.201ZM32.5682 18.879H34.9732V19.75H32.5682V18.879ZM32.0222 12.08H32.9192V16.708H32.0222V12.08ZM32.2172 16.773H33.1012V22.649H32.2172V16.773ZM30.9952 19.49C31.1859 20.1747 31.4285 20.7337 31.7232 21.167C32.0265 21.5917 32.3949 21.921 32.8282 22.155C33.2615 22.389 33.7685 22.5493 34.3492 22.636C34.9299 22.7227 35.5972 22.766 36.3512 22.766C36.4552 22.766 36.6329 22.766 36.8842 22.766C37.1442 22.766 37.4475 22.766 37.7942 22.766C38.1409 22.766 38.5049 22.766 38.8862 22.766C39.2675 22.766 39.6359 22.766 39.9912 22.766C40.3552 22.7573 40.6759 22.753 40.9532 22.753C41.2305 22.753 41.4299 22.7487 41.5512 22.74C41.4992 22.8093 41.4472 22.9003 41.3952 23.013C41.3432 23.1343 41.2955 23.2557 41.2522 23.377C41.2089 23.4983 41.1785 23.6067 41.1612 23.702H40.2122H36.3642C35.4889 23.702 34.7175 23.6457 34.0502 23.533C33.3915 23.429 32.8195 23.2383 32.3342 22.961C31.8575 22.675 31.4545 22.272 31.1252 21.752C30.7959 21.232 30.5142 20.5647 30.2802 19.75L30.9952 19.49ZM37.7422 12.08H38.6652C38.6652 13.12 38.6912 14.1037 38.7432 15.031C38.8039 15.9497 38.8862 16.786 38.9902 17.54C39.0942 18.294 39.2199 18.9483 39.3672 19.503C39.5232 20.049 39.6922 20.4693 39.8742 20.764C40.0649 21.0587 40.2729 21.206 40.4982 21.206C40.6195 21.206 40.7149 21.0543 40.7842 20.751C40.8535 20.4477 40.8969 19.958 40.9142 19.282C41.0095 19.3773 41.1222 19.4683 41.2522 19.555C41.3909 19.633 41.5165 19.698 41.6292 19.75C41.5859 20.348 41.5165 20.8203 41.4212 21.167C41.3259 21.5137 41.1959 21.7607 41.0312 21.908C40.8752 22.0467 40.6629 22.116 40.3942 22.116C40.0215 22.116 39.6879 21.9427 39.3932 21.596C39.1072 21.2493 38.8645 20.7683 38.6652 20.153C38.4659 19.5377 38.3012 18.8097 38.1712 17.969C38.0412 17.1283 37.9415 16.2097 37.8722 15.213C37.8029 14.2163 37.7595 13.172 37.7422 12.08ZM39.2112 12.561L39.8872 12.197C40.1299 12.431 40.3725 12.6953 40.6152 12.99C40.8665 13.276 41.0529 13.5273 41.1742 13.744L40.4722 14.173C40.3509 13.9477 40.1689 13.6833 39.9262 13.38C39.6922 13.068 39.4539 12.795 39.2112 12.561ZM30.2672 17.956L31.0862 18.008C31.0949 18.658 31.0732 19.3383 31.0212 20.049C30.9692 20.751 30.8565 21.4443 30.6832 22.129C30.5185 22.805 30.2542 23.429 29.8902 24.001C29.8469 23.9317 29.7862 23.858 29.7082 23.78C29.6302 23.7107 29.5479 23.6413 29.4612 23.572C29.3832 23.5027 29.3052 23.455 29.2272 23.429C29.5479 22.9003 29.7819 22.324 29.9292 21.7C30.0765 21.076 30.1719 20.4433 30.2152 19.802C30.2585 19.152 30.2759 18.5367 30.2672 17.956ZM40.3942 16.006L41.1612 16.214C40.9099 17.098 40.5805 17.93 40.1732 18.71C39.7745 19.49 39.3152 20.1877 38.7952 20.803C38.2752 21.4183 37.6989 21.9297 37.0662 22.337C37.0055 22.2243 36.9145 22.103 36.7932 21.973C36.6719 21.8343 36.5635 21.726 36.4682 21.648C37.0749 21.3013 37.6295 20.842 38.1322 20.27C38.6349 19.6893 39.0812 19.035 39.4712 18.307C39.8612 17.5703 40.1689 16.8033 40.3942 16.006ZM46.0086 12.873C45.9739 13.0897 45.9479 13.3107 45.9306 13.536C45.9132 13.7527 45.9002 13.9693 45.8916 14.186C45.8742 14.55 45.8569 15.0007 45.8396 15.538C45.8222 16.0753 45.8049 16.6473 45.7876 17.254C45.7702 17.852 45.7572 18.45 45.7486 19.048C45.7399 19.646 45.7356 20.1833 45.7356 20.66C45.7356 21.1367 45.8266 21.518 46.0086 21.804C46.1906 22.09 46.4419 22.2937 46.7626 22.415C47.0832 22.5363 47.4516 22.597 47.8676 22.597C48.4569 22.597 48.9899 22.5233 49.4666 22.376C49.9432 22.22 50.3679 22.0163 50.7406 21.765C51.1132 21.505 51.4426 21.2147 51.7286 20.894C52.0232 20.5733 52.2876 20.244 52.5216 19.906L53.2626 20.79C53.0372 21.102 52.7599 21.427 52.4306 21.765C52.1099 22.0943 51.7286 22.402 51.2866 22.688C50.8446 22.974 50.3332 23.208 49.7526 23.39C49.1806 23.572 48.5392 23.663 47.8286 23.663C47.2132 23.663 46.6672 23.5677 46.1906 23.377C45.7139 23.1863 45.3412 22.8787 45.0726 22.454C44.8039 22.0293 44.6696 21.466 44.6696 20.764C44.6696 20.374 44.6739 19.945 44.6826 19.477C44.6912 19.0003 44.7042 18.5107 44.7216 18.008C44.7389 17.5053 44.7519 17.0157 44.7606 16.539C44.7692 16.0537 44.7779 15.6073 44.7866 15.2C44.7952 14.7927 44.7996 14.4547 44.7996 14.186C44.7996 13.9433 44.7909 13.7093 44.7736 13.484C44.7562 13.2587 44.7302 13.0507 44.6956 12.86L46.0086 12.873ZM58.4216 13.445H66.6116V14.303H58.4216V13.445ZM60.0596 18.645L65.0126 18.645V19.49L60.0596 19.49V18.645ZM60.0206 20.725L65.0386 20.725V21.57L60.0206 21.57V20.725ZM61.9966 12.08H62.9846V13.848H61.9966V12.08ZM64.5446 17.878H65.5066V24.027H64.5446V17.878ZM64.2716 13.9L65.1946 14.173C64.796 14.901 64.2543 15.5207 63.5696 16.032C62.8936 16.5347 62.1223 16.9507 61.2556 17.28C60.389 17.6093 59.479 17.8737 58.5256 18.073C58.491 18.0037 58.4433 17.917 58.3826 17.813C58.3306 17.709 58.27 17.605 58.2006 17.501C58.14 17.397 58.0793 17.3103 58.0186 17.241C58.9546 17.085 59.8343 16.8683 60.6576 16.591C61.481 16.3137 62.209 15.954 62.8416 15.512C63.4743 15.07 63.951 14.5327 64.2716 13.9ZM55.4186 12.899L55.9516 12.197C56.2376 12.3097 56.528 12.444 56.8226 12.6C57.1173 12.756 57.3946 12.9207 57.6546 13.094C57.9233 13.2673 58.14 13.4277 58.3046 13.575L57.7456 14.381C57.581 14.2163 57.3686 14.0473 57.1086 13.874C56.8486 13.692 56.5713 13.5143 56.2766 13.341C55.982 13.1677 55.696 13.0203 55.4186 12.899ZM54.7296 16.422L55.2626 15.694C55.54 15.798 55.8303 15.928 56.1336 16.084C56.437 16.2313 56.723 16.383 56.9916 16.539C57.2603 16.695 57.4813 16.8467 57.6546 16.994L57.0956 17.813C56.931 17.6657 56.7143 17.5097 56.4456 17.345C56.177 17.1717 55.891 17.007 55.5876 16.851C55.293 16.6863 55.007 16.5433 54.7296 16.422ZM55.1066 23.234C55.332 22.896 55.579 22.493 55.8476 22.025C56.1163 21.557 56.3893 21.063 56.6666 20.543C56.944 20.0143 57.1996 19.503 57.4336 19.009L58.1746 19.62C57.958 20.0793 57.724 20.5603 57.4726 21.063C57.2213 21.557 56.9656 22.0467 56.7056 22.532C56.4456 23.0087 56.1943 23.4507 55.9516 23.858L55.1066 23.234ZM59.5266 17.878H60.4626V19.568C60.4626 19.9233 60.441 20.3003 60.3976 20.699C60.3543 21.0977 60.2676 21.5007 60.1376 21.908C60.0163 22.3153 59.83 22.7097 59.5786 23.091C59.336 23.481 59.011 23.8407 58.6036 24.17C58.543 24.1093 58.465 24.0443 58.3696 23.975C58.283 23.9057 58.192 23.8363 58.0966 23.767C58.0013 23.7063 57.9146 23.6587 57.8366 23.624C58.2093 23.3293 58.5083 23.013 58.7336 22.675C58.959 22.3283 59.128 21.973 59.2406 21.609C59.362 21.245 59.44 20.8897 59.4746 20.543C59.5093 20.1877 59.5266 19.8627 59.5266 19.568V17.878ZM60.4626 13.861C60.9653 14.537 61.533 15.083 62.1656 15.499C62.807 15.9063 63.5176 16.2313 64.2976 16.474C65.0776 16.7167 65.927 16.9247 66.8456 17.098C66.7416 17.202 66.6376 17.3363 66.5336 17.501C66.4296 17.657 66.356 17.813 66.3126 17.969C65.368 17.761 64.4926 17.5097 63.6866 17.215C62.8806 16.9203 62.144 16.5347 61.4766 16.058C60.8093 15.5813 60.207 14.9617 59.6696 14.199L60.4626 13.861ZM70.7339 13.471C70.8985 13.4797 71.0675 13.4883 71.2409 13.497C71.4229 13.5057 71.5789 13.51 71.7089 13.51C71.8822 13.51 72.1032 13.5057 72.3719 13.497C72.6492 13.4883 72.9352 13.4753 73.2299 13.458C73.5245 13.4407 73.8019 13.4277 74.0619 13.419C74.3219 13.4017 74.5169 13.3887 74.6469 13.38C74.7769 13.3627 74.8939 13.3453 74.9979 13.328C75.1105 13.302 75.2102 13.2717 75.2969 13.237L75.9469 13.77C75.8862 13.8393 75.8255 13.9087 75.7649 13.978C75.7129 14.0473 75.6609 14.121 75.6089 14.199C75.4702 14.4243 75.3055 14.745 75.1149 15.161C74.9242 15.5683 74.7205 16.0147 74.5039 16.5C74.2959 16.9767 74.0879 17.436 73.8799 17.878C73.7499 18.1727 73.6069 18.4933 73.4509 18.84C73.3035 19.178 73.1519 19.5247 72.9959 19.88C72.8399 20.2267 72.6839 20.5517 72.5279 20.855C72.3805 21.1583 72.2375 21.4097 72.0989 21.609C71.8649 21.9383 71.6179 22.1723 71.3579 22.311C71.0979 22.441 70.7989 22.506 70.4609 22.506C69.9755 22.506 69.5725 22.3457 69.2519 22.025C68.9312 21.7043 68.7709 21.271 68.7709 20.725C68.7709 20.2397 68.8792 19.789 69.0959 19.373C69.3212 18.9483 69.6289 18.58 70.0189 18.268C70.4175 17.956 70.8899 17.7133 71.4359 17.54C71.9905 17.3667 72.5972 17.28 73.2559 17.28C73.9839 17.28 74.6859 17.3667 75.3619 17.54C76.0465 17.7047 76.6835 17.9213 77.2729 18.19C77.8709 18.45 78.4125 18.7273 78.8979 19.022C79.3919 19.308 79.8122 19.5767 80.1589 19.828L79.6779 20.946C79.2965 20.6167 78.8675 20.2917 78.3909 19.971C77.9142 19.6417 77.3942 19.3427 76.8309 19.074C76.2675 18.8053 75.6695 18.5887 75.0369 18.424C74.4129 18.2593 73.7672 18.177 73.0999 18.177C72.3892 18.177 71.7782 18.2983 71.2669 18.541C70.7642 18.775 70.3785 19.0783 70.1099 19.451C69.8499 19.815 69.7199 20.1963 69.7199 20.595C69.7199 20.881 69.7979 21.102 69.9539 21.258C70.1185 21.4053 70.3005 21.479 70.4999 21.479C70.6472 21.479 70.7815 21.4443 70.9029 21.375C71.0242 21.3057 71.1499 21.1887 71.2799 21.024C71.4185 20.842 71.5572 20.621 71.6959 20.361C71.8345 20.101 71.9732 19.8193 72.1119 19.516C72.2505 19.2127 72.3849 18.905 72.5149 18.593C72.6449 18.281 72.7749 17.9907 72.9049 17.722C73.0782 17.3407 73.2515 16.9463 73.4249 16.539C73.6069 16.1317 73.7845 15.7373 73.9579 15.356C74.1399 14.9747 74.3045 14.628 74.4519 14.316C74.3219 14.3247 74.1355 14.3333 73.8929 14.342C73.6589 14.3507 73.4032 14.3637 73.1259 14.381C72.8485 14.3897 72.5842 14.4027 72.3329 14.42C72.0902 14.4287 71.8952 14.4373 71.7479 14.446C71.6092 14.4547 71.4532 14.4677 71.2799 14.485C71.1065 14.4937 70.9419 14.5067 70.7859 14.524L70.7339 13.471ZM78.8589 16.318C78.8155 17.2367 78.7245 18.073 78.5859 18.827C78.4472 19.581 78.2349 20.2613 77.9489 20.868C77.6629 21.4747 77.2729 22.0207 76.7789 22.506C76.2849 22.9827 75.6609 23.4073 74.9069 23.78L74.0489 23.065C74.8115 22.7443 75.4312 22.363 75.9079 21.921C76.3845 21.4703 76.7529 20.9893 77.0129 20.478C77.2815 19.958 77.4679 19.4337 77.5719 18.905C77.6845 18.3763 77.7625 17.8737 77.8059 17.397C77.8145 17.1977 77.8189 16.994 77.8189 16.786C77.8275 16.578 77.8232 16.383 77.8059 16.201L78.8589 16.318ZM84.4937 16.682C84.7537 16.682 84.9877 16.7427 85.1957 16.864C85.4037 16.9853 85.5683 17.15 85.6897 17.358C85.811 17.566 85.8717 17.8 85.8717 18.06C85.8717 18.3113 85.811 18.5453 85.6897 18.762C85.5683 18.97 85.4037 19.1347 85.1957 19.256C84.9877 19.3773 84.7537 19.438 84.4937 19.438C84.2423 19.438 84.0083 19.3773 83.7917 19.256C83.5837 19.1347 83.419 18.97 83.2977 18.762C83.1763 18.5453 83.1157 18.3113 83.1157 18.06C83.1157 17.8 83.1763 17.566 83.2977 17.358C83.419 17.15 83.5837 16.9853 83.7917 16.864C84.0083 16.7427 84.2423 16.682 84.4937 16.682ZM88.9657 17.397L100.874 17.397V18.463L88.9657 18.463V17.397ZM107.868 12.483H108.96C108.942 12.821 108.912 13.2673 108.869 13.822C108.825 14.3767 108.743 15.005 108.622 15.707C108.509 16.4003 108.331 17.124 108.089 17.878C107.846 18.632 107.521 19.3773 107.114 20.114C106.706 20.8507 106.186 21.5483 105.554 22.207C104.93 22.8657 104.167 23.4377 103.266 23.923C103.188 23.8017 103.075 23.6717 102.928 23.533C102.78 23.3943 102.629 23.273 102.473 23.169C103.365 22.7097 104.115 22.1723 104.722 21.557C105.328 20.9417 105.827 20.283 106.217 19.581C106.607 18.879 106.91 18.1727 107.127 17.462C107.343 16.7427 107.504 16.058 107.608 15.408C107.712 14.758 107.777 14.1817 107.803 13.679C107.837 13.1677 107.859 12.769 107.868 12.483ZM108.908 12.743C108.916 12.8903 108.934 13.146 108.96 13.51C108.994 13.8653 109.055 14.2987 109.142 14.81C109.228 15.3213 109.354 15.876 109.519 16.474C109.683 17.072 109.904 17.6873 110.182 18.32C110.459 18.9527 110.801 19.568 111.209 20.166C111.616 20.764 112.106 21.3187 112.678 21.83C113.25 22.3327 113.921 22.7573 114.693 23.104C114.545 23.2167 114.402 23.3467 114.264 23.494C114.134 23.65 114.025 23.793 113.939 23.923C113.159 23.5503 112.47 23.0953 111.872 22.558C111.282 22.012 110.775 21.4227 110.351 20.79C109.935 20.1487 109.584 19.4943 109.298 18.827C109.02 18.1597 108.795 17.5097 108.622 16.877C108.448 16.2357 108.318 15.642 108.232 15.096C108.145 14.5413 108.084 14.069 108.05 13.679C108.015 13.2803 107.993 12.9943 107.985 12.821L108.908 12.743ZM119.087 21.635H125.405V22.22H119.087V21.635ZM119.087 23H125.405V23.663H119.087V23ZM118.554 20.205H125.99V24.053H124.989V20.881H119.516V24.053H118.554V20.205ZM116.37 18.632H128.031V19.425H116.37V18.632ZM120.387 17.722L121.362 17.891C120.972 18.6797 120.4 19.4207 119.646 20.114C118.892 20.7987 117.908 21.388 116.695 21.882C116.66 21.804 116.608 21.7217 116.539 21.635C116.478 21.5397 116.409 21.453 116.331 21.375C116.261 21.2883 116.196 21.219 116.136 21.167C116.89 20.8897 117.548 20.569 118.112 20.205C118.675 19.8323 119.143 19.4337 119.516 19.009C119.897 18.5757 120.187 18.1467 120.387 17.722ZM124.573 18.866C124.824 19.1693 125.149 19.4597 125.548 19.737C125.955 20.0057 126.393 20.2483 126.861 20.465C127.337 20.673 127.814 20.8377 128.291 20.959C128.195 21.0457 128.087 21.1627 127.966 21.31C127.853 21.4573 127.766 21.5873 127.706 21.7C127.212 21.544 126.722 21.3403 126.237 21.089C125.751 20.829 125.301 20.5343 124.885 20.205C124.477 19.867 124.131 19.516 123.845 19.152L124.573 18.866ZM118.996 16.539V17.332H125.47V16.539H118.996ZM118.996 15.148V15.928L125.47 15.928V15.148L118.996 15.148ZM118.073 14.511L126.432 14.511V17.969H118.073V14.511ZM116.422 12.925L128.005 12.925V13.731L116.422 13.731V12.925ZM119.529 12.08H120.478V14.368H119.529V12.08ZM123.845 12.08H124.807V14.368H123.845V12.08ZM132.696 12.808C132.973 12.8947 133.333 12.99 133.775 13.094C134.225 13.198 134.698 13.302 135.192 13.406C135.694 13.5013 136.171 13.588 136.622 13.666C137.072 13.7353 137.441 13.783 137.727 13.809L137.48 14.81C137.237 14.7753 136.938 14.7277 136.583 14.667C136.236 14.6063 135.863 14.537 135.465 14.459C135.066 14.381 134.672 14.303 134.282 14.225C133.892 14.1383 133.536 14.0603 133.216 13.991C132.895 13.913 132.635 13.848 132.436 13.796L132.696 12.808ZM132.41 15.174C132.366 15.3993 132.319 15.6767 132.267 16.006C132.223 16.3267 132.176 16.6647 132.124 17.02C132.072 17.3753 132.024 17.7133 131.981 18.034C131.937 18.3547 131.898 18.619 131.864 18.827C132.496 18.281 133.164 17.8823 133.866 17.631C134.576 17.371 135.322 17.241 136.102 17.241C136.769 17.241 137.35 17.3623 137.844 17.605C138.338 17.839 138.723 18.164 139.001 18.58C139.278 18.9873 139.417 19.4467 139.417 19.958C139.417 20.5387 139.282 21.0673 139.014 21.544C138.754 22.012 138.342 22.4063 137.779 22.727C137.224 23.0477 136.513 23.273 135.647 23.403C134.78 23.5417 133.74 23.559 132.527 23.455L132.215 22.389C133.593 22.5537 134.732 22.5493 135.634 22.376C136.535 22.194 137.207 21.8907 137.649 21.466C138.099 21.0327 138.325 20.5213 138.325 19.932C138.325 19.5853 138.225 19.2777 138.026 19.009C137.826 18.7403 137.553 18.5323 137.207 18.385C136.869 18.229 136.479 18.151 136.037 18.151C135.187 18.151 134.416 18.307 133.723 18.619C133.038 18.9223 132.466 19.347 132.007 19.893C131.911 20.0057 131.833 20.1183 131.773 20.231C131.712 20.335 131.66 20.439 131.617 20.543L130.655 20.309C130.707 20.0663 130.759 19.776 130.811 19.438C130.863 19.0913 130.915 18.723 130.967 18.333C131.019 17.9343 131.066 17.5357 131.11 17.137C131.162 16.7383 131.205 16.357 131.24 15.993C131.274 15.6203 131.3 15.2997 131.318 15.031L132.41 15.174ZM144.671 12.873C144.637 13.0897 144.611 13.3107 144.593 13.536C144.576 13.7527 144.563 13.9693 144.554 14.186C144.537 14.55 144.52 15.0007 144.502 15.538C144.485 16.0753 144.468 16.6473 144.45 17.254C144.433 17.852 144.42 18.45 144.411 19.048C144.403 19.646 144.398 20.1833 144.398 20.66C144.398 21.1367 144.489 21.518 144.671 21.804C144.853 22.09 145.105 22.2937 145.425 22.415C145.746 22.5363 146.114 22.597 146.53 22.597C147.12 22.597 147.653 22.5233 148.129 22.376C148.606 22.22 149.031 22.0163 149.403 21.765C149.776 21.505 150.105 21.2147 150.391 20.894C150.686 20.5733 150.95 20.244 151.184 19.906L151.925 20.79C151.7 21.102 151.423 21.427 151.093 21.765C150.773 22.0943 150.391 22.402 149.949 22.688C149.507 22.974 148.996 23.208 148.415 23.39C147.843 23.572 147.202 23.663 146.491 23.663C145.876 23.663 145.33 23.5677 144.853 23.377C144.377 23.1863 144.004 22.8787 143.735 22.454C143.467 22.0293 143.332 21.466 143.332 20.764C143.332 20.374 143.337 19.945 143.345 19.477C143.354 19.0003 143.367 18.5107 143.384 18.008C143.402 17.5053 143.415 17.0157 143.423 16.539C143.432 16.0537 143.441 15.6073 143.449 15.2C143.458 14.7927 143.462 14.4547 143.462 14.186C143.462 13.9433 143.454 13.7093 143.436 13.484C143.419 13.2587 143.393 13.0507 143.358 12.86L144.671 12.873ZM154.147 14.407H164.625V20.517H163.624V15.356H155.122V20.582H154.147V14.407ZM154.667 18.814H164.209V19.776H154.667V18.814ZM158.853 12.08H159.88V24.027H158.853V12.08ZM173.677 14.121C173.591 14.797 173.478 15.5033 173.339 16.24C173.209 16.9767 173.04 17.6917 172.832 18.385C172.572 19.2777 172.282 20.023 171.961 20.621C171.649 21.219 171.311 21.6697 170.947 21.973C170.583 22.2763 170.202 22.428 169.803 22.428C169.422 22.428 169.054 22.2893 168.698 22.012C168.343 21.7347 168.053 21.336 167.827 20.816C167.602 20.2873 167.489 19.6677 167.489 18.957C167.489 18.2463 167.632 17.5747 167.918 16.942C168.213 16.3093 168.616 15.7503 169.127 15.265C169.647 14.771 170.254 14.381 170.947 14.095C171.641 13.809 172.382 13.666 173.17 13.666C173.933 13.666 174.618 13.7917 175.224 14.043C175.84 14.2943 176.364 14.641 176.797 15.083C177.231 15.5163 177.564 16.0233 177.798 16.604C178.032 17.176 178.149 17.7913 178.149 18.45C178.149 19.36 177.954 20.1617 177.564 20.855C177.183 21.5483 176.628 22.1117 175.9 22.545C175.181 22.9783 174.306 23.2643 173.274 23.403L172.663 22.441C172.871 22.415 173.071 22.389 173.261 22.363C173.452 22.337 173.625 22.3067 173.781 22.272C174.197 22.1767 174.6 22.0293 174.99 21.83C175.389 21.622 175.744 21.362 176.056 21.05C176.368 20.7293 176.615 20.3523 176.797 19.919C176.988 19.477 177.083 18.9743 177.083 18.411C177.083 17.8823 176.997 17.3927 176.823 16.942C176.65 16.4827 176.394 16.0797 176.056 15.733C175.718 15.3863 175.307 15.1133 174.821 14.914C174.336 14.7147 173.781 14.615 173.157 14.615C172.447 14.615 171.801 14.745 171.22 15.005C170.648 15.265 170.159 15.6073 169.751 16.032C169.353 16.448 169.045 16.9073 168.828 17.41C168.612 17.904 168.503 18.3893 168.503 18.866C168.503 19.412 168.573 19.8627 168.711 20.218C168.859 20.5647 169.032 20.8203 169.231 20.985C169.439 21.1497 169.643 21.232 169.842 21.232C170.05 21.232 170.263 21.1323 170.479 20.933C170.696 20.725 170.917 20.3957 171.142 19.945C171.368 19.4857 171.589 18.892 171.805 18.164C171.996 17.54 172.156 16.877 172.286 16.175C172.425 15.473 172.525 14.784 172.585 14.108L173.677 14.121ZM180.418 14.329L192.053 14.329V15.265L180.418 15.265V14.329ZM184.669 17.397H189.856V18.333H184.669V17.397ZM189.505 17.397H190.519C190.519 17.397 190.514 17.4273 190.506 17.488C190.506 17.5487 190.501 17.618 190.493 17.696C190.493 17.7653 190.488 17.826 190.48 17.878C190.393 19.1173 190.302 20.127 190.207 20.907C190.111 21.6783 190.003 22.272 189.882 22.688C189.76 23.104 189.613 23.3987 189.44 23.572C189.292 23.728 189.132 23.8363 188.959 23.897C188.785 23.9577 188.573 23.9967 188.322 24.014C188.096 24.0313 187.784 24.0357 187.386 24.027C186.987 24.0183 186.571 24.001 186.138 23.975C186.129 23.8363 186.09 23.676 186.021 23.494C185.96 23.3207 185.882 23.1647 185.787 23.026C186.255 23.0607 186.697 23.0823 187.113 23.091C187.529 23.1083 187.819 23.117 187.984 23.117C188.131 23.117 188.252 23.1083 188.348 23.091C188.452 23.0737 188.538 23.0303 188.608 22.961C188.746 22.8397 188.868 22.584 188.972 22.194C189.076 21.7953 189.171 21.2233 189.258 20.478C189.344 19.724 189.427 18.7533 189.505 17.566V17.397ZM184.435 14.849H185.527C185.492 15.5423 185.436 16.2443 185.358 16.955C185.28 17.657 185.154 18.3547 184.981 19.048C184.816 19.7327 184.569 20.387 184.24 21.011C183.919 21.635 183.494 22.207 182.966 22.727C182.437 23.247 181.778 23.702 180.99 24.092C180.912 23.962 180.803 23.819 180.665 23.663C180.535 23.5157 180.405 23.3943 180.275 23.299C181.037 22.9523 181.666 22.5407 182.16 22.064C182.654 21.5787 183.048 21.05 183.343 20.478C183.637 19.8973 183.858 19.2907 184.006 18.658C184.153 18.0253 184.253 17.3883 184.305 16.747C184.365 16.097 184.409 15.4643 184.435 14.849ZM185.683 12.041H186.684V14.732H185.683V12.041ZM194.666 14.329H204.559V15.278H195.628V24.04H194.666V14.329ZM204.195 14.329H205.17V22.74C205.17 23.0607 205.126 23.3077 205.04 23.481C204.953 23.6543 204.793 23.7843 204.559 23.871C204.325 23.949 204.004 23.9967 203.597 24.014C203.189 24.0313 202.687 24.04 202.089 24.04C202.08 23.9447 202.054 23.8363 202.011 23.715C201.976 23.6023 201.937 23.481 201.894 23.351C201.85 23.2297 201.803 23.1213 201.751 23.026C202.063 23.0433 202.362 23.052 202.648 23.052C202.942 23.0607 203.194 23.0607 203.402 23.052C203.618 23.052 203.77 23.052 203.857 23.052C203.995 23.052 204.086 23.0303 204.13 22.987C204.173 22.935 204.195 22.8527 204.195 22.74V14.329ZM199.073 12.054L200.282 12.249C200.091 12.717 199.879 13.1937 199.645 13.679C199.411 14.1643 199.194 14.5803 198.995 14.927L198.072 14.693C198.193 14.4503 198.314 14.173 198.436 13.861C198.566 13.549 198.687 13.237 198.8 12.925C198.921 12.6043 199.012 12.314 199.073 12.054ZM197.331 17.007H198.228V22.246H197.331V17.007ZM197.747 17.007H202.427V21.31H197.747V20.426H201.517V17.878H197.747V17.007ZM216.871 12.86C216.854 12.9727 216.841 13.094 216.832 13.224C216.832 13.3453 216.832 13.4797 216.832 13.627C216.823 13.7223 216.819 13.8783 216.819 14.095C216.828 14.3117 216.832 14.5587 216.832 14.836C216.841 15.1047 216.845 15.382 216.845 15.668C216.854 15.954 216.858 16.2183 216.858 16.461C216.858 16.695 216.858 16.8857 216.858 17.033C216.858 17.7783 216.841 18.4717 216.806 19.113C216.78 19.7543 216.685 20.3523 216.52 20.907C216.355 21.4617 216.082 21.9773 215.701 22.454C215.328 22.922 214.795 23.3597 214.102 23.767L213.153 23.026C213.361 22.9393 213.582 22.8223 213.816 22.675C214.059 22.5277 214.258 22.376 214.414 22.22C214.761 21.9167 215.034 21.5917 215.233 21.245C215.432 20.8983 215.575 20.517 215.662 20.101C215.757 19.685 215.818 19.2257 215.844 18.723C215.87 18.2203 215.883 17.657 215.883 17.033C215.883 16.825 215.879 16.5607 215.87 16.24C215.861 15.9107 215.853 15.5727 215.844 15.226C215.835 14.8707 215.827 14.55 215.818 14.264C215.809 13.978 215.796 13.77 215.779 13.64C215.77 13.4927 215.753 13.354 215.727 13.224C215.701 13.0853 215.679 12.964 215.662 12.86H216.871ZM212.126 15.551C212.317 15.577 212.529 15.603 212.763 15.629C212.997 15.655 213.24 15.6723 213.491 15.681C213.751 15.6897 213.994 15.694 214.219 15.694C214.756 15.694 215.307 15.681 215.87 15.655C216.442 15.629 216.992 15.5857 217.521 15.525C218.058 15.4643 218.539 15.3863 218.964 15.291V16.357C218.548 16.4177 218.076 16.474 217.547 16.526C217.027 16.578 216.481 16.617 215.909 16.643C215.346 16.6603 214.787 16.669 214.232 16.669C214.024 16.669 213.79 16.6647 213.53 16.656C213.279 16.6473 213.027 16.6387 212.776 16.63C212.533 16.6213 212.317 16.6083 212.126 16.591V15.551ZM210.293 13.055C210.258 13.1763 210.219 13.3193 210.176 13.484C210.141 13.64 210.107 13.7787 210.072 13.9C209.968 14.368 209.868 14.888 209.773 15.46C209.678 16.032 209.604 16.6257 209.552 17.241C209.5 17.8563 209.483 18.463 209.5 19.061C209.517 19.659 209.587 20.2267 209.708 20.764C209.803 20.4867 209.912 20.166 210.033 19.802C210.163 19.438 210.289 19.0957 210.41 18.775L210.969 19.113C210.865 19.4077 210.757 19.7413 210.644 20.114C210.531 20.478 210.427 20.829 210.332 21.167C210.237 21.4963 210.167 21.7693 210.124 21.986C210.098 22.0813 210.076 22.1853 210.059 22.298C210.05 22.4107 210.05 22.5017 210.059 22.571C210.068 22.6403 210.072 22.714 210.072 22.792C210.081 22.87 210.089 22.9437 210.098 23.013L209.214 23.117C209.127 22.857 209.028 22.506 208.915 22.064C208.811 21.622 208.72 21.1367 208.642 20.608C208.564 20.0707 208.525 19.5333 208.525 18.996C208.525 18.2853 208.555 17.605 208.616 16.955C208.685 16.305 208.759 15.707 208.837 15.161C208.915 14.615 208.976 14.1643 209.019 13.809C209.045 13.653 209.062 13.497 209.071 13.341C209.08 13.185 209.084 13.0507 209.084 12.938L210.293 13.055Z" fill="#0B2188"/>
</svg>
