<svg width="129" height="50" viewBox="0 0 129 50" fill="none" xmlns="http://www.w3.org/2000/svg">
<path d="M5.19785 1H123.802C126.123 1 128 3.02158 128 5.5207V31.0531C128 33.5522 126.123 35.5738 123.802 35.5738H96L84.249 48.2286C83.4212 49.12 82.0761 49.12 81.2484 48.2286C80.4206 47.3372 80.4206 45.8886 81.2484 44.9972L89.9988 35.5738H5.19785C2.8772 35.5738 1 33.5522 1 31.0531V5.5207C1 3.02158 2.8772 1 5.19785 1Z" fill="white" stroke="#0B2188" stroke-width="2" stroke-linejoin="round"/>
<path d="M22.6369 22.95V22.04H20.2149V22.95H22.6369ZM27.1169 18.918V23.454C27.1169 24.224 26.9629 24.672 26.4169 24.924C25.8989 25.176 25.1569 25.19 24.1489 25.19C24.1069 24.868 23.9809 24.434 23.8269 24.07H20.2149V24.7H18.7589V20.934H24.1069V23.65C24.5829 23.664 25.0169 23.664 25.1709 23.65C25.3809 23.636 25.4369 23.594 25.4369 23.426V20.304H17.5129V25.218H15.8889L15.8889 18.918H27.1169ZM23.5749 17.21V16.356H19.2069V17.21H23.5749ZM17.6249 15.25H25.2689V18.33H17.6249V15.25ZM22.2029 13.304H27.5649V14.718H15.3289V13.304H20.5089V12.128H22.2029V13.304ZM42.5309 14.088V15.614H34.8029V14.088H37.8269V12.142L39.4649 12.142V14.088H42.5309ZM34.8729 19.842L33.9629 21.088C33.7809 20.64 33.4449 19.968 33.1229 19.338V25.204H31.5829V19.968C31.2049 21.06 30.7429 22.068 30.2389 22.768C30.0989 22.306 29.7349 21.662 29.4829 21.256C30.3089 20.136 31.0789 18.218 31.4569 16.552H29.8189V15.012L31.5829 15.012V12.142H33.1229V15.012H34.6489V16.552H33.1229V17.266C33.5149 17.784 34.6209 19.45 34.8729 19.842ZM42.7829 18.61L41.3829 19.422C41.2989 19.24 41.2009 19.03 41.0749 18.82C40.7249 19.898 40.2489 20.892 39.6329 21.774C40.5149 22.642 41.5789 23.342 42.8249 23.762C42.4469 24.112 41.9149 24.784 41.6629 25.246C40.4449 24.742 39.4089 24 38.5409 23.076C37.6029 24 36.4409 24.742 34.9989 25.26C34.8309 24.882 34.4249 24.252 34.1449 23.93C35.5729 23.468 36.6929 22.74 37.5469 21.844C36.9589 20.99 36.4829 20.024 36.0909 18.974C35.8949 19.17 35.6849 19.352 35.4889 19.52C35.2509 19.212 34.7189 18.736 34.3549 18.47C35.1949 17.798 35.9789 16.72 36.4269 15.74L37.9249 16.356C37.5189 17.168 36.9729 17.98 36.3849 18.638L37.4489 18.344C37.7289 19.114 38.1069 19.842 38.5689 20.5C38.9749 19.814 39.2829 19.058 39.4789 18.26L40.9209 18.554C40.4869 17.84 39.8849 17.056 39.3249 16.412L40.6129 15.684C41.4529 16.566 42.3909 17.756 42.7829 18.61ZM51.7429 23.188H57.1749V24.826L44.5889 24.826V23.188L49.9929 23.188V20.374H46.1989V18.764H49.9929V16.3H47.0949C46.6889 17.07 46.2549 17.784 45.7929 18.33C45.4569 18.064 44.7149 17.56 44.2949 17.336C45.3869 16.16 46.2969 14.228 46.7729 12.324L48.4949 12.702C48.2989 13.374 48.0749 14.032 47.8369 14.676H49.9929V12.156H51.7429V14.676L56.4609 14.676V16.3H51.7429V18.764H55.9289V20.374H51.7429V23.188ZM71.5112 19.072C71.5112 22.026 69.7052 24.112 66.1772 24.658L65.1272 22.992C65.6592 22.936 66.0512 22.852 66.4292 22.768C68.2212 22.348 69.6212 21.06 69.6212 19.016C69.6212 17.084 68.5712 15.642 66.6812 15.32C66.4852 16.51 66.2472 17.798 65.8412 19.114C65.0012 21.942 63.7972 23.678 62.2712 23.678C60.7172 23.678 59.4292 21.97 59.4292 19.604C59.4292 16.37 62.2292 13.612 65.8552 13.612C69.3272 13.612 71.5112 16.02 71.5112 19.072ZM61.2212 19.422C61.2212 20.836 61.7812 21.522 62.3272 21.522C62.9152 21.522 63.4612 20.64 64.0352 18.75C64.3572 17.714 64.6232 16.524 64.7772 15.362C62.4672 15.838 61.2212 17.882 61.2212 19.422ZM80.959 20.584C80.847 20.976 80.763 21.438 80.763 21.746C80.763 22.362 81.183 22.824 82.681 22.824C83.619 22.824 84.585 22.712 85.593 22.53L85.523 24.322C84.739 24.42 83.787 24.518 82.667 24.518C80.315 24.518 79.041 23.706 79.041 22.292C79.041 21.648 79.181 20.976 79.293 20.416L80.959 20.584ZM79.377 12.828C79.265 13.206 79.139 13.836 79.083 14.144C79.055 14.298 79.013 14.48 78.971 14.676C79.755 14.564 80.539 14.41 81.309 14.228V15.978C80.469 16.174 79.517 16.328 78.579 16.44C78.453 17.042 78.313 17.658 78.159 18.232C77.655 20.192 76.717 23.048 75.933 24.714L73.987 24.056C74.827 22.656 75.891 19.716 76.409 17.756C76.507 17.378 76.619 16.986 76.703 16.58C76.381 16.594 76.073 16.608 75.779 16.608C75.107 16.608 74.575 16.58 74.085 16.552L74.043 14.802C74.757 14.886 75.233 14.914 75.807 14.914C76.213 14.914 76.633 14.9 77.067 14.872C77.123 14.564 77.165 14.298 77.193 14.074C77.249 13.556 77.277 12.982 77.235 12.66L79.377 12.828ZM80.203 17.056C80.987 16.986 81.995 16.916 82.891 16.916C83.689 16.916 84.529 16.958 85.355 17.042L85.313 18.722C84.613 18.638 83.759 18.554 82.905 18.554C81.953 18.554 81.085 18.596 80.203 18.694V17.056ZM96.9673 13.024C96.8553 13.402 96.7293 14.088 96.6453 14.438C96.6033 14.62 96.5613 14.788 96.5193 14.97C98.7173 15.474 100.173 17.252 100.173 19.702C100.173 22.67 98.0593 24.364 95.1473 24.812L94.0833 23.188C97.1493 22.936 98.3673 21.354 98.3673 19.604C98.3673 18.05 97.4993 16.888 96.0993 16.51C95.6093 18.134 94.9933 19.744 94.1953 20.962C94.4473 21.256 94.6993 21.55 94.9653 21.802L93.5513 22.922C93.3833 22.74 93.2153 22.558 93.0753 22.376C92.1373 23.398 91.3533 23.86 90.3173 23.86C89.1553 23.86 88.0913 22.88 88.0913 21.074C88.0913 19.478 88.8893 17.77 90.1633 16.65C90.0233 16.272 89.9113 15.894 89.7853 15.516C89.6313 15.012 89.4773 14.564 89.2253 14.06L91.0593 13.486C91.1433 13.948 91.2553 14.41 91.3673 14.83C91.4373 15.096 91.5213 15.39 91.6193 15.684C92.6833 15.152 93.7193 14.886 94.7973 14.844C94.8533 14.606 94.8953 14.382 94.9233 14.172C94.9933 13.766 95.0353 13.164 95.0353 12.842L96.9673 13.024ZM89.7293 20.934C89.7293 21.62 90.0233 22.054 90.5273 22.054C91.0313 22.054 91.5493 21.62 92.0673 20.99C91.6193 20.304 91.1713 19.352 90.7653 18.302C90.1073 19.072 89.7293 20.066 89.7293 20.934ZM92.1233 17.21C92.4453 18.078 92.7953 18.89 93.1313 19.45C93.6353 18.554 94.0553 17.462 94.3773 16.426C93.5233 16.524 92.7813 16.818 92.1233 17.21ZM114.709 19.072C114.709 22.026 112.903 24.112 109.375 24.658L108.325 22.992C108.857 22.936 109.249 22.852 109.627 22.768C111.419 22.348 112.819 21.06 112.819 19.016C112.819 17.084 111.769 15.642 109.879 15.32C109.683 16.51 109.445 17.798 109.039 19.114C108.199 21.942 106.995 23.678 105.469 23.678C103.915 23.678 102.627 21.97 102.627 19.604C102.627 16.37 105.427 13.612 109.053 13.612C112.525 13.612 114.709 16.02 114.709 19.072ZM104.419 19.422C104.419 20.836 104.979 21.522 105.525 21.522C106.113 21.522 106.659 20.64 107.233 18.75C107.555 17.714 107.821 16.524 107.975 15.362C105.665 15.838 104.419 17.882 104.419 19.422Z" fill="#0C3096"/>
</svg>
