<svg width="118" height="49" viewBox="-2 -2 122 53" fill="none" xmlns="http://www.w3.org/2000/svg" overflow="visible">
<path d="M3.56129 0.5C3.56129 0.5 112.82 0.5 114.511 0.5C116.202 0.5 117.57 1.97332 117.57 3.79468V35.4026C117.57 37.224 116.202 38.6973 114.511 38.6973H87.508L78.9438 47.9201C78.3406 48.5697 77.3603 48.5697 76.757 47.9201C76.1537 47.2704 76.1537 46.2147 76.757 45.5651L83.1343 38.6973H3.56129C1.87001 38.6973 0.501892 37.224 0.501892 35.4026V3.79468C0.501892 1.97332 1.87001 0.5 3.56129 0.5Z" fill="white" stroke="#0B2188" stroke-linejoin="round"/>
<path d="M35.9165 12.94H36.6865C36.6865 12.94 36.6832 12.9633 36.6765 13.01C36.6765 13.05 36.6765 13.0967 36.6765 13.15C36.6765 13.2033 36.6732 13.25 36.6665 13.29C36.6065 14.0767 36.5432 14.7167 36.4765 15.21C36.4165 15.7033 36.3432 16.0867 36.2565 16.36C36.1765 16.6333 36.0798 16.83 35.9665 16.95C35.8598 17.0633 35.7432 17.14 35.6165 17.18C35.4965 17.2267 35.3432 17.2567 35.1565 17.27C34.9965 17.2833 34.7698 17.2867 34.4765 17.28C34.1898 17.28 33.8865 17.2733 33.5665 17.26C33.5598 17.14 33.5332 17.0067 33.4865 16.86C33.4398 16.7133 33.3765 16.5867 33.2965 16.48C33.6298 16.5067 33.9465 16.5233 34.2465 16.53C34.5465 16.5433 34.7565 16.55 34.8765 16.55C34.9832 16.55 35.0698 16.5433 35.1365 16.53C35.2032 16.5167 35.2632 16.4867 35.3165 16.44C35.4098 16.36 35.4898 16.1967 35.5565 15.95C35.6298 15.7033 35.6932 15.3467 35.7465 14.88C35.8065 14.4067 35.8632 13.7967 35.9165 13.05V12.94ZM32.9565 10.82H33.7265C33.6665 11.18 33.5998 11.5633 33.5265 11.97C33.4598 12.37 33.3898 12.7567 33.3165 13.13C33.2498 13.5033 33.1832 13.8333 33.1165 14.12L32.3665 14C32.4332 13.72 32.5032 13.4 32.5765 13.04C32.6565 12.6733 32.7265 12.2967 32.7865 11.91C32.8532 11.5167 32.9098 11.1533 32.9565 10.82ZM39.3865 8.2H40.1365V17.3H39.3865V8.2ZM32.9765 12.94H36.1465V13.64H32.8665L32.9765 12.94ZM33.2265 10.82H35.9065V9.22H32.6165V8.52H36.6365V11.52H33.2265V10.82ZM47.1465 9.84L51.7465 9.84V10.48L47.8265 10.48V14.52H47.1465V9.84ZM46.2765 14.76C46.6098 14.5867 47.0165 14.3667 47.4965 14.1C47.9832 13.8267 48.4765 13.5467 48.9765 13.26L49.1765 13.82C48.7365 14.0867 48.2898 14.3567 47.8365 14.63C47.3898 14.8967 46.9798 15.14 46.6065 15.36L46.2765 14.76ZM42.9665 9.34H46.7165V10H42.9665V9.34ZM42.5865 11.27H46.8965V11.94H42.5865V11.27ZM44.9265 13.33H46.7765V14H44.9265V13.33ZM44.5065 8.1H45.1965V11.66H44.5065V8.1ZM44.6565 11.71H45.3365V16.23H44.6565V11.71ZM43.7165 13.8C43.8632 14.3267 44.0498 14.7567 44.2765 15.09C44.5098 15.4167 44.7932 15.67 45.1265 15.85C45.4598 16.03 45.8498 16.1533 46.2965 16.22C46.7432 16.2867 47.2565 16.32 47.8365 16.32C47.9165 16.32 48.0532 16.32 48.2465 16.32C48.4465 16.32 48.6798 16.32 48.9465 16.32C49.2132 16.32 49.4932 16.32 49.7865 16.32C50.0798 16.32 50.3632 16.32 50.6365 16.32C50.9165 16.3133 51.1632 16.31 51.3765 16.31C51.5898 16.31 51.7432 16.3067 51.8365 16.3C51.7965 16.3533 51.7565 16.4233 51.7165 16.51C51.6765 16.6033 51.6398 16.6967 51.6065 16.79C51.5732 16.8833 51.5498 16.9667 51.5365 17.04H50.8065H47.8465C47.1732 17.04 46.5798 16.9967 46.0665 16.91C45.5598 16.83 45.1198 16.6833 44.7465 16.47C44.3798 16.25 44.0698 15.94 43.8165 15.54C43.5632 15.14 43.3465 14.6267 43.1665 14L43.7165 13.8ZM48.9065 8.1H49.6165C49.6165 8.9 49.6365 9.65667 49.6765 10.37C49.7232 11.0767 49.7865 11.72 49.8665 12.3C49.9465 12.88 50.0432 13.3833 50.1565 13.81C50.2765 14.23 50.4065 14.5533 50.5465 14.78C50.6932 15.0067 50.8532 15.12 51.0265 15.12C51.1198 15.12 51.1932 15.0033 51.2465 14.77C51.2998 14.5367 51.3332 14.16 51.3465 13.64C51.4198 13.7133 51.5065 13.7833 51.6065 13.85C51.7132 13.91 51.8098 13.96 51.8965 14C51.8632 14.46 51.8098 14.8233 51.7365 15.09C51.6632 15.3567 51.5632 15.5467 51.4365 15.66C51.3165 15.7667 51.1532 15.82 50.9465 15.82C50.6598 15.82 50.4032 15.6867 50.1765 15.42C49.9565 15.1533 49.7698 14.7833 49.6165 14.31C49.4632 13.8367 49.3365 13.2767 49.2365 12.63C49.1365 11.9833 49.0598 11.2767 49.0065 10.51C48.9532 9.74333 48.9198 8.94 48.9065 8.1ZM50.0365 8.47L50.5565 8.19C50.7432 8.37 50.9298 8.57333 51.1165 8.8C51.3098 9.02 51.4532 9.21333 51.5465 9.38L51.0065 9.71C50.9132 9.53667 50.7732 9.33333 50.5865 9.1C50.4065 8.86 50.2232 8.65 50.0365 8.47ZM43.1565 12.62L43.7865 12.66C43.7932 13.16 43.7765 13.6833 43.7365 14.23C43.6965 14.77 43.6098 15.3033 43.4765 15.83C43.3498 16.35 43.1465 16.83 42.8665 17.27C42.8332 17.2167 42.7865 17.16 42.7265 17.1C42.6665 17.0467 42.6032 16.9933 42.5365 16.94C42.4765 16.8867 42.4165 16.85 42.3565 16.83C42.6032 16.4233 42.7832 15.98 42.8965 15.5C43.0098 15.02 43.0832 14.5333 43.1165 14.04C43.1498 13.54 43.1632 13.0667 43.1565 12.62ZM50.9465 11.12L51.5365 11.28C51.3432 11.96 51.0898 12.6 50.7765 13.2C50.4698 13.8 50.1165 14.3367 49.7165 14.81C49.3165 15.2833 48.8732 15.6767 48.3865 15.99C48.3398 15.9033 48.2698 15.81 48.1765 15.71C48.0832 15.6033 47.9998 15.52 47.9265 15.46C48.3932 15.1933 48.8198 14.84 49.2065 14.4C49.5932 13.9533 49.9365 13.45 50.2365 12.89C50.5365 12.3233 50.7732 11.7333 50.9465 11.12ZM55.2652 8.71C55.2386 8.87667 55.2186 9.04667 55.2052 9.22C55.1919 9.38667 55.1819 9.55333 55.1752 9.72C55.1619 10 55.1486 10.3467 55.1352 10.76C55.1219 11.1733 55.1086 11.6133 55.0952 12.08C55.0819 12.54 55.0719 13 55.0652 13.46C55.0586 13.92 55.0552 14.3333 55.0552 14.7C55.0552 15.0667 55.1252 15.36 55.2652 15.58C55.4052 15.8 55.5986 15.9567 55.8452 16.05C56.0919 16.1433 56.3752 16.19 56.6952 16.19C57.1486 16.19 57.5586 16.1333 57.9252 16.02C58.2919 15.9 58.6186 15.7433 58.9052 15.55C59.1919 15.35 59.4452 15.1267 59.6652 14.88C59.8919 14.6333 60.0952 14.38 60.2752 14.12L60.8452 14.8C60.6719 15.04 60.4586 15.29 60.2052 15.55C59.9586 15.8033 59.6652 16.04 59.3252 16.26C58.9852 16.48 58.5919 16.66 58.1452 16.8C57.7052 16.94 57.2119 17.01 56.6652 17.01C56.1919 17.01 55.7719 16.9367 55.4052 16.79C55.0386 16.6433 54.7519 16.4067 54.5452 16.08C54.3386 15.7533 54.2352 15.32 54.2352 14.78C54.2352 14.48 54.2386 14.15 54.2452 13.79C54.2519 13.4233 54.2619 13.0467 54.2752 12.66C54.2886 12.2733 54.2986 11.8967 54.3052 11.53C54.3119 11.1567 54.3186 10.8133 54.3252 10.5C54.3319 10.1867 54.3352 9.92667 54.3352 9.72C54.3352 9.53333 54.3286 9.35333 54.3152 9.18C54.3019 9.00667 54.2819 8.84667 54.2552 8.7L55.2652 8.71ZM64.8138 9.15H71.1138V9.81H64.8138V9.15ZM66.0738 13.15H69.8838V13.8H66.0738V13.15ZM66.0438 14.75H69.9038V15.4H66.0438V14.75ZM67.5638 8.1H68.3238V9.46H67.5638V8.1ZM69.5238 12.56H70.2638V17.29H69.5238V12.56ZM69.3138 9.5L70.0238 9.71C69.7171 10.27 69.3004 10.7467 68.7738 11.14C68.2538 11.5267 67.6604 11.8467 66.9938 12.1C66.3271 12.3533 65.6271 12.5567 64.8938 12.71C64.8671 12.6567 64.8304 12.59 64.7838 12.51C64.7438 12.43 64.6971 12.35 64.6438 12.27C64.5971 12.19 64.5504 12.1233 64.5038 12.07C65.2238 11.95 65.9004 11.7833 66.5338 11.57C67.1671 11.3567 67.7271 11.08 68.2138 10.74C68.7004 10.4 69.0671 9.98667 69.3138 9.5ZM62.5038 8.73L62.9137 8.19C63.1338 8.27667 63.3571 8.38 63.5838 8.5C63.8104 8.62 64.0238 8.74667 64.2238 8.88C64.4304 9.01333 64.5971 9.13667 64.7238 9.25L64.2938 9.87C64.1671 9.74333 64.0038 9.61333 63.8038 9.48C63.6038 9.34 63.3904 9.20333 63.1638 9.07C62.9371 8.93667 62.7171 8.82333 62.5038 8.73ZM61.9738 11.44L62.3838 10.88C62.5971 10.96 62.8204 11.06 63.0538 11.18C63.2871 11.2933 63.5071 11.41 63.7138 11.53C63.9204 11.65 64.0904 11.7667 64.2238 11.88L63.7938 12.51C63.6671 12.3967 63.5004 12.2767 63.2938 12.15C63.0871 12.0167 62.8671 11.89 62.6338 11.77C62.4071 11.6433 62.1871 11.5333 61.9738 11.44ZM62.2638 16.68C62.4371 16.42 62.6271 16.11 62.8338 15.75C63.0404 15.39 63.2504 15.01 63.4638 14.61C63.6771 14.2033 63.8738 13.81 64.0538 13.43L64.6238 13.9C64.4571 14.2533 64.2771 14.6233 64.0838 15.01C63.8904 15.39 63.6938 15.7667 63.4938 16.14C63.2938 16.5067 63.1004 16.8467 62.9137 17.16L62.2638 16.68ZM65.6638 12.56H66.3838V13.86C66.3838 14.1333 66.3671 14.4233 66.3338 14.73C66.3004 15.0367 66.2338 15.3467 66.1338 15.66C66.0404 15.9733 65.8971 16.2767 65.7038 16.57C65.5171 16.87 65.2671 17.1467 64.9538 17.4C64.9071 17.3533 64.8471 17.3033 64.7738 17.25C64.7071 17.1967 64.6371 17.1433 64.5638 17.09C64.4904 17.0433 64.4238 17.0067 64.3638 16.98C64.6504 16.7533 64.8804 16.51 65.0538 16.25C65.2271 15.9833 65.3571 15.71 65.4438 15.43C65.5371 15.15 65.5971 14.8767 65.6238 14.61C65.6504 14.3367 65.6638 14.0867 65.6638 13.86V12.56ZM66.3838 9.47C66.7704 9.99 67.2071 10.41 67.6938 10.73C68.1871 11.0433 68.7338 11.2933 69.3338 11.48C69.9338 11.6667 70.5871 11.8267 71.2938 11.96C71.2138 12.04 71.1338 12.1433 71.0538 12.27C70.9738 12.39 70.9171 12.51 70.8838 12.63C70.1571 12.47 69.4838 12.2767 68.8638 12.05C68.2438 11.8233 67.6771 11.5267 67.1638 11.16C66.6504 10.7933 66.1871 10.3167 65.7738 9.73L66.3838 9.47ZM74.2847 9.17C74.4114 9.17667 74.5414 9.18333 74.6747 9.19C74.8147 9.19667 74.9347 9.2 75.0347 9.2C75.168 9.2 75.338 9.19667 75.5447 9.19C75.758 9.18333 75.978 9.17333 76.2047 9.16C76.4314 9.14667 76.6447 9.13667 76.8447 9.13C77.0447 9.11667 77.1947 9.10667 77.2947 9.1C77.3947 9.08667 77.4847 9.07333 77.5647 9.06C77.6514 9.04 77.728 9.01667 77.7947 8.99L78.2947 9.4C78.248 9.45333 78.2014 9.50667 78.1547 9.56C78.1147 9.61333 78.0747 9.67 78.0347 9.73C77.928 9.90333 77.8014 10.15 77.6547 10.47C77.508 10.7833 77.3514 11.1267 77.1847 11.5C77.0247 11.8667 76.8647 12.22 76.7047 12.56C76.6047 12.7867 76.4947 13.0333 76.3747 13.3C76.2614 13.56 76.1447 13.8267 76.0247 14.1C75.9047 14.3667 75.7847 14.6167 75.6647 14.85C75.5514 15.0833 75.4414 15.2767 75.3347 15.43C75.1547 15.6833 74.9647 15.8633 74.7647 15.97C74.5647 16.07 74.3347 16.12 74.0747 16.12C73.7014 16.12 73.3914 15.9967 73.1447 15.75C72.898 15.5033 72.7747 15.17 72.7747 14.75C72.7747 14.3767 72.858 14.03 73.0247 13.71C73.198 13.3833 73.4347 13.1 73.7347 12.86C74.0414 12.62 74.4047 12.4333 74.8247 12.3C75.2514 12.1667 75.718 12.1 76.2247 12.1C76.7847 12.1 77.3247 12.1667 77.8447 12.3C78.3714 12.4267 78.8614 12.5933 79.3147 12.8C79.7747 13 80.1914 13.2133 80.5647 13.44C80.9447 13.66 81.268 13.8667 81.5347 14.06L81.1647 14.92C80.8714 14.6667 80.5414 14.4167 80.1747 14.17C79.808 13.9167 79.408 13.6867 78.9747 13.48C78.5414 13.2733 78.0814 13.1067 77.5947 12.98C77.1147 12.8533 76.618 12.79 76.1047 12.79C75.558 12.79 75.088 12.8833 74.6947 13.07C74.308 13.25 74.0114 13.4833 73.8047 13.77C73.6047 14.05 73.5047 14.3433 73.5047 14.65C73.5047 14.87 73.5647 15.04 73.6847 15.16C73.8114 15.2733 73.9514 15.33 74.1047 15.33C74.218 15.33 74.3214 15.3033 74.4147 15.25C74.508 15.1967 74.6047 15.1067 74.7047 14.98C74.8114 14.84 74.918 14.67 75.0247 14.47C75.1314 14.27 75.238 14.0533 75.3447 13.82C75.4514 13.5867 75.5547 13.35 75.6547 13.11C75.7547 12.87 75.8547 12.6467 75.9547 12.44C76.088 12.1467 76.2214 11.8433 76.3547 11.53C76.4947 11.2167 76.6314 10.9133 76.7647 10.62C76.9047 10.3267 77.0314 10.06 77.1447 9.82C77.0447 9.82667 76.9014 9.83333 76.7147 9.84C76.5347 9.84667 76.338 9.85667 76.1247 9.87C75.9114 9.87667 75.708 9.88667 75.5147 9.9C75.328 9.90667 75.178 9.91333 75.0647 9.92C74.958 9.92667 74.838 9.93667 74.7047 9.95C74.5714 9.95667 74.4447 9.96667 74.3247 9.98L74.2847 9.17ZM80.5347 11.36C80.5014 12.0667 80.4314 12.71 80.3247 13.29C80.218 13.87 80.0547 14.3933 79.8347 14.86C79.6147 15.3267 79.3147 15.7467 78.9347 16.12C78.5547 16.4867 78.0747 16.8133 77.4947 17.1L76.8347 16.55C77.4214 16.3033 77.898 16.01 78.2647 15.67C78.6314 15.3233 78.9147 14.9533 79.1147 14.56C79.3214 14.16 79.4647 13.7567 79.5447 13.35C79.6314 12.9433 79.6914 12.5567 79.7247 12.19C79.7314 12.0367 79.7347 11.88 79.7347 11.72C79.7414 11.56 79.738 11.41 79.7247 11.27L80.5347 11.36ZM84.8691 11.64C85.0691 11.64 85.2491 11.6867 85.4091 11.78C85.5691 11.8733 85.6958 12 85.7891 12.16C85.8825 12.32 85.9291 12.5 85.9291 12.7C85.9291 12.8933 85.8825 13.0733 85.7891 13.24C85.6958 13.4 85.5691 13.5267 85.4091 13.62C85.2491 13.7133 85.0691 13.76 84.8691 13.76C84.6758 13.76 84.4958 13.7133 84.3291 13.62C84.1691 13.5267 84.0425 13.4 83.9491 13.24C83.8558 13.0733 83.8091 12.8933 83.8091 12.7C83.8091 12.5 83.8558 12.32 83.9491 12.16C84.0425 12 84.1691 11.8733 84.3291 11.78C84.4958 11.6867 84.6758 11.64 84.8691 11.64ZM9.44098 26.19H18.601V27.01H9.44098V26.19ZM23.981 22.41H24.821C24.8076 22.67 24.7843 23.0133 24.751 23.44C24.7176 23.8667 24.6543 24.35 24.561 24.89C24.4743 25.4233 24.3376 25.98 24.151 26.56C23.9643 27.14 23.7143 27.7133 23.401 28.28C23.0876 28.8467 22.6876 29.3833 22.201 29.89C21.721 30.3967 21.1343 30.8367 20.441 31.21C20.381 31.1167 20.2943 31.0167 20.181 30.91C20.0676 30.8033 19.951 30.71 19.831 30.63C20.5176 30.2767 21.0943 29.8633 21.561 29.39C22.0276 28.9167 22.411 28.41 22.711 27.87C23.011 27.33 23.2443 26.7867 23.411 26.24C23.5776 25.6867 23.701 25.16 23.781 24.66C23.861 24.16 23.911 23.7167 23.931 23.33C23.9576 22.9367 23.9743 22.63 23.981 22.41ZM24.781 22.61C24.7876 22.7233 24.801 22.92 24.821 23.2C24.8476 23.4733 24.8943 23.8067 24.961 24.2C25.0276 24.5933 25.1243 25.02 25.251 25.48C25.3776 25.94 25.5476 26.4133 25.761 26.9C25.9743 27.3867 26.2376 27.86 26.551 28.32C26.8643 28.78 27.241 29.2067 27.681 29.6C28.121 29.9867 28.6376 30.3133 29.231 30.58C29.1176 30.6667 29.0076 30.7667 28.901 30.88C28.801 31 28.7176 31.11 28.651 31.21C28.051 30.9233 27.521 30.5733 27.061 30.16C26.6076 29.74 26.2176 29.2867 25.891 28.8C25.571 28.3067 25.301 27.8033 25.081 27.29C24.8676 26.7767 24.6943 26.2767 24.561 25.79C24.4276 25.2967 24.3276 24.84 24.261 24.42C24.1943 23.9933 24.1476 23.63 24.121 23.33C24.0943 23.0233 24.0776 22.8033 24.071 22.67L24.781 22.61ZM32.611 29.45H37.471V29.9H32.611V29.45ZM32.611 30.5H37.471V31.01H32.611V30.5ZM32.201 28.35H37.921V31.31H37.151V28.87H32.941V31.31H32.201V28.35ZM30.521 27.14H39.491V27.75H30.521V27.14ZM33.611 26.44L34.361 26.57C34.061 27.1767 33.621 27.7467 33.041 28.28C32.461 28.8067 31.7043 29.26 30.771 29.64C30.7443 29.58 30.7043 29.5167 30.651 29.45C30.6043 29.3767 30.551 29.31 30.491 29.25C30.4376 29.1833 30.3876 29.13 30.341 29.09C30.921 28.8767 31.4276 28.63 31.861 28.35C32.2943 28.0633 32.6543 27.7567 32.941 27.43C33.2343 27.0967 33.4576 26.7667 33.611 26.44ZM36.831 27.32C37.0243 27.5533 37.2743 27.7767 37.581 27.99C37.8943 28.1967 38.231 28.3833 38.591 28.55C38.9576 28.71 39.3243 28.8367 39.691 28.93C39.6176 28.9967 39.5343 29.0867 39.441 29.2C39.3543 29.3133 39.2876 29.4133 39.241 29.5C38.861 29.38 38.4843 29.2233 38.111 29.03C37.7376 28.83 37.391 28.6033 37.071 28.35C36.7576 28.09 36.491 27.82 36.271 27.54L36.831 27.32ZM32.541 25.53V26.14H37.521V25.53H32.541ZM32.541 24.46V25.06H37.521V24.46H32.541ZM31.831 23.97H38.261V26.63H31.831V23.97ZM30.561 22.75H39.471V23.37H30.561V22.75ZM32.951 22.1H33.681V23.86H32.951V22.1ZM36.271 22.1H37.011V23.86H36.271V22.1ZM43.0795 22.66C43.2928 22.7267 43.5695 22.8 43.9095 22.88C44.2562 22.96 44.6195 23.04 44.9995 23.12C45.3862 23.1933 45.7528 23.26 46.0995 23.32C46.4462 23.3733 46.7295 23.41 46.9495 23.43L46.7595 24.2C46.5728 24.1733 46.3428 24.1367 46.0695 24.09C45.8028 24.0433 45.5162 23.99 45.2095 23.93C44.9028 23.87 44.5995 23.81 44.2995 23.75C43.9995 23.6833 43.7262 23.6233 43.4795 23.57C43.2328 23.51 43.0328 23.46 42.8795 23.42L43.0795 22.66ZM42.8595 24.48C42.8262 24.6533 42.7895 24.8667 42.7495 25.12C42.7162 25.3667 42.6795 25.6267 42.6395 25.9C42.5995 26.1733 42.5628 26.4333 42.5295 26.68C42.4962 26.9267 42.4662 27.13 42.4395 27.29C42.9262 26.87 43.4395 26.5633 43.9795 26.37C44.5262 26.17 45.0995 26.07 45.6995 26.07C46.2128 26.07 46.6595 26.1633 47.0395 26.35C47.4195 26.53 47.7162 26.78 47.9295 27.1C48.1428 27.4133 48.2495 27.7667 48.2495 28.16C48.2495 28.6067 48.1462 29.0133 47.9395 29.38C47.7395 29.74 47.4228 30.0433 46.9895 30.29C46.5628 30.5367 46.0162 30.71 45.3495 30.81C44.6828 30.9167 43.8828 30.93 42.9495 30.85L42.7095 30.03C43.7695 30.1567 44.6462 30.1533 45.3395 30.02C46.0328 29.88 46.5495 29.6467 46.8895 29.32C47.2362 28.9867 47.4095 28.5933 47.4095 28.14C47.4095 27.8733 47.3328 27.6367 47.1795 27.43C47.0262 27.2233 46.8162 27.0633 46.5495 26.95C46.2895 26.83 45.9895 26.77 45.6495 26.77C44.9962 26.77 44.4028 26.89 43.8695 27.13C43.3428 27.3633 42.9028 27.69 42.5495 28.11C42.4762 28.1967 42.4162 28.2833 42.3695 28.37C42.3228 28.45 42.2828 28.53 42.2495 28.61L41.5095 28.43C41.5495 28.2433 41.5895 28.02 41.6295 27.76C41.6695 27.4933 41.7095 27.21 41.7495 26.91C41.7895 26.6033 41.8262 26.2967 41.8595 25.99C41.8995 25.6833 41.9328 25.39 41.9595 25.11C41.9862 24.8233 42.0062 24.5767 42.0195 24.37L42.8595 24.48ZM52.2916 22.71C52.2649 22.8767 52.2449 23.0467 52.2316 23.22C52.2183 23.3867 52.2083 23.5533 52.2016 23.72C52.1883 24 52.1749 24.3467 52.1616 24.76C52.1483 25.1733 52.1349 25.6133 52.1216 26.08C52.1083 26.54 52.0983 27 52.0916 27.46C52.0849 27.92 52.0816 28.3333 52.0816 28.7C52.0816 29.0667 52.1516 29.36 52.2916 29.58C52.4316 29.8 52.6249 29.9567 52.8716 30.05C53.1183 30.1433 53.4016 30.19 53.7216 30.19C54.1749 30.19 54.5849 30.1333 54.9516 30.02C55.3183 29.9 55.6449 29.7433 55.9316 29.55C56.2183 29.35 56.4716 29.1267 56.6916 28.88C56.9183 28.6333 57.1216 28.38 57.3016 28.12L57.8716 28.8C57.6983 29.04 57.4849 29.29 57.2316 29.55C56.9849 29.8033 56.6916 30.04 56.3516 30.26C56.0116 30.48 55.6183 30.66 55.1716 30.8C54.7316 30.94 54.2383 31.01 53.6916 31.01C53.2183 31.01 52.7983 30.9367 52.4316 30.79C52.0649 30.6433 51.7783 30.4067 51.5716 30.08C51.3649 29.7533 51.2616 29.32 51.2616 28.78C51.2616 28.48 51.2649 28.15 51.2716 27.79C51.2783 27.4233 51.2883 27.0467 51.3016 26.66C51.3149 26.2733 51.3249 25.8967 51.3316 25.53C51.3383 25.1567 51.3449 24.8133 51.3516 24.5C51.3583 24.1867 51.3616 23.9267 51.3616 23.72C51.3616 23.5333 51.3549 23.3533 51.3416 23.18C51.3283 23.0067 51.3083 22.8467 51.2816 22.7L52.2916 22.71ZM59.5801 23.89H67.6401V28.59H66.8701V24.62H60.3301V28.64H59.5801V23.89ZM59.9801 27.28H67.3201V28.02H59.9801V27.28ZM63.2001 22.1H63.9901V31.29H63.2001V22.1ZM74.6039 23.67C74.5372 24.19 74.4505 24.7333 74.3439 25.3C74.2439 25.8667 74.1139 26.4167 73.9539 26.95C73.7539 27.6367 73.5305 28.21 73.2839 28.67C73.0439 29.13 72.7839 29.4767 72.5039 29.71C72.2239 29.9433 71.9305 30.06 71.6239 30.06C71.3305 30.06 71.0472 29.9533 70.7739 29.74C70.5005 29.5267 70.2772 29.22 70.1039 28.82C69.9305 28.4133 69.8439 27.9367 69.8439 27.39C69.8439 26.8433 69.9539 26.3267 70.1739 25.84C70.4005 25.3533 70.7105 24.9233 71.1039 24.55C71.5039 24.17 71.9705 23.87 72.5039 23.65C73.0372 23.43 73.6072 23.32 74.2139 23.32C74.8005 23.32 75.3272 23.4167 75.7939 23.61C76.2672 23.8033 76.6705 24.07 77.0039 24.41C77.3372 24.7433 77.5939 25.1333 77.7739 25.58C77.9539 26.02 78.0439 26.4933 78.0439 27C78.0439 27.7 77.8939 28.3167 77.5939 28.85C77.3005 29.3833 76.8739 29.8167 76.3139 30.15C75.7605 30.4833 75.0872 30.7033 74.2939 30.81L73.8239 30.07C73.9839 30.05 74.1372 30.03 74.2839 30.01C74.4305 29.99 74.5639 29.9667 74.6839 29.94C75.0039 29.8667 75.3139 29.7533 75.6139 29.6C75.9205 29.44 76.1939 29.24 76.4339 29C76.6739 28.7533 76.8639 28.4633 77.0039 28.13C77.1505 27.79 77.2239 27.4033 77.2239 26.97C77.2239 26.5633 77.1572 26.1867 77.0239 25.84C76.8905 25.4867 76.6939 25.1767 76.4339 24.91C76.1739 24.6433 75.8572 24.4333 75.4839 24.28C75.1105 24.1267 74.6839 24.05 74.2039 24.05C73.6572 24.05 73.1605 24.15 72.7139 24.35C72.2739 24.55 71.8972 24.8133 71.5839 25.14C71.2772 25.46 71.0405 25.8133 70.8739 26.2C70.7072 26.58 70.6239 26.9533 70.6239 27.32C70.6239 27.74 70.6772 28.0867 70.7839 28.36C70.8972 28.6267 71.0305 28.8233 71.1839 28.95C71.3439 29.0767 71.5005 29.14 71.6539 29.14C71.8139 29.14 71.9772 29.0633 72.1439 28.91C72.3105 28.75 72.4805 28.4967 72.6539 28.15C72.8272 27.7967 72.9972 27.34 73.1639 26.78C73.3105 26.3 73.4339 25.79 73.5339 25.25C73.6405 24.71 73.7172 24.18 73.7639 23.66L74.6039 23.67ZM79.7888 23.83H88.7388V24.55H79.7888V23.83ZM83.0588 26.19H87.0488V26.91H83.0588V26.19ZM86.7788 26.19H87.5588C87.5588 26.19 87.5555 26.2133 87.5488 26.26C87.5488 26.3067 87.5455 26.36 87.5388 26.42C87.5388 26.4733 87.5355 26.52 87.5288 26.56C87.4621 27.5133 87.3921 28.29 87.3188 28.89C87.2455 29.4833 87.1621 29.94 87.0688 30.26C86.9755 30.58 86.8621 30.8067 86.7288 30.94C86.6155 31.06 86.4921 31.1433 86.3588 31.19C86.2255 31.2367 86.0621 31.2667 85.8688 31.28C85.6955 31.2933 85.4555 31.2967 85.1488 31.29C84.8421 31.2833 84.5221 31.27 84.1888 31.25C84.1821 31.1433 84.1521 31.02 84.0988 30.88C84.0521 30.7467 83.9921 30.6267 83.9188 30.52C84.2788 30.5467 84.6188 30.5633 84.9388 30.57C85.2588 30.5833 85.4821 30.59 85.6088 30.59C85.7221 30.59 85.8155 30.5833 85.8888 30.57C85.9688 30.5567 86.0355 30.5233 86.0888 30.47C86.1955 30.3767 86.2888 30.18 86.3688 29.88C86.4488 29.5733 86.5221 29.1333 86.5888 28.56C86.6555 27.98 86.7188 27.2333 86.7788 26.32V26.19ZM82.8788 24.23H83.7188C83.6921 24.7633 83.6488 25.3033 83.5888 25.85C83.5288 26.39 83.4321 26.9267 83.2988 27.46C83.1721 27.9867 82.9821 28.49 82.7288 28.97C82.4821 29.45 82.1555 29.89 81.7488 30.29C81.3421 30.69 80.8355 31.04 80.2288 31.34C80.1688 31.24 80.0855 31.13 79.9788 31.01C79.8788 30.8967 79.7788 30.8033 79.6788 30.73C80.2655 30.4633 80.7488 30.1467 81.1288 29.78C81.5088 29.4067 81.8121 29 82.0388 28.56C82.2655 28.1133 82.4355 27.6467 82.5488 27.16C82.6621 26.6733 82.7388 26.1833 82.7788 25.69C82.8255 25.19 82.8588 24.7033 82.8788 24.23ZM83.8388 22.07H84.6088V24.14H83.8388V22.07ZM90.7488 23.83H98.3588V24.56H91.4888V31.3H90.7488V23.83ZM98.0788 23.83H98.8288V30.3C98.8288 30.5467 98.7955 30.7367 98.7288 30.87C98.6621 31.0033 98.5388 31.1033 98.3588 31.17C98.1788 31.23 97.9321 31.2667 97.6188 31.28C97.3055 31.2933 96.9188 31.3 96.4588 31.3C96.4521 31.2267 96.4321 31.1433 96.3988 31.05C96.3721 30.9633 96.3421 30.87 96.3088 30.77C96.2755 30.6767 96.2388 30.5933 96.1988 30.52C96.4388 30.5333 96.6688 30.54 96.8888 30.54C97.1155 30.5467 97.3088 30.5467 97.4688 30.54C97.6355 30.54 97.7521 30.54 97.8188 30.54C97.9255 30.54 97.9955 30.5233 98.0288 30.49C98.0621 30.45 98.0788 30.3867 98.0788 30.3V23.83ZM94.1388 22.08L95.0688 22.23C94.9221 22.59 94.7588 22.9567 94.5788 23.33C94.3988 23.7033 94.2321 24.0233 94.0788 24.29L93.3688 24.11C93.4621 23.9233 93.5555 23.71 93.6488 23.47C93.7488 23.23 93.8421 22.99 93.9288 22.75C94.0221 22.5033 94.0921 22.28 94.1388 22.08ZM92.7988 25.89H93.4888V29.92H92.7988V25.89ZM93.1188 25.89H96.7188V29.2H93.1188V28.52H96.0188V26.56H93.1188V25.89ZM107.83 22.7C107.816 22.7867 107.806 22.88 107.8 22.98C107.8 23.0733 107.8 23.1767 107.8 23.29C107.793 23.3633 107.79 23.4833 107.79 23.65C107.796 23.8167 107.8 24.0067 107.8 24.22C107.806 24.4267 107.81 24.64 107.81 24.86C107.816 25.08 107.82 25.2833 107.82 25.47C107.82 25.65 107.82 25.7967 107.82 25.91C107.82 26.4833 107.806 27.0167 107.78 27.51C107.76 28.0033 107.686 28.4633 107.56 28.89C107.433 29.3167 107.223 29.7133 106.93 30.08C106.643 30.44 106.233 30.7767 105.7 31.09L104.97 30.52C105.13 30.4533 105.3 30.3633 105.48 30.25C105.666 30.1367 105.82 30.02 105.94 29.9C106.206 29.6667 106.416 29.4167 106.57 29.15C106.723 28.8833 106.833 28.59 106.9 28.27C106.973 27.95 107.02 27.5967 107.04 27.21C107.06 26.8233 107.07 26.39 107.07 25.91C107.07 25.75 107.066 25.5467 107.06 25.3C107.053 25.0467 107.046 24.7867 107.04 24.52C107.033 24.2467 107.026 24 107.02 23.78C107.013 23.56 107.003 23.4 106.99 23.3C106.983 23.1867 106.97 23.08 106.95 22.98C106.93 22.8733 106.913 22.78 106.9 22.7H107.83ZM104.18 24.77C104.326 24.79 104.49 24.81 104.67 24.83C104.85 24.85 105.036 24.8633 105.23 24.87C105.43 24.8767 105.616 24.88 105.79 24.88C106.203 24.88 106.626 24.87 107.06 24.85C107.5 24.83 107.923 24.7967 108.33 24.75C108.743 24.7033 109.113 24.6433 109.44 24.57V25.39C109.12 25.4367 108.756 25.48 108.35 25.52C107.95 25.56 107.53 25.59 107.09 25.61C106.656 25.6233 106.226 25.63 105.8 25.63C105.64 25.63 105.46 25.6267 105.26 25.62C105.066 25.6133 104.873 25.6067 104.68 25.6C104.493 25.5933 104.326 25.5833 104.18 25.57V24.77ZM102.77 22.85C102.743 22.9433 102.713 23.0533 102.68 23.18C102.653 23.3 102.626 23.4067 102.6 23.5C102.52 23.86 102.443 24.26 102.37 24.7C102.296 25.14 102.24 25.5967 102.2 26.07C102.16 26.5433 102.146 27.01 102.16 27.47C102.173 27.93 102.226 28.3667 102.32 28.78C102.393 28.5667 102.476 28.32 102.57 28.04C102.67 27.76 102.766 27.4967 102.86 27.25L103.29 27.51C103.21 27.7367 103.126 27.9933 103.04 28.28C102.953 28.56 102.873 28.83 102.8 29.09C102.726 29.3433 102.673 29.5533 102.64 29.72C102.62 29.7933 102.603 29.8733 102.59 29.96C102.583 30.0467 102.583 30.1167 102.59 30.17C102.596 30.2233 102.6 30.28 102.6 30.34C102.606 30.4 102.613 30.4567 102.62 30.51L101.94 30.59C101.873 30.39 101.796 30.12 101.71 29.78C101.63 29.44 101.56 29.0667 101.5 28.66C101.44 28.2467 101.41 27.8333 101.41 27.42C101.41 26.8733 101.433 26.35 101.48 25.85C101.533 25.35 101.59 24.89 101.65 24.47C101.71 24.05 101.756 23.7033 101.79 23.43C101.81 23.31 101.823 23.19 101.83 23.07C101.836 22.95 101.84 22.8467 101.84 22.76L102.77 22.85Z" fill="#0B2188"/>
</svg>
