<svg width="110" height="49" viewBox="0 0 110 49" fill="none" xmlns="http://www.w3.org/2000/svg">
<path d="M105.509 0.5C105.509 0.5 5.25067 0.5 3.55939 0.5C1.86811 0.5 0.5 1.97332 0.5 3.79468V35.4026C0.5 37.224 1.86811 38.6973 3.55939 38.6973H21.5623L30.1265 47.9201C30.7297 48.5697 31.7101 48.5697 32.3133 47.9201C32.9166 47.2704 32.9166 46.2147 32.3133 45.5651L25.936 38.6973H105.509C107.2 38.6973 108.568 37.224 108.568 35.4026V3.79468C108.568 1.97332 107.2 0.5 105.509 0.5Z" fill="white" stroke="#0B2188" stroke-linejoin="round"/>
<path d="M37.391 9.48C37.751 9.52667 38.1543 9.56 38.601 9.58C39.0543 9.6 39.531 9.61 40.031 9.61C40.351 9.61 40.671 9.60333 40.991 9.59C41.3177 9.57667 41.6277 9.56 41.921 9.54C42.221 9.51333 42.491 9.49 42.731 9.47V10.29C42.5043 10.3033 42.241 10.32 41.941 10.34C41.641 10.36 41.3243 10.3767 40.991 10.39C40.6643 10.4033 40.3443 10.41 40.031 10.41C39.531 10.41 39.0643 10.4 38.631 10.38C38.1977 10.3533 37.7843 10.3267 37.391 10.3V9.48ZM37.791 13.51C37.7243 13.71 37.671 13.9033 37.631 14.09C37.5977 14.2767 37.581 14.4633 37.581 14.65C37.581 15.03 37.7777 15.34 38.171 15.58C38.5643 15.82 39.161 15.94 39.961 15.94C40.421 15.94 40.8643 15.9233 41.291 15.89C41.7177 15.8567 42.1077 15.81 42.461 15.75C42.821 15.69 43.1277 15.62 43.381 15.54L43.391 16.4C43.151 16.4667 42.8543 16.5267 42.501 16.58C42.1543 16.6333 41.7677 16.6733 41.341 16.7C40.9143 16.7333 40.461 16.75 39.981 16.75C39.3077 16.75 38.731 16.6767 38.251 16.53C37.771 16.3833 37.4043 16.1667 37.151 15.88C36.8977 15.5933 36.771 15.24 36.771 14.82C36.771 14.56 36.7943 14.3133 36.841 14.08C36.8877 13.8467 36.9343 13.63 36.981 13.43L37.791 13.51ZM54.7341 15.74C54.4675 16.0067 54.1808 16.2133 53.8741 16.36C53.5675 16.5 53.2408 16.57 52.8941 16.57C52.5675 16.57 52.3008 16.4633 52.0941 16.25C51.8875 16.0367 51.7841 15.7233 51.7841 15.31C51.7841 15.03 51.8041 14.7267 51.8441 14.4C51.8841 14.0733 51.9275 13.74 51.9741 13.4C52.0208 13.0533 52.0641 12.7267 52.1041 12.42C52.1441 12.1067 52.1641 11.8267 52.1641 11.58C52.1641 11.2933 52.0941 11.0867 51.9541 10.96C51.8141 10.8267 51.6141 10.76 51.3541 10.76C51.1208 10.76 50.8608 10.83 50.5741 10.97C50.2875 11.1033 49.9941 11.2867 49.6941 11.52C49.3941 11.7467 49.1008 12.0033 48.8141 12.29C48.5275 12.57 48.2641 12.85 48.0241 13.13L48.0441 12.14C48.1708 12.0067 48.3308 11.85 48.5241 11.67C48.7241 11.49 48.9441 11.3033 49.1841 11.11C49.4308 10.9167 49.6908 10.7367 49.9641 10.57C50.2375 10.4033 50.5075 10.27 50.7741 10.17C51.0475 10.07 51.3075 10.02 51.5541 10.02C51.8675 10.02 52.1275 10.0767 52.3341 10.19C52.5408 10.2967 52.6941 10.4533 52.7941 10.66C52.8941 10.86 52.9441 11.0933 52.9441 11.36C52.9441 11.6067 52.9241 11.8933 52.8841 12.22C52.8508 12.54 52.8075 12.8733 52.7541 13.22C52.7075 13.5667 52.6641 13.9033 52.6241 14.23C52.5908 14.5567 52.5741 14.8467 52.5741 15.1C52.5741 15.2667 52.6141 15.41 52.6941 15.53C52.7808 15.65 52.9141 15.71 53.0941 15.71C53.3341 15.71 53.5808 15.64 53.8341 15.5C54.0941 15.3533 54.3508 15.1467 54.6041 14.88L54.7341 15.74ZM48.0141 10.96C47.9341 10.9667 47.8108 10.9833 47.6441 11.01C47.4841 11.03 47.3008 11.0533 47.0941 11.08C46.8875 11.1067 46.6775 11.1367 46.4641 11.17C46.2508 11.1967 46.0508 11.2233 45.8641 11.25L45.7841 10.43C45.8908 10.4367 45.9941 10.44 46.0941 10.44C46.2008 10.4333 46.3141 10.4267 46.4341 10.42C46.5741 10.4133 46.7441 10.4 46.9441 10.38C47.1508 10.3533 47.3641 10.3267 47.5841 10.3C47.8108 10.2667 48.0208 10.2333 48.2141 10.2C48.4141 10.16 48.5708 10.12 48.6841 10.08L48.9741 10.43C48.9141 10.51 48.8475 10.61 48.7741 10.73C48.7008 10.8433 48.6275 10.96 48.5541 11.08C48.4808 11.2 48.4175 11.3067 48.3641 11.4L48.0541 12.76C47.9408 12.94 47.8008 13.1533 47.6341 13.4C47.4675 13.6467 47.2908 13.9067 47.1041 14.18C46.9241 14.4467 46.7408 14.7133 46.5541 14.98C46.3675 15.24 46.1975 15.48 46.0441 15.7L45.5341 15.01C45.6608 14.8567 45.8075 14.67 45.9741 14.45C46.1475 14.2233 46.3275 13.98 46.5141 13.72C46.7075 13.46 46.8941 13.2067 47.0741 12.96C47.2608 12.7067 47.4241 12.4733 47.5641 12.26C47.7108 12.0467 47.8208 11.8733 47.8941 11.74L47.9341 11.23L48.0141 10.96ZM47.9241 9.3C47.9241 9.18667 47.9208 9.06667 47.9141 8.94C47.9141 8.81333 47.9041 8.68667 47.8841 8.56L48.8241 8.59C48.7975 8.72333 48.7641 8.93333 48.7241 9.22C48.6841 9.5 48.6441 9.83333 48.6041 10.22C48.5708 10.6067 48.5341 11.0133 48.4941 11.44C48.4608 11.8667 48.4341 12.29 48.4141 12.71C48.3941 13.1233 48.3841 13.5067 48.3841 13.86C48.3841 14.16 48.3841 14.44 48.3841 14.7C48.3841 14.9533 48.3875 15.2067 48.3941 15.46C48.4008 15.7067 48.4108 15.9767 48.4241 16.27C48.4308 16.3567 48.4375 16.4567 48.4441 16.57C48.4508 16.6833 48.4608 16.7867 48.4741 16.88H47.6041C47.6175 16.7867 47.6241 16.6833 47.6241 16.57C47.6308 16.4633 47.6341 16.37 47.6341 16.29C47.6408 15.97 47.6441 15.6867 47.6441 15.44C47.6441 15.1933 47.6441 14.94 47.6441 14.68C47.6508 14.4133 47.6575 14.0967 47.6641 13.73C47.6641 13.5833 47.6708 13.3833 47.6841 13.13C47.6975 12.87 47.7141 12.5867 47.7341 12.28C47.7541 11.9667 47.7741 11.65 47.7941 11.33C47.8141 11.01 47.8341 10.71 47.8541 10.43C47.8741 10.1433 47.8908 9.9 47.9041 9.7C47.9175 9.5 47.9241 9.36667 47.9241 9.3ZM59.63 8.7C59.61 8.78667 59.59 8.88333 59.57 8.99C59.55 9.09 59.53 9.19 59.51 9.29C59.49 9.41 59.46 9.57333 59.42 9.78C59.3867 9.98667 59.35 10.2067 59.31 10.44C59.27 10.6667 59.2233 10.8833 59.17 11.09C59.1033 11.3767 59.02 11.7 58.92 12.06C58.82 12.4133 58.7067 12.79 58.58 13.19C58.4533 13.59 58.31 14 58.15 14.42C57.99 14.8333 57.8133 15.2467 57.62 15.66C57.4267 16.0667 57.2167 16.45 56.99 16.81L56.17 16.49C56.4033 16.1833 56.6167 15.84 56.81 15.46C57.01 15.08 57.1933 14.6867 57.36 14.28C57.5267 13.8667 57.6767 13.46 57.81 13.06C57.95 12.66 58.0667 12.29 58.16 11.95C58.2533 11.61 58.3267 11.3167 58.38 11.07C58.4733 10.67 58.55 10.2567 58.61 9.83C58.67 9.39667 58.7 8.98667 58.7 8.6L59.63 8.7ZM63.07 9.76C63.23 9.96667 63.3967 10.2233 63.57 10.53C63.75 10.8367 63.9233 11.1633 64.09 11.51C64.2633 11.8567 64.42 12.19 64.56 12.51C64.7 12.83 64.8133 13.1067 64.9 13.34L64.12 13.71C64.0467 13.4567 63.9467 13.1667 63.82 12.84C63.6933 12.5067 63.5467 12.17 63.38 11.83C63.22 11.4833 63.05 11.16 62.87 10.86C62.6967 10.5533 62.52 10.2967 62.34 10.09L63.07 9.76ZM56.03 10.89C56.1833 10.9033 56.33 10.91 56.47 10.91C56.61 10.9033 56.76 10.8967 56.92 10.89C57.0733 10.8833 57.2667 10.8733 57.5 10.86C57.7333 10.84 57.9867 10.82 58.26 10.8C58.54 10.78 58.8133 10.76 59.08 10.74C59.3533 10.7133 59.6033 10.6933 59.83 10.68C60.0633 10.66 60.2467 10.65 60.38 10.65C60.68 10.65 60.95 10.6967 61.19 10.79C61.4367 10.8833 61.6333 11.0533 61.78 11.3C61.9267 11.5467 62 11.8933 62 12.34C62 12.7333 61.98 13.16 61.94 13.62C61.9067 14.0733 61.8467 14.5067 61.76 14.92C61.6733 15.3333 61.56 15.6767 61.42 15.95C61.2667 16.29 61.0667 16.5133 60.82 16.62C60.5733 16.7333 60.2867 16.79 59.96 16.79C59.7733 16.79 59.57 16.7733 59.35 16.74C59.13 16.7133 58.94 16.68 58.78 16.64L58.65 15.81C58.7967 15.85 58.9433 15.8867 59.09 15.92C59.2433 15.9533 59.39 15.9767 59.53 15.99C59.67 16.0033 59.7867 16.01 59.88 16.01C60.06 16.01 60.2233 15.98 60.37 15.92C60.5233 15.8533 60.65 15.7133 60.75 15.5C60.8567 15.2733 60.9433 14.99 61.01 14.65C61.0833 14.3033 61.1367 13.9367 61.17 13.55C61.21 13.1633 61.23 12.7933 61.23 12.44C61.23 12.1267 61.1867 11.8967 61.1 11.75C61.0133 11.5967 60.89 11.4933 60.73 11.44C60.57 11.38 60.3833 11.35 60.17 11.35C59.9967 11.35 59.7667 11.3633 59.48 11.39C59.1933 11.41 58.8867 11.4367 58.56 11.47C58.24 11.5033 57.94 11.5367 57.66 11.57C57.38 11.5967 57.1633 11.62 57.01 11.64C56.8967 11.6533 56.75 11.6733 56.57 11.7C56.3967 11.72 56.2433 11.74 56.11 11.76L56.03 10.89ZM68.1625 8.66C68.3758 8.72667 68.6525 8.8 68.9925 8.88C69.3392 8.96 69.7025 9.04 70.0825 9.12C70.4692 9.19333 70.8358 9.26 71.1825 9.32C71.5292 9.37333 71.8125 9.41 72.0325 9.43L71.8425 10.2C71.6558 10.1733 71.4258 10.1367 71.1525 10.09C70.8858 10.0433 70.5992 9.99 70.2925 9.93C69.9858 9.87 69.6825 9.81 69.3825 9.75C69.0825 9.68333 68.8092 9.62333 68.5625 9.57C68.3158 9.51 68.1158 9.46 67.9625 9.42L68.1625 8.66ZM67.9425 10.48C67.9092 10.6533 67.8725 10.8667 67.8325 11.12C67.7992 11.3667 67.7625 11.6267 67.7225 11.9C67.6825 12.1733 67.6458 12.4333 67.6125 12.68C67.5792 12.9267 67.5492 13.13 67.5225 13.29C68.0092 12.87 68.5225 12.5633 69.0625 12.37C69.6092 12.17 70.1825 12.07 70.7825 12.07C71.2958 12.07 71.7425 12.1633 72.1225 12.35C72.5025 12.53 72.7992 12.78 73.0125 13.1C73.2258 13.4133 73.3325 13.7667 73.3325 14.16C73.3325 14.6067 73.2292 15.0133 73.0225 15.38C72.8225 15.74 72.5058 16.0433 72.0725 16.29C71.6458 16.5367 71.0992 16.71 70.4325 16.81C69.7658 16.9167 68.9658 16.93 68.0325 16.85L67.7925 16.03C68.8525 16.1567 69.7292 16.1533 70.4225 16.02C71.1158 15.88 71.6325 15.6467 71.9725 15.32C72.3192 14.9867 72.4925 14.5933 72.4925 14.14C72.4925 13.8733 72.4158 13.6367 72.2625 13.43C72.1092 13.2233 71.8992 13.0633 71.6325 12.95C71.3725 12.83 71.0725 12.77 70.7325 12.77C70.0792 12.77 69.4858 12.89 68.9525 13.13C68.4258 13.3633 67.9858 13.69 67.6325 14.11C67.5592 14.1967 67.4992 14.2833 67.4525 14.37C67.4058 14.45 67.3658 14.53 67.3325 14.61L66.5925 14.43C66.6325 14.2433 66.6725 14.02 66.7125 13.76C66.7525 13.4933 66.7925 13.21 66.8325 12.91C66.8725 12.6033 66.9092 12.2967 66.9425 11.99C66.9825 11.6833 67.0158 11.39 67.0425 11.11C67.0692 10.8233 67.0892 10.5767 67.1025 10.37L67.9425 10.48ZM14.228 26.94H14.998C14.998 26.94 14.9947 26.9633 14.988 27.01C14.988 27.05 14.988 27.0967 14.988 27.15C14.988 27.2033 14.9847 27.25 14.978 27.29C14.918 28.0767 14.8547 28.7167 14.788 29.21C14.728 29.7033 14.6547 30.0867 14.568 30.36C14.488 30.6333 14.3913 30.83 14.278 30.95C14.1713 31.0633 14.0547 31.14 13.928 31.18C13.808 31.2267 13.6547 31.2567 13.468 31.27C13.308 31.2833 13.0813 31.2867 12.788 31.28C12.5013 31.28 12.198 31.2733 11.878 31.26C11.8713 31.14 11.8447 31.0067 11.798 30.86C11.7513 30.7133 11.688 30.5867 11.608 30.48C11.9413 30.5067 12.258 30.5233 12.558 30.53C12.858 30.5433 13.068 30.55 13.188 30.55C13.2947 30.55 13.3813 30.5433 13.448 30.53C13.5147 30.5167 13.5747 30.4867 13.628 30.44C13.7213 30.36 13.8013 30.1967 13.868 29.95C13.9413 29.7033 14.0047 29.3467 14.058 28.88C14.118 28.4067 14.1747 27.7967 14.228 27.05V26.94ZM11.268 24.82H12.038C11.978 25.18 11.9113 25.5633 11.838 25.97C11.7713 26.37 11.7013 26.7567 11.628 27.13C11.5613 27.5033 11.4947 27.8333 11.428 28.12L10.678 28C10.7447 27.72 10.8147 27.4 10.888 27.04C10.968 26.6733 11.038 26.2967 11.098 25.91C11.1647 25.5167 11.2213 25.1533 11.268 24.82ZM17.698 22.2H18.448V31.3H17.698V22.2ZM11.288 26.94H14.458V27.64H11.178L11.288 26.94ZM11.538 24.82H14.218V23.22H10.928V22.52H14.948V25.52H11.538L11.538 24.82ZM25.458 23.84H30.058V24.48H26.138V28.52H25.458V23.84ZM24.588 28.76C24.9213 28.5867 25.328 28.3667 25.808 28.1C26.2947 27.8267 26.788 27.5467 27.288 27.26L27.488 27.82C27.048 28.0867 26.6013 28.3567 26.148 28.63C25.7013 28.8967 25.2913 29.14 24.918 29.36L24.588 28.76ZM21.278 23.34H25.028V24H21.278V23.34ZM20.898 25.27H25.208V25.94H20.898V25.27ZM23.238 27.33H25.088V28H23.238V27.33ZM22.818 22.1H23.508V25.66H22.818V22.1ZM22.968 25.71H23.648V30.23H22.968V25.71ZM22.028 27.8C22.1747 28.3267 22.3613 28.7567 22.588 29.09C22.8213 29.4167 23.1047 29.67 23.438 29.85C23.7713 30.03 24.1613 30.1533 24.608 30.22C25.0547 30.2867 25.568 30.32 26.148 30.32C26.228 30.32 26.3647 30.32 26.558 30.32C26.758 30.32 26.9913 30.32 27.258 30.32C27.5247 30.32 27.8047 30.32 28.098 30.32C28.3913 30.32 28.6747 30.32 28.948 30.32C29.228 30.3133 29.4747 30.31 29.688 30.31C29.9013 30.31 30.0547 30.3067 30.148 30.3C30.108 30.3533 30.068 30.4233 30.028 30.51C29.988 30.6033 29.9513 30.6967 29.918 30.79C29.8847 30.8833 29.8613 30.9667 29.848 31.04H29.118H26.158C25.4847 31.04 24.8913 30.9967 24.378 30.91C23.8713 30.83 23.4313 30.6833 23.058 30.47C22.6913 30.25 22.3813 29.94 22.128 29.54C21.8747 29.14 21.658 28.6267 21.478 28L22.028 27.8ZM27.218 22.1H27.928C27.928 22.9 27.948 23.6567 27.988 24.37C28.0347 25.0767 28.098 25.72 28.178 26.3C28.258 26.88 28.3547 27.3833 28.468 27.81C28.588 28.23 28.718 28.5533 28.858 28.78C29.0047 29.0067 29.1647 29.12 29.338 29.12C29.4313 29.12 29.5047 29.0033 29.558 28.77C29.6113 28.5367 29.6447 28.16 29.658 27.64C29.7313 27.7133 29.818 27.7833 29.918 27.85C30.0247 27.91 30.1213 27.96 30.208 28C30.1747 28.46 30.1213 28.8233 30.048 29.09C29.9747 29.3567 29.8747 29.5467 29.748 29.66C29.628 29.7667 29.4647 29.82 29.258 29.82C28.9713 29.82 28.7147 29.6867 28.488 29.42C28.268 29.1533 28.0813 28.7833 27.928 28.31C27.7747 27.8367 27.648 27.2767 27.548 26.63C27.448 25.9833 27.3713 25.2767 27.318 24.51C27.2647 23.7433 27.2313 22.94 27.218 22.1ZM28.348 22.47L28.868 22.19C29.0547 22.37 29.2413 22.5733 29.428 22.8C29.6213 23.02 29.7647 23.2133 29.858 23.38L29.318 23.71C29.2247 23.5367 29.0847 23.3333 28.898 23.1C28.718 22.86 28.5347 22.65 28.348 22.47ZM21.468 26.62L22.098 26.66C22.1047 27.16 22.088 27.6833 22.048 28.23C22.008 28.77 21.9213 29.3033 21.788 29.83C21.6613 30.35 21.458 30.83 21.178 31.27C21.1447 31.2167 21.098 31.16 21.038 31.1C20.978 31.0467 20.9147 30.9933 20.848 30.94C20.788 30.8867 20.728 30.85 20.668 30.83C20.9147 30.4233 21.0947 29.98 21.208 29.5C21.3213 29.02 21.3947 28.5333 21.428 28.04C21.4613 27.54 21.4747 27.0667 21.468 26.62ZM29.258 25.12L29.848 25.28C29.6547 25.96 29.4013 26.6 29.088 27.2C28.7813 27.8 28.428 28.3367 28.028 28.81C27.628 29.2833 27.1847 29.6767 26.698 29.99C26.6513 29.9033 26.5813 29.81 26.488 29.71C26.3947 29.6033 26.3113 29.52 26.238 29.46C26.7047 29.1933 27.1313 28.84 27.518 28.4C27.9047 27.9533 28.248 27.45 28.548 26.89C28.848 26.3233 29.0847 25.7333 29.258 25.12ZM33.5768 22.71C33.5501 22.8767 33.5301 23.0467 33.5168 23.22C33.5034 23.3867 33.4934 23.5533 33.4868 23.72C33.4734 24 33.4601 24.3467 33.4468 24.76C33.4334 25.1733 33.4201 25.6133 33.4068 26.08C33.3934 26.54 33.3834 27 33.3768 27.46C33.3701 27.92 33.3668 28.3333 33.3668 28.7C33.3668 29.0667 33.4368 29.36 33.5768 29.58C33.7168 29.8 33.9101 29.9567 34.1568 30.05C34.4034 30.1433 34.6868 30.19 35.0068 30.19C35.4601 30.19 35.8701 30.1333 36.2368 30.02C36.6034 29.9 36.9301 29.7433 37.2168 29.55C37.5034 29.35 37.7568 29.1267 37.9768 28.88C38.2034 28.6333 38.4068 28.38 38.5868 28.12L39.1568 28.8C38.9834 29.04 38.7701 29.29 38.5168 29.55C38.2701 29.8033 37.9768 30.04 37.6368 30.26C37.2968 30.48 36.9034 30.66 36.4568 30.8C36.0168 30.94 35.5234 31.01 34.9768 31.01C34.5034 31.01 34.0834 30.9367 33.7168 30.79C33.3501 30.6433 33.0634 30.4067 32.8568 30.08C32.6501 29.7533 32.5468 29.32 32.5468 28.78C32.5468 28.48 32.5501 28.15 32.5568 27.79C32.5634 27.4233 32.5734 27.0467 32.5868 26.66C32.6001 26.2733 32.6101 25.8967 32.6168 25.53C32.6234 25.1567 32.6301 24.8133 32.6368 24.5C32.6434 24.1867 32.6468 23.9267 32.6468 23.72C32.6468 23.5333 32.6401 23.3533 32.6268 23.18C32.6134 23.0067 32.5934 22.8467 32.5668 22.7L33.5768 22.71ZM44.7839 23.41C44.7506 23.3033 44.7106 23.18 44.6639 23.04C44.6239 22.9 44.5806 22.7633 44.5339 22.63L45.3839 22.52C45.4173 22.7133 45.4639 22.9333 45.5239 23.18C45.5839 23.42 45.6539 23.6667 45.7339 23.92C45.8139 24.1667 45.8939 24.3967 45.9739 24.61C46.1273 25.0433 46.3206 25.4767 46.5539 25.91C46.7873 26.3367 47.0073 26.6967 47.2139 26.99C47.2873 27.0833 47.3606 27.1733 47.4339 27.26C47.5073 27.3467 47.5806 27.4333 47.6539 27.52L47.2439 28.08C47.1239 28.0533 46.9639 28.0267 46.7639 28C46.5706 27.9733 46.3573 27.95 46.1239 27.93C45.8973 27.9033 45.6706 27.88 45.4439 27.86C45.2173 27.84 45.0139 27.8233 44.8339 27.81L44.8939 27.14C45.0806 27.1533 45.2773 27.17 45.4839 27.19C45.6973 27.21 45.8973 27.23 46.0839 27.25C46.2773 27.2633 46.4339 27.2767 46.5539 27.29C46.4139 27.0767 46.2639 26.8333 46.1039 26.56C45.9439 26.28 45.7873 25.9867 45.6339 25.68C45.4873 25.3667 45.3573 25.06 45.2439 24.76C45.1373 24.4667 45.0473 24.2067 44.9739 23.98C44.9006 23.7533 44.8373 23.5633 44.7839 23.41ZM41.1239 24.19C41.6839 24.2567 42.2239 24.3033 42.7439 24.33C43.2706 24.3567 43.7673 24.3633 44.2339 24.35C44.7073 24.3367 45.1339 24.31 45.5139 24.27C45.7806 24.2367 46.0606 24.1967 46.3539 24.15C46.6539 24.1033 46.9506 24.0433 47.2439 23.97C47.5373 23.8967 47.8139 23.82 48.0739 23.74L48.1639 24.52C47.9306 24.5933 47.6739 24.6567 47.3939 24.71C47.1139 24.7633 46.8339 24.8133 46.5539 24.86C46.2739 24.9067 46.0106 24.9433 45.7639 24.97C45.1306 25.0433 44.4206 25.0833 43.6339 25.09C42.8539 25.0967 42.0239 25.0633 41.1439 24.99L41.1239 24.19ZM42.6639 27.38C42.5173 27.62 42.4006 27.8533 42.3139 28.08C42.2339 28.3 42.1939 28.53 42.1939 28.77C42.1939 29.2433 42.4006 29.59 42.8139 29.81C43.2273 30.03 43.8039 30.1433 44.5439 30.15C45.0573 30.1567 45.5273 30.1367 45.9539 30.09C46.3873 30.0433 46.7773 29.98 47.1239 29.9L47.0839 30.7C46.7773 30.7533 46.4106 30.8033 45.9839 30.85C45.5573 30.8967 45.0639 30.92 44.5039 30.92C43.8706 30.9133 43.3206 30.8333 42.8539 30.68C42.3939 30.5267 42.0373 30.3 41.7839 30C41.5306 29.6933 41.4039 29.3133 41.4039 28.86C41.4039 28.5867 41.4473 28.3167 41.5339 28.05C41.6273 27.7767 41.7439 27.4933 41.8839 27.2L42.6639 27.38ZM59.1492 29.74C58.8825 30.0067 58.5958 30.2133 58.2892 30.36C57.9825 30.5 57.6558 30.57 57.3092 30.57C56.9825 30.57 56.7158 30.4633 56.5092 30.25C56.3025 30.0367 56.1992 29.7233 56.1992 29.31C56.1992 29.03 56.2192 28.7267 56.2592 28.4C56.2992 28.0733 56.3425 27.74 56.3892 27.4C56.4358 27.0533 56.4792 26.7267 56.5192 26.42C56.5592 26.1067 56.5792 25.8267 56.5792 25.58C56.5792 25.2933 56.5092 25.0867 56.3692 24.96C56.2292 24.8267 56.0292 24.76 55.7692 24.76C55.5358 24.76 55.2758 24.83 54.9892 24.97C54.7025 25.1033 54.4092 25.2867 54.1092 25.52C53.8092 25.7467 53.5158 26.0033 53.2292 26.29C52.9425 26.57 52.6792 26.85 52.4392 27.13L52.4592 26.14C52.5858 26.0067 52.7458 25.85 52.9392 25.67C53.1392 25.49 53.3592 25.3033 53.5992 25.11C53.8458 24.9167 54.1058 24.7367 54.3792 24.57C54.6525 24.4033 54.9225 24.27 55.1892 24.17C55.4625 24.07 55.7225 24.02 55.9692 24.02C56.2825 24.02 56.5425 24.0767 56.7492 24.19C56.9558 24.2967 57.1092 24.4533 57.2092 24.66C57.3092 24.86 57.3592 25.0933 57.3592 25.36C57.3592 25.6067 57.3392 25.8933 57.2992 26.22C57.2658 26.54 57.2225 26.8733 57.1692 27.22C57.1225 27.5667 57.0792 27.9033 57.0392 28.23C57.0058 28.5567 56.9892 28.8467 56.9892 29.1C56.9892 29.2667 57.0292 29.41 57.1092 29.53C57.1958 29.65 57.3292 29.71 57.5092 29.71C57.7492 29.71 57.9958 29.64 58.2492 29.5C58.5092 29.3533 58.7658 29.1467 59.0192 28.88L59.1492 29.74ZM52.4292 24.96C52.3492 24.9667 52.2258 24.9833 52.0592 25.01C51.8992 25.03 51.7158 25.0533 51.5092 25.08C51.3025 25.1067 51.0925 25.1367 50.8792 25.17C50.6658 25.1967 50.4658 25.2233 50.2792 25.25L50.1992 24.43C50.3058 24.4367 50.4092 24.44 50.5092 24.44C50.6158 24.4333 50.7292 24.4267 50.8492 24.42C50.9892 24.4133 51.1592 24.4 51.3592 24.38C51.5658 24.3533 51.7792 24.3267 51.9992 24.3C52.2258 24.2667 52.4358 24.2333 52.6292 24.2C52.8292 24.16 52.9858 24.12 53.0992 24.08L53.3892 24.43C53.3292 24.51 53.2625 24.61 53.1892 24.73C53.1158 24.8433 53.0425 24.96 52.9692 25.08C52.8958 25.2 52.8325 25.3067 52.7792 25.4L52.4692 26.76C52.3558 26.94 52.2158 27.1533 52.0492 27.4C51.8825 27.6467 51.7058 27.9067 51.5192 28.18C51.3392 28.4467 51.1558 28.7133 50.9692 28.98C50.7825 29.24 50.6125 29.48 50.4592 29.7L49.9492 29.01C50.0758 28.8567 50.2225 28.67 50.3892 28.45C50.5625 28.2233 50.7425 27.98 50.9292 27.72C51.1225 27.46 51.3092 27.2067 51.4892 26.96C51.6758 26.7067 51.8392 26.4733 51.9792 26.26C52.1258 26.0467 52.2358 25.8733 52.3092 25.74L52.3492 25.23L52.4292 24.96ZM52.3392 23.3C52.3392 23.1867 52.3358 23.0667 52.3292 22.94C52.3292 22.8133 52.3192 22.6867 52.2992 22.56L53.2392 22.59C53.2125 22.7233 53.1792 22.9333 53.1392 23.22C53.0992 23.5 53.0592 23.8333 53.0192 24.22C52.9858 24.6067 52.9492 25.0133 52.9092 25.44C52.8758 25.8667 52.8492 26.29 52.8292 26.71C52.8092 27.1233 52.7992 27.5067 52.7992 27.86C52.7992 28.16 52.7992 28.44 52.7992 28.7C52.7992 28.9533 52.8025 29.2067 52.8092 29.46C52.8158 29.7067 52.8258 29.9767 52.8392 30.27C52.8458 30.3567 52.8525 30.4567 52.8592 30.57C52.8658 30.6833 52.8758 30.7867 52.8892 30.88H52.0192C52.0325 30.7867 52.0392 30.6833 52.0392 30.57C52.0458 30.4633 52.0492 30.37 52.0492 30.29C52.0558 29.97 52.0592 29.6867 52.0592 29.44C52.0592 29.1933 52.0592 28.94 52.0592 28.68C52.0658 28.4133 52.0725 28.0967 52.0792 27.73C52.0792 27.5833 52.0858 27.3833 52.0992 27.13C52.1125 26.87 52.1292 26.5867 52.1492 26.28C52.1692 25.9667 52.1892 25.65 52.2092 25.33C52.2292 25.01 52.2492 24.71 52.2692 24.43C52.2892 24.1433 52.3058 23.9 52.3192 23.7C52.3325 23.5 52.3392 23.3667 52.3392 23.3ZM61.7325 23.13C61.8459 23.1433 61.9659 23.1533 62.0925 23.16C62.2259 23.1667 62.3425 23.17 62.4425 23.17C62.5425 23.17 62.7059 23.1667 62.9325 23.16C63.1659 23.1533 63.4259 23.1467 63.7125 23.14C64.0059 23.1267 64.2959 23.1167 64.5825 23.11C64.8759 23.0967 65.1359 23.0833 65.3625 23.07C65.5959 23.0567 65.7659 23.0467 65.8725 23.04C66.0192 23.0267 66.1325 23.0133 66.2125 23C66.2925 22.9867 66.3592 22.9733 66.4125 22.96L66.8725 23.54C66.7859 23.6 66.6925 23.6633 66.5925 23.73C66.4992 23.7967 66.4059 23.87 66.3125 23.95C66.1859 24.0433 66.0159 24.18 65.8025 24.36C65.5892 24.5333 65.3525 24.73 65.0925 24.95C64.8392 25.1633 64.5892 25.3733 64.3425 25.58C64.0959 25.7867 63.8725 25.9733 63.6725 26.14C63.9059 26.06 64.1392 26.0067 64.3725 25.98C64.6125 25.9467 64.8425 25.93 65.0625 25.93C65.6159 25.93 66.1059 26.0333 66.5325 26.24C66.9659 26.44 67.3025 26.7167 67.5425 27.07C67.7892 27.4233 67.9125 27.8267 67.9125 28.28C67.9125 28.8133 67.7725 29.28 67.4925 29.68C67.2125 30.08 66.8159 30.3867 66.3025 30.6C65.7892 30.82 65.1792 30.93 64.4725 30.93C64.0192 30.93 63.6292 30.87 63.3025 30.75C62.9759 30.63 62.7225 30.4633 62.5425 30.25C62.3692 30.0367 62.2825 29.79 62.2825 29.51C62.2825 29.2833 62.3459 29.07 62.4725 28.87C62.5992 28.67 62.7792 28.51 63.0125 28.39C63.2459 28.27 63.5159 28.21 63.8225 28.21C64.2692 28.21 64.6392 28.3033 64.9325 28.49C65.2259 28.67 65.4525 28.91 65.6125 29.21C65.7725 29.5033 65.8625 29.82 65.8825 30.16L65.1625 30.28C65.1359 29.8533 65.0025 29.5033 64.7625 29.23C64.5292 28.95 64.2125 28.81 63.8125 28.81C63.5859 28.81 63.3959 28.8733 63.2425 29C63.0892 29.1267 63.0125 29.2767 63.0125 29.45C63.0125 29.69 63.1359 29.88 63.3825 30.02C63.6292 30.16 63.9492 30.23 64.3425 30.23C64.9092 30.23 65.3992 30.1533 65.8125 30C66.2325 29.8467 66.5525 29.6233 66.7725 29.33C66.9992 29.0367 67.1125 28.6833 67.1125 28.27C67.1125 27.9433 67.0159 27.65 66.8225 27.39C66.6292 27.13 66.3625 26.9267 66.0225 26.78C65.6892 26.6267 65.3059 26.55 64.8725 26.55C64.4525 26.55 64.0759 26.5967 63.7425 26.69C63.4092 26.7767 63.0959 26.9033 62.8025 27.07C62.5159 27.2367 62.2292 27.4467 61.9425 27.7C61.6625 27.9467 61.3625 28.23 61.0425 28.55L60.4725 27.96C60.6792 27.7933 60.9059 27.6067 61.1525 27.4C61.4059 27.1867 61.6592 26.9767 61.9125 26.77C62.1659 26.5567 62.3992 26.36 62.6125 26.18C62.8325 25.9933 63.0159 25.84 63.1625 25.72C63.3025 25.6067 63.4759 25.4633 63.6825 25.29C63.8959 25.11 64.1159 24.9233 64.3425 24.73C64.5692 24.5367 64.7825 24.3533 64.9825 24.18C65.1892 24.0067 65.3559 23.8667 65.4825 23.76C65.3759 23.76 65.2192 23.7667 65.0125 23.78C64.8059 23.7867 64.5759 23.7967 64.3225 23.81C64.0692 23.8167 63.8159 23.8267 63.5625 23.84C63.3159 23.8533 63.0892 23.8667 62.8825 23.88C62.6825 23.8867 62.5292 23.8933 62.4225 23.9C62.3159 23.9067 62.2059 23.9133 62.0925 23.92C61.9792 23.9267 61.8692 23.94 61.7625 23.96L61.7325 23.13ZM69.8161 23.83H78.7661V24.55H69.8161V23.83ZM73.0861 26.19H77.0761V26.91H73.0861V26.19ZM76.8061 26.19H77.5861C77.5861 26.19 77.5828 26.2133 77.5761 26.26C77.5761 26.3067 77.5728 26.36 77.5661 26.42C77.5661 26.4733 77.5628 26.52 77.5561 26.56C77.4895 27.5133 77.4195 28.29 77.3461 28.89C77.2728 29.4833 77.1895 29.94 77.0961 30.26C77.0028 30.58 76.8895 30.8067 76.7561 30.94C76.6428 31.06 76.5195 31.1433 76.3861 31.19C76.2528 31.2367 76.0895 31.2667 75.8961 31.28C75.7228 31.2933 75.4828 31.2967 75.1761 31.29C74.8695 31.2833 74.5495 31.27 74.2161 31.25C74.2095 31.1433 74.1795 31.02 74.1261 30.88C74.0795 30.7467 74.0195 30.6267 73.9461 30.52C74.3061 30.5467 74.6461 30.5633 74.9661 30.57C75.2861 30.5833 75.5095 30.59 75.6361 30.59C75.7495 30.59 75.8428 30.5833 75.9161 30.57C75.9961 30.5567 76.0628 30.5233 76.1161 30.47C76.2228 30.3767 76.3161 30.18 76.3961 29.88C76.4761 29.5733 76.5495 29.1333 76.6161 28.56C76.6828 27.98 76.7461 27.2333 76.8061 26.32V26.19ZM72.9061 24.23H73.7461C73.7195 24.7633 73.6761 25.3033 73.6161 25.85C73.5561 26.39 73.4595 26.9267 73.3261 27.46C73.1995 27.9867 73.0095 28.49 72.7561 28.97C72.5095 29.45 72.1828 29.89 71.7761 30.29C71.3695 30.69 70.8628 31.04 70.2561 31.34C70.1961 31.24 70.1128 31.13 70.0061 31.01C69.9061 30.8967 69.8061 30.8033 69.7061 30.73C70.2928 30.4633 70.7761 30.1467 71.1561 29.78C71.5361 29.4067 71.8395 29 72.0661 28.56C72.2928 28.1133 72.4628 27.6467 72.5761 27.16C72.6895 26.6733 72.7661 26.1833 72.8061 25.69C72.8528 25.19 72.8861 24.7033 72.9061 24.23ZM73.8661 22.07H74.6361V24.14H73.8661V22.07ZM80.7761 23.83H88.3861V24.56H81.5161V31.3H80.7761V23.83ZM88.1061 23.83H88.8561V30.3C88.8561 30.5467 88.8228 30.7367 88.7561 30.87C88.6895 31.0033 88.5661 31.1033 88.3861 31.17C88.2061 31.23 87.9595 31.2667 87.6461 31.28C87.3328 31.2933 86.9461 31.3 86.4861 31.3C86.4795 31.2267 86.4595 31.1433 86.4261 31.05C86.3995 30.9633 86.3695 30.87 86.3361 30.77C86.3028 30.6767 86.2661 30.5933 86.2261 30.52C86.4661 30.5333 86.6961 30.54 86.9161 30.54C87.1428 30.5467 87.3361 30.5467 87.4961 30.54C87.6628 30.54 87.7795 30.54 87.8461 30.54C87.9528 30.54 88.0228 30.5233 88.0561 30.49C88.0895 30.45 88.1061 30.3867 88.1061 30.3V23.83ZM84.1661 22.08L85.0961 22.23C84.9495 22.59 84.7861 22.9567 84.6061 23.33C84.4261 23.7033 84.2595 24.0233 84.1061 24.29L83.3961 24.11C83.4895 23.9233 83.5828 23.71 83.6761 23.47C83.7761 23.23 83.8695 22.99 83.9561 22.75C84.0495 22.5033 84.1195 22.28 84.1661 22.08ZM82.8261 25.89H83.5161V29.92H82.8261V25.89ZM83.1461 25.89H86.7461V29.2H83.1461V28.52H86.0461V26.56H83.1461V25.89ZM97.8571 22.7C97.8437 22.7867 97.8337 22.88 97.8271 22.98C97.8271 23.0733 97.8271 23.1767 97.8271 23.29C97.8204 23.3633 97.8171 23.4833 97.8171 23.65C97.8237 23.8167 97.8271 24.0067 97.8271 24.22C97.8337 24.4267 97.8371 24.64 97.8371 24.86C97.8437 25.08 97.8471 25.2833 97.8471 25.47C97.8471 25.65 97.8471 25.7967 97.8471 25.91C97.8471 26.4833 97.8337 27.0167 97.8071 27.51C97.7871 28.0033 97.7137 28.4633 97.5871 28.89C97.4604 29.3167 97.2504 29.7133 96.9571 30.08C96.6704 30.44 96.2604 30.7767 95.7271 31.09L94.9971 30.52C95.1571 30.4533 95.3271 30.3633 95.5071 30.25C95.6937 30.1367 95.8471 30.02 95.9671 29.9C96.2337 29.6667 96.4437 29.4167 96.5971 29.15C96.7504 28.8833 96.8604 28.59 96.9271 28.27C97.0004 27.95 97.0471 27.5967 97.0671 27.21C97.0871 26.8233 97.0971 26.39 97.0971 25.91C97.0971 25.75 97.0937 25.5467 97.0871 25.3C97.0804 25.0467 97.0737 24.7867 97.0671 24.52C97.0604 24.2467 97.0537 24 97.0471 23.78C97.0404 23.56 97.0304 23.4 97.0171 23.3C97.0104 23.1867 96.9971 23.08 96.9771 22.98C96.9571 22.8733 96.9404 22.78 96.9271 22.7H97.8571ZM94.2071 24.77C94.3537 24.79 94.5171 24.81 94.6971 24.83C94.8771 24.85 95.0637 24.8633 95.2571 24.87C95.4571 24.8767 95.6437 24.88 95.8171 24.88C96.2304 24.88 96.6537 24.87 97.0871 24.85C97.5271 24.83 97.9504 24.7967 98.3571 24.75C98.7704 24.7033 99.1404 24.6433 99.4671 24.57V25.39C99.1471 25.4367 98.7837 25.48 98.3771 25.52C97.9771 25.56 97.5571 25.59 97.1171 25.61C96.6837 25.6233 96.2537 25.63 95.8271 25.63C95.6671 25.63 95.4871 25.6267 95.2871 25.62C95.0937 25.6133 94.9004 25.6067 94.7071 25.6C94.5204 25.5933 94.3537 25.5833 94.2071 25.57V24.77ZM92.7971 22.85C92.7704 22.9433 92.7404 23.0533 92.7071 23.18C92.6804 23.3 92.6537 23.4067 92.6271 23.5C92.5471 23.86 92.4704 24.26 92.3971 24.7C92.3237 25.14 92.2671 25.5967 92.2271 26.07C92.1871 26.5433 92.1737 27.01 92.1871 27.47C92.2004 27.93 92.2537 28.3667 92.3471 28.78C92.4204 28.5667 92.5037 28.32 92.5971 28.04C92.6971 27.76 92.7937 27.4967 92.8871 27.25L93.3171 27.51C93.2371 27.7367 93.1537 27.9933 93.0671 28.28C92.9804 28.56 92.9004 28.83 92.8271 29.09C92.7537 29.3433 92.7004 29.5533 92.6671 29.72C92.6471 29.7933 92.6304 29.8733 92.6171 29.96C92.6104 30.0467 92.6104 30.1167 92.6171 30.17C92.6237 30.2233 92.6271 30.28 92.6271 30.34C92.6337 30.4 92.6404 30.4567 92.6471 30.51L91.9671 30.59C91.9004 30.39 91.8237 30.12 91.7371 29.78C91.6571 29.44 91.5871 29.0667 91.5271 28.66C91.4671 28.2467 91.4371 27.8333 91.4371 27.42C91.4371 26.8733 91.4604 26.35 91.5071 25.85C91.5604 25.35 91.6171 24.89 91.6771 24.47C91.7371 24.05 91.7837 23.7033 91.8171 23.43C91.8371 23.31 91.8504 23.19 91.8571 23.07C91.8637 22.95 91.8671 22.8467 91.8671 22.76L92.7971 22.85Z" fill="#0B2188"/>
</svg>
