<svg width="170" height="69" viewBox="0 0 170 69" fill="none" xmlns="http://www.w3.org/2000/svg">
    <path d="M114.835 1.19286H108.188V11.0837H100.159V1.09937H93.512V11.0837H85.3125V17.4954H93.512V28.9446H100.159V17.4954H108.169C107.993 25.5985 106.59 29.5481 99.3429 37.9288L98.3258 39.1046L103.389 43.4678L104.403 42.2807C112.393 32.9111 114.631 27.6725 114.824 17.4954H123.318V11.0837H114.838V1.19286H114.835Z" fill="#1E1E8C"/>
    <path d="M63.4836 2.70009V1.07947H56.6525V2.70009C56.6525 8.65842 56.6525 12.2567 46.0277 19.8384L44.7188 20.7706L48.7448 26.0234L49.9632 25.1678C55.7459 21.1077 58.7038 18.266 60.792 14.6876H69.5836C69.1813 18.0053 67.725 21.0511 65.0759 24.1592C61.8516 27.9415 56.7687 31.9563 49.0848 36.7926L47.705 37.6596L51.53 43.1391L52.7794 42.36C69.8669 31.7154 76.5252 23.4565 76.5252 12.9026V8.18244H63.1521C63.3702 6.85081 63.4807 5.25568 63.4807 2.70009H63.4836Z" fill="#1E1E8C"/>
    <path d="M31.7405 0H25.0625V6.67798H31.7405V0Z" fill="#1E1E8C"/>
    <path d="M31.7582 11.0839H17.13V1.06836H10.3896V11.0839H0V17.4956H10.333C10.2111 24.4512 8.922 26.4571 2.50179 36.4614L1.32598 38.2945L6.90754 41.9579L8.36951 39.6658C14.9286 29.3782 16.9062 26.2758 17.0705 17.4956H25.0179V26.7235C24.8875 30.1177 24.726 31.5683 24.3464 32.7101C24.0121 33.7556 23.7939 34.1154 23.3292 34.3903C22.5472 34.8521 21.0003 35.0759 18.6033 35.0759H17.0507V41.5811H18.6033C22.8419 41.5811 28.6501 41.5811 30.8431 34.8237V34.8124C31.5542 32.5798 31.7129 30.2622 31.7582 26.749V13.3562H38.4363V6.6782H31.7582V11.0839Z" fill="#1E1E8C"/>
    <path d="M169.33 33.8659C166.508 27.7942 165.531 25.9951 161.57 20.7281L160.671 19.5353L155.234 23.3063L156.198 24.5955C159.782 29.3893 160.428 30.7323 163.145 36.3903L163.916 37.9939L169.999 35.2995L169.333 33.8659H169.33Z" fill="#1E1E8C"/>
    <path d="M136.925 24.1309C136.925 25.7742 136.925 27.0718 131.698 33.288L130.672 34.5091L135.857 38.64L136.829 37.4727C141.872 31.4095 143.662 28.4828 143.662 24.1337V20.1587H136.922V24.1337L136.925 24.1309Z" fill="#1E1E8C"/>
    <path d="M166.964 11.1177H165.446C167.211 10.1742 168.412 8.32974 168.412 6.2133C168.412 3.12505 165.822 0.515625 162.754 0.515625C159.686 0.515625 157.056 3.12505 157.056 6.2133C157.056 8.32974 158.266 10.1742 160.045 11.1177H153.636V1.14744H146.805V11.1177H133.109V17.4981H146.805V42.1786H153.636V17.4981H166.961V11.1177H166.964ZM162.777 8.06624C161.74 8.06624 160.901 7.2276 160.901 6.19063C160.901 5.15366 161.74 4.31501 162.777 4.31501C163.814 4.31501 164.652 5.15366 164.652 6.19063C164.652 7.2276 163.814 8.06624 162.777 8.06624Z" fill="#1E1E8C"/>
    <path d="M55.3338 62.5979H55.3366L54.1126 67.1963H53.0785L52.0953 63.802H52.0642L51.081 67.1963H50.0412L48.8229 62.5979H49.8202L50.5965 66.1055H50.6419L51.608 62.5979H52.5458L53.5176 66.1055H53.5573L54.3336 62.5979H55.3281H55.3338ZM84.3381 62.5979L83.1963 66.2528H83.1651L82.0374 62.5979H80.9381L82.6211 67.2303L82.5644 67.4314C82.4624 67.8847 82.2074 68.0576 81.6719 68.0576C81.5416 68.0576 81.3858 68.0491 81.3093 68.0349V68.7659C81.4481 68.7914 81.6578 68.8084 81.8306 68.8084C82.7486 68.8084 83.2728 68.4684 83.6609 67.4513L83.7799 67.1339C83.7799 67.1339 85.1824 63.2382 85.3864 62.5979H84.3381ZM48.2364 64.703V65.0713C48.2364 66.3661 47.5054 67.2728 46.1454 67.2728C44.7855 67.2728 44.0432 66.3689 44.0432 65.0713V64.703C44.0432 63.4535 44.7883 62.5186 46.1454 62.5186C47.5026 62.5186 48.2364 63.4507 48.2364 64.703ZM47.2419 64.7172C47.2419 63.8785 46.8793 63.2949 46.1454 63.2949C45.4116 63.2949 45.0433 63.8814 45.0433 64.7172V65.0685C45.0433 65.8901 45.406 66.4964 46.1454 66.4964C46.8849 66.4964 47.2419 65.8958 47.2419 65.0685V64.7172ZM43.1535 64.6917V65.0996C43.1535 66.4653 42.4084 67.2614 41.3204 67.2614C40.7084 67.2614 40.2437 66.9781 39.9944 66.5559H39.9604V68.7234H38.9688V62.5979H39.9321V63.2722H39.9661C40.2267 62.833 40.7084 62.5384 41.3402 62.5384C42.397 62.5384 43.1507 63.3175 43.1507 64.6917H43.1535ZM42.1505 64.7228C42.1505 63.8304 41.7482 63.3204 41.0739 63.3204C40.3996 63.3204 39.9519 63.8672 39.9519 64.7172V65.043C39.9519 65.9128 40.3882 66.4624 41.0937 66.4624C41.7227 66.4624 42.1505 65.9723 42.1505 65.0458V64.7228ZM62.026 63.2014H61.992V62.5979H61.0003V67.1963H62.0033V64.4735C62.0033 63.8558 62.2696 63.377 63.063 63.377C63.2273 63.377 63.403 63.3912 63.488 63.411V62.5582C63.3945 62.5412 63.284 62.5327 63.1536 62.5327C62.4963 62.5327 62.145 62.9152 62.026 63.2042V63.2014ZM68.1034 64.6775V65.1167H65.0378V65.2243C65.0378 65.9978 65.4656 66.5134 66.1399 66.5134C66.6442 66.5134 66.9871 66.2698 67.1089 65.8731H68.0495C67.905 66.6183 67.2931 67.2756 66.1286 67.2756C64.8678 67.2756 64.0631 66.4624 64.0631 65.0996V64.635C64.0631 63.3515 64.8479 62.5214 66.0889 62.5214C67.3299 62.5214 68.1062 63.3827 68.1062 64.6803L68.1034 64.6775ZM67.1372 64.431C67.1372 63.7765 66.7236 63.2637 66.0917 63.2637C65.4599 63.2637 65.0378 63.7765 65.0378 64.431V64.4395H67.1344V64.431H67.1372ZM59.9407 64.6775V65.1167H56.8751V65.2243C56.8751 65.9978 57.3029 66.5134 57.9772 66.5134C58.4816 66.5134 58.8244 66.2698 58.9462 65.8731H59.8869C59.7424 66.6183 59.1304 67.2756 57.9659 67.2756C56.7051 67.2756 55.9004 66.4624 55.9004 65.0996V64.635C55.9004 63.3515 56.6853 62.5214 57.9262 62.5214C59.1672 62.5214 59.9435 63.3827 59.9435 64.6803L59.9407 64.6775ZM58.9717 64.431C58.9717 63.7765 58.5581 63.2637 57.9262 63.2637C57.2944 63.2637 56.8722 63.7765 56.8722 64.431V64.4395H58.9689V64.431H58.9717ZM80.5103 64.6803V65.1053C80.5103 66.4568 79.7878 67.2586 78.6772 67.2586C78.0029 67.2586 77.5439 66.9639 77.2889 66.4936H77.2492V67.1934H76.2859V60.9404H77.2775V63.2467H77.3172C77.541 62.833 78.0709 62.5327 78.6828 62.5327C79.768 62.5327 80.5131 63.2864 80.5131 64.6775L80.5103 64.6803ZM79.5017 64.7285C79.5017 63.819 79.0653 63.3317 78.4307 63.3317C77.711 63.3317 77.2662 63.8133 77.2662 64.7285V65.06C77.2662 65.978 77.7139 66.4653 78.4307 66.4653C79.0625 66.4653 79.5017 65.9723 79.5017 65.0685V64.7285ZM72.1946 60.9433H73.1863V67.1963H72.223V66.4964H72.189C71.9481 66.9668 71.4523 67.2586 70.8205 67.2586C69.6362 67.2586 68.9789 66.4058 68.9789 65.0968V64.6973C68.9789 63.4139 69.6645 62.5412 70.8205 62.5384C71.4495 62.5384 71.9396 62.8387 72.1635 63.2552H72.1975V60.9433H72.1946ZM72.2031 64.7285C72.2031 63.8672 71.764 63.3317 71.0641 63.3317C70.438 63.3317 69.979 63.7935 69.979 64.7285V65.0685C69.979 66.0035 70.438 66.4653 71.0726 66.4653C71.7696 66.4653 72.2003 65.9695 72.2003 65.0741V64.7313L72.2031 64.7285Z" fill="#1E1E8C"/>
    <path d="M93.5251 63.3543V65.3829C93.5251 65.7853 93.2021 66.0941 92.7601 66.0941C92.3181 66.0941 91.9951 65.7881 91.9951 65.3829V58.8579C91.9951 58.4528 92.3209 58.1496 92.7601 58.1496C93.1992 58.1496 93.5251 58.4528 93.5251 58.8579V60.3936H95.8852V58.9571C95.8852 57.1863 94.6017 55.9255 92.7629 55.9255C90.9241 55.9255 89.6406 57.1863 89.6406 58.9571V65.4198C89.6406 67.1934 90.9213 68.4513 92.7629 68.4513C94.6045 68.4513 95.8852 67.1934 95.8852 65.4198V63.3515H93.5251V63.3543Z" fill="#1E1E8C"/>
    <path d="M112.756 67.743H115.261V56.104H113.04V62.2125L111.246 56.104H108.75V67.743H110.968V61.6288L112.756 67.743Z" fill="#1E1E8C"/>
    <path d="M107.355 56.104H104.992V67.743H107.355V56.104Z" fill="#1E1E8C"/>
    <path d="M101.249 56.104V60.6145H99.3026V56.104H96.9453V67.743H99.3026V63.0455H101.249V67.743H103.609V56.104H101.249Z" fill="#1E1E8C"/>
    <path d="M121.764 56.104H115.859V58.3933H117.732V67.743H120.095V58.3933H121.764V56.104Z" fill="#1E1E8C"/>
    <path d="M101.248 54.1576H99.3047V56.104H101.248V54.1576Z" fill="#1E1E8C"/>
    <path d="M123.701 54.1576H121.758V56.104H123.701V54.1576Z" fill="#1E1E8C"/>
    <path d="M103.956 54.4553L104.364 52.557L102.463 52.149L102.055 54.0502L103.956 54.4553Z" fill="#1E1E8C"/>
    <path d="M107.553 54.73L106.182 53.353L104.805 54.73L106.182 56.1041L107.553 54.73Z" fill="#1E1E8C"/>
    <path d="M123.701 54.1576H121.758V56.104H123.701V54.1576Z" fill="#1E1E8C"/>
    <path d="M126.948 54.2936L127.356 52.3897L125.452 51.9817L125.047 53.8828L126.948 54.2936Z" fill="#1E1E8C"/>
    <path d="M131.17 54.73L129.796 53.353L128.422 54.73L129.796 56.1041L131.17 54.73Z" fill="#1E1E8C"/>
    <path d="M128.632 56.104V67.0319L126.635 56.104H123.714L121.586 67.743H123.974L124.382 65.5189H125.966L126.371 67.743H130.992V56.104H128.632ZM125.173 59.3367L125.728 63.156H124.62L125.173 59.3367Z" fill="#1E1E8C"/>
    <path d="M132.63 66.8082C132.63 66.6212 132.477 66.5646 132.315 66.5646H132.023V67.4061H132.171V67.0519H132.281L132.474 67.4061H132.655L132.434 67.0349C132.556 67.0179 132.627 66.9301 132.627 66.8082H132.63ZM132.171 66.9272V66.6977H132.301C132.38 66.6977 132.471 66.7091 132.471 66.8111C132.471 66.9187 132.372 66.9301 132.29 66.9301H132.171V66.9272Z" fill="#1E1E8C"/>
    <path d="M132.315 66.2555C131.902 66.2555 131.57 66.5898 131.57 66.9978C131.57 67.4058 131.902 67.7458 132.315 67.7458C132.729 67.7458 133.063 67.4086 133.063 66.9978C133.063 66.587 132.726 66.2555 132.315 66.2555ZM132.315 67.6296C131.967 67.6296 131.681 67.3463 131.681 66.9978C131.681 66.6493 131.967 66.366 132.315 66.366C132.664 66.366 132.947 66.6465 132.947 66.9978C132.947 67.3491 132.664 67.6296 132.315 67.6296Z" fill="#1E1E8C"/>
</svg>