<svg width="198" height="50" viewBox="0 0 198 50" fill="none" xmlns="http://www.w3.org/2000/svg">
<path d="M192 1L5.19786 1C2.87721 1 1 3.02158 1 5.5207V31.0531C1 33.5522 2.87721 35.5738 5.19786 35.5738H57.198L68.9491 48.2286C69.7768 49.12 71.1219 49.12 71.9497 48.2286C72.7774 47.3372 72.7774 45.8886 71.9497 44.9972L63.1992 35.5738H192C194.321 35.5738 196.198 33.5522 196.198 31.0531V5.5207C196.198 3.02158 194.321 1 192 1Z" fill="white" stroke="#0B2188" stroke-width="2" stroke-linejoin="round"/>
<path d="M17.2287 13.874C17.6967 13.9347 18.2211 13.978 18.8017 14.004C19.3911 14.03 20.0107 14.043 20.6607 14.043C21.0767 14.043 21.4927 14.0343 21.9087 14.017C22.3334 13.9997 22.7364 13.978 23.1177 13.952C23.5077 13.9173 23.8587 13.887 24.1707 13.861V14.927C23.8761 14.9443 23.5337 14.966 23.1437 14.992C22.7537 15.018 22.3421 15.0397 21.9087 15.057C21.4841 15.0743 21.0681 15.083 20.6607 15.083C20.0107 15.083 19.4041 15.07 18.8407 15.044C18.2774 15.0093 17.7401 14.9747 17.2287 14.94V13.874ZM17.7487 19.113C17.6621 19.373 17.5927 19.6243 17.5407 19.867C17.4974 20.1097 17.4757 20.3523 17.4757 20.595C17.4757 21.089 17.7314 21.492 18.2427 21.804C18.7541 22.116 19.5297 22.272 20.5697 22.272C21.1677 22.272 21.7441 22.2503 22.2987 22.207C22.8534 22.1637 23.3604 22.103 23.8197 22.025C24.2877 21.947 24.6864 21.856 25.0157 21.752L25.0287 22.87C24.7167 22.9567 24.3311 23.0347 23.8717 23.104C23.4211 23.1733 22.9184 23.2253 22.3637 23.26C21.8091 23.3033 21.2197 23.325 20.5957 23.325C19.7204 23.325 18.9707 23.2297 18.3467 23.039C17.7227 22.8483 17.2461 22.5667 16.9167 22.194C16.5874 21.8213 16.4227 21.362 16.4227 20.816C16.4227 20.478 16.4531 20.1573 16.5137 19.854C16.5744 19.5507 16.6351 19.269 16.6957 19.009L17.7487 19.113ZM39.7748 22.012C39.4281 22.3587 39.0555 22.6273 38.6568 22.818C38.2581 23 37.8335 23.091 37.3828 23.091C36.9581 23.091 36.6115 22.9523 36.3428 22.675C36.0741 22.3977 35.9398 21.9903 35.9398 21.453C35.9398 21.089 35.9658 20.6947 36.0178 20.27C36.0698 19.8453 36.1261 19.412 36.1868 18.97C36.2475 18.5193 36.3038 18.0947 36.3558 17.696C36.4078 17.2887 36.4338 16.9247 36.4338 16.604C36.4338 16.2313 36.3428 15.9627 36.1608 15.798C35.9788 15.6247 35.7188 15.538 35.3808 15.538C35.0775 15.538 34.7395 15.629 34.3668 15.811C33.9941 15.9843 33.6128 16.2227 33.2228 16.526C32.8328 16.8207 32.4515 17.1543 32.0788 17.527C31.7061 17.891 31.3638 18.255 31.0518 18.619L31.0778 17.332C31.2425 17.1587 31.4505 16.955 31.7018 16.721C31.9618 16.487 32.2478 16.2443 32.5598 15.993C32.8805 15.7417 33.2185 15.5077 33.5738 15.291C33.9291 15.0743 34.2801 14.901 34.6268 14.771C34.9821 14.641 35.3201 14.576 35.6408 14.576C36.0481 14.576 36.3861 14.6497 36.6548 14.797C36.9235 14.9357 37.1228 15.1393 37.2528 15.408C37.3828 15.668 37.4478 15.9713 37.4478 16.318C37.4478 16.6387 37.4218 17.0113 37.3698 17.436C37.3265 17.852 37.2701 18.2853 37.2008 18.736C37.1401 19.1867 37.0838 19.6243 37.0318 20.049C36.9885 20.4737 36.9668 20.8507 36.9668 21.18C36.9668 21.3967 37.0188 21.583 37.1228 21.739C37.2355 21.895 37.4088 21.973 37.6428 21.973C37.9548 21.973 38.2755 21.882 38.6048 21.7C38.9428 21.5093 39.2765 21.2407 39.6058 20.894L39.7748 22.012ZM31.0388 15.798C30.9348 15.8067 30.7745 15.8283 30.5578 15.863C30.3498 15.889 30.1115 15.9193 29.8428 15.954C29.5741 15.9887 29.3011 16.0277 29.0238 16.071C28.7465 16.1057 28.4865 16.1403 28.2438 16.175L28.1398 15.109C28.2785 15.1177 28.4128 15.122 28.5428 15.122C28.6815 15.1133 28.8288 15.1047 28.9848 15.096C29.1668 15.0873 29.3878 15.07 29.6478 15.044C29.9165 15.0093 30.1938 14.9747 30.4798 14.94C30.7745 14.8967 31.0475 14.8533 31.2988 14.81C31.5588 14.758 31.7625 14.706 31.9098 14.654L32.2868 15.109C32.2088 15.213 32.1221 15.343 32.0268 15.499C31.9315 15.6463 31.8361 15.798 31.7408 15.954C31.6455 16.11 31.5631 16.2487 31.4938 16.37L31.0908 18.138C30.9435 18.372 30.7615 18.6493 30.5448 18.97C30.3281 19.2907 30.0985 19.6287 29.8558 19.984C29.6218 20.3307 29.3835 20.6773 29.1408 21.024C28.8981 21.362 28.6771 21.674 28.4778 21.96L27.8148 21.063C27.9795 20.8637 28.1701 20.621 28.3868 20.335C28.6121 20.0403 28.8461 19.724 29.0888 19.386C29.3401 19.048 29.5828 18.7187 29.8168 18.398C30.0595 18.0687 30.2718 17.7653 30.4538 17.488C30.6445 17.2107 30.7875 16.9853 30.8828 16.812L30.9348 16.149L31.0388 15.798ZM30.9218 13.64C30.9218 13.4927 30.9175 13.3367 30.9088 13.172C30.9088 13.0073 30.8958 12.8427 30.8698 12.678L32.0918 12.717C32.0571 12.8903 32.0138 13.1633 31.9618 13.536C31.9098 13.9 31.8578 14.3333 31.8058 14.836C31.7625 15.3387 31.7148 15.8673 31.6628 16.422C31.6195 16.9767 31.5848 17.527 31.5588 18.073C31.5328 18.6103 31.5198 19.1087 31.5198 19.568C31.5198 19.958 31.5198 20.322 31.5198 20.66C31.5198 20.9893 31.5241 21.3187 31.5328 21.648C31.5415 21.9687 31.5545 22.3197 31.5718 22.701C31.5805 22.8137 31.5891 22.9437 31.5978 23.091C31.6065 23.2383 31.6195 23.3727 31.6368 23.494H30.5058C30.5231 23.3727 30.5318 23.2383 30.5318 23.091C30.5405 22.9523 30.5448 22.831 30.5448 22.727C30.5535 22.311 30.5578 21.9427 30.5578 21.622C30.5578 21.3013 30.5578 20.972 30.5578 20.634C30.5665 20.2873 30.5751 19.8757 30.5838 19.399C30.5838 19.2083 30.5925 18.9483 30.6098 18.619C30.6271 18.281 30.6488 17.9127 30.6748 17.514C30.7008 17.1067 30.7268 16.695 30.7528 16.279C30.7788 15.863 30.8048 15.473 30.8308 15.109C30.8568 14.7363 30.8785 14.42 30.8958 14.16C30.9131 13.9 30.9218 13.7267 30.9218 13.64ZM46.1394 12.86C46.1134 12.9727 46.0874 13.0983 46.0614 13.237C46.0354 13.367 46.0094 13.497 45.9834 13.627C45.9574 13.783 45.9184 13.9953 45.8664 14.264C45.8231 14.5327 45.7754 14.8187 45.7234 15.122C45.6714 15.4167 45.6107 15.6983 45.5414 15.967C45.4547 16.3397 45.3464 16.76 45.2164 17.228C45.0864 17.6873 44.9391 18.177 44.7744 18.697C44.6097 19.217 44.4234 19.75 44.2154 20.296C44.0074 20.8333 43.7777 21.3707 43.5264 21.908C43.2751 22.4367 43.0021 22.935 42.7074 23.403L41.6414 22.987C41.9447 22.5883 42.2221 22.142 42.4734 21.648C42.7334 21.154 42.9717 20.6427 43.1884 20.114C43.4051 19.5767 43.6001 19.048 43.7734 18.528C43.9554 18.008 44.1071 17.527 44.2284 17.085C44.3497 16.643 44.4451 16.2617 44.5144 15.941C44.6357 15.421 44.7354 14.8837 44.8134 14.329C44.8914 13.7657 44.9304 13.2327 44.9304 12.73L46.1394 12.86ZM50.6114 14.238C50.8194 14.5067 51.0361 14.8403 51.2614 15.239C51.4954 15.6377 51.7207 16.0623 51.9374 16.513C52.1627 16.9637 52.3664 17.397 52.5484 17.813C52.7304 18.229 52.8777 18.5887 52.9904 18.892L51.9764 19.373C51.8811 19.0437 51.7511 18.6667 51.5864 18.242C51.4217 17.8087 51.2311 17.371 51.0144 16.929C50.8064 16.4783 50.5854 16.058 50.3514 15.668C50.1261 15.2693 49.8964 14.9357 49.6624 14.667L50.6114 14.238ZM41.4594 15.707C41.6587 15.7243 41.8494 15.733 42.0314 15.733C42.2134 15.7243 42.4084 15.7157 42.6164 15.707C42.8157 15.6983 43.0671 15.6853 43.3704 15.668C43.6737 15.642 44.0031 15.616 44.3584 15.59C44.7224 15.564 45.0777 15.538 45.4244 15.512C45.7797 15.4773 46.1047 15.4513 46.3994 15.434C46.7027 15.408 46.9411 15.395 47.1144 15.395C47.5044 15.395 47.8554 15.4557 48.1674 15.577C48.4881 15.6983 48.7437 15.9193 48.9344 16.24C49.1251 16.5607 49.2204 17.0113 49.2204 17.592C49.2204 18.1033 49.1944 18.658 49.1424 19.256C49.0991 19.8453 49.0211 20.4087 48.9084 20.946C48.7957 21.4833 48.6484 21.9297 48.4664 22.285C48.2671 22.727 48.0071 23.0173 47.6864 23.156C47.3657 23.3033 46.9931 23.377 46.5684 23.377C46.3257 23.377 46.0614 23.3553 45.7754 23.312C45.4894 23.2773 45.2424 23.234 45.0344 23.182L44.8654 22.103C45.0561 22.155 45.2467 22.2027 45.4374 22.246C45.6367 22.2893 45.8274 22.3197 46.0094 22.337C46.1914 22.3543 46.3431 22.363 46.4644 22.363C46.6984 22.363 46.9107 22.324 47.1014 22.246C47.3007 22.1593 47.4654 21.9773 47.5954 21.7C47.7341 21.4053 47.8467 21.037 47.9334 20.595C48.0287 20.1443 48.0981 19.6677 48.1414 19.165C48.1934 18.6623 48.2194 18.1813 48.2194 17.722C48.2194 17.3147 48.1631 17.0157 48.0504 16.825C47.9377 16.6257 47.7774 16.4913 47.5694 16.422C47.3614 16.344 47.1187 16.305 46.8414 16.305C46.6161 16.305 46.3171 16.3223 45.9444 16.357C45.5717 16.383 45.1731 16.4177 44.7484 16.461C44.3324 16.5043 43.9424 16.5477 43.5784 16.591C43.2144 16.6257 42.9327 16.656 42.7334 16.682C42.5861 16.6993 42.3954 16.7253 42.1614 16.76C41.9361 16.786 41.7367 16.812 41.5634 16.838L41.4594 15.707ZM57.2317 12.808C57.509 12.8947 57.8687 12.99 58.3107 13.094C58.7613 13.198 59.2337 13.302 59.7277 13.406C60.2303 13.5013 60.707 13.588 61.1577 13.666C61.6083 13.7353 61.9767 13.783 62.2627 13.809L62.0157 14.81C61.773 14.7753 61.474 14.7277 61.1187 14.667C60.772 14.6063 60.3993 14.537 60.0007 14.459C59.602 14.381 59.2077 14.303 58.8177 14.225C58.4277 14.1383 58.0723 14.0603 57.7517 13.991C57.431 13.913 57.171 13.848 56.9717 13.796L57.2317 12.808ZM56.9457 15.174C56.9023 15.3993 56.8547 15.6767 56.8027 16.006C56.7593 16.3267 56.7117 16.6647 56.6597 17.02C56.6077 17.3753 56.56 17.7133 56.5167 18.034C56.4733 18.3547 56.4343 18.619 56.3997 18.827C57.0323 18.281 57.6997 17.8823 58.4017 17.631C59.1123 17.371 59.8577 17.241 60.6377 17.241C61.305 17.241 61.8857 17.3623 62.3797 17.605C62.8737 17.839 63.2593 18.164 63.5367 18.58C63.814 18.9873 63.9527 19.4467 63.9527 19.958C63.9527 20.5387 63.8183 21.0673 63.5497 21.544C63.2897 22.012 62.878 22.4063 62.3147 22.727C61.76 23.0477 61.0493 23.273 60.1827 23.403C59.316 23.5417 58.276 23.559 57.0627 23.455L56.7507 22.389C58.1287 22.5537 59.2683 22.5493 60.1697 22.376C61.071 22.194 61.7427 21.8907 62.1847 21.466C62.6353 21.0327 62.8607 20.5213 62.8607 19.932C62.8607 19.5853 62.761 19.2777 62.5617 19.009C62.3623 18.7403 62.0893 18.5323 61.7427 18.385C61.4047 18.229 61.0147 18.151 60.5727 18.151C59.7233 18.151 58.952 18.307 58.2587 18.619C57.574 18.9223 57.002 19.347 56.5427 19.893C56.4473 20.0057 56.3693 20.1183 56.3087 20.231C56.248 20.335 56.196 20.439 56.1527 20.543L55.1907 20.309C55.2427 20.0663 55.2947 19.776 55.3467 19.438C55.3987 19.0913 55.4507 18.723 55.5027 18.333C55.5547 17.9343 55.6023 17.5357 55.6457 17.137C55.6977 16.7383 55.741 16.357 55.7757 15.993C55.8103 15.6203 55.8363 15.2997 55.8537 15.031L56.9457 15.174ZM71.354 18.372H72.355C72.355 18.372 72.3507 18.4023 72.342 18.463C72.342 18.515 72.342 18.5757 72.342 18.645C72.342 18.7143 72.3377 18.775 72.329 18.827C72.251 19.8497 72.1687 20.6817 72.082 21.323C72.004 21.9643 71.9087 22.4627 71.796 22.818C71.692 23.1733 71.5664 23.429 71.419 23.585C71.2804 23.7323 71.1287 23.832 70.964 23.884C70.808 23.9447 70.6087 23.9837 70.366 24.001C70.158 24.0183 69.8634 24.0227 69.482 24.014C69.1094 24.014 68.715 24.0053 68.299 23.988C68.2904 23.832 68.2557 23.6587 68.195 23.468C68.1344 23.2773 68.052 23.1127 67.948 22.974C68.3814 23.0087 68.793 23.0303 69.183 23.039C69.573 23.0563 69.846 23.065 70.002 23.065C70.1407 23.065 70.2534 23.0563 70.34 23.039C70.4267 23.0217 70.5047 22.9827 70.574 22.922C70.6954 22.818 70.7994 22.6057 70.886 22.285C70.9814 21.9643 71.0637 21.5007 71.133 20.894C71.211 20.2787 71.2847 19.4857 71.354 18.515V18.372ZM67.506 15.616H68.507C68.429 16.084 68.3424 16.5823 68.247 17.111C68.1604 17.631 68.0694 18.1337 67.974 18.619C67.8874 19.1043 67.8007 19.5333 67.714 19.906L66.739 19.75C66.8257 19.386 66.9167 18.97 67.012 18.502C67.116 18.0253 67.207 17.5357 67.285 17.033C67.3717 16.5217 67.4454 16.0493 67.506 15.616ZM75.865 12.21H76.84V24.04H75.865V12.21ZM67.532 18.372H71.653V19.282H67.389L67.532 18.372ZM67.857 15.616H71.341V13.536H67.064V12.626H72.29V16.526H67.857V15.616ZM85.953 14.342H91.933V15.174H86.837V20.426H85.953V14.342ZM84.822 20.738C85.2554 20.5127 85.784 20.2267 86.408 19.88C87.0407 19.5247 87.682 19.1607 88.332 18.788L88.592 19.516C88.02 19.8627 87.4394 20.2137 86.85 20.569C86.2694 20.9157 85.7364 21.232 85.251 21.518L84.822 20.738ZM80.519 13.692H85.394V14.55H80.519V13.692ZM80.025 16.201H85.628V17.072H80.025V16.201ZM83.067 18.879H85.472V19.75H83.067V18.879ZM82.521 12.08H83.418V16.708H82.521V12.08ZM82.716 16.773H83.6V22.649H82.716V16.773ZM81.494 19.49C81.6847 20.1747 81.9274 20.7337 82.222 21.167C82.5254 21.5917 82.8937 21.921 83.327 22.155C83.7604 22.389 84.2674 22.5493 84.848 22.636C85.4287 22.7227 86.096 22.766 86.85 22.766C86.954 22.766 87.1317 22.766 87.383 22.766C87.643 22.766 87.9464 22.766 88.293 22.766C88.6397 22.766 89.0037 22.766 89.385 22.766C89.7664 22.766 90.1347 22.766 90.49 22.766C90.854 22.7573 91.1747 22.753 91.452 22.753C91.7294 22.753 91.9287 22.7487 92.05 22.74C91.998 22.8093 91.946 22.9003 91.894 23.013C91.842 23.1343 91.7944 23.2557 91.751 23.377C91.7077 23.4983 91.6774 23.6067 91.66 23.702H90.711H86.863C85.9877 23.702 85.2164 23.6457 84.549 23.533C83.8904 23.429 83.3184 23.2383 82.833 22.961C82.3564 22.675 81.9534 22.272 81.624 21.752C81.2947 21.232 81.013 20.5647 80.779 19.75L81.494 19.49ZM88.241 12.08H89.164C89.164 13.12 89.19 14.1037 89.242 15.031C89.3027 15.9497 89.385 16.786 89.489 17.54C89.593 18.294 89.7187 18.9483 89.866 19.503C90.022 20.049 90.191 20.4693 90.373 20.764C90.5637 21.0587 90.7717 21.206 90.997 21.206C91.1184 21.206 91.2137 21.0543 91.283 20.751C91.3524 20.4477 91.3957 19.958 91.413 19.282C91.5084 19.3773 91.621 19.4683 91.751 19.555C91.8897 19.633 92.0154 19.698 92.128 19.75C92.0847 20.348 92.0154 20.8203 91.92 21.167C91.8247 21.5137 91.6947 21.7607 91.53 21.908C91.374 22.0467 91.1617 22.116 90.893 22.116C90.5204 22.116 90.1867 21.9427 89.892 21.596C89.606 21.2493 89.3634 20.7683 89.164 20.153C88.9647 19.5377 88.8 18.8097 88.67 17.969C88.54 17.1283 88.4404 16.2097 88.371 15.213C88.3017 14.2163 88.2584 13.172 88.241 12.08ZM89.71 12.561L90.386 12.197C90.6287 12.431 90.8714 12.6953 91.114 12.99C91.3654 13.276 91.5517 13.5273 91.673 13.744L90.971 14.173C90.8497 13.9477 90.6677 13.6833 90.425 13.38C90.191 13.068 89.9527 12.795 89.71 12.561ZM80.766 17.956L81.585 18.008C81.5937 18.658 81.572 19.3383 81.52 20.049C81.468 20.751 81.3554 21.4443 81.182 22.129C81.0174 22.805 80.753 23.429 80.389 24.001C80.3457 23.9317 80.285 23.858 80.207 23.78C80.129 23.7107 80.0467 23.6413 79.96 23.572C79.882 23.5027 79.804 23.455 79.726 23.429C80.0467 22.9003 80.2807 22.324 80.428 21.7C80.5754 21.076 80.6707 20.4433 80.714 19.802C80.7574 19.152 80.7747 18.5367 80.766 17.956ZM90.893 16.006L91.66 16.214C91.4087 17.098 91.0794 17.93 90.672 18.71C90.2734 19.49 89.814 20.1877 89.294 20.803C88.774 21.4183 88.1977 21.9297 87.565 22.337C87.5044 22.2243 87.4134 22.103 87.292 21.973C87.1707 21.8343 87.0624 21.726 86.967 21.648C87.5737 21.3013 88.1284 20.842 88.631 20.27C89.1337 19.6893 89.58 19.035 89.97 18.307C90.36 17.5703 90.6677 16.8033 90.893 16.006ZM96.5074 12.873C96.4727 13.0897 96.4467 13.3107 96.4294 13.536C96.4121 13.7527 96.3991 13.9693 96.3904 14.186C96.3731 14.55 96.3557 15.0007 96.3384 15.538C96.3211 16.0753 96.3037 16.6473 96.2864 17.254C96.2691 17.852 96.2561 18.45 96.2474 19.048C96.2387 19.646 96.2344 20.1833 96.2344 20.66C96.2344 21.1367 96.3254 21.518 96.5074 21.804C96.6894 22.09 96.9407 22.2937 97.2614 22.415C97.5821 22.5363 97.9504 22.597 98.3664 22.597C98.9557 22.597 99.4887 22.5233 99.9654 22.376C100.442 22.22 100.867 22.0163 101.239 21.765C101.612 21.505 101.941 21.2147 102.227 20.894C102.522 20.5733 102.786 20.244 103.02 19.906L103.761 20.79C103.536 21.102 103.259 21.427 102.929 21.765C102.609 22.0943 102.227 22.402 101.785 22.688C101.343 22.974 100.832 23.208 100.251 23.39C99.6794 23.572 99.0381 23.663 98.3274 23.663C97.7121 23.663 97.1661 23.5677 96.6894 23.377C96.2127 23.1863 95.8401 22.8787 95.5714 22.454C95.3027 22.0293 95.1684 21.466 95.1684 20.764C95.1684 20.374 95.1727 19.945 95.1814 19.477C95.1901 19.0003 95.2031 18.5107 95.2204 18.008C95.2377 17.5053 95.2507 17.0157 95.2594 16.539C95.2681 16.0537 95.2767 15.6073 95.2854 15.2C95.2941 14.7927 95.2984 14.4547 95.2984 14.186C95.2984 13.9433 95.2897 13.7093 95.2724 13.484C95.2551 13.2587 95.2291 13.0507 95.1944 12.86L96.5074 12.873ZM111.077 13.783C111.033 13.6443 110.981 13.484 110.921 13.302C110.869 13.12 110.812 12.9423 110.752 12.769L111.857 12.626C111.9 12.8773 111.961 13.1633 112.039 13.484C112.117 13.796 112.208 14.1167 112.312 14.446C112.416 14.7667 112.52 15.0657 112.624 15.343C112.823 15.9063 113.074 16.4697 113.378 17.033C113.681 17.5877 113.967 18.0557 114.236 18.437C114.331 18.5583 114.426 18.6753 114.522 18.788C114.617 18.9007 114.712 19.0133 114.808 19.126L114.275 19.854C114.119 19.8193 113.911 19.7847 113.651 19.75C113.399 19.7153 113.122 19.685 112.819 19.659C112.524 19.6243 112.229 19.594 111.935 19.568C111.64 19.542 111.376 19.5203 111.142 19.503L111.22 18.632C111.462 18.6493 111.718 18.671 111.987 18.697C112.264 18.723 112.524 18.749 112.767 18.775C113.018 18.7923 113.222 18.8097 113.378 18.827C113.196 18.5497 113.001 18.2333 112.793 17.878C112.585 17.514 112.381 17.1327 112.182 16.734C111.991 16.3267 111.822 15.928 111.675 15.538C111.536 15.1567 111.419 14.8187 111.324 14.524C111.228 14.2293 111.146 13.9823 111.077 13.783ZM106.319 14.797C107.047 14.8837 107.749 14.9443 108.425 14.979C109.109 15.0137 109.755 15.0223 110.362 15.005C110.977 14.9877 111.532 14.953 112.026 14.901C112.372 14.8577 112.736 14.8057 113.118 14.745C113.508 14.6843 113.893 14.6063 114.275 14.511C114.656 14.4157 115.016 14.316 115.354 14.212L115.471 15.226C115.167 15.3213 114.834 15.4037 114.47 15.473C114.106 15.5423 113.742 15.6073 113.378 15.668C113.014 15.7287 112.671 15.7763 112.351 15.811C111.527 15.9063 110.604 15.9583 109.582 15.967C108.568 15.9757 107.489 15.9323 106.345 15.837L106.319 14.797ZM108.321 18.944C108.13 19.256 107.978 19.5593 107.866 19.854C107.762 20.14 107.71 20.439 107.71 20.751C107.71 21.3663 107.978 21.817 108.516 22.103C109.053 22.389 109.803 22.5363 110.765 22.545C111.432 22.5537 112.043 22.5277 112.598 22.467C113.161 22.4063 113.668 22.324 114.119 22.22L114.067 23.26C113.668 23.3293 113.191 23.3943 112.637 23.455C112.082 23.5157 111.441 23.546 110.713 23.546C109.889 23.5373 109.174 23.4333 108.568 23.234C107.97 23.0347 107.506 22.74 107.177 22.35C106.847 21.9513 106.683 21.4573 106.683 20.868C106.683 20.5127 106.739 20.1617 106.852 19.815C106.973 19.4597 107.125 19.0913 107.307 18.71L108.321 18.944ZM129.752 22.012C129.405 22.3587 129.032 22.6273 128.634 22.818C128.235 23 127.81 23.091 127.36 23.091C126.935 23.091 126.588 22.9523 126.32 22.675C126.051 22.3977 125.917 21.9903 125.917 21.453C125.917 21.089 125.943 20.6947 125.995 20.27C126.047 19.8453 126.103 19.412 126.164 18.97C126.224 18.5193 126.281 18.0947 126.333 17.696C126.385 17.2887 126.411 16.9247 126.411 16.604C126.411 16.2313 126.32 15.9627 126.138 15.798C125.956 15.6247 125.696 15.538 125.358 15.538C125.054 15.538 124.716 15.629 124.344 15.811C123.971 15.9843 123.59 16.2227 123.2 16.526C122.81 16.8207 122.428 17.1543 122.056 17.527C121.683 17.891 121.341 18.255 121.029 18.619L121.055 17.332C121.219 17.1587 121.427 16.955 121.679 16.721C121.939 16.487 122.225 16.2443 122.537 15.993C122.857 15.7417 123.195 15.5077 123.551 15.291C123.906 15.0743 124.257 14.901 124.604 14.771C124.959 14.641 125.297 14.576 125.618 14.576C126.025 14.576 126.363 14.6497 126.632 14.797C126.9 14.9357 127.1 15.1393 127.23 15.408C127.36 15.668 127.425 15.9713 127.425 16.318C127.425 16.6387 127.399 17.0113 127.347 17.436C127.303 17.852 127.247 18.2853 127.178 18.736C127.117 19.1867 127.061 19.6243 127.009 20.049C126.965 20.4737 126.944 20.8507 126.944 21.18C126.944 21.3967 126.996 21.583 127.1 21.739C127.212 21.895 127.386 21.973 127.62 21.973C127.932 21.973 128.252 21.882 128.582 21.7C128.92 21.5093 129.253 21.2407 129.583 20.894L129.752 22.012ZM121.016 15.798C120.912 15.8067 120.751 15.8283 120.535 15.863C120.327 15.889 120.088 15.9193 119.82 15.954C119.551 15.9887 119.278 16.0277 119.001 16.071C118.723 16.1057 118.463 16.1403 118.221 16.175L118.117 15.109C118.255 15.1177 118.39 15.122 118.52 15.122C118.658 15.1133 118.806 15.1047 118.962 15.096C119.144 15.0873 119.365 15.07 119.625 15.044C119.893 15.0093 120.171 14.9747 120.457 14.94C120.751 14.8967 121.024 14.8533 121.276 14.81C121.536 14.758 121.739 14.706 121.887 14.654L122.264 15.109C122.186 15.213 122.099 15.343 122.004 15.499C121.908 15.6463 121.813 15.798 121.718 15.954C121.622 16.11 121.54 16.2487 121.471 16.37L121.068 18.138C120.92 18.372 120.738 18.6493 120.522 18.97C120.305 19.2907 120.075 19.6287 119.833 19.984C119.599 20.3307 119.36 20.6773 119.118 21.024C118.875 21.362 118.654 21.674 118.455 21.96L117.792 21.063C117.956 20.8637 118.147 20.621 118.364 20.335C118.589 20.0403 118.823 19.724 119.066 19.386C119.317 19.048 119.56 18.7187 119.794 18.398C120.036 18.0687 120.249 17.7653 120.431 17.488C120.621 17.2107 120.764 16.9853 120.86 16.812L120.912 16.149L121.016 15.798ZM120.899 13.64C120.899 13.4927 120.894 13.3367 120.886 13.172C120.886 13.0073 120.873 12.8427 120.847 12.678L122.069 12.717C122.034 12.8903 121.991 13.1633 121.939 13.536C121.887 13.9 121.835 14.3333 121.783 14.836C121.739 15.3387 121.692 15.8673 121.64 16.422C121.596 16.9767 121.562 17.527 121.536 18.073C121.51 18.6103 121.497 19.1087 121.497 19.568C121.497 19.958 121.497 20.322 121.497 20.66C121.497 20.9893 121.501 21.3187 121.51 21.648C121.518 21.9687 121.531 22.3197 121.549 22.701C121.557 22.8137 121.566 22.9437 121.575 23.091C121.583 23.2383 121.596 23.3727 121.614 23.494H120.483C120.5 23.3727 120.509 23.2383 120.509 23.091C120.517 22.9523 120.522 22.831 120.522 22.727C120.53 22.311 120.535 21.9427 120.535 21.622C120.535 21.3013 120.535 20.972 120.535 20.634C120.543 20.2873 120.552 19.8757 120.561 19.399C120.561 19.2083 120.569 18.9483 120.587 18.619C120.604 18.281 120.626 17.9127 120.652 17.514C120.678 17.1067 120.704 16.695 120.73 16.279C120.756 15.863 120.782 15.473 120.808 15.109C120.834 14.7363 120.855 14.42 120.873 14.16C120.89 13.9 120.899 13.7267 120.899 13.64ZM133.11 13.419C133.257 13.4363 133.413 13.4493 133.578 13.458C133.751 13.4667 133.903 13.471 134.033 13.471C134.163 13.471 134.375 13.4667 134.67 13.458C134.973 13.4493 135.311 13.4407 135.684 13.432C136.065 13.4147 136.442 13.4017 136.815 13.393C137.196 13.3757 137.534 13.3583 137.829 13.341C138.132 13.3237 138.353 13.3107 138.492 13.302C138.683 13.2847 138.83 13.2673 138.934 13.25C139.038 13.2327 139.125 13.2153 139.194 13.198L139.792 13.952C139.679 14.03 139.558 14.1123 139.428 14.199C139.307 14.2857 139.185 14.381 139.064 14.485C138.899 14.6063 138.678 14.784 138.401 15.018C138.124 15.2433 137.816 15.499 137.478 15.785C137.149 16.0623 136.824 16.3353 136.503 16.604C136.182 16.8727 135.892 17.1153 135.632 17.332C135.935 17.228 136.239 17.1587 136.542 17.124C136.854 17.0807 137.153 17.059 137.439 17.059C138.158 17.059 138.795 17.1933 139.35 17.462C139.913 17.722 140.351 18.0817 140.663 18.541C140.984 19.0003 141.144 19.5247 141.144 20.114C141.144 20.8073 140.962 21.414 140.598 21.934C140.234 22.454 139.718 22.8527 139.051 23.13C138.384 23.416 137.591 23.559 136.672 23.559C136.083 23.559 135.576 23.481 135.151 23.325C134.726 23.169 134.397 22.9523 134.163 22.675C133.938 22.3977 133.825 22.077 133.825 21.713C133.825 21.4183 133.907 21.141 134.072 20.881C134.237 20.621 134.471 20.413 134.774 20.257C135.077 20.101 135.428 20.023 135.827 20.023C136.408 20.023 136.889 20.1443 137.27 20.387C137.651 20.621 137.946 20.933 138.154 21.323C138.362 21.7043 138.479 22.116 138.505 22.558L137.569 22.714C137.534 22.1593 137.361 21.7043 137.049 21.349C136.746 20.985 136.334 20.803 135.814 20.803C135.519 20.803 135.272 20.8853 135.073 21.05C134.874 21.2147 134.774 21.4097 134.774 21.635C134.774 21.947 134.934 22.194 135.255 22.376C135.576 22.558 135.992 22.649 136.503 22.649C137.24 22.649 137.877 22.5493 138.414 22.35C138.96 22.1507 139.376 21.8603 139.662 21.479C139.957 21.0977 140.104 20.6383 140.104 20.101C140.104 19.6763 139.978 19.295 139.727 18.957C139.476 18.619 139.129 18.3547 138.687 18.164C138.254 17.9647 137.755 17.865 137.192 17.865C136.646 17.865 136.156 17.9257 135.723 18.047C135.29 18.1597 134.882 18.3243 134.501 18.541C134.128 18.7577 133.756 19.0307 133.383 19.36C133.019 19.6807 132.629 20.049 132.213 20.465L131.472 19.698C131.741 19.4813 132.035 19.2387 132.356 18.97C132.685 18.6927 133.015 18.4197 133.344 18.151C133.673 17.8737 133.977 17.618 134.254 17.384C134.54 17.1413 134.778 16.942 134.969 16.786C135.151 16.6387 135.376 16.4523 135.645 16.227C135.922 15.993 136.208 15.7503 136.503 15.499C136.798 15.2477 137.075 15.0093 137.335 14.784C137.604 14.5587 137.82 14.3767 137.985 14.238C137.846 14.238 137.643 14.2467 137.374 14.264C137.105 14.2727 136.806 14.2857 136.477 14.303C136.148 14.3117 135.818 14.3247 135.489 14.342C135.168 14.3593 134.874 14.3767 134.605 14.394C134.345 14.4027 134.146 14.4113 134.007 14.42C133.868 14.4287 133.725 14.4373 133.578 14.446C133.431 14.4547 133.288 14.472 133.149 14.498L133.11 13.419ZM143.619 14.329H155.254V15.265H143.619V14.329ZM147.87 17.397H153.057V18.333H147.87V17.397ZM152.706 17.397H153.72C153.72 17.397 153.715 17.4273 153.707 17.488C153.707 17.5487 153.702 17.618 153.694 17.696C153.694 17.7653 153.689 17.826 153.681 17.878C153.594 19.1173 153.503 20.127 153.408 20.907C153.312 21.6783 153.204 22.272 153.083 22.688C152.961 23.104 152.814 23.3987 152.641 23.572C152.493 23.728 152.333 23.8363 152.16 23.897C151.986 23.9577 151.774 23.9967 151.523 24.014C151.297 24.0313 150.985 24.0357 150.587 24.027C150.188 24.0183 149.772 24.001 149.339 23.975C149.33 23.8363 149.291 23.676 149.222 23.494C149.161 23.3207 149.083 23.1647 148.988 23.026C149.456 23.0607 149.898 23.0823 150.314 23.091C150.73 23.1083 151.02 23.117 151.185 23.117C151.332 23.117 151.453 23.1083 151.549 23.091C151.653 23.0737 151.739 23.0303 151.809 22.961C151.947 22.8397 152.069 22.584 152.173 22.194C152.277 21.7953 152.372 21.2233 152.459 20.478C152.545 19.724 152.628 18.7533 152.706 17.566V17.397ZM147.636 14.849H148.728C148.693 15.5423 148.637 16.2443 148.559 16.955C148.481 17.657 148.355 18.3547 148.182 19.048C148.017 19.7327 147.77 20.387 147.441 21.011C147.12 21.635 146.695 22.207 146.167 22.727C145.638 23.247 144.979 23.702 144.191 24.092C144.113 23.962 144.004 23.819 143.866 23.663C143.736 23.5157 143.606 23.3943 143.476 23.299C144.238 22.9523 144.867 22.5407 145.361 22.064C145.855 21.5787 146.249 21.05 146.544 20.478C146.838 19.8973 147.059 19.2907 147.207 18.658C147.354 18.0253 147.454 17.3883 147.506 16.747C147.566 16.097 147.61 15.4643 147.636 14.849ZM148.884 12.041H149.885V14.732H148.884V12.041ZM157.867 14.329L167.76 14.329V15.278L158.829 15.278V24.04H157.867V14.329ZM167.396 14.329H168.371V22.74C168.371 23.0607 168.327 23.3077 168.241 23.481C168.154 23.6543 167.994 23.7843 167.76 23.871C167.526 23.949 167.205 23.9967 166.798 24.014C166.39 24.0313 165.888 24.04 165.29 24.04C165.281 23.9447 165.255 23.8363 165.212 23.715C165.177 23.6023 165.138 23.481 165.095 23.351C165.051 23.2297 165.004 23.1213 164.952 23.026C165.264 23.0433 165.563 23.052 165.849 23.052C166.143 23.0607 166.395 23.0607 166.603 23.052C166.819 23.052 166.971 23.052 167.058 23.052C167.196 23.052 167.287 23.0303 167.331 22.987C167.374 22.935 167.396 22.8527 167.396 22.74V14.329ZM162.274 12.054L163.483 12.249C163.292 12.717 163.08 13.1937 162.846 13.679C162.612 14.1643 162.395 14.5803 162.196 14.927L161.273 14.693C161.394 14.4503 161.515 14.173 161.637 13.861C161.767 13.549 161.888 13.237 162.001 12.925C162.122 12.6043 162.213 12.314 162.274 12.054ZM160.532 17.007H161.429V22.246H160.532V17.007ZM160.948 17.007H165.628V21.31H160.948V20.426H164.718V17.878H160.948V17.007ZM180.072 12.86C180.054 12.9727 180.041 13.094 180.033 13.224C180.033 13.3453 180.033 13.4797 180.033 13.627C180.024 13.7223 180.02 13.8783 180.02 14.095C180.028 14.3117 180.033 14.5587 180.033 14.836C180.041 15.1047 180.046 15.382 180.046 15.668C180.054 15.954 180.059 16.2183 180.059 16.461C180.059 16.695 180.059 16.8857 180.059 17.033C180.059 17.7783 180.041 18.4717 180.007 19.113C179.981 19.7543 179.885 20.3523 179.721 20.907C179.556 21.4617 179.283 21.9773 178.902 22.454C178.529 22.922 177.996 23.3597 177.303 23.767L176.354 23.026C176.562 22.9393 176.783 22.8223 177.017 22.675C177.259 22.5277 177.459 22.376 177.615 22.22C177.961 21.9167 178.234 21.5917 178.434 21.245C178.633 20.8983 178.776 20.517 178.863 20.101C178.958 19.685 179.019 19.2257 179.045 18.723C179.071 18.2203 179.084 17.657 179.084 17.033C179.084 16.825 179.079 16.5607 179.071 16.24C179.062 15.9107 179.053 15.5727 179.045 15.226C179.036 14.8707 179.027 14.55 179.019 14.264C179.01 13.978 178.997 13.77 178.98 13.64C178.971 13.4927 178.954 13.354 178.928 13.224C178.902 13.0853 178.88 12.964 178.863 12.86H180.072ZM175.327 15.551C175.517 15.577 175.73 15.603 175.964 15.629C176.198 15.655 176.44 15.6723 176.692 15.681C176.952 15.6897 177.194 15.694 177.42 15.694C177.957 15.694 178.507 15.681 179.071 15.655C179.643 15.629 180.193 15.5857 180.722 15.525C181.259 15.4643 181.74 15.3863 182.165 15.291V16.357C181.749 16.4177 181.276 16.474 180.748 16.526C180.228 16.578 179.682 16.617 179.11 16.643C178.546 16.6603 177.987 16.669 177.433 16.669C177.225 16.669 176.991 16.6647 176.731 16.656C176.479 16.6473 176.228 16.6387 175.977 16.63C175.734 16.6213 175.517 16.6083 175.327 16.591V15.551ZM173.494 13.055C173.459 13.1763 173.42 13.3193 173.377 13.484C173.342 13.64 173.307 13.7787 173.273 13.9C173.169 14.368 173.069 14.888 172.974 15.46C172.878 16.032 172.805 16.6257 172.753 17.241C172.701 17.8563 172.683 18.463 172.701 19.061C172.718 19.659 172.787 20.2267 172.909 20.764C173.004 20.4867 173.112 20.166 173.234 19.802C173.364 19.438 173.489 19.0957 173.611 18.775L174.17 19.113C174.066 19.4077 173.957 19.7413 173.845 20.114C173.732 20.478 173.628 20.829 173.533 21.167C173.437 21.4963 173.368 21.7693 173.325 21.986C173.299 22.0813 173.277 22.1853 173.26 22.298C173.251 22.4107 173.251 22.5017 173.26 22.571C173.268 22.6403 173.273 22.714 173.273 22.792C173.281 22.87 173.29 22.9437 173.299 23.013L172.415 23.117C172.328 22.857 172.228 22.506 172.116 22.064C172.012 21.622 171.921 21.1367 171.843 20.608C171.765 20.0707 171.726 19.5333 171.726 18.996C171.726 18.2853 171.756 17.605 171.817 16.955C171.886 16.305 171.96 15.707 172.038 15.161C172.116 14.615 172.176 14.1643 172.22 13.809C172.246 13.653 172.263 13.497 172.272 13.341C172.28 13.185 172.285 13.0507 172.285 12.938L173.494 13.055Z" fill="#0B2188"/>
</svg>
