<svg width="417" height="214" viewBox="0 0 417 214" fill="none" xmlns="http://www.w3.org/2000/svg">
  <path d="M329.765 39.6482C330.338 39.695 330.912 39.777 331.486 39.777C339.659 39.777 347.832 39.777 356.006 39.777H357.844C364.19 74.4369 370.514 108.991 376.848 143.558L377.2 143.534V39.8238H388.218C383.804 35.4445 379.506 31.1823 375.35 27.0606C380.08 22.3417 384.459 17.9624 388.804 13.6182C392.914 17.7516 397.258 22.1075 401.579 26.4517C397.387 30.6202 393.066 34.9059 388.757 39.1915C388.85 39.3555 388.956 39.5194 389.05 39.6833H399.799V152.059H355.338C354.706 148.651 354.062 145.197 353.429 141.754C352.821 138.452 352.235 135.138 351.568 131.836C351.486 131.415 350.947 130.771 350.608 130.771C345.818 130.701 341.029 130.724 336.076 130.724C334.753 137.878 333.453 144.939 332.13 152.105H309.086C309.812 148.148 310.526 144.284 311.229 140.408C314.121 124.588 317.013 108.757 319.905 92.9377C323.102 75.4556 326.287 57.9851 329.495 40.503C329.554 40.1985 329.695 39.9058 329.8 39.6131L329.753 39.6482H329.765ZM343.91 72.0247H343.57C341.849 83.9566 340.116 95.8768 338.383 107.902H349.109C347.364 95.8651 345.643 83.9449 343.91 72.0247Z" fill="white"/>
  <path d="M247.833 152.14H223.735C218.079 132.878 212.412 113.581 206.733 94.2721C206.604 94.2955 206.463 94.3189 206.335 94.3423V152.093H185.047V39.8701H209.086C214.742 59.1204 220.409 78.4175 226.077 97.7263C226.205 97.7029 226.334 97.6795 226.475 97.6561V39.8935H247.833V152.152V152.14Z" fill="white"/>
  <path d="M112.318 39.7656H135V152.094H112.424V107.024H93.6302V152.059H70.8203V39.7656H93.7122L93.6537 39.7188C93.6185 40.1403 93.56 40.5501 93.56 40.9717C93.56 54.66 93.56 68.3483 93.56 82.0366C93.56 82.4347 93.6185 82.8445 93.6537 83.2661H112.365V39.7188L112.318 39.7656Z" fill="white"/>
  <path d="M60.3648 81.217H37.7422C37.7422 80.5964 37.7422 80.0343 37.7422 79.4723C37.7422 75.21 37.7539 70.9478 37.7422 66.6856C37.7305 62.7278 34.8851 59.7536 30.9859 59.5897C26.4426 59.3906 23.246 62.0018 22.9064 66.1938C22.883 66.4514 22.8947 66.7207 22.8947 66.9783C22.8947 87.6103 22.9298 108.254 22.8713 128.886C22.8479 135.595 29.8267 137.996 34.3699 135.314C36.6415 133.968 37.7539 131.942 37.7539 129.296C37.7539 123.453 37.7539 117.61 37.7539 111.767C37.7539 111.205 37.7539 110.631 37.7539 109.975H60.3648C60.4234 110.35 60.517 110.69 60.517 111.041C60.5053 117.938 60.6107 124.835 60.4351 131.731C60.0955 145.115 50.6343 156.028 37.4261 158.464C30.377 159.764 23.4216 159.412 16.8409 156.427C5.69356 151.38 0.295523 142.328 0.166719 130.373C-0.0674688 109.214 0.0144971 88.0553 0.119882 66.8846C0.201848 51.6507 10.4242 40.316 25.6347 38.4659C35.4355 37.2715 44.4517 39.2036 51.8638 46.1356C57.7185 51.6039 60.318 58.5827 60.4819 66.4865C60.5756 71.0649 60.5053 75.6433 60.5053 80.2217C60.5053 80.5261 60.4234 80.8306 60.3531 81.217H60.3648Z" fill="white"/>
  <path d="M310.521 39.6006C310.591 39.9519 310.72 40.3032 310.72 40.6661C310.732 47.3522 310.72 54.0383 310.72 60.7244C310.72 61.0288 310.662 61.345 310.615 61.8133C310.029 61.8485 309.467 61.907 308.917 61.907C304.807 61.907 300.697 61.989 296.587 61.8719C294.959 61.8251 294.561 62.3286 294.573 63.9093C294.62 92.492 294.608 121.075 294.608 149.657V152.093H271.88V61.9422H253.859V39.7879H255.709C273.367 39.7879 291.025 39.7879 308.683 39.7879C309.303 39.7879 309.924 39.6826 310.545 39.6357L310.521 39.6123V39.6006Z" fill="white"/>
  <path d="M148.772 152.07V39.8239H159.72C155.224 35.4563 150.879 31.2409 146.641 27.1309C151.441 22.3417 155.821 17.9741 160.118 13.7002C164.275 17.857 168.631 22.1895 173.104 26.6508C168.877 30.8428 164.568 35.1167 160.259 39.3906C160.317 39.5077 160.387 39.6248 160.446 39.7419H171.336V152.082H148.748L148.772 152.07Z" fill="white"/>
  <path d="M310.547 39.6248C310.629 39.0745 310.793 38.5241 310.793 37.9738C310.816 32.8217 310.804 27.6695 310.793 22.5174C310.793 21.7797 310.652 21.0303 311.835 21.0303C317.678 21.0537 323.509 21.042 329.598 21.042V22.8101C329.598 27.8569 329.598 32.9036 329.598 37.9504C329.598 38.5241 329.68 39.0862 329.727 39.66L329.774 39.6248C323.357 39.6248 316.928 39.6248 310.5 39.6248L310.523 39.6482L310.547 39.6248Z" fill="white"/>
  <path d="M120.125 19.9297C121.448 13.7472 122.724 7.76365 124.036 1.61621C130.195 2.92767 136.19 4.20399 142.385 5.51545C141.073 11.6278 139.797 17.6581 138.474 23.8407C132.373 22.5409 126.39 21.2646 120.125 19.9297Z" fill="white"/>
  <path d="M364.92 3.91094C363.62 10.0115 362.344 15.9834 361.021 22.2245C354.885 20.9247 348.854 19.6367 342.672 18.3252C343.983 12.1778 345.271 6.14744 346.595 0C352.707 1.31145 358.702 2.58778 364.931 3.91094H364.92Z" fill="white"/>
  <path d="M93.7187 39.7655V21.1826H112.325C112.325 27.3886 112.325 33.5712 112.325 39.7655L112.372 39.7186C106.142 39.7186 99.9013 39.7186 93.6719 39.7186L93.7304 39.7655H93.7187Z" fill="white"/>
  <path d="M410.402 140.853C413.633 140.876 416.034 143.323 416.01 146.578C415.987 149.787 413.528 152.199 410.285 152.199C407.053 152.199 404.605 149.763 404.594 146.543C404.594 143.253 407.053 140.841 410.402 140.864V140.853ZM415.191 146.532C415.191 143.768 413.06 141.66 410.273 141.649C407.58 141.649 405.296 143.92 405.343 146.567C405.39 149.166 407.615 151.356 410.238 151.368C413.013 151.391 415.179 149.26 415.191 146.52V146.532Z" fill="white"/>
  <path d="M412.844 149.553C410.584 150.056 411.181 147.211 409.694 146.977C408.605 147.574 410.127 149.365 408.266 149.717V143.405C410.373 142.89 412.305 143.171 412.481 144.248C412.633 145.138 412.141 146.145 411.931 147.105C411.767 147.082 411.591 147.059 411.427 147.035C411.884 147.855 412.34 148.663 412.832 149.564L412.844 149.553ZM409.366 146.192C410.209 145.864 410.842 145.654 411.439 145.361C411.533 145.314 411.509 144.728 411.415 144.693C410.807 144.447 410.163 144.284 409.366 144.049V146.192Z" fill="white"/>
  <g clip-path="url(#clip0_4350_57189)">
    <path d="M11.1499 190.19C11.05 190.39 10.817 190.523 10.4398 190.545C10.1847 191.233 9.87402 192.021 9.519 192.786H18.0173V213.477H14.7556V212.202H3.08424V213.533H0V192.798H6.1463C6.47913 191.699 6.81197 190.445 6.98948 189.425L11.1499 190.19ZM14.7445 195.782H3.08424V198.378H14.7445V195.782ZM14.7445 201.207H3.08424V203.859H14.7445V201.207ZM3.08424 209.373H14.7445V206.699H3.08424V209.373Z" fill="white"/>
    <path d="M42.0701 198.889C40.0287 196.536 38.0872 193.685 36.656 190.956L39.6626 189.758C41.2935 193.02 44.5108 196.747 47.3177 198.911C46.4967 199.554 45.2985 200.797 44.7105 201.662C44.178 201.152 43.6122 200.586 43.0575 199.998C42.7801 207.986 42.4695 211.015 41.5819 212.091C40.7609 213.112 39.8956 213.422 37.0665 213.422C36.5007 213.422 35.9127 213.422 35.3358 213.4C35.2803 212.479 34.8809 211.181 34.3373 210.316C35.7352 210.416 37.0887 210.449 37.7322 210.449C38.187 210.449 38.4977 210.393 38.775 210.094C39.2854 209.528 39.5627 207.232 39.7957 201.851H34.6368C33.9268 206.488 32.5733 211.081 25.7058 213.711C25.3175 212.845 24.43 211.592 23.7199 210.904C29.5112 208.996 30.8647 205.601 31.3751 201.851H27.015V199.942C26.3049 200.63 25.5838 201.274 24.8405 201.829C24.2746 201.196 23.1319 200.065 22.4219 199.51C25.4839 197.413 28.3685 193.663 29.9217 189.813L33.6716 191.089C33.5496 191.367 33.2167 191.422 32.9061 191.367C31.6857 194.074 29.9772 196.703 28.0024 198.866H40.6278L41.3378 198.844L42.0479 198.9L42.0701 198.889Z" fill="white"/>
    <path d="M55.5721 202.617C57.8131 200.675 60.4203 199.577 63.3049 199.577C67.4653 199.577 69.8062 202.184 69.8062 205.423C69.8062 211.27 63.6044 213.356 58.1016 212.979C57.5913 212.269 57.1364 210.604 57.0254 209.639C62.8389 210.272 66.4668 208.541 66.4668 205.324C66.4668 203.715 65.1687 202.572 62.972 202.572C59.8323 202.572 57.3583 204.303 55.7274 206.2C55.4168 206.555 55.0617 207.121 54.8398 207.498C54.0965 207.221 52.7208 206.577 52.1328 206.122C52.3658 204.569 52.7985 195.949 52.7985 194.95C53.7637 195.028 55.3946 195.305 56.1379 195.538C55.9382 196.914 55.6054 201.33 55.5721 202.628V202.617ZM55.6054 190.191C58.0572 191.012 62.1067 192.055 64.1037 192.432C63.9705 193.319 63.5933 194.573 63.1052 195.361C61.4188 195.05 55.8605 193.552 54.6401 193.042C54.7955 192.199 55.3058 190.768 55.6054 190.18V190.191Z" fill="white"/>
    <path d="M82.0399 191.233C81.9623 192.353 81.2744 202.228 81.2744 205.722C81.2744 208.429 82.6057 209.45 84.747 209.45C88.0864 209.45 91.1706 207.542 93.0123 204.957C93.6003 205.722 94.4435 207.553 94.6432 208.396C92.624 210.637 88.5745 212.967 84.4696 212.967C80.3647 212.967 77.8906 211.025 77.8906 206.721C77.8906 203.204 78.3233 195.981 78.3455 193.707C78.3677 192.564 78.3677 191.688 78.29 190.878C79.1776 190.878 81.3521 191.055 82.0399 191.233Z" fill="white"/>
    <path d="M103.113 201.129C103.49 204.746 104.411 207.487 105.565 207.487C106.508 207.487 106.963 204.68 107.196 202.206C108.272 202.561 109.748 203.404 110.38 203.992C109.437 209.583 107.773 211.514 105.632 211.514C103.135 211.514 100.55 209.217 99.7183 201.618C99.3633 198.356 99.1858 195.516 99.0859 193.452C100.029 193.43 102.048 193.607 102.814 193.807C102.758 194.983 102.891 198.777 103.124 201.129H103.113ZM121.663 205.134C121.02 205.722 119.622 206.433 118.423 206.821C117.813 203.271 116.205 199.221 113.575 196.392C114.341 195.782 115.716 194.994 116.404 194.661C119.078 197.391 121.33 202.294 121.663 205.146V205.134Z" fill="white"/>
    <path d="M148.609 204.701H143.816C145.325 205.722 147.233 206.509 149.275 206.975C148.665 207.486 147.877 208.562 147.489 209.25C146.446 208.939 145.447 208.54 144.504 208.029V213.566H141.52V212.855H132.433V213.566H129.604V208.029C128.639 208.617 127.563 209.15 126.343 209.638C126.032 208.928 125.244 207.852 124.656 207.397C126.797 206.687 128.484 205.766 129.782 204.712H125.289V202.393H131.923C132.101 202.116 132.278 201.861 132.433 201.572H128.839V194.35H145.247V201.572H136.039C135.939 201.65 135.784 201.706 135.551 201.728C135.451 201.961 135.318 202.16 135.196 202.393H148.62V204.712L148.609 204.701ZM131.213 194.117V193.352H125.477V190.933H131.213V189.446L134.863 189.646C134.841 189.879 134.63 190.056 134.175 190.101V190.922H139.589V189.446L143.262 189.646C143.239 189.879 143.062 190.056 142.596 190.134V190.922H148.465V193.34H142.596V194.106H139.589V193.34H134.175V194.106H131.213V194.117ZM131.69 196.103V197.101H142.23V196.103H131.69ZM131.69 198.766V199.808H142.23V198.766H131.69ZM141.52 208.484V207.563H132.433V208.484H141.52ZM132.433 210.981H141.52V210.038H132.433V210.981ZM133.587 204.701C133.31 205.034 132.999 205.367 132.666 205.7H141.364C141.032 205.367 140.721 205.034 140.444 204.701H133.576H133.587Z" fill="white"/>
    <path d="M157.642 202.616C159.883 200.674 162.491 199.576 165.375 199.576C169.536 199.576 171.877 202.183 171.877 205.422C171.877 211.269 165.675 213.355 160.172 212.978C159.662 212.268 159.207 210.604 159.096 209.638C164.909 210.271 168.537 208.54 168.537 205.323C168.537 203.714 167.239 202.571 165.042 202.571C161.903 202.571 159.429 204.302 157.798 206.199C157.487 206.554 157.132 207.12 156.91 207.497C156.167 207.22 154.791 206.576 154.203 206.121C154.436 204.568 154.869 195.948 154.869 194.949C155.834 195.027 157.465 195.304 158.208 195.537C158.009 196.913 157.676 201.329 157.642 202.627V202.616ZM157.676 190.19C160.128 191.011 164.177 192.054 166.174 192.431C166.041 193.318 165.664 194.572 165.175 195.36C163.489 195.049 157.931 193.551 156.71 193.041C156.866 192.198 157.376 190.767 157.676 190.179V190.19Z" fill="white"/>
    <path d="M184.11 191.233C184.033 192.353 183.345 202.228 183.345 205.722C183.345 208.429 184.676 209.45 186.817 209.45C190.157 209.45 193.241 207.542 195.083 204.957C195.671 205.722 196.514 207.553 196.713 208.396C194.694 210.637 190.645 212.967 186.54 212.967C182.435 212.967 179.961 211.025 179.961 206.721C179.961 203.204 180.394 195.981 180.416 193.707C180.438 192.564 180.438 191.688 180.36 190.878C181.248 190.878 183.422 191.055 184.11 191.233Z" fill="white"/>
    <path d="M217.054 201.029C217.054 204.225 216.211 208.119 214.813 210.193C213.925 211.591 212.949 212.057 211.629 212.057C210.43 212.057 208.589 211.547 207.291 210.881C207.036 209.916 207.058 208.174 207.213 207.364C208.256 207.975 209.865 208.662 210.785 208.662C211.473 208.662 211.862 208.529 212.316 207.797C213.259 206.421 213.87 203.481 213.87 201.24C213.87 199.299 213.027 198.589 211.418 198.589C210.963 198.589 210.242 198.689 209.354 198.844C208.001 202.649 205.471 209.384 203.874 212.29C202.953 212.057 201.377 211.292 200.656 210.659C202.642 207.498 204.639 202.749 205.837 199.487C204.539 199.72 203.13 199.942 201.755 200.098C201.377 199.31 201.067 197.856 201.011 196.836C201.976 196.891 203.053 196.78 204.051 196.703C204.817 196.625 205.815 196.503 206.88 196.348C207.335 194.717 207.901 192.62 208.156 190.967C209.332 191.167 210.885 191.71 211.629 192.165C211.351 193.053 210.941 194.229 210.375 195.893C211.163 195.793 211.906 195.737 212.472 195.737C214.968 195.737 217.065 197.468 217.065 201.041L217.054 201.029ZM224.221 202.971C223.71 203.581 222.357 204.402 221.436 204.735C220.571 201.906 218.762 198.744 217.309 197.058C217.997 196.525 219.151 195.859 219.861 195.527C221.414 197.213 223.455 200.808 224.221 202.971ZM219.827 195.238C219.295 194.317 218.529 193.197 217.764 192.409C218.197 192.032 218.884 191.588 219.295 191.444C219.961 192.11 220.904 193.385 221.414 194.229C221.103 194.539 220.393 195.016 219.827 195.249V195.238ZM222.435 193.607C221.869 192.72 221.137 191.644 220.338 190.856C220.77 190.501 221.458 190.035 221.869 189.857C222.534 190.49 223.477 191.721 224.01 192.587C223.677 192.897 222.989 193.374 222.423 193.607H222.435Z" fill="white"/>
    <path d="M251.086 198.123V201.13H245.139V213.522H241.955V201.13H236.241V206.355H230.761V208.574H227.898V192.055H236.241V198.123H241.955V189.936L245.838 190.135C245.816 190.39 245.605 190.546 245.15 190.646V198.123H251.097H251.086ZM233.301 203.537V194.895H230.75V203.537H233.301Z" fill="white"/>
    <path d="M267.315 202.638C267.315 200.774 266.273 199.675 264.353 199.675C262.112 199.675 259.15 200.896 255.833 201.462C255.4 200.774 254.834 199.087 254.734 198.167C257.952 197.989 262.434 196.613 264.886 196.613C268.203 196.613 270.655 198.655 270.655 202.405C270.655 207.941 267.238 211.846 260.348 213.222C259.505 212.578 258.462 211.08 258.074 210.082C263.732 209.339 267.304 207.042 267.304 202.66V202.638H267.315ZM268.536 191.31C268.613 192.153 268.336 193.784 268.159 194.45C265.707 194.372 260.404 193.784 257.796 193.374C257.719 192.531 257.774 190.977 257.952 190.212C260.659 190.822 266.295 191.332 268.536 191.31Z" fill="white"/>
    <path d="M286.326 195.216C286.248 195.394 286.093 195.527 285.893 195.593C285.128 197.579 284.029 199.543 282.731 201.329C283.985 202.195 286.104 203.748 286.681 204.214L284.895 206.743C284.307 206.033 283.308 205.035 282.343 204.136V213.555H279.303V205.268C278.305 206.211 277.284 206.999 276.241 207.664C275.986 206.876 275.243 205.368 274.766 204.78C277.695 203.149 280.501 200.209 282.21 196.969H275.553V194.218H279.303V189.48L283.031 189.68C283.009 189.935 282.798 190.091 282.343 190.168V194.229H283.852L284.307 194.107L286.326 195.227V195.216ZM294.003 209.783H299.484V212.79H284.895V209.783H290.841V200.364H285.938V197.402H290.841V189.702L294.691 189.935C294.669 190.191 294.458 190.346 294.003 190.423V197.413H298.874V200.375H294.003V209.794V209.783Z" fill="white"/>
    <path d="M308.016 200.009V198.123C306.64 199.066 305.153 199.964 303.622 200.674C303.267 199.987 302.468 198.788 301.836 198.178C306.274 196.215 310.456 192.52 312.342 189.458L316.469 189.658C316.392 189.913 316.159 190.113 315.804 190.168C318.178 193.363 322.46 196.237 326.343 197.646C325.578 198.411 324.89 199.51 324.358 200.453C322.926 199.787 321.429 198.922 319.997 197.956V200.02H308.004L308.016 200.009ZM303.456 204.99V202.128H324.757V204.99H312.764L313.529 205.245C313.43 205.445 313.174 205.556 312.764 205.556C312.231 206.81 311.488 208.263 310.723 209.617C313.252 209.561 316.003 209.483 318.755 209.417C317.89 208.418 316.969 207.453 316.081 206.632L318.788 205.234C321.085 207.22 323.481 209.905 324.679 211.847L321.817 213.577C321.54 213.067 321.151 212.501 320.719 211.891C314.95 212.246 309.036 212.557 305.131 212.734C305.076 212.967 304.876 213.111 304.643 213.145L303.567 209.772C304.643 209.75 305.919 209.75 307.339 209.694C308.082 208.263 308.814 206.532 309.38 205.001H303.434L303.456 204.99ZM318.966 197.202C316.98 195.726 315.16 194.04 313.995 192.431C312.897 193.985 311.244 195.671 309.247 197.202H318.966Z" fill="white"/>
    <path d="M347.135 208.784C347.29 209.905 347.079 211.358 346.78 212.335C345.859 212.645 343.23 213.023 340.966 213.023C337.372 213.023 333.722 211.88 333.722 208.307C333.722 205.123 336.451 203.537 339.513 202.006C339.313 201.296 338.592 200.785 337.627 200.785C335.741 200.785 334.132 202.261 332.069 204.89C331.248 204.302 330.26 203.304 329.75 202.438C332.457 200.042 334.188 197.768 335.231 195.937C334.01 196.015 332.812 196.07 331.758 196.07C331.481 195.305 331.226 193.896 331.192 192.953C331.98 193.086 332.801 193.13 333.511 193.13C334.332 193.13 335.397 193.108 336.573 193.03C336.95 191.954 337.283 190.756 337.438 189.735C338.359 189.813 339.935 190.224 340.678 190.579C340.523 191.067 340.245 191.877 339.912 192.698C341.543 192.498 343.097 192.209 344.25 191.799C344.506 192.542 344.628 193.862 344.583 194.661C343.052 195.038 340.856 195.405 338.559 195.66C337.971 196.68 337.205 197.879 336.518 198.822C337.405 198.467 338.248 198.289 338.936 198.289C340.312 198.289 341.721 199.032 342.231 200.641C344.095 199.698 345.748 198.877 347.002 198.145C347.59 197.79 348.222 197.379 348.888 196.847C349.42 197.513 349.931 199.021 350.064 199.887C349.298 200.475 345.193 202.361 342.464 203.637C342.486 204.912 342.486 206.599 342.52 207.719C341.699 207.853 340.378 207.853 339.48 207.697C339.557 207.187 339.58 206.111 339.58 205.012C337.771 205.978 336.928 206.854 336.928 207.997C336.928 209.395 338.359 210.016 341.033 210.016C343.33 210.016 345.726 209.384 347.135 208.818V208.784Z" fill="white"/>
    <path d="M364.772 196.514H358.804V195.549C358.138 196.215 357.428 196.847 356.64 197.457H366.769V205.467H358.482L358.327 206.432H367.258V213.366H364.584V212.679H360.246V213.466H357.672V209.106C357.217 210.537 356.574 211.891 355.686 213.011C355.276 212.501 354.177 211.48 353.645 211.17C355.919 208.208 356.174 204.08 356.174 201.174V197.801C355.864 198.034 355.531 198.256 355.209 198.489C354.898 197.801 354.111 196.647 353.578 196.17C356.696 194.262 358.881 191.677 360.079 189.458L363.452 190.068C363.374 190.301 363.175 190.479 362.809 190.479L362.786 190.534C364.75 191.655 366.869 193.186 368.09 194.262L366.425 196.558C365.993 196.126 365.427 195.638 364.795 195.161V196.514H364.772ZM358.715 202.361C358.715 202.694 358.693 203.026 358.659 203.359H364.018V202.361H358.715ZM364.029 199.576H358.748V200.519H364.029V199.576ZM363.852 194.45C363.031 193.84 362.143 193.23 361.3 192.686C360.867 193.274 360.379 193.862 359.869 194.45H363.852ZM364.562 208.662H360.224V210.504H364.562V208.662ZM371.884 192.797C371.862 193.053 371.684 193.175 371.218 193.286V207.087H368.334V192.587L371.884 192.786V192.797ZM373.947 189.991L377.598 190.146C377.542 190.401 377.398 190.579 376.932 190.656V209.872C376.932 212.801 375.967 213.522 370.786 213.522C370.652 212.679 370.22 211.281 369.787 210.404C371.318 210.46 372.827 210.46 373.304 210.46C373.759 210.46 373.947 210.304 373.947 209.85V189.991Z" fill="white"/>
    <path d="M400.821 205.7C400.821 209.505 397.715 212.967 391.968 212.967C388.318 212.967 386.299 211.058 386.299 208.784C386.299 206.82 387.907 205.19 390.226 205.19C393.188 205.19 395.052 206.976 395.585 209.139C396.883 208.374 397.57 207.153 397.57 205.667C397.57 203.426 395.707 201.939 392.645 201.939C388.207 201.939 385.733 205.079 383.891 207.73C383.103 207.142 382.049 206.022 381.539 205.156C383.27 203.215 386.254 200.153 387.996 198.422C389.549 196.869 391.136 195.338 391.901 194.472C390.47 194.672 388.051 194.983 385.699 195.182C385.422 194.395 385.111 192.986 385.034 192.02C385.777 192.076 386.72 192.098 387.452 192.043C389.549 191.91 394.752 191.477 395.917 191.222C396.406 191.732 397.038 192.853 397.315 193.596C395.962 194.716 394.176 196.281 392.722 197.623C391.702 198.588 390.836 199.432 390.326 200.02C391.324 199.487 392.622 199.254 393.543 199.254C397.826 199.254 400.788 201.551 400.788 205.678L400.821 205.7ZM392.789 210.016C392.534 208.684 391.713 207.775 390.47 207.775C389.727 207.775 389.294 208.229 389.294 208.718C389.294 209.561 390.182 210.071 391.646 210.071C392.057 210.071 392.434 210.049 392.789 210.016Z" fill="white"/>
    <path d="M406.188 209.527C406.188 207.564 407.796 205.955 409.782 205.955C411.768 205.955 413.354 207.564 413.354 209.55C413.354 211.536 411.746 213.122 409.782 213.122C407.818 213.122 406.188 211.513 406.188 209.55V209.527ZM407.408 209.583C407.408 210.837 408.484 211.879 409.782 211.879C411.08 211.879 412.134 210.837 412.134 209.561C412.134 208.285 411.058 207.187 409.782 207.187C408.506 207.187 407.408 208.229 407.408 209.561V209.583Z" fill="white"/>
  </g>
  <defs>
    <clipPath id="clip0_4350_57189">
      <rect width="413.355" height="24.2857" fill="white" transform="translate(0 189.425)"/>
    </clipPath>
  </defs>
</svg>